<svg width="294" height="581" viewBox="0 0 294 581" fill="none" xmlns="http://www.w3.org/2000/svg">
<text fill="white" fill-opacity="0.6" xml:space="preserve" style="white-space: pre" font-family="Roboto" font-size="8.11594" font-weight="bold" letter-spacing="0em"><tspan x="251.414" y="319.774">Torre&#10;</tspan><tspan x="251.802" y="329.774">Entel</tspan></text>
<g filter="url(#filter0_d_114_345)">
<path d="M263.163 302.551L249.993 301.676V136.557L247.315 135.969L245.814 125.352L253.091 124.658V121.308L248.069 121.117V109.666H246.06V106.768H253.091V104.357H252.087V97.3956C252.087 97.3956 245.568 98.1892 245.814 98.134V89.701L253.091 88.6764V84.4222L246.19 84.6733V83.4026L253.091 82.4031V75.3564L246.286 75.6075V74.3267L253.091 73.3373V67.1795L251.836 67.4407V64.0605C251.836 64.0605 255.603 62.9354 257.612 62.6542V59.957H259.962V37.516H261.081V26.642L264.321 26.642V37.516H265.296V59.957H268.159V62.6592C268.159 62.6592 272.318 63.3724 273.503 64.0756V67.4357L272.68 67.1996V73.2469L279.43 74.3217V75.8586L272.68 75.3463V82.3328L279.335 83.3976V84.9345L272.68 84.4272V88.8321L278.958 89.701V98.9476C278.958 98.9476 274.689 97.5212 273.684 97.5564V104.352H272.68V106.763H279.209V109.661H277.039V121.112L272.68 121.343V124.889L278.958 125.347L277.677 135.964L275.191 136.572V301.741L263.163 302.551Z" fill="#D9D9D9" fill-opacity="0.4"/>
</g>
<text fill="white" fill-opacity="0.6" xml:space="preserve" style="white-space: pre" font-family="Roboto" font-size="13.14" font-weight="600" letter-spacing="0em"><tspan x="239.094" y="11.9912">127,3 m</tspan></text>
<path d="M195.354 296.078L202.384 282.23L202.078 178.129L200.781 169.598L202.049 164.529V155.627H205.873V157.11H208.709V155.627H215.863V157.11H218.33C218.207 156.616 218.034 155.627 218.33 155.627H221.784L221.907 164.529C222.11 166.25 222.48 167.951 223.017 169.598L221.784 177.634V282.23L229.061 296.078V302.878L227.705 303.249L222.771 300.529L222.869 302.26H221.513L222.869 304.238H201.255L202.241 302.26H201.131L201.235 300.529L197.678 303.249L195.334 302.878L195.354 296.078Z" fill="#B2B2B2"/>
<path d="M190.662 142.769L202.01 112.354C201.98 102.107 202.01 84.6151 202.246 73.2851L194.486 71.4305V66.1092L208.127 47.0693C209.662 43.5629 211.191 40.8874 212.247 40.8874C213.303 40.8874 215.015 43.5481 216.653 47.0693L229.762 66.1092V71.7965L221.868 73.2802C222.051 83.448 222.218 98.6701 222.218 112.349L233.319 142.764V153.767L225.302 155.622H218.543V157.106H215.829V155.622H208.675V157.106H205.838V155.622H198.561L190.667 153.767L190.662 142.769Z" fill="#DADADA"/>
<path d="M202.015 112.354L190.667 142.769V153.772L198.561 155.627M202.015 112.354C201.985 102.107 202.015 84.6151 202.252 73.2851M202.015 112.354L204.358 151.176L202.015 155.627M202.015 112.354L198.561 155.627M222.243 112.354L233.344 142.769V153.772L225.327 155.627M222.243 112.354C222.243 98.6701 222.076 83.448 221.893 73.2851M222.243 112.354L220.146 151.176L221.75 155.627M222.243 112.354L225.327 155.627M198.561 155.627H202.015M202.015 155.627H205.962M202.015 155.627V164.405M202.36 282.23L195.329 296.078V302.878L197.673 303.249L201.23 300.529M202.36 282.23L201.23 300.529M202.36 282.23L202.059 179.365M221.725 282.23L229.003 296.078V302.878L227.646 303.249L222.712 300.529M221.725 282.23L222.712 300.529M221.725 282.23V179.365M221.725 155.627H225.302M221.725 155.627H218.365M221.725 155.627L221.765 164.405M208.133 47.0693C205.705 52.6131 203.283 60.2291 202.755 62.6474C202.528 63.686 202.365 67.7511 202.261 73.2801M208.142 47.0693C209.677 43.5629 211.206 40.8874 212.262 40.8874C213.318 40.8874 215.03 43.5481 216.668 47.0693M208.142 47.0693L194.501 66.1092V71.4256L202.261 73.2801M216.668 47.0693C219.135 52.3411 221.488 59.5367 221.636 62.6474C221.715 64.3783 221.814 68.2012 221.903 73.2801M216.668 47.0693L229.777 66.1092V71.7965L221.883 73.2801M201.255 300.529L201.151 302.26H202.261M222.761 300.529L222.86 302.26H221.503M202.261 302.26L201.275 304.238H222.88L221.523 302.26M202.281 302.26H203.638M221.523 302.26H220.783M205.981 155.627C206.213 149.223 207.748 143.965 208.547 142.027V155.627M205.981 155.627C205.981 156.156 205.981 156.69 205.981 157.234H208.572V155.627M208.572 155.627H215.849M215.849 155.627V157.234H218.439C218.439 156.69 218.439 156.156 218.41 155.627M215.849 155.627V142.027C216.643 143.965 218.178 149.223 218.41 155.627M202.049 164.405H204.862L206.958 171.947L204.862 179.365H202.094M202.049 164.405L200.791 169.598L202.094 179.365M221.784 164.405H218.977L216.88 171.947L218.977 179.365H221.745M221.784 164.405L223.047 169.598L221.745 179.365M208.917 302.26L208.547 281.612L203.613 296.572V302.26M208.917 302.26L203.613 303.249V302.26M208.917 302.26H215.208M215.208 302.26L220.758 303.249V302.26M215.208 302.26L215.578 281.489L220.758 296.572V302.26M205.71 57.8256H218.908C217.63 53.2511 214.517 44.1267 212.247 44.2256C209.978 44.3245 206.948 53.3351 205.715 57.8256H205.71Z" stroke="#010101" stroke-width="0.597187"/>
<path d="M190.662 142.769L202.009 112.354C201.98 102.107 202.009 84.6151 202.246 73.2851L194.485 71.4306V66.1093L208.127 47.0693C209.662 43.5629 211.191 40.8875 212.247 40.8875C213.303 40.8875 215.015 43.5481 216.653 47.0693L229.762 66.1093V71.7965L221.868 73.2802C222.051 83.448 222.218 98.6701 222.218 112.349L233.319 142.764V153.767L225.302 155.622H221.725V282.226L229.002 296.073V302.873L227.645 303.244L222.712 300.524L222.81 302.255H221.454L222.81 304.233H201.255L202.241 302.255H201.131L201.235 300.524L197.678 303.244L195.334 302.873V296.078L202.365 282.23L201.995 155.627H198.541L190.647 153.772L190.662 142.769Z" stroke="#010101" stroke-width="1.79156"/>
<path d="M39.3787 260.124V264.476H42.9803V260.124L41.5199 257.211C41.3768 256.93 40.9772 256.93 40.8341 257.211L39.3787 260.124Z" fill="#DADADA" stroke="black" stroke-width="0.597187" stroke-miterlimit="10"/>
<path d="M41.1845 264.476H38.8755V297.215H41.1845H43.3159V264.476H41.1845Z" fill="#B2B2B2" stroke="black" stroke-width="0.597187" stroke-miterlimit="10"/>
<path d="M38.8854 265.564H43.3159" stroke="black" stroke-width="0.597187" stroke-miterlimit="10"/>
<path d="M43.3208 268.779H38.8755V276.068H43.3208V268.779Z" fill="#4D4D4D" stroke="black" stroke-width="0.597187" stroke-miterlimit="10"/>
<path d="M38.8755 297.215L41.0957 300.375L43.3159 297.215H38.8755Z" stroke="black" stroke-width="0.597187" stroke-miterlimit="10" stroke-linecap="round" stroke-linejoin="round"/>
<path d="M43.3159 297.215L41.0957 299.01L38.8755 297.215" stroke="black" stroke-width="0.597187" stroke-miterlimit="10" stroke-linecap="round" stroke-linejoin="round"/>
<path d="M41.8456 300.182H40.3655V301.172H41.8456V300.182Z" fill="#4D4D4D" stroke="black" stroke-width="0.597187" stroke-miterlimit="10"/>
<path d="M39.8868 303.555L41.1055 301.172L42.4327 303.555H39.8868Z" fill="#4D4D4D" stroke="black" stroke-width="0.597187" stroke-miterlimit="10" stroke-linecap="round" stroke-linejoin="round"/>
<path d="M41.1746 301.172C41.5495 301.172 41.8505 300.87 41.8505 300.494V300.182H41.2387L43.2024 297.388C43.2813 297.275 43.3257 297.136 43.3257 296.998V264.476H42.9902V260.288C42.9902 260.179 42.9655 260.075 42.9162 259.981L41.737 257.671C41.4805 257.172 40.7651 257.182 40.5233 257.691L39.4478 259.991C39.4033 260.08 39.3836 260.179 39.3836 260.278V264.481H38.8804V297.003C38.8804 297.141 38.9248 297.28 39.0037 297.393L40.9674 300.187H40.3753V300.499C40.3753 300.875 40.6763 301.177 41.0512 301.177H41.1746V301.172Z" stroke="black" stroke-width="1.79156" stroke-miterlimit="10" stroke-linecap="round" stroke-linejoin="round"/>
<path d="M39.8868 303.555H42.4327L41.1055 301.172L39.8868 303.555Z" stroke="black" stroke-width="1.79156" stroke-miterlimit="10" stroke-linecap="round" stroke-linejoin="round"/>
<text fill="white" xml:space="preserve" style="white-space: pre" font-family="Roboto" font-size="8.36061" letter-spacing="0em"><tspan x="38.1486" y="329.858">1</tspan></text>
<text fill="white" xml:space="preserve" style="white-space: pre" font-family="Roboto" font-size="8.36061" font-weight="bold" letter-spacing="0em"><tspan x="28.0489" y="319.858">Falcon&#x2028;</tspan></text>
<text fill="white" xml:space="preserve" style="white-space: pre" font-family="Roboto" font-size="8.36061" letter-spacing="0em"><tspan x="105.671" y="319.868"> </tspan><tspan x="76.0784" y="329.868">Block 5</tspan></text>
<text fill="white" xml:space="preserve" style="white-space: pre" font-family="Roboto" font-size="8.36061" font-weight="bold" letter-spacing="0em"><tspan x="73.8862" y="319.868">Falcon 9</tspan></text>
<text fill="white" xml:space="preserve" style="white-space: pre" font-family="Roboto" font-size="8.36061" font-weight="bold" letter-spacing="0em"><tspan x="137.643" y="319.868">Falcon </tspan><tspan x="138.456" y="329.868">Heavy</tspan></text>
<path d="M86.3533 171.47H94.2474L95.9742 168.75H84.6709L86.3533 171.47Z" fill="#DADADA" stroke="black" stroke-width="0.597187" stroke-miterlimit="10"/>
<path d="M95.1898 148.898L93.7689 143.997C92.7229 140.392 87.6016 140.451 86.6445 144.086L85.3617 148.958C84.8979 150.713 84.666 152.518 84.666 154.333V168.749H95.9693V154.417C95.9743 152.548 95.7128 150.688 95.1898 148.898Z" fill="#DADADA" stroke="black" stroke-width="0.597187" stroke-miterlimit="10"/>
<path d="M90.3003 141.302V168.75" stroke="black" stroke-width="0.597187" stroke-miterlimit="10"/>
<path d="M87.0638 300.615L86.2498 303.177H94.6372L93.6899 300.615H87.0638Z" fill="#4D4D4D" stroke="black" stroke-width="0.597187" stroke-miterlimit="10"/>
<path d="M91.8248 303.177H88.8695V303.657H91.8248V303.177Z" fill="#4D4D4D" stroke="black" stroke-width="0.597187" stroke-miterlimit="10"/>
<path d="M93.69 300.615L91.8251 303.177L90.4436 300.615L88.8697 303.177L87.064 300.615H93.69Z" fill="#4D4D4D" stroke="black" stroke-width="0.597187" stroke-miterlimit="10" stroke-linecap="round" stroke-linejoin="round"/>
<path d="M94.494 292.88H86.6V300.793H94.494V292.88Z" fill="#4D4D4D" stroke="black" stroke-width="0.597187" stroke-miterlimit="10"/>
<path d="M86.1066 207.324H94.494V292.88H86.5999L86.1066 207.324Z" fill="#B2B2B2" stroke="black" stroke-width="0.597187" stroke-miterlimit="10"/>
<path d="M86.1066 275.636L85.2678 299.201H90.3398L87.3351 275.581C87.2413 274.825 86.1362 274.879 86.1066 275.636Z" fill="#4D4D4D" stroke="black" stroke-width="0.597187" stroke-miterlimit="10"/>
<path d="M90.7543 299.201H95.7275L94.795 275.814C94.7654 275.052 93.6504 275.008 93.5616 275.764L90.7543 299.201Z" fill="#4D4D4D" stroke="black" stroke-width="0.597187" stroke-miterlimit="10"/>
<path d="M89.7724 299.201L87.4782 290.507C87.2611 289.691 86.0819 289.794 86.0079 290.635L85.2678 299.201H95.7275L94.7456 290.507C94.6568 289.705 93.5171 289.641 93.3395 290.427L91.3265 299.201" fill="#4D4D4D"/>
<path d="M89.7724 299.201L87.4782 290.507C87.2611 289.691 86.0819 289.794 86.0079 290.635L85.2678 299.201H95.7275L94.7456 290.507C94.6568 289.705 93.5171 289.641 93.3395 290.427L91.3265 299.201" stroke="black" stroke-width="0.597187" stroke-miterlimit="10"/>
<path d="M86.4965 289.948L86.7488 275.042" stroke="black" stroke-width="0.597187" stroke-miterlimit="10"/>
<path d="M94.0303 289.948L94.2925 275.23" stroke="black" stroke-width="0.597187" stroke-miterlimit="10"/>
<path d="M94.494 191.499H86.1066V207.324H94.494V191.499Z" fill="#4D4D4D" stroke="black" stroke-width="0.597187" stroke-miterlimit="10"/>
<path d="M85.6132 210.291H88.4994V206.483C88.0998 205.01 86.0128 205.01 85.6132 206.483V210.291Z" fill="#4D4D4D" stroke="black" stroke-width="0.597187" stroke-miterlimit="10"/>
<path d="M92.1653 210.291H95.244V206.345C94.795 204.837 92.6537 204.846 92.2245 206.365L92.1653 206.572V210.291Z" fill="#4D4D4D" stroke="black" stroke-width="0.597187" stroke-miterlimit="10"/>
<path d="M94.494 171.222H86.1066V191.499H94.494V171.222Z" fill="#B2B2B2" stroke="black" stroke-width="0.597187" stroke-miterlimit="10"/>
<path d="M94.4937 210.291V275.22L94.7946 275.819L95.7271 299.206H94.4937V300.798H93.7536L94.6367 303.182H91.8245V303.661H88.8691V303.182H86.2493L87.0634 300.798H86.5996V299.206H85.2675L86.1062 275.641L86.4911 275.042L86.1062 210.291H85.6128V206.483L86.1062 205.712V171.222L84.4041 168.636V154.22C84.4041 152.405 84.6359 150.6 85.0997 148.844L86.3825 143.973C87.3397 140.343 92.4609 140.279 93.5069 143.884L94.9278 148.785C95.4459 150.575 95.7123 152.435 95.7123 154.304V168.636L94.4986 171.222L94.7403 205.593L95.2436 206.345V210.291H94.4937Z" stroke="black" stroke-width="1.79156" stroke-miterlimit="10"/>
<text fill="white" xml:space="preserve" style="white-space: pre" font-family="Roboto" font-size="8.36061" font-weight="bold" letter-spacing="0em"><tspan x="195.84" y="319.868">Starship</tspan></text>
<path d="M146.587 171.516H154.481L156.208 168.796H144.904L146.587 171.516Z" fill="#DADADA" stroke="black" stroke-width="0.597187" stroke-miterlimit="10"/>
<path d="M155.428 148.945L154.007 144.044C152.961 140.439 147.84 140.498 146.883 144.133L145.6 149.004C145.136 150.76 144.904 152.565 144.904 154.38V168.796H156.208V154.464C156.208 152.595 155.946 150.735 155.428 148.945Z" fill="#DADADA" stroke="black" stroke-width="0.597187" stroke-miterlimit="10"/>
<path d="M150.534 141.349V168.796" stroke="black" stroke-width="0.597187" stroke-miterlimit="10"/>
<path d="M147.297 300.662L146.488 303.223H154.875L153.923 300.662H147.297Z" fill="#4D4D4D" stroke="black" stroke-width="0.597187" stroke-miterlimit="10"/>
<path d="M152.059 303.223H149.103V303.703H152.059V303.223Z" fill="#4D4D4D" stroke="black" stroke-width="0.597187" stroke-miterlimit="10"/>
<path d="M153.923 300.662L152.063 303.223L150.682 300.662L149.103 303.223L147.297 300.662H153.923Z" fill="#4D4D4D" stroke="black" stroke-width="0.597187" stroke-miterlimit="10" stroke-linecap="round" stroke-linejoin="round"/>
<path d="M154.727 292.927H146.833V300.84H154.727V292.927Z" fill="#4D4D4D" stroke="black" stroke-width="0.597187" stroke-miterlimit="10"/>
<path d="M146.34 207.37H154.727V292.927H146.833L146.34 207.37Z" fill="#B2B2B2" stroke="black" stroke-width="0.597187" stroke-miterlimit="10"/>
<path d="M146.345 275.682L145.506 299.247H150.578L147.574 275.628C147.475 274.871 146.37 274.92 146.345 275.682Z" fill="#B2B2B2" stroke="black" stroke-width="0.597187" stroke-miterlimit="10"/>
<path d="M150.993 299.247H155.961L155.029 275.86C154.999 275.098 153.884 275.054 153.795 275.811L150.993 299.247Z" fill="#B2B2B2" stroke="black" stroke-width="0.597187" stroke-miterlimit="10"/>
<path d="M150.006 299.247L147.712 290.553C147.494 289.737 146.315 289.841 146.241 290.682L145.501 299.247H155.961L154.979 290.553C154.89 289.752 153.751 289.687 153.573 290.474L151.56 299.247" fill="#B2B2B2"/>
<path d="M150.006 299.247L147.712 290.553C147.494 289.737 146.315 289.841 146.241 290.682L145.501 299.247H155.961L154.979 290.553C154.89 289.752 153.751 289.687 153.573 290.474L151.56 299.247" stroke="black" stroke-width="0.597187" stroke-miterlimit="10"/>
<path d="M146.73 289.994L146.987 275.084" stroke="black" stroke-width="0.597187" stroke-miterlimit="10"/>
<path d="M154.264 289.994L154.526 275.276" stroke="black" stroke-width="0.597187" stroke-miterlimit="10"/>
<path d="M154.727 191.545H146.34V207.37H154.727V191.545Z" fill="#B2B2B2" stroke="black" stroke-width="0.597187" stroke-miterlimit="10"/>
<path d="M145.846 210.338H148.732V206.53C148.333 205.056 146.246 205.056 145.846 206.53V210.338Z" fill="#4D4D4D" stroke="black" stroke-width="0.597187" stroke-miterlimit="10"/>
<path d="M151.905 210.338H154.984V206.391C154.535 204.883 152.393 204.893 151.964 206.411L151.905 206.619V210.338Z" fill="#4D4D4D" stroke="black" stroke-width="0.597187" stroke-miterlimit="10"/>
<path d="M154.727 171.269H146.34V191.545H154.727V171.269Z" fill="#B2B2B2" stroke="black" stroke-width="0.597187" stroke-miterlimit="10"/>
<path d="M137.089 208.043H145.067V206.243C145.067 204.349 144.761 202.465 144.169 200.664C143.158 197.608 138.821 197.682 137.913 200.768C137.425 202.425 137.163 204.141 137.133 205.867L137.089 208.043Z" fill="#B2B2B2" stroke="black" stroke-width="0.597187" stroke-miterlimit="10"/>
<path d="M155.837 208.043H163.815V206.243C163.815 204.349 163.509 202.465 162.917 200.664C161.906 197.608 157.569 197.682 156.661 200.768C156.173 202.425 155.911 204.141 155.882 205.867L155.837 208.043Z" fill="#B2B2B2" stroke="black" stroke-width="0.597187" stroke-miterlimit="10"/>
<path d="M145.067 208.043H136.679V299.039H145.067V208.043Z" fill="#B2B2B2" stroke="black" stroke-width="0.597187" stroke-miterlimit="10"/>
<path d="M164.309 208.043H155.921V299.039H164.309V208.043Z" fill="#B2B2B2" stroke="black" stroke-width="0.597187" stroke-miterlimit="10"/>
<path d="M136.26 211.04H139.147V207.232C138.747 205.758 136.66 205.758 136.26 207.232V211.04Z" fill="#4D4D4D" stroke="black" stroke-width="0.597187" stroke-miterlimit="10"/>
<path d="M142.319 211.04H145.398V207.094C144.949 205.585 142.807 205.595 142.378 207.113L142.319 207.321V211.04Z" fill="#4D4D4D" stroke="black" stroke-width="0.597187" stroke-miterlimit="10"/>
<path d="M155.502 211.04H158.388V207.232C157.989 205.758 155.902 205.758 155.502 207.232V211.04Z" fill="#4D4D4D" stroke="black" stroke-width="0.597187" stroke-miterlimit="10"/>
<path d="M145.111 293.026H137.217V300.938H145.111V293.026Z" fill="#4D4D4D" stroke="black" stroke-width="0.597187" stroke-miterlimit="10"/>
<path d="M161.561 211.04H164.639V207.094C164.19 205.585 162.049 205.595 161.62 207.113L161.561 207.321V211.04Z" fill="#4D4D4D" stroke="black" stroke-width="0.597187" stroke-miterlimit="10"/>
<path d="M164.353 293.026H156.459V300.938H164.353V293.026Z" fill="#4D4D4D" stroke="black" stroke-width="0.597187" stroke-miterlimit="10"/>
<path d="M136.606 276.023L135.767 299.588H140.839L137.834 275.969C137.736 275.212 136.63 275.262 136.606 276.023Z" fill="#B2B2B2" stroke="black" stroke-width="0.597187" stroke-miterlimit="10"/>
<path d="M141.253 299.588H146.222L145.289 276.201C145.259 275.44 144.144 275.395 144.056 276.152L141.253 299.588Z" fill="#B2B2B2" stroke="black" stroke-width="0.597187" stroke-miterlimit="10"/>
<path d="M140.267 299.588L137.972 290.894C137.755 290.078 136.576 290.182 136.502 291.023L135.762 299.588H146.222L145.24 290.894C145.151 290.093 144.011 290.029 143.834 290.815L141.821 299.588" fill="#B2B2B2"/>
<path d="M140.267 299.588L137.972 290.894C137.755 290.078 136.576 290.182 136.502 291.023L135.762 299.588H146.222L145.24 290.894C145.151 290.093 144.011 290.029 143.834 290.815L141.821 299.588" stroke="black" stroke-width="0.597187" stroke-miterlimit="10"/>
<path d="M136.99 290.335L137.248 275.425" stroke="black" stroke-width="0.597187" stroke-miterlimit="10"/>
<path d="M144.787 275.618L144.524 290.335" stroke="black" stroke-width="0.597187" stroke-miterlimit="10"/>
<path d="M155.753 276.097L154.915 299.663H159.986L156.987 276.043C156.888 275.286 155.783 275.341 155.753 276.097Z" fill="#B2B2B2" stroke="black" stroke-width="0.597187" stroke-miterlimit="10"/>
<path d="M160.406 299.663H165.374L164.442 276.275C164.412 275.514 163.297 275.469 163.208 276.226L160.406 299.663Z" fill="#B2B2B2" stroke="black" stroke-width="0.597187" stroke-miterlimit="10"/>
<path d="M159.419 299.663L157.125 290.968C156.908 290.152 155.729 290.256 155.655 291.097L154.915 299.663H165.374L164.392 290.968C164.304 290.167 163.164 290.103 162.986 290.889L160.973 299.663" fill="#B2B2B2"/>
<path d="M159.419 299.663L157.125 290.968C156.908 290.152 155.729 290.256 155.655 291.097L154.915 299.663H165.374L164.392 290.968C164.304 290.167 163.164 290.103 162.986 290.889L160.973 299.663" stroke="black" stroke-width="0.597187" stroke-miterlimit="10"/>
<path d="M156.143 290.41L156.4 275.504" stroke="black" stroke-width="0.597187" stroke-miterlimit="10"/>
<path d="M163.677 290.41L163.939 275.692" stroke="black" stroke-width="0.597187" stroke-miterlimit="10"/>
<path d="M156.923 300.76L156.114 303.322H164.501L163.549 300.76H156.923Z" fill="#4D4D4D" stroke="black" stroke-width="0.597187" stroke-miterlimit="10"/>
<path d="M161.689 303.322H158.734V303.802H161.689V303.322Z" fill="#4D4D4D" stroke="black" stroke-width="0.597187" stroke-miterlimit="10"/>
<path d="M163.549 300.76L161.689 303.322L160.307 300.76L158.734 303.322L156.923 300.76H163.549Z" fill="#4D4D4D" stroke="black" stroke-width="0.597187" stroke-miterlimit="10" stroke-linecap="round" stroke-linejoin="round"/>
<path d="M137.681 300.76L136.872 303.322H145.259L144.307 300.76H137.681Z" fill="#4D4D4D" stroke="black" stroke-width="0.597187" stroke-miterlimit="10"/>
<path d="M142.447 303.322H139.492V303.802H142.447V303.322Z" fill="#4D4D4D" stroke="black" stroke-width="0.597187" stroke-miterlimit="10"/>
<path d="M144.307 300.76L142.447 303.322L141.066 300.76L139.492 303.322L137.681 300.76H144.307Z" fill="#4D4D4D" stroke="black" stroke-width="0.597187" stroke-miterlimit="10" stroke-linecap="round" stroke-linejoin="round"/>
<path d="M159.868 204.087H140.627V204.581H159.868V204.087Z" fill="#B2B2B2" stroke="black" stroke-width="0.597187" stroke-miterlimit="10"/>
<path d="M154.772 171.224L155.985 168.638V154.306C155.985 152.441 155.724 150.582 155.201 148.787L153.78 143.886C152.734 140.28 147.613 140.34 146.655 143.975L145.373 148.846C144.909 150.602 144.677 152.407 144.677 154.222V168.638L146.379 171.224L146.34 204.087H145.067C145.067 204.087 144.736 198.424 141.08 198.409C141.08 198.409 136.822 197.761 137.123 206.238L136.265 207.227V211.035H136.684L136.61 276.018L135.771 299.583H137.227V300.938H137.636L136.882 303.322H139.501V303.802H142.457V303.322H145.269L144.386 300.938H145.126V299.583H146.236V299.242H146.848V300.835H147.257L146.502 303.218H149.122V303.698H152.078V303.218H154.89L154.007 300.835H154.747V299.242L154.959 299.247L154.934 299.658H156.479V300.933H156.888L156.133 303.317H158.753V303.797H161.708V303.317H164.521L163.638 300.933H164.378V299.658H165.399L164.333 275.687V211.04H164.664V207.093L163.84 205.966C163.84 205.966 164.008 198.424 159.853 198.409C159.853 198.409 156.686 197.41 155.946 204.087H154.752L154.772 171.224Z" stroke="black" stroke-width="1.79156" stroke-miterlimit="10"/>
<path d="M144.919 204.581L145.067 206.243L145.398 207.093V211.04H145.067V275.504L145.289 276.201L145.846 286.824L146.345 275.682L146.73 275.084L146.34 210.338H145.846V206.525L146.34 205.753V204.581" stroke="black" stroke-width="1.79156" stroke-miterlimit="10"/>
<path d="M154.727 204.581V205.877L154.984 206.391V210.338H154.727V275.084L155.028 275.86L155.388 286.423L155.754 276.097L155.921 275.276V211.04H155.502V207.227L155.921 206.52V204.581" stroke="black" stroke-width="1.79156" stroke-miterlimit="10"/>
<path d="M3.18677 304.844L287 304.844" stroke="white" stroke-width="0.597187"/>
<path d="M86.3508 422.932H94.2457L95.9775 420.113H84.6787L86.3508 422.932Z" fill="#DADADA" stroke="black" stroke-width="0.597187" stroke-miterlimit="10"/>
<path d="M95.1892 399.522L93.7679 394.434C92.7168 390.696 87.6049 390.755 86.6494 394.53L85.3714 399.582C84.9056 401.397 84.6787 403.272 84.6787 405.16V420.113H95.9775V405.255C95.9775 403.308 95.7147 401.385 95.1892 399.522Z" fill="#DADADA" stroke="black" stroke-width="0.597187" stroke-miterlimit="10"/>
<path d="M90.3042 391.651V420.125" stroke="black" stroke-width="0.597187" stroke-miterlimit="10"/>
<path d="M87.0675 556.893L86.2554 559.544H94.6399L93.6963 556.893H87.0675Z" fill="#4D4D4D" stroke="black" stroke-width="0.597187" stroke-miterlimit="10"/>
<path d="M91.8212 559.544H88.8711V560.046H91.8212V559.544Z" fill="#4D4D4D" stroke="black" stroke-width="0.597187" stroke-miterlimit="10"/>
<path d="M93.6844 556.893L91.8212 559.544L90.4357 556.893L88.8592 559.544L87.0557 556.893H93.6844Z" fill="#4D4D4D" stroke="black" stroke-width="0.597187" stroke-miterlimit="10" stroke-linecap="round" stroke-linejoin="round"/>
<path d="M94.4964 548.866H86.6016V557.072H94.4964V548.866Z" fill="#4D4D4D" stroke="black" stroke-width="0.597187" stroke-miterlimit="10"/>
<path d="M86.1001 460.125H94.4846V548.866H86.5898L86.1001 460.125Z" fill="#B2B2B2" stroke="black" stroke-width="0.597187" stroke-miterlimit="10"/>
<path d="M86.1002 530.987L85.2642 555.424H90.3402L87.3304 530.927C87.2349 530.139 86.136 530.198 86.1002 530.987Z" fill="#4D4D4D" stroke="black" stroke-width="0.597187" stroke-miterlimit="10"/>
<path d="M90.7583 555.424H95.7269L94.7953 531.166C94.7714 530.378 93.6487 530.33 93.5651 531.118L90.7583 555.424Z" fill="#4D4D4D" stroke="black" stroke-width="0.597187" stroke-miterlimit="10"/>
<path d="M89.767 555.424L87.4738 546.406C87.2588 545.558 86.0763 545.666 86.0047 546.537L85.2642 555.424H95.7269L94.7475 546.406C94.6639 545.57 93.5173 545.51 93.3381 546.322L91.3316 555.424" fill="#4D4D4D"/>
<path d="M89.767 555.424L87.4738 546.406C87.2588 545.558 86.0763 545.666 86.0047 546.537L85.2642 555.424H95.7269L94.7475 546.406C94.6639 545.57 93.5173 545.51 93.3381 546.322L91.3316 555.424" stroke="black" stroke-width="0.597187" stroke-miterlimit="10"/>
<path d="M86.4941 545.821L86.745 530.366" stroke="black" stroke-width="0.597187" stroke-miterlimit="10"/>
<path d="M94.0308 545.821L94.2935 530.557" stroke="black" stroke-width="0.597187" stroke-miterlimit="10"/>
<path d="M94.4963 443.714H86.1118V460.125H94.4963V443.714Z" fill="#4D4D4D" stroke="black" stroke-width="0.597187" stroke-miterlimit="10"/>
<path d="M85.6104 463.206H88.5008V459.253C88.0947 457.724 86.0164 457.724 85.6104 459.253V463.206Z" fill="#4D4D4D" stroke="black" stroke-width="0.597187" stroke-miterlimit="10"/>
<path d="M92.1675 463.206H95.249V459.109C94.7951 457.545 92.6572 457.557 92.2272 459.133L92.1675 459.348V463.206Z" fill="#4D4D4D" stroke="black" stroke-width="0.597187" stroke-miterlimit="10"/>
<path d="M94.4963 422.681H86.1118V443.714H94.4963V422.681Z" fill="#B2B2B2" stroke="black" stroke-width="0.597187" stroke-miterlimit="10"/>
<path d="M94.4965 463.206V530.557L94.7951 531.178L95.7267 555.436H94.4965V557.084H93.756L94.6399 559.556H91.8331V560.058H88.883V559.556H86.2673L87.0795 557.084H86.6137V555.436H85.2879L86.124 530.987L86.5062 530.366L86.124 463.206H85.6343V459.253L86.124 458.452V422.681L84.416 419.994V405.04C84.416 403.153 84.6429 401.29 85.1088 399.462L86.3867 394.41C87.3422 390.648 92.4661 390.576 93.5052 394.315L94.9265 399.403C95.4401 401.254 95.7148 403.189 95.7148 405.124V419.994L94.4965 422.681L94.7354 458.333L95.2371 459.109V463.206H94.4965V463.206Z" stroke="black" stroke-width="1.79156" stroke-miterlimit="10"/>
<path d="M146.583 422.98H154.478L156.21 420.161H144.911L146.583 422.98Z" fill="#DADADA" stroke="black" stroke-width="0.597187" stroke-miterlimit="10"/>
<path d="M155.422 399.57L154 394.482C152.949 390.743 147.837 390.803 146.882 394.577L145.604 399.629C145.138 401.445 144.911 403.32 144.911 405.207V420.161H156.21V405.291C156.21 403.356 155.947 401.433 155.422 399.57Z" fill="#DADADA" stroke="black" stroke-width="0.597187" stroke-miterlimit="10"/>
<path d="M150.537 391.699V420.173" stroke="black" stroke-width="0.597187" stroke-miterlimit="10"/>
<path d="M147.3 556.94L146.488 559.592H154.872L153.917 556.94H147.3Z" fill="#4D4D4D" stroke="black" stroke-width="0.597187" stroke-miterlimit="10"/>
<path d="M152.053 559.592H149.103V560.094H152.053V559.592Z" fill="#4D4D4D" stroke="black" stroke-width="0.597187" stroke-miterlimit="10"/>
<path d="M153.917 556.94L152.053 559.592L150.668 556.94L149.091 559.592L147.288 556.94H153.917Z" fill="#4D4D4D" stroke="black" stroke-width="0.597187" stroke-miterlimit="10" stroke-linecap="round" stroke-linejoin="round"/>
<path d="M154.729 548.914H146.834V557.119H154.729V548.914Z" fill="#4D4D4D" stroke="black" stroke-width="0.597187" stroke-miterlimit="10"/>
<path d="M146.344 460.172H154.729V548.914H146.834L146.344 460.172Z" fill="#B2B2B2" stroke="black" stroke-width="0.597187" stroke-miterlimit="10"/>
<path d="M146.345 531.034L145.509 555.471H150.585L147.587 530.975C147.479 530.186 146.368 530.234 146.345 531.034Z" fill="#B2B2B2" stroke="black" stroke-width="0.597187" stroke-miterlimit="10"/>
<path d="M150.99 555.471H155.959L155.027 531.214C155.003 530.425 153.881 530.377 153.797 531.166L150.99 555.471Z" fill="#B2B2B2" stroke="black" stroke-width="0.597187" stroke-miterlimit="10"/>
<path d="M149.999 555.471L147.706 546.454C147.491 545.606 146.308 545.713 146.237 546.585L145.496 555.471H155.959L154.979 546.454C154.896 545.618 153.749 545.558 153.57 546.37L151.564 555.471" fill="#B2B2B2"/>
<path d="M149.999 555.471L147.706 546.454C147.491 545.606 146.308 545.713 146.237 546.585L145.496 555.471H155.959L154.979 546.454C154.896 545.618 153.749 545.558 153.57 546.37L151.564 555.471" stroke="black" stroke-width="0.597187" stroke-miterlimit="10"/>
<path d="M146.726 545.88L146.977 530.413" stroke="black" stroke-width="0.597187" stroke-miterlimit="10"/>
<path d="M154.263 545.881L154.526 530.616" stroke="black" stroke-width="0.597187" stroke-miterlimit="10"/>
<path d="M154.729 443.762H146.344V460.172H154.729V443.762Z" fill="#B2B2B2" stroke="black" stroke-width="0.597187" stroke-miterlimit="10"/>
<path d="M145.843 463.254H148.733V459.3C148.327 457.771 146.249 457.771 145.843 459.3V463.254Z" fill="#4D4D4D" stroke="black" stroke-width="0.597187" stroke-miterlimit="10"/>
<path d="M151.898 463.254H154.98V459.157C154.526 457.592 152.388 457.604 151.958 459.181L151.898 459.396V463.254Z" fill="#4D4D4D" stroke="black" stroke-width="0.597187" stroke-miterlimit="10"/>
<path d="M154.729 422.729H146.344V443.761H154.729V422.729Z" fill="#B2B2B2" stroke="black" stroke-width="0.597187" stroke-miterlimit="10"/>
<path d="M137.088 460.877H145.066V459.014C145.066 457.043 144.756 455.096 144.171 453.233C143.155 450.068 138.82 450.139 137.912 453.34C137.422 455.06 137.16 456.84 137.136 458.631L137.088 460.877Z" fill="#B2B2B2" stroke="black" stroke-width="0.597187" stroke-miterlimit="10"/>
<path d="M155.84 460.877H163.818V459.014C163.818 457.043 163.507 455.096 162.922 453.233C161.907 450.068 157.571 450.139 156.664 453.34C156.174 455.06 155.911 456.84 155.887 458.631L155.84 460.877Z" fill="#B2B2B2" stroke="black" stroke-width="0.597187" stroke-miterlimit="10"/>
<path d="M145.066 460.877H136.682V555.256H145.066V460.877Z" fill="#B2B2B2" stroke="black" stroke-width="0.597187" stroke-miterlimit="10"/>
<path d="M164.308 460.877H155.923V555.256H164.308V460.877Z" fill="#B2B2B2" stroke="black" stroke-width="0.597187" stroke-miterlimit="10"/>
<path d="M136.264 463.982H139.154V460.029C138.748 458.5 136.67 458.5 136.264 460.029V463.982Z" fill="#4D4D4D" stroke="black" stroke-width="0.597187" stroke-miterlimit="10"/>
<path d="M142.319 463.982H145.401V459.886C144.947 458.321 142.809 458.333 142.379 459.91L142.319 460.125V463.982Z" fill="#4D4D4D" stroke="black" stroke-width="0.597187" stroke-miterlimit="10"/>
<path d="M155.505 463.982H158.396V460.029C158.001 458.5 155.911 458.5 155.505 460.029V463.982Z" fill="#4D4D4D" stroke="black" stroke-width="0.597187" stroke-miterlimit="10"/>
<path d="M145.114 549.022H137.219V557.227H145.114V549.022Z" fill="#4D4D4D" stroke="black" stroke-width="0.597187" stroke-miterlimit="10"/>
<path d="M161.561 463.982H164.642V459.886C164.188 458.321 162.05 458.333 161.62 459.91L161.561 460.125V463.982Z" fill="#4D4D4D" stroke="black" stroke-width="0.597187" stroke-miterlimit="10"/>
<path d="M164.356 549.022H156.461V557.227H164.356V549.022Z" fill="#4D4D4D" stroke="black" stroke-width="0.597187" stroke-miterlimit="10"/>
<path d="M136.61 531.381L135.774 555.818H140.85L137.84 531.321C137.733 530.545 136.634 530.593 136.61 531.381Z" fill="#B2B2B2" stroke="black" stroke-width="0.597187" stroke-miterlimit="10"/>
<path d="M141.256 555.83H146.225L145.293 531.572C145.257 530.784 144.147 530.736 144.063 531.524L141.256 555.83Z" fill="#B2B2B2" stroke="black" stroke-width="0.597187" stroke-miterlimit="10"/>
<path d="M140.265 555.83L137.972 546.812C137.757 545.964 136.574 546.072 136.502 546.943L135.762 555.83H146.225L145.245 546.812C145.162 545.976 144.015 545.916 143.836 546.728L141.829 555.83" fill="#B2B2B2"/>
<path d="M140.265 555.83L137.972 546.812C137.757 545.964 136.574 546.072 136.502 546.943L135.762 555.83H146.225L145.245 546.812C145.162 545.976 144.015 545.916 143.836 546.728L141.829 555.83" stroke="black" stroke-width="0.597187" stroke-miterlimit="10"/>
<path d="M136.992 546.227L137.243 530.76" stroke="black" stroke-width="0.597187" stroke-miterlimit="10"/>
<path d="M144.78 530.963L144.517 546.227" stroke="black" stroke-width="0.597187" stroke-miterlimit="10"/>
<path d="M155.756 531.464L154.92 555.901H159.996L156.998 531.405C156.891 530.616 155.78 530.676 155.756 531.464Z" fill="#B2B2B2" stroke="black" stroke-width="0.597187" stroke-miterlimit="10"/>
<path d="M160.402 555.901H165.371L164.439 531.643C164.415 530.855 163.292 530.807 163.209 531.596L160.402 555.901Z" fill="#B2B2B2" stroke="black" stroke-width="0.597187" stroke-miterlimit="10"/>
<path d="M159.423 555.901L157.13 546.884C156.915 546.036 155.732 546.143 155.66 547.015L154.92 555.901H165.383L164.403 546.884C164.32 546.048 163.173 545.988 162.994 546.8L160.975 555.901" fill="#B2B2B2"/>
<path d="M159.423 555.901L157.13 546.884C156.915 546.036 155.732 546.143 155.66 547.015L154.92 555.901H165.383L164.403 546.884C164.32 546.048 163.173 545.988 162.994 546.8L160.975 555.901" stroke="black" stroke-width="0.597187" stroke-miterlimit="10"/>
<path d="M156.138 546.31L156.389 530.855" stroke="black" stroke-width="0.597187" stroke-miterlimit="10"/>
<path d="M163.675 546.31L163.938 531.046" stroke="black" stroke-width="0.597187" stroke-miterlimit="10"/>
<path d="M156.926 557.036L156.114 559.699H164.499L163.543 557.036H156.926Z" fill="#4D4D4D" stroke="black" stroke-width="0.597187" stroke-miterlimit="10"/>
<path d="M161.692 559.699H158.742V560.201H161.692V559.699Z" fill="#4D4D4D" stroke="black" stroke-width="0.597187" stroke-miterlimit="10"/>
<path d="M163.543 557.036L161.68 559.699L160.294 557.036L158.718 559.699L156.902 557.036H163.543Z" fill="#4D4D4D" stroke="black" stroke-width="0.597187" stroke-miterlimit="10" stroke-linecap="round" stroke-linejoin="round"/>
<path d="M137.685 557.036L136.873 559.699H145.257L144.302 557.036H137.685Z" fill="#4D4D4D" stroke="black" stroke-width="0.597187" stroke-miterlimit="10"/>
<path d="M142.45 559.699H139.5V560.201H142.45V559.699Z" fill="#4D4D4D" stroke="black" stroke-width="0.597187" stroke-miterlimit="10"/>
<path d="M144.302 557.036L142.439 559.699L141.053 557.036L139.477 559.699L137.661 557.036H144.302Z" fill="#4D4D4D" stroke="black" stroke-width="0.597187" stroke-miterlimit="10" stroke-linecap="round" stroke-linejoin="round"/>
<path d="M159.865 456.768H140.623V457.282H159.865V456.768Z" fill="#B2B2B2" stroke="black" stroke-width="0.597187" stroke-miterlimit="10"/>
<path d="M154.765 422.681L155.983 419.993V405.135C155.983 403.201 155.72 401.278 155.195 399.414L153.773 394.326C152.722 390.588 147.61 390.648 146.655 394.422L145.377 399.474C144.911 401.29 144.684 403.165 144.684 405.052V420.005L146.392 422.693L146.356 456.78H145.078C145.078 456.78 144.744 450.904 141.089 450.892C141.089 450.892 136.825 450.223 137.136 459.014L136.276 460.041V463.994H136.694L136.622 531.393L135.786 555.83H137.243V557.239H137.649L136.897 559.711H139.513V560.213H142.463V559.711H145.281L144.398 557.239H145.138V555.83H146.249V555.471H146.858V557.12H147.264L146.512 559.592H149.127V560.093H152.077V559.592H154.884L154 557.12H154.741V555.471H154.956L154.932 555.901H156.473V557.227H156.879L156.126 559.699H158.742V560.201H161.692V559.699H164.499L163.615 557.227H164.356V555.901H165.371L164.308 531.034V463.982H164.642V459.886L163.818 458.715C163.818 458.715 163.985 450.892 159.829 450.88C159.829 450.88 156.664 449.841 155.923 456.768H154.729L154.765 422.681Z" stroke="black" stroke-width="1.79156" stroke-miterlimit="10"/>
<path d="M144.923 457.282L145.066 459.002L145.401 459.886V463.982H145.066V530.843L145.293 531.56L145.854 542.584L146.356 531.022L146.738 530.401L146.344 463.242H145.854V459.288L146.344 458.488V457.27" stroke="black" stroke-width="1.79156" stroke-miterlimit="10"/>
<path d="M154.729 457.282V458.62L154.979 459.157V463.254H154.729V530.413L155.027 531.214L155.385 542.166L155.756 531.452L155.923 530.604V463.97H155.505V460.017L155.923 459.288V457.282" stroke="black" stroke-width="1.79156" stroke-miterlimit="10"/>
<text fill="#BEE3F2" xml:space="preserve" style="white-space: pre" font-family="Roboto" font-size="9.55499" font-weight="bold" letter-spacing="0em"><tspan x="111.224" y="503.515">F1</tspan></text>
<text fill="#BEE3F2" xml:space="preserve" style="white-space: pre" font-family="Roboto" font-size="9.55499" font-weight="bold" letter-spacing="0em"><tspan x="111.144" y="454.546">F2</tspan></text>
<text fill="#BEE3F2" xml:space="preserve" style="white-space: pre" font-family="Roboto" font-size="9.55499" font-weight="bold" letter-spacing="0em"><tspan x="103.044" y="578.766">FASES</tspan></text>
<text fill="#BEE3F2" xml:space="preserve" style="white-space: pre" font-family="Roboto" font-size="9.55499" font-weight="bold" letter-spacing="0em"><tspan x="111.144" y="415.132">F3</tspan></text>
<path d="M95.1533 460.113L134.568 460.113" stroke="#BBECF9" stroke-width="0.597187" stroke-dasharray="2.39 2.39"/>
<path d="M95.1533 443.391L145.317 443.391" stroke="#BBECF9" stroke-width="0.597187" stroke-dasharray="2.39 2.39"/>
<path d="M91.5703 389.645L150.095 389.645" stroke="#BBECF9" stroke-width="0.597187" stroke-dasharray="2.39 2.39"/>
<path d="M89.1816 561.634L150.095 561.634" stroke="#BBECF9" stroke-width="0.597187" stroke-dasharray="2.39 2.39"/>
<path d="M88.7594 381.706C88.9926 381.939 89.3707 381.939 89.6039 381.706L93.4044 377.906C93.6376 377.672 93.6376 377.294 93.4044 377.061C93.1712 376.828 92.7931 376.828 92.5598 377.061L89.1816 380.439L85.8034 377.061C85.5702 376.828 85.1921 376.828 84.9589 377.061C84.7257 377.294 84.7257 377.672 84.9589 377.906L88.7594 381.706ZM149.672 381.706C149.906 381.939 150.284 381.939 150.517 381.706L154.317 377.906C154.551 377.672 154.551 377.294 154.317 377.061C154.084 376.828 153.706 376.828 153.473 377.061L150.095 380.439L146.716 377.061C146.483 376.828 146.105 376.828 145.872 377.061C145.639 377.294 145.639 377.672 145.872 377.906L149.672 381.706ZM88.5845 336.495V381.284H89.7788V336.495H88.5845ZM149.497 336.495V381.284H150.692V336.495H149.497Z" fill="white"/>
<text fill="white" xml:space="preserve" style="white-space: pre" font-family="Roboto" font-size="17" font-weight="bold" letter-spacing="0em"><tspan x="37.7148" y="420.811">181</tspan></text>
<text fill="white" xml:space="preserve" style="white-space: pre" font-family="Roboto" font-size="10.4806" font-weight="600" letter-spacing="0em"><tspan x="8" y="433.582">lanzamientos</tspan></text>
<text fill="white" xml:space="preserve" style="white-space: pre" font-family="Roboto" font-size="17" font-weight="bold" letter-spacing="0em"><tspan x="37.7148" y="514.811">119</tspan></text>
<text fill="white" xml:space="preserve" style="white-space: pre" font-family="Roboto" font-size="10.4806" font-weight="600" letter-spacing="0em"><tspan x="0" y="527.582">relanzamientos</tspan></text>
<text fill="white" xml:space="preserve" style="white-space: pre" font-family="Roboto" font-size="17" font-weight="bold" letter-spacing="0em"><tspan x="37.7148" y="464.811">141</tspan></text>
<text fill="white" xml:space="preserve" style="white-space: pre" font-family="Roboto" font-size="17" font-weight="bold" letter-spacing="0em"><tspan x="182.238" y="420.811">3</tspan></text>
<text fill="white" xml:space="preserve" style="white-space: pre" font-family="Roboto" font-size="17" font-weight="bold" letter-spacing="0em"><tspan x="183.238" y="514.811">4</tspan></text>
<text fill="white" xml:space="preserve" style="white-space: pre" font-family="Roboto" font-size="17" font-weight="bold" letter-spacing="0em"><tspan x="183.238" y="464.811">7</tspan></text>
<text fill="white" xml:space="preserve" style="white-space: pre" font-family="Roboto" font-size="10.4806" font-weight="600" letter-spacing="0em"><tspan x="21" y="477.582">aterrizajes</tspan></text>
<text fill="white" xml:space="preserve" style="white-space: pre" font-family="Roboto" font-size="10.4806" font-weight="600" letter-spacing="0em"><tspan x="184" y="433.582">lanzamientos</tspan></text>
<text fill="white" xml:space="preserve" style="white-space: pre" font-family="Roboto" font-size="10.4806" font-weight="600" letter-spacing="0em"><tspan x="184" y="527.582">relanzamientos</tspan></text>
<text fill="white" xml:space="preserve" style="white-space: pre" font-family="Roboto" font-size="10.4806" font-weight="600" letter-spacing="0em"><tspan x="184" y="477.582">aterrizajes</tspan></text>
<defs>
<filter id="filter0_d_114_345" x="240.998" y="26.642" width="43.241" height="285.527" filterUnits="userSpaceOnUse" color-interpolation-filters="sRGB">
<feFlood flood-opacity="0" result="BackgroundImageFix"/>
<feColorMatrix in="SourceAlpha" type="matrix" values="0 0 0 0 0 0 0 0 0 0 0 0 0 0 0 0 0 0 127 0" result="hardAlpha"/>
<feOffset dy="4.80887"/>
<feGaussianBlur stdDeviation="2.40443"/>
<feComposite in2="hardAlpha" operator="out"/>
<feColorMatrix type="matrix" values="0 0 0 0 0 0 0 0 0 0 0 0 0 0 0 0 0 0 0.25 0"/>
<feBlend mode="normal" in2="BackgroundImageFix" result="effect1_dropShadow_114_345"/>
<feBlend mode="normal" in="SourceGraphic" in2="effect1_dropShadow_114_345" result="shape"/>
</filter>
</defs>
</svg>
