<svg width="370" height="291" viewBox="0 0 370 291" fill="none" xmlns="http://www.w3.org/2000/svg">
<path d="M123.176 280.968L130.908 265.777L130.571 151.567L129.144 142.208L130.539 136.646V126.88H134.743V128.508H137.863V126.88H145.73V128.508H148.443C148.308 127.965 148.118 126.88 148.443 126.88H152.241L152.377 136.646C152.599 138.535 153.006 140.401 153.598 142.208L152.241 151.024V265.777L160.244 280.968V288.429L158.752 288.835L153.326 285.851L153.435 287.75H151.943L153.435 289.921H129.665L130.75 287.75H129.529L129.643 285.851L125.731 288.835L123.154 288.429L123.176 280.968Z" fill="#B2B2B2"/>
<path d="M118.016 112.774L130.495 79.4059C130.463 68.1639 130.495 48.9735 130.756 36.5433L122.221 34.5087V28.6707L137.223 7.78205C138.91 3.93527 140.592 1 141.753 1C142.914 1 144.797 3.91899 146.598 7.78205L161.014 28.6707V34.9102L152.333 36.5379C152.534 47.693 152.719 64.3931 152.719 79.4005L164.926 112.768V124.84L156.11 126.875H148.677V128.502H145.692V126.875H137.825V128.502H134.705V126.875H126.703L118.022 124.84L118.016 112.774Z" fill="#DADADA"/>
<path d="M130.501 79.4059L118.022 112.774V124.846L126.703 126.88M130.501 79.4059C130.468 68.1639 130.501 48.9735 130.761 36.5433M130.501 79.4059L133.078 121.997L130.501 126.88M130.501 79.4059L126.703 126.88M152.746 79.4059L164.953 112.774V124.846L156.137 126.88M152.746 79.4059C152.746 64.3931 152.561 47.693 152.361 36.5433M152.746 79.4059L150.44 121.997L152.203 126.88M152.746 79.4059L156.137 126.88M126.703 126.88H130.501M130.501 126.88H134.841M130.501 126.88V136.511M130.88 265.776L123.149 280.968V288.429L125.726 288.835L129.638 285.851M130.88 265.776L129.638 285.851M130.88 265.776L130.55 152.923M152.176 265.776L160.179 280.968V288.429L158.687 288.835L153.261 285.851M152.176 265.776L153.261 285.851M152.176 265.776V152.923M152.176 126.88H156.11M152.176 126.88H148.481M152.176 126.88L152.22 136.511M137.228 7.78205C134.559 13.8642 131.895 22.2197 131.315 24.8728C131.065 26.0122 130.886 30.4721 130.772 36.5379M137.239 7.78205C138.927 3.93527 140.609 1 141.77 1C142.931 1 144.814 3.91899 146.615 7.78205M137.239 7.78205L122.237 28.6707V34.5033L130.772 36.5379M146.615 7.78205C149.328 13.5658 151.916 21.4601 152.078 24.8728C152.165 26.7718 152.274 30.9658 152.371 36.5379M146.615 7.78205L161.031 28.6707V34.9102L152.35 36.5379M129.665 285.851L129.551 287.75H130.772M153.315 285.851L153.424 287.75H151.932M130.772 287.75L129.687 289.921H153.446L151.954 287.75M130.794 287.75H132.286M151.954 287.75H151.14M134.863 126.88C135.118 119.854 136.805 114.087 137.684 111.96V126.88M134.863 126.88C134.863 127.461 134.863 128.047 134.863 128.644H137.711V126.88M137.711 126.88H145.714M145.714 126.88V128.644H148.563C148.563 128.047 148.563 127.461 148.53 126.88M145.714 126.88V111.96C146.588 114.087 148.275 119.854 148.53 126.88M130.539 136.511H133.631L135.937 144.785L133.631 152.923H130.588M130.539 136.511L129.155 142.208L130.588 152.923M152.241 136.511H149.154L146.848 144.785L149.154 152.923H152.198M152.241 136.511L153.63 142.208L152.198 152.923M138.091 287.75L137.684 265.098L132.259 281.511V287.75M138.091 287.75L132.259 288.835V287.75M138.091 287.75H145.009M145.009 287.75L151.113 288.835V287.75M145.009 287.75L145.416 264.963L151.113 281.511V287.75M134.564 19.5828H149.078C147.673 14.5641 144.249 4.55379 141.753 4.6623C139.258 4.77082 135.926 14.6563 134.57 19.5828H134.564Z" stroke="#010101" stroke-width="0.5"/>
<path d="M118.016 112.774L130.495 79.4059C130.463 68.1639 130.495 48.9735 130.756 36.5433L122.221 34.5087V28.6707L137.223 7.78205C138.91 3.93527 140.592 1 141.753 1C142.915 1 144.797 3.91899 146.599 7.78205L161.014 28.6707V34.9102L152.333 36.5379C152.534 47.693 152.719 64.3931 152.719 79.4004L164.926 112.768V124.84L156.11 126.875H152.176V265.771L160.179 280.963V288.423L158.687 288.83L153.261 285.846L153.37 287.745H151.878L153.37 289.915H129.665L130.75 287.745H129.529L129.643 285.846L125.732 288.83L123.154 288.423V280.968L130.886 265.776L130.479 126.88H126.681L118 124.846L118.016 112.774Z" stroke="#010101" stroke-width="1.5"/>
<text fill="white" xml:space="preserve" style="white-space: pre" font-family="Roboto" font-size="10" letter-spacing="0em"><tspan x="10" y="214.236">Propulsor de </tspan><tspan x="10" y="226.236">lanzamiento potenciado </tspan><tspan x="10" y="238.236">por 33 motores Raptor</tspan></text>
<text fill="white" xml:space="preserve" style="white-space: pre" font-family="Roboto" font-size="15" font-weight="bold" letter-spacing="0em"><tspan x="9" y="194.945">SUPERHEAVY</tspan></text>
<path d="M131.5 202.318H9.5" stroke="#BBECF9"/>
<circle cx="131.5" cy="202.318" r="1.5" fill="white"/>
<text fill="white" xml:space="preserve" style="white-space: pre" font-family="Roboto" font-size="10" letter-spacing="0em"><tspan x="9" y="95.2358">Transporte de carga </tspan><tspan x="9" y="107.236">y pasajeros. &#10;</tspan></text>
<text fill="#BBECF9" xml:space="preserve" style="white-space: pre" font-family="Roboto" font-size="10" font-weight="600" letter-spacing="0em"><tspan x="9" y="119.236">Capacidad de 100&#10;</tspan><tspan x="9" y="131.236">pasajeros</tspan></text>
<text fill="white" xml:space="preserve" style="white-space: pre" font-family="Roboto" font-size="10" letter-spacing="0em"><tspan x="269" y="97.2358">Transporte </tspan><tspan x="269" y="109.236">pasajeros.&#10;</tspan></text>
<text fill="#BBECF9" xml:space="preserve" style="white-space: pre" font-family="Roboto" font-size="10" font-weight="600" letter-spacing="0em"><tspan x="269" y="121.236">Capacidad de </tspan><tspan x="269" y="133.236">149 pasajeros</tspan></text>
<text fill="white" xml:space="preserve" style="white-space: pre" font-family="Roboto" font-size="15" font-weight="bold" letter-spacing="0em"><tspan x="8" y="76.9448">STARSHIP</tspan></text>
<path d="M130.5 83.3179H8.5" stroke="#BBECF9"/>
<path d="M130.5 83.3179H8.5" stroke="#BBECF9"/>
<path d="M354 83.8179H232" stroke="#BBECF9"/>
<circle cx="130.5" cy="83.3179" r="1.5" fill="white"/>
<path d="M217 60.3179C217.833 56.1512 219.8 47.8179 221 47.8179C222.2 47.8179 224.5 56.1512 225.5 60.3179V74.8179L252.5 89.8179V93.8179L232.5 87.8179H225.5V103.818L221 119.818L217 103.818V87.8179H209L189.5 93.8179V89.8179L217 74.8179V60.3179Z" fill="#D9D9D9"/>
<path d="M217 74.8179C217 69.4334 217 64.2711 217 60.3179C217.833 56.1512 219.8 47.8179 221 47.8179C222.2 47.8179 224.5 56.1512 225.5 60.3179V74.8179M217 74.8179L189.5 89.8179V93.8179L209 87.8179H217M217 74.8179C217 79.1803 217 83.6885 217 87.8179M217 87.8179C217 95.9973 217 102.69 217 103.818L221 119.818L225.5 103.818V87.8179M225.5 74.8179L252.5 89.8179V93.8179L232.5 87.8179H225.5M225.5 74.8179V87.8179" stroke="black"/>
<path d="M207.5 118.818V121.318L220.5 117.818L218.5 110.818L207.5 118.818Z" fill="#D9D9D9" stroke="black"/>
<path d="M224 110.818L222 117.818L235 120.818V117.818L224 110.818Z" fill="#D9D9D9"/>
<path d="M208.5 71.8179V79.3179L213 76.8179V74.3179V71.8179H208.5Z" fill="#D9D9D9"/>
<path d="M224 110.818L222 117.818L235 120.818V117.818L224 110.818Z" stroke="black"/>
<path d="M208.5 71.8179V79.3179L213 76.8179V74.3179V71.8179H208.5Z" stroke="black"/>
<path d="M229.5 71.8179V76.8179L234 79.3179V71.8179H229.5Z" fill="#D9D9D9" stroke="black"/>
<text fill="white" xml:space="preserve" style="white-space: pre" font-family="Roboto" font-size="15" font-weight="bold" letter-spacing="0em"><tspan x="9.02246" y="151.945">55 m</tspan></text>
<text fill="white" xml:space="preserve" style="white-space: pre" font-family="Roboto" font-size="15" font-weight="bold" letter-spacing="0em"><tspan x="9.12842" y="262.945">119 m total</tspan></text>
<text fill="white" xml:space="preserve" style="white-space: pre" font-family="Roboto" font-size="15" font-weight="bold" letter-spacing="0em"><tspan x="271" y="78.9448">Boeing 373</tspan></text>
<text fill="white" xml:space="preserve" style="white-space: pre" font-family="Roboto" font-size="15" font-weight="bold" letter-spacing="0em"><tspan x="269" y="151.945">31.4 m</tspan></text>
</svg>
