<svg width="255" height="565" viewBox="0 0 255 565" fill="none" xmlns="http://www.w3.org/2000/svg">
<path d="M207.354 279.078L214.384 265.23L214.078 161.129L212.781 152.598L214.049 147.529V138.627H217.873V140.11H220.709V138.627H227.863V140.11H230.33C230.207 139.616 230.034 138.627 230.33 138.627H233.784L233.907 147.529C234.11 149.25 234.48 150.951 235.017 152.598L233.784 160.634V265.23L241.061 279.078V285.878L239.705 286.249L234.771 283.529L234.869 285.26H233.513L234.869 287.238H213.255L214.241 285.26H213.131L213.235 283.529L209.678 286.249L207.334 285.878L207.354 279.078Z" fill="#B2B2B2"/>
<path d="M202.662 125.769L214.01 95.3542C213.98 85.1072 214.01 67.6151 214.246 56.2851L206.486 54.4305V49.1092L220.127 30.0693C221.662 26.5629 223.191 23.8874 224.247 23.8874C225.303 23.8874 227.015 26.5481 228.653 30.0693L241.762 49.1092V54.7965L233.868 56.2802C234.051 66.448 234.218 81.6701 234.218 95.3492L245.319 125.764V136.767L237.302 138.622H230.543V140.106H227.829V138.622H220.675V140.106H217.838V138.622H210.561L202.667 136.767L202.662 125.769Z" fill="#DADADA"/>
<path d="M214.015 95.3542L202.667 125.769V136.772L210.561 138.627M214.015 95.3542C213.985 85.1072 214.015 67.6151 214.252 56.2851M214.015 95.3542L216.358 134.176L214.015 138.627M214.015 95.3542L210.561 138.627M234.243 95.3542L245.344 125.769V136.772L237.327 138.627M234.243 95.3542C234.243 81.6701 234.076 66.448 233.893 56.2851M234.243 95.3542L232.146 134.176L233.75 138.627M234.243 95.3542L237.327 138.627M210.561 138.627H214.015M214.015 138.627H217.962M214.015 138.627V147.405M214.36 265.23L207.329 279.078V285.878L209.673 286.249L213.23 283.529M214.36 265.23L213.23 283.529M214.36 265.23L214.059 162.365M233.725 265.23L241.003 279.078V285.878L239.646 286.249L234.712 283.529M233.725 265.23L234.712 283.529M233.725 265.23V162.365M233.725 138.627H237.302M233.725 138.627H230.365M233.725 138.627L233.765 147.405M220.133 30.0693C217.705 35.6131 215.283 43.2291 214.755 45.6474C214.528 46.686 214.365 50.7511 214.261 56.2801M220.142 30.0693C221.677 26.5629 223.206 23.8874 224.262 23.8874C225.318 23.8874 227.03 26.5481 228.668 30.0693M220.142 30.0693L206.501 49.1092V54.4256L214.261 56.2801M228.668 30.0693C231.135 35.3411 233.488 42.5367 233.636 45.6474C233.715 47.3783 233.814 51.2012 233.903 56.2801M228.668 30.0693L241.777 49.1092V54.7965L233.883 56.2801M213.255 283.529L213.151 285.26H214.261M234.761 283.529L234.86 285.26H233.503M214.261 285.26L213.275 287.238H234.88L233.523 285.26M214.281 285.26H215.638M233.523 285.26H232.783M217.981 138.627C218.213 132.223 219.748 126.965 220.547 125.027V138.627M217.981 138.627C217.981 139.156 217.981 139.69 217.981 140.234H220.572V138.627M220.572 138.627H227.849M227.849 138.627V140.234H230.439C230.439 139.69 230.439 139.156 230.41 138.627M227.849 138.627V125.027C228.643 126.965 230.178 132.223 230.41 138.627M214.049 147.405H216.862L218.958 154.947L216.862 162.365H214.094M214.049 147.405L212.791 152.598L214.094 162.365M233.784 147.405H230.977L228.88 154.947L230.977 162.365H233.745M233.784 147.405L235.047 152.598L233.745 162.365M220.917 285.26L220.547 264.612L215.613 279.572V285.26M220.917 285.26L215.613 286.249V285.26M220.917 285.26H227.208M227.208 285.26L232.758 286.249V285.26M227.208 285.26L227.578 264.489L232.758 279.572V285.26M217.71 40.8256H230.908C229.63 36.2511 226.517 27.1267 224.247 27.2256C221.978 27.3245 218.948 36.3351 217.715 40.8256H217.71Z" stroke="#010101" stroke-width="0.597187"/>
<path d="M202.662 125.769L214.009 95.3542C213.98 85.1072 214.009 67.6151 214.246 56.2851L206.485 54.4306V49.1093L220.127 30.0693C221.662 26.5629 223.191 23.8875 224.247 23.8875C225.303 23.8875 227.015 26.5481 228.653 30.0693L241.762 49.1093V54.7965L233.868 56.2802C234.051 66.448 234.218 81.6701 234.218 95.3492L245.319 125.764V136.767L237.302 138.622H233.725V265.226L241.002 279.073V285.873L239.645 286.244L234.712 283.524L234.81 285.255H233.454L234.81 287.233H213.255L214.241 285.255H213.131L213.235 283.524L209.678 286.244L207.334 285.873V279.078L214.365 265.23L213.995 138.627H210.541L202.647 136.772L202.662 125.769Z" stroke="#010101" stroke-width="1.79156"/>
<path d="M27.3787 243.124V247.476H30.9803V243.124L29.5199 240.211C29.3768 239.93 28.9772 239.93 28.8341 240.211L27.3787 243.124Z" fill="#DADADA" stroke="black" stroke-width="0.597187" stroke-miterlimit="10"/>
<path d="M29.1845 247.476H26.8755V280.215H29.1845H31.3159V247.476H29.1845Z" fill="#B2B2B2" stroke="black" stroke-width="0.597187" stroke-miterlimit="10"/>
<path d="M26.8854 248.564H31.3159" stroke="black" stroke-width="0.597187" stroke-miterlimit="10"/>
<path d="M31.3208 251.779H26.8755V259.068H31.3208V251.779Z" fill="#4D4D4D" stroke="black" stroke-width="0.597187" stroke-miterlimit="10"/>
<path d="M26.8755 280.215L29.0957 283.375L31.3159 280.215H26.8755Z" stroke="black" stroke-width="0.597187" stroke-miterlimit="10" stroke-linecap="round" stroke-linejoin="round"/>
<path d="M31.3159 280.215L29.0957 282.01L26.8755 280.215" stroke="black" stroke-width="0.597187" stroke-miterlimit="10" stroke-linecap="round" stroke-linejoin="round"/>
<path d="M29.8456 283.182H28.3655V284.172H29.8456V283.182Z" fill="#4D4D4D" stroke="black" stroke-width="0.597187" stroke-miterlimit="10"/>
<path d="M27.8868 286.555L29.1055 284.172L30.4327 286.555H27.8868Z" fill="#4D4D4D" stroke="black" stroke-width="0.597187" stroke-miterlimit="10" stroke-linecap="round" stroke-linejoin="round"/>
<path d="M29.1746 284.172C29.5495 284.172 29.8505 283.87 29.8505 283.494V283.182H29.2387L31.2024 280.388C31.2813 280.275 31.3257 280.136 31.3257 279.998V247.476H30.9902V243.288C30.9902 243.179 30.9655 243.075 30.9162 242.981L29.737 240.671C29.4805 240.172 28.7651 240.182 28.5233 240.691L27.4478 242.991C27.4033 243.08 27.3836 243.179 27.3836 243.278V247.481H26.8804V280.003C26.8804 280.141 26.9248 280.28 27.0037 280.393L28.9674 283.187H28.3753V283.499C28.3753 283.875 28.6763 284.177 29.0512 284.177H29.1746V284.172Z" stroke="black" stroke-width="1.79156" stroke-miterlimit="10" stroke-linecap="round" stroke-linejoin="round"/>
<path d="M27.8868 286.555H30.4327L29.1055 284.172L27.8868 286.555Z" stroke="black" stroke-width="1.79156" stroke-miterlimit="10" stroke-linecap="round" stroke-linejoin="round"/>
<text fill="white" xml:space="preserve" style="white-space: pre" font-family="Assistant" font-size="8.36061" font-weight="bold" letter-spacing="0em"><tspan x="13.771" y="303.568">FALCON&#x2028;</tspan></text>
<text fill="white" xml:space="preserve" style="white-space: pre" font-family="Assistant" font-size="8.36061" letter-spacing="0em"><tspan x="26.614" y="314.568">1</tspan></text>
<text fill="white" xml:space="preserve" style="white-space: pre" font-family="Assistant" font-size="8.36061" letter-spacing="0em"><tspan x="107.533" y="303.579"> </tspan><tspan x="77.2011" y="314.579">Block 5</tspan></text>
<text fill="white" xml:space="preserve" style="white-space: pre" font-family="Assistant" font-size="8.36061" font-weight="bold" letter-spacing="0em"><tspan x="72.0247" y="303.579">FALCON 9</tspan></text>
<text fill="white" xml:space="preserve" style="white-space: pre" font-family="Assistant" font-size="8.36061" font-weight="bold" letter-spacing="0em"><tspan x="135.366" y="303.579">FALCON </tspan><tspan x="138.182" y="314.579">HEAVY</tspan></text>
<path d="M86.3533 154.47H94.2474L95.9742 151.75H84.6709L86.3533 154.47Z" fill="#DADADA" stroke="black" stroke-width="0.597187" stroke-miterlimit="10"/>
<path d="M95.1898 131.898L93.7689 126.997C92.7229 123.392 87.6016 123.451 86.6445 127.086L85.3617 131.958C84.8979 133.713 84.666 135.518 84.666 137.333V151.749H95.9693V137.417C95.9743 135.548 95.7128 133.688 95.1898 131.898Z" fill="#DADADA" stroke="black" stroke-width="0.597187" stroke-miterlimit="10"/>
<path d="M90.3003 124.302V151.75" stroke="black" stroke-width="0.597187" stroke-miterlimit="10"/>
<path d="M87.0638 283.615L86.2498 286.177H94.6372L93.6899 283.615H87.0638Z" fill="#4D4D4D" stroke="black" stroke-width="0.597187" stroke-miterlimit="10"/>
<path d="M91.8248 286.177H88.8695V286.657H91.8248V286.177Z" fill="#4D4D4D" stroke="black" stroke-width="0.597187" stroke-miterlimit="10"/>
<path d="M93.69 283.615L91.8251 286.177L90.4436 283.615L88.8697 286.177L87.064 283.615H93.69Z" fill="#4D4D4D" stroke="black" stroke-width="0.597187" stroke-miterlimit="10" stroke-linecap="round" stroke-linejoin="round"/>
<path d="M94.494 275.88H86.6V283.793H94.494V275.88Z" fill="#4D4D4D" stroke="black" stroke-width="0.597187" stroke-miterlimit="10"/>
<path d="M86.1066 190.324H94.494V275.88H86.5999L86.1066 190.324Z" fill="#B2B2B2" stroke="black" stroke-width="0.597187" stroke-miterlimit="10"/>
<path d="M86.1066 258.636L85.2678 282.201H90.3398L87.3351 258.581C87.2413 257.825 86.1362 257.879 86.1066 258.636Z" fill="#4D4D4D" stroke="black" stroke-width="0.597187" stroke-miterlimit="10"/>
<path d="M90.7543 282.201H95.7275L94.795 258.814C94.7654 258.052 93.6504 258.008 93.5616 258.764L90.7543 282.201Z" fill="#4D4D4D" stroke="black" stroke-width="0.597187" stroke-miterlimit="10"/>
<path d="M89.7724 282.201L87.4782 273.507C87.2611 272.691 86.0819 272.794 86.0079 273.635L85.2678 282.201H95.7275L94.7456 273.507C94.6568 272.705 93.5171 272.641 93.3395 273.427L91.3265 282.201" fill="#4D4D4D"/>
<path d="M89.7724 282.201L87.4782 273.507C87.2611 272.691 86.0819 272.794 86.0079 273.635L85.2678 282.201H95.7275L94.7456 273.507C94.6568 272.705 93.5171 272.641 93.3395 273.427L91.3265 282.201" stroke="black" stroke-width="0.597187" stroke-miterlimit="10"/>
<path d="M86.4965 272.948L86.7488 258.042" stroke="black" stroke-width="0.597187" stroke-miterlimit="10"/>
<path d="M94.0303 272.948L94.2925 258.23" stroke="black" stroke-width="0.597187" stroke-miterlimit="10"/>
<path d="M94.494 174.499H86.1066V190.324H94.494V174.499Z" fill="#4D4D4D" stroke="black" stroke-width="0.597187" stroke-miterlimit="10"/>
<path d="M85.6132 193.291H88.4994V189.483C88.0998 188.01 86.0128 188.01 85.6132 189.483V193.291Z" fill="#4D4D4D" stroke="black" stroke-width="0.597187" stroke-miterlimit="10"/>
<path d="M92.1653 193.291H95.244V189.345C94.795 187.837 92.6537 187.846 92.2245 189.365L92.1653 189.572V193.291Z" fill="#4D4D4D" stroke="black" stroke-width="0.597187" stroke-miterlimit="10"/>
<path d="M94.494 154.222H86.1066V174.499H94.494V154.222Z" fill="#B2B2B2" stroke="black" stroke-width="0.597187" stroke-miterlimit="10"/>
<path d="M94.4937 193.291V258.22L94.7946 258.819L95.7271 282.206H94.4937V283.798H93.7536L94.6367 286.182H91.8245V286.661H88.8691V286.182H86.2493L87.0634 283.798H86.5996V282.206H85.2675L86.1062 258.641L86.4911 258.042L86.1062 193.291H85.6128V189.483L86.1062 188.712V154.222L84.4041 151.636V137.22C84.4041 135.405 84.6359 133.6 85.0997 131.844L86.3825 126.973C87.3397 123.343 92.4609 123.279 93.5069 126.884L94.9278 131.785C95.4459 133.575 95.7123 135.435 95.7123 137.304V151.636L94.4986 154.222L94.7403 188.593L95.2436 189.345V193.291H94.4937Z" stroke="black" stroke-width="1.79156" stroke-miterlimit="10"/>
<text fill="white" xml:space="preserve" style="white-space: pre" font-family="Assistant" font-size="8.36061" font-weight="bold" letter-spacing="0em"><tspan x="205.207" y="303.579">STARSHIP</tspan></text>
<path d="M146.587 154.516H154.481L156.208 151.796H144.904L146.587 154.516Z" fill="#DADADA" stroke="black" stroke-width="0.597187" stroke-miterlimit="10"/>
<path d="M155.428 131.945L154.007 127.044C152.961 123.439 147.84 123.498 146.883 127.133L145.6 132.004C145.136 133.76 144.904 135.565 144.904 137.38V151.796H156.208V137.464C156.208 135.595 155.946 133.735 155.428 131.945Z" fill="#DADADA" stroke="black" stroke-width="0.597187" stroke-miterlimit="10"/>
<path d="M150.534 124.349V151.796" stroke="black" stroke-width="0.597187" stroke-miterlimit="10"/>
<path d="M147.297 283.662L146.488 286.223H154.875L153.923 283.662H147.297Z" fill="#4D4D4D" stroke="black" stroke-width="0.597187" stroke-miterlimit="10"/>
<path d="M152.059 286.223H149.103V286.703H152.059V286.223Z" fill="#4D4D4D" stroke="black" stroke-width="0.597187" stroke-miterlimit="10"/>
<path d="M153.923 283.662L152.063 286.223L150.682 283.662L149.103 286.223L147.297 283.662H153.923Z" fill="#4D4D4D" stroke="black" stroke-width="0.597187" stroke-miterlimit="10" stroke-linecap="round" stroke-linejoin="round"/>
<path d="M154.727 275.927H146.833V283.84H154.727V275.927Z" fill="#4D4D4D" stroke="black" stroke-width="0.597187" stroke-miterlimit="10"/>
<path d="M146.34 190.37H154.727V275.927H146.833L146.34 190.37Z" fill="#B2B2B2" stroke="black" stroke-width="0.597187" stroke-miterlimit="10"/>
<path d="M146.345 258.682L145.506 282.247H150.578L147.574 258.628C147.475 257.871 146.37 257.92 146.345 258.682Z" fill="#B2B2B2" stroke="black" stroke-width="0.597187" stroke-miterlimit="10"/>
<path d="M150.993 282.247H155.961L155.029 258.86C154.999 258.098 153.884 258.054 153.795 258.811L150.993 282.247Z" fill="#B2B2B2" stroke="black" stroke-width="0.597187" stroke-miterlimit="10"/>
<path d="M150.006 282.247L147.712 273.553C147.494 272.737 146.315 272.841 146.241 273.682L145.501 282.247H155.961L154.979 273.553C154.89 272.752 153.751 272.687 153.573 273.474L151.56 282.247" fill="#B2B2B2"/>
<path d="M150.006 282.247L147.712 273.553C147.494 272.737 146.315 272.841 146.241 273.682L145.501 282.247H155.961L154.979 273.553C154.89 272.752 153.751 272.687 153.573 273.474L151.56 282.247" stroke="black" stroke-width="0.597187" stroke-miterlimit="10"/>
<path d="M146.73 272.994L146.987 258.084" stroke="black" stroke-width="0.597187" stroke-miterlimit="10"/>
<path d="M154.264 272.994L154.526 258.276" stroke="black" stroke-width="0.597187" stroke-miterlimit="10"/>
<path d="M154.727 174.545H146.34V190.37H154.727V174.545Z" fill="#B2B2B2" stroke="black" stroke-width="0.597187" stroke-miterlimit="10"/>
<path d="M145.846 193.338H148.732V189.53C148.333 188.056 146.246 188.056 145.846 189.53V193.338Z" fill="#4D4D4D" stroke="black" stroke-width="0.597187" stroke-miterlimit="10"/>
<path d="M151.905 193.338H154.984V189.391C154.535 187.883 152.393 187.893 151.964 189.411L151.905 189.619V193.338Z" fill="#4D4D4D" stroke="black" stroke-width="0.597187" stroke-miterlimit="10"/>
<path d="M154.727 154.269H146.34V174.545H154.727V154.269Z" fill="#B2B2B2" stroke="black" stroke-width="0.597187" stroke-miterlimit="10"/>
<path d="M137.089 191.043H145.067V189.243C145.067 187.349 144.761 185.465 144.169 183.664C143.158 180.608 138.821 180.682 137.913 183.768C137.425 185.425 137.163 187.141 137.133 188.867L137.089 191.043Z" fill="#B2B2B2" stroke="black" stroke-width="0.597187" stroke-miterlimit="10"/>
<path d="M155.837 191.043H163.815V189.243C163.815 187.349 163.509 185.465 162.917 183.664C161.906 180.608 157.569 180.682 156.661 183.768C156.173 185.425 155.911 187.141 155.882 188.867L155.837 191.043Z" fill="#B2B2B2" stroke="black" stroke-width="0.597187" stroke-miterlimit="10"/>
<path d="M145.067 191.043H136.679V282.039H145.067V191.043Z" fill="#B2B2B2" stroke="black" stroke-width="0.597187" stroke-miterlimit="10"/>
<path d="M164.309 191.043H155.921V282.039H164.309V191.043Z" fill="#B2B2B2" stroke="black" stroke-width="0.597187" stroke-miterlimit="10"/>
<path d="M136.26 194.04H139.147V190.232C138.747 188.758 136.66 188.758 136.26 190.232V194.04Z" fill="#4D4D4D" stroke="black" stroke-width="0.597187" stroke-miterlimit="10"/>
<path d="M142.319 194.04H145.398V190.094C144.949 188.585 142.807 188.595 142.378 190.113L142.319 190.321V194.04Z" fill="#4D4D4D" stroke="black" stroke-width="0.597187" stroke-miterlimit="10"/>
<path d="M155.502 194.04H158.388V190.232C157.989 188.758 155.902 188.758 155.502 190.232V194.04Z" fill="#4D4D4D" stroke="black" stroke-width="0.597187" stroke-miterlimit="10"/>
<path d="M145.111 276.026H137.217V283.938H145.111V276.026Z" fill="#4D4D4D" stroke="black" stroke-width="0.597187" stroke-miterlimit="10"/>
<path d="M161.561 194.04H164.639V190.094C164.19 188.585 162.049 188.595 161.62 190.113L161.561 190.321V194.04Z" fill="#4D4D4D" stroke="black" stroke-width="0.597187" stroke-miterlimit="10"/>
<path d="M164.353 276.026H156.459V283.938H164.353V276.026Z" fill="#4D4D4D" stroke="black" stroke-width="0.597187" stroke-miterlimit="10"/>
<path d="M136.606 259.023L135.767 282.588H140.839L137.834 258.969C137.736 258.212 136.63 258.262 136.606 259.023Z" fill="#B2B2B2" stroke="black" stroke-width="0.597187" stroke-miterlimit="10"/>
<path d="M141.253 282.588H146.222L145.289 259.201C145.259 258.44 144.144 258.395 144.056 259.152L141.253 282.588Z" fill="#B2B2B2" stroke="black" stroke-width="0.597187" stroke-miterlimit="10"/>
<path d="M140.267 282.588L137.972 273.894C137.755 273.078 136.576 273.182 136.502 274.023L135.762 282.588H146.222L145.24 273.894C145.151 273.093 144.011 273.029 143.834 273.815L141.821 282.588" fill="#B2B2B2"/>
<path d="M140.267 282.588L137.972 273.894C137.755 273.078 136.576 273.182 136.502 274.023L135.762 282.588H146.222L145.24 273.894C145.151 273.093 144.011 273.029 143.834 273.815L141.821 282.588" stroke="black" stroke-width="0.597187" stroke-miterlimit="10"/>
<path d="M136.99 273.335L137.248 258.425" stroke="black" stroke-width="0.597187" stroke-miterlimit="10"/>
<path d="M144.787 258.618L144.524 273.335" stroke="black" stroke-width="0.597187" stroke-miterlimit="10"/>
<path d="M155.753 259.097L154.915 282.663H159.986L156.987 259.043C156.888 258.286 155.783 258.341 155.753 259.097Z" fill="#B2B2B2" stroke="black" stroke-width="0.597187" stroke-miterlimit="10"/>
<path d="M160.406 282.663H165.374L164.442 259.275C164.412 258.514 163.297 258.469 163.208 259.226L160.406 282.663Z" fill="#B2B2B2" stroke="black" stroke-width="0.597187" stroke-miterlimit="10"/>
<path d="M159.419 282.663L157.125 273.968C156.908 273.152 155.729 273.256 155.655 274.097L154.915 282.663H165.374L164.392 273.968C164.304 273.167 163.164 273.103 162.986 273.889L160.973 282.663" fill="#B2B2B2"/>
<path d="M159.419 282.663L157.125 273.968C156.908 273.152 155.729 273.256 155.655 274.097L154.915 282.663H165.374L164.392 273.968C164.304 273.167 163.164 273.103 162.986 273.889L160.973 282.663" stroke="black" stroke-width="0.597187" stroke-miterlimit="10"/>
<path d="M156.143 273.41L156.4 258.504" stroke="black" stroke-width="0.597187" stroke-miterlimit="10"/>
<path d="M163.677 273.41L163.939 258.692" stroke="black" stroke-width="0.597187" stroke-miterlimit="10"/>
<path d="M156.923 283.76L156.114 286.322H164.501L163.549 283.76H156.923Z" fill="#4D4D4D" stroke="black" stroke-width="0.597187" stroke-miterlimit="10"/>
<path d="M161.689 286.322H158.734V286.802H161.689V286.322Z" fill="#4D4D4D" stroke="black" stroke-width="0.597187" stroke-miterlimit="10"/>
<path d="M163.549 283.76L161.689 286.322L160.307 283.76L158.734 286.322L156.923 283.76H163.549Z" fill="#4D4D4D" stroke="black" stroke-width="0.597187" stroke-miterlimit="10" stroke-linecap="round" stroke-linejoin="round"/>
<path d="M137.681 283.76L136.872 286.322H145.259L144.307 283.76H137.681Z" fill="#4D4D4D" stroke="black" stroke-width="0.597187" stroke-miterlimit="10"/>
<path d="M142.447 286.322H139.492V286.802H142.447V286.322Z" fill="#4D4D4D" stroke="black" stroke-width="0.597187" stroke-miterlimit="10"/>
<path d="M144.307 283.76L142.447 286.322L141.066 283.76L139.492 286.322L137.681 283.76H144.307Z" fill="#4D4D4D" stroke="black" stroke-width="0.597187" stroke-miterlimit="10" stroke-linecap="round" stroke-linejoin="round"/>
<path d="M159.868 187.087H140.627V187.581H159.868V187.087Z" fill="#B2B2B2" stroke="black" stroke-width="0.597187" stroke-miterlimit="10"/>
<path d="M154.772 154.224L155.985 151.638V137.306C155.985 135.441 155.724 133.582 155.201 131.787L153.78 126.886C152.734 123.28 147.613 123.34 146.655 126.975L145.373 131.846C144.909 133.602 144.677 135.407 144.677 137.222V151.638L146.379 154.224L146.34 187.087H145.067C145.067 187.087 144.736 181.424 141.08 181.409C141.08 181.409 136.822 180.761 137.123 189.238L136.265 190.227V194.035H136.684L136.61 259.018L135.771 282.583H137.227V283.938H137.636L136.882 286.322H139.501V286.802H142.457V286.322H145.269L144.386 283.938H145.126V282.583H146.236V282.242H146.848V283.835H147.257L146.502 286.218H149.122V286.698H152.078V286.218H154.89L154.007 283.835H154.747V282.242L154.959 282.247L154.934 282.658H156.479V283.933H156.888L156.133 286.317H158.753V286.797H161.708V286.317H164.521L163.638 283.933H164.378V282.658H165.399L164.333 258.687V194.04H164.664V190.093L163.84 188.966C163.84 188.966 164.008 181.424 159.853 181.409C159.853 181.409 156.686 180.41 155.946 187.087H154.752L154.772 154.224Z" stroke="black" stroke-width="1.79156" stroke-miterlimit="10"/>
<path d="M144.919 187.581L145.067 189.243L145.398 190.093V194.04H145.067V258.504L145.289 259.201L145.846 269.824L146.345 258.682L146.73 258.084L146.34 193.338H145.846V189.525L146.34 188.753V187.581" stroke="black" stroke-width="1.79156" stroke-miterlimit="10"/>
<path d="M154.727 187.581V188.877L154.984 189.391V193.338H154.727V258.084L155.028 258.86L155.388 269.423L155.754 259.097L155.921 258.276V194.04H155.502V190.227L155.921 189.52V187.581" stroke="black" stroke-width="1.79156" stroke-miterlimit="10"/>
<path d="M3.18677 287.844H254.005" stroke="white" stroke-width="0.597187"/>
<text fill="white" xml:space="preserve" style="white-space: pre" font-family="Assistant" font-size="13.1381" font-weight="600" letter-spacing="0em"><tspan x="134.844" y="110.066">70 m</tspan></text>
<text fill="white" xml:space="preserve" style="white-space: pre" font-family="Assistant" font-size="13.1381" font-weight="600" letter-spacing="0em"><tspan x="207.707" y="13.3217">119 m</tspan></text>
<text fill="white" xml:space="preserve" style="white-space: pre" font-family="Assistant" font-size="13.1381" font-weight="600" letter-spacing="0em"><tspan x="75.1257" y="110.066">70 m</tspan></text>
<text fill="white" xml:space="preserve" style="white-space: pre" font-family="Assistant" font-size="13.1381" font-weight="600" letter-spacing="0em"><tspan x="14.8573" y="229.503">21 m</tspan></text>
<path d="M86.3508 405.932H94.2457L95.9775 403.113H84.6787L86.3508 405.932Z" fill="#DADADA" stroke="black" stroke-width="0.597187" stroke-miterlimit="10"/>
<path d="M95.1892 382.522L93.7679 377.434C92.7168 373.696 87.6049 373.755 86.6494 377.53L85.3714 382.582C84.9056 384.397 84.6787 386.272 84.6787 388.16V403.113H95.9775V388.255C95.9775 386.308 95.7147 384.385 95.1892 382.522Z" fill="#DADADA" stroke="black" stroke-width="0.597187" stroke-miterlimit="10"/>
<path d="M90.3042 374.651V403.125" stroke="black" stroke-width="0.597187" stroke-miterlimit="10"/>
<path d="M87.0675 539.893L86.2554 542.544H94.6399L93.6963 539.893H87.0675Z" fill="#4D4D4D" stroke="black" stroke-width="0.597187" stroke-miterlimit="10"/>
<path d="M91.8212 542.544H88.8711V543.046H91.8212V542.544Z" fill="#4D4D4D" stroke="black" stroke-width="0.597187" stroke-miterlimit="10"/>
<path d="M93.6844 539.893L91.8212 542.544L90.4357 539.893L88.8592 542.544L87.0557 539.893H93.6844Z" fill="#4D4D4D" stroke="black" stroke-width="0.597187" stroke-miterlimit="10" stroke-linecap="round" stroke-linejoin="round"/>
<path d="M94.4964 531.866H86.6016V540.072H94.4964V531.866Z" fill="#4D4D4D" stroke="black" stroke-width="0.597187" stroke-miterlimit="10"/>
<path d="M86.1001 443.125H94.4846V531.866H86.5898L86.1001 443.125Z" fill="#B2B2B2" stroke="black" stroke-width="0.597187" stroke-miterlimit="10"/>
<path d="M86.1002 513.987L85.2642 538.424H90.3402L87.3304 513.927C87.2349 513.139 86.136 513.198 86.1002 513.987Z" fill="#4D4D4D" stroke="black" stroke-width="0.597187" stroke-miterlimit="10"/>
<path d="M90.7583 538.424H95.7269L94.7953 514.166C94.7714 513.378 93.6487 513.33 93.5651 514.118L90.7583 538.424Z" fill="#4D4D4D" stroke="black" stroke-width="0.597187" stroke-miterlimit="10"/>
<path d="M89.767 538.424L87.4738 529.406C87.2588 528.558 86.0763 528.666 86.0047 529.537L85.2642 538.424H95.7269L94.7475 529.406C94.6639 528.57 93.5173 528.51 93.3381 529.322L91.3316 538.424" fill="#4D4D4D"/>
<path d="M89.767 538.424L87.4738 529.406C87.2588 528.558 86.0763 528.666 86.0047 529.537L85.2642 538.424H95.7269L94.7475 529.406C94.6639 528.57 93.5173 528.51 93.3381 529.322L91.3316 538.424" stroke="black" stroke-width="0.597187" stroke-miterlimit="10"/>
<path d="M86.4941 528.821L86.745 513.366" stroke="black" stroke-width="0.597187" stroke-miterlimit="10"/>
<path d="M94.0308 528.821L94.2935 513.557" stroke="black" stroke-width="0.597187" stroke-miterlimit="10"/>
<path d="M94.4963 426.714H86.1118V443.125H94.4963V426.714Z" fill="#4D4D4D" stroke="black" stroke-width="0.597187" stroke-miterlimit="10"/>
<path d="M85.6104 446.206H88.5008V442.253C88.0947 440.724 86.0164 440.724 85.6104 442.253V446.206Z" fill="#4D4D4D" stroke="black" stroke-width="0.597187" stroke-miterlimit="10"/>
<path d="M92.1675 446.206H95.249V442.109C94.7951 440.545 92.6572 440.557 92.2272 442.133L92.1675 442.348V446.206Z" fill="#4D4D4D" stroke="black" stroke-width="0.597187" stroke-miterlimit="10"/>
<path d="M94.4963 405.681H86.1118V426.714H94.4963V405.681Z" fill="#B2B2B2" stroke="black" stroke-width="0.597187" stroke-miterlimit="10"/>
<path d="M94.4965 446.206V513.557L94.7951 514.178L95.7267 538.436H94.4965V540.084H93.756L94.6399 542.556H91.8331V543.058H88.883V542.556H86.2673L87.0795 540.084H86.6137V538.436H85.2879L86.124 513.987L86.5062 513.366L86.124 446.206H85.6343V442.253L86.124 441.452V405.681L84.416 402.994V388.04C84.416 386.153 84.6429 384.29 85.1088 382.462L86.3867 377.41C87.3422 373.648 92.4661 373.576 93.5052 377.315L94.9265 382.403C95.4401 384.254 95.7148 386.189 95.7148 388.124V402.994L94.4965 405.681L94.7354 441.333L95.2371 442.109V446.206H94.4965V446.206Z" stroke="black" stroke-width="1.79156" stroke-miterlimit="10"/>
<path d="M146.583 405.98H154.478L156.21 403.161H144.911L146.583 405.98Z" fill="#DADADA" stroke="black" stroke-width="0.597187" stroke-miterlimit="10"/>
<path d="M155.422 382.57L154 377.482C152.949 373.743 147.837 373.803 146.882 377.577L145.604 382.629C145.138 384.445 144.911 386.32 144.911 388.207V403.161H156.21V388.291C156.21 386.356 155.947 384.433 155.422 382.57Z" fill="#DADADA" stroke="black" stroke-width="0.597187" stroke-miterlimit="10"/>
<path d="M150.537 374.699V403.173" stroke="black" stroke-width="0.597187" stroke-miterlimit="10"/>
<path d="M147.3 539.94L146.488 542.592H154.872L153.917 539.94H147.3Z" fill="#4D4D4D" stroke="black" stroke-width="0.597187" stroke-miterlimit="10"/>
<path d="M152.053 542.592H149.103V543.094H152.053V542.592Z" fill="#4D4D4D" stroke="black" stroke-width="0.597187" stroke-miterlimit="10"/>
<path d="M153.917 539.94L152.053 542.592L150.668 539.94L149.091 542.592L147.288 539.94H153.917Z" fill="#4D4D4D" stroke="black" stroke-width="0.597187" stroke-miterlimit="10" stroke-linecap="round" stroke-linejoin="round"/>
<path d="M154.729 531.914H146.834V540.119H154.729V531.914Z" fill="#4D4D4D" stroke="black" stroke-width="0.597187" stroke-miterlimit="10"/>
<path d="M146.344 443.172H154.729V531.914H146.834L146.344 443.172Z" fill="#B2B2B2" stroke="black" stroke-width="0.597187" stroke-miterlimit="10"/>
<path d="M146.345 514.034L145.509 538.471H150.585L147.587 513.975C147.479 513.186 146.368 513.234 146.345 514.034Z" fill="#B2B2B2" stroke="black" stroke-width="0.597187" stroke-miterlimit="10"/>
<path d="M150.99 538.471H155.959L155.027 514.214C155.003 513.425 153.881 513.377 153.797 514.166L150.99 538.471Z" fill="#B2B2B2" stroke="black" stroke-width="0.597187" stroke-miterlimit="10"/>
<path d="M149.999 538.471L147.706 529.454C147.491 528.606 146.308 528.713 146.237 529.585L145.496 538.471H155.959L154.979 529.454C154.896 528.618 153.749 528.558 153.57 529.37L151.564 538.471" fill="#B2B2B2"/>
<path d="M149.999 538.471L147.706 529.454C147.491 528.606 146.308 528.713 146.237 529.585L145.496 538.471H155.959L154.979 529.454C154.896 528.618 153.749 528.558 153.57 529.37L151.564 538.471" stroke="black" stroke-width="0.597187" stroke-miterlimit="10"/>
<path d="M146.726 528.88L146.977 513.413" stroke="black" stroke-width="0.597187" stroke-miterlimit="10"/>
<path d="M154.263 528.881L154.526 513.616" stroke="black" stroke-width="0.597187" stroke-miterlimit="10"/>
<path d="M154.729 426.762H146.344V443.172H154.729V426.762Z" fill="#B2B2B2" stroke="black" stroke-width="0.597187" stroke-miterlimit="10"/>
<path d="M145.843 446.254H148.733V442.3C148.327 440.771 146.249 440.771 145.843 442.3V446.254Z" fill="#4D4D4D" stroke="black" stroke-width="0.597187" stroke-miterlimit="10"/>
<path d="M151.898 446.254H154.98V442.157C154.526 440.592 152.388 440.604 151.958 442.181L151.898 442.396V446.254Z" fill="#4D4D4D" stroke="black" stroke-width="0.597187" stroke-miterlimit="10"/>
<path d="M154.729 405.729H146.344V426.761H154.729V405.729Z" fill="#B2B2B2" stroke="black" stroke-width="0.597187" stroke-miterlimit="10"/>
<path d="M137.088 443.877H145.066V442.014C145.066 440.043 144.756 438.096 144.171 436.233C143.155 433.068 138.82 433.139 137.912 436.34C137.422 438.06 137.16 439.84 137.136 441.631L137.088 443.877Z" fill="#B2B2B2" stroke="black" stroke-width="0.597187" stroke-miterlimit="10"/>
<path d="M155.84 443.877H163.818V442.014C163.818 440.043 163.507 438.096 162.922 436.233C161.907 433.068 157.571 433.139 156.664 436.34C156.174 438.06 155.911 439.84 155.887 441.631L155.84 443.877Z" fill="#B2B2B2" stroke="black" stroke-width="0.597187" stroke-miterlimit="10"/>
<path d="M145.066 443.877H136.682V538.256H145.066V443.877Z" fill="#B2B2B2" stroke="black" stroke-width="0.597187" stroke-miterlimit="10"/>
<path d="M164.308 443.877H155.923V538.256H164.308V443.877Z" fill="#B2B2B2" stroke="black" stroke-width="0.597187" stroke-miterlimit="10"/>
<path d="M136.264 446.982H139.154V443.029C138.748 441.5 136.67 441.5 136.264 443.029V446.982Z" fill="#4D4D4D" stroke="black" stroke-width="0.597187" stroke-miterlimit="10"/>
<path d="M142.319 446.982H145.401V442.886C144.947 441.321 142.809 441.333 142.379 442.91L142.319 443.125V446.982Z" fill="#4D4D4D" stroke="black" stroke-width="0.597187" stroke-miterlimit="10"/>
<path d="M155.505 446.982H158.396V443.029C158.001 441.5 155.911 441.5 155.505 443.029V446.982Z" fill="#4D4D4D" stroke="black" stroke-width="0.597187" stroke-miterlimit="10"/>
<path d="M145.114 532.022H137.219V540.227H145.114V532.022Z" fill="#4D4D4D" stroke="black" stroke-width="0.597187" stroke-miterlimit="10"/>
<path d="M161.561 446.982H164.642V442.886C164.188 441.321 162.05 441.333 161.62 442.91L161.561 443.125V446.982Z" fill="#4D4D4D" stroke="black" stroke-width="0.597187" stroke-miterlimit="10"/>
<path d="M164.356 532.022H156.461V540.227H164.356V532.022Z" fill="#4D4D4D" stroke="black" stroke-width="0.597187" stroke-miterlimit="10"/>
<path d="M136.61 514.381L135.774 538.818H140.85L137.84 514.321C137.733 513.545 136.634 513.593 136.61 514.381Z" fill="#B2B2B2" stroke="black" stroke-width="0.597187" stroke-miterlimit="10"/>
<path d="M141.256 538.83H146.225L145.293 514.572C145.257 513.784 144.147 513.736 144.063 514.524L141.256 538.83Z" fill="#B2B2B2" stroke="black" stroke-width="0.597187" stroke-miterlimit="10"/>
<path d="M140.265 538.83L137.972 529.812C137.757 528.964 136.574 529.072 136.502 529.943L135.762 538.83H146.225L145.245 529.812C145.162 528.976 144.015 528.916 143.836 529.728L141.829 538.83" fill="#B2B2B2"/>
<path d="M140.265 538.83L137.972 529.812C137.757 528.964 136.574 529.072 136.502 529.943L135.762 538.83H146.225L145.245 529.812C145.162 528.976 144.015 528.916 143.836 529.728L141.829 538.83" stroke="black" stroke-width="0.597187" stroke-miterlimit="10"/>
<path d="M136.992 529.227L137.243 513.76" stroke="black" stroke-width="0.597187" stroke-miterlimit="10"/>
<path d="M144.78 513.963L144.517 529.227" stroke="black" stroke-width="0.597187" stroke-miterlimit="10"/>
<path d="M155.756 514.464L154.92 538.901H159.996L156.998 514.405C156.891 513.616 155.78 513.676 155.756 514.464Z" fill="#B2B2B2" stroke="black" stroke-width="0.597187" stroke-miterlimit="10"/>
<path d="M160.402 538.901H165.371L164.439 514.643C164.415 513.855 163.292 513.807 163.209 514.596L160.402 538.901Z" fill="#B2B2B2" stroke="black" stroke-width="0.597187" stroke-miterlimit="10"/>
<path d="M159.423 538.901L157.13 529.884C156.915 529.036 155.732 529.143 155.66 530.015L154.92 538.901H165.383L164.403 529.884C164.32 529.048 163.173 528.988 162.994 529.8L160.975 538.901" fill="#B2B2B2"/>
<path d="M159.423 538.901L157.13 529.884C156.915 529.036 155.732 529.143 155.66 530.015L154.92 538.901H165.383L164.403 529.884C164.32 529.048 163.173 528.988 162.994 529.8L160.975 538.901" stroke="black" stroke-width="0.597187" stroke-miterlimit="10"/>
<path d="M156.138 529.31L156.389 513.855" stroke="black" stroke-width="0.597187" stroke-miterlimit="10"/>
<path d="M163.675 529.31L163.938 514.046" stroke="black" stroke-width="0.597187" stroke-miterlimit="10"/>
<path d="M156.926 540.036L156.114 542.699H164.499L163.543 540.036H156.926Z" fill="#4D4D4D" stroke="black" stroke-width="0.597187" stroke-miterlimit="10"/>
<path d="M161.692 542.699H158.742V543.201H161.692V542.699Z" fill="#4D4D4D" stroke="black" stroke-width="0.597187" stroke-miterlimit="10"/>
<path d="M163.543 540.036L161.68 542.699L160.294 540.036L158.718 542.699L156.902 540.036H163.543Z" fill="#4D4D4D" stroke="black" stroke-width="0.597187" stroke-miterlimit="10" stroke-linecap="round" stroke-linejoin="round"/>
<path d="M137.685 540.036L136.873 542.699H145.257L144.302 540.036H137.685Z" fill="#4D4D4D" stroke="black" stroke-width="0.597187" stroke-miterlimit="10"/>
<path d="M142.45 542.699H139.5V543.201H142.45V542.699Z" fill="#4D4D4D" stroke="black" stroke-width="0.597187" stroke-miterlimit="10"/>
<path d="M144.302 540.036L142.439 542.699L141.053 540.036L139.477 542.699L137.661 540.036H144.302Z" fill="#4D4D4D" stroke="black" stroke-width="0.597187" stroke-miterlimit="10" stroke-linecap="round" stroke-linejoin="round"/>
<path d="M159.865 439.768H140.623V440.282H159.865V439.768Z" fill="#B2B2B2" stroke="black" stroke-width="0.597187" stroke-miterlimit="10"/>
<path d="M154.765 405.681L155.983 402.993V388.135C155.983 386.201 155.72 384.278 155.195 382.414L153.773 377.326C152.722 373.588 147.61 373.648 146.655 377.422L145.377 382.474C144.911 384.29 144.684 386.165 144.684 388.052V403.005L146.392 405.693L146.356 439.78H145.078C145.078 439.78 144.744 433.904 141.089 433.892C141.089 433.892 136.825 433.223 137.136 442.014L136.276 443.041V446.994H136.694L136.622 514.393L135.786 538.83H137.243V540.239H137.649L136.897 542.711H139.513V543.213H142.463V542.711H145.281L144.398 540.239H145.138V538.83H146.249V538.471H146.858V540.12H147.264L146.512 542.592H149.127V543.093H152.077V542.592H154.884L154 540.12H154.741V538.471H154.956L154.932 538.901H156.473V540.227H156.879L156.126 542.699H158.742V543.201H161.692V542.699H164.499L163.615 540.227H164.356V538.901H165.371L164.308 514.034V446.982H164.642V442.886L163.818 441.715C163.818 441.715 163.985 433.892 159.829 433.88C159.829 433.88 156.664 432.841 155.923 439.768H154.729L154.765 405.681Z" stroke="black" stroke-width="1.79156" stroke-miterlimit="10"/>
<path d="M144.923 440.282L145.066 442.002L145.401 442.886V446.982H145.066V513.843L145.293 514.56L145.854 525.584L146.356 514.022L146.738 513.401L146.344 446.242H145.854V442.288L146.344 441.488V440.27" stroke="black" stroke-width="1.79156" stroke-miterlimit="10"/>
<path d="M154.729 440.282V441.62L154.979 442.157V446.254H154.729V513.413L155.027 514.214L155.385 525.166L155.756 514.452L155.923 513.604V446.97H155.505V443.017L155.923 442.288V440.282" stroke="black" stroke-width="1.79156" stroke-miterlimit="10"/>
<text fill="#BEE3F2" xml:space="preserve" style="white-space: pre" font-family="Assistant" font-size="9.55499" font-weight="bold" letter-spacing="0em"><tspan x="112.428" y="487.256">F1</tspan></text>
<text fill="#BEE3F2" xml:space="preserve" style="white-space: pre" font-family="Assistant" font-size="9.55499" font-weight="bold" letter-spacing="0em"><tspan x="111.909" y="438.287">F2</tspan></text>
<text fill="#BEE3F2" xml:space="preserve" style="white-space: pre" font-family="Assistant" font-size="9.55499" font-weight="bold" letter-spacing="0em"><tspan x="104.854" y="562.507">FASES</tspan></text>
<text fill="#BEE3F2" xml:space="preserve" style="white-space: pre" font-family="Assistant" font-size="9.55499" font-weight="bold" letter-spacing="0em"><tspan x="111.909" y="398.872">F3</tspan></text>
<path d="M95.1533 443.113L134.568 443.113" stroke="#BBECF9" stroke-width="0.597187" stroke-dasharray="2.39 2.39"/>
<path d="M95.1533 426.391L145.317 426.391" stroke="#BBECF9" stroke-width="0.597187" stroke-dasharray="2.39 2.39"/>
<path d="M91.5703 372.645L150.095 372.645" stroke="#BBECF9" stroke-width="0.597187" stroke-dasharray="2.39 2.39"/>
<path d="M89.1816 544.634L150.095 544.634" stroke="#BBECF9" stroke-width="0.597187" stroke-dasharray="2.39 2.39"/>
<path d="M88.7594 364.706C88.9926 364.939 89.3707 364.939 89.6039 364.706L93.4044 360.906C93.6376 360.672 93.6376 360.294 93.4044 360.061C93.1712 359.828 92.7931 359.828 92.5598 360.061L89.1816 363.439L85.8034 360.061C85.5702 359.828 85.1921 359.828 84.9589 360.061C84.7257 360.294 84.7257 360.672 84.9589 360.906L88.7594 364.706ZM149.672 364.706C149.906 364.939 150.284 364.939 150.517 364.706L154.317 360.906C154.551 360.672 154.551 360.294 154.317 360.061C154.084 359.828 153.706 359.828 153.473 360.061L150.095 363.439L146.716 360.061C146.483 359.828 146.105 359.828 145.872 360.061C145.639 360.294 145.639 360.672 145.872 360.906L149.672 364.706ZM88.5845 319.495V364.284H89.7788V319.495H88.5845ZM149.497 319.495V364.284H150.692V319.495H149.497Z" fill="white"/>
<text fill="white" xml:space="preserve" style="white-space: pre" font-family="Assistant" font-size="17" font-weight="bold" letter-spacing="0em"><tspan x="41.8652" y="405.239">181</tspan></text>
<text fill="white" xml:space="preserve" style="white-space: pre" font-family="Assistant" font-size="10.4806" font-weight="600" letter-spacing="0em"><tspan x="8" y="417.846">lanzamientos</tspan></text>
<text fill="white" xml:space="preserve" style="white-space: pre" font-family="Assistant" font-size="17" font-weight="bold" letter-spacing="0em"><tspan x="41.8652" y="499.239">119</tspan></text>
<text fill="white" xml:space="preserve" style="white-space: pre" font-family="Assistant" font-size="10.4806" font-weight="600" letter-spacing="0em"><tspan x="0" y="511.846">relanzamientos</tspan></text>
<text fill="white" xml:space="preserve" style="white-space: pre" font-family="Assistant" font-size="17" font-weight="bold" letter-spacing="0em"><tspan x="41.8652" y="449.239">141</tspan></text>
<text fill="white" xml:space="preserve" style="white-space: pre" font-family="Assistant" font-size="17" font-weight="bold" letter-spacing="0em"><tspan x="183.102" y="405.239">3</tspan></text>
<text fill="white" xml:space="preserve" style="white-space: pre" font-family="Assistant" font-size="17" font-weight="bold" letter-spacing="0em"><tspan x="184.102" y="499.239">4</tspan></text>
<text fill="white" xml:space="preserve" style="white-space: pre" font-family="Assistant" font-size="17" font-weight="bold" letter-spacing="0em"><tspan x="184.102" y="449.239">7</tspan></text>
<text fill="white" xml:space="preserve" style="white-space: pre" font-family="Assistant" font-size="10.4806" font-weight="600" letter-spacing="0em"><tspan x="21" y="461.846">aterrizajes</tspan></text>
<text fill="white" xml:space="preserve" style="white-space: pre" font-family="Assistant" font-size="10.4806" font-weight="600" letter-spacing="0em"><tspan x="184" y="417.846">lanzamientos</tspan></text>
<text fill="white" xml:space="preserve" style="white-space: pre" font-family="Assistant" font-size="10.4806" font-weight="600" letter-spacing="0em"><tspan x="184" y="511.846">relanzamientos</tspan></text>
<text fill="white" xml:space="preserve" style="white-space: pre" font-family="Assistant" font-size="10.4806" font-weight="600" letter-spacing="0em"><tspan x="184" y="461.846">aterrizajes</tspan></text>
</svg>
