<svg width="830" height="162" viewBox="0 0 830 162" fill="none" xmlns="http://www.w3.org/2000/svg">
<text fill="white" xml:space="preserve" style="white-space: pre" font-family="Roboto" font-size="11" font-weight="bold" letter-spacing="0em"><tspan x="31" y="10.2598">Primer sat&#xe9;lite artificial</tspan></text>
<text fill="white" xml:space="preserve" style="white-space: pre" font-family="Roboto" font-size="11" font-weight="600" letter-spacing="0em"><tspan x="20" y="93.2598">1957</tspan></text>
<text fill="white" xml:space="preserve" style="white-space: pre" font-family="Roboto" font-size="7" font-weight="600" letter-spacing="0em"><tspan x="36.5" y="24.3926">El sputnik 1, fabricado por Rusia, fue el </tspan><tspan x="36.5" y="32.3926">primer sat&#xe9;lite en orbitar la tierra</tspan></text>
<text fill="white" xml:space="preserve" style="white-space: pre" font-family="Roboto" font-size="11" font-weight="bold" letter-spacing="0em"><tspan x="77" y="101.26">Primer astronauta</tspan></text>
<text fill="white" xml:space="preserve" style="white-space: pre" font-family="Roboto" font-size="7" font-weight="600" letter-spacing="0em"><tspan x="62.4219" y="116.393">El ruso Yuri Gagarin fue el primer </tspan><tspan x="98.8916" y="124.393">hombre en el espacio</tspan></text>
<path d="M0.823223 66.8232C0.725592 66.9209 0.725592 67.0791 0.823223 67.1768L2.41421 68.7678C2.51184 68.8654 2.67014 68.8654 2.76777 68.7678C2.8654 68.6701 2.8654 68.5118 2.76777 68.4142L1.35355 67L2.76777 65.5858C2.8654 65.4882 2.8654 65.3299 2.76777 65.2322C2.67014 65.1346 2.51184 65.1346 2.41421 65.2322L0.823223 66.8232ZM829.177 67.1768C829.274 67.0791 829.274 66.9209 829.177 66.8232L827.586 65.2322C827.488 65.1346 827.33 65.1346 827.232 65.2322C827.135 65.3299 827.135 65.4882 827.232 65.5858L828.646 67L827.232 68.4142C827.135 68.5118 827.135 68.6701 827.232 68.7678C827.33 68.8654 827.488 68.8654 827.586 68.7678L829.177 67.1768ZM1 67.25H1.5V66.75H1V67.25ZM2.5 67.25H3.5V66.75H2.5V67.25ZM4.5 67.25H5.5V66.75H4.5V67.25ZM6.5 67.25H7.5V66.75H6.5V67.25ZM8.5 67.25H9.5V66.75H8.5V67.25ZM10.5 67.25H11.5V66.75H10.5V67.25ZM12.5 67.25H13.5V66.75H12.5V67.25ZM14.5 67.25H15.5V66.75H14.5V67.25ZM16.5 67.25H17.5V66.75H16.5V67.25ZM18.5 67.25H19.5V66.75H18.5V67.25ZM20.5 67.25H21.5V66.75H20.5V67.25ZM22.5 67.25H23.5V66.75H22.5V67.25ZM24.5 67.25H25.5V66.75H24.5V67.25ZM26.5 67.25H27.5V66.75H26.5V67.25ZM28.5 67.25H29.5V66.75H28.5V67.25ZM30.5 67.25H31.5V66.75H30.5V67.25ZM32.5 67.25H33.5V66.75H32.5V67.25ZM34.5 67.25H35.5V66.75H34.5V67.25ZM36.5 67.25H37.5V66.75H36.5V67.25ZM38.5 67.25H39.5V66.75H38.5V67.25ZM40.5 67.25H41.5V66.75H40.5V67.25ZM42.5 67.25H43.5V66.75H42.5V67.25ZM44.5 67.25H45.5V66.75H44.5V67.25ZM46.5 67.25H47.5V66.75H46.5V67.25ZM48.5 67.25H49.5V66.75H48.5V67.25ZM50.5 67.25H51.5V66.75H50.5V67.25ZM52.5 67.25H53.5V66.75H52.5V67.25ZM54.5 67.25H55.5V66.75H54.5V67.25ZM56.5 67.25H57.5V66.75H56.5V67.25ZM58.5 67.25H59.5V66.75H58.5V67.25ZM60.5 67.25H61.5V66.75H60.5V67.25ZM62.5 67.25H63.5V66.75H62.5V67.25ZM64.5 67.25H65.5V66.75H64.5V67.25ZM66.5 67.25H67.5V66.75H66.5V67.25ZM68.5 67.25H69.5V66.75H68.5V67.25ZM70.5 67.25H71.5V66.75H70.5V67.25ZM72.5 67.25H73.5V66.75H72.5V67.25ZM74.5 67.25H75.5V66.75H74.5V67.25ZM76.5 67.25H77.5V66.75H76.5V67.25ZM78.5 67.25H79.5V66.75H78.5V67.25ZM80.5 67.25H81.5V66.75H80.5V67.25ZM82.5 67.25H83.5V66.75H82.5V67.25ZM84.5 67.25H85.5V66.75H84.5V67.25ZM86.5 67.25H87.5V66.75H86.5V67.25ZM88.5 67.25H89.5V66.75H88.5V67.25ZM90.5 67.25H91.5V66.75H90.5V67.25ZM92.5 67.25H93.5V66.75H92.5V67.25ZM94.5 67.25H95.5V66.75H94.5V67.25ZM96.5 67.25H97.5V66.75H96.5V67.25ZM98.5 67.25H99.5V66.75H98.5V67.25ZM100.5 67.25H101.5V66.75H100.5V67.25ZM102.5 67.25H103.5V66.75H102.5V67.25ZM104.5 67.25H105.5V66.75H104.5V67.25ZM106.5 67.25H107.5V66.75H106.5V67.25ZM108.5 67.25H109.5V66.75H108.5V67.25ZM110.5 67.25H111.5V66.75H110.5V67.25ZM112.5 67.25H113.5V66.75H112.5V67.25ZM114.5 67.25H115.5V66.75H114.5V67.25ZM116.5 67.25H117.5V66.75H116.5V67.25ZM118.5 67.25H119.5V66.75H118.5V67.25ZM120.5 67.25H121.5V66.75H120.5V67.25ZM122.5 67.25H123.5V66.75H122.5V67.25ZM124.5 67.25H125.5V66.75H124.5V67.25ZM126.5 67.25H127.5V66.75H126.5V67.25ZM128.5 67.25H129.5V66.75H128.5V67.25ZM130.5 67.25H131.5V66.75H130.5V67.25ZM132.5 67.25H133.5V66.75H132.5V67.25ZM134.5 67.25H135.5V66.75H134.5V67.25ZM136.5 67.25H137.5V66.75H136.5V67.25ZM138.5 67.25H139.5V66.75H138.5V67.25ZM140.5 67.25H141.5V66.75H140.5V67.25ZM142.5 67.25H143.5V66.75H142.5V67.25ZM144.5 67.25H145.5V66.75H144.5V67.25ZM146.5 67.25H147.5V66.75H146.5V67.25ZM148.5 67.25H149.5V66.75H148.5V67.25ZM150.5 67.25H151.5V66.75H150.5V67.25ZM152.5 67.25H153.5V66.75H152.5V67.25ZM154.5 67.25H155.5V66.75H154.5V67.25ZM156.5 67.25H157.5V66.75H156.5V67.25ZM158.5 67.25H159.5V66.75H158.5V67.25ZM160.5 67.25H161.5V66.75H160.5V67.25ZM162.5 67.25H163.5V66.75H162.5V67.25ZM164.5 67.25H165.5V66.75H164.5V67.25ZM166.5 67.25H167.5V66.75H166.5V67.25ZM168.5 67.25H169.5V66.75H168.5V67.25ZM170.5 67.25H171.5V66.75H170.5V67.25ZM172.5 67.25H173.5V66.75H172.5V67.25ZM174.5 67.25H175.5V66.75H174.5V67.25ZM176.5 67.25H177.5V66.75H176.5V67.25ZM178.5 67.25H179.5V66.75H178.5V67.25ZM180.5 67.25H181.5V66.75H180.5V67.25ZM182.5 67.25H183.5V66.75H182.5V67.25ZM184.5 67.25H185.5V66.75H184.5V67.25ZM186.5 67.25H187.5V66.75H186.5V67.25ZM188.5 67.25H189.5V66.75H188.5V67.25ZM190.5 67.25H191.5V66.75H190.5V67.25ZM192.5 67.25H193.5V66.75H192.5V67.25ZM194.5 67.25H195.5V66.75H194.5V67.25ZM196.5 67.25H197.5V66.75H196.5V67.25ZM198.5 67.25H199.5V66.75H198.5V67.25ZM200.5 67.25H201.5V66.75H200.5V67.25ZM202.5 67.25H203.5V66.75H202.5V67.25ZM204.5 67.25H205.5V66.75H204.5V67.25ZM206.5 67.25H207.5V66.75H206.5V67.25ZM208.5 67.25H209.5V66.75H208.5V67.25ZM210.5 67.25H211.5V66.75H210.5V67.25ZM212.5 67.25H213.5V66.75H212.5V67.25ZM214.5 67.25H215.5V66.75H214.5V67.25ZM216.5 67.25H217.5V66.75H216.5V67.25ZM218.5 67.25H219.5V66.75H218.5V67.25ZM220.5 67.25H221.5V66.75H220.5V67.25ZM222.5 67.25H223.5V66.75H222.5V67.25ZM224.5 67.25H225.5V66.75H224.5V67.25ZM226.5 67.25H227.5V66.75H226.5V67.25ZM228.5 67.25H229.5V66.75H228.5V67.25ZM230.5 67.25H231.5V66.75H230.5V67.25ZM232.5 67.25H233.5V66.75H232.5V67.25ZM234.5 67.25H235.5V66.75H234.5V67.25ZM236.5 67.25H237.5V66.75H236.5V67.25ZM238.5 67.25H239.5V66.75H238.5V67.25ZM240.5 67.25H241.5V66.75H240.5V67.25ZM242.5 67.25H243.5V66.75H242.5V67.25ZM244.5 67.25H245.5V66.75H244.5V67.25ZM246.5 67.25H247.5V66.75H246.5V67.25ZM248.5 67.25H249.5V66.75H248.5V67.25ZM250.5 67.25H251.5V66.75H250.5V67.25ZM252.5 67.25H253.5V66.75H252.5V67.25ZM254.5 67.25H255.5V66.75H254.5V67.25ZM256.5 67.25H257.5V66.75H256.5V67.25ZM258.5 67.25H259.5V66.75H258.5V67.25ZM260.5 67.25H261.5V66.75H260.5V67.25ZM262.5 67.25H263.5V66.75H262.5V67.25ZM264.5 67.25H265.5V66.75H264.5V67.25ZM266.5 67.25H267.5V66.75H266.5V67.25ZM268.5 67.25H269.5V66.75H268.5V67.25ZM270.5 67.25H271.5V66.75H270.5V67.25ZM272.5 67.25H273.5V66.75H272.5V67.25ZM274.5 67.25H275.5V66.75H274.5V67.25ZM276.5 67.25H277.5V66.75H276.5V67.25ZM278.5 67.25H279.5V66.75H278.5V67.25ZM280.5 67.25H281.5V66.75H280.5V67.25ZM282.5 67.25H283.5V66.75H282.5V67.25ZM284.5 67.25H285.5V66.75H284.5V67.25ZM286.5 67.25H287.5V66.75H286.5V67.25ZM288.5 67.25H289.5V66.75H288.5V67.25ZM290.5 67.25H291.5V66.75H290.5V67.25ZM292.5 67.25H293.5V66.75H292.5V67.25ZM294.5 67.25H295.5V66.75H294.5V67.25ZM296.5 67.25H297.5V66.75H296.5V67.25ZM298.5 67.25H299.5V66.75H298.5V67.25ZM300.5 67.25H301.5V66.75H300.5V67.25ZM302.5 67.25H303.5V66.75H302.5V67.25ZM304.5 67.25H305.5V66.75H304.5V67.25ZM306.5 67.25H307.5V66.75H306.5V67.25ZM308.5 67.25H309.5V66.75H308.5V67.25ZM310.5 67.25H311.5V66.75H310.5V67.25ZM312.5 67.25H313.5V66.75H312.5V67.25ZM314.5 67.25H315.5V66.75H314.5V67.25ZM316.5 67.25H317.5V66.75H316.5V67.25ZM318.5 67.25H319.5V66.75H318.5V67.25ZM320.5 67.25H321.5V66.75H320.5V67.25ZM322.5 67.25H323.5V66.75H322.5V67.25ZM324.5 67.25H325.5V66.75H324.5V67.25ZM326.5 67.25H327.5V66.75H326.5V67.25ZM328.5 67.25H329.5V66.75H328.5V67.25ZM330.5 67.25H331.5V66.75H330.5V67.25ZM332.5 67.25H333.5V66.75H332.5V67.25ZM334.5 67.25H335.5V66.75H334.5V67.25ZM336.5 67.25H337.5V66.75H336.5V67.25ZM338.5 67.25H339.5V66.75H338.5V67.25ZM340.5 67.25H341.5V66.75H340.5V67.25ZM342.5 67.25H343.5V66.75H342.5V67.25ZM344.5 67.25H345.5V66.75H344.5V67.25ZM346.5 67.25H347.5V66.75H346.5V67.25ZM348.5 67.25H349.5V66.75H348.5V67.25ZM350.5 67.25H351.5V66.75H350.5V67.25ZM352.5 67.25H353.5V66.75H352.5V67.25ZM354.5 67.25H355.5V66.75H354.5V67.25ZM356.5 67.25H357.5V66.75H356.5V67.25ZM358.5 67.25H359.5V66.75H358.5V67.25ZM360.5 67.25H361.5V66.75H360.5V67.25ZM362.5 67.25H363.5V66.75H362.5V67.25ZM364.5 67.25H365.5V66.75H364.5V67.25ZM366.5 67.25H367.5V66.75H366.5V67.25ZM368.5 67.25H369.5V66.75H368.5V67.25ZM370.5 67.25H371.5V66.75H370.5V67.25ZM372.5 67.25H373.5V66.75H372.5V67.25ZM374.5 67.25H375.5V66.75H374.5V67.25ZM376.5 67.25H377.5V66.75H376.5V67.25ZM378.5 67.25H379.5V66.75H378.5V67.25ZM380.5 67.25H381.5V66.75H380.5V67.25ZM382.5 67.25H383.5V66.75H382.5V67.25ZM384.5 67.25H385.5V66.75H384.5V67.25ZM386.5 67.25H387.5V66.75H386.5V67.25ZM388.5 67.25H389.5V66.75H388.5V67.25ZM390.5 67.25H391.5V66.75H390.5V67.25ZM392.5 67.25H393.5V66.75H392.5V67.25ZM394.5 67.25H395.5V66.75H394.5V67.25ZM396.5 67.25H397.5V66.75H396.5V67.25ZM398.5 67.25H399.5V66.75H398.5V67.25ZM400.5 67.25H401.5V66.75H400.5V67.25ZM402.5 67.25H403.5V66.75H402.5V67.25ZM404.5 67.25H405.5V66.75H404.5V67.25ZM406.5 67.25H407.5V66.75H406.5V67.25ZM408.5 67.25H409.5V66.75H408.5V67.25ZM410.5 67.25H411.5V66.75H410.5V67.25ZM412.5 67.25H413.5V66.75H412.5V67.25ZM414.5 67.25H415.5V66.75H414.5V67.25ZM416.5 67.25H417.5V66.75H416.5V67.25ZM418.5 67.25H419.5V66.75H418.5V67.25ZM420.5 67.25H421.5V66.75H420.5V67.25ZM422.5 67.25H423.5V66.75H422.5V67.25ZM424.5 67.25H425.5V66.75H424.5V67.25ZM426.5 67.25H427.5V66.75H426.5V67.25ZM428.5 67.25H429.5V66.75H428.5V67.25ZM430.5 67.25H431.5V66.75H430.5V67.25ZM432.5 67.25H433.5V66.75H432.5V67.25ZM434.5 67.25H435.5V66.75H434.5V67.25ZM436.5 67.25H437.5V66.75H436.5V67.25ZM438.5 67.25H439.5V66.75H438.5V67.25ZM440.5 67.25H441.5V66.75H440.5V67.25ZM442.5 67.25H443.5V66.75H442.5V67.25ZM444.5 67.25H445.5V66.75H444.5V67.25ZM446.5 67.25H447.5V66.75H446.5V67.25ZM448.5 67.25H449.5V66.75H448.5V67.25ZM450.5 67.25H451.5V66.75H450.5V67.25ZM452.5 67.25H453.5V66.75H452.5V67.25ZM454.5 67.25H455.5V66.75H454.5V67.25ZM456.5 67.25H457.5V66.75H456.5V67.25ZM458.5 67.25H459.5V66.75H458.5V67.25ZM460.5 67.25H461.5V66.75H460.5V67.25ZM462.5 67.25H463.5V66.75H462.5V67.25ZM464.5 67.25H465.5V66.75H464.5V67.25ZM466.5 67.25H467.5V66.75H466.5V67.25ZM468.5 67.25H469.5V66.75H468.5V67.25ZM470.5 67.25H471.5V66.75H470.5V67.25ZM472.5 67.25H473.5V66.75H472.5V67.25ZM474.5 67.25H475.5V66.75H474.5V67.25ZM476.5 67.25H477.5V66.75H476.5V67.25ZM478.5 67.25H479.5V66.75H478.5V67.25ZM480.5 67.25H481.5V66.75H480.5V67.25ZM482.5 67.25H483.5V66.75H482.5V67.25ZM484.5 67.25H485.5V66.75H484.5V67.25ZM486.5 67.25H487.5V66.75H486.5V67.25ZM488.5 67.25H489.5V66.75H488.5V67.25ZM490.5 67.25H491.5V66.75H490.5V67.25ZM492.5 67.25H493.5V66.75H492.5V67.25ZM494.5 67.25H495.5V66.75H494.5V67.25ZM496.5 67.25H497.5V66.75H496.5V67.25ZM498.5 67.25H499.5V66.75H498.5V67.25ZM500.5 67.25H501.5V66.75H500.5V67.25ZM502.5 67.25H503.5V66.75H502.5V67.25ZM504.5 67.25H505.5V66.75H504.5V67.25ZM506.5 67.25H507.5V66.75H506.5V67.25ZM508.5 67.25H509.5V66.75H508.5V67.25ZM510.5 67.25H511.5V66.75H510.5V67.25ZM512.5 67.25H513.5V66.75H512.5V67.25ZM514.5 67.25H515.5V66.75H514.5V67.25ZM516.5 67.25H517.5V66.75H516.5V67.25ZM518.5 67.25H519.5V66.75H518.5V67.25ZM520.5 67.25H521.5V66.75H520.5V67.25ZM522.5 67.25H523.5V66.75H522.5V67.25ZM524.5 67.25H525.5V66.75H524.5V67.25ZM526.5 67.25H527.5V66.75H526.5V67.25ZM528.5 67.25H529.5V66.75H528.5V67.25ZM530.5 67.25H531.5V66.75H530.5V67.25ZM532.5 67.25H533.5V66.75H532.5V67.25ZM534.5 67.25H535.5V66.75H534.5V67.25ZM536.5 67.25H537.5V66.75H536.5V67.25ZM538.5 67.25H539.5V66.75H538.5V67.25ZM540.5 67.25H541.5V66.75H540.5V67.25ZM542.5 67.25H543.5V66.75H542.5V67.25ZM544.5 67.25H545.5V66.75H544.5V67.25ZM546.5 67.25H547.5V66.75H546.5V67.25ZM548.5 67.25H549.5V66.75H548.5V67.25ZM550.5 67.25H551.5V66.75H550.5V67.25ZM552.5 67.25H553.5V66.75H552.5V67.25ZM554.5 67.25H555.5V66.75H554.5V67.25ZM556.5 67.25H557.5V66.75H556.5V67.25ZM558.5 67.25H559.5V66.75H558.5V67.25ZM560.5 67.25H561.5V66.75H560.5V67.25ZM562.5 67.25H563.5V66.75H562.5V67.25ZM564.5 67.25H565.5V66.75H564.5V67.25ZM566.5 67.25H567.5V66.75H566.5V67.25ZM568.5 67.25H569.5V66.75H568.5V67.25ZM570.5 67.25H571.5V66.75H570.5V67.25ZM572.5 67.25H573.5V66.75H572.5V67.25ZM574.5 67.25H575.5V66.75H574.5V67.25ZM576.5 67.25H577.5V66.75H576.5V67.25ZM578.5 67.25H579.5V66.75H578.5V67.25ZM580.5 67.25H581.5V66.75H580.5V67.25ZM582.5 67.25H583.5V66.75H582.5V67.25ZM584.5 67.25H585.5V66.75H584.5V67.25ZM586.5 67.25H587.5V66.75H586.5V67.25ZM588.5 67.25H589.5V66.75H588.5V67.25ZM590.5 67.25H591.5V66.75H590.5V67.25ZM592.5 67.25H593.5V66.75H592.5V67.25ZM594.5 67.25H595.5V66.75H594.5V67.25ZM596.5 67.25H597.5V66.75H596.5V67.25ZM598.5 67.25H599.5V66.75H598.5V67.25ZM600.5 67.25H601.5V66.75H600.5V67.25ZM602.5 67.25H603.5V66.75H602.5V67.25ZM604.5 67.25H605.5V66.75H604.5V67.25ZM606.5 67.25H607.5V66.75H606.5V67.25ZM608.5 67.25H609.5V66.75H608.5V67.25ZM610.5 67.25H611.5V66.75H610.5V67.25ZM612.5 67.25H613.5V66.75H612.5V67.25ZM614.5 67.25H615.5V66.75H614.5V67.25ZM616.5 67.25H617.5V66.75H616.5V67.25ZM618.5 67.25H619.5V66.75H618.5V67.25ZM620.5 67.25H621.5V66.75H620.5V67.25ZM622.5 67.25H623.5V66.75H622.5V67.25ZM624.5 67.25H625.5V66.75H624.5V67.25ZM626.5 67.25H627.5V66.75H626.5V67.25ZM628.5 67.25H629.5V66.75H628.5V67.25ZM630.5 67.25H631.5V66.75H630.5V67.25ZM632.5 67.25H633.5V66.75H632.5V67.25ZM634.5 67.25H635.5V66.75H634.5V67.25ZM636.5 67.25H637.5V66.75H636.5V67.25ZM638.5 67.25H639.5V66.75H638.5V67.25ZM640.5 67.25H641.5V66.75H640.5V67.25ZM642.5 67.25H643.5V66.75H642.5V67.25ZM644.5 67.25H645.5V66.75H644.5V67.25ZM646.5 67.25H647.5V66.75H646.5V67.25ZM648.5 67.25H649.5V66.75H648.5V67.25ZM650.5 67.25H651.5V66.75H650.5V67.25ZM652.5 67.25H653.5V66.75H652.5V67.25ZM654.5 67.25H655.5V66.75H654.5V67.25ZM656.5 67.25H657.5V66.75H656.5V67.25ZM658.5 67.25H659.5V66.75H658.5V67.25ZM660.5 67.25H661.5V66.75H660.5V67.25ZM662.5 67.25H663.5V66.75H662.5V67.25ZM664.5 67.25H665.5V66.75H664.5V67.25ZM666.5 67.25H667.5V66.75H666.5V67.25ZM668.5 67.25H669.5V66.75H668.5V67.25ZM670.5 67.25H671.5V66.75H670.5V67.25ZM672.5 67.25H673.5V66.75H672.5V67.25ZM674.5 67.25H675.5V66.75H674.5V67.25ZM676.5 67.25H677.5V66.75H676.5V67.25ZM678.5 67.25H679.5V66.75H678.5V67.25ZM680.5 67.25H681.5V66.75H680.5V67.25ZM682.5 67.25H683.5V66.75H682.5V67.25ZM684.5 67.25H685.5V66.75H684.5V67.25ZM686.5 67.25H687.5V66.75H686.5V67.25ZM688.5 67.25H689.5V66.75H688.5V67.25ZM690.5 67.25H691.5V66.75H690.5V67.25ZM692.5 67.25H693.5V66.75H692.5V67.25ZM694.5 67.25H695.5V66.75H694.5V67.25ZM696.5 67.25H697.5V66.75H696.5V67.25ZM698.5 67.25H699.5V66.75H698.5V67.25ZM700.5 67.25H701.5V66.75H700.5V67.25ZM702.5 67.25H703.5V66.75H702.5V67.25ZM704.5 67.25H705.5V66.75H704.5V67.25ZM706.5 67.25H707.5V66.75H706.5V67.25ZM708.5 67.25H709.5V66.75H708.5V67.25ZM710.5 67.25H711.5V66.75H710.5V67.25ZM712.5 67.25H713.5V66.75H712.5V67.25ZM714.5 67.25H715.5V66.75H714.5V67.25ZM716.5 67.25H717.5V66.75H716.5V67.25ZM718.5 67.25H719.5V66.75H718.5V67.25ZM720.5 67.25H721.5V66.75H720.5V67.25ZM722.5 67.25H723.5V66.75H722.5V67.25ZM724.5 67.25H725.5V66.75H724.5V67.25ZM726.5 67.25H727.5V66.75H726.5V67.25ZM728.5 67.25H729.5V66.75H728.5V67.25ZM730.5 67.25H731.5V66.75H730.5V67.25ZM732.5 67.25H733.5V66.75H732.5V67.25ZM734.5 67.25H735.5V66.75H734.5V67.25ZM736.5 67.25H737.5V66.75H736.5V67.25ZM738.5 67.25H739.5V66.75H738.5V67.25ZM740.5 67.25H741.5V66.75H740.5V67.25ZM742.5 67.25H743.5V66.75H742.5V67.25ZM744.5 67.25H745.5V66.75H744.5V67.25ZM746.5 67.25H747.5V66.75H746.5V67.25ZM748.5 67.25H749.5V66.75H748.5V67.25ZM750.5 67.25H751.5V66.75H750.5V67.25ZM752.5 67.25H753.5V66.75H752.5V67.25ZM754.5 67.25H755.5V66.75H754.5V67.25ZM756.5 67.25H757.5V66.75H756.5V67.25ZM758.5 67.25H759.5V66.75H758.5V67.25ZM760.5 67.25H761.5V66.75H760.5V67.25ZM762.5 67.25H763.5V66.75H762.5V67.25ZM764.5 67.25H765.5V66.75H764.5V67.25ZM766.5 67.25H767.5V66.75H766.5V67.25ZM768.5 67.25H769.5V66.75H768.5V67.25ZM770.5 67.25H771.5V66.75H770.5V67.25ZM772.5 67.25H773.5V66.75H772.5V67.25ZM774.5 67.25H775.5V66.75H774.5V67.25ZM776.5 67.25H777.5V66.75H776.5V67.25ZM778.5 67.25H779.5V66.75H778.5V67.25ZM780.5 67.25H781.5V66.75H780.5V67.25ZM782.5 67.25H783.5V66.75H782.5V67.25ZM784.5 67.25H785.5V66.75H784.5V67.25ZM786.5 67.25H787.5V66.75H786.5V67.25ZM788.5 67.25H789.5V66.75H788.5V67.25ZM790.5 67.25H791.5V66.75H790.5V67.25ZM792.5 67.25H793.5V66.75H792.5V67.25ZM794.5 67.25H795.5V66.75H794.5V67.25ZM796.5 67.25H797.5V66.75H796.5V67.25ZM798.5 67.25H799.5V66.75H798.5V67.25ZM800.5 67.25H801.5V66.75H800.5V67.25ZM802.5 67.25H803.5V66.75H802.5V67.25ZM804.5 67.25H805.5V66.75H804.5V67.25ZM806.5 67.25H807.5V66.75H806.5V67.25ZM808.5 67.25H809.5V66.75H808.5V67.25ZM810.5 67.25H811.5V66.75H810.5V67.25ZM812.5 67.25H813.5V66.75H812.5V67.25ZM814.5 67.25H815.5V66.75H814.5V67.25ZM816.5 67.25H817.5V66.75H816.5V67.25ZM818.5 67.25H819.5V66.75H818.5V67.25ZM820.5 67.25H821.5V66.75H820.5V67.25ZM822.5 67.25H823.5V66.75H822.5V67.25ZM824.5 67.25H825.5V66.75H824.5V67.25ZM826.5 67.25H827.5V66.75H826.5V67.25ZM828.5 67.25H829V66.75H828.5V67.25Z" fill="white"/>
<path d="M31 57.5V15.5H166" stroke="white"/>
<text fill="white" xml:space="preserve" style="white-space: pre" font-family="Roboto" font-size="11" font-weight="bold" letter-spacing="0em"><tspan x="242" y="10.2598">Viaje a la Luna</tspan></text>
<text fill="white" xml:space="preserve" style="white-space: pre" font-family="Roboto" font-size="11" font-weight="600" letter-spacing="0em"><tspan x="225" y="93.2598">1969</tspan></text>
<text fill="white" xml:space="preserve" style="white-space: pre" font-family="Roboto" font-size="7" font-weight="600" letter-spacing="0em"><tspan x="241.5" y="24.3926">El programa estadounidense Apollo fue </tspan><tspan x="241.5" y="32.3926">el primero el llevar al hombre a la Luna</tspan></text>
<path d="M236 57.5V15.5H371" stroke="white"/>
<text fill="white" xml:space="preserve" style="white-space: pre" font-family="Roboto" font-size="11" font-weight="bold" letter-spacing="0em"><tspan x="454.5" y="10.2598">Cohete privado</tspan></text>
<text fill="white" xml:space="preserve" style="white-space: pre" font-family="Roboto" font-size="11" font-weight="600" letter-spacing="0em"><tspan x="441" y="96.2598">2008</tspan></text>
<text fill="white" xml:space="preserve" style="white-space: pre" font-family="Roboto" font-size="7" font-weight="600" letter-spacing="0em"><tspan x="457.5" y="24.3926">SpaceX logra llevar primer cohete </tspan><tspan x="457.5" y="32.3926">privado al espacio: el Falcon 1</tspan></text>
<path d="M452 57.5V15.5H587" stroke="white"/>
<text fill="white" xml:space="preserve" style="white-space: pre" font-family="Roboto" font-size="11" font-weight="bold" letter-spacing="0em"><tspan x="654.5" y="10.2598">NAVE REUTILIZABLE</tspan></text>
<text fill="white" xml:space="preserve" style="white-space: pre" font-family="Roboto" font-size="11" font-weight="600" letter-spacing="0em"><tspan x="641" y="95.2598">2017</tspan></text>
<text fill="white" xml:space="preserve" style="white-space: pre" font-family="Roboto" font-size="7" font-weight="600" letter-spacing="0em"><tspan x="657.5" y="24.3926">El Falcon 9 es el primer cohete </tspan><tspan x="657.5" y="32.3926">orbital en ser reutilizado</tspan></text>
<path d="M652 57.5V15.5H787" stroke="white"/>
<text fill="white" xml:space="preserve" style="white-space: pre" font-family="Roboto" font-size="11" font-weight="600" letter-spacing="0em"><tspan x="161" y="46.2598">1961</tspan></text>
<path d="M172 67V107H59" stroke="white"/>
<text fill="white" xml:space="preserve" style="white-space: pre" font-family="Roboto" font-size="11" font-weight="bold" letter-spacing="0em"><tspan x="304" y="101.26">Robot marciano</tspan></text>
<text fill="white" xml:space="preserve" style="white-space: pre" font-family="Roboto" font-size="7" font-weight="600" letter-spacing="0em"><tspan x="273.78" y="115.393">El robot americano Sojouner fue el </tspan><tspan x="303.394" y="123.393">primer veh&#xed;culo en Marte</tspan></text>
<text fill="white" xml:space="preserve" style="white-space: pre" font-family="Roboto" font-size="11" font-weight="600" letter-spacing="0em"><tspan x="377" y="46.2598">1997</tspan></text>
<path d="M388 66V106H270" stroke="white"/>
<text fill="white" xml:space="preserve" style="white-space: pre" font-family="Roboto" font-size="11" font-weight="bold" letter-spacing="0em"><tspan x="511" y="101.26">Dragon en la ISS</tspan></text>
<text fill="white" xml:space="preserve" style="white-space: pre" font-family="Roboto" font-size="7" font-weight="600" letter-spacing="0em"><tspan x="484.972" y="115.393">Primera nave privada en llegar a la </tspan><tspan x="495.048" y="123.393">Estaci&#xf3;n Espacial Internacional</tspan></text>
<text fill="white" xml:space="preserve" style="white-space: pre" font-family="Roboto" font-size="11" font-weight="600" letter-spacing="0em"><tspan x="588" y="45.2598">2012</tspan></text>
<path d="M599 66V106H484.5" stroke="white"/>
<text fill="white" xml:space="preserve" style="white-space: pre" font-family="Roboto" font-size="11" font-weight="bold" letter-spacing="0em"><tspan x="701" y="101.26">Vuelo comercial</tspan></text>
<text fill="white" xml:space="preserve" style="white-space: pre" font-family="Roboto" font-size="7" font-weight="600" letter-spacing="0em"><tspan x="676.171" y="115.393">SpaceX es la primera empresa en </tspan><tspan x="704.684" y="123.393">llevar turistas al espacio</tspan></text>
<text fill="white" xml:space="preserve" style="white-space: pre" font-family="Roboto" font-size="11" letter-spacing="0em"><tspan x="776" y="45.2598">2021</tspan></text>
<path d="M787 66V106H679" stroke="white"/>
<text fill="#BBECF9" xml:space="preserve" style="white-space: pre" font-family="Roboto" font-size="7" font-weight="bold" letter-spacing="0em"><tspan x="37" y="45.3926">USD$ 33 MILL.</tspan></text>
<text fill="#BBECF9" xml:space="preserve" style="white-space: pre" font-family="Roboto" font-size="7" font-weight="bold" letter-spacing="0em"><tspan x="331.168" y="135.393">USD$ 265 MILL.</tspan></text>
<text fill="#BBECF9" xml:space="preserve" style="white-space: pre" font-family="Roboto" font-size="7" font-weight="bold" letter-spacing="0em"><tspan x="242" y="45.3926">USD$ 25.400 MILL. </tspan></text>
<text fill="#BBECF9" xml:space="preserve" style="white-space: pre" font-family="Roboto" font-size="7" font-weight="bold" letter-spacing="0em"><tspan x="458" y="45.3926">USD$ 97 MILL.</tspan></text>
<text fill="#BBECF9" xml:space="preserve" style="white-space: pre" font-family="Roboto" font-size="7" font-weight="bold" letter-spacing="0em"><tspan x="657" y="45.3926">USD$ 67 MILL.</tspan></text>
<text fill="#BBECF9" xml:space="preserve" style="white-space: pre" font-family="Roboto" font-size="7" font-weight="bold" letter-spacing="0em"><tspan x="681" y="135.393">VALOR PASAJE: USD$ 55 MILL.</tspan></text>
<text fill="#BBECF9" xml:space="preserve" style="white-space: pre" font-family="Roboto" font-size="7" font-weight="bold" letter-spacing="0em"><tspan x="542.168" y="135.393">USD$ 900 MILL.</tspan></text>
<circle cx="31" cy="67" r="15.5" fill="black" stroke="#BBECF9"/>
<circle cx="171" cy="67" r="15.5" fill="black" stroke="#BBECF9"/>
<circle cx="236" cy="67" r="15.5" fill="black" stroke="#BBECF9"/>
<circle cx="387" cy="67" r="15.5" fill="black" stroke="#BBECF9"/>
<circle cx="452" cy="67" r="15.5" fill="black" stroke="#BBECF9"/>
<circle cx="652" cy="67" r="15.5" fill="black" stroke="#BBECF9"/>
<circle cx="786" cy="67" r="15.5" fill="black" stroke="#BBECF9"/>
<circle cx="599" cy="67" r="15.5" fill="black" stroke="#BBECF9"/>
<circle cx="31" cy="67" r="13" fill="white"/>
<path d="M28.6103 58.0033C28.7298 58.093 28.8592 58.166 28.9621 58.2689C29.9547 59.2548 30.944 60.2474 31.9332 61.2367C32.2486 61.552 32.2453 61.8209 31.9332 62.133C31.7307 62.3355 31.5282 62.5413 31.3257 62.7438C31.3191 62.7504 31.3158 62.7604 31.3125 62.767C31.4519 62.9098 31.5913 63.0492 31.7374 63.1986C31.7839 63.1554 31.827 63.1189 31.8702 63.0758C32.5208 62.4284 33.1682 61.7778 33.8188 61.1271C34.2471 60.7022 34.7284 60.6989 35.1566 61.1271C35.7409 61.7081 36.3218 62.2923 36.9061 62.8766C37.3277 63.2982 37.3244 63.7795 36.9061 64.2011C36.2156 64.8949 35.5218 65.5854 34.8346 66.2693C34.9741 66.4087 35.1102 66.5415 35.2562 66.6842C35.4621 66.4751 35.6845 66.2527 35.9069 66.0303C36.1758 65.7614 36.4646 65.7614 36.7335 66.0303C37.7559 67.0494 38.7751 68.0719 39.7942 69.0943C39.8772 69.1773 39.9336 69.2902 40 69.3864C40 69.4761 40 69.5624 40 69.652C39.9071 69.7715 39.8274 69.9043 39.7212 70.0139C39.1236 70.6214 38.5195 71.2189 37.9153 71.8231C37.6265 72.1119 37.3443 72.1119 37.0522 71.8231C36.0397 70.8106 35.0272 69.7981 34.0147 68.7856C33.7225 68.4935 33.7225 68.2146 34.0147 67.9258C34.2802 67.6602 34.5491 67.3946 34.818 67.1291C34.672 66.993 34.5325 66.8635 34.3832 66.7241C33.9815 67.1258 33.5599 67.5474 33.1383 67.969C32.9823 68.125 32.7698 68.2578 32.6868 68.447C32.6105 68.6229 32.6702 68.8619 32.6702 69.0711C32.6636 69.8346 32.4146 70.5085 31.9465 71.106C31.6843 71.438 31.3589 71.4546 31.0569 71.1525C29.7688 69.8645 28.4841 68.5798 27.1961 67.2917C26.8874 66.983 26.9073 66.6643 27.2558 66.3921C27.8169 65.9539 28.4542 65.7249 29.1646 65.6717C29.2244 65.6684 29.2974 65.6452 29.3406 65.6053C29.9879 64.9647 30.6319 64.3173 31.2793 63.67C31.2926 63.6567 31.3058 63.6368 31.3191 63.6169C31.1697 63.4774 31.027 63.3413 30.871 63.1986C30.6187 63.4509 30.3531 63.7198 30.0842 63.9887C29.7921 64.2775 29.5132 64.2775 29.2211 63.9854C28.2086 62.9729 27.1961 61.9604 26.1836 60.9479C25.8948 60.6591 25.8948 60.3769 26.1836 60.0847C26.7878 59.4773 27.3953 58.8698 28.0028 58.2689C28.1057 58.166 28.2351 58.0896 28.3513 58C28.4343 58.0033 28.5206 58.0033 28.6103 58.0033ZM32.4578 67.8262C32.4943 67.7963 32.5109 67.7831 32.5275 67.7665C33.8553 66.4386 35.1832 65.1107 36.5111 63.7829C36.687 63.6069 36.687 63.4741 36.5111 63.3015C35.9168 62.7073 35.3226 62.1131 34.7284 61.5188C34.5491 61.3396 34.4164 61.3429 34.2338 61.5288C32.8628 62.8998 31.4884 64.2742 30.1174 65.6452C30.0875 65.6751 30.0676 65.7083 30.0344 65.7481C31.193 66.0369 31.993 66.7274 32.4578 67.8262ZM26.6052 60.4997C27.6243 61.5155 28.6468 62.5413 29.6593 63.5538C30.2734 62.9397 30.9075 62.3056 31.515 61.6981C30.4992 60.6823 29.4734 59.6598 28.4609 58.6473C27.8467 59.2615 27.216 59.8922 26.6052 60.4997ZM36.3252 66.4685C35.6977 67.0959 35.0604 67.7333 34.433 68.3574C35.4455 69.3698 36.4679 70.3923 37.4804 71.4048C38.1078 70.7807 38.7452 70.1467 39.3726 69.5192C38.3568 68.5034 37.3343 67.481 36.3252 66.4685ZM27.611 66.8602C28.9024 68.1515 30.1937 69.4429 31.4851 70.7342C32.305 69.8014 32.3714 68.1117 31.2494 67.0228C30.1473 65.9572 28.4742 66.0801 27.611 66.8602Z" fill="black"/>
<path d="M28.743 75.0001C28.4277 74.9436 28.109 74.9138 27.8036 74.8308C25.3736 74.1834 23.8299 72.6398 23.1726 70.2131C23.0896 69.9011 23.0564 69.5757 23 69.257C23 69.0579 23 68.8587 23 68.6595C23.0963 68.5201 23.2224 68.4404 23.395 68.5068C23.5245 68.5566 23.5677 68.6628 23.571 68.7989C23.5876 69.4263 23.6706 70.0438 23.893 70.6314C24.6665 72.6697 26.1238 73.9112 28.265 74.3361C28.5571 74.3926 28.8559 74.4058 29.1547 74.4258C29.3074 74.4357 29.4468 74.4523 29.5032 74.6183C29.5563 74.7843 29.4767 74.9038 29.3439 74.9967C29.1414 75.0001 28.9422 75.0001 28.743 75.0001Z" fill="black"/>
<path d="M24.6897 68.8918C24.6963 68.8287 24.6897 68.7524 24.7096 68.686C24.7561 68.5433 24.8623 68.4735 25.015 68.4901C25.171 68.5067 25.2474 68.603 25.264 68.7524C25.3038 69.0744 25.3204 69.403 25.3901 69.7184C25.7354 71.2455 27.0931 72.4771 28.6401 72.6796C28.826 72.7028 29.0152 72.7128 29.2011 72.7293C29.4036 72.7493 29.5132 72.8522 29.5099 73.0215C29.5065 73.1974 29.3804 73.307 29.1712 73.3037C27.1363 73.2738 25.3901 71.9061 24.8557 69.9773C24.8026 69.7815 24.7627 69.579 24.7295 69.3798C24.7096 69.2205 24.7063 69.0578 24.6897 68.8918Z" fill="black"/>
<path d="M29.158 71.6073C27.7571 71.5808 26.5587 70.472 26.416 69.0777C26.406 68.9781 26.3894 68.8785 26.3928 68.7823C26.3994 68.6097 26.5123 68.4935 26.6683 68.4868C26.8276 68.4802 26.9438 68.5798 26.9671 68.7557C26.9936 68.9416 26.9936 69.1308 27.0401 69.3101C27.2858 70.3027 28.1223 70.9733 29.1414 71.0264C29.2444 71.033 29.3738 71.0662 29.4336 71.1359C29.49 71.2023 29.5066 71.3451 29.4801 71.4347C29.4402 71.5774 29.3008 71.6173 29.158 71.6073Z" fill="black"/>
<circle cx="171" cy="67" r="13" fill="white"/>
<circle cx="236" cy="67" r="13" fill="white"/>
<circle cx="387" cy="67" r="13" fill="white"/>
<circle cx="452" cy="67" r="13" fill="white"/>
<circle cx="652" cy="67" r="13" fill="white"/>
<circle cx="786" cy="67" r="13" fill="white"/>
<circle cx="599" cy="67" r="13" fill="white"/>
<path d="M176.661 72.26C176.867 72.26 177.023 72.26 177.18 72.26C177.504 72.2649 177.685 72.4365 177.685 72.7551C177.69 73.3383 177.69 73.9216 177.685 74.5C177.685 74.8333 177.514 75 177.185 75C173.073 75 168.96 75 164.848 75C164.519 75 164.353 74.8333 164.353 74.5C164.348 73.9167 164.348 73.3334 164.353 72.7551C164.353 72.4463 164.534 72.2649 164.843 72.26C165.005 72.2551 165.171 72.26 165.367 72.26C165.166 72.0149 164.985 71.7992 164.814 71.5836C164.318 70.9513 163.936 70.2552 163.671 69.4955C163.618 69.3484 163.544 69.2945 163.392 69.2994C163.039 69.319 162.691 69.3092 162.402 69.0592C162.147 68.8387 162 68.574 162 68.2309C162 67.2947 162 66.3535 162 65.4173C162 64.834 162.48 64.3586 163.064 64.3537C163.583 64.3488 163.573 64.3439 163.784 63.8635C164.941 61.2314 166.921 59.5991 169.759 59.1188C172.141 58.7168 174.293 59.3393 176.136 60.9226C177.161 61.7999 177.901 62.8881 178.362 64.1576C178.416 64.3047 178.489 64.3586 178.641 64.3537C178.822 64.3439 179.014 64.339 179.19 64.3733C179.695 64.4811 180.033 64.9174 180.033 65.4369C180.033 66.3682 180.033 67.2996 180.033 68.2309C180.033 68.8142 179.553 69.2945 178.969 69.2994C178.445 69.3043 178.445 69.3043 178.249 69.7896C177.896 70.6572 177.396 71.4267 176.769 72.1228C176.749 72.1571 176.724 72.1865 176.661 72.26ZM171.024 72.26C172.548 72.26 174.073 72.26 175.602 72.2649C175.769 72.2649 175.901 72.2257 176.014 72.1031C176.156 71.9512 176.308 71.8041 176.44 71.6473C178.023 69.8239 178.587 67.7113 178.121 65.3585C177.71 63.2704 176.519 61.6921 174.705 60.5892C173.573 59.903 172.333 59.5697 171.014 59.5697C169.98 59.5697 168.985 59.7854 168.044 60.2265C166.465 60.9618 165.274 62.1038 164.5 63.6626C163.868 64.937 163.662 66.2898 163.828 67.6966C164.034 69.4269 164.789 70.8777 166.029 72.0933C166.157 72.2159 166.294 72.2649 166.47 72.2649C167.985 72.26 169.504 72.26 171.024 72.26ZM171.024 72.8286C169.068 72.8286 167.117 72.8286 165.162 72.8237C164.99 72.8237 164.921 72.8629 164.926 73.0492C164.936 73.4462 164.936 73.8432 164.926 74.2452C164.921 74.4118 164.97 74.4706 165.142 74.4657C165.652 74.4559 166.157 74.4608 166.666 74.4608C170.053 74.4608 173.44 74.4608 176.827 74.4608C177.112 74.4608 177.112 74.4608 177.112 74.1667C177.112 73.8138 177.112 73.456 177.112 73.1031C177.112 72.8286 177.112 72.8286 176.842 72.8286C174.906 72.8286 172.965 72.8286 171.024 72.8286ZM163.431 68.7063C163.132 67.4466 163.147 66.1967 163.426 64.9468C162.868 64.8291 162.549 65.0693 162.544 65.5987C162.534 66.4173 162.534 67.2407 162.544 68.0593C162.549 68.5887 162.872 68.8289 163.431 68.7063ZM178.621 64.9615C178.911 66.2065 178.906 67.4613 178.621 68.7063C179.141 68.824 179.484 68.6132 179.494 68.1328C179.518 67.2652 179.518 66.3928 179.494 65.5252C179.484 65.0399 179.102 64.8046 178.621 64.9615Z" fill="black"/>
<path d="M171.46 71.7355C169.803 71.7355 168.627 71.5395 167.539 70.9758C166.029 70.1915 165.137 68.9465 164.995 67.2457C164.814 65.0987 165.588 63.3195 167.255 61.947C168.186 61.1824 169.264 60.7559 170.46 60.653C173.764 60.3638 176.489 62.6773 176.989 65.6722C177.161 66.7163 177.102 67.7358 176.675 68.7161C176.176 69.8729 175.293 70.6425 174.156 71.1375C173.161 71.5738 172.107 71.7355 171.46 71.7355ZM171.146 71.167C171.906 71.1817 172.779 71.0493 173.617 70.7454C174.705 70.3484 175.587 69.7063 176.102 68.6377C176.46 67.8976 176.558 67.1133 176.499 66.2947C176.406 65.0056 175.926 63.8782 175.043 62.9469C173.862 61.697 172.401 61.1039 170.671 61.2069C169.352 61.2853 168.205 61.7853 167.255 62.6921C166.014 63.8831 165.431 65.3487 165.549 67.0741C165.657 68.6181 166.402 69.7406 167.769 70.4513C168.784 70.9807 169.882 71.1719 171.146 71.167Z" fill="black"/>
<path d="M173.681 62.4813C173.823 62.5548 174.029 62.6332 174.215 62.7509C174.911 63.192 175.357 63.8439 175.69 64.5792C175.754 64.7164 175.808 64.8585 175.857 65.0056C175.916 65.1821 175.852 65.3242 175.7 65.383C175.553 65.4369 175.421 65.3683 175.332 65.1968C175.156 64.8389 174.999 64.4762 174.793 64.138C174.489 63.6331 174.078 63.241 173.519 63.0253C173.367 62.9665 173.303 62.8489 173.342 62.6871C173.372 62.5499 173.475 62.4911 173.681 62.4813Z" fill="black"/>
<path d="M244 65.9986C244 66.3307 244 66.6627 244 66.9947C243.99 67.0445 243.98 67.091 243.97 67.1408C243.904 67.5758 243.864 68.0207 243.768 68.449C243.021 71.7328 240.281 74.3127 236.964 74.8705C236.655 74.9236 236.343 74.9568 236.031 75C235.676 75 235.324 75 234.969 75C234.926 74.99 234.886 74.9801 234.843 74.9734C234.451 74.917 234.052 74.8805 233.664 74.7975C230.36 74.1068 227.671 71.2945 227.129 67.9775C227.08 67.6621 227.043 67.3434 227 67.0279C227 66.6727 227 66.3207 227 65.9654C227.013 65.8559 227.027 65.7463 227.04 65.64C227.249 63.7242 228.003 62.0541 229.331 60.6562C230.629 59.2916 232.21 58.4416 234.069 58.1262C234.378 58.073 234.69 58.0398 235.002 58C235.334 58 235.666 58 235.998 58C236.048 58.01 236.094 58.0232 236.144 58.0266C237.18 58.0996 238.176 58.342 239.106 58.8035C241.726 60.1018 243.333 62.1836 243.874 65.0656C243.93 65.3744 243.957 65.6865 244 65.9986ZM243.289 64.7203C241.769 65.0955 240.467 64.727 239.491 63.5084C238.472 62.2367 238.395 60.8422 239.156 59.4012C236.367 57.8273 232.07 58.1494 229.331 61.4033C226.605 64.6373 226.947 69.5082 230.114 72.4002C233.133 75.1594 237.147 74.8373 239.345 73.4793C239.322 73.4594 239.302 73.4428 239.282 73.4262C238.389 72.6824 238.206 71.4107 238.85 70.4479C239.116 70.0494 239.478 69.7672 239.929 69.6045C240.075 69.5514 240.202 69.6078 240.258 69.7406C240.308 69.8668 240.258 69.9863 240.125 70.0561C240.082 70.0793 240.032 70.0926 239.989 70.1158C239.385 70.4047 239.039 70.8828 238.98 71.5469C238.92 72.1977 239.166 72.7223 239.69 73.1174C239.79 73.1938 239.863 73.207 239.979 73.1273C240.739 72.5994 241.4 71.9686 241.951 71.2215C242.267 70.7932 242.273 70.7268 241.842 70.3914C241.643 70.2354 241.397 70.1324 241.164 70.0229C240.998 69.9465 240.915 69.8402 240.955 69.7008C240.998 69.558 241.131 69.4916 241.301 69.5447C241.433 69.5846 241.563 69.6311 241.689 69.6875C242.008 69.8369 242.27 70.0627 242.493 70.3383C243.366 69.1861 243.778 66.2842 243.289 64.7203ZM239.627 59.6436C238.976 60.6297 238.966 62.0707 239.853 63.1863C240.769 64.3385 242.194 64.5709 243.17 64.209C242.552 62.25 241.374 60.7359 239.627 59.6436Z" fill="black"/>
<path d="M233.222 61.8283C233.222 60.7558 234.009 59.8096 235.048 59.6269C236.127 59.4377 237.173 60.0221 237.555 61.0314C237.622 61.2074 237.585 61.3402 237.456 61.4033C237.309 61.4764 237.167 61.4066 237.094 61.2207C236.904 60.7426 236.579 60.4006 236.101 60.2113C235.208 59.856 234.192 60.301 233.843 61.1908C233.491 62.0939 233.939 63.11 234.842 63.4519C235.752 63.7973 236.758 63.3424 237.097 62.4359C237.117 62.3828 237.13 62.3297 237.15 62.2799C237.21 62.1305 237.323 62.0674 237.462 62.1105C237.595 62.1504 237.681 62.2832 237.618 62.426C237.499 62.7016 237.383 62.9937 237.203 63.2295C236.625 63.9832 235.609 64.2588 234.713 63.94C233.823 63.6246 233.222 62.7713 233.222 61.8283Z" fill="black"/>
<path d="M239.209 66.9383C239.212 66.251 239.767 65.6965 240.454 65.6998C241.138 65.7031 241.699 66.2676 241.692 66.9482C241.686 67.6322 241.125 68.19 240.441 68.1867C239.76 68.1867 239.209 67.6256 239.209 66.9383ZM240.451 66.1978C240.035 66.1978 239.707 66.5332 239.71 66.9482C239.713 67.3566 240.039 67.6853 240.447 67.6886C240.859 67.692 241.198 67.3566 241.201 66.9449C241.201 66.5365 240.862 66.1978 240.451 66.1978Z" fill="black"/>
<path d="M237.097 66.6062C237.097 67.0711 236.719 67.4529 236.254 67.4529C235.789 67.4529 235.397 67.0611 235.404 66.5929C235.41 66.1281 235.789 65.7562 236.257 65.7595C236.729 65.7629 237.097 66.1347 237.097 66.6062ZM236.247 66.2576C236.058 66.2609 235.898 66.4203 235.902 66.6062C235.905 66.7922 236.071 66.9549 236.257 66.9515C236.446 66.9482 236.599 66.7888 236.599 66.5963C236.596 66.4037 236.443 66.2576 236.247 66.2576Z" fill="black"/>
<path d="M236.709 71.0056C237.097 71.0056 237.403 71.3111 237.406 71.6996C237.409 72.0914 237.094 72.4068 236.702 72.4068C236.32 72.4035 236.005 72.0914 236.001 71.7095C235.998 71.321 236.317 71.0056 236.709 71.0056ZM236.699 71.5037C236.576 71.5169 236.509 71.5867 236.503 71.7062C236.499 71.8191 236.606 71.9187 236.719 71.9054C236.841 71.8921 236.908 71.8158 236.904 71.6929C236.898 71.5701 236.821 71.5103 236.699 71.5037Z" fill="black"/>
<path d="M394.003 68.6608C394.003 68.3423 394.003 68.0163 394.003 67.6751C393.911 67.6751 393.837 67.6751 393.754 67.6751C391.324 67.6751 388.884 67.6751 386.453 67.6751C385.956 67.6751 385.542 67.5159 385.192 67.1747C384.934 66.932 384.676 66.6894 384.428 66.4468C384.198 66.2193 383.921 66.1056 383.59 66.1132C383.47 66.1132 383.341 66.1207 383.222 66.1132C383.028 66.1056 382.909 65.9691 382.918 65.7947C382.927 65.6279 383.047 65.5066 383.222 65.4914C383.931 65.4308 384.557 65.5824 385.035 66.1283C385.229 66.3482 385.468 66.5454 385.68 66.7501C385.882 66.9472 386.131 67.0458 386.407 67.0458C388.912 67.0458 391.416 67.0458 393.911 67.0458C393.939 67.0458 393.966 67.0382 393.994 67.0382C393.994 66.8411 393.994 66.6439 393.994 66.424C393.672 66.424 393.349 66.424 393.027 66.424C392.521 66.424 392.097 66.0601 392.051 65.6052C392.005 65.1047 392.327 64.6574 392.834 64.574C393.064 64.5361 393.303 64.5664 393.589 64.5664C393.386 64.2783 393.156 64.0887 392.889 63.9295C392.53 63.7248 392.143 63.6186 391.729 63.6186C388.902 63.6186 386.085 63.611 383.258 63.6186C382.025 63.6262 381.049 64.4602 380.975 65.6431C380.911 66.6439 380.966 67.6524 380.966 68.6684C381.5 68.5546 382.016 68.5622 382.531 68.7518C383.415 69.0854 383.958 69.6996 384.17 70.5715C384.216 70.7535 384.28 70.7762 384.446 70.7762C386.177 70.7687 387.899 70.7762 389.63 70.7762C389.685 70.7762 389.74 70.7762 389.795 70.7762C389.989 70.7914 390.108 70.9127 390.108 71.0871C390.108 71.2615 389.98 71.3828 389.786 71.3904C389.731 71.3904 389.676 71.3904 389.621 71.3904C387.89 71.3904 386.168 71.3904 384.437 71.3904C384.28 71.3904 384.207 71.4056 384.17 71.5875C383.931 72.7628 382.844 73.5893 381.564 73.5817C380.312 73.5665 379.244 72.7097 379.042 71.5269C378.867 70.4805 379.244 69.6389 380.146 69.0247C380.266 68.9413 380.303 68.8655 380.303 68.729C380.303 65.825 380.303 62.9286 380.303 60.0246C380.303 59.8881 380.275 59.8123 380.137 59.7365C379.741 59.5394 379.557 59.092 379.677 58.6901C379.806 58.258 380.174 57.9926 380.634 58.0002C381.086 58.0002 381.454 58.2731 381.574 58.6977C381.693 59.0996 381.5 59.5318 381.104 59.7441C381.012 59.7896 380.938 59.8275 380.938 59.9564C380.948 61.2757 380.938 62.595 380.948 63.9067C380.948 63.9219 380.957 63.9446 380.957 63.9901C381.012 63.9446 381.049 63.9067 381.086 63.8688C381.675 63.2926 382.384 62.9893 383.231 62.9893C386.057 62.9893 388.893 62.9893 391.72 62.9893C393.349 62.9893 394.657 64.2328 394.657 65.7947C394.657 66.7728 394.657 67.7585 394.657 68.7366C394.657 68.8731 394.703 68.9489 394.822 69.0323C395.697 69.5783 396.167 70.6625 395.946 71.6103C395.697 72.6946 394.859 73.4679 393.764 73.6272C392.3 73.8471 390.974 72.9372 390.707 71.5421C390.458 70.2455 391.388 68.9262 392.769 68.6608C393.165 68.6001 393.58 68.6608 394.003 68.6608ZM381.601 69.237C380.515 69.2446 379.631 70.1014 379.64 71.125C379.649 72.1335 380.552 72.9827 381.601 72.9675C382.678 72.9599 383.562 72.1107 383.553 71.0871C383.553 70.0787 382.66 69.2295 381.601 69.237ZM393.349 72.9751C394.408 72.9827 395.301 72.141 395.32 71.1326C395.329 70.1014 394.445 69.2446 393.359 69.2446C392.3 69.237 391.407 70.0863 391.407 71.1023C391.388 72.1107 392.272 72.9599 393.349 72.9751ZM394.021 65.8023C393.985 65.6052 393.966 65.4459 393.92 65.2791C393.911 65.2412 393.847 65.1881 393.81 65.1805C393.543 65.173 393.276 65.173 393.018 65.1805C392.843 65.1881 392.705 65.3322 392.705 65.4838C392.705 65.6431 392.843 65.7871 393.027 65.7947C393.349 65.8099 393.662 65.8023 394.021 65.8023ZM380.948 58.9555C380.948 58.7963 380.791 58.6371 380.625 58.6371C380.46 58.6371 380.294 58.7887 380.303 58.9479C380.303 59.0996 380.45 59.2436 380.616 59.2512C380.782 59.2664 380.938 59.1147 380.948 58.9555Z" fill="black"/>
<path d="M381.933 65.4914C382.117 65.4914 382.255 65.6203 382.255 65.7947C382.255 65.9767 382.117 66.1131 381.924 66.1131C381.739 66.1131 381.601 65.9842 381.601 65.8098C381.601 65.6279 381.739 65.4914 381.933 65.4914Z" fill="black"/>
<path d="M381.601 69.8588C382.329 69.8588 382.909 70.4047 382.909 71.0947C382.909 71.7998 382.338 72.3533 381.592 72.3457C380.865 72.3457 380.294 71.7922 380.294 71.0947C380.294 70.4047 380.874 69.8588 381.601 69.8588ZM382.255 71.1023C382.255 70.7686 381.951 70.4805 381.601 70.4805C381.251 70.4805 380.948 70.7762 380.948 71.1023C380.948 71.4359 381.251 71.724 381.601 71.724C381.951 71.724 382.255 71.4359 382.255 71.1023Z" fill="black"/>
<path d="M393.349 72.3458C392.622 72.3458 392.051 71.7923 392.051 71.0947C392.051 70.3895 392.631 69.8512 393.377 69.8512C394.095 69.8512 394.666 70.4123 394.666 71.1098C394.657 71.8074 394.077 72.3533 393.349 72.3458ZM394.003 71.1023C394.003 70.7762 393.69 70.4805 393.349 70.4805C392.999 70.4805 392.696 70.7762 392.696 71.1023C392.696 71.4359 392.999 71.724 393.349 71.724C393.708 71.724 394.003 71.4359 394.003 71.1023Z" fill="black"/>
<path d="M460.972 58.7591C460.942 59.0283 460.904 59.3049 460.867 59.5741C460.598 61.5332 460.119 63.425 458.953 65.07C458.736 65.3766 458.482 65.6532 458.22 65.9224C457.674 66.4832 457.121 67.0366 456.56 67.5899C456.455 67.6946 456.41 67.8067 456.395 67.9488C456.298 68.876 456.201 69.8032 456.089 70.7304C456.074 70.8276 456.022 70.9472 455.947 71.0145C455.035 71.9343 454.122 72.8465 453.21 73.7587C453.105 73.8634 452.993 73.9232 452.836 73.8709C452.687 73.8186 452.619 73.7064 452.597 73.5643C452.515 72.9961 452.425 72.4278 452.358 71.8595C452.328 71.6277 452.275 71.4408 452.081 71.2912C451.954 71.194 451.849 71.0594 451.722 70.9248C451.55 71.209 451.393 71.4707 451.236 71.7398C451.131 71.9118 451.027 72.0913 450.922 72.2633C450.765 72.525 450.526 72.5549 450.309 72.338C449.606 71.6352 448.903 70.9323 448.2 70.2294C447.692 69.721 447.183 69.2125 446.675 68.704C446.428 68.4573 446.451 68.2479 446.75 68.061C447.176 67.7993 447.61 67.545 448.051 67.2758C447.856 67.074 447.699 66.8571 447.482 66.7076C447.355 66.6178 447.146 66.6328 446.974 66.6029C446.473 66.5281 445.972 66.4608 445.471 66.3935C445.314 66.3711 445.172 66.3187 445.12 66.1393C445.067 65.9673 445.149 65.8551 445.262 65.743C446.159 64.8532 447.056 63.9559 447.939 63.0586C448.118 62.8791 448.335 62.8866 448.552 62.8567C449.397 62.7595 450.242 62.6698 451.086 62.58C451.214 62.5651 451.311 62.5202 451.401 62.423C451.857 61.9594 452.335 61.5108 452.776 61.0322C453.763 59.9629 454.982 59.2676 456.343 58.804C457.472 58.4226 458.624 58.1759 459.805 58.0712C460.044 58.0487 460.276 58.0338 460.515 58.0039C460.717 57.9814 460.867 58.0562 460.964 58.2357C460.972 58.4301 460.972 58.5946 460.972 58.7591ZM453.442 69.8256C453.487 69.7658 453.517 69.706 453.562 69.6537C454.93 68.2853 456.291 66.9095 457.667 65.556C458.541 64.6961 459.11 63.6568 459.514 62.5127C459.528 62.4679 459.506 62.3856 459.469 62.3482C458.534 61.4061 457.599 60.4714 456.657 59.5367C456.62 59.4994 456.538 59.4694 456.493 59.4844C455.379 59.8732 454.362 60.4116 453.524 61.2565C451.819 62.9689 450.114 64.6737 448.402 66.3786C448.357 66.4234 448.312 66.4683 448.29 66.4982C449.703 67.9114 451.094 69.3022 452.485 70.693C452.619 70.5584 452.769 70.4089 452.933 70.2369C452.889 70.1995 452.836 70.1696 452.791 70.1247C452.014 69.3471 451.236 68.5694 450.458 67.7918C450.399 67.732 450.339 67.6721 450.301 67.6049C450.182 67.3955 450.331 67.1188 450.571 67.1338C450.683 67.1413 450.81 67.2085 450.892 67.2908C451.685 68.0759 452.47 68.8685 453.262 69.6537C453.322 69.7135 453.367 69.7509 453.442 69.8256ZM451.221 70.4687C450.324 69.5714 449.434 68.6816 448.537 67.7843C448.17 68.0012 447.789 68.233 447.438 68.4423C448.484 69.4892 449.524 70.5285 450.563 71.5679C450.772 71.209 451.004 70.8351 451.221 70.4687ZM460.284 58.7217C459.267 58.804 458.287 58.9685 457.353 59.2227C458.16 60.0302 458.975 60.8453 459.783 61.6528C460.037 60.7107 460.201 59.7312 460.284 58.7217ZM450.496 63.3353C449.83 63.41 449.187 63.4773 448.552 63.5596C448.469 63.5671 448.372 63.6119 448.312 63.6717C447.639 64.3372 446.966 65.0102 446.293 65.6832C446.256 65.7205 446.219 65.7579 446.174 65.8178C446.249 65.8327 446.301 65.8477 446.361 65.8551C446.787 65.915 447.213 65.9673 447.632 66.0421C447.744 66.057 447.811 66.0421 447.894 65.9598C448.724 65.1298 449.554 64.2998 450.384 63.4624C450.414 63.425 450.443 63.3876 450.496 63.3353ZM453.18 72.8166C453.218 72.7942 453.233 72.7942 453.24 72.7867C453.958 72.0763 454.668 71.3585 455.379 70.6407C455.416 70.6033 455.438 70.5509 455.446 70.4986C455.521 69.8406 455.595 69.1901 455.67 68.5096C455.633 68.532 455.61 68.547 455.595 68.562C454.735 69.4219 453.876 70.2743 453.023 71.1417C452.986 71.179 452.963 71.2688 452.971 71.3286C452.993 71.538 453.023 71.7398 453.053 71.9492C453.098 72.2408 453.135 72.525 453.18 72.8166Z" fill="black"/>
<path d="M444.237 75C443.938 74.7906 443.923 74.6112 444.185 74.342C445.277 73.2503 446.368 72.1586 447.467 71.0669C447.535 70.9996 447.617 70.9323 447.707 70.9024C447.849 70.8575 447.983 70.9099 448.066 71.0444C448.14 71.1716 448.14 71.2912 448.051 71.4108C448.013 71.4557 447.976 71.508 447.931 71.5454C446.847 72.6371 445.755 73.7214 444.663 74.8131C444.596 74.8804 444.514 74.9402 444.432 75C444.372 75 444.305 75 444.237 75Z" fill="black"/>
<path d="M444.828 72.682C444.551 72.6521 444.394 72.3755 444.529 72.1586C444.559 72.1063 444.604 72.0614 444.641 72.0165C445.277 71.381 445.912 70.7379 446.555 70.1098C446.637 70.035 446.757 69.9603 446.869 69.9528C447.116 69.9378 447.273 70.222 447.146 70.4313C447.116 70.4837 447.071 70.5285 447.034 70.5734C446.391 71.2165 445.755 71.8595 445.112 72.4951C445.022 72.5773 444.918 72.6222 444.828 72.682Z" fill="black"/>
<path d="M446.353 74.1401C446.376 74.1027 446.413 74.0055 446.481 73.9382C447.139 73.2727 447.797 72.6147 448.462 71.9567C448.627 71.7922 448.813 71.7772 448.963 71.9193C449.105 72.0539 449.098 72.2633 448.933 72.4353C448.275 73.0933 447.617 73.7588 446.952 74.4168C446.847 74.5214 446.72 74.5813 446.563 74.514C446.421 74.4467 446.353 74.342 446.353 74.1401Z" fill="black"/>
<path d="M456.769 64.2326C456.762 65.3392 455.865 66.2215 454.758 66.2141C453.674 66.2066 452.776 65.2943 452.791 64.2026C452.799 63.1035 453.704 62.2211 454.803 62.2361C455.909 62.2436 456.777 63.1259 456.769 64.2326ZM454.788 62.9016C454.07 62.9016 453.479 63.4848 453.464 64.2101C453.449 64.928 454.062 65.5411 454.788 65.5411C455.506 65.5411 456.104 64.9429 456.104 64.2251C456.104 63.4998 455.513 62.9016 454.788 62.9016Z" fill="black"/>
<path d="M449.337 66.5281C449.337 66.3561 449.486 66.1991 449.658 66.1991C449.83 66.1991 450.002 66.3636 449.995 66.5356C449.995 66.715 449.83 66.8721 449.651 66.8646C449.471 66.8496 449.337 66.7076 449.337 66.5281Z" fill="black"/>
<path d="M604.264 68.2116C603.929 68.8211 603.663 69.4207 603.298 69.9516C602.096 71.6818 600.421 72.6747 598.312 72.9106C597.11 73.0482 595.947 72.8713 594.843 72.3896C594.705 72.3306 594.606 72.3404 594.478 72.4191C593.7 72.8615 592.911 73.2743 592.024 73.4513C591.64 73.5299 591.266 73.5693 590.881 73.4316C590.231 73.1957 589.906 72.5469 590.024 71.7604C590.182 70.7774 590.605 69.9123 591.098 69.0668C591.177 68.9292 591.197 68.8211 591.128 68.6736C589.383 64.6529 591.887 59.9342 596.213 59.1379C598.834 58.6562 601.042 59.4427 602.845 61.399C602.875 61.4284 602.904 61.4678 602.934 61.4973C602.944 61.5071 602.953 61.5169 602.983 61.5366C603.151 61.3891 603.308 61.2417 603.476 61.0942C604.599 60.1701 605.89 59.7081 607.349 59.6983C607.684 59.6983 607.802 59.8162 607.802 60.1603C607.802 61.7529 607.25 63.139 606.156 64.299C605.979 64.4858 605.792 64.6725 605.604 64.8495C605.506 64.938 605.486 65.0264 605.526 65.1542C605.703 65.7637 605.861 66.3831 606.038 66.9926C606.107 67.2187 606.048 67.376 605.88 67.5333C605.604 67.7987 605.338 68.0739 605.062 68.3492C604.806 68.6048 604.658 68.6048 604.402 68.3492C604.333 68.3099 604.294 68.2509 604.264 68.2116ZM602.402 61.9986C602.303 61.8807 602.244 61.802 602.185 61.743C600.549 60.062 598.558 59.3837 596.252 59.8555C592.99 60.524 590.862 63.6108 591.354 66.9041C591.65 68.8899 592.714 70.3841 594.439 71.4164C594.567 71.495 594.656 71.495 594.784 71.4065C596.292 70.4038 597.691 69.2733 598.982 68.0051C599.13 67.8577 599.209 67.7004 599.228 67.4939C599.287 66.7861 599.563 66.1471 599.987 65.577C600.076 65.459 600.174 65.341 600.243 65.2624C600.125 65.0658 599.958 64.8888 599.958 64.7217C599.958 64.5546 600.145 64.3875 600.253 64.2007C599.879 63.8271 599.485 63.4437 599.1 63.0505C598.903 62.8441 598.903 62.6671 599.1 62.4607C599.317 62.2444 599.554 62.0478 599.741 61.8118C600.036 61.4383 600.362 61.3695 600.805 61.5366C601.288 61.7332 601.82 61.8413 602.402 61.9986ZM595.454 71.8784C595.493 71.8981 595.572 71.9275 595.641 71.9472C596.765 72.3011 597.898 72.3699 599.031 72.075C601.327 71.4655 602.835 70.0204 603.564 67.7692C603.584 67.7004 603.584 67.6021 603.555 67.5529C603.476 67.435 603.358 67.3268 603.259 67.2187C602.756 67.6512 602.756 67.6512 602.244 67.2482C602.224 67.258 602.205 67.2678 602.185 67.2777C601.495 67.897 600.697 68.2411 599.77 68.3C599.701 68.3 599.623 68.359 599.573 68.4082C599.15 68.8014 598.736 69.2241 598.292 69.5879C597.366 70.3645 596.41 71.1116 595.454 71.8784ZM600.805 64.7119C601.475 65.3803 602.116 66.0292 602.776 66.6878C602.786 66.678 602.816 66.6583 602.845 66.6288C603.771 65.7048 604.698 64.7807 605.624 63.8566C606.294 63.1783 606.728 62.3722 606.945 61.4481C607.024 61.1237 607.053 60.7895 607.112 60.4454C606.058 60.4454 604.826 60.8583 604.008 61.6054C602.894 62.6081 601.85 63.6797 600.805 64.7119ZM591.601 69.6173C591.256 70.2367 590.95 70.8363 590.802 71.4852C590.743 71.7506 590.733 72.0455 590.753 72.3208C590.763 72.5862 590.95 72.7435 591.216 72.7828C591.335 72.8025 591.463 72.8025 591.581 72.7926C592.429 72.7238 593.158 72.3306 593.917 71.9374C592.961 71.3377 592.192 70.5807 591.601 69.6173ZM599.918 67.5726C600.647 67.4841 601.229 67.199 601.722 66.7468C601.387 66.4126 601.071 66.098 600.756 65.7736C600.283 66.2651 600.007 66.8549 599.918 67.5726ZM601.869 62.5983C601.416 62.4803 600.963 62.3525 600.509 62.2346C600.45 62.2149 600.352 62.2346 600.303 62.2739C600.125 62.4312 599.948 62.5983 599.79 62.7556C600.135 63.0996 600.45 63.4142 600.756 63.719C601.12 63.3454 601.495 62.9718 601.869 62.5983ZM604.905 65.6163C604.52 65.9898 604.156 66.3634 603.801 66.7173C604.106 67.0221 604.432 67.3465 604.767 67.6807C604.915 67.5333 605.072 67.3661 605.23 67.199C605.269 67.1597 605.299 67.081 605.289 67.0319C605.161 66.5502 605.033 66.0783 604.905 65.6163Z" fill="black"/>
<path d="M604.859 61.5766C605.453 61.5766 605.928 61.9832 605.928 62.5047C605.928 63.0174 605.443 63.4505 604.869 63.4505C604.285 63.4505 603.82 63.0262 603.82 62.5047C603.82 61.9832 604.265 61.5766 604.859 61.5766ZM604.869 62.8052C605.067 62.8052 605.216 62.6727 605.206 62.4959C605.196 62.3368 605.057 62.2042 604.869 62.1953C604.681 62.1953 604.523 62.3279 604.523 62.4959C604.523 62.6815 604.671 62.8141 604.869 62.8052Z" fill="black"/>
<path d="M654.815 63.232C654.065 62.6817 653.235 62.4028 652.295 62.4102C650.509 62.4102 648.984 63.5549 648.541 65.0958C648.383 65.6535 647.83 66.0277 647.245 65.9984C646.613 65.969 646.115 65.5508 646.012 64.9637C645.981 64.7583 646.012 64.5528 646.083 64.3474C646.858 62.146 648.438 60.7078 650.872 60.1721C652.958 59.7172 654.863 60.1721 656.53 61.4416C656.57 61.4709 656.601 61.4929 656.649 61.5296C656.87 61.3242 657.083 61.1114 657.313 60.9132C657.384 60.8472 657.486 60.7958 657.581 60.7885C657.795 60.7592 657.968 60.9059 657.992 61.104C657.992 61.126 658 61.1481 658 61.1774C658 62.146 658 63.1073 658 64.0759C658 64.274 657.905 64.4061 657.723 64.4501C657.676 64.4648 657.629 64.4648 657.589 64.4648C656.538 64.4648 655.495 64.4648 654.444 64.4648C654.254 64.4648 654.12 64.3914 654.065 64.2446C654.001 64.0905 654.041 63.9585 654.159 63.8484C654.373 63.6429 654.586 63.4448 654.815 63.232ZM657.218 61.9993C657.147 62.0653 657.099 62.1093 657.06 62.1607C656.783 62.4542 656.578 62.4689 656.246 62.1754C655.305 61.3388 654.167 60.8692 652.871 60.7518C651.971 60.6711 651.086 60.7738 650.248 61.0894C648.494 61.7498 647.34 62.9385 646.795 64.6262C646.747 64.7656 646.755 64.8977 646.826 65.0225C646.929 65.2059 647.126 65.3013 647.364 65.2719C647.569 65.2499 647.727 65.1105 647.798 64.883C648.438 62.7844 650.596 61.4563 652.903 61.7351C653.938 61.8598 654.831 62.2634 655.582 62.9312C655.795 63.1219 655.795 63.3201 655.59 63.5109C655.511 63.5842 655.424 63.6576 655.321 63.753C655.977 63.753 656.585 63.753 657.21 63.753C657.218 63.1733 657.218 62.601 657.218 61.9993Z" fill="black"/>
<path d="M652.215 73C651.994 72.9656 651.773 72.9399 651.551 72.8969C650.382 72.6821 649.347 72.1408 648.438 71.3074C648.414 71.2816 648.383 71.2644 648.343 71.2215C648.225 71.3589 648.106 71.4878 647.988 71.6253C647.893 71.7284 647.79 71.8315 647.703 71.9346C647.577 72.0807 647.427 72.1494 647.245 72.0721C647.055 71.9947 647 71.8229 647 71.6167C647 70.9637 647 70.3107 647 69.6577C647 69.1938 647 68.7384 647 68.2744C647 67.9394 647.142 67.7847 647.45 67.7847C648.478 67.7847 649.505 67.7847 650.532 67.7847C650.722 67.7847 650.864 67.8534 650.943 68.0425C651.014 68.2401 650.959 68.3947 650.824 68.5408C650.611 68.7642 650.406 68.9962 650.184 69.2281C650.54 69.5546 650.927 69.7952 651.362 69.9585C653.471 70.7661 655.755 69.5203 656.419 67.2005C656.513 66.8568 656.632 66.5475 656.901 66.3155C657.343 65.9288 657.944 65.8945 658.41 66.2296C658.876 66.5646 659.113 67.1833 658.947 67.7675C658.189 70.5083 656.529 72.2181 653.953 72.8625C653.716 72.9227 653.471 72.9399 653.226 72.9742C653.195 72.9828 653.163 72.9914 653.132 73C652.823 73 652.523 73 652.215 73ZM649.663 68.6181C649.007 68.6181 648.391 68.6181 647.774 68.6181C647.774 69.2969 647.774 69.9671 647.774 70.6544C647.822 70.6114 647.853 70.5771 647.885 70.5427C647.924 70.4998 647.972 70.4482 648.011 70.4052C648.241 70.1561 648.43 70.1561 648.667 70.3966C650.113 71.8745 651.82 72.4329 653.764 72.0463C655.083 71.7885 656.174 71.0668 657.043 69.9585C657.604 69.2453 657.999 68.4291 658.212 67.5098C658.275 67.2434 658.133 66.9771 657.904 66.874C657.596 66.7365 657.288 66.9255 657.185 67.3036C656.569 69.6663 654.506 71.2558 652.183 70.9981C651.109 70.8778 650.176 70.3966 649.394 69.5718C649.189 69.357 649.189 69.125 649.394 68.9017C649.473 68.8157 649.56 68.7298 649.663 68.6181Z" fill="black"/>
<path d="M785.859 58C786.279 58 786.699 58 787.119 58C787.381 58.042 787.644 58.063 787.895 58.1155C789.47 58.3884 790.866 59.0496 792.062 60.1098C793.542 61.4218 794.487 63.0487 794.844 65.0115C794.896 65.3054 794.928 65.6098 794.98 65.9037C794.98 66.3026 794.98 66.7014 794.98 67.1003C794.97 67.1528 794.959 67.1948 794.949 67.2472C794.896 67.5831 794.875 67.919 794.802 68.2444C793.899 72.6003 789.732 75.5288 785.324 74.92C783.529 74.6681 781.965 73.9229 780.663 72.6633C778.522 70.5851 777.672 68.0554 778.113 65.106C778.375 63.3531 779.173 61.8416 780.412 60.5821C781.734 59.2281 783.33 58.3989 785.208 58.105C785.429 58.063 785.649 58.0315 785.859 58ZM793.994 66.502C794.004 62.3874 790.635 59.0076 786.499 58.9971C782.385 58.9867 779.005 62.356 778.995 66.481C778.984 70.5955 782.353 73.9858 786.478 73.9754C790.635 73.9754 793.962 70.6585 793.994 66.502Z" fill="black"/>
<path d="M786.489 60.0258C790.068 60.0258 792.955 62.9122 792.965 66.4915C792.965 70.0707 790.068 72.9677 786.489 72.9677C782.92 72.9677 780.034 70.0602 780.034 66.4915C780.023 62.9227 782.92 60.0258 786.489 60.0258ZM781.02 66.481C781.01 69.4829 783.477 71.9495 786.489 71.96C789.491 71.9705 791.958 69.5039 791.968 66.4915C791.978 63.4895 789.512 61.0229 786.499 61.0124C783.497 61.0124 781.031 63.4685 781.02 66.481Z" fill="black"/>
<path d="M785.996 63.0277C785.996 62.8493 785.996 62.6813 785.996 62.5134C785.996 62.2195 786.206 62.0096 786.489 62.0096C786.772 62.0096 786.982 62.2195 786.982 62.5134C786.982 62.6813 786.982 62.8598 786.982 63.0277C787.455 63.1222 787.895 63.2796 788.263 63.584C788.704 63.9514 788.977 64.4027 788.966 65.001C788.966 65.2634 788.756 65.4734 788.494 65.4839C788.242 65.4944 787.99 65.3159 787.979 65.064C787.958 64.5602 787.644 64.3083 787.234 64.1298C787.182 64.1088 787.119 64.0878 787.066 64.0669C787.045 64.0564 787.024 64.0564 786.993 64.0564C786.993 64.7071 786.993 65.3474 786.993 65.9877C787.224 66.0612 787.465 66.1241 787.686 66.2186C788.326 66.502 788.798 66.9428 788.945 67.6461C789.082 68.3074 788.83 68.8532 788.347 69.294C788.011 69.6089 787.591 69.7978 787.14 69.8818C787.003 69.9133 786.972 69.9658 786.982 70.0917C786.993 70.2177 786.982 70.3436 786.982 70.4696C786.972 70.753 786.762 70.9524 786.478 70.9524C786.206 70.9524 785.996 70.7425 785.985 70.4696C785.985 70.3331 785.975 70.1967 785.985 70.0602C785.996 69.9448 785.954 69.9133 785.838 69.8923C785.25 69.7663 784.747 69.5144 784.369 69.0316C784.117 68.7167 783.98 68.3598 783.991 67.9505C784.001 67.6881 784.211 67.4781 784.463 67.4781C784.726 67.4677 784.967 67.6566 784.978 67.919C784.999 68.3179 785.219 68.5698 785.555 68.7482C785.681 68.8217 785.828 68.8637 785.985 68.9266C785.985 68.2759 785.985 67.6566 785.985 67.0373C785.985 66.9323 785.912 66.9323 785.838 66.9218C785.397 66.8274 784.999 66.6489 784.652 66.355C783.749 65.5888 783.77 64.3293 784.694 63.584C785.02 63.3216 785.387 63.1537 785.796 63.0697C785.87 63.0592 785.933 63.0487 785.996 63.0277ZM786.993 68.9056C787.297 68.8322 787.549 68.7062 787.759 68.4858C788.011 68.2129 788.053 67.898 787.864 67.6146C787.665 67.2997 787.35 67.1528 786.993 67.0583C786.993 67.6776 786.993 68.2759 786.993 68.9056ZM785.985 65.9247C785.985 65.3054 785.985 64.6966 785.985 64.0774C785.66 64.1613 785.387 64.2978 785.177 64.5497C784.967 64.8016 784.946 65.106 785.114 65.3789C785.324 65.6728 785.639 65.8302 785.985 65.9247Z" fill="black"/>
<text fill="#DADADA" xml:space="preserve" style="white-space: pre" font-family="Roboto" font-size="7" font-weight="600" letter-spacing="0em"><tspan x="40.9102" y="154.393">Desliza para leer</tspan></text>
<path d="M21.8829 150.935L25.5129 137.249C25.7277 136.439 26.563 135.958 27.3776 136.174C28.1923 136.39 28.6794 137.222 28.4646 138.032L26.2606 146.341" stroke="#DADADA" stroke-miterlimit="10" stroke-linecap="round" stroke-linejoin="round"/>
<path d="M25.7499 148.267L26.9424 143.771C27.1619 142.943 28.001 142.448 28.8157 142.664C29.6304 142.88 30.1136 143.726 29.8941 144.554L28.5692 149.549" stroke="#DADADA" stroke-miterlimit="10" stroke-linecap="round" stroke-linejoin="round"/>
<path d="M28.5892 149.473L29.4885 146.083C29.7014 145.28 30.5351 144.805 31.3498 145.021C32.1645 145.237 32.6531 146.063 32.4402 146.866L31.1555 151.709" stroke="#DADADA" stroke-miterlimit="10" stroke-linecap="round" stroke-linejoin="round"/>
<path d="M31.1555 151.71L31.9384 148.758C32.1547 147.943 32.9911 147.457 33.8057 147.673C34.6204 147.89 35.1064 148.726 34.8901 149.541L33.7158 153.968C32.6348 158.044 28.4547 160.471 24.3793 159.39C20.3038 158.309 17.8763 154.129 18.9573 150.054L19.8707 146.61C20.303 144.98 21.9759 144.009 23.6053 144.441" stroke="#DADADA" stroke-miterlimit="10" stroke-linecap="round" stroke-linejoin="round"/>
<path d="M11.7525 139.753C11.6158 139.889 11.6158 140.111 11.7525 140.247L13.9799 142.475C14.1166 142.612 14.3382 142.612 14.4749 142.475C14.6116 142.338 14.6116 142.117 14.4749 141.98L12.495 140L14.4749 138.02C14.6116 137.883 14.6116 137.662 14.4749 137.525C14.3382 137.388 14.1166 137.388 13.9799 137.525L11.7525 139.753ZM22.2475 140.247C22.3842 140.111 22.3842 139.889 22.2475 139.753L20.0201 137.525C19.8834 137.388 19.6618 137.388 19.5251 137.525C19.3884 137.662 19.3884 137.883 19.5251 138.02L21.505 140L19.5251 141.98C19.3884 142.117 19.3884 142.338 19.5251 142.475C19.6618 142.612 19.8834 142.612 20.0201 142.475L22.2475 140.247ZM12 140.35H22V139.65H12V140.35Z" fill="#DADADA"/>
</svg>
