<svg width="391" height="407" viewBox="0 0 391 407" fill="none" xmlns="http://www.w3.org/2000/svg">
<g clip-path="url(#clip0_100_1030)">
<path d="M78 313.779L86.7795 314.736C86.7795 314.736 98.4856 316.298 102.778 313.564C107.07 310.831 110.699 312.393 113.372 313.564C116.045 314.736 116.306 314.443 118.124 313.611C119.947 312.783 122.179 313.67 123.014 315.177C123.849 316.685 124.629 316.294 125.8 316.684C126.97 317.075 125.8 318.246 125.409 319.418C125.019 320.589 125.8 320.199 126.97 320.199C128.141 320.199 126.19 320.589 126.19 321.761C126.19 322.932 127.751 323.323 128.531 322.932C129.311 322.542 129.311 323.323 129.311 323.713C129.311 324.104 128.921 326.056 129.702 326.056C130.482 326.056 132.433 325.666 132.433 326.837C132.433 328.009 133.604 329.571 134.774 328.79C135.945 328.009 135.945 326.837 136.725 326.837C137.506 326.837 136.725 324.494 137.506 323.713C138.286 322.932 136.725 320.589 134.774 319.418C132.823 318.246 128.921 311.218 132.043 309.265C135.164 307.313 133.994 304.579 135.555 304.97C137.115 305.36 139.457 305.36 140.237 304.189C141.017 303.017 143.749 302.236 146.09 301.846C148.431 301.455 147.651 300.674 149.212 300.284C150.772 299.893 153.504 300.674 153.894 299.503C154.284 298.331 157.406 298.331 157.016 296.379C156.626 294.426 155.845 294.817 155.455 293.645C155.065 292.474 153.114 294.817 153.504 292.864C153.894 290.912 155.065 290.521 153.894 289.74C152.724 288.959 151.553 288.178 152.724 287.007C153.894 285.835 155.065 285.445 155.455 285.445C155.845 285.445 156.235 286.226 155.845 286.226C155.455 286.226 154.284 286.226 154.284 286.616C154.284 287.007 153.894 288.959 154.675 288.569C155.455 288.178 156.626 288.569 156.235 288.959C155.845 289.35 156.235 290.131 156.626 290.131C157.016 290.131 157.016 290.521 155.845 290.912C154.675 291.302 155.455 292.474 155.845 292.083C156.235 291.693 155.845 291.693 156.626 291.302C157.406 290.912 157.796 289.35 158.967 288.959C160.137 288.569 160.137 287.788 159.357 287.397C158.577 287.007 157.016 285.835 157.796 285.835C158.577 285.835 159.275 286.195 159.899 286.601C160.528 287.007 160.918 287.788 161.308 287.007C161.698 286.226 161.308 285.445 162.479 285.054C163.649 284.664 165.081 283.879 164.558 283.102C164.039 282.321 162.869 283.102 163.259 282.321C163.649 281.54 164.129 282.364 164.671 281.56C165.214 280.755 166.541 280.06 167.633 280.017C168.726 279.974 174.185 279.974 174.965 279.584C175.745 279.193 176.136 278.412 176.526 278.412C176.916 278.412 176.916 278.412 176.916 278.412C176.916 278.412 176.916 279.584 178.477 279.193C180.038 278.803 181.758 279.193 181.676 278.412C181.594 277.631 181.224 277.491 181.224 277.491C181.224 277.491 111 280.017 78 287.007L60 290.5L59 294L58 300.284L62 307L69 312L78 313.779Z" fill="#DADADA" stroke="black" stroke-width="0.330189" stroke-miterlimit="10"/>
<path d="M7 310C21 299.167 78.8 277.5 198 277.5C200.695 277.5 203.362 277.511 206 277.533M398 310C386.8 302.863 355.286 291.023 301 283.775" stroke="white"/>
<path d="M7 186.5C21 175.667 78.8 154 198 154C317.2 154 381 175.667 398 186.5" stroke="#4F5E78" stroke-dasharray="2 2"/>
<path d="M139.716 189.333C139.716 189.29 139.689 189.255 139.649 189.239C139.638 189.235 139.63 189.235 139.618 189.235C139.587 189.235 139.56 189.247 139.54 189.275L139.024 189.932L139.325 188.571C139.337 188.524 139.309 188.477 139.266 188.461C139.255 188.457 139.243 188.453 139.227 188.453C139.196 188.453 139.165 188.469 139.145 188.496L138.637 189.259L138.93 187.788C138.934 187.761 138.93 187.73 138.911 187.706C138.891 187.683 138.864 187.671 138.836 187.671H138.57C138.727 187.084 139.434 184.526 140.431 182.821C140.717 182.997 141.655 183.525 142.633 183.564C142.562 184.112 142.234 186.627 141.901 188.355L141.64 188.093C141.62 188.074 141.596 188.066 141.569 188.066C141.561 188.066 141.55 188.066 141.542 188.07C141.507 188.082 141.483 188.109 141.475 188.144L141.28 189.13V188.551C141.28 188.5 141.241 188.457 141.19 188.453C141.186 188.453 141.182 188.453 141.182 188.453C141.135 188.453 141.096 188.485 141.084 188.531L140.768 190.198L140.494 189.306C140.482 189.267 140.447 189.239 140.408 189.235C140.404 189.235 140.404 189.235 140.4 189.235C140.365 189.235 140.33 189.255 140.314 189.29L139.716 190.483V189.333V189.333Z" fill="#73D7F9"/>
<path d="M140.467 182.954C140.818 183.161 141.643 183.588 142.523 183.654C142.433 184.339 142.144 186.533 141.839 188.152L141.71 188.023C141.671 187.984 141.624 187.964 141.573 187.964C141.553 187.964 141.534 187.968 141.518 187.972C141.448 187.992 141.397 188.05 141.381 188.121L141.323 188.414C141.292 188.383 141.249 188.359 141.202 188.355C141.194 188.355 141.19 188.355 141.182 188.355C141.088 188.355 141.006 188.422 140.99 188.516L140.748 189.795L140.588 189.278C140.564 189.2 140.498 189.149 140.416 189.142C140.412 189.142 140.404 189.142 140.4 189.142C140.326 189.142 140.259 189.185 140.224 189.251L139.814 190.076V189.333C139.814 189.251 139.759 189.177 139.681 189.149C139.661 189.142 139.638 189.138 139.618 189.138C139.56 189.138 139.501 189.165 139.466 189.212L139.212 189.537L139.419 188.594C139.438 188.504 139.391 188.41 139.305 188.371C139.282 188.359 139.255 188.355 139.227 188.355C139.165 188.355 139.102 188.387 139.063 188.441L138.828 188.793L139.024 187.808C139.036 187.749 139.02 187.691 138.985 187.644C138.95 187.597 138.891 187.573 138.832 187.573H138.696C138.903 186.83 139.563 184.55 140.467 182.954ZM140.4 182.684C139.227 184.64 138.445 187.769 138.445 187.769H138.836L138.445 189.724L139.227 188.551L138.836 190.327L139.618 189.333V190.898L140.4 189.333L140.791 190.6L141.182 188.551V190.115L141.573 188.16L141.964 188.551C142.355 186.595 142.746 183.466 142.746 183.466C141.573 183.466 140.4 182.684 140.4 182.684Z" fill="black"/>
<path d="M139.716 189.333C139.716 189.29 139.689 189.255 139.649 189.239C139.638 189.235 139.63 189.235 139.618 189.235C139.587 189.235 139.56 189.247 139.54 189.275L139.024 189.932L139.325 188.571C139.337 188.524 139.309 188.477 139.266 188.461C139.255 188.457 139.243 188.453 139.227 188.453C139.196 188.453 139.165 188.469 139.145 188.496L138.637 189.259L138.93 187.788C138.934 187.761 138.93 187.73 138.911 187.706C138.891 187.683 138.864 187.671 138.836 187.671H138.57C138.727 187.084 139.434 184.526 140.431 182.821C140.717 182.997 141.655 183.525 142.633 183.564C142.562 184.112 142.234 186.627 141.901 188.355L141.64 188.093C141.62 188.074 141.596 188.066 141.569 188.066C141.561 188.066 141.55 188.066 141.542 188.07C141.507 188.082 141.483 188.109 141.475 188.144L141.28 189.13V188.551C141.28 188.5 141.241 188.457 141.19 188.453C141.186 188.453 141.182 188.453 141.182 188.453C141.135 188.453 141.096 188.485 141.084 188.531L140.768 190.198L140.494 189.306C140.482 189.267 140.447 189.239 140.408 189.235C140.404 189.235 140.404 189.235 140.4 189.235C140.365 189.235 140.33 189.255 140.314 189.29L139.716 190.483V189.333V189.333Z" fill="#BBECF9"/>
<path d="M140.467 182.954C140.818 183.161 141.643 183.588 142.523 183.654C142.433 184.339 142.144 186.533 141.839 188.152L141.71 188.023C141.671 187.984 141.624 187.964 141.573 187.964C141.553 187.964 141.534 187.968 141.518 187.972C141.448 187.992 141.397 188.05 141.381 188.121L141.323 188.414C141.292 188.383 141.249 188.359 141.202 188.355C141.194 188.355 141.19 188.355 141.182 188.355C141.088 188.355 141.006 188.422 140.99 188.516L140.748 189.795L140.588 189.278C140.564 189.2 140.498 189.149 140.416 189.142C140.412 189.142 140.404 189.142 140.4 189.142C140.326 189.142 140.259 189.185 140.224 189.251L139.814 190.076V189.333C139.814 189.251 139.759 189.177 139.681 189.149C139.661 189.142 139.638 189.138 139.618 189.138C139.56 189.138 139.501 189.165 139.466 189.212L139.212 189.537L139.419 188.594C139.438 188.504 139.391 188.41 139.305 188.371C139.282 188.359 139.255 188.355 139.227 188.355C139.165 188.355 139.102 188.387 139.063 188.441L138.828 188.793L139.024 187.808C139.036 187.749 139.02 187.691 138.985 187.644C138.95 187.597 138.891 187.573 138.832 187.573H138.696C138.903 186.83 139.563 184.55 140.467 182.954ZM140.4 182.684C139.227 184.64 138.445 187.769 138.445 187.769H138.836L138.445 189.724L139.227 188.551L138.836 190.327L139.618 189.333V190.898L140.4 189.333L140.791 190.6L141.182 188.551V190.115L141.573 188.16L141.964 188.551C142.355 186.595 142.746 183.466 142.746 183.466C141.573 183.466 140.4 182.684 140.4 182.684Z" fill="black"/>
<path d="M132.792 258.585C132.792 258.585 135.953 216.329 140.057 192.547" stroke="#BBECF9" stroke-width="0.495283" stroke-miterlimit="10" stroke-linejoin="round"/>
<path d="M194.276 93.2615L189.98 95.1469L190.922 97.296L195.219 95.4106L194.276 93.2615Z" fill="#B2B2B2" stroke="black" stroke-width="0.330189" stroke-miterlimit="10"/>
<path d="M194.276 93.3401L189.98 95.2255L190.922 97.3746L195.219 95.4892L194.276 93.3401Z" stroke="black" stroke-width="0.990566" stroke-miterlimit="10" stroke-linecap="round" stroke-linejoin="round"/>
<path d="M157.226 133.113C157.226 133.113 160.823 125.038 163.83 120.566" stroke="#BBECF9" stroke-width="0.495283" stroke-miterlimit="10" stroke-linejoin="round"/>
<path d="M135.434 269.151H130.811V310.755H135.434V269.151Z" fill="#B2B2B2" stroke="black" stroke-width="0.330189" stroke-miterlimit="10"/>
<path d="M135.434 266.509H130.811V269.151H135.434V266.509Z" fill="#DADADA" stroke="black" stroke-width="0.330189" stroke-miterlimit="10"/>
<path d="M135.434 265.189H130.811V266.509H135.434V265.189Z" fill="#DADADA" stroke="black" stroke-width="0.330189" stroke-miterlimit="10"/>
<path d="M131.472 269.811V266.679C131.472 266.679 131.192 266.298 130.812 266.679V269.408C130.806 269.411 130.845 269.604 131.472 269.811Z" fill="#DADADA" stroke="black" stroke-width="0.330189" stroke-miterlimit="10"/>
<path d="M134.774 269.811V266.686C134.774 266.686 135.129 266.289 135.434 266.686V269.5C135.439 269.5 135.271 269.8 134.774 269.811Z" fill="#DADADA" stroke="black" stroke-width="0.330189" stroke-miterlimit="10"/>
<path d="M130.811 265.189L131.628 263.208H134.617L135.434 265.189H130.811Z" fill="#DADADA" stroke="black" stroke-width="0.330189" stroke-miterlimit="10"/>
<path d="M131.472 263.208C131.472 261.887 133.123 261.887 133.123 261.887C133.123 261.887 134.774 261.887 134.774 263.208H131.472Z" fill="#DADADA" stroke="black" stroke-width="0.330189" stroke-miterlimit="10"/>
<path d="M132.788 310.755L132.132 311.415H133.453L132.788 310.755Z" fill="#4D4D4D" stroke="black" stroke-width="0.330189" stroke-miterlimit="10" stroke-linecap="round" stroke-linejoin="round"/>
<path d="M131.139 310.755L130.811 311.415H131.472L131.139 310.755Z" fill="#4D4D4D" stroke="black" stroke-width="0.330189" stroke-miterlimit="10" stroke-linecap="round" stroke-linejoin="round"/>
<path d="M135.103 310.755L134.774 311.415H135.434L135.103 310.755Z" fill="#4D4D4D" stroke="black" stroke-width="0.330189" stroke-miterlimit="10" stroke-linecap="round" stroke-linejoin="round"/>
<path d="M130.811 274.434H135.434" stroke="black" stroke-width="0.330189" stroke-miterlimit="10" stroke-linecap="round" stroke-linejoin="round"/>
<path d="M130.811 280.377H135.434" stroke="black" stroke-width="0.330189" stroke-miterlimit="10" stroke-linecap="round" stroke-linejoin="round"/>
<path d="M130.811 309.434H135.434" stroke="black" stroke-width="0.330189" stroke-miterlimit="10" stroke-linecap="round" stroke-linejoin="round"/>
<path d="M130.151 310.755H131.472L130.994 308.946C130.932 308.708 130.521 308.72 130.475 308.959L130.151 310.755Z" fill="#B2B2B2" stroke="black" stroke-width="0.330189" stroke-miterlimit="10"/>
<path d="M136.094 310.755H134.774L135.252 308.946C135.313 308.708 135.724 308.72 135.771 308.959L136.094 310.755Z" fill="#B2B2B2" stroke="black" stroke-width="0.330189" stroke-miterlimit="10"/>
<path d="M135.444 269.171L135.585 268.999V266.032C135.585 266.032 135.568 265.833 135.32 265.833V265.613L134.576 263.202C134.576 263.202 134.576 261.891 133.213 261.887C133.213 261.887 131.85 261.887 131.85 263.202L131.107 265.613V265.786C131.107 265.786 130.859 265.833 130.806 266.017V268.901L130.956 269.105V308.573C130.956 308.573 130.536 308.213 130.452 308.609L130.151 310.319H131.288L130.766 311.415H131.979L131.368 310.198H133.196L132.594 311.415H133.806L133.244 310.198H134.988L134.386 311.415H135.599L135.05 310.319H136.094L135.815 308.671C135.815 308.671 135.815 308.432 135.444 308.499V269.171Z" stroke="black" stroke-width="0.990566" stroke-miterlimit="10" stroke-linecap="round" stroke-linejoin="round"/>
<path d="M135.444 269.171L135.585 268.999V266.032C135.585 266.032 135.568 265.833 135.32 265.833V265.613L134.576 263.202C134.576 263.202 134.576 261.891 133.213 261.887C133.213 261.887 131.85 261.887 131.85 263.202L131.107 265.613V265.786C131.107 265.786 130.859 265.833 130.806 266.017V268.901L130.956 269.105V308.573C130.956 308.573 130.536 308.213 130.452 308.609L130.151 310.319H131.288L130.766 311.415H131.979L131.368 310.198H133.196L132.594 311.415H133.806L133.244 310.198H134.988L134.386 311.415H135.599L135.05 310.319H136.094L135.815 308.671C135.815 308.671 135.815 308.432 135.444 308.499V269.171Z" stroke="black" stroke-width="0.990566" stroke-miterlimit="10" stroke-linecap="round" stroke-linejoin="round"/>
<path d="M152.224 140.937L140.434 180.381L144.232 181.518L156.023 142.073L152.224 140.937Z" fill="#B2B2B2" stroke="black" stroke-width="0.330189" stroke-miterlimit="10"/>
<path d="M153.07 138.107L152.223 140.94L155.864 142.029L156.711 139.196L153.07 138.107Z" fill="#DADADA" stroke="black" stroke-width="0.330189" stroke-miterlimit="10"/>
<path d="M156.875 138.807L153.309 137.74L153.184 138.16L156.75 139.227L156.875 138.807Z" fill="#DADADA" stroke="black" stroke-width="0.330189" stroke-miterlimit="10"/>
<path d="M152.278 141.038L153.264 137.971C153.264 137.971 153.191 137.543 152.804 137.842L151.944 140.515C151.944 140.515 151.908 140.712 152.278 141.038Z" fill="#DADADA" stroke="black" stroke-width="0.330189" stroke-miterlimit="10"/>
<path d="M155.245 142.335L156.115 139.165C156.115 139.165 156.469 138.843 156.566 139.31L155.783 142.163C155.783 142.166 155.585 142.438 155.245 142.335Z" fill="#DADADA" stroke="black" stroke-width="0.330189" stroke-miterlimit="10"/>
<path d="M153.264 137.733L154.465 135.094L156.566 135.951L156.513 139.057L153.264 137.733Z" fill="#DADADA" stroke="black" stroke-width="0.330189" stroke-miterlimit="10"/>
<path d="M154.585 135.2C154.897 134.19 155.856 134.469 155.856 134.469C155.856 134.469 156.816 134.745 156.504 135.755L154.585 135.2Z" fill="#DADADA" stroke="black" stroke-width="0.330189" stroke-miterlimit="10"/>
<path d="M141.927 181.321L141.377 181.827L142.038 181.981L141.927 181.321Z" fill="#4D4D4D" stroke="black" stroke-width="0.330189" stroke-miterlimit="10" stroke-linecap="round" stroke-linejoin="round"/>
<path d="M140.609 180.66L140.057 181.675L140.717 181.981L140.609 180.66Z" fill="#4D4D4D" stroke="black" stroke-width="0.330189" stroke-miterlimit="10" stroke-linecap="round" stroke-linejoin="round"/>
<path d="M143.25 181.321L142.698 182.333L143.358 182.641L143.25 181.321Z" fill="#4D4D4D" stroke="black" stroke-width="0.330189" stroke-miterlimit="10" stroke-linecap="round" stroke-linejoin="round"/>
<path d="M150.623 145.66L153.925 146.321" stroke="black" stroke-width="0.330189" stroke-miterlimit="10" stroke-linecap="round" stroke-linejoin="round"/>
<path d="M148.641 151.604L152.604 152.925" stroke="black" stroke-width="0.330189" stroke-miterlimit="10" stroke-linecap="round" stroke-linejoin="round"/>
<path d="M140.717 179.34L144.019 180.66" stroke="black" stroke-width="0.330189" stroke-miterlimit="10" stroke-linecap="round" stroke-linejoin="round"/>
<path d="M140.057 180.36L140.639 180.66L140.717 178.904C140.726 178.672 140.544 178.591 140.485 178.798L140.057 180.36Z" fill="#B2B2B2" stroke="black" stroke-width="0.330189" stroke-miterlimit="10"/>
<path d="M144.415 181.981L143.359 181.676L144.265 180.11C144.385 179.904 144.711 180.011 144.677 180.242L144.415 181.981Z" fill="#B2B2B2" stroke="black" stroke-width="0.330189" stroke-miterlimit="10"/>
<path d="M155.58 142.037L155.745 141.908L156.555 139.06C156.555 139.06 156.593 138.864 156.395 138.801L156.454 138.589L156.51 136.087C156.51 136.087 156.869 134.827 155.767 134.478C155.767 134.478 154.665 134.129 154.307 135.392L153.048 137.518L152.999 137.683C152.999 137.683 152.786 137.663 152.693 137.828L151.905 140.598L151.972 140.833L141.185 178.731C141.185 178.731 140.946 178.279 140.766 178.636L140.057 180.202L140.976 180.492L140.255 181.41L141.237 181.72L141.076 180.394L142.556 180.857L141.737 181.873L142.72 182.183L142.597 180.872L144.005 181.316L143.187 182.332L144.169 182.642L144.023 181.449L144.868 181.716L145.092 180.064C145.092 180.064 145.155 179.837 144.838 179.805L155.58 142.037Z" stroke="black" stroke-width="0.990566" stroke-miterlimit="10" stroke-linecap="round" stroke-linejoin="round"/>
<path d="M155.58 142.037L155.745 141.908L156.555 139.06C156.555 139.06 156.593 138.864 156.395 138.801L156.454 138.589L156.51 136.087C156.51 136.087 156.869 134.827 155.767 134.478C155.767 134.478 154.665 134.129 154.307 135.392L153.048 137.518L152.999 137.683C152.999 137.683 152.786 137.663 152.693 137.828L151.905 140.598L151.972 140.833L141.185 178.731C141.185 178.731 140.946 178.279 140.766 178.636L140.057 180.202L140.976 180.492L140.255 181.41L141.237 181.72L141.076 180.394L142.556 180.857L141.737 181.873L142.72 182.183L142.597 180.872L144.005 181.316L143.187 182.332L144.169 182.642L144.023 181.449L144.868 181.716L145.092 180.064C145.092 180.064 145.155 179.837 144.838 179.805L155.58 142.037Z" stroke="black" stroke-width="0.990566" stroke-miterlimit="10" stroke-linecap="round" stroke-linejoin="round"/>
<path d="M219.302 67.0756L221.283 70.3774" stroke="black" stroke-width="0.330189" stroke-miterlimit="10"/>
<path d="M221.725 65.2798L219.153 66.7355L221.024 70.0445L223.596 68.5888L221.725 65.2798Z" fill="#DADADA" stroke="black" stroke-width="0.330189" stroke-miterlimit="10"/>
<path d="M224.007 68.4236L222.174 65.1827L221.793 65.3984L223.626 68.6393L224.007 68.4236Z" fill="#DADADA" stroke="black" stroke-width="0.330189" stroke-miterlimit="10"/>
<path d="M213.358 71.6066L214.53 73.6793L221.283 70.5826L219.417 67.0756L213.358 71.6066Z" fill="#DADADA" stroke="black" stroke-width="0.330189" stroke-miterlimit="10"/>
<path d="M219.304 67.0755L221.883 65.4875C221.883 65.4875 222.111 65.1287 221.68 65.0944L219.43 66.48C219.433 66.48 219.283 66.5983 219.304 67.0755Z" fill="#DADADA" stroke="black" stroke-width="0.330189" stroke-miterlimit="10"/>
<path d="M220.623 70.084L223.594 68.3962C223.594 68.3962 224.109 68.4288 223.853 68.8558L221.178 70.3727C221.178 70.3768 220.825 70.4256 220.623 70.084Z" fill="#DADADA" stroke="black" stroke-width="0.330189" stroke-miterlimit="10"/>
<path d="M221.943 65.0655L224.604 64.434L225.906 66.5901L223.959 68.3962L221.943 65.0655Z" fill="#DADADA" stroke="black" stroke-width="0.330189" stroke-miterlimit="10"/>
<path d="M213.352 71.0377L212.038 73.4591L214.679 73.6792L213.352 71.0377Z" fill="#4D4D4D" stroke="black" stroke-width="0.330189" stroke-miterlimit="10" stroke-linecap="round" stroke-linejoin="round"/>
<path d="M225.245 64.6744C226.043 63.9353 226.458 65.1358 226.458 65.1358C226.458 65.1358 226.873 66.3363 226.073 67.0755L225.245 64.6744Z" fill="#DADADA" stroke="black" stroke-width="0.330189" stroke-miterlimit="10"/>
<path d="M221.156 70.3538L221.366 70.3774L223.889 68.9157C223.889 68.9157 224.049 68.802 223.942 68.614L224.13 68.5042L225.861 66.7447C225.861 66.7447 226.977 66.0982 226.4 65.048C226.4 65.048 225.823 63.9978 224.703 64.6443L222.337 65.2596L222.192 65.3458C222.192 65.3458 222.046 65.1773 221.867 65.2282L219.413 66.6507L219.302 66.8662" stroke="black" stroke-width="0.990566" stroke-miterlimit="10" stroke-linecap="round" stroke-linejoin="round"/>
<path d="M221.101 70.6395L221.313 70.6641L223.862 69.1319C223.862 69.1319 224.024 69.0128 223.916 68.8157L224.105 68.7006L225.854 66.8562C225.854 66.8562 226.982 66.1785 226.399 65.0776C226.399 65.0776 225.815 63.9767 224.684 64.6545L222.294 65.2994L222.147 65.3898C222.147 65.3898 222 65.2131 221.819 65.2665L219.34 66.7577L219.228 66.9836L213.358 71.2146L214.517 73.6792L221.101 70.6395Z" stroke="black" stroke-width="0.990566" stroke-miterlimit="10" stroke-linecap="round" stroke-linejoin="round"/>
<path d="M212.038 73.6792L213.495 71.0377L214.679 73.6792H212.038Z" stroke="black" stroke-width="0.990566" stroke-miterlimit="10" stroke-linecap="round" stroke-linejoin="round"/>
<path d="M212.038 73.6793L209.396 74.31L210.181 75.6605L212.038 73.6793Z" fill="#4D4D4D" stroke="black" stroke-width="0.330189" stroke-miterlimit="10" stroke-linecap="round" stroke-linejoin="round"/>
<path d="M209.396 74.2737L212.038 73.6793L210.377 75.6605L209.396 74.2737Z" stroke="black" stroke-width="0.990566" stroke-miterlimit="10" stroke-linecap="round" stroke-linejoin="round"/>
<path d="M204.19 78.8068C204.213 78.7716 204.209 78.7208 204.178 78.6895C204.159 78.6699 204.131 78.6582 204.108 78.6582C204.092 78.6582 204.077 78.6621 204.065 78.6699L203.076 79.1549L203.772 78.4314C203.803 78.4001 203.807 78.3492 203.783 78.314C203.764 78.2827 203.733 78.2671 203.701 78.2671C203.693 78.2671 203.682 78.2671 203.674 78.271L203.095 78.4431L204.1 77.6843C204.139 77.6569 204.151 77.6022 204.127 77.5592C204.112 77.5279 204.077 77.5083 204.041 77.5083C204.03 77.5083 204.018 77.5083 204.006 77.5161L203.385 77.7469L204.44 76.9255C204.464 76.9099 204.475 76.8825 204.479 76.8551C204.479 76.8278 204.471 76.8004 204.448 76.7808L204.331 76.6674C204.804 76.335 206.935 74.8565 208.635 74.1173C208.67 74.4302 208.803 75.2085 209.249 75.7053C208.846 76.0534 206.958 77.6726 205.586 78.7521L205.621 78.5174C205.625 78.4783 205.609 78.4392 205.574 78.4196C205.558 78.4118 205.543 78.4079 205.523 78.4079C205.504 78.4079 205.48 78.4157 205.464 78.4274L204.984 78.8029L205.12 78.6582C205.156 78.623 205.156 78.5643 205.124 78.5252C205.105 78.5057 205.077 78.4939 205.05 78.4939C205.031 78.4939 205.007 78.5018 204.991 78.5135L203.795 79.4561L204.19 78.8068Z" fill="#BBECF9"/>
<path d="M179.679 102.967C179.679 102.967 179.722 102.916 179.808 102.823" stroke="#BBECF9" stroke-width="0.495283" stroke-linejoin="round" stroke-dasharray="1.32 1.32"/>
<path d="M181.153 101.372C185.059 97.1794 195.865 85.8448 202.93 80.9401" stroke="#BBECF9" stroke-width="0.495283" stroke-linejoin="round" stroke-dasharray="1.32 1.32"/>
<path d="M203.755 80.388C203.809 80.353 203.864 80.318 203.918 80.283" stroke="#BBECF9" stroke-width="0.495283" stroke-linejoin="round" stroke-dasharray="1.32 1.32"/>
<path d="M183 100.811C183 100.811 238.819 66.6465 251 164" stroke="#BBECF9" stroke-width="0.495283" stroke-miterlimit="10" stroke-linejoin="round"/>
<path d="M239.113 110.508L240.926 96.7925L241.175 107.536L241.517 105.29L241.758 108.472L242.694 107.318L241.669 111.954L243.872 109.342L242.475 113.853L244.499 112.021L242.508 116.224L243.957 115.612L242.579 117.457L245.057 115.569C245.057 115.569 244.139 118.939 240.811 119.906L239.113 110.508Z" fill="#BBECF9"/>
<path d="M251.18 154.904C247.3 154.81 243.912 152.433 243.912 152.433H247.336L245.035 149.73L248.612 151.492L245.164 147.223L247.253 147.822L243.468 142.679L247.002 145.029L243.075 137.587L247.253 143.071C247.253 143.071 245.431 126.228 248.965 113.302C248.965 113.302 253.548 127.133 253.414 142.15L255.64 137.979L253.677 144.638L255.64 141.532L254.462 146.988L256.838 143.071L254.855 148.946L256.818 147.771L254.855 151.297L256.838 150.298L254.855 152.863L257.604 151.688C257.6 151.688 254.576 154.986 251.18 154.904Z" fill="#BBECF9"/>
<path d="M229.868 64.4339C229.868 64.4339 244.149 57.0475 253.642 55.849" stroke="#BBECF9" stroke-width="0.330189" stroke-miterlimit="10" stroke-linejoin="round" stroke-dasharray="0.66 0.66"/>
<path d="M236.63 111.569L229.868 100.094L233.567 109.707L232.418 107.845L233.352 110.754L232.035 110.08L234.716 113.804L231.652 112.314L234.643 115.789L232.035 114.921L235.481 117.901H233.869L235.864 119.018L232.801 118.273C232.801 118.273 234.915 120.918 238.453 120.527L236.63 111.569Z" fill="#BBECF9"/>
<path d="M199.295 110.593L201.359 111.692L214.019 87.9707L212.13 86.8208L199.295 110.593Z" fill="#B2B2B2" stroke="black" stroke-width="0.330189" stroke-miterlimit="10"/>
<path d="M201.46 111.662L199.27 110.492L198.925 111.137L201.115 112.307L201.46 111.662Z" fill="#4D4D4D" stroke="black" stroke-width="0.330189" stroke-miterlimit="10"/>
<path d="M199.135 111.25L198.564 111.806L200.757 112.975L200.867 112.173L199.135 111.25Z" fill="#4D4D4D" stroke="black" stroke-width="0.330189" stroke-miterlimit="10"/>
<path d="M199.249 112.166L199.183 112.29L199.955 112.702L200.021 112.578L199.249 112.166Z" fill="#4D4D4D" stroke="black" stroke-width="0.330189" stroke-miterlimit="10"/>
<path d="M200.867 112.173L200.022 112.584L200.018 111.723L199.248 112.169L199.135 111.25L200.867 112.173Z" fill="#4D4D4D" stroke="black" stroke-width="0.330189" stroke-miterlimit="10" stroke-linecap="round" stroke-linejoin="round"/>
<path d="M214.163 87.7361L201.394 111.63L201.508 111.688L201.109 112.439L200.898 112.326L200.804 113.006L200.069 112.615L200.002 112.74L199.232 112.326L199.299 112.201L198.615 111.837L199.095 111.364L198.83 111.223L199.228 110.472L199.33 110.527L212.275 86.5823L214.163 87.7361Z" stroke="black" stroke-width="0.990566" stroke-miterlimit="10" stroke-linecap="round" stroke-linejoin="round"/>
<path d="M238.204 119.929L240.499 119.472L235.264 93.0945L233.074 93.4035L238.204 119.929Z" fill="#B2B2B2" stroke="black" stroke-width="0.330189" stroke-miterlimit="10"/>
<path d="M240.544 119.376L238.109 119.859L238.251 120.577L240.686 120.093L240.544 119.376Z" fill="#4D4D4D" stroke="black" stroke-width="0.330189" stroke-miterlimit="10"/>
<path d="M238.497 120.539L238.407 121.329L240.843 120.844L240.421 120.16L238.497 120.539Z" fill="#4D4D4D" stroke="black" stroke-width="0.330189" stroke-miterlimit="10"/>
<path d="M240.018 120.997L239.16 121.168L239.187 121.305L240.046 121.135L240.018 120.997Z" fill="#4D4D4D" stroke="black" stroke-width="0.330189" stroke-miterlimit="10"/>
<path d="M240.42 120.16L240.026 121.009L239.478 120.344L239.169 121.181L238.497 120.539L240.42 120.16Z" fill="#4D4D4D" stroke="black" stroke-width="0.330189" stroke-miterlimit="10" stroke-linecap="round" stroke-linejoin="round"/>
<path d="M235.225 92.8207L240.483 119.401L240.612 119.374L240.776 120.207L240.542 120.254L240.901 120.84L240.084 121.001L240.112 121.142L239.251 121.31L239.224 121.173L238.466 121.325L238.54 120.653L238.243 120.711L238.079 119.878L238.188 119.855L233.035 93.1297L235.225 92.8207Z" stroke="black" stroke-width="0.990566" stroke-miterlimit="10" stroke-linecap="round" stroke-linejoin="round"/>
<path d="M249.585 155.329L251.919 155.196L250.386 128.35H248.177L249.585 155.329Z" fill="#B2B2B2" stroke="black" stroke-width="0.330189" stroke-miterlimit="10"/>
<path d="M251.988 155.129L249.51 155.27L249.551 156.001L252.03 155.859L251.988 155.129Z" fill="#4D4D4D" stroke="black" stroke-width="0.330189" stroke-miterlimit="10"/>
<path d="M249.788 155.979L249.592 156.745L252.071 156.604L251.747 155.865L249.788 155.979Z" fill="#4D4D4D" stroke="black" stroke-width="0.330189" stroke-miterlimit="10"/>
<path d="M251.244 156.664L250.37 156.714L250.378 156.854L251.252 156.804L251.244 156.664Z" fill="#4D4D4D" stroke="black" stroke-width="0.330189" stroke-miterlimit="10"/>
<path d="M251.747 155.865L251.239 156.651L250.789 155.92L250.367 156.702L249.788 155.979L251.747 155.865Z" fill="#4D4D4D" stroke="black" stroke-width="0.330189" stroke-miterlimit="10" stroke-linecap="round" stroke-linejoin="round"/>
<path d="M250.386 128.072L251.915 155.122L252.044 155.114L252.091 155.963L251.852 155.979L252.13 156.608L251.297 156.655L251.305 156.796L250.429 156.847L250.421 156.702L249.647 156.749L249.815 156.092L249.514 156.112L249.464 155.263L249.581 155.255L248.177 128.072H250.386Z" stroke="black" stroke-width="0.990566" stroke-miterlimit="10" stroke-linecap="round" stroke-linejoin="round"/>
<path d="M255.623 212.504H249.679V213.165H255.623V212.504Z" stroke="black" stroke-width="0.990566" stroke-miterlimit="10" stroke-linecap="round" stroke-linejoin="round"/>
<path d="M251.199 197.542L253.537 197.456L252.556 170.586L250.343 170.539L251.199 197.542Z" fill="#B2B2B2" stroke="black" stroke-width="0.330189" stroke-miterlimit="10"/>
<path d="M253.604 197.371L251.123 197.462L251.15 198.193L253.63 198.102L253.604 197.371Z" fill="#4D4D4D" stroke="black" stroke-width="0.330189" stroke-miterlimit="10"/>
<path d="M251.391 198.195L251.18 198.962L253.663 198.868L253.354 198.121L251.391 198.195Z" fill="#4D4D4D" stroke="black" stroke-width="0.330189" stroke-miterlimit="10"/>
<path d="M252.825 198.887L251.95 198.919L251.955 199.059L252.83 199.027L252.825 198.887Z" fill="#4D4D4D" stroke="black" stroke-width="0.330189" stroke-miterlimit="10"/>
<path d="M253.354 198.121L252.83 198.899L252.392 198.156L251.954 198.931L251.391 198.195L253.354 198.121Z" fill="#4D4D4D" stroke="black" stroke-width="0.330189" stroke-miterlimit="10" stroke-linecap="round" stroke-linejoin="round"/>
<path d="M252.56 170.309L253.534 197.386L253.663 197.382L253.694 198.227L253.455 198.238L253.717 198.872L252.885 198.903L252.888 199.044L252.017 199.075L252.009 198.935L251.235 198.962L251.415 198.313L251.113 198.321L251.082 197.476L251.196 197.472L250.351 170.262L252.56 170.309Z" stroke="black" stroke-width="0.990566" stroke-miterlimit="10" stroke-linecap="round" stroke-linejoin="round"/>
<path d="M251.61 237.292L253.952 237.3L254.042 210.411L251.833 210.278L251.61 237.292Z" fill="#B2B2B2" stroke="black" stroke-width="0.330189" stroke-miterlimit="10"/>
<path d="M254.025 237.227L251.542 237.219L251.54 237.95L254.022 237.958L254.025 237.227Z" fill="#4D4D4D" stroke="black" stroke-width="0.330189" stroke-miterlimit="10"/>
<path d="M251.778 237.949L251.536 238.708L254.018 238.716L253.741 237.957L251.778 237.949Z" fill="#4D4D4D" stroke="black" stroke-width="0.330189" stroke-miterlimit="10"/>
<path d="M252.311 238.709L252.31 238.849L253.186 238.852L253.187 238.712L252.311 238.709Z" fill="#4D4D4D" stroke="black" stroke-width="0.330189" stroke-miterlimit="10"/>
<path d="M253.741 237.957L253.186 238.712L252.779 237.953L252.31 238.708L251.778 237.949L253.741 237.957Z" fill="#4D4D4D" stroke="black" stroke-width="0.330189" stroke-miterlimit="10" stroke-linecap="round" stroke-linejoin="round"/>
<path d="M254.057 210.133L253.952 237.226H254.081L254.077 238.075H253.838L254.077 238.72L253.24 238.716V238.861L252.365 238.857V238.716L251.59 238.712L251.798 238.067H251.493L251.497 237.218H251.614L251.852 210L254.057 210.133Z" stroke="black" stroke-width="0.990566" stroke-miterlimit="10" stroke-linecap="round" stroke-linejoin="round"/>
<path d="M252.859 201.003L253.141 206.997" stroke="#BBECF9" stroke-width="0.495283" stroke-miterlimit="10" stroke-linejoin="round"/>
<path d="M251 168.245L249.679 162.302" stroke="black" stroke-width="0.330189" stroke-miterlimit="10" stroke-linecap="round" stroke-linejoin="round"/>
<path d="M251.66 168.245V159" stroke="black" stroke-width="0.330189" stroke-miterlimit="10" stroke-linecap="round" stroke-linejoin="round"/>
<path d="M252.981 168.245V162.302" stroke="black" stroke-width="0.330189" stroke-miterlimit="10" stroke-linecap="round" stroke-linejoin="round"/>
<path d="M265.528 45.5027L267.595 44.6227L268.83 46.6138L267.44 48.5849L265.528 45.5027Z" fill="#DADADA" stroke="black" stroke-width="0.330189" stroke-miterlimit="10"/>
<path d="M256.668 54.5283L255.623 56.5095L258.264 56.4615L256.668 54.5283Z" fill="#4D4D4D" stroke="black" stroke-width="0.330189" stroke-miterlimit="10" stroke-linecap="round" stroke-linejoin="round"/>
<path d="M255.623 57.1698L256.826 54.5283L258.264 56.8745L255.623 57.1698Z" stroke="black" stroke-width="0.990566" stroke-miterlimit="10" stroke-linecap="round" stroke-linejoin="round"/>
<path d="M255.623 57.1698L253.642 58.2384L254.378 59.8113L255.623 57.1698Z" fill="#4D4D4D" stroke="black" stroke-width="0.330189" stroke-miterlimit="10" stroke-linecap="round" stroke-linejoin="round"/>
<path d="M260.76 49.9057H262.226L260.567 40C260.567 40 258.234 42.4148 260.76 49.9057Z" fill="#DADADA" stroke="black" stroke-width="0.330189" stroke-miterlimit="10"/>
<path d="M253.642 58.2284L255.623 57.1698L254.516 59.8113L253.642 58.2284Z" stroke="black" stroke-width="0.990566" stroke-miterlimit="10" stroke-linecap="round" stroke-linejoin="round"/>
<path d="M260.762 49.9057H262.226L260.569 40C260.565 40 258.234 42.4148 260.762 49.9057Z" stroke="black" stroke-width="1.32075" stroke-miterlimit="10" stroke-linecap="round" stroke-linejoin="round"/>
<path d="M263.172 52.2762L262.887 50.7793L272.792 50.566C272.792 50.566 270.914 53.4215 263.172 52.2762Z" fill="#DADADA" stroke="black" stroke-width="0.330189" stroke-miterlimit="10"/>
<path d="M263.172 52.2776L262.887 50.7795L272.792 50.566C272.792 50.5621 270.91 53.4199 263.172 52.2776Z" stroke="black" stroke-width="1.32075" stroke-miterlimit="10" stroke-linecap="round" stroke-linejoin="round"/>
<path d="M260.703 49.9056L262.887 51.9415L258.153 56.5094L257 54.5L260.703 49.9056Z" fill="#DADADA" stroke="black" stroke-width="0.330189" stroke-miterlimit="10"/>
<path d="M260.924 50.566L262.887 52.6019L258.627 57.1698L256.943 54.7886L260.924 50.566Z" stroke="black" stroke-width="1.32075" stroke-miterlimit="10" stroke-linecap="round" stroke-linejoin="round"/>
<path d="M265.528 45.5058L267.592 44.6227L268.83 46.6157L267.44 48.5849L265.528 45.5058Z" stroke="black" stroke-width="1.32075" stroke-miterlimit="10" stroke-linecap="round" stroke-linejoin="round"/>
<circle cx="132.792" cy="323.321" r="1.32075" fill="white"/>
<circle cx="141.5" cy="318.5" r="5.15" stroke="#BBECF9" stroke-width="0.7" stroke-dasharray="2 2"/>
<text fill="white" xml:space="preserve" style="white-space: pre" font-family="Assistant" font-size="7" font-weight="bold" letter-spacing="0em"><tspan x="71.4492" y="358.512">CABO CA&#xd1;AVERAL</tspan></text>
<text fill="white" xml:space="preserve" style="white-space: pre" font-family="Assistant" font-size="7" letter-spacing="0em"><tspan x="81.0742" y="349.512">Florida, E.E.U.U&#10;</tspan></text>
<text fill="white" xml:space="preserve" style="white-space: pre" font-family="Assistant" font-size="8" font-weight="bold" letter-spacing="0em"><tspan x="86.4591" y="133.936">PRIMERA ETAPA</tspan></text>
<text fill="white" xml:space="preserve" style="white-space: pre" font-family="Assistant" font-size="8" font-weight="bold" letter-spacing="0em"><tspan x="79.1667" y="231.521">LANZAMIENTO</tspan></text>
<text fill="white" xml:space="preserve" style="white-space: pre" font-family="Assistant" font-size="8" font-weight="bold" letter-spacing="0em"><tspan x="112.925" y="96.8039">SEGUNDA ETAPA</tspan></text>
<text fill="white" xml:space="preserve" style="white-space: pre" font-family="Assistant" font-size="8" font-weight="bold" letter-spacing="0em"><tspan x="161.71" y="65.7662">PROPULSI&#xd3;N</tspan></text>
<text fill="white" xml:space="preserve" style="white-space: pre" font-family="Assistant" font-size="8" font-weight="bold" letter-spacing="0em"><tspan x="264" y="65.936">LANZAMIENTO</tspan></text>
<circle cx="272.792" cy="292.264" r="1.32075" fill="white"/>
<text fill="white" xml:space="preserve" style="white-space: pre" font-family="Assistant" font-size="7" font-weight="bold" letter-spacing="0em"><tspan x="300.5" y="359.069">PLATAFORMA FLOTANTE</tspan></text>
<text fill="white" xml:space="preserve" style="white-space: pre" font-family="Assistant" font-size="7" letter-spacing="0em"><tspan x="300.5" y="350.069">Puerto Ca&#xf1;averal&#10;</tspan></text>
<path d="M282.5 344L297 364.5H380" stroke="white" stroke-width="0.660377"/>
<text fill="white" xml:space="preserve" style="white-space: pre" font-family="Assistant" font-size="7" letter-spacing="0em"><tspan x="105.382" y="142.918">3 minutos de&#10;</tspan><tspan x="86.6855" y="151.918">m&#xe1;xima propulsi&#xf3;n</tspan></text>
<text fill="white" xml:space="preserve" style="white-space: pre" font-family="Assistant" font-size="7" letter-spacing="0em"><tspan x="108.6" y="106.069">Separaci&#xf3;n de partes</tspan></text>
<text fill="white" xml:space="preserve" style="white-space: pre" font-family="Assistant" font-size="8" font-weight="bold" letter-spacing="0em"><tspan x="263" y="100.936">TERCERA ETAPA</tspan></text>
<text fill="white" xml:space="preserve" style="white-space: pre" font-family="Assistant" font-size="7" letter-spacing="0em"><tspan x="263" y="110.069">El cuerpo principal vuelve </tspan><tspan x="263" y="119.069">a la tierra</tspan></text>
<text fill="white" xml:space="preserve" style="white-space: pre" font-family="Assistant" font-size="7" letter-spacing="0em"><tspan x="264" y="74.069">Colocaci&#xf3;n del material </tspan><tspan x="264" y="83.069">transportado</tspan></text>
<text fill="white" xml:space="preserve" style="white-space: pre" font-family="Assistant" font-size="8" font-weight="bold" letter-spacing="0em"><tspan x="263" y="137.936">CUARTA ETAPA</tspan></text>
<text fill="white" xml:space="preserve" style="white-space: pre" font-family="Assistant" font-size="7" letter-spacing="0em"><tspan x="263" y="147.069">Entrada a la atm&#xf3;sfera</tspan></text>
<text fill="white" xml:space="preserve" style="white-space: pre" font-family="Assistant" font-size="8" font-weight="bold" letter-spacing="0em"><tspan x="262" y="187.936">QUINTA ETAPA</tspan></text>
<text fill="white" xml:space="preserve" style="white-space: pre" font-family="Assistant" font-size="7" letter-spacing="0em"><tspan x="262" y="197.069">Ca&#xed;da libre</tspan></text>
<text fill="white" xml:space="preserve" style="white-space: pre" font-family="Assistant" font-size="8" font-weight="bold" letter-spacing="0em"><tspan x="263" y="225.936">SEXTA ETAPA</tspan></text>
<text fill="white" xml:space="preserve" style="white-space: pre" font-family="Assistant" font-size="7" letter-spacing="0em"><tspan x="263" y="235.069">Motores encedidos y </tspan><tspan x="263" y="244.069">control de trayectoria</tspan></text>
<text fill="#BBECF9" xml:space="preserve" style="white-space: pre" font-family="Assistant" font-size="8" font-weight="bold" letter-spacing="0em"><tspan x="310" y="308.936">S&#xc9;PTIMA ETAPA</tspan></text>
<path d="M165.531 117.696L167.275 119.252L185.166 99.1802L183.602 97.6157L165.531 117.696Z" fill="#B2B2B2" stroke="black" stroke-width="0.330189" stroke-miterlimit="10"/>
<path d="M167.389 119.243L165.536 117.591L165.049 118.137L166.903 119.789L167.389 119.243Z" fill="#4D4D4D" stroke="black" stroke-width="0.330189" stroke-miterlimit="10"/>
<path d="M165.219 118.298L164.534 118.701L166.392 120.355L166.685 119.604L165.219 118.298Z" fill="#4D4D4D" stroke="black" stroke-width="0.330189" stroke-miterlimit="10"/>
<path d="M165.112 119.208L165.018 119.313L165.672 119.896L165.766 119.791L165.112 119.208Z" fill="#4D4D4D" stroke="black" stroke-width="0.330189" stroke-miterlimit="10"/>
<path d="M166.685 119.604L165.77 119.8L165.965 118.963L165.113 119.217L165.219 118.298L166.685 119.604Z" fill="#4D4D4D" stroke="black" stroke-width="0.330189" stroke-miterlimit="10" stroke-linecap="round" stroke-linejoin="round"/>
<path d="M185.361 98.9846L167.326 119.198L167.423 119.284L166.857 119.917L166.681 119.757L166.43 120.398L165.809 119.843L165.711 119.949L165.058 119.366L165.152 119.26L164.573 118.744L165.156 118.4L164.929 118.196L165.492 117.563L165.578 117.641L183.797 97.4202L185.361 98.9846Z" stroke="black" stroke-width="0.990566" stroke-miterlimit="10" stroke-linecap="round" stroke-linejoin="round"/>
<text fill="white" xml:space="preserve" style="white-space: pre" font-family="Assistant" font-size="7" letter-spacing="0em"><tspan x="184.645" y="165.069">ATM&#xd3;SFERA</tspan></text>
<text fill="white" xml:space="preserve" style="white-space: pre" font-family="Assistant" font-size="7" letter-spacing="0em"><tspan x="310" y="318.069">Despliegue de patas </tspan><tspan x="310" y="327.069">y aterrizaje</tspan></text>
<text fill="#BBECF9" xml:space="preserve" style="white-space: pre" font-family="Assistant" font-size="5" font-weight="600" letter-spacing="0em"><tspan x="255" y="321.335">91m</tspan></text>
<text fill="#BBECF9" xml:space="preserve" style="white-space: pre" font-family="Assistant" font-size="5" font-weight="600" letter-spacing="0em"><tspan x="206" y="313.335">52m</tspan></text>
<path d="M252.971 254.749V261.953" stroke="white" stroke-opacity="0.51" stroke-width="1.0291" stroke-miterlimit="10" stroke-linecap="round" stroke-linejoin="round"/>
<path d="M215.953 295.724V298.876L218.204 297.975L215.953 295.724Z" fill="#DADADA" stroke="black" stroke-width="0.356964" stroke-miterlimit="10" stroke-linecap="round" stroke-linejoin="round"/>
<path d="M211 299.326L217.754 297.975L215.953 295.724L276.29 284.917L278.091 287.168L281.693 286.268L292.5 300.677L287.547 301.577L289.798 304.729L229.345 315.722L227.154 312.753L221.356 314.185L211 299.326Z" fill="#DADADA" stroke="black" stroke-width="0.356964" stroke-miterlimit="10" stroke-linecap="round" stroke-linejoin="round"/>
<path d="M221.308 313.285L221.356 316.887L211 302.478V299.326L221.308 313.285Z" fill="#DADADA" stroke="black" stroke-width="0.356964" stroke-miterlimit="10" stroke-linecap="round" stroke-linejoin="round"/>
<path d="M229.933 315.487V318.89L227.469 315.487V312.229L229.933 315.487Z" fill="#DADADA" stroke="black" stroke-width="0.356964" stroke-miterlimit="10" stroke-linecap="round" stroke-linejoin="round"/>
<path d="M221.356 316.887L227.469 315.585V312.195L221.308 313.362L221.356 316.887Z" fill="#DADADA" stroke="black" stroke-width="0.356964" stroke-miterlimit="10" stroke-linecap="round" stroke-linejoin="round"/>
<path d="M289.798 304.729V308.332L229.933 318.89V315.292L289.798 304.729Z" fill="#DADADA" stroke="black" stroke-width="0.356964" stroke-miterlimit="10" stroke-linecap="round" stroke-linejoin="round"/>
<path d="M292.5 304.279V300.677L287.547 301.577L289.798 304.729L292.5 304.279Z" fill="#DADADA" stroke="black" stroke-width="0.356964" stroke-miterlimit="10" stroke-linecap="round" stroke-linejoin="round"/>
<path d="M253.036 307.8C261.373 307.8 268.131 304.352 268.131 300.099C268.131 295.846 261.373 292.398 253.036 292.398C244.7 292.398 237.942 295.846 237.942 300.099C237.942 304.352 244.7 307.8 253.036 307.8Z" stroke="black" stroke-width="0.356964" stroke-miterlimit="10" stroke-linecap="round" stroke-linejoin="round"/>
<path d="M253 305C259.075 305 264 302.538 264 299.5C264 296.462 259.075 294 253 294C246.925 294 242 296.462 242 299.5C242 302.538 246.925 305 253 305Z" stroke="black" stroke-width="0.356964" stroke-miterlimit="10" stroke-linecap="round" stroke-linejoin="round" stroke-dasharray="0.71 0.71"/>
<path d="M251.048 291.221L241.169 301.127L251.075 295.79" fill="#B2B2B2"/>
<path d="M251.048 291.221L241.169 301.127L251.075 295.79" stroke="black" stroke-width="0.643287" stroke-miterlimit="10" stroke-linecap="round" stroke-linejoin="round"/>
<path d="M254.677 291.221L264.583 301.127L254.772 295.856" fill="#B2B2B2"/>
<path d="M254.677 291.221L264.583 301.127L254.772 295.856" stroke="black" stroke-width="0.643287" stroke-miterlimit="10" stroke-linecap="round" stroke-linejoin="round"/>
<path d="M250.751 295.754L254.712 295.814V250H250.751V295.754Z" fill="#B2B2B2" stroke="black" stroke-width="0.559388" stroke-miterlimit="10"/>
<path d="M254.861 295.676L250.656 295.616L250.638 296.855L254.843 296.915L254.861 295.676Z" fill="#4D4D4D" stroke="black" stroke-width="0.559388" stroke-miterlimit="10"/>
<path d="M251.022 296.874L250.592 298.153L254.804 298.213L254.347 296.921L251.022 296.874Z" fill="#4D4D4D" stroke="black" stroke-width="0.559388" stroke-miterlimit="10"/>
<path d="M251.89 298.154L251.887 298.392L253.371 298.413L253.374 298.175L251.89 298.154Z" fill="#4D4D4D" stroke="black" stroke-width="0.559388" stroke-miterlimit="10"/>
<path d="M254.347 296.921L253.394 298.193L252.718 296.901L251.91 298.173L251.022 296.874L254.347 296.921Z" fill="#4D4D4D" stroke="black" stroke-width="0.241233" stroke-miterlimit="10" stroke-linecap="round" stroke-linejoin="round"/>
<path d="M254.718 295.688V250H250.757V295.635L250.559 295.629L250.539 297.066L251.055 297.073L250.691 298.16L252.003 298.18V298.418L253.486 298.445V298.199L254.897 298.219L254.506 297.126L254.917 297.133L254.937 295.695L254.718 295.688Z" stroke="black" stroke-width="0.562876" stroke-miterlimit="10" stroke-linecap="round" stroke-linejoin="round"/>
<path d="M304.25 302C304.25 330.857 280.857 354.25 252 354.25C223.143 354.25 199.75 330.857 199.75 302C199.75 273.143 223.143 249.75 252 249.75C280.857 249.75 304.25 273.143 304.25 302Z" stroke="#BBECF9" stroke-width="1.5"/>
<path d="M133 323.443V364.443H64" stroke="white" stroke-width="0.5"/>
<path d="M252.662 246.452C252.65 246.413 252.615 246.386 252.572 246.382H252.568C252.529 246.382 252.494 246.405 252.478 246.445L252.165 247.223L252.067 245.834C252.063 245.787 252.028 245.748 251.981 245.744C251.977 245.744 251.974 245.744 251.97 245.744C251.927 245.744 251.887 245.772 251.876 245.815L251.602 246.691L251.469 245.197C251.465 245.169 251.45 245.142 251.426 245.126C251.411 245.115 251.391 245.111 251.371 245.111C251.364 245.111 251.352 245.111 251.344 245.115L251.113 245.181C251.192 244.528 251.504 241.865 251.54 240.015C251.778 240.077 252.325 240.198 252.943 240.198C253.268 240.198 253.565 240.163 253.835 240.097C253.921 240.64 254.315 243.147 254.48 244.9L254.155 244.724C254.139 244.716 254.124 244.712 254.108 244.712C254.089 244.712 254.069 244.716 254.053 244.728C254.022 244.747 254.007 244.782 254.01 244.817L254.1 245.819L253.936 245.263C253.924 245.22 253.885 245.193 253.842 245.193C253.835 245.193 253.831 245.193 253.823 245.193C253.772 245.201 253.741 245.248 253.745 245.299L253.909 246.984L253.393 246.206C253.373 246.179 253.346 246.163 253.311 246.163C253.303 246.163 253.299 246.163 253.291 246.163C253.252 246.171 253.221 246.202 253.213 246.241L252.978 247.555L252.662 246.452Z" fill="#BBECF9"/>
<path d="M251.637 240.132C251.919 240.198 252.407 240.292 252.947 240.292C253.236 240.292 253.51 240.265 253.756 240.21C253.866 240.891 254.202 243.081 254.366 244.72L254.206 244.63C254.179 244.614 254.143 244.606 254.112 244.606C254.073 244.606 254.038 244.618 254.007 244.638C253.948 244.677 253.913 244.747 253.921 244.818L253.948 245.115C253.921 245.099 253.885 245.087 253.85 245.087C253.838 245.087 253.827 245.087 253.811 245.091C253.713 245.111 253.643 245.201 253.655 245.302L253.78 246.597L253.483 246.147C253.447 246.093 253.385 246.061 253.318 246.061C253.307 246.061 253.291 246.061 253.279 246.065C253.201 246.081 253.142 246.143 253.127 246.222L252.963 247.129L252.755 246.421C252.732 246.343 252.662 246.284 252.576 246.28C252.572 246.28 252.568 246.28 252.568 246.28C252.49 246.28 252.415 246.327 252.388 246.402L252.235 246.781L252.169 245.819C252.161 245.725 252.091 245.651 251.997 245.639C251.989 245.639 251.981 245.639 251.973 245.639C251.887 245.639 251.813 245.694 251.786 245.776L251.661 246.179L251.571 245.177C251.567 245.119 251.536 245.068 251.485 245.033C251.454 245.009 251.414 244.997 251.375 244.997C251.356 244.997 251.34 245.001 251.321 245.005L251.231 245.033C251.328 244.219 251.594 241.861 251.637 240.132ZM251.446 239.882C251.422 242.005 251 245.31 251 245.31L251.375 245.201L251.551 247.188L251.97 245.842L252.095 247.657L252.564 246.484L253.006 247.986L253.315 246.265L254.046 247.372L253.842 245.295L254.284 246.797L254.108 244.81L254.593 245.076C254.417 243.089 253.913 239.975 253.913 239.975C253.596 240.069 253.26 240.101 252.943 240.101C252.142 240.097 251.446 239.882 251.446 239.882Z" fill="black"/>
<path d="M132.662 318.571C132.65 318.532 132.615 318.504 132.572 318.5H132.568C132.529 318.5 132.494 318.524 132.478 318.563L132.165 319.341L132.067 317.953C132.063 317.906 132.028 317.867 131.981 317.863C131.977 317.863 131.974 317.863 131.97 317.863C131.927 317.863 131.887 317.89 131.876 317.933L131.602 318.809L131.469 317.315C131.465 317.288 131.45 317.261 131.426 317.245C131.411 317.233 131.391 317.229 131.371 317.229C131.364 317.229 131.352 317.229 131.344 317.233L131.113 317.3C131.192 316.646 131.504 313.983 131.54 312.133C131.778 312.196 132.325 312.317 132.943 312.317C133.268 312.317 133.565 312.282 133.835 312.215C133.921 312.759 134.315 315.266 134.48 317.018L134.155 316.842C134.139 316.834 134.124 316.83 134.108 316.83C134.089 316.83 134.069 316.834 134.053 316.846C134.022 316.865 134.007 316.901 134.01 316.936L134.1 317.937L133.936 317.382C133.924 317.339 133.885 317.311 133.842 317.311C133.835 317.311 133.831 317.311 133.823 317.311C133.772 317.319 133.741 317.366 133.745 317.417L133.909 319.103L133.393 318.324C133.373 318.297 133.346 318.281 133.311 318.281C133.303 318.281 133.299 318.281 133.291 318.281C133.252 318.289 133.221 318.32 133.213 318.36L132.978 319.674L132.662 318.571Z" fill="#BBECF9"/>
<path d="M131.637 312.25C131.919 312.317 132.407 312.411 132.947 312.411C133.236 312.411 133.51 312.383 133.756 312.329C133.866 313.009 134.202 315.199 134.366 316.838L134.206 316.748C134.179 316.733 134.143 316.725 134.112 316.725C134.073 316.725 134.038 316.736 134.007 316.756C133.948 316.795 133.913 316.866 133.921 316.936L133.948 317.233C133.921 317.218 133.885 317.206 133.85 317.206C133.838 317.206 133.827 317.206 133.811 317.21C133.713 317.229 133.643 317.319 133.655 317.421L133.78 318.716L133.483 318.266C133.447 318.211 133.385 318.18 133.318 318.18C133.307 318.18 133.291 318.18 133.279 318.184C133.201 318.199 133.142 318.262 133.127 318.34L132.963 319.247L132.755 318.54C132.732 318.461 132.662 318.403 132.576 318.399C132.572 318.399 132.568 318.399 132.568 318.399C132.49 318.399 132.415 318.446 132.388 318.52L132.235 318.899L132.169 317.937C132.161 317.843 132.091 317.769 131.997 317.757C131.989 317.757 131.981 317.757 131.973 317.757C131.887 317.757 131.813 317.812 131.786 317.894L131.661 318.297L131.571 317.296C131.567 317.237 131.536 317.186 131.485 317.151C131.454 317.128 131.414 317.116 131.375 317.116C131.356 317.116 131.34 317.12 131.321 317.124L131.231 317.151C131.328 316.338 131.594 313.979 131.637 312.25ZM131.446 312C131.422 314.124 131 317.429 131 317.429L131.375 317.319L131.551 319.306L131.97 317.961L132.095 319.775L132.564 318.602L133.006 320.104L133.315 318.383L134.046 319.49L133.842 317.413L134.284 318.915L134.108 316.928L134.593 317.194C134.417 315.207 133.913 312.094 133.913 312.094C133.596 312.188 133.26 312.219 132.943 312.219C132.142 312.215 131.446 312 131.446 312Z" fill="black"/>
<path d="M141.5 313.5L203.5 281" stroke="#BBECF9" stroke-width="0.5" stroke-dasharray="1 1"/>
<path d="M142 323.5L209 333" stroke="#BBECF9" stroke-width="0.5" stroke-dasharray="1 1"/>
</g>
<defs>
<clipPath id="clip0_100_1030">
<rect width="391" height="407" fill="white"/>
</clipPath>
</defs>
</svg>
