<svg width="391" height="557" viewBox="0 0 391 557" fill="none" xmlns="http://www.w3.org/2000/svg">
<g clip-path="url(#clip0_100_1028)">
<path d="M4 439.951L17.2947 441.4C17.2947 441.4 35.021 443.765 41.5206 439.626C48.0203 435.487 53.5154 437.852 57.5629 439.626C61.6104 441.4 62.0063 440.957 64.7598 439.697C67.5192 438.443 70.899 439.786 72.1634 442.068C73.4279 444.351 74.6097 443.759 76.3823 444.351C78.1549 444.942 76.3823 446.716 75.7914 448.49C75.2005 450.264 76.3823 449.673 78.1549 449.673C79.9276 449.673 76.9732 450.264 76.9732 452.038C76.9732 453.812 79.3367 454.403 80.5184 453.812C81.7002 453.221 81.7002 454.403 81.7002 454.995C81.7002 455.586 81.1093 458.542 82.2911 458.542C83.4728 458.542 86.4272 457.951 86.4272 459.725C86.4272 461.499 88.1998 463.864 89.9724 462.682C91.7451 461.499 91.7451 459.725 92.9268 459.725C94.1086 459.725 92.9268 456.177 94.1086 454.995C95.2903 453.812 92.9268 450.264 89.9724 448.49C87.0181 446.716 81.1093 436.072 85.8363 433.116C90.5633 430.159 88.7907 426.02 91.1542 426.611C93.5177 427.202 97.0629 427.202 98.2447 425.429C99.4265 423.655 103.563 422.472 107.108 421.881C110.653 421.289 109.471 420.107 111.835 419.515C114.198 418.924 118.334 420.107 118.925 418.333C119.516 416.559 124.243 416.559 123.652 413.602C123.061 410.646 121.88 411.237 121.289 409.463C120.698 407.689 117.744 411.237 118.334 408.28C118.925 405.324 120.698 404.732 118.925 403.55C117.153 402.367 115.38 401.184 117.153 399.41C118.925 397.637 120.698 397.045 121.289 397.045C121.88 397.045 122.471 398.228 121.88 398.228C121.289 398.228 119.516 398.228 119.516 398.819C119.516 399.41 118.925 402.367 120.107 401.776C121.289 401.184 123.061 401.776 122.471 402.367C121.88 402.958 122.471 404.141 123.061 404.141C123.652 404.141 123.652 404.732 121.88 405.324C120.107 405.915 121.289 407.689 121.88 407.098C122.471 406.506 121.88 406.506 123.061 405.915C124.243 405.324 124.834 402.958 126.607 402.367C128.379 401.776 128.379 400.593 127.198 400.002C126.016 399.41 123.652 397.637 124.834 397.637C126.016 397.637 127.074 398.181 128.019 398.795C128.97 399.41 129.561 400.593 130.152 399.41C130.743 398.228 130.152 397.045 131.925 396.454C133.697 395.863 135.866 394.674 135.074 393.497C134.288 392.315 132.515 393.497 133.106 392.315C133.697 391.132 134.424 392.38 135.245 391.162C136.067 389.943 138.076 388.891 139.73 388.826C141.385 388.761 149.651 388.761 150.833 388.169C152.014 387.578 152.605 386.396 153.196 386.396C153.787 386.396 153.787 386.396 153.787 386.396C153.787 386.396 153.787 388.169 156.151 387.578C158.514 386.987 161.12 387.578 160.996 386.396C160.872 385.213 160.31 385 160.31 385C160.31 385 32.0666 389.949 4 393.503V439.951Z" fill="#DADADA" stroke="black" stroke-width="0.5" stroke-miterlimit="10"/>
<path d="M4 393.222C4 393.222 124.12 384.044 238.5 384M395 394C370.127 389.14 337.207 386.386 301 385.045" stroke="white" stroke-miterlimit="10" stroke-linecap="round" stroke-linejoin="round"/>
<path d="M4 230.427C4 230.427 207.5 199.705 395 231.205" stroke="white" stroke-opacity="0.3" stroke-width="1.5" stroke-miterlimit="10" stroke-linejoin="round" stroke-dasharray="3 3"/>
<path d="M100.484 265.133C100.484 265.068 100.443 265.015 100.384 264.991C100.366 264.985 100.354 264.985 100.336 264.985C100.289 264.985 100.247 265.003 100.218 265.044L99.4363 266.039L99.8922 263.978C99.91 263.907 99.8685 263.836 99.8034 263.812C99.7856 263.807 99.7679 263.801 99.7442 263.801C99.6968 263.801 99.6495 263.824 99.6199 263.866L98.8502 265.021L99.2942 262.794C99.3002 262.752 99.2942 262.705 99.2646 262.669C99.235 262.634 99.1936 262.616 99.1522 262.616H98.7496C98.9864 261.728 100.058 257.854 101.568 255.272C102 255.538 103.421 256.338 104.901 256.397C104.794 257.226 104.297 261.035 103.794 263.653L103.397 263.256C103.367 263.226 103.332 263.214 103.29 263.214C103.279 263.214 103.261 263.214 103.249 263.22C103.196 263.238 103.16 263.279 103.148 263.333L102.852 264.825V263.949C102.852 263.872 102.793 263.807 102.716 263.801C102.71 263.801 102.704 263.801 102.704 263.801C102.633 263.801 102.574 263.848 102.556 263.919L102.077 266.442L101.662 265.092C101.645 265.033 101.591 264.991 101.532 264.985C101.526 264.985 101.526 264.985 101.52 264.985C101.467 264.985 101.414 265.015 101.39 265.068L100.484 266.874V265.133Z" fill="#73D7F9"/>
<path d="M101.621 255.473C102.154 255.787 103.403 256.433 104.735 256.534C104.599 257.57 104.161 260.893 103.699 263.345L103.504 263.149C103.444 263.09 103.373 263.06 103.296 263.06C103.267 263.06 103.237 263.066 103.213 263.072C103.107 263.102 103.03 263.191 103.006 263.297L102.917 263.741C102.87 263.694 102.805 263.658 102.734 263.653C102.722 263.653 102.716 263.653 102.704 263.653C102.562 263.653 102.438 263.753 102.414 263.895L102.047 265.832L101.804 265.05C101.769 264.932 101.668 264.855 101.544 264.843C101.538 264.843 101.526 264.843 101.52 264.843C101.408 264.843 101.307 264.908 101.254 265.009L100.632 266.259V265.133C100.632 265.009 100.549 264.896 100.431 264.855C100.401 264.843 100.366 264.837 100.336 264.837C100.247 264.837 100.159 264.879 100.105 264.95L99.7204 265.441L100.034 264.014C100.064 263.878 99.9928 263.735 99.8625 263.676C99.827 263.658 99.7856 263.653 99.7441 263.653C99.6494 263.653 99.5547 263.7 99.4955 263.783L99.1403 264.316L99.4363 262.823C99.454 262.735 99.4303 262.646 99.3771 262.575C99.3238 262.504 99.235 262.468 99.1462 262.468H98.939C99.2527 261.343 100.253 257.89 101.621 255.473ZM101.52 255.065C99.7441 258.026 98.5601 262.764 98.5601 262.764H99.1521L98.5601 265.725L99.7441 263.949L99.1521 266.638L100.336 265.133V267.502L101.52 265.133L102.112 267.052L102.704 263.949V266.318L103.296 263.356L103.888 263.949C104.48 260.987 105.072 256.249 105.072 256.249C103.296 256.249 101.52 255.065 101.52 255.065Z" fill="black"/>
<path d="M100.484 265.133C100.484 265.068 100.443 265.015 100.384 264.991C100.366 264.985 100.354 264.985 100.336 264.985C100.289 264.985 100.247 265.003 100.218 265.044L99.4363 266.039L99.8922 263.978C99.91 263.907 99.8685 263.836 99.8034 263.812C99.7856 263.807 99.7679 263.801 99.7442 263.801C99.6968 263.801 99.6495 263.824 99.6199 263.866L98.8502 265.021L99.2942 262.794C99.3002 262.752 99.2942 262.705 99.2646 262.669C99.235 262.634 99.1936 262.616 99.1522 262.616H98.7496C98.9864 261.728 100.058 257.854 101.568 255.272C102 255.538 103.421 256.338 104.901 256.397C104.794 257.226 104.297 261.035 103.794 263.653L103.397 263.256C103.367 263.226 103.332 263.214 103.29 263.214C103.279 263.214 103.261 263.214 103.249 263.22C103.196 263.238 103.16 263.279 103.148 263.333L102.852 264.825V263.949C102.852 263.872 102.793 263.807 102.716 263.801C102.71 263.801 102.704 263.801 102.704 263.801C102.633 263.801 102.574 263.848 102.556 263.919L102.077 266.442L101.662 265.092C101.645 265.033 101.591 264.991 101.532 264.985C101.526 264.985 101.526 264.985 101.52 264.985C101.467 264.985 101.414 265.015 101.39 265.068L100.484 266.874V265.133Z" fill="#BBECF9"/>
<path d="M101.621 255.473C102.154 255.787 103.403 256.433 104.735 256.534C104.599 257.57 104.161 260.893 103.699 263.345L103.504 263.149C103.444 263.09 103.373 263.06 103.296 263.06C103.267 263.06 103.237 263.066 103.213 263.072C103.107 263.102 103.03 263.191 103.006 263.297L102.917 263.741C102.87 263.694 102.805 263.658 102.734 263.653C102.722 263.653 102.716 263.653 102.704 263.653C102.562 263.653 102.438 263.753 102.414 263.895L102.047 265.832L101.804 265.05C101.769 264.932 101.668 264.855 101.544 264.843C101.538 264.843 101.526 264.843 101.52 264.843C101.408 264.843 101.307 264.908 101.254 265.009L100.632 266.259V265.133C100.632 265.009 100.549 264.896 100.431 264.855C100.401 264.843 100.366 264.837 100.336 264.837C100.247 264.837 100.159 264.879 100.105 264.95L99.7204 265.441L100.034 264.014C100.064 263.878 99.9928 263.735 99.8625 263.676C99.827 263.658 99.7856 263.653 99.7441 263.653C99.6494 263.653 99.5547 263.7 99.4955 263.783L99.1403 264.316L99.4363 262.823C99.454 262.735 99.4303 262.646 99.3771 262.575C99.3238 262.504 99.235 262.468 99.1462 262.468H98.939C99.2527 261.343 100.253 257.89 101.621 255.473ZM101.52 255.065C99.7441 258.026 98.5601 262.764 98.5601 262.764H99.1521L98.5601 265.725L99.7441 263.949L99.1521 266.638L100.336 265.133V267.502L101.52 265.133L102.112 267.052L102.704 263.949V266.318L103.296 263.356L103.888 263.949C104.48 260.987 105.072 256.249 105.072 256.249C103.296 256.249 101.52 255.065 101.52 255.065Z" fill="black"/>
<path d="M91 355.5C91 355.5 94.7853 306.012 101 270" stroke="#BBECF9" stroke-width="0.75" stroke-miterlimit="10" stroke-linejoin="round"/>
<path d="M183.104 119.653L176.598 122.508L178.025 125.762L184.531 122.907L183.104 119.653Z" fill="#B2B2B2" stroke="black" stroke-width="0.5" stroke-miterlimit="10"/>
<path d="M183.104 119.772L176.598 122.627L178.025 125.882L184.531 123.027L183.104 119.772Z" stroke="black" stroke-width="1.5" stroke-miterlimit="10" stroke-linecap="round" stroke-linejoin="round"/>
<path d="M127 180C127 180 132.447 167.773 137 161" stroke="#BBECF9" stroke-width="0.75" stroke-miterlimit="10" stroke-linejoin="round"/>
<path d="M94 373H87V436H94V373Z" fill="#B2B2B2" stroke="black" stroke-width="0.5" stroke-miterlimit="10"/>
<path d="M94 369H87V373H94V369Z" fill="#DADADA" stroke="black" stroke-width="0.5" stroke-miterlimit="10"/>
<path d="M94 367H87V369H94V367Z" fill="#DADADA" stroke="black" stroke-width="0.5" stroke-miterlimit="10"/>
<path d="M88 374V369.257C88 369.257 87.5766 368.679 87.0007 369.257V373.389C86.9922 373.394 87.0515 373.686 88 374Z" fill="#DADADA" stroke="black" stroke-width="0.5" stroke-miterlimit="10"/>
<path d="M93 374V369.267C93 369.267 93.5384 368.666 93.9998 369.267V373.528C94.0075 373.528 93.7537 373.983 93 374Z" fill="#DADADA" stroke="black" stroke-width="0.5" stroke-miterlimit="10"/>
<path d="M87 367L88.2366 364H92.7634L94 367H87Z" fill="#DADADA" stroke="black" stroke-width="0.5" stroke-miterlimit="10"/>
<path d="M88 364C88 362 90.5 362 90.5 362C90.5 362 93 362 93 364H88Z" fill="#DADADA" stroke="black" stroke-width="0.5" stroke-miterlimit="10"/>
<path d="M89.9927 436L89 437H91L89.9927 436Z" fill="#4D4D4D" stroke="black" stroke-width="0.5" stroke-miterlimit="10" stroke-linecap="round" stroke-linejoin="round"/>
<path d="M87.4964 436L87 437H88L87.4964 436Z" fill="#4D4D4D" stroke="black" stroke-width="0.5" stroke-miterlimit="10" stroke-linecap="round" stroke-linejoin="round"/>
<path d="M93.4982 436L93 437H94L93.4982 436Z" fill="#4D4D4D" stroke="black" stroke-width="0.5" stroke-miterlimit="10" stroke-linecap="round" stroke-linejoin="round"/>
<path d="M87 381H94" stroke="black" stroke-width="0.5" stroke-miterlimit="10" stroke-linecap="round" stroke-linejoin="round"/>
<path d="M87 390H94" stroke="black" stroke-width="0.5" stroke-miterlimit="10" stroke-linecap="round" stroke-linejoin="round"/>
<path d="M87 434H94" stroke="black" stroke-width="0.5" stroke-miterlimit="10" stroke-linecap="round" stroke-linejoin="round"/>
<path d="M86 436H88L87.2763 433.262C87.1829 432.9 86.5603 432.919 86.4903 433.281L86 436Z" fill="#B2B2B2" stroke="black" stroke-width="0.5" stroke-miterlimit="10"/>
<path d="M95 436H93L93.7238 433.262C93.8171 432.9 94.4397 432.919 94.5097 433.281L95 436Z" fill="#B2B2B2" stroke="black" stroke-width="0.5" stroke-miterlimit="10"/>
<path d="M94.0149 373.031L94.2293 372.77V368.277C94.2293 368.277 94.2025 367.975 93.8273 367.975V367.643L92.7014 363.992C92.7014 363.992 92.7014 362.006 90.6374 362C90.6374 362 88.5733 362 88.5733 363.992L87.4475 367.643V367.904C87.4475 367.904 87.0722 367.975 86.9918 368.253V372.622L87.2197 372.93V432.697C87.2197 432.697 86.583 432.151 86.4557 432.75L86 435.34H87.7223L86.9315 437H88.7677L87.8429 435.157H90.6106L89.6992 437H91.5354L90.6843 435.157H93.3246L92.4133 437H94.2494L93.4185 435.34H95L94.5778 432.845C94.5778 432.845 94.5778 432.483 94.0149 432.584V373.031Z" stroke="black" stroke-width="1.5" stroke-miterlimit="10" stroke-linecap="round" stroke-linejoin="round"/>
<path d="M94.0149 373.031L94.2293 372.77V368.277C94.2293 368.277 94.2025 367.975 93.8273 367.975V367.643L92.7014 363.992C92.7014 363.992 92.7014 362.006 90.6374 362C90.6374 362 88.5733 362 88.5733 363.992L87.4475 367.643V367.904C87.4475 367.904 87.0722 367.975 86.9918 368.253V372.622L87.2197 372.93V432.697C87.2197 432.697 86.583 432.151 86.4557 432.75L86 435.34H87.7223L86.9315 437H88.7677L87.8429 435.157H90.6106L89.6992 437H91.5354L90.6843 435.157H93.3246L92.4133 437H94.2494L93.4185 435.34H95L94.5778 432.845C94.5778 432.845 94.5778 432.483 94.0149 432.584V373.031Z" stroke="black" stroke-width="1.5" stroke-miterlimit="10" stroke-linecap="round" stroke-linejoin="round"/>
<path d="M119.425 191.848L101.572 251.578L107.323 253.298L125.177 193.568L119.425 191.848Z" fill="#B2B2B2" stroke="black" stroke-width="0.5" stroke-miterlimit="10"/>
<path d="M120.706 187.562L119.424 191.852L124.937 193.502L126.22 189.212L120.706 187.562Z" fill="#DADADA" stroke="black" stroke-width="0.5" stroke-miterlimit="10"/>
<path d="M126.468 188.622L121.068 187.006L120.878 187.642L126.278 189.257L126.468 188.622Z" fill="#DADADA" stroke="black" stroke-width="0.5" stroke-miterlimit="10"/>
<path d="M119.507 192L121 187.356C121 187.356 120.889 186.708 120.303 187.161L119.002 191.209C119.002 191.209 118.946 191.507 119.507 192Z" fill="#DADADA" stroke="black" stroke-width="0.5" stroke-miterlimit="10"/>
<path d="M124 193.965L125.317 189.164C125.317 189.164 125.852 188.676 126 189.384L124.814 193.703C124.814 193.709 124.514 194.12 124 193.965Z" fill="#DADADA" stroke="black" stroke-width="0.5" stroke-miterlimit="10"/>
<path d="M121 186.995L122.818 183L126 184.297L125.919 189L121 186.995Z" fill="#DADADA" stroke="black" stroke-width="0.5" stroke-miterlimit="10"/>
<path d="M123 183.16C123.473 181.631 124.925 182.054 124.925 182.054C124.925 182.054 126.378 182.471 125.905 184L123 183.16Z" fill="#DADADA" stroke="black" stroke-width="0.5" stroke-miterlimit="10"/>
<path d="M103.833 253L103 253.766L104 254L103.833 253Z" fill="#4D4D4D" stroke="black" stroke-width="0.5" stroke-miterlimit="10" stroke-linecap="round" stroke-linejoin="round"/>
<path d="M101.836 252L101 253.537L102 254L101.836 252Z" fill="#4D4D4D" stroke="black" stroke-width="0.5" stroke-miterlimit="10" stroke-linecap="round" stroke-linejoin="round"/>
<path d="M105.836 253L105 254.533L106 255L105.836 253Z" fill="#4D4D4D" stroke="black" stroke-width="0.5" stroke-miterlimit="10" stroke-linecap="round" stroke-linejoin="round"/>
<path d="M117 199L122 200" stroke="black" stroke-width="0.5" stroke-miterlimit="10" stroke-linecap="round" stroke-linejoin="round"/>
<path d="M114 208L120 210" stroke="black" stroke-width="0.5" stroke-miterlimit="10" stroke-linecap="round" stroke-linejoin="round"/>
<path d="M102 250L107 252" stroke="black" stroke-width="0.5" stroke-miterlimit="10" stroke-linecap="round" stroke-linejoin="round"/>
<path d="M101 251.545L101.881 252L101.999 249.34C102.014 248.99 101.738 248.867 101.648 249.18L101 251.545Z" fill="#B2B2B2" stroke="black" stroke-width="0.5" stroke-miterlimit="10"/>
<path d="M107.6 254L106 253.538L107.372 251.166C107.554 250.854 108.048 251.016 107.996 251.366L107.6 254Z" fill="#B2B2B2" stroke="black" stroke-width="0.5" stroke-miterlimit="10"/>
<path d="M124.507 193.514L124.756 193.318L125.983 189.005C125.983 189.005 126.04 188.708 125.74 188.613L125.831 188.292L125.916 184.502C125.916 184.502 126.459 182.596 124.79 182.067C124.79 182.067 123.121 181.538 122.578 183.451L120.672 186.671L120.599 186.92C120.599 186.92 120.276 186.89 120.135 187.14L118.941 191.334L119.043 191.69L102.708 249.078C102.708 249.078 102.346 248.395 102.075 248.935L101 251.305L102.391 251.745L101.3 253.135L102.787 253.604L102.544 251.596L104.784 252.297L103.545 253.836L105.033 254.305L104.846 252.321L106.979 252.992L105.74 254.531L107.227 255L107.007 253.194L108.285 253.598L108.625 251.097C108.625 251.097 108.721 250.753 108.24 250.705L124.507 193.514Z" stroke="black" stroke-width="1.5" stroke-miterlimit="10" stroke-linecap="round" stroke-linejoin="round"/>
<path d="M124.507 193.514L124.756 193.318L125.983 189.005C125.983 189.005 126.04 188.708 125.74 188.613L125.831 188.292L125.916 184.502C125.916 184.502 126.459 182.596 124.79 182.067C124.79 182.067 123.121 181.538 122.578 183.451L120.672 186.671L120.599 186.92C120.599 186.92 120.276 186.89 120.135 187.14L118.941 191.334L119.043 191.69L102.708 249.078C102.708 249.078 102.346 248.395 102.075 248.935L101 251.305L102.391 251.745L101.3 253.135L102.787 253.604L102.544 251.596L104.784 252.297L103.545 253.836L105.033 254.305L104.846 252.321L106.979 252.992L105.74 254.531L107.227 255L107.007 253.194L108.285 253.598L108.625 251.097C108.625 251.097 108.721 250.753 108.24 250.705L124.507 193.514Z" stroke="black" stroke-width="1.5" stroke-miterlimit="10" stroke-linecap="round" stroke-linejoin="round"/>
<path d="M221 80L224 85" stroke="black" stroke-width="0.5" stroke-miterlimit="10"/>
<path d="M224.67 77.2809L220.774 79.4852L223.607 84.496L227.503 82.2917L224.67 77.2809Z" fill="#DADADA" stroke="black" stroke-width="0.5" stroke-miterlimit="10"/>
<path d="M228.125 82.0416L225.35 77.1339L224.773 77.4605L227.547 82.3681L228.125 82.0416Z" fill="#DADADA" stroke="black" stroke-width="0.5" stroke-miterlimit="10"/>
<path d="M212 86.8613L213.773 90L224 85.3107L221.174 80L212 86.8613Z" fill="#DADADA" stroke="black" stroke-width="0.5" stroke-miterlimit="10"/>
<path d="M221.003 80L224.909 77.5954C224.909 77.5954 225.254 77.052 224.601 77L221.194 79.0983C221.199 79.0983 220.971 79.2775 221.003 80Z" fill="#DADADA" stroke="black" stroke-width="0.5" stroke-miterlimit="10"/>
<path d="M223 84.5557L227.499 82C227.499 82 228.279 82.0493 227.892 82.6959L223.841 84.993C223.841 84.9991 223.307 85.073 223 84.5557Z" fill="#DADADA" stroke="black" stroke-width="0.5" stroke-miterlimit="10"/>
<path d="M225 76.9563L229.028 76L231 79.265L228.052 82L225 76.9563Z" fill="#DADADA" stroke="black" stroke-width="0.5" stroke-miterlimit="10"/>
<path d="M211.99 86L210 89.6667L214 90L211.99 86Z" fill="#4D4D4D" stroke="black" stroke-width="0.5" stroke-miterlimit="10" stroke-linecap="round" stroke-linejoin="round"/>
<path d="M230 76.3642C231.208 75.2449 231.837 77.0628 231.837 77.0628C231.837 77.0628 232.466 78.8808 231.254 80L230 76.3642Z" fill="#DADADA" stroke="black" stroke-width="0.5" stroke-miterlimit="10"/>
<path d="M223.807 84.9644L224.126 85L227.946 82.7866C227.946 82.7866 228.189 82.6145 228.027 82.3297L228.311 82.1635L230.933 79.4992C230.933 79.4992 232.623 78.5201 231.749 76.9298C231.749 76.9298 230.875 75.3395 229.179 76.3186L225.596 77.2502L225.376 77.3808C225.376 77.3808 225.156 77.1256 224.884 77.2027L221.168 79.3568L221 79.6831" stroke="black" stroke-width="1.5" stroke-miterlimit="10" stroke-linecap="round" stroke-linejoin="round"/>
<path d="M223.724 85.397L224.046 85.4343L227.905 83.1141C227.905 83.1141 228.15 82.9337 227.987 82.6351L228.273 82.461L230.922 79.668C230.922 79.668 232.629 78.6417 231.747 76.9746C231.747 76.9746 230.864 75.3076 229.15 76.3339L225.531 77.3105L225.309 77.4474C225.309 77.4474 225.086 77.1799 224.812 77.2608L221.058 79.5187L220.888 79.8609L212 86.2678L213.754 90L223.724 85.397Z" stroke="black" stroke-width="1.5" stroke-miterlimit="10" stroke-linecap="round" stroke-linejoin="round"/>
<path d="M210 90L212.206 86L214 90H210Z" stroke="black" stroke-width="1.5" stroke-miterlimit="10" stroke-linecap="round" stroke-linejoin="round"/>
<path d="M210 90L206 90.9551L207.188 93L210 90Z" fill="#4D4D4D" stroke="black" stroke-width="0.5" stroke-miterlimit="10" stroke-linecap="round" stroke-linejoin="round"/>
<path d="M206 90.9L210 90L207.485 93L206 90.9Z" stroke="black" stroke-width="1.5" stroke-miterlimit="10" stroke-linecap="round" stroke-linejoin="round"/>
<path d="M198.116 97.7646C198.152 97.7113 198.146 97.6343 198.098 97.5869C198.069 97.5573 198.027 97.5395 197.992 97.5395C197.968 97.5395 197.945 97.5455 197.927 97.5573L196.429 98.2917L197.483 97.196C197.53 97.1486 197.536 97.0717 197.501 97.0183C197.471 96.971 197.424 96.9473 197.376 96.9473C197.364 96.9473 197.347 96.9473 197.335 96.9532L196.459 97.2138L197.98 96.0648C198.039 96.0233 198.057 95.9404 198.022 95.8753C197.998 95.8279 197.945 95.7983 197.891 95.7983C197.874 95.7983 197.856 95.7983 197.838 95.8101L196.897 96.1596L198.495 94.9158C198.531 94.8921 198.548 94.8507 198.554 94.8092C198.554 94.7677 198.543 94.7263 198.507 94.6967L198.329 94.5249C199.046 94.0215 202.272 91.7827 204.848 90.6633C204.901 91.1371 205.102 92.3158 205.777 93.0679C205.167 93.5951 202.308 96.047 200.23 97.6817L200.283 97.3263C200.289 97.2671 200.265 97.2079 200.212 97.1783C200.188 97.1664 200.165 97.1605 200.135 97.1605C200.105 97.1605 200.07 97.1723 200.046 97.1901L199.318 97.7587L199.525 97.5395C199.579 97.4862 199.579 97.3974 199.531 97.3382C199.502 97.3086 199.46 97.2908 199.419 97.2908C199.389 97.2908 199.354 97.3026 199.33 97.3204L197.518 98.7478L198.116 97.7646Z" fill="#BBECF9"/>
<path d="M161 134.351C161 134.351 161.065 134.274 161.195 134.132" stroke="#BBECF9" stroke-width="0.75" stroke-linejoin="round" stroke-dasharray="2 2"/>
<path d="M163.232 131.935C169.146 125.586 185.51 108.422 196.208 100.995" stroke="#BBECF9" stroke-width="0.75" stroke-linejoin="round" stroke-dasharray="2 2"/>
<path d="M197.457 100.16C197.54 100.106 197.623 100.053 197.706 100" stroke="#BBECF9" stroke-width="0.75" stroke-linejoin="round" stroke-dasharray="2 2"/>
<path d="M166 134.084C166 134.084 247.266 86.5517 265 222" stroke="#BBECF9" stroke-width="0.75" stroke-miterlimit="10" stroke-linejoin="round"/>
<path d="M251 145.769L253.745 125L254.122 141.269L254.639 137.867L255.005 142.686L256.422 140.938L254.87 147.959L258.206 144.003L256.091 150.835L259.156 148.06L256.141 154.426L258.335 153.498L256.248 156.292L260 153.433C260 153.433 258.611 158.536 253.571 160L251 145.769Z" fill="#BBECF9"/>
<path d="M269.272 215.998C263.398 215.855 258.266 212.255 258.266 212.255H263.451L259.967 208.162L265.384 210.831L260.163 204.366L263.326 205.274L257.595 197.486L262.946 201.045L257 189.775L263.326 198.079C263.326 198.079 260.568 172.574 265.919 153C265.919 153 272.858 173.944 272.656 196.685L276.027 190.368L273.054 200.451L276.027 195.748L274.243 204.01L277.841 198.079L274.838 206.976L277.811 205.197L274.838 210.535L277.841 209.022L274.838 212.907L279 211.128C278.994 211.128 274.416 216.122 269.272 215.998Z" fill="#BBECF9"/>
<path d="M235 74C235 74 256.626 62.8148 271 61" stroke="#BBECF9" stroke-width="0.5" stroke-miterlimit="10" stroke-linejoin="round" stroke-dasharray="1 1"/>
<path d="M247.24 147.376L237 130L242.601 144.556L240.862 141.737L242.277 146.141L240.282 145.12L244.341 150.76L239.702 148.504L244.231 153.766L240.282 152.452L245.5 156.964H243.059L246.08 158.656L241.442 157.528C241.442 157.528 244.642 161.532 250 160.94L247.24 147.376Z" fill="#BBECF9"/>
<path d="M190.704 145.898L193.83 147.562L213 111.641L210.14 109.9L190.704 145.898Z" fill="#B2B2B2" stroke="black" stroke-width="0.5" stroke-miterlimit="10"/>
<path d="M193.982 147.516L190.665 145.745L190.144 146.722L193.461 148.493L193.982 147.516Z" fill="#4D4D4D" stroke="black" stroke-width="0.5" stroke-miterlimit="10"/>
<path d="M190.461 146.893L189.597 147.734L192.918 149.505L193.084 148.291L190.461 146.893Z" fill="#4D4D4D" stroke="black" stroke-width="0.5" stroke-miterlimit="10"/>
<path d="M190.635 148.279L190.535 148.467L191.704 149.091L191.804 148.904L190.635 148.279Z" fill="#4D4D4D" stroke="black" stroke-width="0.5" stroke-miterlimit="10"/>
<path d="M193.084 148.291L191.805 148.913L191.799 147.61L190.633 148.285L190.461 146.893L193.084 148.291Z" fill="#4D4D4D" stroke="black" stroke-width="0.5" stroke-miterlimit="10" stroke-linecap="round" stroke-linejoin="round"/>
<path d="M213.219 111.286L193.883 147.468L194.055 147.556L193.451 148.694L193.131 148.522L192.989 149.552L191.876 148.96L191.776 149.15L190.609 148.522L190.71 148.332L189.674 147.781L190.402 147.065L189.999 146.852L190.603 145.714L190.757 145.797L210.359 109.539L213.219 111.286Z" stroke="black" stroke-width="1.5" stroke-miterlimit="10" stroke-linecap="round" stroke-linejoin="round"/>
<path d="M270.534 352.93C270.516 352.871 270.463 352.83 270.398 352.824H270.392C270.333 352.824 270.279 352.859 270.256 352.919L269.782 354.097L269.634 351.995C269.628 351.924 269.575 351.864 269.504 351.858C269.498 351.858 269.492 351.858 269.486 351.858C269.421 351.858 269.362 351.9 269.344 351.965L268.93 353.292L268.728 351.029C268.722 350.988 268.699 350.946 268.663 350.923C268.639 350.905 268.61 350.899 268.58 350.899C268.568 350.899 268.551 350.899 268.539 350.905L268.19 351.006C268.308 350.017 268.782 345.983 268.835 343.182C269.196 343.277 270.025 343.46 270.96 343.46C271.452 343.46 271.902 343.407 272.31 343.306C272.44 344.129 273.038 347.926 273.287 350.579L272.796 350.313C272.772 350.301 272.748 350.295 272.724 350.295C272.695 350.295 272.665 350.301 272.642 350.319C272.594 350.348 272.571 350.402 272.576 350.455L272.713 351.971L272.464 351.13C272.446 351.065 272.387 351.023 272.322 351.023C272.31 351.023 272.304 351.023 272.292 351.023C272.215 351.035 272.168 351.106 272.174 351.183L272.423 353.736L271.641 352.557C271.611 352.516 271.57 352.492 271.517 352.492C271.505 352.492 271.499 352.492 271.487 352.492C271.428 352.504 271.381 352.551 271.369 352.611L271.014 354.601L270.534 352.93Z" fill="#BBECF9"/>
<path d="M268.983 343.36C269.409 343.46 270.149 343.602 270.966 343.602C271.404 343.602 271.819 343.561 272.192 343.478C272.357 344.508 272.867 347.825 273.115 350.307L272.872 350.171C272.831 350.147 272.778 350.135 272.73 350.135C272.671 350.135 272.618 350.153 272.571 350.182C272.482 350.242 272.428 350.348 272.44 350.455L272.482 350.905C272.44 350.881 272.387 350.864 272.334 350.864C272.316 350.864 272.298 350.864 272.275 350.869C272.127 350.899 272.02 351.035 272.038 351.189L272.227 353.15L271.777 352.469C271.724 352.386 271.629 352.338 271.529 352.338C271.511 352.338 271.487 352.338 271.469 352.344C271.351 352.368 271.262 352.463 271.238 352.581L270.99 353.955L270.676 352.883C270.641 352.765 270.534 352.676 270.404 352.67C270.398 352.67 270.392 352.67 270.392 352.67C270.273 352.67 270.161 352.741 270.12 352.854L269.889 353.428L269.788 351.971C269.776 351.829 269.67 351.716 269.527 351.699C269.516 351.699 269.504 351.699 269.492 351.699C269.362 351.699 269.249 351.782 269.208 351.906L269.018 352.516L268.882 351C268.876 350.911 268.829 350.834 268.752 350.781C268.705 350.745 268.645 350.727 268.586 350.727C268.557 350.727 268.533 350.733 268.503 350.739L268.367 350.781C268.515 349.549 268.918 345.977 268.983 343.36ZM268.693 342.98C268.657 346.196 268.018 351.201 268.018 351.201L268.586 351.035L268.853 354.044L269.486 352.007L269.676 354.755L270.386 352.978L271.055 355.252L271.523 352.646L272.63 354.322L272.322 351.177L272.991 353.452L272.724 350.443L273.459 350.846C273.192 347.837 272.428 343.123 272.428 343.123C271.949 343.265 271.44 343.312 270.96 343.312C269.747 343.306 268.693 342.98 268.693 342.98Z" fill="black"/>
<path d="M90.5162 446.95C90.4984 446.891 90.4451 446.849 90.38 446.843H90.3741C90.3149 446.843 90.2616 446.879 90.2379 446.938L89.7643 448.117L89.6163 446.014C89.6104 445.943 89.5571 445.884 89.486 445.878C89.4801 445.878 89.4742 445.878 89.4683 445.878C89.4032 445.878 89.3439 445.919 89.3262 445.985L88.9118 447.311L88.7105 445.049C88.7046 445.007 88.6809 444.966 88.6454 444.942C88.6217 444.924 88.5921 444.919 88.5625 444.919C88.5506 444.919 88.5329 444.919 88.521 444.924L88.1718 445.025C88.2902 444.036 88.7638 440.003 88.817 437.201C89.1782 437.296 90.007 437.48 90.9425 437.48C91.4338 437.48 91.8838 437.426 92.2923 437.326C92.4225 438.149 93.0205 441.945 93.2691 444.599L92.7777 444.332C92.7541 444.32 92.7304 444.314 92.7067 444.314C92.6771 444.314 92.6475 444.32 92.6238 444.338C92.5764 444.368 92.5528 444.421 92.5587 444.474L92.6948 445.991L92.4462 445.15C92.4284 445.084 92.3692 445.043 92.3041 445.043C92.2923 445.043 92.2864 445.043 92.2745 445.043C92.1976 445.055 92.1502 445.126 92.1561 445.203L92.4048 447.755L91.6233 446.577C91.5937 446.535 91.5523 446.512 91.499 446.512C91.4871 446.512 91.4812 446.512 91.4694 446.512C91.4102 446.524 91.3628 446.571 91.351 446.63L90.9957 448.62L90.5162 446.95Z" fill="#BBECF9"/>
<path d="M88.965 437.379C89.3913 437.48 90.1313 437.622 90.9483 437.622C91.3864 437.622 91.8008 437.58 92.1738 437.497C92.3396 438.528 92.8488 441.845 93.0974 444.326L92.8547 444.19C92.8132 444.166 92.7599 444.155 92.7126 444.155C92.6534 444.155 92.6001 444.172 92.5527 444.202C92.4639 444.261 92.4107 444.368 92.4225 444.474L92.4639 444.925C92.4225 444.901 92.3692 444.883 92.3159 444.883C92.2982 444.883 92.2804 444.883 92.2567 444.889C92.1087 444.919 92.0022 445.055 92.0199 445.209L92.2094 447.169L91.7594 446.488C91.7061 446.405 91.6114 446.358 91.5107 446.358C91.493 446.358 91.4693 446.358 91.4516 446.364C91.3331 446.387 91.2443 446.482 91.2207 446.601L90.972 447.975L90.6582 446.903C90.6227 446.784 90.5162 446.695 90.3859 446.689C90.38 446.689 90.3741 446.689 90.3741 446.689C90.2556 446.689 90.1431 446.761 90.1017 446.873L89.8708 447.448L89.7702 445.991C89.7583 445.848 89.6518 445.736 89.5097 445.718C89.4978 445.718 89.486 445.718 89.4742 445.718C89.3439 445.718 89.2314 445.801 89.19 445.925L89.0005 446.535L88.8644 445.019C88.8585 444.93 88.8111 444.853 88.7341 444.8C88.6868 444.765 88.6276 444.747 88.5684 444.747C88.5388 444.747 88.5151 444.753 88.4855 444.759L88.3493 444.8C88.4973 443.568 88.8999 439.997 88.965 437.379ZM88.6749 437C88.6394 440.216 88 445.221 88 445.221L88.5684 445.055L88.8348 448.064L89.4683 446.026L89.6577 448.774L90.3681 446.997L91.0371 449.272L91.5049 446.666L92.612 448.342L92.3041 445.197L92.9731 447.471L92.7067 444.463L93.4408 444.865C93.1744 441.857 92.4106 437.142 92.4106 437.142C91.9311 437.284 91.422 437.332 90.9424 437.332C89.7288 437.326 88.6749 437 88.6749 437Z" fill="black"/>
<path d="M249.623 160.036L253.098 159.343L245.171 119.4L241.855 119.868L249.623 160.036Z" fill="#B2B2B2" stroke="black" stroke-width="0.5" stroke-miterlimit="10"/>
<path d="M253.166 159.197L249.479 159.93L249.695 161.016L253.382 160.284L253.166 159.197Z" fill="#4D4D4D" stroke="black" stroke-width="0.5" stroke-miterlimit="10"/>
<path d="M250.067 160.96L249.931 162.156L253.619 161.421L252.98 160.385L250.067 160.96Z" fill="#4D4D4D" stroke="black" stroke-width="0.5" stroke-miterlimit="10"/>
<path d="M252.371 161.652L251.07 161.911L251.112 162.12L252.412 161.861L252.371 161.652Z" fill="#4D4D4D" stroke="black" stroke-width="0.5" stroke-miterlimit="10"/>
<path d="M252.98 160.385L252.382 161.67L251.553 160.663L251.085 161.931L250.067 160.96L252.98 160.385Z" fill="#4D4D4D" stroke="black" stroke-width="0.5" stroke-miterlimit="10" stroke-linecap="round" stroke-linejoin="round"/>
<path d="M245.112 118.986L253.074 159.236L253.27 159.195L253.518 160.456L253.163 160.527L253.708 161.416L252.471 161.658L252.512 161.872L251.21 162.126L251.168 161.919L250.02 162.15L250.132 161.131L249.682 161.22L249.433 159.959L249.599 159.923L241.796 119.453L245.112 118.986Z" stroke="black" stroke-width="1.5" stroke-miterlimit="10" stroke-linecap="round" stroke-linejoin="round"/>
<path d="M266.857 216.642L270.391 216.44L268.071 175.787H264.726L266.857 216.642Z" fill="#B2B2B2" stroke="black" stroke-width="0.5" stroke-miterlimit="10"/>
<path d="M270.497 216.338L266.744 216.552L266.807 217.658L270.56 217.444L270.497 216.338Z" fill="#4D4D4D" stroke="black" stroke-width="0.5" stroke-miterlimit="10"/>
<path d="M267.165 217.625L266.869 218.786L270.622 218.572L270.131 217.453L267.165 217.625Z" fill="#4D4D4D" stroke="black" stroke-width="0.5" stroke-miterlimit="10"/>
<path d="M269.37 218.663L268.046 218.739L268.058 218.951L269.382 218.875L269.37 218.663Z" fill="#4D4D4D" stroke="black" stroke-width="0.5" stroke-miterlimit="10"/>
<path d="M270.131 217.453L269.361 218.643L268.68 217.536L268.041 218.72L267.165 217.625L270.131 217.453Z" fill="#4D4D4D" stroke="black" stroke-width="0.5" stroke-miterlimit="10" stroke-linecap="round" stroke-linejoin="round"/>
<path d="M268.071 175.367L270.386 216.328L270.581 216.316L270.652 217.601L270.291 217.625L270.711 218.578L269.45 218.649L269.462 218.863L268.136 218.94L268.124 218.72L266.952 218.792L267.206 217.797L266.75 217.826L266.674 216.541L266.851 216.529L264.726 175.367H268.071Z" stroke="black" stroke-width="1.5" stroke-miterlimit="10" stroke-linecap="round" stroke-linejoin="round"/>
<path d="M275 305H266V306H275V305Z" stroke="black" stroke-width="1.5" stroke-miterlimit="10" stroke-linecap="round" stroke-linejoin="round"/>
<path d="M269.302 278.364L272.843 278.234L271.356 237.545L268.006 237.474L269.302 278.364Z" fill="#B2B2B2" stroke="black" stroke-width="0.5" stroke-miterlimit="10"/>
<path d="M272.942 278.105L269.186 278.243L269.226 279.349L272.983 279.212L272.942 278.105Z" fill="#4D4D4D" stroke="black" stroke-width="0.5" stroke-miterlimit="10"/>
<path d="M269.592 279.353L269.273 280.514L273.032 280.372L272.564 279.241L269.592 279.353Z" fill="#4D4D4D" stroke="black" stroke-width="0.5" stroke-miterlimit="10"/>
<path d="M271.764 280.4L270.438 280.448L270.446 280.661L271.771 280.612L271.764 280.4Z" fill="#4D4D4D" stroke="black" stroke-width="0.5" stroke-miterlimit="10"/>
<path d="M272.564 279.241L271.771 280.419L271.108 279.294L270.445 280.467L269.592 279.353L272.564 279.241Z" fill="#4D4D4D" stroke="black" stroke-width="0.5" stroke-miterlimit="10" stroke-linecap="round" stroke-linejoin="round"/>
<path d="M271.362 237.125L272.837 278.127L273.032 278.121L273.079 279.401L272.718 279.418L273.115 280.378L271.854 280.425L271.86 280.638L270.54 280.686L270.528 280.473L269.355 280.514L269.628 279.531L269.172 279.543L269.125 278.263L269.296 278.258L268.017 237.054L271.362 237.125Z" stroke="black" stroke-width="1.5" stroke-miterlimit="10" stroke-linecap="round" stroke-linejoin="round"/>
<path d="M268.924 342.536L272.47 342.548L272.606 301.83L269.261 301.628L268.924 342.536Z" fill="#B2B2B2" stroke="black" stroke-width="0.5" stroke-miterlimit="10"/>
<path d="M272.58 342.437L268.821 342.425L268.817 343.533L272.577 343.545L272.58 342.437Z" fill="#4D4D4D" stroke="black" stroke-width="0.5" stroke-miterlimit="10"/>
<path d="M269.178 343.531L268.811 344.68L272.571 344.692L272.15 343.543L269.178 343.531Z" fill="#4D4D4D" stroke="black" stroke-width="0.5" stroke-miterlimit="10"/>
<path d="M269.985 344.681L269.984 344.894L271.31 344.899L271.311 344.686L269.985 344.681Z" fill="#4D4D4D" stroke="black" stroke-width="0.5" stroke-miterlimit="10"/>
<path d="M272.15 343.543L271.31 344.686L270.694 343.537L269.983 344.68L269.178 343.531L272.15 343.543Z" fill="#4D4D4D" stroke="black" stroke-width="0.5" stroke-miterlimit="10" stroke-linecap="round" stroke-linejoin="round"/>
<path d="M272.63 301.409L272.47 342.435H272.665L272.659 343.721H272.298L272.659 344.698L271.392 344.692V344.911L270.066 344.905V344.692L268.894 344.686L269.208 343.709H268.746L268.752 342.424H268.93L269.291 301.208L272.63 301.409Z" stroke="black" stroke-width="1.5" stroke-miterlimit="10" stroke-linecap="round" stroke-linejoin="round"/>
<path d="M271 286V296" stroke="#BBECF9" stroke-width="0.75" stroke-miterlimit="10" stroke-linejoin="round"/>
<path d="M269 234L267 225" stroke="black" stroke-width="0.5" stroke-miterlimit="10" stroke-linecap="round" stroke-linejoin="round"/>
<path d="M270 234V220" stroke="black" stroke-width="0.5" stroke-miterlimit="10" stroke-linecap="round" stroke-linejoin="round"/>
<path d="M272 234V225" stroke="black" stroke-width="0.5" stroke-miterlimit="10" stroke-linecap="round" stroke-linejoin="round"/>
<path d="M288 45.3327L291.13 44L293 47.0151L290.894 50L288 45.3327Z" fill="#DADADA" stroke="black" stroke-width="0.5" stroke-miterlimit="10"/>
<path d="M274.583 59L273 62L277 61.9273L274.583 59Z" fill="#4D4D4D" stroke="black" stroke-width="0.5" stroke-miterlimit="10" stroke-linecap="round" stroke-linejoin="round"/>
<path d="M273 63L274.823 59L277 62.5528L273 63Z" stroke="black" stroke-width="1.5" stroke-miterlimit="10" stroke-linecap="round" stroke-linejoin="round"/>
<path d="M273 63L270 64.6181L271.115 67L273 63Z" fill="#4D4D4D" stroke="black" stroke-width="0.5" stroke-miterlimit="10" stroke-linecap="round" stroke-linejoin="round"/>
<path d="M280.78 52H283L280.487 37C280.487 37 276.954 40.6567 280.78 52Z" fill="#DADADA" stroke="black" stroke-width="0.5" stroke-miterlimit="10"/>
<path d="M270 64.603L273 63L271.324 67L270 64.603Z" stroke="black" stroke-width="1.5" stroke-miterlimit="10" stroke-linecap="round" stroke-linejoin="round"/>
<path d="M280.782 52H283L280.49 37C280.484 37 276.954 40.6567 280.782 52Z" stroke="black" stroke-width="1.5" stroke-miterlimit="10" stroke-linecap="round" stroke-linejoin="round"/>
<path d="M284.432 55.5896L284 53.323L299 53C299 53 296.155 57.324 284.432 55.5896Z" fill="#DADADA" stroke="black" stroke-width="0.5" stroke-miterlimit="10"/>
<path d="M284.432 55.5918L284 53.3232L299 53C299 52.994 296.15 57.3216 284.432 55.5918Z" stroke="black" stroke-width="1.5" stroke-miterlimit="10" stroke-linecap="round" stroke-linejoin="round"/>
<path d="M280.693 52L284 55.0829L276.831 62L275.5 59L280.693 52Z" fill="#DADADA" stroke="black" stroke-width="0.5" stroke-miterlimit="10"/>
<path d="M281.027 53L284 56.0829L277.55 63L275 59.3942L281.027 53Z" stroke="black" stroke-width="1.5" stroke-miterlimit="10" stroke-linecap="round" stroke-linejoin="round"/>
<path d="M288 45.3374L291.124 44L293 47.0181L290.894 50L288 45.3374Z" stroke="black" stroke-width="1.5" stroke-miterlimit="10" stroke-linecap="round" stroke-linejoin="round"/>
<text fill="white" xml:space="preserve" style="white-space: pre" font-family="Roboto" font-size="11" font-weight="bold" letter-spacing="0em"><tspan x="36.4014" y="184.26">Primera etapa</tspan></text>
<text fill="white" xml:space="preserve" style="white-space: pre" font-family="Roboto" font-size="11" font-weight="bold" letter-spacing="0em"><tspan x="22.1699" y="327.26">Lanzamiento</tspan></text>
<text fill="white" xml:space="preserve" style="white-space: pre" font-family="Roboto" font-size="11" font-weight="bold" letter-spacing="0em"><tspan x="74.2119" y="123.26">Segunda etapa</tspan></text>
<text fill="white" xml:space="preserve" style="white-space: pre" font-family="Roboto" font-size="11" font-weight="bold" letter-spacing="0em"><tspan x="152.633" y="76.2598">Propulsi&#xf3;n</tspan></text>
<text fill="white" xml:space="preserve" style="white-space: pre" font-family="Roboto" font-size="11" font-weight="bold" letter-spacing="0em"><tspan x="288" y="73.2598">Lanzamiento</tspan></text>
<text fill="white" xml:space="preserve" style="white-space: pre" font-family="Roboto" font-size="9" letter-spacing="0em"><tspan x="53.96" y="196.576">3 minutos de </tspan><tspan x="29.2363" y="207.576">m&#xe1;xima propulsi&#xf3;n</tspan></text>
<text fill="white" xml:space="preserve" style="white-space: pre" font-family="Roboto" font-size="9" letter-spacing="0em"><tspan x="62.2559" y="135.576">Separaci&#xf3;n de partes</tspan></text>
<text fill="white" xml:space="preserve" style="white-space: pre" font-family="Roboto" font-size="11" font-weight="bold" letter-spacing="0em"><tspan x="287" y="126.26">Tercera etapa</tspan></text>
<text fill="white" xml:space="preserve" style="white-space: pre" font-family="Roboto" font-size="9" letter-spacing="0em"><tspan x="287" y="139.576">El cuerpo principal </tspan><tspan x="287" y="150.576">vuelve a la tierra</tspan></text>
<text fill="white" xml:space="preserve" style="white-space: pre" font-family="Roboto" font-size="9" letter-spacing="0em"><tspan x="288" y="85.5762">Colocaci&#xf3;n del </tspan><tspan x="288" y="96.5762">material transportado</tspan></text>
<text fill="white" xml:space="preserve" style="white-space: pre" font-family="Roboto" font-size="11" font-weight="bold" letter-spacing="0em"><tspan x="287" y="182.26">Cuarta etapa</tspan></text>
<text fill="white" xml:space="preserve" style="white-space: pre" font-family="Roboto" font-size="9" letter-spacing="0em"><tspan x="287" y="195.576">Entrada a la atm&#xf3;sfera</tspan></text>
<text fill="white" xml:space="preserve" style="white-space: pre" font-family="Roboto" font-size="11" font-weight="bold" letter-spacing="0em"><tspan x="287" y="246.26">Quinta etapa</tspan></text>
<text fill="white" xml:space="preserve" style="white-space: pre" font-family="Roboto" font-size="9" letter-spacing="0em"><tspan x="287" y="259.576">Ca&#xed;da libre</tspan></text>
<text fill="white" xml:space="preserve" style="white-space: pre" font-family="Roboto" font-size="11" font-weight="bold" letter-spacing="0em"><tspan x="287" y="287.26">Sexta etapa</tspan></text>
<text fill="white" xml:space="preserve" style="white-space: pre" font-family="Roboto" font-size="9" letter-spacing="0em"><tspan x="287" y="300.576">Motores encedidos y </tspan><tspan x="287" y="311.576">control de trayectoria</tspan></text>
<text fill="#BBECF9" xml:space="preserve" style="white-space: pre" font-family="Roboto" font-size="11" font-weight="bold" letter-spacing="0em"><tspan x="286" y="339.26">S&#xe9;ptima etapa</tspan></text>
<text fill="white" xml:space="preserve" style="white-space: pre" font-family="Roboto" font-size="9" letter-spacing="0em"><tspan x="286" y="352.576">Despliegue de </tspan><tspan x="286" y="363.576">patas y aterrizaje</tspan></text>
<path d="M139.576 156.654L142.217 159.011L169.308 128.616L166.94 126.247L139.576 156.654Z" fill="#B2B2B2" stroke="black" stroke-width="0.5" stroke-miterlimit="10"/>
<path d="M142.389 158.997L139.583 156.494L138.846 157.321L141.653 159.824L142.389 158.997Z" fill="#4D4D4D" stroke="black" stroke-width="0.5" stroke-miterlimit="10"/>
<path d="M139.102 157.566L138.066 158.176L140.879 160.681L141.323 159.544L139.102 157.566Z" fill="#4D4D4D" stroke="black" stroke-width="0.5" stroke-miterlimit="10"/>
<path d="M138.941 158.943L138.799 159.103L139.789 159.985L139.931 159.826L138.941 158.943Z" fill="#4D4D4D" stroke="black" stroke-width="0.5" stroke-miterlimit="10"/>
<path d="M141.323 159.544L139.937 159.84L140.233 158.573L138.943 158.958L139.102 157.566L141.323 159.544Z" fill="#4D4D4D" stroke="black" stroke-width="0.5" stroke-miterlimit="10" stroke-linecap="round" stroke-linejoin="round"/>
<path d="M169.604 128.32L142.294 158.928L142.442 159.058L141.583 160.018L141.317 159.775L140.938 160.746L139.996 159.905L139.848 160.065L138.86 159.183L139.002 159.023L138.126 158.241L139.008 157.72L138.664 157.412L139.517 156.452L139.647 156.571L167.236 125.951L169.604 128.32Z" stroke="black" stroke-width="1.5" stroke-miterlimit="10" stroke-linecap="round" stroke-linejoin="round"/>
<text fill="white" xml:space="preserve" style="white-space: pre" font-family="Roboto" font-size="7" letter-spacing="0em"><tspan x="173" y="226.393">ATM&#xd3;SFERA</tspan></text>
<circle cx="91" cy="456" r="2" fill="white"/>
<circle cx="101.5" cy="450.5" r="5.15" stroke="#BBECF9" stroke-width="0.7" stroke-dasharray="2 2"/>
<text fill="white" xml:space="preserve" style="white-space: pre" font-family="Roboto" font-size="9" font-weight="bold" letter-spacing="0em"><tspan x="6.19043" y="504.133">CABO CA&#xd1;AVERAL</tspan></text>
<text fill="white" xml:space="preserve" style="white-space: pre" font-family="Roboto" font-size="9" letter-spacing="0em"><tspan x="23.4609" y="493.133">Florida, E.E.U.U&#10;</tspan></text>
<text fill="white" xml:space="preserve" style="white-space: pre" font-family="Roboto" font-size="9" letter-spacing="0em"><tspan x="286" y="493.576">Puerto Ca&#xf1;averal&#10;</tspan></text>
<text fill="white" xml:space="preserve" style="white-space: pre" font-family="Roboto" font-size="9" font-weight="bold" letter-spacing="0em"><tspan x="286" y="504.576">PLATAFORMA FLOTANTE</tspan></text>
<path d="M383 513.5H283.5L260.5 477" stroke="#BBECF9" stroke-width="0.660377"/>
<text fill="#BBECF9" xml:space="preserve" style="white-space: pre" font-family="Roboto" font-size="5" font-weight="600" letter-spacing="0em"><tspan x="273" y="444.709">91m</tspan></text>
<text fill="#BBECF9" xml:space="preserve" style="white-space: pre" font-family="Roboto" font-size="5" font-weight="600" letter-spacing="0em"><tspan x="221" y="436.709">52m</tspan></text>
<path d="M269.971 378.749V385.953" stroke="white" stroke-opacity="0.51" stroke-width="1.0291" stroke-miterlimit="10" stroke-linecap="round" stroke-linejoin="round"/>
<path d="M232.953 419.724V422.876L235.204 421.975L232.953 419.724Z" fill="#DADADA" stroke="black" stroke-width="0.356964" stroke-miterlimit="10" stroke-linecap="round" stroke-linejoin="round"/>
<path d="M228 423.326L234.754 421.975L232.953 419.724L293.29 408.917L295.091 411.168L298.693 410.268L309.5 424.677L304.547 425.577L306.798 428.729L246.345 439.722L244.154 436.753L238.356 438.185L228 423.326Z" fill="#DADADA" stroke="black" stroke-width="0.356964" stroke-miterlimit="10" stroke-linecap="round" stroke-linejoin="round"/>
<path d="M238.308 437.284L238.356 440.887L228 426.478V423.326L238.308 437.284Z" fill="#DADADA" stroke="black" stroke-width="0.356964" stroke-miterlimit="10" stroke-linecap="round" stroke-linejoin="round"/>
<path d="M246.933 439.487V442.89L244.469 439.487V436.229L246.933 439.487Z" fill="#DADADA" stroke="black" stroke-width="0.356964" stroke-miterlimit="10" stroke-linecap="round" stroke-linejoin="round"/>
<path d="M238.356 440.887L244.469 439.585V436.194L238.308 437.362L238.356 440.887Z" fill="#DADADA" stroke="black" stroke-width="0.356964" stroke-miterlimit="10" stroke-linecap="round" stroke-linejoin="round"/>
<path d="M306.798 428.729V432.331L246.933 442.89V439.292L306.798 428.729Z" fill="#DADADA" stroke="black" stroke-width="0.356964" stroke-miterlimit="10" stroke-linecap="round" stroke-linejoin="round"/>
<path d="M309.5 428.279V424.677L304.547 425.577L306.798 428.729L309.5 428.279Z" fill="#DADADA" stroke="black" stroke-width="0.356964" stroke-miterlimit="10" stroke-linecap="round" stroke-linejoin="round"/>
<path d="M270.036 431.8C278.373 431.8 285.131 428.352 285.131 424.099C285.131 419.846 278.373 416.398 270.036 416.398C261.7 416.398 254.942 419.846 254.942 424.099C254.942 428.352 261.7 431.8 270.036 431.8Z" stroke="black" stroke-width="0.356964" stroke-miterlimit="10" stroke-linecap="round" stroke-linejoin="round"/>
<path d="M270 429C276.075 429 281 426.538 281 423.5C281 420.462 276.075 418 270 418C263.925 418 259 420.462 259 423.5C259 426.538 263.925 429 270 429Z" stroke="black" stroke-width="0.356964" stroke-miterlimit="10" stroke-linecap="round" stroke-linejoin="round" stroke-dasharray="0.71 0.71"/>
<path d="M268.048 415.221L258.169 425.127L268.075 419.79" fill="#B2B2B2"/>
<path d="M268.048 415.221L258.169 425.127L268.075 419.79" stroke="black" stroke-width="0.643287" stroke-miterlimit="10" stroke-linecap="round" stroke-linejoin="round"/>
<path d="M271.677 415.221L281.583 425.127L271.771 419.856" fill="#B2B2B2"/>
<path d="M271.677 415.221L281.583 425.127L271.771 419.856" stroke="black" stroke-width="0.643287" stroke-miterlimit="10" stroke-linecap="round" stroke-linejoin="round"/>
<path d="M267.751 419.754L271.712 419.814V374H267.751V419.754Z" fill="#B2B2B2" stroke="black" stroke-width="0.559388" stroke-miterlimit="10"/>
<path d="M271.861 419.676L267.656 419.616L267.638 420.855L271.843 420.915L271.861 419.676Z" fill="#4D4D4D" stroke="black" stroke-width="0.559388" stroke-miterlimit="10"/>
<path d="M268.022 420.874L267.592 422.153L271.804 422.213L271.347 420.921L268.022 420.874Z" fill="#4D4D4D" stroke="black" stroke-width="0.559388" stroke-miterlimit="10"/>
<path d="M268.89 422.154L268.887 422.392L270.371 422.413L270.374 422.175L268.89 422.154Z" fill="#4D4D4D" stroke="black" stroke-width="0.559388" stroke-miterlimit="10"/>
<path d="M271.347 420.921L270.394 422.193L269.718 420.901L268.91 422.173L268.022 420.874L271.347 420.921Z" fill="#4D4D4D" stroke="black" stroke-width="0.241233" stroke-miterlimit="10" stroke-linecap="round" stroke-linejoin="round"/>
<path d="M271.718 419.688V374H267.757V419.635L267.559 419.629L267.539 421.066L268.055 421.073L267.691 422.16L269.003 422.18V422.418L270.486 422.445V422.199L271.897 422.219L271.506 421.126L271.917 421.133L271.937 419.695L271.718 419.688Z" stroke="black" stroke-width="0.562876" stroke-miterlimit="10" stroke-linecap="round" stroke-linejoin="round"/>
<path d="M321 426C321 454.719 297.719 478 269 478C240.281 478 217 454.719 217 426C217 397.281 240.281 374 269 374C297.719 374 321 397.281 321 426Z" stroke="#BBECF9" stroke-width="2"/>
<path d="M91 456.5V514H11" stroke="white" stroke-width="0.5"/>
<path d="M101.5 445.5L233 389.5" stroke="#BBECF9" stroke-width="0.7" stroke-dasharray="2 2"/>
<path d="M102.5 455.5L242.5 471" stroke="#BBECF9" stroke-width="0.7" stroke-dasharray="2 2"/>
</g>
<defs>
<clipPath id="clip0_100_1028">
<rect width="391" height="557" fill="white"/>
</clipPath>
</defs>
</svg>
