<svg width="391" height="391" viewBox="0 0 391 391" fill="none" xmlns="http://www.w3.org/2000/svg">
<g clip-path="url(#clip0_118_34)">
<path d="M71 299.779L79.7795 300.736C79.7795 300.736 91.4856 302.298 95.7778 299.564C100.07 296.831 103.699 298.393 106.372 299.564C109.045 300.736 109.306 300.443 111.124 299.611C112.947 298.783 115.179 299.67 116.014 301.177C116.849 302.685 117.629 302.294 118.8 302.684C119.97 303.075 118.8 304.246 118.409 305.418C118.019 306.589 118.8 306.199 119.97 306.199C121.141 306.199 119.19 306.589 119.19 307.761C119.19 308.932 120.751 309.323 121.531 308.932C122.311 308.542 122.311 309.323 122.311 309.713C122.311 310.104 121.921 312.056 122.702 312.056C123.482 312.056 125.433 311.666 125.433 312.837C125.433 314.009 126.604 315.571 127.774 314.79C128.945 314.009 128.945 312.837 129.725 312.837C130.506 312.837 129.725 310.494 130.506 309.713C131.286 308.932 129.725 306.589 127.774 305.418C125.823 304.246 121.921 297.218 125.043 295.265C128.164 293.313 126.994 290.579 128.555 290.97C130.115 291.36 132.457 291.36 133.237 290.189C134.017 289.017 136.749 288.236 139.09 287.846C141.431 287.455 140.651 286.674 142.212 286.284C143.772 285.893 146.504 286.674 146.894 285.503C147.284 284.331 150.406 284.331 150.016 282.379C149.626 280.426 148.845 280.817 148.455 279.645C148.065 278.474 146.114 280.817 146.504 278.864C146.894 276.912 148.065 276.521 146.894 275.74C145.724 274.959 144.553 274.178 145.724 273.007C146.894 271.835 148.065 271.445 148.455 271.445C148.845 271.445 149.235 272.226 148.845 272.226C148.455 272.226 147.284 272.226 147.284 272.616C147.284 273.007 146.894 274.959 147.675 274.569C148.455 274.178 149.626 274.569 149.235 274.959C148.845 275.35 149.235 276.131 149.626 276.131C150.016 276.131 150.016 276.521 148.845 276.912C147.675 277.302 148.455 278.474 148.845 278.083C149.235 277.693 148.845 277.693 149.626 277.302C150.406 276.912 150.796 275.35 151.967 274.959C153.137 274.569 153.137 273.788 152.357 273.397C151.577 273.007 150.016 271.835 150.796 271.835C151.577 271.835 152.275 272.195 152.899 272.601C153.528 273.007 153.918 273.788 154.308 273.007C154.698 272.226 154.308 271.445 155.479 271.054C156.649 270.664 158.081 269.879 157.558 269.102C157.039 268.321 155.869 269.102 156.259 268.321C156.649 267.54 157.129 268.364 157.671 267.56C158.214 266.755 159.541 266.06 160.633 266.017C161.726 265.974 167.185 265.974 167.965 265.584C168.745 265.193 169.136 264.412 169.526 264.412C169.916 264.412 169.916 264.412 169.916 264.412C169.916 264.412 169.916 265.584 171.477 265.193C173.038 264.803 174.758 265.193 174.676 264.412C174.594 263.631 174.224 263.491 174.224 263.491C174.224 263.491 104 266.017 71 273.007L53 276.5L52 280L51 286.284L55 293L62 298L71 299.779Z" fill="#DADADA" stroke="black" stroke-width="0.330189" stroke-miterlimit="10"/>
<path d="M0 296C14 285.167 71.8 263.5 191 263.5C193.695 263.5 196.362 263.511 199 263.533M391 296C379.8 288.863 348.286 277.023 294 269.775" stroke="white"/>
<path d="M0 172.5C14 161.667 71.8 140 191 140C310.2 140 374 161.667 391 172.5" stroke="#4F5E78" stroke-dasharray="2 2"/>
<path d="M132.716 175.333C132.716 175.29 132.689 175.255 132.649 175.239C132.638 175.236 132.63 175.236 132.618 175.236C132.587 175.236 132.56 175.247 132.54 175.275L132.024 175.932L132.325 174.571C132.337 174.524 132.309 174.477 132.266 174.461C132.255 174.457 132.243 174.453 132.227 174.453C132.196 174.453 132.165 174.469 132.145 174.496L131.637 175.259L131.93 173.788C131.934 173.761 131.93 173.73 131.911 173.706C131.891 173.683 131.864 173.671 131.836 173.671H131.57C131.727 173.084 132.434 170.526 133.431 168.821C133.717 168.997 134.655 169.525 135.633 169.564C135.562 170.112 135.234 172.627 134.901 174.356L134.64 174.093C134.62 174.074 134.596 174.066 134.569 174.066C134.561 174.066 134.55 174.066 134.542 174.07C134.507 174.082 134.483 174.109 134.475 174.144L134.28 175.13V174.551C134.28 174.5 134.241 174.457 134.19 174.453C134.186 174.453 134.182 174.453 134.182 174.453C134.135 174.453 134.096 174.485 134.084 174.532L133.768 176.198L133.494 175.306C133.482 175.267 133.447 175.239 133.408 175.236C133.404 175.236 133.404 175.236 133.4 175.236C133.365 175.236 133.33 175.255 133.314 175.29L132.716 176.483V175.333V175.333Z" fill="#73D7F9"/>
<path d="M133.467 168.954C133.818 169.161 134.643 169.588 135.523 169.654C135.433 170.339 135.144 172.533 134.839 174.152L134.71 174.023C134.671 173.984 134.624 173.964 134.573 173.964C134.553 173.964 134.534 173.968 134.518 173.972C134.448 173.992 134.397 174.05 134.381 174.121L134.323 174.414C134.292 174.383 134.249 174.359 134.202 174.355C134.194 174.355 134.19 174.355 134.182 174.355C134.088 174.355 134.006 174.422 133.99 174.516L133.748 175.795L133.588 175.278C133.564 175.2 133.498 175.149 133.416 175.142C133.412 175.142 133.404 175.142 133.4 175.142C133.326 175.142 133.259 175.185 133.224 175.251L132.814 176.076V175.333C132.814 175.251 132.759 175.177 132.681 175.149C132.661 175.142 132.638 175.138 132.618 175.138C132.56 175.138 132.501 175.165 132.466 175.212L132.212 175.537L132.419 174.594C132.438 174.504 132.391 174.41 132.305 174.371C132.282 174.359 132.255 174.355 132.227 174.355C132.165 174.355 132.102 174.387 132.063 174.441L131.828 174.793L132.024 173.808C132.036 173.749 132.02 173.691 131.985 173.644C131.95 173.597 131.891 173.573 131.832 173.573H131.696C131.903 172.83 132.563 170.55 133.467 168.954ZM133.4 168.684C132.227 170.64 131.445 173.769 131.445 173.769H131.836L131.445 175.724L132.227 174.551L131.836 176.327L132.618 175.333V176.898L133.4 175.333L133.791 176.6L134.182 174.551V176.115L134.573 174.16L134.964 174.551C135.355 172.595 135.746 169.466 135.746 169.466C134.573 169.466 133.4 168.684 133.4 168.684Z" fill="black"/>
<path d="M132.716 175.333C132.716 175.29 132.689 175.255 132.649 175.239C132.638 175.236 132.63 175.236 132.618 175.236C132.587 175.236 132.56 175.247 132.54 175.275L132.024 175.932L132.325 174.571C132.337 174.524 132.309 174.477 132.266 174.461C132.255 174.457 132.243 174.453 132.227 174.453C132.196 174.453 132.165 174.469 132.145 174.496L131.637 175.259L131.93 173.788C131.934 173.761 131.93 173.73 131.911 173.706C131.891 173.683 131.864 173.671 131.836 173.671H131.57C131.727 173.084 132.434 170.526 133.431 168.821C133.717 168.997 134.655 169.525 135.633 169.564C135.562 170.112 135.234 172.627 134.901 174.356L134.64 174.093C134.62 174.074 134.596 174.066 134.569 174.066C134.561 174.066 134.55 174.066 134.542 174.07C134.507 174.082 134.483 174.109 134.475 174.144L134.28 175.13V174.551C134.28 174.5 134.241 174.457 134.19 174.453C134.186 174.453 134.182 174.453 134.182 174.453C134.135 174.453 134.096 174.485 134.084 174.532L133.768 176.198L133.494 175.306C133.482 175.267 133.447 175.239 133.408 175.236C133.404 175.236 133.404 175.236 133.4 175.236C133.365 175.236 133.33 175.255 133.314 175.29L132.716 176.483V175.333V175.333Z" fill="#BBECF9"/>
<path d="M133.467 168.954C133.818 169.161 134.643 169.588 135.523 169.654C135.433 170.339 135.144 172.533 134.839 174.152L134.71 174.023C134.671 173.984 134.624 173.964 134.573 173.964C134.553 173.964 134.534 173.968 134.518 173.972C134.448 173.992 134.397 174.05 134.381 174.121L134.323 174.414C134.292 174.383 134.249 174.359 134.202 174.355C134.194 174.355 134.19 174.355 134.182 174.355C134.088 174.355 134.006 174.422 133.99 174.516L133.748 175.795L133.588 175.278C133.564 175.2 133.498 175.149 133.416 175.142C133.412 175.142 133.404 175.142 133.4 175.142C133.326 175.142 133.259 175.185 133.224 175.251L132.814 176.076V175.333C132.814 175.251 132.759 175.177 132.681 175.149C132.661 175.142 132.638 175.138 132.618 175.138C132.56 175.138 132.501 175.165 132.466 175.212L132.212 175.537L132.419 174.594C132.438 174.504 132.391 174.41 132.305 174.371C132.282 174.359 132.255 174.355 132.227 174.355C132.165 174.355 132.102 174.387 132.063 174.441L131.828 174.793L132.024 173.808C132.036 173.749 132.02 173.691 131.985 173.644C131.95 173.597 131.891 173.573 131.832 173.573H131.696C131.903 172.83 132.563 170.55 133.467 168.954ZM133.4 168.684C132.227 170.64 131.445 173.769 131.445 173.769H131.836L131.445 175.724L132.227 174.551L131.836 176.327L132.618 175.333V176.898L133.4 175.333L133.791 176.6L134.182 174.551V176.115L134.573 174.16L134.964 174.551C135.355 172.595 135.746 169.466 135.746 169.466C134.573 169.466 133.4 168.684 133.4 168.684Z" fill="black"/>
<path d="M125.792 244.585C125.792 244.585 128.953 202.329 133.057 178.547" stroke="#BBECF9" stroke-width="0.495283" stroke-miterlimit="10" stroke-linejoin="round"/>
<path d="M187.276 79.2615L182.98 81.1469L183.922 83.296L188.219 81.4106L187.276 79.2615Z" fill="#B2B2B2" stroke="black" stroke-width="0.330189" stroke-miterlimit="10"/>
<path d="M187.276 79.3401L182.98 81.2255L183.922 83.3746L188.219 81.4892L187.276 79.3401Z" stroke="black" stroke-width="0.990566" stroke-miterlimit="10" stroke-linecap="round" stroke-linejoin="round"/>
<path d="M150.226 119.113C150.226 119.113 153.823 111.038 156.83 106.566" stroke="#BBECF9" stroke-width="0.495283" stroke-miterlimit="10" stroke-linejoin="round"/>
<path d="M128.434 255.151H123.811V296.755H128.434V255.151Z" fill="#B2B2B2" stroke="black" stroke-width="0.330189" stroke-miterlimit="10"/>
<path d="M128.434 252.509H123.811V255.151H128.434V252.509Z" fill="#DADADA" stroke="black" stroke-width="0.330189" stroke-miterlimit="10"/>
<path d="M128.434 251.189H123.811V252.509H128.434V251.189Z" fill="#DADADA" stroke="black" stroke-width="0.330189" stroke-miterlimit="10"/>
<path d="M124.472 255.811V252.679C124.472 252.679 124.192 252.298 123.812 252.679V255.408C123.806 255.411 123.845 255.604 124.472 255.811Z" fill="#DADADA" stroke="black" stroke-width="0.330189" stroke-miterlimit="10"/>
<path d="M127.774 255.811V252.686C127.774 252.686 128.129 252.289 128.434 252.686V255.5C128.439 255.5 128.271 255.8 127.774 255.811Z" fill="#DADADA" stroke="black" stroke-width="0.330189" stroke-miterlimit="10"/>
<path d="M123.811 251.189L124.628 249.208H127.617L128.434 251.189H123.811Z" fill="#DADADA" stroke="black" stroke-width="0.330189" stroke-miterlimit="10"/>
<path d="M124.472 249.208C124.472 247.887 126.123 247.887 126.123 247.887C126.123 247.887 127.774 247.887 127.774 249.208H124.472Z" fill="#DADADA" stroke="black" stroke-width="0.330189" stroke-miterlimit="10"/>
<path d="M125.788 296.755L125.132 297.415H126.453L125.788 296.755Z" fill="#4D4D4D" stroke="black" stroke-width="0.330189" stroke-miterlimit="10" stroke-linecap="round" stroke-linejoin="round"/>
<path d="M124.139 296.755L123.811 297.415H124.472L124.139 296.755Z" fill="#4D4D4D" stroke="black" stroke-width="0.330189" stroke-miterlimit="10" stroke-linecap="round" stroke-linejoin="round"/>
<path d="M128.103 296.755L127.774 297.415H128.434L128.103 296.755Z" fill="#4D4D4D" stroke="black" stroke-width="0.330189" stroke-miterlimit="10" stroke-linecap="round" stroke-linejoin="round"/>
<path d="M123.811 260.434H128.434" stroke="black" stroke-width="0.330189" stroke-miterlimit="10" stroke-linecap="round" stroke-linejoin="round"/>
<path d="M123.811 266.377H128.434" stroke="black" stroke-width="0.330189" stroke-miterlimit="10" stroke-linecap="round" stroke-linejoin="round"/>
<path d="M123.811 295.434H128.434" stroke="black" stroke-width="0.330189" stroke-miterlimit="10" stroke-linecap="round" stroke-linejoin="round"/>
<path d="M123.151 296.755H124.472L123.994 294.946C123.932 294.708 123.521 294.72 123.475 294.959L123.151 296.755Z" fill="#B2B2B2" stroke="black" stroke-width="0.330189" stroke-miterlimit="10"/>
<path d="M129.094 296.755H127.774L128.252 294.946C128.313 294.708 128.724 294.72 128.771 294.959L129.094 296.755Z" fill="#B2B2B2" stroke="black" stroke-width="0.330189" stroke-miterlimit="10"/>
<path d="M128.444 255.171L128.585 254.999V252.032C128.585 252.032 128.568 251.833 128.32 251.833V251.613L127.576 249.202C127.576 249.202 127.576 247.891 126.213 247.887C126.213 247.887 124.85 247.887 124.85 249.202L124.107 251.613V251.786C124.107 251.786 123.859 251.833 123.806 252.017V254.901L123.956 255.105V294.573C123.956 294.573 123.536 294.213 123.452 294.609L123.151 296.319H124.288L123.766 297.415H124.979L124.368 296.198H126.196L125.594 297.415H126.806L126.244 296.198H127.988L127.386 297.415H128.599L128.05 296.319H129.094L128.815 294.671C128.815 294.671 128.815 294.432 128.444 294.499V255.171Z" stroke="black" stroke-width="0.990566" stroke-miterlimit="10" stroke-linecap="round" stroke-linejoin="round"/>
<path d="M128.444 255.171L128.585 254.999V252.032C128.585 252.032 128.568 251.833 128.32 251.833V251.613L127.576 249.202C127.576 249.202 127.576 247.891 126.213 247.887C126.213 247.887 124.85 247.887 124.85 249.202L124.107 251.613V251.786C124.107 251.786 123.859 251.833 123.806 252.017V254.901L123.956 255.105V294.573C123.956 294.573 123.536 294.213 123.452 294.609L123.151 296.319H124.288L123.766 297.415H124.979L124.368 296.198H126.196L125.594 297.415H126.806L126.244 296.198H127.988L127.386 297.415H128.599L128.05 296.319H129.094L128.815 294.671C128.815 294.671 128.815 294.432 128.444 294.499V255.171Z" stroke="black" stroke-width="0.990566" stroke-miterlimit="10" stroke-linecap="round" stroke-linejoin="round"/>
<path d="M145.224 126.937L133.434 166.381L137.232 167.518L149.023 128.073L145.224 126.937Z" fill="#B2B2B2" stroke="black" stroke-width="0.330189" stroke-miterlimit="10"/>
<path d="M146.07 124.107L145.223 126.94L148.864 128.029L149.711 125.196L146.07 124.107Z" fill="#DADADA" stroke="black" stroke-width="0.330189" stroke-miterlimit="10"/>
<path d="M149.875 124.807L146.309 123.74L146.184 124.16L149.75 125.227L149.875 124.807Z" fill="#DADADA" stroke="black" stroke-width="0.330189" stroke-miterlimit="10"/>
<path d="M145.278 127.038L146.264 123.971C146.264 123.971 146.191 123.543 145.804 123.842L144.944 126.515C144.944 126.515 144.908 126.712 145.278 127.038Z" fill="#DADADA" stroke="black" stroke-width="0.330189" stroke-miterlimit="10"/>
<path d="M148.245 128.335L149.115 125.165C149.115 125.165 149.469 124.843 149.566 125.31L148.783 128.163C148.783 128.166 148.585 128.438 148.245 128.335Z" fill="#DADADA" stroke="black" stroke-width="0.330189" stroke-miterlimit="10"/>
<path d="M146.264 123.733L147.465 121.094L149.566 121.951L149.513 125.057L146.264 123.733Z" fill="#DADADA" stroke="black" stroke-width="0.330189" stroke-miterlimit="10"/>
<path d="M147.585 121.2C147.897 120.19 148.856 120.469 148.856 120.469C148.856 120.469 149.816 120.745 149.504 121.755L147.585 121.2Z" fill="#DADADA" stroke="black" stroke-width="0.330189" stroke-miterlimit="10"/>
<path d="M134.927 167.321L134.377 167.827L135.038 167.981L134.927 167.321Z" fill="#4D4D4D" stroke="black" stroke-width="0.330189" stroke-miterlimit="10" stroke-linecap="round" stroke-linejoin="round"/>
<path d="M133.609 166.66L133.057 167.675L133.717 167.981L133.609 166.66Z" fill="#4D4D4D" stroke="black" stroke-width="0.330189" stroke-miterlimit="10" stroke-linecap="round" stroke-linejoin="round"/>
<path d="M136.25 167.321L135.698 168.333L136.358 168.641L136.25 167.321Z" fill="#4D4D4D" stroke="black" stroke-width="0.330189" stroke-miterlimit="10" stroke-linecap="round" stroke-linejoin="round"/>
<path d="M143.623 131.66L146.925 132.321" stroke="black" stroke-width="0.330189" stroke-miterlimit="10" stroke-linecap="round" stroke-linejoin="round"/>
<path d="M141.641 137.604L145.604 138.925" stroke="black" stroke-width="0.330189" stroke-miterlimit="10" stroke-linecap="round" stroke-linejoin="round"/>
<path d="M133.717 165.34L137.019 166.66" stroke="black" stroke-width="0.330189" stroke-miterlimit="10" stroke-linecap="round" stroke-linejoin="round"/>
<path d="M133.057 166.36L133.639 166.66L133.717 164.904C133.726 164.672 133.544 164.591 133.485 164.798L133.057 166.36Z" fill="#B2B2B2" stroke="black" stroke-width="0.330189" stroke-miterlimit="10"/>
<path d="M137.415 167.981L136.359 167.676L137.265 166.11C137.385 165.904 137.711 166.011 137.677 166.242L137.415 167.981Z" fill="#B2B2B2" stroke="black" stroke-width="0.330189" stroke-miterlimit="10"/>
<path d="M148.58 128.037L148.745 127.908L149.555 125.06C149.555 125.06 149.593 124.864 149.395 124.801L149.454 124.589L149.51 122.087C149.51 122.087 149.869 120.827 148.767 120.478C148.767 120.478 147.665 120.129 147.307 121.392L146.048 123.518L145.999 123.683C145.999 123.683 145.786 123.663 145.693 123.828L144.905 126.598L144.972 126.833L134.185 164.731C134.185 164.731 133.946 164.279 133.766 164.636L133.057 166.202L133.976 166.492L133.255 167.41L134.237 167.72L134.076 166.394L135.556 166.857L134.737 167.873L135.72 168.183L135.597 166.872L137.005 167.316L136.187 168.332L137.169 168.642L137.023 167.449L137.868 167.716L138.092 166.064C138.092 166.064 138.155 165.837 137.838 165.805L148.58 128.037Z" stroke="black" stroke-width="0.990566" stroke-miterlimit="10" stroke-linecap="round" stroke-linejoin="round"/>
<path d="M148.58 128.037L148.745 127.908L149.555 125.06C149.555 125.06 149.593 124.864 149.395 124.801L149.454 124.589L149.51 122.087C149.51 122.087 149.869 120.827 148.767 120.478C148.767 120.478 147.665 120.129 147.307 121.392L146.048 123.518L145.999 123.683C145.999 123.683 145.786 123.663 145.693 123.828L144.905 126.598L144.972 126.833L134.185 164.731C134.185 164.731 133.946 164.279 133.766 164.636L133.057 166.202L133.976 166.492L133.255 167.41L134.237 167.72L134.076 166.394L135.556 166.857L134.737 167.873L135.72 168.183L135.597 166.872L137.005 167.316L136.187 168.332L137.169 168.642L137.023 167.449L137.868 167.716L138.092 166.064C138.092 166.064 138.155 165.837 137.838 165.805L148.58 128.037Z" stroke="black" stroke-width="0.990566" stroke-miterlimit="10" stroke-linecap="round" stroke-linejoin="round"/>
<path d="M212.302 53.0756L214.283 56.3774" stroke="black" stroke-width="0.330189" stroke-miterlimit="10"/>
<path d="M214.725 51.2798L212.153 52.7355L214.024 56.0445L216.596 54.5888L214.725 51.2798Z" fill="#DADADA" stroke="black" stroke-width="0.330189" stroke-miterlimit="10"/>
<path d="M217.007 54.4236L215.174 51.1827L214.793 51.3984L216.626 54.6393L217.007 54.4236Z" fill="#DADADA" stroke="black" stroke-width="0.330189" stroke-miterlimit="10"/>
<path d="M206.358 57.6066L207.53 59.6793L214.283 56.5826L212.417 53.0756L206.358 57.6066Z" fill="#DADADA" stroke="black" stroke-width="0.330189" stroke-miterlimit="10"/>
<path d="M212.304 53.0755L214.883 51.4875C214.883 51.4875 215.111 51.1287 214.68 51.0944L212.43 52.48C212.433 52.48 212.283 52.5983 212.304 53.0755Z" fill="#DADADA" stroke="black" stroke-width="0.330189" stroke-miterlimit="10"/>
<path d="M213.623 56.084L216.594 54.3962C216.594 54.3962 217.109 54.4288 216.853 54.8558L214.178 56.3727C214.178 56.3768 213.825 56.4256 213.623 56.084Z" fill="#DADADA" stroke="black" stroke-width="0.330189" stroke-miterlimit="10"/>
<path d="M214.943 51.0655L217.604 50.434L218.906 52.5901L216.959 54.3962L214.943 51.0655Z" fill="#DADADA" stroke="black" stroke-width="0.330189" stroke-miterlimit="10"/>
<path d="M206.352 57.0377L205.038 59.4591L207.679 59.6792L206.352 57.0377Z" fill="#4D4D4D" stroke="black" stroke-width="0.330189" stroke-miterlimit="10" stroke-linecap="round" stroke-linejoin="round"/>
<path d="M218.245 50.6744C219.043 49.9353 219.458 51.1358 219.458 51.1358C219.458 51.1358 219.873 52.3363 219.073 53.0755L218.245 50.6744Z" fill="#DADADA" stroke="black" stroke-width="0.330189" stroke-miterlimit="10"/>
<path d="M214.156 56.3538L214.366 56.3774L216.889 54.9157C216.889 54.9157 217.049 54.802 216.942 54.614L217.13 54.5042L218.861 52.7447C218.861 52.7447 219.977 52.0982 219.4 51.048C219.4 51.048 218.823 49.9978 217.703 50.6443L215.337 51.2596L215.192 51.3458C215.192 51.3458 215.046 51.1773 214.867 51.2282L212.413 52.6507L212.302 52.8662" stroke="black" stroke-width="0.990566" stroke-miterlimit="10" stroke-linecap="round" stroke-linejoin="round"/>
<path d="M214.101 56.6395L214.313 56.6641L216.862 55.1319C216.862 55.1319 217.024 55.0128 216.916 54.8157L217.105 54.7006L218.854 52.8562C218.854 52.8562 219.982 52.1785 219.399 51.0776C219.399 51.0776 218.815 49.9767 217.684 50.6545L215.294 51.2994L215.147 51.3898C215.147 51.3898 215 51.2131 214.819 51.2665L212.34 52.7577L212.228 52.9836L206.358 57.2146L207.517 59.6792L214.101 56.6395Z" stroke="black" stroke-width="0.990566" stroke-miterlimit="10" stroke-linecap="round" stroke-linejoin="round"/>
<path d="M205.038 59.6792L206.495 57.0377L207.679 59.6792H205.038Z" stroke="black" stroke-width="0.990566" stroke-miterlimit="10" stroke-linecap="round" stroke-linejoin="round"/>
<path d="M205.038 59.6793L202.396 60.31L203.181 61.6605L205.038 59.6793Z" fill="#4D4D4D" stroke="black" stroke-width="0.330189" stroke-miterlimit="10" stroke-linecap="round" stroke-linejoin="round"/>
<path d="M202.396 60.2737L205.038 59.6793L203.377 61.6605L202.396 60.2737Z" stroke="black" stroke-width="0.990566" stroke-miterlimit="10" stroke-linecap="round" stroke-linejoin="round"/>
<path d="M197.19 64.8068C197.213 64.7716 197.209 64.7208 197.178 64.6895C197.159 64.6699 197.131 64.6582 197.108 64.6582C197.092 64.6582 197.077 64.6621 197.065 64.6699L196.076 65.1549L196.772 64.4314C196.803 64.4001 196.807 64.3492 196.783 64.314C196.764 64.2827 196.733 64.2671 196.701 64.2671C196.693 64.2671 196.682 64.2671 196.674 64.271L196.095 64.4431L197.1 63.6843C197.139 63.6569 197.151 63.6022 197.127 63.5592C197.112 63.5279 197.077 63.5083 197.041 63.5083C197.03 63.5083 197.018 63.5083 197.006 63.5161L196.385 63.7469L197.44 62.9255C197.464 62.9099 197.475 62.8825 197.479 62.8551C197.479 62.8278 197.471 62.8004 197.448 62.7808L197.331 62.6674C197.804 62.335 199.935 60.8565 201.635 60.1173C201.67 60.4302 201.803 61.2085 202.249 61.7053C201.846 62.0534 199.958 63.6726 198.586 64.7521L198.621 64.5174C198.625 64.4783 198.609 64.4392 198.574 64.4196C198.558 64.4118 198.543 64.4079 198.523 64.4079C198.504 64.4079 198.48 64.4157 198.464 64.4274L197.984 64.8029L198.12 64.6582C198.156 64.623 198.156 64.5643 198.124 64.5252C198.105 64.5057 198.077 64.4939 198.05 64.4939C198.031 64.4939 198.007 64.5018 197.991 64.5135L196.795 65.4561L197.19 64.8068Z" fill="#BBECF9"/>
<path d="M172.679 88.9671C172.679 88.9671 172.722 88.9166 172.808 88.8232" stroke="#BBECF9" stroke-width="0.495283" stroke-linejoin="round" stroke-dasharray="1.32 1.32"/>
<path d="M174.153 87.3721C178.059 83.1793 188.865 71.8447 195.93 66.9401" stroke="#BBECF9" stroke-width="0.495283" stroke-linejoin="round" stroke-dasharray="1.32 1.32"/>
<path d="M196.755 66.3881C196.809 66.3531 196.864 66.3181 196.918 66.2831" stroke="#BBECF9" stroke-width="0.495283" stroke-linejoin="round" stroke-dasharray="1.32 1.32"/>
<path d="M176 86.8106C176 86.8106 231.819 52.6465 244 150" stroke="#BBECF9" stroke-width="0.495283" stroke-miterlimit="10" stroke-linejoin="round"/>
<path d="M232.113 96.5075L233.926 82.7925L234.175 93.536L234.517 91.2898L234.758 94.4719L235.694 93.3176L234.669 97.9543L236.872 95.3415L235.475 99.8534L237.499 98.0206L235.508 102.224L236.957 101.612L235.579 103.457L238.057 101.569C238.057 101.569 237.139 104.939 233.811 105.906L232.113 96.5075Z" fill="#BBECF9"/>
<path d="M244.18 140.904C240.3 140.81 236.912 138.433 236.912 138.433H240.336L238.035 135.73L241.612 137.492L238.164 133.223L240.253 133.822L236.468 128.679L240.002 131.029L236.075 123.587L240.253 129.071C240.253 129.071 238.431 112.228 241.965 99.3019C241.965 99.3019 246.548 113.133 246.414 128.15L248.64 123.979L246.677 130.638L248.64 127.532L247.462 132.988L249.838 129.071L247.855 134.946L249.818 133.771L247.855 137.297L249.838 136.298L247.855 138.863L250.604 137.688C250.6 137.688 247.576 140.986 244.18 140.904Z" fill="#BBECF9"/>
<path d="M222.868 50.4339C222.868 50.4339 237.149 43.0475 246.642 41.849" stroke="#BBECF9" stroke-width="0.330189" stroke-miterlimit="10" stroke-linejoin="round" stroke-dasharray="0.66 0.66"/>
<path d="M229.63 97.5693L222.868 86.0944L226.567 95.7071L225.418 93.8449L226.352 96.7537L225.035 96.0796L227.716 99.804L224.652 98.3142L227.643 101.789L225.035 100.921L228.481 103.901H226.869L228.864 105.018L225.801 104.273C225.801 104.273 227.915 106.918 231.453 106.527L229.63 97.5693Z" fill="#BBECF9"/>
<path d="M192.295 96.593L194.359 97.6921L207.019 73.9707L205.13 72.8208L192.295 96.593Z" fill="#B2B2B2" stroke="black" stroke-width="0.330189" stroke-miterlimit="10"/>
<path d="M194.46 97.6616L192.27 96.4921L191.925 97.1373L194.115 98.3068L194.46 97.6616Z" fill="#4D4D4D" stroke="black" stroke-width="0.330189" stroke-miterlimit="10"/>
<path d="M192.135 97.2501L191.564 97.8055L193.757 98.975L193.867 98.1732L192.135 97.2501Z" fill="#4D4D4D" stroke="black" stroke-width="0.330189" stroke-miterlimit="10"/>
<path d="M192.249 98.1656L192.183 98.2896L192.955 98.7019L193.021 98.5779L192.249 98.1656Z" fill="#4D4D4D" stroke="black" stroke-width="0.330189" stroke-miterlimit="10"/>
<path d="M193.867 98.1732L193.022 98.5838L193.018 97.7234L192.248 98.1693L192.135 97.2501L193.867 98.1732Z" fill="#4D4D4D" stroke="black" stroke-width="0.330189" stroke-miterlimit="10" stroke-linecap="round" stroke-linejoin="round"/>
<path d="M207.163 73.7361L194.394 97.6296L194.508 97.6882L194.109 98.4392L193.898 98.3258L193.804 99.0063L193.069 98.6152L193.003 98.7403L192.232 98.3258L192.299 98.2006L191.615 97.8369L192.096 97.3636L191.83 97.2228L192.228 96.4718L192.33 96.5266L205.275 72.5823L207.163 73.7361Z" stroke="black" stroke-width="0.990566" stroke-miterlimit="10" stroke-linecap="round" stroke-linejoin="round"/>
<path d="M231.204 105.929L233.499 105.472L228.264 79.0945L226.074 79.4035L231.204 105.929Z" fill="#B2B2B2" stroke="black" stroke-width="0.330189" stroke-miterlimit="10"/>
<path d="M233.544 105.376L231.109 105.859L231.251 106.577L233.686 106.093L233.544 105.376Z" fill="#4D4D4D" stroke="black" stroke-width="0.330189" stroke-miterlimit="10"/>
<path d="M231.497 106.539L231.407 107.329L233.843 106.844L233.421 106.16L231.497 106.539Z" fill="#4D4D4D" stroke="black" stroke-width="0.330189" stroke-miterlimit="10"/>
<path d="M233.018 106.997L232.16 107.168L232.187 107.305L233.046 107.135L233.018 106.997Z" fill="#4D4D4D" stroke="black" stroke-width="0.330189" stroke-miterlimit="10"/>
<path d="M233.421 106.16L233.026 107.009L232.478 106.344L232.169 107.181L231.497 106.539L233.421 106.16Z" fill="#4D4D4D" stroke="black" stroke-width="0.330189" stroke-miterlimit="10" stroke-linecap="round" stroke-linejoin="round"/>
<path d="M228.225 78.8207L233.483 105.401L233.612 105.374L233.776 106.207L233.542 106.254L233.901 106.84L233.084 107.001L233.112 107.142L232.251 107.31L232.224 107.173L231.466 107.325L231.54 106.653L231.243 106.711L231.079 105.878L231.188 105.855L226.035 79.1297L228.225 78.8207Z" stroke="black" stroke-width="0.990566" stroke-miterlimit="10" stroke-linecap="round" stroke-linejoin="round"/>
<path d="M242.585 141.329L244.919 141.196L243.386 114.35H241.177L242.585 141.329Z" fill="#B2B2B2" stroke="black" stroke-width="0.330189" stroke-miterlimit="10"/>
<path d="M244.988 141.129L242.51 141.27L242.551 142.001L245.03 141.859L244.988 141.129Z" fill="#4D4D4D" stroke="black" stroke-width="0.330189" stroke-miterlimit="10"/>
<path d="M242.788 141.979L242.592 142.745L245.071 142.604L244.747 141.865L242.788 141.979Z" fill="#4D4D4D" stroke="black" stroke-width="0.330189" stroke-miterlimit="10"/>
<path d="M244.244 142.664L243.37 142.714L243.378 142.854L244.252 142.804L244.244 142.664Z" fill="#4D4D4D" stroke="black" stroke-width="0.330189" stroke-miterlimit="10"/>
<path d="M244.747 141.865L244.239 142.651L243.789 141.92L243.367 142.702L242.788 141.979L244.747 141.865Z" fill="#4D4D4D" stroke="black" stroke-width="0.330189" stroke-miterlimit="10" stroke-linecap="round" stroke-linejoin="round"/>
<path d="M243.386 114.072L244.915 141.122L245.044 141.114L245.091 141.963L244.852 141.979L245.13 142.608L244.297 142.655L244.305 142.796L243.429 142.847L243.421 142.702L242.647 142.749L242.815 142.092L242.514 142.112L242.464 141.263L242.581 141.255L241.177 114.072H243.386Z" stroke="black" stroke-width="0.990566" stroke-miterlimit="10" stroke-linecap="round" stroke-linejoin="round"/>
<path d="M248.623 198.504H242.679V199.165H248.623V198.504Z" stroke="black" stroke-width="0.990566" stroke-miterlimit="10" stroke-linecap="round" stroke-linejoin="round"/>
<path d="M244.199 183.542L246.537 183.456L245.556 156.586L243.343 156.539L244.199 183.542Z" fill="#B2B2B2" stroke="black" stroke-width="0.330189" stroke-miterlimit="10"/>
<path d="M246.604 183.371L244.123 183.462L244.15 184.193L246.63 184.102L246.604 183.371Z" fill="#4D4D4D" stroke="black" stroke-width="0.330189" stroke-miterlimit="10"/>
<path d="M244.391 184.196L244.18 184.962L246.663 184.868L246.354 184.121L244.391 184.196Z" fill="#4D4D4D" stroke="black" stroke-width="0.330189" stroke-miterlimit="10"/>
<path d="M245.825 184.887L244.95 184.919L244.955 185.059L245.83 185.027L245.825 184.887Z" fill="#4D4D4D" stroke="black" stroke-width="0.330189" stroke-miterlimit="10"/>
<path d="M246.354 184.121L245.83 184.9L245.392 184.156L244.954 184.931L244.391 184.196L246.354 184.121Z" fill="#4D4D4D" stroke="black" stroke-width="0.330189" stroke-miterlimit="10" stroke-linecap="round" stroke-linejoin="round"/>
<path d="M245.56 156.309L246.534 183.386L246.663 183.382L246.694 184.227L246.455 184.238L246.717 184.872L245.885 184.903L245.888 185.044L245.017 185.075L245.009 184.935L244.235 184.962L244.415 184.313L244.113 184.321L244.082 183.476L244.196 183.472L243.351 156.262L245.56 156.309Z" stroke="black" stroke-width="0.990566" stroke-miterlimit="10" stroke-linecap="round" stroke-linejoin="round"/>
<path d="M244.61 223.292L246.952 223.3L247.042 196.411L244.833 196.278L244.61 223.292Z" fill="#B2B2B2" stroke="black" stroke-width="0.330189" stroke-miterlimit="10"/>
<path d="M247.025 223.227L244.542 223.219L244.54 223.95L247.022 223.958L247.025 223.227Z" fill="#4D4D4D" stroke="black" stroke-width="0.330189" stroke-miterlimit="10"/>
<path d="M244.778 223.949L244.536 224.708L247.018 224.716L246.741 223.957L244.778 223.949Z" fill="#4D4D4D" stroke="black" stroke-width="0.330189" stroke-miterlimit="10"/>
<path d="M245.311 224.709L245.31 224.849L246.186 224.852L246.187 224.712L245.311 224.709Z" fill="#4D4D4D" stroke="black" stroke-width="0.330189" stroke-miterlimit="10"/>
<path d="M246.741 223.957L246.186 224.712L245.779 223.953L245.31 224.708L244.778 223.949L246.741 223.957Z" fill="#4D4D4D" stroke="black" stroke-width="0.330189" stroke-miterlimit="10" stroke-linecap="round" stroke-linejoin="round"/>
<path d="M247.057 196.133L246.952 223.226H247.081L247.077 224.075H246.838L247.077 224.72L246.24 224.716V224.861L245.365 224.857V224.716L244.59 224.712L244.798 224.067H244.493L244.497 223.218H244.614L244.852 196L247.057 196.133Z" stroke="black" stroke-width="0.990566" stroke-miterlimit="10" stroke-linecap="round" stroke-linejoin="round"/>
<path d="M245.859 187.003L246.141 192.997" stroke="#BBECF9" stroke-width="0.495283" stroke-miterlimit="10" stroke-linejoin="round"/>
<path d="M244 154.245L242.679 148.302" stroke="black" stroke-width="0.330189" stroke-miterlimit="10" stroke-linecap="round" stroke-linejoin="round"/>
<path d="M244.66 154.245V145" stroke="black" stroke-width="0.330189" stroke-miterlimit="10" stroke-linecap="round" stroke-linejoin="round"/>
<path d="M245.981 154.245V148.302" stroke="black" stroke-width="0.330189" stroke-miterlimit="10" stroke-linecap="round" stroke-linejoin="round"/>
<path d="M258.528 31.5027L260.595 30.6227L261.83 32.6138L260.44 34.5849L258.528 31.5027Z" fill="#DADADA" stroke="black" stroke-width="0.330189" stroke-miterlimit="10"/>
<path d="M249.668 40.5283L248.623 42.5095L251.264 42.4615L249.668 40.5283Z" fill="#4D4D4D" stroke="black" stroke-width="0.330189" stroke-miterlimit="10" stroke-linecap="round" stroke-linejoin="round"/>
<path d="M248.623 43.1698L249.826 40.5283L251.264 42.8745L248.623 43.1698Z" stroke="black" stroke-width="0.990566" stroke-miterlimit="10" stroke-linecap="round" stroke-linejoin="round"/>
<path d="M248.623 43.1698L246.642 44.2384L247.378 45.8113L248.623 43.1698Z" fill="#4D4D4D" stroke="black" stroke-width="0.330189" stroke-miterlimit="10" stroke-linecap="round" stroke-linejoin="round"/>
<path d="M253.76 35.9057H255.226L253.567 26C253.567 26 251.234 28.4148 253.76 35.9057Z" fill="#DADADA" stroke="black" stroke-width="0.330189" stroke-miterlimit="10"/>
<path d="M246.642 44.2284L248.623 43.1698L247.516 45.8113L246.642 44.2284Z" stroke="black" stroke-width="0.990566" stroke-miterlimit="10" stroke-linecap="round" stroke-linejoin="round"/>
<path d="M253.762 35.9057H255.226L253.569 26C253.565 26 251.234 28.4148 253.762 35.9057Z" stroke="black" stroke-width="1.32075" stroke-miterlimit="10" stroke-linecap="round" stroke-linejoin="round"/>
<path d="M256.172 38.2762L255.887 36.7793L265.792 36.566C265.792 36.566 263.914 39.4215 256.172 38.2762Z" fill="#DADADA" stroke="black" stroke-width="0.330189" stroke-miterlimit="10"/>
<path d="M256.172 38.2776L255.887 36.7795L265.792 36.566C265.792 36.5621 263.91 39.4199 256.172 38.2776Z" stroke="black" stroke-width="1.32075" stroke-miterlimit="10" stroke-linecap="round" stroke-linejoin="round"/>
<path d="M253.703 35.9056L255.887 37.9415L251.153 42.5094L250 40.5L253.703 35.9056Z" fill="#DADADA" stroke="black" stroke-width="0.330189" stroke-miterlimit="10"/>
<path d="M253.924 36.566L255.887 38.6019L251.627 43.1698L249.943 40.7886L253.924 36.566Z" stroke="black" stroke-width="1.32075" stroke-miterlimit="10" stroke-linecap="round" stroke-linejoin="round"/>
<path d="M258.528 31.5058L260.592 30.6227L261.83 32.6157L260.44 34.5849L258.528 31.5058Z" stroke="black" stroke-width="1.32075" stroke-miterlimit="10" stroke-linecap="round" stroke-linejoin="round"/>
<circle cx="125.792" cy="309.321" r="1.32075" fill="white"/>
<circle cx="134.5" cy="304.5" r="5.15" stroke="#BBECF9" stroke-width="0.7" stroke-dasharray="2 2"/>
<text fill="white" xml:space="preserve" style="white-space: pre" font-family="Roboto" font-size="7" font-weight="bold" letter-spacing="0em"><tspan x="58.4814" y="342.836">CABO CA&#xd1;AVERAL</tspan></text>
<text fill="white" xml:space="preserve" style="white-space: pre" font-family="Roboto" font-size="7" letter-spacing="0em"><tspan x="71.9141" y="334.836">Florida, E.E.U.U&#10;</tspan></text>
<text fill="white" xml:space="preserve" style="white-space: pre" font-family="Roboto" font-size="8" font-weight="bold" letter-spacing="0em"><tspan x="84.8107" y="119.234">Primera etapa</tspan></text>
<text fill="white" xml:space="preserve" style="white-space: pre" font-family="Roboto" font-size="8" font-weight="bold" letter-spacing="0em"><tspan x="76.5027" y="216.819">Lanzamiento</tspan></text>
<text fill="white" xml:space="preserve" style="white-space: pre" font-family="Roboto" font-size="8" font-weight="bold" letter-spacing="0em"><tspan x="110.519" y="82.1023">Segunda etapa</tspan></text>
<text fill="white" xml:space="preserve" style="white-space: pre" font-family="Roboto" font-size="8" font-weight="bold" letter-spacing="0em"><tspan x="162.578" y="51.0646">Propulsi&#xf3;n</tspan></text>
<text fill="white" xml:space="preserve" style="white-space: pre" font-family="Roboto" font-size="8" font-weight="bold" letter-spacing="0em"><tspan x="257" y="51.2344">Lanzamiento</tspan></text>
<circle cx="265.792" cy="278.264" r="1.32075" fill="white"/>
<text fill="white" xml:space="preserve" style="white-space: pre" font-family="Roboto" font-size="7" letter-spacing="0em"><tspan x="293.5" y="335.393">Puerto Ca&#xf1;averal&#10;</tspan></text>
<text fill="white" xml:space="preserve" style="white-space: pre" font-family="Roboto" font-size="7" font-weight="bold" letter-spacing="0em"><tspan x="293.5" y="343.393">PLATAFORMA FLOTANTE</tspan></text>
<path d="M275.5 330L290 350.5H373" stroke="white" stroke-width="0.660377"/>
<text fill="white" xml:space="preserve" style="white-space: pre" font-family="Roboto" font-size="6" letter-spacing="0em"><tspan x="101.307" y="127.4">3 minutos de&#10;</tspan><tspan x="84.8242" y="134.4">m&#xe1;xima propulsi&#xf3;n</tspan></text>
<text fill="white" xml:space="preserve" style="white-space: pre" font-family="Roboto" font-size="6" letter-spacing="0em"><tspan x="106.504" y="90.5508">Separaci&#xf3;n de partes</tspan></text>
<text fill="white" xml:space="preserve" style="white-space: pre" font-family="Roboto" font-size="8" font-weight="bold" letter-spacing="0em"><tspan x="256" y="86.2344">Terera etapa</tspan></text>
<text fill="white" xml:space="preserve" style="white-space: pre" font-family="Roboto" font-size="6" letter-spacing="0em"><tspan x="256" y="94.5508">El cuerpo principal vuelve a </tspan><tspan x="256" y="101.551">la tierra</tspan></text>
<text fill="white" xml:space="preserve" style="white-space: pre" font-family="Roboto" font-size="6" letter-spacing="0em"><tspan x="257" y="58.5508">Colocaci&#xf3;n del material </tspan><tspan x="257" y="65.5508">transportado</tspan></text>
<text fill="white" xml:space="preserve" style="white-space: pre" font-family="Roboto" font-size="8" font-weight="bold" letter-spacing="0em"><tspan x="256" y="123.234">Cuarta etapa</tspan></text>
<text fill="white" xml:space="preserve" style="white-space: pre" font-family="Roboto" font-size="6" letter-spacing="0em"><tspan x="256" y="131.551">Entrada a la atm&#xf3;sfera</tspan></text>
<text fill="white" xml:space="preserve" style="white-space: pre" font-family="Roboto" font-size="8" font-weight="bold" letter-spacing="0em"><tspan x="255" y="173.234">Quinta etapa</tspan></text>
<text fill="white" xml:space="preserve" style="white-space: pre" font-family="Roboto" font-size="6" letter-spacing="0em"><tspan x="255" y="181.551">Ca&#xed;da libre</tspan></text>
<text fill="white" xml:space="preserve" style="white-space: pre" font-family="Roboto" font-size="8" font-weight="bold" letter-spacing="0em"><tspan x="256" y="211.234">Sexta etapa</tspan></text>
<text fill="white" xml:space="preserve" style="white-space: pre" font-family="Roboto" font-size="6" letter-spacing="0em"><tspan x="256" y="219.551">Motores encedidos y </tspan><tspan x="256" y="226.551">control de trayectoria</tspan></text>
<text fill="#BBECF9" xml:space="preserve" style="white-space: pre" font-family="Roboto" font-size="8" font-weight="bold" letter-spacing="0em"><tspan x="303" y="294.234">S&#xe9;ptima etapa</tspan></text>
<path d="M158.531 103.696L160.275 105.252L178.166 85.1802L176.602 83.6157L158.531 103.696Z" fill="#B2B2B2" stroke="black" stroke-width="0.330189" stroke-miterlimit="10"/>
<path d="M160.389 105.243L158.536 103.591L158.049 104.137L159.903 105.789L160.389 105.243Z" fill="#4D4D4D" stroke="black" stroke-width="0.330189" stroke-miterlimit="10"/>
<path d="M158.219 104.298L157.534 104.701L159.392 106.355L159.685 105.604L158.219 104.298Z" fill="#4D4D4D" stroke="black" stroke-width="0.330189" stroke-miterlimit="10"/>
<path d="M158.112 105.208L158.018 105.313L158.672 105.896L158.766 105.791L158.112 105.208Z" fill="#4D4D4D" stroke="black" stroke-width="0.330189" stroke-miterlimit="10"/>
<path d="M159.685 105.604L158.77 105.8L158.965 104.963L158.113 105.217L158.219 104.298L159.685 105.604Z" fill="#4D4D4D" stroke="black" stroke-width="0.330189" stroke-miterlimit="10" stroke-linecap="round" stroke-linejoin="round"/>
<path d="M178.361 84.9846L160.326 105.198L160.423 105.284L159.857 105.917L159.681 105.757L159.43 106.398L158.809 105.843L158.711 105.949L158.058 105.366L158.152 105.26L157.573 104.744L158.156 104.4L157.929 104.196L158.492 103.563L158.578 103.641L176.797 83.4202L178.361 84.9846Z" stroke="black" stroke-width="0.990566" stroke-miterlimit="10" stroke-linecap="round" stroke-linejoin="round"/>
<text fill="white" xml:space="preserve" style="white-space: pre" font-family="Roboto" font-size="7" letter-spacing="0em"><tspan x="175.443" y="150.393">ATM&#xd3;SFERA</tspan></text>
<text fill="white" xml:space="preserve" style="white-space: pre" font-family="Roboto" font-size="6" letter-spacing="0em"><tspan x="303" y="302.551">Despliegue de patas </tspan><tspan x="303" y="309.551">y aterrizaje</tspan></text>
<text fill="#BBECF9" xml:space="preserve" style="white-space: pre" font-family="Roboto" font-size="5" font-weight="600" letter-spacing="0em"><tspan x="248" y="306.709">91m</tspan></text>
<text fill="#BBECF9" xml:space="preserve" style="white-space: pre" font-family="Roboto" font-size="5" font-weight="600" letter-spacing="0em"><tspan x="199" y="298.709">52m</tspan></text>
<path d="M245.971 240.749V247.953" stroke="white" stroke-opacity="0.51" stroke-width="1.0291" stroke-miterlimit="10" stroke-linecap="round" stroke-linejoin="round"/>
<path d="M208.953 281.724V284.876L211.204 283.975L208.953 281.724Z" fill="#DADADA" stroke="black" stroke-width="0.356964" stroke-miterlimit="10" stroke-linecap="round" stroke-linejoin="round"/>
<path d="M204 285.326L210.754 283.975L208.953 281.724L269.29 270.917L271.091 273.168L274.693 272.268L285.5 286.677L280.547 287.577L282.798 290.729L222.345 301.722L220.154 298.753L214.356 300.185L204 285.326Z" fill="#DADADA" stroke="black" stroke-width="0.356964" stroke-miterlimit="10" stroke-linecap="round" stroke-linejoin="round"/>
<path d="M214.308 299.284L214.356 302.887L204 288.478V285.326L214.308 299.284Z" fill="#DADADA" stroke="black" stroke-width="0.356964" stroke-miterlimit="10" stroke-linecap="round" stroke-linejoin="round"/>
<path d="M222.933 301.487V304.89L220.469 301.487V298.229L222.933 301.487Z" fill="#DADADA" stroke="black" stroke-width="0.356964" stroke-miterlimit="10" stroke-linecap="round" stroke-linejoin="round"/>
<path d="M214.356 302.887L220.469 301.585V298.194L214.308 299.362L214.356 302.887Z" fill="#DADADA" stroke="black" stroke-width="0.356964" stroke-miterlimit="10" stroke-linecap="round" stroke-linejoin="round"/>
<path d="M282.798 290.729V294.331L222.933 304.89V301.292L282.798 290.729Z" fill="#DADADA" stroke="black" stroke-width="0.356964" stroke-miterlimit="10" stroke-linecap="round" stroke-linejoin="round"/>
<path d="M285.5 290.279V286.677L280.547 287.577L282.798 290.729L285.5 290.279Z" fill="#DADADA" stroke="black" stroke-width="0.356964" stroke-miterlimit="10" stroke-linecap="round" stroke-linejoin="round"/>
<path d="M246.036 293.8C254.373 293.8 261.131 290.352 261.131 286.099C261.131 281.846 254.373 278.398 246.036 278.398C237.7 278.398 230.942 281.846 230.942 286.099C230.942 290.352 237.7 293.8 246.036 293.8Z" stroke="black" stroke-width="0.356964" stroke-miterlimit="10" stroke-linecap="round" stroke-linejoin="round"/>
<path d="M246 291C252.075 291 257 288.538 257 285.5C257 282.462 252.075 280 246 280C239.925 280 235 282.462 235 285.5C235 288.538 239.925 291 246 291Z" stroke="black" stroke-width="0.356964" stroke-miterlimit="10" stroke-linecap="round" stroke-linejoin="round" stroke-dasharray="0.71 0.71"/>
<path d="M244.048 277.221L234.168 287.127L244.075 281.79" fill="#B2B2B2"/>
<path d="M244.048 277.221L234.168 287.127L244.075 281.79" stroke="black" stroke-width="0.643287" stroke-miterlimit="10" stroke-linecap="round" stroke-linejoin="round"/>
<path d="M247.677 277.221L257.583 287.127L247.771 281.856" fill="#B2B2B2"/>
<path d="M247.677 277.221L257.583 287.127L247.771 281.856" stroke="black" stroke-width="0.643287" stroke-miterlimit="10" stroke-linecap="round" stroke-linejoin="round"/>
<path d="M243.751 281.754L247.712 281.814V236H243.751V281.754Z" fill="#B2B2B2" stroke="black" stroke-width="0.559388" stroke-miterlimit="10"/>
<path d="M247.861 281.676L243.656 281.616L243.638 282.855L247.843 282.915L247.861 281.676Z" fill="#4D4D4D" stroke="black" stroke-width="0.559388" stroke-miterlimit="10"/>
<path d="M244.022 282.874L243.592 284.153L247.804 284.213L247.347 282.921L244.022 282.874Z" fill="#4D4D4D" stroke="black" stroke-width="0.559388" stroke-miterlimit="10"/>
<path d="M244.891 284.154L244.887 284.392L246.371 284.413L246.374 284.175L244.891 284.154Z" fill="#4D4D4D" stroke="black" stroke-width="0.559388" stroke-miterlimit="10"/>
<path d="M247.347 282.921L246.394 284.193L245.718 282.901L244.91 284.173L244.022 282.874L247.347 282.921Z" fill="#4D4D4D" stroke="black" stroke-width="0.241233" stroke-miterlimit="10" stroke-linecap="round" stroke-linejoin="round"/>
<path d="M247.718 281.688V236H243.757V281.635L243.559 281.629L243.539 283.066L244.055 283.073L243.691 284.16L245.003 284.18V284.418L246.486 284.445V284.199L247.897 284.219L247.506 283.126L247.917 283.133L247.937 281.695L247.718 281.688Z" stroke="black" stroke-width="0.562876" stroke-miterlimit="10" stroke-linecap="round" stroke-linejoin="round"/>
<path d="M297.25 288C297.25 316.857 273.857 340.25 245 340.25C216.143 340.25 192.75 316.857 192.75 288C192.75 259.143 216.143 235.75 245 235.75C273.857 235.75 297.25 259.143 297.25 288Z" stroke="#BBECF9" stroke-width="1.5"/>
<path d="M126 309.443V350.443H57" stroke="white" stroke-width="0.5"/>
<path d="M245.662 232.452C245.65 232.413 245.615 232.386 245.572 232.382H245.568C245.529 232.382 245.494 232.405 245.478 232.445L245.165 233.223L245.067 231.834C245.063 231.787 245.028 231.748 244.981 231.744C244.977 231.744 244.974 231.744 244.97 231.744C244.927 231.744 244.887 231.772 244.876 231.815L244.602 232.691L244.469 231.197C244.465 231.169 244.45 231.142 244.426 231.126C244.411 231.115 244.391 231.111 244.371 231.111C244.364 231.111 244.352 231.111 244.344 231.115L244.113 231.181C244.192 230.528 244.504 227.865 244.54 226.015C244.778 226.077 245.325 226.198 245.943 226.198C246.268 226.198 246.565 226.163 246.835 226.097C246.921 226.64 247.315 229.147 247.48 230.9L247.155 230.724C247.139 230.716 247.124 230.712 247.108 230.712C247.089 230.712 247.069 230.716 247.053 230.728C247.022 230.747 247.007 230.782 247.01 230.817L247.1 231.819L246.936 231.263C246.924 231.22 246.885 231.193 246.842 231.193C246.835 231.193 246.831 231.193 246.823 231.193C246.772 231.201 246.741 231.248 246.745 231.299L246.909 232.984L246.393 232.206C246.373 232.179 246.346 232.163 246.311 232.163C246.303 232.163 246.299 232.163 246.291 232.163C246.252 232.171 246.221 232.202 246.213 232.241L245.978 233.555L245.662 232.452Z" fill="#BBECF9"/>
<path d="M244.637 226.132C244.919 226.198 245.407 226.292 245.947 226.292C246.236 226.292 246.51 226.265 246.756 226.21C246.866 226.891 247.202 229.081 247.366 230.72L247.206 230.63C247.179 230.614 247.143 230.606 247.112 230.606C247.073 230.606 247.038 230.618 247.007 230.638C246.948 230.677 246.913 230.747 246.921 230.818L246.948 231.115C246.921 231.099 246.885 231.087 246.85 231.087C246.838 231.087 246.827 231.087 246.811 231.091C246.713 231.111 246.643 231.201 246.655 231.302L246.78 232.597L246.483 232.147C246.447 232.093 246.385 232.061 246.318 232.061C246.307 232.061 246.291 232.061 246.279 232.065C246.201 232.081 246.142 232.143 246.127 232.222L245.963 233.129L245.755 232.421C245.732 232.343 245.662 232.284 245.576 232.28C245.572 232.28 245.568 232.28 245.568 232.28C245.49 232.28 245.415 232.327 245.388 232.402L245.235 232.781L245.169 231.819C245.161 231.725 245.091 231.651 244.997 231.639C244.989 231.639 244.981 231.639 244.973 231.639C244.887 231.639 244.813 231.694 244.786 231.776L244.661 232.179L244.571 231.177C244.567 231.119 244.536 231.068 244.485 231.033C244.454 231.009 244.414 230.997 244.375 230.997C244.356 230.997 244.34 231.001 244.321 231.005L244.231 231.033C244.328 230.219 244.594 227.861 244.637 226.132ZM244.446 225.882C244.422 228.005 244 231.31 244 231.31L244.375 231.201L244.551 233.188L244.97 231.842L245.095 233.657L245.564 232.484L246.006 233.986L246.315 232.265L247.046 233.372L246.842 231.295L247.284 232.797L247.108 230.81L247.593 231.076C247.417 229.089 246.913 225.975 246.913 225.975C246.596 226.069 246.26 226.101 245.943 226.101C245.142 226.097 244.446 225.882 244.446 225.882Z" fill="black"/>
<path d="M125.662 304.571C125.65 304.532 125.615 304.504 125.572 304.5H125.568C125.529 304.5 125.494 304.524 125.478 304.563L125.165 305.341L125.067 303.953C125.063 303.906 125.028 303.867 124.981 303.863C124.977 303.863 124.974 303.863 124.97 303.863C124.927 303.863 124.887 303.89 124.876 303.933L124.602 304.809L124.469 303.315C124.465 303.288 124.45 303.261 124.426 303.245C124.411 303.233 124.391 303.229 124.371 303.229C124.364 303.229 124.352 303.229 124.344 303.233L124.113 303.3C124.192 302.646 124.504 299.983 124.54 298.133C124.778 298.196 125.325 298.317 125.943 298.317C126.268 298.317 126.565 298.282 126.835 298.215C126.921 298.759 127.315 301.266 127.48 303.018L127.155 302.842C127.139 302.834 127.124 302.83 127.108 302.83C127.089 302.83 127.069 302.834 127.053 302.846C127.022 302.865 127.007 302.901 127.01 302.936L127.1 303.937L126.936 303.382C126.924 303.339 126.885 303.311 126.842 303.311C126.835 303.311 126.831 303.311 126.823 303.311C126.772 303.319 126.741 303.366 126.745 303.417L126.909 305.103L126.393 304.324C126.373 304.297 126.346 304.281 126.311 304.281C126.303 304.281 126.299 304.281 126.291 304.281C126.252 304.289 126.221 304.32 126.213 304.36L125.978 305.674L125.662 304.571Z" fill="#BBECF9"/>
<path d="M124.637 298.25C124.919 298.317 125.407 298.411 125.947 298.411C126.236 298.411 126.51 298.383 126.756 298.329C126.866 299.009 127.202 301.199 127.366 302.838L127.206 302.748C127.179 302.733 127.143 302.725 127.112 302.725C127.073 302.725 127.038 302.736 127.007 302.756C126.948 302.795 126.913 302.866 126.921 302.936L126.948 303.233C126.921 303.218 126.885 303.206 126.85 303.206C126.838 303.206 126.827 303.206 126.811 303.21C126.713 303.229 126.643 303.319 126.655 303.421L126.78 304.716L126.483 304.266C126.447 304.211 126.385 304.18 126.318 304.18C126.307 304.18 126.291 304.18 126.279 304.184C126.201 304.199 126.142 304.262 126.127 304.34L125.963 305.247L125.755 304.54C125.732 304.461 125.662 304.403 125.576 304.399C125.572 304.399 125.568 304.399 125.568 304.399C125.49 304.399 125.415 304.446 125.388 304.52L125.235 304.899L125.169 303.937C125.161 303.843 125.091 303.769 124.997 303.757C124.989 303.757 124.981 303.757 124.973 303.757C124.887 303.757 124.813 303.812 124.786 303.894L124.661 304.297L124.571 303.296C124.567 303.237 124.536 303.186 124.485 303.151C124.454 303.128 124.414 303.116 124.375 303.116C124.356 303.116 124.34 303.12 124.321 303.124L124.231 303.151C124.328 302.338 124.594 299.979 124.637 298.25ZM124.446 298C124.422 300.124 124 303.429 124 303.429L124.375 303.319L124.551 305.306L124.97 303.961L125.095 305.775L125.564 304.602L126.006 306.104L126.315 304.383L127.046 305.49L126.842 303.413L127.284 304.915L127.108 302.928L127.593 303.194C127.417 301.207 126.913 298.094 126.913 298.094C126.596 298.188 126.26 298.219 125.943 298.219C125.142 298.215 124.446 298 124.446 298Z" fill="black"/>
<path d="M134.5 299.5L196.5 267" stroke="#BBECF9" stroke-width="0.5" stroke-dasharray="1 1"/>
<path d="M135 309.5L202 319" stroke="#BBECF9" stroke-width="0.5" stroke-dasharray="1 1"/>
</g>
<defs>
<clipPath id="clip0_118_34">
<rect width="391" height="391" fill="white"/>
</clipPath>
</defs>
</svg>
