<svg width="335" height="256" viewBox="0 0 335 256" fill="none" xmlns="http://www.w3.org/2000/svg">
<path fill-rule="evenodd" clip-rule="evenodd" d="M240.172 95.7318L217.118 95.7318L208.843 96.9119L131.694 96.9119L124.381 99.5672L123.05 103.406L122.237 98.3871L122.237 96.9119C120.945 97.3065 120.292 97.2389 119.209 96.7626L113 98.6821L113 82.6866L119.209 84.6807C120.179 84.33 121.226 84.2526 122.237 84.4568L122.237 82.3916L123.05 78.2612L124.381 81.8158L131.694 84.471L208.843 84.471L217.118 85.7258L240.172 85.7258L240.172 95.7318ZM122.237 89.6571L122.237 87.0374C121.243 87.3522 120.169 87.3005 119.209 86.8917L115.513 88.2922L119.209 89.6571C120.423 89.2554 121.09 89.2128 122.237 89.6571ZM122.237 94.047L122.237 94.4913C120.774 94.111 120.135 94.2034 119.209 94.7117L115.513 93.3112L119.209 91.8218C120.192 92.3479 120.849 92.4083 122.237 92.0422L122.237 94.047Z" fill="#B2B2B2"/>
<path d="M286.946 89.7672C287.137 89.8609 287.295 90.0094 287.401 90.1937C287.506 90.378 287.555 90.5896 287.539 90.8016C287.564 91.0052 287.519 91.2112 287.411 91.3856C287.303 91.5601 287.139 91.6926 286.946 91.7613L276.754 91.7613L276.062 93.3111L274.873 92.3976L275.072 91.7613L272.835 91.7613L267.365 93.3111L258.795 93.3111L240.172 96.336L240.172 85.3418L258.795 88.2174L267.365 88.2174L272.835 89.7672L275.072 89.7672L274.873 89.2269L276.062 88.2174L276.754 89.7672L286.946 89.7672Z" fill="#DADADA"/>
<path d="M272.835 91.7613L267.365 93.3111M272.835 91.7613L272.835 89.7672M272.835 91.7613L268.639 91.7613M272.835 91.7613L275.171 91.7613M267.361 93.3111L267.361 88.2174M267.361 93.3111L265.231 93.3111M258.802 93.3111L265.224 93.3111M258.795 93.3111L258.795 88.2174M258.795 93.3111L241.134 96.1796M240.172 95.8241L240.172 96.3396L241.134 96.1831M240.172 95.8277L240.172 85.779M240.172 95.817L237.658 95.817M217.107 95.817L222.333 95.817M217.118 95.817L213.33 96.3573M217.118 95.817L217.118 90.8122M208.843 97.0007L213.33 96.3609M208.843 97.0007L208.843 90.8122M208.843 97.0007L202.744 97.0007M131.694 97.0007L124.381 99.6559M131.694 97.0007L139.22 97.0007M131.694 97.0007L131.694 94.9746M131.694 97.0007L123.05 96.1227M124.381 99.6559L123.05 103.495L122.237 98.4758M124.367 99.6559L122.237 98.4758M122.237 98.4758L122.237 97.0007M122.237 97.0007C120.945 97.3953 120.292 97.3277 119.209 96.8514M122.237 97.0007L122.237 96.041M119.209 96.8514L113 98.7709L113 93.3857M119.209 96.8514C119.001 96.1787 119.001 95.4589 119.209 94.7862M119.209 84.7482L113 82.7576L113 88.3667M119.209 84.7482C120.179 84.3985 121.227 84.3222 122.237 84.5278M119.209 84.7482C119.001 85.4717 119.001 86.2391 119.209 86.9627M122.237 84.5278L122.237 82.4626M122.237 84.5278L122.237 85.779M122.237 82.4591L123.05 78.3145L124.381 81.869M122.251 82.4591L124.381 81.869M124.381 81.869L131.694 84.5242M131.694 84.5242L139.22 84.5242M131.694 84.5242L131.694 86.7458M131.694 84.5242L123.05 85.6724M208.843 84.5242L213.33 85.2067M208.843 84.5242L208.843 90.8087M208.843 84.5242L202.744 84.5242M217.118 85.779L222.333 85.779M217.118 85.779L213.33 85.2067M217.118 85.779L217.118 90.8087M240.172 85.779L240.172 85.3382L241.134 85.484M240.172 85.779L237.658 85.779M258.784 88.2139L265.224 88.2139M258.795 88.2139L241.134 85.484M267.365 88.2139L272.835 89.7636M267.365 88.2139L265.235 88.2139M272.846 89.7636L268.65 89.7636M272.846 89.7636L275.182 89.7636M265.242 88.2139L265.242 93.3075M182.775 84.5242L182.775 96.9971M182.775 84.5242L202.762 84.5242M182.775 84.5242L182.065 84.5242M182.775 96.9971L202.762 96.9971M182.775 96.9971L182.065 96.9971M166.573 84.5242L182.065 84.5242M166.573 84.5242L166.573 86.8454M166.573 84.5242L146.246 84.5242M166.573 96.9971L182.065 96.9971M166.573 96.9971L166.573 94.971M166.573 96.9971L146.246 96.9971M122.237 96.0374L122.237 94.5623M122.237 96.0374L123.05 96.1192M122.237 85.779L122.237 87.1084M122.237 85.779L123.05 85.6724M131.694 90.7554L139.22 90.7554M131.694 90.7554L131.694 94.9675M131.694 90.7554L131.694 86.7494M131.694 90.7625L123.05 87.6274M131.694 90.7554L123.05 93.8265M122.237 87.3252L122.237 89.7245M122.237 87.3252L122.237 87.1048M122.237 87.3252L123.05 87.6203M122.237 94.1144L122.237 94.5587M122.237 94.1144L122.237 92.1239M122.237 94.1144L123.05 93.8265M122.237 94.5587C120.774 94.1784 120.136 94.2708 119.209 94.7791M119.209 94.7791L115.513 93.3786M115.513 93.3786L119.209 91.8999M115.513 93.3786L113 93.3786M119.209 91.8999C120.192 92.4296 120.849 92.49 122.237 92.1239M119.209 91.8999C119.044 91.1842 119.044 90.4403 119.209 89.7245M122.237 92.1239L122.237 89.7245M122.237 89.7245C121.09 89.2802 120.423 89.3229 119.209 89.7245M119.209 89.7245L115.513 88.3596M115.513 88.3596L119.209 86.9556M115.513 88.3596L113 88.3596M119.209 86.9556C120.168 87.3655 121.242 87.4185 122.237 87.1048M113.007 88.3596L113.007 93.3857M276.754 89.7672L286.946 89.7672C287.137 89.8608 287.295 90.0093 287.401 90.1936C287.506 90.3779 287.555 90.5896 287.539 90.8016C287.564 91.0052 287.519 91.2112 287.411 91.3856C287.303 91.56 287.139 91.6925 286.946 91.7613L276.754 91.7613M276.754 89.7672L276.062 88.2174L274.873 89.2269L275.171 89.7672M276.754 89.7672L275.171 89.7672M276.754 91.7613L276.062 93.3111L274.873 92.3976L275.171 91.7613M276.754 91.7613L275.171 91.7613M267.056 88.6226L265.572 88.6226M267.056 92.9805L265.572 92.9805M267.056 89.7565L265.572 89.7565M267.056 91.7506L265.572 91.7506M267.056 90.8016L265.572 90.8016M241.134 85.4698L241.134 96.1618M237.658 85.779L237.658 95.817M237.658 85.779L222.322 85.779M237.658 95.8206L222.322 95.8206M222.322 85.7826L222.322 95.8206M213.33 85.2103L213.33 96.3609M217.118 90.8122L208.843 90.8122M202.744 84.5278L202.744 97.0007M182.065 84.5278L182.065 86.8454M182.065 96.9971L182.065 94.971M182.065 86.8454L166.573 86.8454M182.065 86.8454L182.065 90.8087M166.573 86.8454L166.573 90.8087M182.065 90.8087L166.573 90.8087M182.065 90.8087L182.065 94.971M166.573 90.8087L166.573 94.971M182.065 94.971L166.573 94.971M139.238 84.5242L139.238 86.7458M139.238 84.5242L146.246 84.5242M139.22 96.9971L139.22 94.971M139.22 96.9971L146.246 96.9971M139.22 90.7554L139.22 94.9675M139.22 90.7554L139.22 86.7494M139.22 94.9746L131.694 94.9746M131.694 94.9746L123.05 94.9746M139.22 86.7494L131.694 86.7494M131.694 86.7494L123.05 86.7494M146.246 84.5278L146.246 97.0007M123.05 85.6759L123.05 87.6274M123.05 93.8336L123.05 96.1227" stroke="#010101" stroke-width="0.5"/>
<path d="M287.539 90.8016C287.555 90.5896 287.507 90.3779 287.401 90.1936C287.295 90.0093 287.137 89.8608 286.947 89.7672L276.754 89.7672L276.062 88.2174L274.873 89.2269L275.072 89.7672L272.835 89.7672L267.365 88.2174L258.795 88.2174L240.172 85.3418L240.172 85.779L217.118 85.779L208.843 84.5242L131.694 84.5242L124.381 81.869L123.05 78.3145L122.237 82.4484L122.237 84.5136C121.227 84.308 120.179 84.3842 119.209 84.734L113 82.7434L113 98.7566L119.209 96.8372C120.274 97.3135 120.945 97.381 122.237 96.9865L122.237 98.4616L123.05 103.481L124.381 99.6417L131.694 96.9865L208.843 96.9865L217.118 95.8064L240.172 95.8064L240.172 96.3218L258.795 93.2969L267.365 93.2969L272.835 91.7471L275.072 91.7471L274.873 92.4829L276.062 93.2969L276.754 91.7471L286.947 91.7471C287.137 91.6789 287.299 91.5485 287.406 91.3771C287.514 91.2056 287.561 91.0029 287.539 90.8016V90.8016Z" stroke="#010101" stroke-width="1.5"/>
<path d="M122.049 87.1512L122.049 89.7424C122.049 89.7424 120.274 89.0884 119.159 89.7424L115.517 88.445L119.024 86.9912C119.487 87.2361 119.997 87.3772 120.519 87.4048C121.041 87.4325 121.563 87.3459 122.049 87.1512Z" stroke="#010101" stroke-width="1.67"/>
<path d="M122.049 92.0671L122.049 94.6655C122.049 94.6655 120.274 94.015 119.159 94.6655L115.517 93.3717L119.024 91.9143C119.487 92.158 119.998 92.2979 120.52 92.3243C121.042 92.3507 121.564 92.263 122.049 92.0671Z" stroke="#010101" stroke-width="1.67"/>
<path d="M124.657 165.019L124.657 162.883L119.769 162.883L119.769 165.019L124.657 165.019Z" fill="#DADADA"/>
<path d="M138.893 171.051L170.623 171.051C170.623 171.051 172.845 170.781 177.219 173.149C177.319 173.202 177.403 173.282 177.462 173.379C177.521 173.476 177.554 173.587 177.556 173.7C177.558 173.814 177.53 173.926 177.474 174.025C177.419 174.125 177.338 174.207 177.24 174.265C173.498 176.465 170.626 176.419 170.626 176.419L133.859 176.419" fill="#B2B2B2"/>
<path d="M138.893 171.051L170.623 171.051C170.623 171.051 172.845 170.781 177.219 173.149C177.319 173.202 177.403 173.282 177.462 173.379C177.521 173.476 177.554 173.587 177.556 173.7C177.558 173.814 177.53 173.926 177.474 174.025C177.419 174.125 177.338 174.207 177.24 174.265C173.498 176.465 170.626 176.419 170.626 176.419L133.859 176.419" stroke="#1D1D1B" stroke-width="0.5" stroke-miterlimit="10"/>
<path d="M137.903 157.039L170.644 157.039C170.644 157.039 172.866 157.309 177.24 154.942C177.34 154.888 177.424 154.808 177.483 154.711C177.542 154.614 177.574 154.503 177.575 154.389C177.577 154.276 177.549 154.163 177.493 154.064C177.437 153.965 177.356 153.883 177.258 153.826C173.52 151.626 170.648 151.672 170.648 151.672L133.88 151.672" fill="#B2B2B2"/>
<path d="M137.903 157.039L170.644 157.039C170.644 157.039 172.866 157.309 177.24 154.942C177.34 154.888 177.424 154.808 177.483 154.711C177.542 154.614 177.574 154.503 177.575 154.389C177.577 154.276 177.549 154.163 177.493 154.064C177.437 153.965 177.356 153.883 177.258 153.826C173.52 151.626 170.648 151.672 170.648 151.672L133.88 151.672" stroke="#1D1D1B" stroke-width="0.5" stroke-miterlimit="10"/>
<path d="M143.803 170.33L179.083 170.237C179.083 170.237 186.892 170.095 192.427 164.714C192.524 164.622 192.601 164.512 192.653 164.39C192.706 164.267 192.733 164.136 192.733 164.003C192.733 163.87 192.706 163.738 192.653 163.616C192.601 163.493 192.524 163.383 192.427 163.292C186.892 157.924 179.083 157.764 179.083 157.764L143.81 157.668" fill="#B2B2B2"/>
<path d="M143.803 170.33L179.083 170.237C179.083 170.237 186.892 170.095 192.427 164.714C192.524 164.622 192.601 164.512 192.653 164.39C192.706 164.267 192.733 164.136 192.733 164.003C192.733 163.87 192.706 163.738 192.653 163.616C192.601 163.493 192.524 163.383 192.427 163.292C186.892 157.924 179.083 157.764 179.083 157.764L143.81 157.668" stroke="#1D1D1B" stroke-width="0.5" stroke-miterlimit="10"/>
<path d="M124.295 157.238L124.295 151.494L122.002 151.494L122.002 157.238L124.295 157.238Z" fill="#DADADA" stroke="#1D1D1B" stroke-width="0.5" stroke-miterlimit="10"/>
<path d="M122.002 155.657L117.536 156.705L117.536 152.027L122.002 153.065L122.002 155.657Z" fill="#DADADA" stroke="#1D1D1B" stroke-width="0.5" stroke-miterlimit="10"/>
<path d="M124.295 157.953L124.295 159.659L156.693 159.659L143.803 157.668C139.5 157.238 138.19 155.891 138.19 155.891C138.19 155.891 130.735 148.59 129.255 147.193C128.42 146.4 126.937 146.105 125.811 145.999C125.308 145.947 124.801 145.928 124.295 145.942L124.295 157.96" fill="#DADADA"/>
<path d="M124.295 157.953L124.295 159.659L156.693 159.659L143.803 157.668C139.5 157.238 138.19 155.891 138.19 155.891C138.19 155.891 130.735 148.59 129.255 147.193C128.42 146.4 126.937 146.105 125.811 145.999C125.308 145.947 124.801 145.928 124.295 145.942L124.295 157.96" stroke="#1D1D1B" stroke-width="0.5" stroke-miterlimit="10"/>
<path d="M124.413 170.085L124.413 168.378L156.803 168.378L143.913 170.369C139.61 170.799 138.297 172.146 138.297 172.146C138.297 172.146 130.842 179.447 129.365 180.844C128.527 181.637 127.047 181.932 125.921 182.039C125.418 182.09 124.911 182.109 124.405 182.095L124.405 170.085" fill="#DADADA"/>
<path d="M124.413 170.085L124.413 168.378L156.803 168.378L143.913 170.369C139.61 170.799 138.297 172.146 138.297 172.146C138.297 172.146 130.842 179.447 129.365 180.844C128.527 181.637 127.047 181.932 125.921 182.039C125.418 182.09 124.911 182.109 124.405 182.095L124.405 170.085" stroke="#1D1D1B" stroke-width="0.5" stroke-miterlimit="10"/>
<path d="M124.544 168.36L158.556 168.36C158.556 168.36 167.119 167.379 169.59 164.706C169.766 164.517 169.864 164.268 169.864 164.01C169.864 163.751 169.766 163.502 169.59 163.313C167.126 160.64 158.585 159.659 158.585 159.659L124.572 159.659L124.544 168.36Z" fill="#DADADA" stroke="#1D1D1B" stroke-width="0.5" stroke-miterlimit="10"/>
<path d="M125.815 158.184L125.815 145.978" stroke="#010101" stroke-width="0.5" stroke-miterlimit="10"/>
<path d="M119.808 158.93L115.346 159.659L115.346 168.538L119.769 169.139" fill="#B2B2B2"/>
<path d="M119.808 158.93L115.346 159.659L115.346 168.538L119.769 169.139" stroke="#1D1D1B" stroke-width="0.5" stroke-miterlimit="10"/>
<path d="M128.19 162.943L119.797 162.943L119.797 158.102C119.797 158.102 125.066 156.705 128.179 159.577L128.19 162.943Z" fill="#DADADA" stroke="#1D1D1B" stroke-width="0.5" stroke-miterlimit="10"/>
<path d="M119.808 159.659L117.863 158.756L117.369 161.383L119.808 161.383L119.808 159.659Z" fill="#DADADA" stroke="#1D1D1B" stroke-width="0.5" stroke-miterlimit="10"/>
<path d="M128.2 164.955L119.819 164.955L119.819 169.797C119.819 169.797 125.087 171.19 128.2 168.318L128.2 164.955Z" fill="#DADADA" stroke="#1D1D1B" stroke-width="0.5" stroke-miterlimit="10"/>
<path d="M119.819 168.236L117.873 169.139L117.384 166.512L119.819 166.512L119.819 168.236Z" fill="#DADADA" stroke="#1D1D1B" stroke-width="0.5" stroke-miterlimit="10"/>
<path d="M119.769 162.421L116.961 161.714L116.961 166.342L119.808 165.73" fill="#DADADA"/>
<path d="M119.769 162.421L116.961 161.714L116.961 166.342L119.808 165.73" stroke="#1D1D1B" stroke-width="0.5" stroke-miterlimit="10"/>
<path d="M128.822 163.583L128.822 164.579L113.273 164.337L113.273 163.86L128.822 163.583Z" fill="#DADADA" stroke="#1D1D1B" stroke-width="0.5" stroke-miterlimit="10"/>
<path d="M176.281 157.754L176.281 170.245" stroke="#010101" stroke-width="0.5" stroke-miterlimit="10"/>
<path d="M159.763 161.301L159.841 160.946L161.045 161.198L160.97 161.554C160.958 161.613 160.934 161.669 160.9 161.719C160.866 161.769 160.823 161.811 160.773 161.844C160.722 161.877 160.666 161.9 160.606 161.911C160.547 161.922 160.486 161.922 160.427 161.909L160.115 161.845C160.056 161.833 159.999 161.81 159.95 161.776C159.9 161.742 159.857 161.698 159.824 161.648C159.791 161.597 159.769 161.54 159.759 161.481C159.748 161.421 159.75 161.36 159.763 161.301V161.301Z" stroke="#010101" stroke-width="0.5" stroke-miterlimit="10"/>
<path d="M159.675 166.885L159.749 167.241L160.953 166.988L160.878 166.633C160.852 166.514 160.781 166.41 160.679 166.344C160.578 166.277 160.454 166.253 160.335 166.278L160.023 166.345C159.964 166.357 159.909 166.381 159.859 166.415C159.81 166.449 159.768 166.492 159.736 166.542C159.703 166.593 159.681 166.649 159.671 166.708C159.66 166.767 159.662 166.827 159.675 166.885V166.885Z" stroke="#010101" stroke-width="0.5" stroke-miterlimit="10"/>
<path d="M161.315 166.338L161.67 166.654L162.259 166.018L161.922 165.705C161.888 165.673 161.847 165.647 161.803 165.63C161.759 165.613 161.712 165.605 161.664 165.607C161.617 165.609 161.57 165.62 161.527 165.64C161.485 165.66 161.446 165.688 161.414 165.723L161.308 165.84C161.244 165.908 161.208 165.998 161.21 166.091C161.211 166.184 161.249 166.273 161.315 166.338Z" stroke="#010101" stroke-width="0.5" stroke-miterlimit="10"/>
<path d="M161.198 161.82L161.553 161.5L162.142 162.137L161.805 162.453C161.77 162.485 161.73 162.51 161.686 162.526C161.642 162.542 161.595 162.549 161.548 162.547C161.501 162.546 161.455 162.534 161.413 162.514C161.37 162.494 161.332 162.466 161.3 162.432L161.194 162.318C161.129 162.251 161.094 162.161 161.094 162.068C161.095 161.975 161.132 161.886 161.198 161.82Z" fill="#DADADA" stroke="#1D1D1B" stroke-width="0.5" stroke-miterlimit="10"/>
<path d="M162.074 162.833L162.539 162.773L162.653 163.633L162.199 163.693C162.152 163.7 162.104 163.698 162.059 163.686C162.013 163.675 161.97 163.654 161.932 163.626C161.895 163.597 161.863 163.561 161.839 163.521C161.815 163.48 161.8 163.435 161.794 163.388L161.773 163.231C161.761 163.138 161.785 163.045 161.842 162.97C161.898 162.896 161.982 162.846 162.074 162.833Z" stroke="#010101" stroke-width="0.5" stroke-miterlimit="10"/>
<path d="M162.042 165.364L162.507 165.428L162.625 164.568L162.167 164.504C162.12 164.497 162.072 164.499 162.026 164.511C161.98 164.523 161.937 164.544 161.899 164.573C161.861 164.602 161.83 164.638 161.806 164.679C161.783 164.72 161.768 164.766 161.762 164.813L161.744 164.97C161.733 165.061 161.758 165.154 161.814 165.227C161.869 165.301 161.951 165.35 162.042 165.364V165.364Z" stroke="#010101" stroke-width="0.5" stroke-miterlimit="10"/>
<path d="M157.942 163.502L157.942 162.976C157.942 162.927 157.961 162.881 157.995 162.847C158.029 162.813 158.075 162.794 158.123 162.794L158.663 162.794C158.687 162.794 158.711 162.798 158.733 162.807C158.756 162.816 158.776 162.829 158.793 162.846C158.81 162.863 158.824 162.883 158.833 162.905C158.843 162.928 158.848 162.951 158.848 162.976L158.848 163.516C158.848 163.564 158.828 163.61 158.795 163.644C158.761 163.678 158.714 163.697 158.666 163.697L158.138 163.697C158.111 163.699 158.085 163.696 158.06 163.687C158.036 163.678 158.013 163.663 157.995 163.645C157.976 163.626 157.962 163.604 157.953 163.579C157.944 163.554 157.94 163.528 157.942 163.502V163.502Z" stroke="#010101" stroke-width="0.5" stroke-miterlimit="10"/>
<path d="M157.942 165.14L157.942 164.6C157.942 164.552 157.961 164.506 157.995 164.472C158.029 164.438 158.075 164.418 158.123 164.418L158.663 164.418C158.711 164.418 158.757 164.438 158.791 164.472C158.825 164.506 158.844 164.552 158.844 164.6L158.844 165.14C158.844 165.188 158.825 165.234 158.791 165.268C158.757 165.302 158.711 165.321 158.663 165.321L158.138 165.321C158.112 165.324 158.087 165.321 158.063 165.313C158.039 165.305 158.018 165.292 157.999 165.275C157.981 165.258 157.966 165.237 157.956 165.214C157.946 165.19 157.942 165.165 157.942 165.14V165.14Z" stroke="#010101" stroke-width="0.5" stroke-miterlimit="10"/>
<path d="M157.154 159.659L157.154 168.36" stroke="#010101" stroke-width="0.5" stroke-miterlimit="10"/>
<path d="M150.143 159.659L150.143 168.36" stroke="#010101" stroke-width="0.5" stroke-miterlimit="10"/>
<path d="M143.295 159.659L143.295 168.36" stroke="#010101" stroke-width="0.5" stroke-miterlimit="10"/>
<path d="M136.461 159.659L136.461 168.36" stroke="#010101" stroke-width="0.5" stroke-miterlimit="10"/>
<path d="M129.542 159.659L129.542 168.36" stroke="#010101" stroke-width="0.5" stroke-miterlimit="10"/>
<path d="M170.648 151.672L170.648 157.039" stroke="#010101" stroke-width="0.5" stroke-miterlimit="10"/>
<path d="M165.454 151.672L165.454 157.039" stroke="#010101" stroke-width="0.5" stroke-miterlimit="10"/>
<path d="M160.36 151.672L160.36 157.039" stroke="#010101" stroke-width="0.5" stroke-miterlimit="10"/>
<path d="M155.18 151.672L155.18 157.05" stroke="#010101" stroke-width="0.5" stroke-miterlimit="10"/>
<path d="M150.143 151.672L150.143 157.039" stroke="#010101" stroke-width="0.5" stroke-miterlimit="10"/>
<path d="M144.985 151.672L144.985 157.039" stroke="#010101" stroke-width="0.5" stroke-miterlimit="10"/>
<path d="M139.692 151.672L139.692 156.748" stroke="#010101" stroke-width="0.5" stroke-miterlimit="10"/>
<path d="M124.405 176.525L124.405 170.781L122.112 170.781L122.112 176.525L124.405 176.525Z" fill="#DADADA" stroke="#1D1D1B" stroke-width="0.5" stroke-miterlimit="10"/>
<path d="M122.112 172.363L117.643 171.314L117.643 175.992L122.112 174.954L122.112 172.363Z" fill="#DADADA" stroke="#1D1D1B" stroke-width="0.5" stroke-miterlimit="10"/>
<path d="M125.921 169.63L125.921 182.042" stroke="#010101" stroke-width="0.5" stroke-miterlimit="10"/>
<path d="M170.626 176.419L170.626 171.051" stroke="#010101" stroke-width="0.5" stroke-miterlimit="10"/>
<path d="M165.433 176.419L165.433 171.051" stroke="#010101" stroke-width="0.5" stroke-miterlimit="10"/>
<path d="M160.339 176.419L160.339 171.051" stroke="#010101" stroke-width="0.5" stroke-miterlimit="10"/>
<path d="M155.159 176.419L155.159 171.044" stroke="#010101" stroke-width="0.5" stroke-miterlimit="10"/>
<path d="M150.122 176.419L150.122 171.051" stroke="#010101" stroke-width="0.5" stroke-miterlimit="10"/>
<path d="M144.964 176.419L144.964 171.051" stroke="#010101" stroke-width="0.5" stroke-miterlimit="10"/>
<path d="M139.67 176.419L139.67 171.343" stroke="#010101" stroke-width="0.5" stroke-miterlimit="10"/>
<path d="M143.803 170.33L179.083 170.237C179.083 170.237 186.892 170.095 192.427 164.714C192.524 164.622 192.601 164.512 192.653 164.39C192.706 164.267 192.733 164.136 192.733 164.003C192.733 163.87 192.706 163.738 192.653 163.616C192.601 163.493 192.524 163.383 192.427 163.292C186.892 157.924 179.083 157.764 179.083 157.764L143.81 157.668" stroke="black" stroke-width="1.5" stroke-miterlimit="10"/>
<path d="M133.916 176.408L133.858 176.408" stroke="#1D1D1B" stroke-width="1.5" stroke-miterlimit="10"/>
<path d="M133.916 176.408L170.626 176.408C170.626 176.408 173.498 176.454 177.24 174.254C177.338 174.196 177.419 174.114 177.474 174.015C177.53 173.915 177.558 173.803 177.556 173.69C177.554 173.576 177.521 173.465 177.462 173.368C177.403 173.271 177.319 173.191 177.219 173.138C172.845 170.77 170.623 171.041 170.623 171.041L140.387 171.041" stroke="black" stroke-width="1.5" stroke-miterlimit="10"/>
<path d="M133.88 151.661L170.648 151.661C170.648 151.661 173.52 151.615 177.258 153.815C177.356 153.872 177.437 153.955 177.493 154.054C177.549 154.153 177.577 154.265 177.575 154.379C177.574 154.492 177.542 154.603 177.483 154.701C177.424 154.798 177.34 154.877 177.24 154.931C172.866 157.299 170.644 157.029 170.644 157.029L140.707 157.029" stroke="black" stroke-width="1.5" stroke-miterlimit="10"/>
<path d="M122.002 153.055L122.002 153.154" stroke="black" stroke-width="1.5" stroke-miterlimit="10"/>
<path d="M124.296 151.484L124.427 151.484" stroke="black" stroke-width="1.5" stroke-miterlimit="10"/>
<path d="M124.295 151.484L122.002 151.484L122.002 153.055" stroke="black" stroke-width="1.5" stroke-miterlimit="10"/>
<path d="M124.296 157.228L124.427 157.228" stroke="black" stroke-width="1.5" stroke-miterlimit="10"/>
<path d="M124.295 157.228L122.002 157.228L122.002 155.646" stroke="black" stroke-width="1.5" stroke-miterlimit="10"/>
<path d="M122.002 155.529L122.002 155.645" stroke="black" stroke-width="1.5" stroke-miterlimit="10"/>
<path d="M122.002 153.055L117.536 152.017L117.536 156.695L122.002 155.646" stroke="black" stroke-width="1.5" stroke-miterlimit="10"/>
<path d="M124.295 157.857L124.295 157.941" stroke="black" stroke-width="1.5" stroke-miterlimit="10"/>
<path d="M124.295 157.857L124.295 157.228" stroke="black" stroke-width="1.5" stroke-miterlimit="10"/>
<path d="M124.295 151.484L124.295 145.914C124.801 145.9 125.308 145.919 125.811 145.97C126.937 146.077 128.42 146.372 129.255 147.165C129.965 147.819 131.946 149.763 133.87 151.651C133.87 151.651 137.995 156.897 140.59 157.043C141.633 157.347 142.703 157.549 143.785 157.647L156.391 159.648L158.578 159.648C158.578 159.648 169.86 161.262 169.845 163.988C169.831 166.715 158.848 168.307 158.848 168.307L156.206 168.346L144.275 170.28" stroke="black" stroke-width="1.5" stroke-miterlimit="10"/>
<path d="M133.916 176.408C132.006 178.271 130.046 180.179 129.365 180.823C128.527 181.615 127.047 181.91 125.921 182.017C125.418 182.068 124.911 182.087 124.405 182.074L124.405 176.515" stroke="black" stroke-width="1.5" stroke-miterlimit="10"/>
<path d="M124.405 170.006L124.405 170.056L124.405 170.771" stroke="black" stroke-width="1.5" stroke-miterlimit="10"/>
<path d="M133.916 176.408C136.138 174.24 138.297 172.143 138.297 172.143C138.297 172.143 138.847 171.577 140.402 171.076" stroke="black" stroke-width="1.5" stroke-miterlimit="10"/>
<path d="M124.405 170.771L124.405 176.515" stroke="#1D1D1B" stroke-width="1.5" stroke-miterlimit="10"/>
<path d="M143.913 170.34C142.72 170.448 141.543 170.687 140.402 171.051" stroke="black" stroke-width="1.5" stroke-miterlimit="10"/>
<path d="M119.808 158.92L118.644 159.108" stroke="black" stroke-width="1.5" stroke-miterlimit="10"/>
<path d="M115.346 163.811L115.346 159.648L117.767 159.254" stroke="black" stroke-width="1.5" stroke-miterlimit="10"/>
<path d="M117.824 168.865L115.346 168.528L115.346 164.358" stroke="black" stroke-width="1.5" stroke-miterlimit="10"/>
<path d="M118.303 168.929L119.769 169.128" stroke="black" stroke-width="1.5" stroke-miterlimit="10"/>
<path d="M124.295 157.857C122.797 157.668 121.278 157.748 119.808 158.091L119.808 158.92" stroke="black" stroke-width="1.5" stroke-miterlimit="10"/>
<path d="M119.808 158.92L119.808 159.648" stroke="black" stroke-width="1.5" stroke-miterlimit="10"/>
<path d="M118.644 159.108L117.863 158.746L117.767 159.254" stroke="black" stroke-width="1.5" stroke-miterlimit="10"/>
<path d="M124.412 170.006C122.883 170.211 121.329 170.137 119.826 169.786L119.826 168.226" stroke="black" stroke-width="1.5" stroke-miterlimit="10"/>
<path d="M117.824 168.865L117.873 169.128L118.303 168.929" stroke="black" stroke-width="1.5" stroke-miterlimit="10"/>
<path d="M115.346 163.811L113.273 163.85L113.273 164.326L115.346 164.358" stroke="black" stroke-width="1.5" stroke-miterlimit="10"/>
<path d="M124.405 170.771L124.405 176.515" stroke="black" stroke-width="1.5" stroke-miterlimit="10"/>
<path d="M124.405 170.771L122.112 170.771L122.112 176.515L124.405 176.515" stroke="black" stroke-width="1.5" stroke-miterlimit="10"/>
<path d="M122.112 172.352L117.643 171.304L117.643 175.982L122.112 174.944" stroke="black" stroke-width="1.5" stroke-miterlimit="10"/>
<path d="M118.971 11.3909L128.911 16.4562L203.639 16.2358L209.762 15.3009L213.401 16.2144L219.791 16.2144L219.791 18.9692L218.726 18.9692L218.726 21.0131L219.791 21.0131L219.791 26.1672L218.726 26.1672L218.726 27.9444C219.081 27.8556 219.791 27.7312 219.791 27.9444L219.791 30.4326L213.401 30.5215C212.164 30.6659 210.945 30.9338 209.762 31.3213L203.994 30.4326L128.911 30.4326L118.971 35.6756L114.09 35.6756L113.824 34.6981L115.776 31.1435L114.534 31.2146L114.534 30.2371L113.114 31.2146L113.114 15.6422L114.534 16.3531L114.534 15.5533L115.776 15.6279L113.824 13.0651L114.09 11.3767L118.971 11.3909Z" fill="#B2B2B2"/>
<path d="M229.021 8.0105L250.853 16.186C258.209 16.1646 270.765 16.186 278.898 16.3566L280.23 10.7653L284.05 10.7653L297.717 20.5936C300.234 21.6991 302.155 22.801 302.155 23.5616C302.155 24.3223 300.245 25.5557 297.717 26.7358L284.05 36.1803L279.967 36.1803L278.902 30.493C271.603 30.6245 260.676 30.7454 250.857 30.7454L229.025 38.7431L221.126 38.7431L219.795 32.967L219.795 28.0972L218.73 28.0972L218.73 26.1422L219.795 26.1422L219.795 20.9881L218.73 20.9881L218.73 18.9443L219.795 18.9443L219.795 13.7013L221.126 8.01405L229.021 8.0105Z" fill="#DADADA"/>
<path d="M250.853 16.1899L229.021 8.01441L221.122 8.01441L219.791 13.7017M250.853 16.1899C258.209 16.1685 270.765 16.1899 278.898 16.3605M250.853 16.1899L222.986 17.8783L219.791 16.1899M250.853 16.1899L219.791 13.7017M250.853 30.7635L229.021 38.7612L221.122 38.7612L219.791 32.9851M250.853 30.7635C260.676 30.7635 271.603 30.6426 278.898 30.5111M250.853 30.7635L222.986 29.2528L219.791 30.408M250.853 30.7635L219.791 32.9851M219.791 13.7017L219.791 16.1899M219.791 16.1899L219.791 19.0335M219.791 16.1899L213.49 16.1899M128.911 16.4387L118.971 11.3735L114.09 11.3735L113.823 13.0619L115.776 15.6247M128.911 16.4387L115.776 15.6247M128.911 16.4387L202.751 16.2219M128.911 30.3903L118.971 35.6332L114.09 35.6332L113.823 34.6557L115.776 31.1012M128.911 30.3903L115.776 31.1012M128.911 30.3903L202.751 30.3903M219.791 30.3903L219.791 32.9673M219.791 30.3903L219.791 27.9696M219.791 30.3903L213.49 30.4187M297.717 20.5975C293.737 18.8487 288.27 17.1034 286.535 16.723C285.789 16.5595 282.871 16.4422 278.902 16.3676M297.717 20.6046C300.234 21.7101 302.155 22.812 302.155 23.5727C302.155 24.3333 300.245 25.5668 297.717 26.7469M297.717 20.6046L284.05 10.7763L280.233 10.7763L278.902 16.3676M297.717 26.7469C293.933 28.5241 288.767 30.2197 286.535 30.3263C285.292 30.3832 282.548 30.4543 278.902 30.5182M297.717 26.7469L284.05 36.1913L279.967 36.1913L278.902 30.504M115.776 15.6425L114.533 15.5678L114.533 16.3676M115.776 31.1367L114.533 31.2078L114.533 30.2303M114.533 16.3676L113.113 15.6567L113.113 31.222L114.533 30.2445M114.533 16.3818L114.533 17.3593M114.533 30.2445L114.533 29.7114M219.791 19.0477C224.388 19.2148 228.162 20.3202 229.554 20.8961L219.791 20.8961M219.791 19.0477C219.411 19.0477 219.028 19.0477 218.637 19.0477L218.637 20.9139L219.791 20.9139M219.791 20.9139L219.791 26.1568M219.791 26.1568L218.637 26.1568L218.637 28.0229C219.028 28.0229 219.411 28.0229 219.791 28.0016M219.791 26.1568L229.554 26.1568C228.162 26.7291 224.388 27.8346 219.791 28.0016M213.49 16.2147L213.49 18.2408L208.076 19.7515L202.751 18.2408L202.751 16.2467M213.49 16.2147L209.762 15.3083L202.751 16.2467M213.49 30.4329L213.49 28.4104L208.076 26.8997L202.751 28.4104L202.751 30.4045M213.49 30.4329L209.762 31.3429L202.751 30.4045M114.533 21.1627L129.355 20.8961L118.616 17.3415L114.533 17.3415M114.533 21.1627L113.823 17.3415L114.533 17.3415M114.533 21.1627L114.533 25.6947M114.533 25.6947L113.823 29.6936L114.533 29.6936M114.533 25.6947L129.443 25.9613L118.616 29.6936L114.533 29.6936M289.996 18.8522L289.996 28.3606C293.28 27.44 299.829 25.1971 299.758 23.562C299.687 21.9269 293.219 19.7444 289.996 18.8558L289.996 18.8522Z" stroke="#010101" stroke-width="0.5"/>
<path d="M229.021 8.01066L250.853 16.1861C258.209 16.1648 270.765 16.1861 278.898 16.3567L280.23 10.7654L284.05 10.7654L297.717 20.5938C300.234 21.6992 302.155 22.8011 302.155 23.5618C302.155 24.3225 300.245 25.5559 297.717 26.736L284.05 36.1804L279.967 36.1804L278.902 30.4932C271.603 30.6247 260.676 30.7455 250.857 30.7455L229.025 38.7433L221.126 38.7433L219.795 32.9671L219.795 30.3901L128.915 30.3901L118.975 35.633L114.093 35.633L113.827 34.6555L115.78 31.101L114.537 31.1721L114.537 30.1946L113.117 31.1721L113.117 15.6423L114.537 16.3532L114.537 15.5534L115.78 15.6281L113.827 13.0652L114.093 11.3768L118.971 11.3768L128.911 16.442L219.791 16.1755L219.791 13.6873L221.122 8L229.021 8.01066Z" stroke="#010101" stroke-width="1.5"/>
<text fill="white" xml:space="preserve" style="white-space: pre" font-family="Assistant" font-size="11" font-weight="bold" letter-spacing="0em"><tspan x="44.7354" y="11.537">STARSHIP</tspan></text>
<text fill="#BBECF9" xml:space="preserve" style="white-space: pre" font-family="Assistant" font-size="10" font-weight="bold" letter-spacing="0em"><tspan x="23.6348" y="39.67">5.000 toneladas</tspan></text>
<text fill="white" xml:space="preserve" style="white-space: pre" font-family="Assistant" font-size="10" font-weight="600" letter-spacing="0em"><tspan x="73.1953" y="26.67">2012&#10;</tspan></text>
<path d="M188.493 236.761C188.666 236.578 188.689 236.476 188.493 236.294L184.9 236.294L184.9 236.107L179.325 236.014L176.792 234.521L172.461 234.428L172 234.008L169.927 234.101L165.689 234.101L165.689 234.381L151.914 234.194L140.121 233.965L115.52 230.852L114.921 229.948L114.645 229.948L114.645 230.741L114.645 231.214L114.23 231.161C113.754 232.665 113.83 233.488 114.23 234.941L114.645 234.957L114.645 236.793L114.23 236.807C113.691 238.364 113.619 239.288 114.23 241.1L114.645 241.051L114.645 241.613L114.645 242.5L114.921 242.5L115.52 241.506L140.121 238.483L151.914 238.254L165.689 238.254L165.689 238.627L169.789 238.627L172 238.767L172.461 238.44L176.792 238.44L179.325 236.947L184.9 236.947L184.9 236.761L188.493 236.761Z" fill="#D9D9D9"/>
<path d="M184.9 236.761L188.493 236.761C188.666 236.578 188.689 236.476 188.493 236.294L184.9 236.294M184.9 236.761L184.9 236.947L179.325 236.947M184.9 236.761C184.9 236.667 184.9 236.443 184.9 236.294M179.325 236.947L176.792 238.44M179.325 236.947C179.178 236.771 179.1 236.632 179.095 236.494M176.792 238.44L172.461 238.44M176.792 238.44C176.198 236.91 176.207 236.051 176.792 234.521M172.461 238.44L172 238.767L169.789 238.627M172.461 238.44L169.789 238.627M172.461 238.44C171.864 236.972 171.919 236.084 172.461 234.428M169.789 238.627L165.689 238.627L165.689 238.254M165.689 238.254L159.93 238.254M165.689 238.254C165.521 237.57 165.43 237.022 165.412 236.494M151.914 238.254L140.121 238.483M151.914 238.254L154.08 238.254M151.914 238.254C151.725 236.668 151.756 235.78 151.914 234.194M151.914 234.194L140.121 233.965M151.914 234.194L154.08 234.224M165.689 234.381L165.689 234.101L169.927 234.101M165.689 234.381L159.93 234.303M165.689 234.381C165.483 235.207 165.39 235.835 165.412 236.494M169.927 234.101L172 234.008L172.461 234.428M169.927 234.101L172.461 234.428M172.461 234.428L176.792 234.521M176.792 234.521L179.325 236.014M179.325 236.014L184.9 236.107L184.9 236.294M179.325 236.014C179.164 236.202 179.089 236.347 179.095 236.494M140.121 233.965L136.59 233.942M140.121 233.965L124.089 231.936M140.121 233.965C139.422 235.607 139.448 236.601 140.121 238.483M114.645 231.214L114.23 231.161C113.754 232.665 113.83 233.488 114.23 234.941L114.645 234.957M114.645 231.214L114.645 230.741L114.645 229.948L114.921 229.948L115.52 230.852L117.823 231.144M114.645 231.214L117.823 231.619M140.121 238.483L136.524 238.483M140.121 238.483L124.089 240.453M114.645 241.051L114.23 241.1C113.619 239.288 113.691 238.364 114.23 236.807L114.645 236.793M114.645 241.051L114.645 241.613L114.645 242.5L114.921 242.5L115.52 241.506L117.823 241.223M114.645 241.051L117.823 240.678M114.645 234.957L114.645 236.793M114.645 234.957L117.823 234.928M114.645 236.793L117.823 236.914M159.93 234.303C159.414 235.778 159.431 236.645 159.93 238.254M159.93 234.303L156.89 234.262M159.93 238.254L156.89 238.254M156.89 234.262C156.553 235.719 156.561 236.596 156.89 238.254M156.89 234.262L154.08 234.224M156.89 238.254L154.08 238.254M154.08 234.224C153.801 235.752 153.757 236.627 154.08 238.254M136.59 233.942V233.942C137.08 234.038 137.01 234.759 136.511 234.759L136.389 234.759M136.59 233.942L124.089 232.417M136.524 238.483V238.483C137.028 238.406 137.004 237.671 136.495 237.628L136.389 237.619M136.524 238.483L124.089 239.943M124.089 231.936C124.007 232.148 124.014 232.251 124.089 232.417M124.089 231.936L117.823 231.144M124.089 232.417C123.482 233.376 123.51 233.913 124.089 234.871M124.089 232.417L117.823 231.619M124.089 234.871C123.745 235.728 123.665 236.22 124.089 237.152M124.089 234.871L117.823 234.928M124.089 234.871L136.389 234.759M124.089 237.152L124.119 237.153M124.089 237.152L117.823 236.914M124.089 239.943C124.032 240.071 124.035 240.349 124.089 240.453M124.089 239.943C123.389 239.608 123.372 237.83 124.119 237.153M124.089 239.943L117.823 240.678M124.089 240.453L117.823 241.223M124.119 237.153L136.389 237.619M117.823 231.144C117.705 231.338 117.701 231.442 117.823 231.619M117.823 231.619C116.879 232.831 116.984 233.565 117.823 234.928M117.823 234.928C117.373 235.704 117.391 236.138 117.823 236.914M117.823 236.914C116.761 238.42 116.66 239.248 117.823 240.678M117.823 240.678C117.706 240.906 117.705 241.025 117.823 241.223M136.389 234.759C136.133 235.939 136.155 236.56 136.389 237.619M179.095 236.494L165.412 236.494" stroke="black" stroke-width="0.5"/>
<path d="M188.493 236.761C188.666 236.578 188.689 236.476 188.493 236.294L184.9 236.294L184.9 236.107L179.325 236.014L176.792 234.521L172.461 234.428L172 234.008L169.927 234.101L165.689 234.101L165.689 234.381L151.914 234.194L140.121 233.965L115.52 230.852L114.921 229.948L114.645 229.948L114.645 230.741L114.645 231.214L114.23 231.161C113.754 232.665 113.83 233.488 114.23 234.941L114.645 234.957L114.645 236.793L114.23 236.807C113.691 238.364 113.619 239.288 114.23 241.1L114.645 241.051L114.645 241.613L114.645 242.5L114.921 242.5L115.52 241.506L140.121 238.483L151.914 238.254L165.689 238.254L165.689 238.627L169.789 238.627L172 238.767L172.461 238.44L176.792 238.44L179.325 236.947L184.9 236.947L184.9 236.761L188.493 236.761Z" stroke="black" stroke-width="1.5"/>
<text transform="translate(37 67)" fill="white" xml:space="preserve" style="white-space: pre" font-family="Assistant" font-size="11" font-weight="bold" letter-spacing="0em"><tspan x="0.624023" y="11.037">SATURNO V</tspan></text>
<text transform="translate(23 83)" fill="#BBECF9" xml:space="preserve" style="white-space: pre" font-family="Assistant" font-size="10" font-weight="bold" letter-spacing="0em"><tspan x="0.634766" y="23.17">3.000 toneladas</tspan></text>
<text transform="translate(23 83)" fill="white" xml:space="preserve" style="white-space: pre" font-family="Assistant" font-size="10" font-weight="600" letter-spacing="0em"><tspan x="27.2168" y="10.17">1967-1973&#10;</tspan></text>
<text fill="white" xml:space="preserve" style="white-space: pre" font-family="Assistant" font-size="11" font-weight="bold" letter-spacing="0em"><tspan x="60.5264" y="228.037">SOYUZ</tspan></text>
<text fill="#BBECF9" xml:space="preserve" style="white-space: pre" font-family="Assistant" font-size="10" font-weight="bold" letter-spacing="0em"><tspan x="31.7891" y="252.67">308 toneladas</tspan></text>
<text fill="white" xml:space="preserve" style="white-space: pre" font-family="Assistant" font-size="10" font-weight="600" letter-spacing="0em"><tspan x="73.1953" y="239.67">1967&#10;</tspan></text>
<text fill="white" xml:space="preserve" style="white-space: pre" font-family="Assistant" font-size="11" font-weight="bold" letter-spacing="0em"><tspan x="5.54785" y="146.037">TRANSBORDADOR&#10;</tspan><tspan x="74.7812" y="160.037">STS</tspan></text>
<text fill="#BBECF9" xml:space="preserve" style="white-space: pre" font-family="Assistant" font-size="10" font-weight="bold" letter-spacing="0em"><tspan x="23.6348" y="188.17">2.030 toneladas</tspan></text>
<text fill="white" xml:space="preserve" style="white-space: pre" font-family="Assistant" font-size="10" font-weight="600" letter-spacing="0em"><tspan x="51.0762" y="175.17">1981-2011&#10;</tspan></text>
<text transform="translate(304.233 15.9556)" fill="white" xml:space="preserve" style="white-space: pre" font-family="Assistant" font-size="12" font-weight="600" letter-spacing="0em"><tspan x="0.1875" y="12.404">119 m</tspan></text>
<text transform="translate(290.233 82.5)" fill="white" xml:space="preserve" style="white-space: pre" font-family="Assistant" font-size="12" font-weight="600" letter-spacing="0em"><tspan x="0.1875" y="12.404">110 m</tspan></text>
<text transform="translate(197.233 155.5)" fill="white" xml:space="preserve" style="white-space: pre" font-family="Assistant" font-size="12" font-weight="600" letter-spacing="0em"><tspan x="0.207031" y="12.404">56 m</tspan></text>
<text transform="translate(191.233 228)" fill="white" xml:space="preserve" style="white-space: pre" font-family="Assistant" font-size="12" font-weight="600" letter-spacing="0em"><tspan x="0.0898438" y="12.404">45,6 m</tspan></text>
<path d="M99 69L99 110" stroke="white"/>
<path d="M99 69L99 110" stroke="white"/>
<path d="M99 215L99 256" stroke="white"/>
<path d="M99 139L99 189" stroke="white"/>
<path d="M99 3L99 40.5" stroke="white"/>
<path d="M110 90H99" stroke="white"/>
<path d="M110 90H99" stroke="white"/>
<path d="M110 236H99" stroke="white"/>
<path d="M110 164H99" stroke="white"/>
<path d="M110 24H99" stroke="white"/>
</svg>
