<svg width="333" height="276" viewBox="0 0 333 276" fill="none" xmlns="http://www.w3.org/2000/svg">
<path d="M137.332 219.237L142.31 209.457L142.093 135.931L141.174 129.906L142.072 126.326V120.039H144.779V121.086H146.787V120.039H151.852V121.086H153.599C153.511 120.737 153.389 120.039 153.599 120.039H156.044L156.131 126.326C156.274 127.541 156.536 128.743 156.917 129.906L156.044 135.582V209.457L161.196 219.237V224.039L160.235 224.301L156.742 222.38L156.812 223.603H155.852L156.812 225H141.51L142.208 223.603H141.422L141.496 222.38L138.977 224.301L137.318 224.039L137.332 219.237Z" fill="#B2B2B2"/>
<path d="M134.01 110.957L142.044 89.4758C142.023 82.2385 142.044 69.8841 142.212 61.8819L136.717 60.5721V56.8137L146.375 43.3661C147.462 40.8897 148.544 39 149.292 39C150.039 39 151.251 40.8792 152.411 43.3661L161.692 56.8137V60.8306L156.103 61.8784C156.232 69.0598 156.351 79.8109 156.351 89.4723L164.21 110.954V118.725L158.534 120.035H153.749V121.083H151.828V120.035H146.763V121.083H144.755V120.035H139.603L134.014 118.725L134.01 110.957Z" fill="#DADADA"/>
<path d="M142.048 89.4758L134.014 110.957V118.729L139.603 120.039M142.048 89.4758C142.027 82.2385 142.048 69.8841 142.215 61.8819M142.048 89.4758L143.707 116.895L142.048 120.039M142.048 89.4758L139.603 120.039M156.368 89.4758L164.227 110.957V118.729L158.552 120.039M156.368 89.4758C156.368 79.8109 156.25 69.0598 156.12 61.8819M156.368 89.4758L154.884 116.895L156.019 120.039M156.368 89.4758L158.552 120.039M139.603 120.039H142.048M142.048 120.039H144.842M142.048 120.039V126.238M142.292 209.457L137.315 219.237V224.039L138.974 224.301L141.492 222.38M142.292 209.457L141.492 222.38M142.292 209.457L142.079 136.804M156.002 209.457L161.154 219.237V224.039L160.193 224.301L156.7 222.38M156.002 209.457L156.7 222.38M156.002 209.457V136.804M156.002 120.039H158.534M156.002 120.039H153.623M156.002 120.039L156.03 126.238M146.379 43.3661C144.66 47.2816 142.945 52.6607 142.572 54.3687C142.411 55.1022 142.296 57.9734 142.222 61.8784M146.386 43.3661C147.472 40.8897 148.555 39 149.302 39C150.05 39 151.262 40.8792 152.422 43.3661M146.386 43.3661L136.728 56.8137V60.5686L142.222 61.8784M152.422 43.3661C154.168 47.0895 155.834 52.1717 155.939 54.3687C155.995 55.5912 156.065 58.2912 156.127 61.8784M152.422 43.3661L161.702 56.8137V60.8306L156.114 61.8784M141.51 222.38L141.436 223.603H142.222M156.735 222.38L156.805 223.603H155.845M142.222 223.603L141.524 225H156.819L155.859 223.603M142.236 223.603H143.197M155.859 223.603H155.335M144.856 120.039C145.02 115.515 146.106 111.802 146.672 110.433V120.039M144.856 120.039C144.856 120.412 144.856 120.79 144.856 121.174H146.69V120.039M146.69 120.039H151.842M151.842 120.039V121.174H153.675C153.675 120.79 153.675 120.412 153.655 120.039M151.842 120.039V110.433C152.404 111.802 153.49 115.515 153.655 120.039M142.072 126.238H144.063L145.548 131.565L144.063 136.804H142.104M142.072 126.238L141.181 129.906L142.104 136.804M156.044 126.238H154.056L152.572 131.565L154.056 136.804H156.016M156.044 126.238L156.938 129.906L156.016 136.804M146.934 223.603L146.672 209.02L143.179 219.586V223.603M146.934 223.603L143.179 224.301V223.603M146.934 223.603H151.388M151.388 223.603L155.317 224.301V223.603M151.388 223.603L151.65 208.933L155.317 219.586V223.603M144.664 50.9632H154.007C153.103 47.7322 150.899 41.2878 149.292 41.3577C147.685 41.4276 145.541 47.7916 144.667 50.9632H144.664Z" stroke="#010101" stroke-width="0.5"/>
<path d="M134.01 110.957L142.044 89.4758C142.023 82.2385 142.044 69.8841 142.212 61.8819L136.717 60.5721V56.8137L146.375 43.3661C147.462 40.8897 148.544 39 149.292 39C150.039 39 151.251 40.8792 152.411 43.3661L161.692 56.8137V60.8306L156.103 61.8784C156.232 69.0598 156.351 79.8109 156.351 89.4723L164.21 110.954V118.725L158.534 120.035H156.002V209.453L161.154 219.233V224.036L160.193 224.298L156.7 222.377L156.77 223.599H155.81L156.77 224.996H141.51L142.208 223.599H141.422L141.496 222.377L138.977 224.298L137.318 224.036V219.237L142.296 209.457L142.034 120.039H139.589L134 118.729L134.01 110.957Z" stroke="#010101" stroke-width="1.5"/>
<text fill="white" xml:space="preserve" style="white-space: pre" font-family="Roboto" font-size="7" letter-spacing="0em"><tspan x="1" y="198.21">Propulsor de lanzamiento </tspan><tspan x="1" y="206.21">potenciado por 33 motores Raptor</tspan></text>
<text fill="white" xml:space="preserve" style="white-space: pre" font-family="Roboto" font-size="13" font-weight="bold" letter-spacing="0em"><tspan x="1" y="182.943">SUPERHEAVY</tspan></text>
<path d="M147 189H1" stroke="#BBECF9"/>
<text fill="#BBECF9" xml:space="preserve" style="white-space: pre" font-family="Roboto" font-size="7" font-weight="600" letter-spacing="0em"><tspan x="0" y="95.2104">Capacidad de 100&#10;</tspan><tspan x="0" y="103.21">pasajeros</tspan></text>
<text fill="white" xml:space="preserve" style="white-space: pre" font-family="Roboto" font-size="7" letter-spacing="0em"><tspan x="0" y="79.2104">Transporte de carga y </tspan><tspan x="0" y="87.2104">pasajeros. &#10;</tspan></text>
<text fill="#BBECF9" xml:space="preserve" style="white-space: pre" font-family="Roboto" font-size="7" font-weight="600" letter-spacing="0em"><tspan x="260" y="89.3926">Capacidad de 149 </tspan><tspan x="260" y="97.3926">pasajeros</tspan></text>
<text fill="white" xml:space="preserve" style="white-space: pre" font-family="Roboto" font-size="7" letter-spacing="0em"><tspan x="260" y="81.3926">Transporte pasajeros.&#10;</tspan></text>
<text fill="white" xml:space="preserve" style="white-space: pre" font-family="Roboto" font-size="13" font-weight="bold" letter-spacing="0em"><tspan x="1" y="63.9434">STARSHIP</tspan></text>
<path d="M148 70H0" stroke="#BBECF9"/>
<path d="M333 71L208 71" stroke="#BBECF9"/>
<path d="M197.734 61.1873C198.27 58.5049 199.536 53.1401 200.309 53.1401C201.081 53.1401 202.562 58.5049 203.206 61.1873V70.5221L220.588 80.1787V82.7538L207.712 78.8912H203.206V89.1916L200.309 99.492L197.734 89.1916V78.8912H192.584L180.03 82.7538V80.1787L197.734 70.5221V61.1873Z" fill="#D9D9D9"/>
<path d="M197.734 70.5221C197.734 67.0557 197.734 63.7323 197.734 61.1873C198.27 58.5049 199.536 53.1401 200.309 53.1401C201.081 53.1401 202.562 58.5049 203.206 61.1873V70.5221M197.734 70.5221L180.03 80.1787V82.7538L192.584 78.8912H197.734M197.734 70.5221C197.734 73.3305 197.734 76.2328 197.734 78.8912M197.734 78.8912C197.734 84.1568 197.734 88.4655 197.734 89.1916L200.309 99.492L203.206 89.1916V78.8912M203.206 70.5221L220.588 80.1787V82.7538L207.712 78.8912H203.206M203.206 70.5221V78.8912" stroke="black"/>
<path d="M191.618 98.8482V100.458L199.987 98.2044L198.699 93.698L191.618 98.8482Z" fill="#D9D9D9" stroke="black"/>
<path d="M202.24 93.698L200.953 98.2044L209.322 100.136V98.2044L202.24 93.698Z" fill="#D9D9D9"/>
<path d="M192.262 68.5908V73.4191L195.159 71.8096V70.2002V68.5908H192.262Z" fill="#D9D9D9"/>
<path d="M202.24 93.698L200.953 98.2044L209.322 100.136V98.2044L202.24 93.698Z" stroke="black"/>
<path d="M192.262 68.5908V73.4191L195.159 71.8096V70.2002V68.5908H192.262Z" stroke="black"/>
<path d="M205.781 68.5908V71.8096L208.678 73.4191V68.5908H205.781Z" fill="#D9D9D9" stroke="black"/>
<text fill="white" xml:space="preserve" style="white-space: pre" font-family="Roboto" font-size="10" font-weight="bold" letter-spacing="0em"><tspan x="1" y="116.418">55 m</tspan></text>
<text fill="white" xml:space="preserve" style="white-space: pre" font-family="Roboto" font-size="10" font-weight="bold" letter-spacing="0em"><tspan x="1" y="222.418">119 m total</tspan></text>
<text fill="white" xml:space="preserve" style="white-space: pre" font-family="Roboto" font-size="13" font-weight="bold" letter-spacing="0em"><tspan x="260" y="64.9434">BOEING 373</tspan></text>
<text fill="white" xml:space="preserve" style="white-space: pre" font-family="Roboto" font-size="10" font-weight="bold" letter-spacing="0em"><tspan x="260" y="109.418">31.4 m</tspan></text>
<circle cx="148" cy="70" r="2" fill="white"/>
<circle cx="148" cy="189" r="2" fill="white"/>
</svg>
