<svg width="349" height="256" viewBox="0 0 349 256" fill="none" xmlns="http://www.w3.org/2000/svg">
<path fill-rule="evenodd" clip-rule="evenodd" d="M252.172 95.2318L229.118 95.2318L220.843 96.4119L143.694 96.4119L136.381 99.0672L135.05 102.906L134.237 97.8871L134.237 96.4119C132.945 96.8065 132.292 96.7389 131.209 96.2626L125 98.1821L125 82.1866L131.209 84.1807C132.179 83.83 133.226 83.7526 134.237 83.9568L134.237 81.8916L135.05 77.7612L136.381 81.3158L143.694 83.971L220.843 83.971L229.118 85.2258L252.172 85.2258L252.172 95.2318ZM134.237 89.1571L134.237 86.5374C133.243 86.8522 132.169 86.8005 131.209 86.3917L127.513 87.7922L131.209 89.1571C132.423 88.7554 133.09 88.7128 134.237 89.1571ZM134.237 93.547L134.237 93.9913C132.774 93.611 132.135 93.7034 131.209 94.2117L127.513 92.8112L131.209 91.3218C132.192 91.8479 132.849 91.9083 134.237 91.5422L134.237 93.547Z" fill="#B2B2B2"/>
<path d="M298.946 89.2672C299.137 89.3609 299.295 89.5094 299.401 89.6937C299.506 89.878 299.555 90.0896 299.539 90.3016C299.564 90.5052 299.519 90.7112 299.411 90.8856C299.303 91.0601 299.139 91.1926 298.946 91.2613L288.754 91.2613L288.062 92.8111L286.873 91.8976L287.072 91.2613L284.835 91.2613L279.365 92.8111L270.795 92.8111L252.172 95.836L252.172 84.8418L270.795 87.7174L279.365 87.7174L284.835 89.2672L287.072 89.2672L286.873 88.7269L288.062 87.7174L288.754 89.2672L298.946 89.2672Z" fill="#DADADA"/>
<path d="M284.835 91.2613L279.365 92.8111M284.835 91.2613L284.835 89.2672M284.835 91.2613L280.639 91.2613M284.835 91.2613L287.171 91.2613M279.361 92.8111L279.361 87.7174M279.361 92.8111L277.231 92.8111M270.802 92.8111L277.224 92.8111M270.795 92.8111L270.795 87.7174M270.795 92.8111L253.134 95.6796M252.172 95.3241L252.172 95.8396L253.134 95.6831M252.172 95.3277L252.172 85.279M252.172 95.317L249.658 95.317M229.107 95.317L234.333 95.317M229.118 95.317L225.33 95.8573M229.118 95.317L229.118 90.3122M220.843 96.5007L225.33 95.8609M220.843 96.5007L220.843 90.3122M220.843 96.5007L214.744 96.5007M143.694 96.5007L136.381 99.1559M143.694 96.5007L151.22 96.5007M143.694 96.5007L143.694 94.4746M143.694 96.5007L135.05 95.6227M136.381 99.1559L135.05 102.995L134.237 97.9758M136.367 99.1559L134.237 97.9758M134.237 97.9758L134.237 96.5007M134.237 96.5007C132.945 96.8953 132.292 96.8277 131.209 96.3514M134.237 96.5007L134.237 95.541M131.209 96.3514L125 98.2709L125 92.8857M131.209 96.3514C131.001 95.6787 131.001 94.9589 131.209 94.2862M131.209 84.2482L125 82.2576L125 87.8667M131.209 84.2482C132.179 83.8985 133.227 83.8222 134.237 84.0278M131.209 84.2482C131.001 84.9717 131.001 85.7391 131.209 86.4627M134.237 84.0278L134.237 81.9626M134.237 84.0278L134.237 85.279M134.237 81.9591L135.05 77.8145L136.381 81.369M134.251 81.9591L136.381 81.369M136.381 81.369L143.694 84.0242M143.694 84.0242L151.22 84.0242M143.694 84.0242L143.694 86.2458M143.694 84.0242L135.05 85.1724M220.843 84.0242L225.33 84.7067M220.843 84.0242L220.843 90.3087M220.843 84.0242L214.744 84.0242M229.118 85.279L234.333 85.279M229.118 85.279L225.33 84.7067M229.118 85.279L229.118 90.3087M252.172 85.279L252.172 84.8382L253.134 84.984M252.172 85.279L249.658 85.279M270.784 87.7139L277.224 87.7139M270.795 87.7139L253.134 84.984M279.365 87.7139L284.835 89.2636M279.365 87.7139L277.235 87.7139M284.846 89.2636L280.65 89.2636M284.846 89.2636L287.182 89.2636M277.242 87.7139L277.242 92.8075M194.775 84.0242L194.775 96.4971M194.775 84.0242L214.762 84.0242M194.775 84.0242L194.065 84.0242M194.775 96.4971L214.762 96.4971M194.775 96.4971L194.065 96.4971M178.573 84.0242L194.065 84.0242M178.573 84.0242L178.573 86.3454M178.573 84.0242L158.246 84.0242M178.573 96.4971L194.065 96.4971M178.573 96.4971L178.573 94.471M178.573 96.4971L158.246 96.4971M134.237 95.5374L134.237 94.0623M134.237 95.5374L135.05 95.6192M134.237 85.279L134.237 86.6084M134.237 85.279L135.05 85.1724M143.694 90.2554L151.22 90.2554M143.694 90.2554L143.694 94.4675M143.694 90.2554L143.694 86.2494M143.694 90.2625L135.05 87.1274M143.694 90.2554L135.05 93.3265M134.237 86.8252L134.237 89.2245M134.237 86.8252L134.237 86.6048M134.237 86.8252L135.05 87.1203M134.237 93.6144L134.237 94.0587M134.237 93.6144L134.237 91.6239M134.237 93.6144L135.05 93.3265M134.237 94.0587C132.774 93.6784 132.136 93.7708 131.209 94.2791M131.209 94.2791L127.513 92.8786M127.513 92.8786L131.209 91.3999M127.513 92.8786L125 92.8786M131.209 91.3999C132.192 91.9296 132.849 91.99 134.237 91.6239M131.209 91.3999C131.044 90.6842 131.044 89.9403 131.209 89.2245M134.237 91.6239L134.237 89.2245M134.237 89.2245C133.09 88.7802 132.423 88.8229 131.209 89.2245M131.209 89.2245L127.513 87.8596M127.513 87.8596L131.209 86.4556M127.513 87.8596L125 87.8596M131.209 86.4556C132.168 86.8655 133.242 86.9185 134.237 86.6048M125.007 87.8596L125.007 92.8857M288.754 89.2672L298.946 89.2672C299.137 89.3608 299.295 89.5093 299.401 89.6936C299.506 89.8779 299.555 90.0896 299.539 90.3016C299.564 90.5052 299.519 90.7112 299.411 90.8856C299.303 91.06 299.139 91.1925 298.946 91.2613L288.754 91.2613M288.754 89.2672L288.062 87.7174L286.873 88.7269L287.171 89.2672M288.754 89.2672L287.171 89.2672M288.754 91.2613L288.062 92.8111L286.873 91.8976L287.171 91.2613M288.754 91.2613L287.171 91.2613M279.056 88.1226L277.572 88.1226M279.056 92.4805L277.572 92.4805M279.056 89.2565L277.572 89.2565M279.056 91.2506L277.572 91.2506M279.056 90.3016L277.572 90.3016M253.134 84.9698L253.134 95.6618M249.658 85.279L249.658 95.317M249.658 85.279L234.322 85.279M249.658 95.3206L234.322 95.3206M234.322 85.2826L234.322 95.3206M225.33 84.7103L225.33 95.8609M229.118 90.3122L220.843 90.3122M214.744 84.0278L214.744 96.5007M194.065 84.0278L194.065 86.3454M194.065 96.4971L194.065 94.471M194.065 86.3454L178.573 86.3454M194.065 86.3454L194.065 90.3087M178.573 86.3454L178.573 90.3087M194.065 90.3087L178.573 90.3087M194.065 90.3087L194.065 94.471M178.573 90.3087L178.573 94.471M194.065 94.471L178.573 94.471M151.238 84.0242L151.238 86.2458M151.238 84.0242L158.246 84.0242M151.22 96.4971L151.22 94.471M151.22 96.4971L158.246 96.4971M151.22 90.2554L151.22 94.4675M151.22 90.2554L151.22 86.2494M151.22 94.4746L143.694 94.4746M143.694 94.4746L135.05 94.4746M151.22 86.2494L143.694 86.2494M143.694 86.2494L135.05 86.2494M158.246 84.0278L158.246 96.5007M135.05 85.1759L135.05 87.1274M135.05 93.3336L135.05 95.6227" stroke="#010101" stroke-width="0.5"/>
<path d="M299.539 90.3016C299.555 90.0896 299.507 89.8779 299.401 89.6936C299.295 89.5093 299.137 89.3608 298.947 89.2672L288.754 89.2672L288.062 87.7174L286.873 88.7269L287.072 89.2672L284.835 89.2672L279.365 87.7174L270.795 87.7174L252.172 84.8418L252.172 85.279L229.118 85.279L220.843 84.0242L143.694 84.0242L136.381 81.369L135.05 77.8145L134.237 81.9484L134.237 84.0136C133.227 83.808 132.179 83.8842 131.209 84.234L125 82.2434L125 98.2566L131.209 96.3372C132.274 96.8135 132.945 96.881 134.237 96.4865L134.237 97.9616L135.05 102.981L136.381 99.1417L143.694 96.4865L220.843 96.4865L229.118 95.3064L252.172 95.3064L252.172 95.8218L270.795 92.7969L279.365 92.7969L284.835 91.2471L287.072 91.2471L286.873 91.9829L288.062 92.7969L288.754 91.2471L298.947 91.2471C299.137 91.1789 299.299 91.0485 299.406 90.8771C299.514 90.7056 299.561 90.5029 299.539 90.3016V90.3016Z" stroke="#010101" stroke-width="1.5"/>
<path d="M134.049 86.6512L134.049 89.2424C134.049 89.2424 132.274 88.5884 131.159 89.2424L127.517 87.945L131.024 86.4912C131.487 86.7361 131.997 86.8772 132.519 86.9048C133.041 86.9325 133.563 86.8459 134.049 86.6512Z" stroke="#010101" stroke-width="1.67"/>
<path d="M134.049 91.5671L134.049 94.1655C134.049 94.1655 132.274 93.515 131.159 94.1655L127.517 92.8717L131.024 91.4143C131.487 91.658 131.998 91.7979 132.52 91.8243C133.042 91.8507 133.564 91.763 134.049 91.5671Z" stroke="#010101" stroke-width="1.67"/>
<path d="M136.657 164.519L136.657 162.383L131.769 162.383L131.769 164.519L136.657 164.519Z" fill="#DADADA"/>
<path d="M150.893 170.551L182.623 170.551C182.623 170.551 184.845 170.281 189.219 172.649C189.319 172.702 189.403 172.782 189.462 172.879C189.521 172.976 189.554 173.087 189.556 173.2C189.558 173.314 189.53 173.426 189.474 173.525C189.419 173.625 189.338 173.707 189.24 173.765C185.498 175.965 182.626 175.919 182.626 175.919L145.859 175.919" fill="#B2B2B2"/>
<path d="M150.893 170.551L182.623 170.551C182.623 170.551 184.845 170.281 189.219 172.649C189.319 172.702 189.403 172.782 189.462 172.879C189.521 172.976 189.554 173.087 189.556 173.2C189.558 173.314 189.53 173.426 189.474 173.525C189.419 173.625 189.338 173.707 189.24 173.765C185.498 175.965 182.626 175.919 182.626 175.919L145.859 175.919" stroke="#1D1D1B" stroke-width="0.5" stroke-miterlimit="10"/>
<path d="M149.903 156.539L182.644 156.539C182.644 156.539 184.866 156.809 189.24 154.442C189.34 154.388 189.424 154.308 189.483 154.211C189.542 154.114 189.574 154.003 189.575 153.889C189.577 153.776 189.549 153.663 189.493 153.564C189.437 153.465 189.356 153.383 189.258 153.326C185.52 151.126 182.648 151.172 182.648 151.172L145.88 151.172" fill="#B2B2B2"/>
<path d="M149.903 156.539L182.644 156.539C182.644 156.539 184.866 156.809 189.24 154.442C189.34 154.388 189.424 154.308 189.483 154.211C189.542 154.114 189.574 154.003 189.575 153.889C189.577 153.776 189.549 153.663 189.493 153.564C189.437 153.465 189.356 153.383 189.258 153.326C185.52 151.126 182.648 151.172 182.648 151.172L145.88 151.172" stroke="#1D1D1B" stroke-width="0.5" stroke-miterlimit="10"/>
<path d="M155.803 169.83L191.083 169.737C191.083 169.737 198.892 169.595 204.427 164.214C204.524 164.122 204.601 164.012 204.653 163.89C204.706 163.767 204.733 163.636 204.733 163.503C204.733 163.37 204.706 163.238 204.653 163.116C204.601 162.993 204.524 162.883 204.427 162.792C198.892 157.424 191.083 157.264 191.083 157.264L155.81 157.168" fill="#B2B2B2"/>
<path d="M155.803 169.83L191.083 169.737C191.083 169.737 198.892 169.595 204.427 164.214C204.524 164.122 204.601 164.012 204.653 163.89C204.706 163.767 204.733 163.636 204.733 163.503C204.733 163.37 204.706 163.238 204.653 163.116C204.601 162.993 204.524 162.883 204.427 162.792C198.892 157.424 191.083 157.264 191.083 157.264L155.81 157.168" stroke="#1D1D1B" stroke-width="0.5" stroke-miterlimit="10"/>
<path d="M136.295 156.738L136.295 150.994L134.002 150.994L134.002 156.738L136.295 156.738Z" fill="#DADADA" stroke="#1D1D1B" stroke-width="0.5" stroke-miterlimit="10"/>
<path d="M134.002 155.157L129.536 156.205L129.536 151.527L134.002 152.565L134.002 155.157Z" fill="#DADADA" stroke="#1D1D1B" stroke-width="0.5" stroke-miterlimit="10"/>
<path d="M136.295 157.453L136.295 159.159L168.693 159.159L155.803 157.168C151.5 156.738 150.19 155.391 150.19 155.391C150.19 155.391 142.735 148.09 141.255 146.693C140.42 145.9 138.937 145.605 137.811 145.499C137.308 145.447 136.801 145.428 136.295 145.442L136.295 157.46" fill="#DADADA"/>
<path d="M136.295 157.453L136.295 159.159L168.693 159.159L155.803 157.168C151.5 156.738 150.19 155.391 150.19 155.391C150.19 155.391 142.735 148.09 141.255 146.693C140.42 145.9 138.937 145.605 137.811 145.499C137.308 145.447 136.801 145.428 136.295 145.442L136.295 157.46" stroke="#1D1D1B" stroke-width="0.5" stroke-miterlimit="10"/>
<path d="M136.413 169.585L136.413 167.878L168.803 167.878L155.913 169.869C151.61 170.299 150.297 171.646 150.297 171.646C150.297 171.646 142.842 178.947 141.365 180.344C140.527 181.137 139.047 181.432 137.921 181.539C137.418 181.59 136.911 181.609 136.405 181.595L136.405 169.585" fill="#DADADA"/>
<path d="M136.413 169.585L136.413 167.878L168.803 167.878L155.913 169.869C151.61 170.299 150.297 171.646 150.297 171.646C150.297 171.646 142.842 178.947 141.365 180.344C140.527 181.137 139.047 181.432 137.921 181.539C137.418 181.59 136.911 181.609 136.405 181.595L136.405 169.585" stroke="#1D1D1B" stroke-width="0.5" stroke-miterlimit="10"/>
<path d="M136.544 167.86L170.556 167.86C170.556 167.86 179.119 166.879 181.59 164.206C181.766 164.017 181.864 163.768 181.864 163.51C181.864 163.251 181.766 163.002 181.59 162.813C179.126 160.14 170.585 159.159 170.585 159.159L136.572 159.159L136.544 167.86Z" fill="#DADADA" stroke="#1D1D1B" stroke-width="0.5" stroke-miterlimit="10"/>
<path d="M137.815 157.684L137.815 145.478" stroke="#010101" stroke-width="0.5" stroke-miterlimit="10"/>
<path d="M131.808 158.43L127.346 159.159L127.346 168.038L131.769 168.639" fill="#B2B2B2"/>
<path d="M131.808 158.43L127.346 159.159L127.346 168.038L131.769 168.639" stroke="#1D1D1B" stroke-width="0.5" stroke-miterlimit="10"/>
<path d="M140.19 162.443L131.797 162.443L131.797 157.602C131.797 157.602 137.066 156.205 140.179 159.077L140.19 162.443Z" fill="#DADADA" stroke="#1D1D1B" stroke-width="0.5" stroke-miterlimit="10"/>
<path d="M131.808 159.159L129.863 158.256L129.369 160.883L131.808 160.883L131.808 159.159Z" fill="#DADADA" stroke="#1D1D1B" stroke-width="0.5" stroke-miterlimit="10"/>
<path d="M140.2 164.455L131.819 164.455L131.819 169.297C131.819 169.297 137.087 170.69 140.2 167.818L140.2 164.455Z" fill="#DADADA" stroke="#1D1D1B" stroke-width="0.5" stroke-miterlimit="10"/>
<path d="M131.819 167.736L129.873 168.639L129.384 166.012L131.819 166.012L131.819 167.736Z" fill="#DADADA" stroke="#1D1D1B" stroke-width="0.5" stroke-miterlimit="10"/>
<path d="M131.769 161.921L128.961 161.214L128.961 165.842L131.808 165.23" fill="#DADADA"/>
<path d="M131.769 161.921L128.961 161.214L128.961 165.842L131.808 165.23" stroke="#1D1D1B" stroke-width="0.5" stroke-miterlimit="10"/>
<path d="M140.822 163.083L140.822 164.079L125.273 163.837L125.273 163.36L140.822 163.083Z" fill="#DADADA" stroke="#1D1D1B" stroke-width="0.5" stroke-miterlimit="10"/>
<path d="M188.281 157.254L188.281 169.745" stroke="#010101" stroke-width="0.5" stroke-miterlimit="10"/>
<path d="M171.763 160.801L171.841 160.446L173.045 160.698L172.97 161.054C172.958 161.113 172.934 161.169 172.9 161.219C172.866 161.269 172.823 161.311 172.773 161.344C172.722 161.377 172.666 161.4 172.606 161.411C172.547 161.422 172.486 161.422 172.427 161.409L172.115 161.345C172.056 161.333 171.999 161.31 171.95 161.276C171.9 161.242 171.857 161.198 171.824 161.148C171.791 161.097 171.769 161.04 171.759 160.981C171.748 160.921 171.75 160.86 171.763 160.801V160.801Z" stroke="#010101" stroke-width="0.5" stroke-miterlimit="10"/>
<path d="M171.675 166.385L171.749 166.741L172.953 166.488L172.878 166.133C172.852 166.014 172.781 165.91 172.679 165.844C172.578 165.777 172.454 165.753 172.335 165.778L172.023 165.845C171.964 165.857 171.909 165.881 171.859 165.915C171.81 165.949 171.768 165.992 171.736 166.042C171.703 166.093 171.681 166.149 171.671 166.208C171.66 166.267 171.662 166.327 171.675 166.385V166.385Z" stroke="#010101" stroke-width="0.5" stroke-miterlimit="10"/>
<path d="M173.315 165.838L173.67 166.154L174.259 165.518L173.922 165.205C173.888 165.173 173.847 165.147 173.803 165.13C173.759 165.113 173.712 165.105 173.664 165.107C173.617 165.109 173.57 165.12 173.527 165.14C173.485 165.16 173.446 165.188 173.414 165.223L173.308 165.34C173.244 165.408 173.208 165.498 173.21 165.591C173.211 165.684 173.249 165.773 173.315 165.838Z" stroke="#010101" stroke-width="0.5" stroke-miterlimit="10"/>
<path d="M173.198 161.32L173.553 161L174.142 161.637L173.805 161.953C173.77 161.985 173.73 162.01 173.686 162.026C173.642 162.042 173.595 162.049 173.548 162.047C173.501 162.046 173.455 162.034 173.413 162.014C173.37 161.994 173.332 161.966 173.3 161.932L173.194 161.818C173.129 161.751 173.094 161.661 173.094 161.568C173.095 161.475 173.132 161.386 173.198 161.32Z" fill="#DADADA" stroke="#1D1D1B" stroke-width="0.5" stroke-miterlimit="10"/>
<path d="M174.074 162.333L174.539 162.273L174.653 163.133L174.199 163.193C174.152 163.2 174.104 163.198 174.059 163.186C174.013 163.175 173.97 163.154 173.932 163.126C173.895 163.097 173.863 163.061 173.839 163.021C173.815 162.98 173.8 162.935 173.794 162.888L173.773 162.731C173.761 162.638 173.785 162.545 173.842 162.47C173.898 162.396 173.982 162.346 174.074 162.333Z" stroke="#010101" stroke-width="0.5" stroke-miterlimit="10"/>
<path d="M174.042 164.864L174.507 164.928L174.625 164.068L174.167 164.004C174.12 163.997 174.072 163.999 174.026 164.011C173.98 164.023 173.937 164.044 173.899 164.073C173.861 164.102 173.83 164.138 173.806 164.179C173.783 164.22 173.768 164.266 173.762 164.313L173.744 164.47C173.733 164.561 173.758 164.654 173.814 164.727C173.869 164.801 173.951 164.85 174.042 164.864V164.864Z" stroke="#010101" stroke-width="0.5" stroke-miterlimit="10"/>
<path d="M169.942 163.002L169.942 162.476C169.942 162.427 169.961 162.381 169.995 162.347C170.029 162.313 170.075 162.294 170.123 162.294L170.663 162.294C170.687 162.294 170.711 162.298 170.733 162.307C170.756 162.316 170.776 162.329 170.793 162.346C170.81 162.363 170.824 162.383 170.833 162.405C170.843 162.428 170.848 162.451 170.848 162.476L170.848 163.016C170.848 163.064 170.828 163.11 170.795 163.144C170.761 163.178 170.714 163.197 170.666 163.197L170.138 163.197C170.111 163.199 170.085 163.196 170.06 163.187C170.036 163.178 170.013 163.163 169.995 163.145C169.976 163.126 169.962 163.104 169.953 163.079C169.944 163.054 169.94 163.028 169.942 163.002V163.002Z" stroke="#010101" stroke-width="0.5" stroke-miterlimit="10"/>
<path d="M169.942 164.64L169.942 164.1C169.942 164.052 169.961 164.006 169.995 163.972C170.029 163.938 170.075 163.918 170.123 163.918L170.663 163.918C170.711 163.918 170.757 163.938 170.791 163.972C170.825 164.006 170.844 164.052 170.844 164.1L170.844 164.64C170.844 164.688 170.825 164.734 170.791 164.768C170.757 164.802 170.711 164.821 170.663 164.821L170.138 164.821C170.112 164.824 170.087 164.821 170.063 164.813C170.039 164.805 170.018 164.792 169.999 164.775C169.981 164.758 169.966 164.737 169.956 164.714C169.946 164.69 169.942 164.665 169.942 164.64V164.64Z" stroke="#010101" stroke-width="0.5" stroke-miterlimit="10"/>
<path d="M169.154 159.159L169.154 167.86" stroke="#010101" stroke-width="0.5" stroke-miterlimit="10"/>
<path d="M162.143 159.159L162.143 167.86" stroke="#010101" stroke-width="0.5" stroke-miterlimit="10"/>
<path d="M155.295 159.159L155.295 167.86" stroke="#010101" stroke-width="0.5" stroke-miterlimit="10"/>
<path d="M148.461 159.159L148.461 167.86" stroke="#010101" stroke-width="0.5" stroke-miterlimit="10"/>
<path d="M141.542 159.159L141.542 167.86" stroke="#010101" stroke-width="0.5" stroke-miterlimit="10"/>
<path d="M182.648 151.172L182.648 156.539" stroke="#010101" stroke-width="0.5" stroke-miterlimit="10"/>
<path d="M177.454 151.172L177.454 156.539" stroke="#010101" stroke-width="0.5" stroke-miterlimit="10"/>
<path d="M172.36 151.172L172.36 156.539" stroke="#010101" stroke-width="0.5" stroke-miterlimit="10"/>
<path d="M167.18 151.172L167.18 156.55" stroke="#010101" stroke-width="0.5" stroke-miterlimit="10"/>
<path d="M162.143 151.172L162.143 156.539" stroke="#010101" stroke-width="0.5" stroke-miterlimit="10"/>
<path d="M156.985 151.172L156.985 156.539" stroke="#010101" stroke-width="0.5" stroke-miterlimit="10"/>
<path d="M151.692 151.172L151.692 156.248" stroke="#010101" stroke-width="0.5" stroke-miterlimit="10"/>
<path d="M136.405 176.025L136.405 170.281L134.112 170.281L134.112 176.025L136.405 176.025Z" fill="#DADADA" stroke="#1D1D1B" stroke-width="0.5" stroke-miterlimit="10"/>
<path d="M134.112 171.863L129.643 170.814L129.643 175.492L134.112 174.454L134.112 171.863Z" fill="#DADADA" stroke="#1D1D1B" stroke-width="0.5" stroke-miterlimit="10"/>
<path d="M137.921 169.13L137.921 181.542" stroke="#010101" stroke-width="0.5" stroke-miterlimit="10"/>
<path d="M182.626 175.919L182.626 170.551" stroke="#010101" stroke-width="0.5" stroke-miterlimit="10"/>
<path d="M177.433 175.919L177.433 170.551" stroke="#010101" stroke-width="0.5" stroke-miterlimit="10"/>
<path d="M172.339 175.919L172.339 170.551" stroke="#010101" stroke-width="0.5" stroke-miterlimit="10"/>
<path d="M167.159 175.919L167.159 170.544" stroke="#010101" stroke-width="0.5" stroke-miterlimit="10"/>
<path d="M162.122 175.919L162.122 170.551" stroke="#010101" stroke-width="0.5" stroke-miterlimit="10"/>
<path d="M156.964 175.919L156.964 170.551" stroke="#010101" stroke-width="0.5" stroke-miterlimit="10"/>
<path d="M151.67 175.919L151.67 170.843" stroke="#010101" stroke-width="0.5" stroke-miterlimit="10"/>
<path d="M155.803 169.83L191.083 169.737C191.083 169.737 198.892 169.595 204.427 164.214C204.524 164.122 204.601 164.012 204.653 163.89C204.706 163.767 204.733 163.636 204.733 163.503C204.733 163.37 204.706 163.238 204.653 163.116C204.601 162.993 204.524 162.883 204.427 162.792C198.892 157.424 191.083 157.264 191.083 157.264L155.81 157.168" stroke="black" stroke-width="1.5" stroke-miterlimit="10"/>
<path d="M145.916 175.908L145.858 175.908" stroke="#1D1D1B" stroke-width="1.5" stroke-miterlimit="10"/>
<path d="M145.916 175.908L182.626 175.908C182.626 175.908 185.498 175.954 189.24 173.754C189.338 173.696 189.419 173.614 189.474 173.515C189.53 173.415 189.558 173.303 189.556 173.19C189.554 173.076 189.521 172.965 189.462 172.868C189.403 172.771 189.319 172.691 189.219 172.638C184.845 170.27 182.623 170.541 182.623 170.541L152.387 170.541" stroke="black" stroke-width="1.5" stroke-miterlimit="10"/>
<path d="M145.88 151.161L182.648 151.161C182.648 151.161 185.52 151.115 189.258 153.315C189.356 153.372 189.437 153.455 189.493 153.554C189.549 153.653 189.577 153.765 189.575 153.879C189.574 153.992 189.542 154.103 189.483 154.201C189.424 154.298 189.34 154.377 189.24 154.431C184.866 156.799 182.644 156.529 182.644 156.529L152.707 156.529" stroke="black" stroke-width="1.5" stroke-miterlimit="10"/>
<path d="M134.002 152.555L134.002 152.654" stroke="black" stroke-width="1.5" stroke-miterlimit="10"/>
<path d="M136.296 150.984L136.427 150.984" stroke="black" stroke-width="1.5" stroke-miterlimit="10"/>
<path d="M136.295 150.984L134.002 150.984L134.002 152.555" stroke="black" stroke-width="1.5" stroke-miterlimit="10"/>
<path d="M136.296 156.728L136.427 156.728" stroke="black" stroke-width="1.5" stroke-miterlimit="10"/>
<path d="M136.295 156.728L134.002 156.728L134.002 155.146" stroke="black" stroke-width="1.5" stroke-miterlimit="10"/>
<path d="M134.002 155.029L134.002 155.145" stroke="black" stroke-width="1.5" stroke-miterlimit="10"/>
<path d="M134.002 152.555L129.536 151.517L129.536 156.195L134.002 155.146" stroke="black" stroke-width="1.5" stroke-miterlimit="10"/>
<path d="M136.295 157.357L136.295 157.441" stroke="black" stroke-width="1.5" stroke-miterlimit="10"/>
<path d="M136.295 157.357L136.295 156.728" stroke="black" stroke-width="1.5" stroke-miterlimit="10"/>
<path d="M136.295 150.984L136.295 145.414C136.801 145.4 137.308 145.419 137.811 145.47C138.937 145.577 140.42 145.872 141.255 146.665C141.965 147.319 143.946 149.263 145.87 151.151C145.87 151.151 149.995 156.397 152.59 156.543C153.633 156.847 154.703 157.049 155.785 157.147L168.391 159.148L170.578 159.148C170.578 159.148 181.86 160.762 181.845 163.488C181.831 166.215 170.848 167.807 170.848 167.807L168.206 167.846L156.275 169.78" stroke="black" stroke-width="1.5" stroke-miterlimit="10"/>
<path d="M145.916 175.908C144.006 177.771 142.046 179.679 141.365 180.323C140.527 181.115 139.047 181.41 137.921 181.517C137.418 181.568 136.911 181.587 136.405 181.574L136.405 176.015" stroke="black" stroke-width="1.5" stroke-miterlimit="10"/>
<path d="M136.405 169.506L136.405 169.556L136.405 170.271" stroke="black" stroke-width="1.5" stroke-miterlimit="10"/>
<path d="M145.916 175.908C148.138 173.74 150.297 171.643 150.297 171.643C150.297 171.643 150.847 171.077 152.402 170.576" stroke="black" stroke-width="1.5" stroke-miterlimit="10"/>
<path d="M136.405 170.271L136.405 176.015" stroke="#1D1D1B" stroke-width="1.5" stroke-miterlimit="10"/>
<path d="M155.913 169.84C154.72 169.948 153.543 170.187 152.402 170.551" stroke="black" stroke-width="1.5" stroke-miterlimit="10"/>
<path d="M131.808 158.42L130.644 158.608" stroke="black" stroke-width="1.5" stroke-miterlimit="10"/>
<path d="M127.346 163.311L127.346 159.148L129.767 158.754" stroke="black" stroke-width="1.5" stroke-miterlimit="10"/>
<path d="M129.824 168.365L127.346 168.028L127.346 163.858" stroke="black" stroke-width="1.5" stroke-miterlimit="10"/>
<path d="M130.303 168.429L131.769 168.628" stroke="black" stroke-width="1.5" stroke-miterlimit="10"/>
<path d="M136.295 157.357C134.797 157.168 133.278 157.248 131.808 157.591L131.808 158.42" stroke="black" stroke-width="1.5" stroke-miterlimit="10"/>
<path d="M131.808 158.42L131.808 159.148" stroke="black" stroke-width="1.5" stroke-miterlimit="10"/>
<path d="M130.644 158.608L129.863 158.246L129.767 158.754" stroke="black" stroke-width="1.5" stroke-miterlimit="10"/>
<path d="M136.412 169.506C134.883 169.711 133.329 169.637 131.826 169.286L131.826 167.726" stroke="black" stroke-width="1.5" stroke-miterlimit="10"/>
<path d="M129.824 168.365L129.873 168.628L130.303 168.429" stroke="black" stroke-width="1.5" stroke-miterlimit="10"/>
<path d="M127.346 163.311L125.273 163.35L125.273 163.826L127.346 163.858" stroke="black" stroke-width="1.5" stroke-miterlimit="10"/>
<path d="M136.405 170.271L136.405 176.015" stroke="black" stroke-width="1.5" stroke-miterlimit="10"/>
<path d="M136.405 170.271L134.112 170.271L134.112 176.015L136.405 176.015" stroke="black" stroke-width="1.5" stroke-miterlimit="10"/>
<path d="M134.112 171.852L129.643 170.804L129.643 175.482L134.112 174.444" stroke="black" stroke-width="1.5" stroke-miterlimit="10"/>
<path d="M130.971 10.8909L140.911 15.9562L215.639 15.7358L221.762 14.8009L225.401 15.7144L231.791 15.7144L231.791 18.4692L230.726 18.4692L230.726 20.5131L231.791 20.5131L231.791 25.6672L230.726 25.6672L230.726 27.4444C231.081 27.3556 231.791 27.2312 231.791 27.4444L231.791 29.9326L225.401 30.0215C224.164 30.1659 222.945 30.4338 221.762 30.8213L215.994 29.9326L140.911 29.9326L130.971 35.1756L126.09 35.1756L125.824 34.1981L127.776 30.6435L126.534 30.7146L126.534 29.7371L125.114 30.7146L125.114 15.1422L126.534 15.8531L126.534 15.0533L127.776 15.1279L125.824 12.5651L126.09 10.8767L130.971 10.8909Z" fill="#B2B2B2"/>
<path d="M241.021 7.5105L262.853 15.686C270.209 15.6646 282.765 15.686 290.898 15.8566L292.23 10.2653L296.05 10.2653L309.717 20.0936C312.234 21.1991 314.155 22.301 314.155 23.0616C314.155 23.8223 312.245 25.0557 309.717 26.2358L296.05 35.6803L291.967 35.6803L290.902 29.993C283.603 30.1245 272.676 30.2454 262.857 30.2454L241.025 38.2431L233.126 38.2431L231.795 32.467L231.795 27.5972L230.73 27.5972L230.73 25.6422L231.795 25.6422L231.795 20.4881L230.73 20.4881L230.73 18.4443L231.795 18.4443L231.795 13.2013L233.126 7.51405L241.021 7.5105Z" fill="#DADADA"/>
<path d="M262.853 15.6899L241.021 7.51441L233.122 7.51441L231.791 13.2017M262.853 15.6899C270.209 15.6685 282.765 15.6899 290.898 15.8605M262.853 15.6899L234.986 17.3783L231.791 15.6899M262.853 15.6899L231.791 13.2017M262.853 30.2635L241.021 38.2612L233.122 38.2612L231.791 32.4851M262.853 30.2635C272.676 30.2635 283.603 30.1426 290.898 30.0111M262.853 30.2635L234.986 28.7528L231.791 29.908M262.853 30.2635L231.791 32.4851M231.791 13.2017L231.791 15.6899M231.791 15.6899L231.791 18.5335M231.791 15.6899L225.49 15.6899M140.911 15.9387L130.971 10.8735L126.09 10.8735L125.823 12.5619L127.776 15.1247M140.911 15.9387L127.776 15.1247M140.911 15.9387L214.751 15.7219M140.911 29.8903L130.971 35.1332L126.09 35.1332L125.823 34.1557L127.776 30.6012M140.911 29.8903L127.776 30.6012M140.911 29.8903L214.751 29.8903M231.791 29.8903L231.791 32.4673M231.791 29.8903L231.791 27.4696M231.791 29.8903L225.49 29.9187M309.717 20.0975C305.737 18.3487 300.27 16.6034 298.535 16.223C297.789 16.0595 294.871 15.9422 290.902 15.8676M309.717 20.1046C312.234 21.2101 314.155 22.312 314.155 23.0727C314.155 23.8333 312.245 25.0668 309.717 26.2469M309.717 20.1046L296.05 10.2763L292.233 10.2763L290.902 15.8676M309.717 26.2469C305.933 28.0241 300.767 29.7197 298.535 29.8263C297.292 29.8832 294.548 29.9543 290.902 30.0182M309.717 26.2469L296.05 35.6913L291.967 35.6913L290.902 30.004M127.776 15.1425L126.533 15.0678L126.533 15.8676M127.776 30.6367L126.533 30.7078L126.533 29.7303M126.533 15.8676L125.113 15.1567L125.113 30.722L126.533 29.7445M126.533 15.8818L126.533 16.8593M126.533 29.7445L126.533 29.2114M231.791 18.5477C236.388 18.7148 240.162 19.8202 241.554 20.3961L231.791 20.3961M231.791 18.5477C231.411 18.5477 231.028 18.5477 230.637 18.5477L230.637 20.4139L231.791 20.4139M231.791 20.4139L231.791 25.6568M231.791 25.6568L230.637 25.6568L230.637 27.5229C231.028 27.5229 231.411 27.5229 231.791 27.5016M231.791 25.6568L241.554 25.6568C240.162 26.2291 236.388 27.3346 231.791 27.5016M225.49 15.7147L225.49 17.7408L220.076 19.2515L214.751 17.7408L214.751 15.7467M225.49 15.7147L221.762 14.8083L214.751 15.7467M225.49 29.9329L225.49 27.9104L220.076 26.3997L214.751 27.9104L214.751 29.9045M225.49 29.9329L221.762 30.8429L214.751 29.9045M126.533 20.6627L141.355 20.3961L130.616 16.8415L126.533 16.8415M126.533 20.6627L125.823 16.8415L126.533 16.8415M126.533 20.6627L126.533 25.1947M126.533 25.1947L125.823 29.1936L126.533 29.1936M126.533 25.1947L141.443 25.4613L130.616 29.1936L126.533 29.1936M301.996 18.3522L301.996 27.8606C305.28 26.94 311.829 24.6971 311.758 23.062C311.687 21.4269 305.219 19.2444 301.996 18.3558L301.996 18.3522Z" stroke="#010101" stroke-width="0.5"/>
<path d="M241.021 7.51066L262.853 15.6861C270.209 15.6648 282.765 15.6861 290.898 15.8567L292.23 10.2654L296.05 10.2654L309.717 20.0938C312.234 21.1992 314.155 22.3011 314.155 23.0618C314.155 23.8225 312.245 25.0559 309.717 26.236L296.05 35.6804L291.967 35.6804L290.902 29.9932C283.603 30.1247 272.676 30.2455 262.857 30.2455L241.025 38.2433L233.126 38.2433L231.795 32.4671L231.795 29.8901L140.915 29.8901L130.975 35.133L126.093 35.133L125.827 34.1555L127.78 30.601L126.537 30.6721L126.537 29.6946L125.117 30.6721L125.117 15.1423L126.537 15.8532L126.537 15.0534L127.78 15.1281L125.827 12.5652L126.093 10.8768L130.971 10.8768L140.911 15.942L231.791 15.6755L231.791 13.1873L233.122 7.5L241.021 7.51066Z" stroke="#010101" stroke-width="1.5"/>
<text fill="white" xml:space="preserve" style="white-space: pre" font-family="Roboto" font-size="11" font-weight="bold" letter-spacing="0em"><tspan x="63.6641" y="10.2598">Starship</tspan></text>
<text fill="white" xml:space="preserve" style="white-space: pre" font-family="Roboto" font-size="10" font-weight="600" letter-spacing="0em"><tspan x="82.1484" y="25.418">2012&#10;</tspan></text>
<text fill="#BBECF9" xml:space="preserve" style="white-space: pre" font-family="Roboto" font-size="10" font-weight="bold" letter-spacing="0em"><tspan x="32.6074" y="37.418">5.000 toneladas</tspan></text>
<path d="M200.493 236.261C200.666 236.078 200.689 235.976 200.493 235.794L196.9 235.794L196.9 235.607L191.325 235.514L188.792 234.021L184.461 233.928L184 233.508L181.927 233.601L177.689 233.601L177.689 233.881L163.914 233.694L152.121 233.465L127.52 230.352L126.921 229.448L126.645 229.448L126.645 230.241L126.645 230.714L126.23 230.661C125.754 232.165 125.83 232.988 126.23 234.441L126.645 234.457L126.645 236.293L126.23 236.307C125.691 237.864 125.619 238.788 126.23 240.6L126.645 240.551L126.645 241.113L126.645 242L126.921 242L127.52 241.006L152.121 237.983L163.914 237.754L177.689 237.754L177.689 238.127L181.789 238.127L184 238.267L184.461 237.94L188.792 237.94L191.325 236.447L196.9 236.447L196.9 236.261L200.493 236.261Z" fill="#D9D9D9"/>
<path d="M196.9 236.261L200.493 236.261C200.666 236.078 200.689 235.976 200.493 235.794L196.9 235.794M196.9 236.261L196.9 236.447L191.325 236.447M196.9 236.261C196.9 236.167 196.9 235.943 196.9 235.794M191.325 236.447L188.792 237.94M191.325 236.447C191.178 236.271 191.1 236.132 191.095 235.994M188.792 237.94L184.461 237.94M188.792 237.94C188.198 236.41 188.207 235.551 188.792 234.021M184.461 237.94L184 238.267L181.789 238.127M184.461 237.94L181.789 238.127M184.461 237.94C183.864 236.472 183.919 235.584 184.461 233.928M181.789 238.127L177.689 238.127L177.689 237.754M177.689 237.754L171.93 237.754M177.689 237.754C177.521 237.07 177.43 236.522 177.412 235.994M163.914 237.754L152.121 237.983M163.914 237.754L166.08 237.754M163.914 237.754C163.725 236.168 163.756 235.28 163.914 233.694M163.914 233.694L152.121 233.465M163.914 233.694L166.08 233.724M177.689 233.881L177.689 233.601L181.927 233.601M177.689 233.881L171.93 233.803M177.689 233.881C177.483 234.707 177.39 235.335 177.412 235.994M181.927 233.601L184 233.508L184.461 233.928M181.927 233.601L184.461 233.928M184.461 233.928L188.792 234.021M188.792 234.021L191.325 235.514M191.325 235.514L196.9 235.607L196.9 235.794M191.325 235.514C191.164 235.702 191.089 235.847 191.095 235.994M152.121 233.465L148.59 233.442M152.121 233.465L136.089 231.436M152.121 233.465C151.422 235.107 151.448 236.101 152.121 237.983M126.645 230.714L126.23 230.661C125.754 232.165 125.83 232.988 126.23 234.441L126.645 234.457M126.645 230.714L126.645 230.241L126.645 229.448L126.921 229.448L127.52 230.352L129.823 230.644M126.645 230.714L129.823 231.119M152.121 237.983L148.524 237.983M152.121 237.983L136.089 239.953M126.645 240.551L126.23 240.6C125.619 238.788 125.691 237.864 126.23 236.307L126.645 236.293M126.645 240.551L126.645 241.113L126.645 242L126.921 242L127.52 241.006L129.823 240.723M126.645 240.551L129.823 240.178M126.645 234.457L126.645 236.293M126.645 234.457L129.823 234.428M126.645 236.293L129.823 236.414M171.93 233.803C171.414 235.278 171.431 236.145 171.93 237.754M171.93 233.803L168.89 233.762M171.93 237.754L168.89 237.754M168.89 233.762C168.553 235.219 168.561 236.096 168.89 237.754M168.89 233.762L166.08 233.724M168.89 237.754L166.08 237.754M166.08 233.724C165.801 235.252 165.757 236.127 166.08 237.754M148.59 233.442V233.442C149.08 233.538 149.01 234.259 148.511 234.259L148.389 234.259M148.59 233.442L136.089 231.917M148.524 237.983V237.983C149.028 237.906 149.004 237.171 148.495 237.128L148.389 237.119M148.524 237.983L136.089 239.443M136.089 231.436C136.007 231.648 136.014 231.751 136.089 231.917M136.089 231.436L129.823 230.644M136.089 231.917C135.482 232.876 135.51 233.413 136.089 234.371M136.089 231.917L129.823 231.119M136.089 234.371C135.745 235.228 135.665 235.72 136.089 236.652M136.089 234.371L129.823 234.428M136.089 234.371L148.389 234.259M136.089 236.652L136.119 236.653M136.089 236.652L129.823 236.414M136.089 239.443C136.032 239.571 136.035 239.849 136.089 239.953M136.089 239.443C135.389 239.108 135.372 237.33 136.119 236.653M136.089 239.443L129.823 240.178M136.089 239.953L129.823 240.723M136.119 236.653L148.389 237.119M129.823 230.644C129.705 230.838 129.701 230.942 129.823 231.119M129.823 231.119C128.879 232.331 128.984 233.065 129.823 234.428M129.823 234.428C129.373 235.204 129.391 235.638 129.823 236.414M129.823 236.414C128.761 237.92 128.66 238.748 129.823 240.178M129.823 240.178C129.706 240.406 129.705 240.525 129.823 240.723M148.389 234.259C148.133 235.439 148.155 236.06 148.389 237.119M191.095 235.994L177.412 235.994" stroke="black" stroke-width="0.5"/>
<path d="M200.493 236.261C200.666 236.078 200.689 235.976 200.493 235.794L196.9 235.794L196.9 235.607L191.325 235.514L188.792 234.021L184.461 233.928L184 233.508L181.927 233.601L177.689 233.601L177.689 233.881L163.914 233.694L152.121 233.465L127.52 230.352L126.921 229.448L126.645 229.448L126.645 230.241L126.645 230.714L126.23 230.661C125.754 232.165 125.83 232.988 126.23 234.441L126.645 234.457L126.645 236.293L126.23 236.307C125.691 237.864 125.619 238.788 126.23 240.6L126.645 240.551L126.645 241.113L126.645 242L126.921 242L127.52 241.006L152.121 237.983L163.914 237.754L177.689 237.754L177.689 238.127L181.789 238.127L184 238.267L184.461 237.94L188.792 237.94L191.325 236.447L196.9 236.447L196.9 236.261L200.493 236.261Z" stroke="black" stroke-width="1.5"/>
<text transform="translate(56 66.5)" fill="white" xml:space="preserve" style="white-space: pre" font-family="Roboto" font-size="11" font-weight="bold" letter-spacing="0em"><tspan x="0.112305" y="10.2598">Saturno V</tspan></text>
<text transform="translate(32 82.5)" fill="white" xml:space="preserve" style="white-space: pre" font-family="Roboto" font-size="10" font-weight="600" letter-spacing="0em"><tspan x="23.625" y="9.41797">1967-1973&#10;</tspan></text>
<text transform="translate(32 82.5)" fill="#BBECF9" xml:space="preserve" style="white-space: pre" font-family="Roboto" font-size="10" font-weight="bold" letter-spacing="0em"><tspan x="0.607422" y="21.418">3.000 toneladas</tspan></text>
<text fill="white" xml:space="preserve" style="white-space: pre" font-family="Roboto" font-size="11" font-weight="bold" letter-spacing="0em"><tspan x="74.793" y="226.76">Soyuz</tspan></text>
<text fill="white" xml:space="preserve" style="white-space: pre" font-family="Roboto" font-size="10" font-weight="600" letter-spacing="0em"><tspan x="82.1484" y="238.418">1967&#10;</tspan></text>
<text fill="#BBECF9" xml:space="preserve" style="white-space: pre" font-family="Roboto" font-size="10" font-weight="bold" letter-spacing="0em"><tspan x="41.25" y="250.418">308 toneladas</tspan></text>
<text fill="white" xml:space="preserve" style="white-space: pre" font-family="Roboto" font-size="11" font-weight="bold" letter-spacing="0em"><tspan x="9.13672" y="152.26">Transbordador STS&#10;</tspan></text>
<text fill="white" xml:space="preserve" style="white-space: pre" font-family="Roboto" font-size="10" font-weight="600" letter-spacing="0em"><tspan x="55.625" y="168.418">1981-2011&#10;</tspan></text>
<text fill="#BBECF9" xml:space="preserve" style="white-space: pre" font-family="Roboto" font-size="10" font-weight="bold" letter-spacing="0em"><tspan x="32.6074" y="180.418">2.030 toneladas</tspan></text>
<text transform="translate(314.233 15.4556)" fill="white" xml:space="preserve" style="white-space: pre" font-family="Roboto" font-size="12" font-weight="600" letter-spacing="0em"><tspan x="0.0078125" y="11.1016">119 m</tspan></text>
<text transform="translate(300.233 82)" fill="white" xml:space="preserve" style="white-space: pre" font-family="Roboto" font-size="12" font-weight="600" letter-spacing="0em"><tspan x="0.0078125" y="11.1016">110 m</tspan></text>
<text transform="translate(207.233 155)" fill="white" xml:space="preserve" style="white-space: pre" font-family="Roboto" font-size="12" font-weight="600" letter-spacing="0em"><tspan x="0.435547" y="11.1016">56 m</tspan></text>
<text transform="translate(202.233 227.5)" fill="white" xml:space="preserve" style="white-space: pre" font-family="Roboto" font-size="12" font-weight="600" letter-spacing="0em"><tspan x="0.0957031" y="11.1016">45,6 m</tspan></text>
<path d="M111 68.5L111 109.5" stroke="white"/>
<path d="M111 68.5L111 109.5" stroke="white"/>
<path d="M111 214.5L111 255.5" stroke="white"/>
<path d="M111 138.5L111 188.5" stroke="white"/>
<path d="M111 2.5L111 40" stroke="white"/>
<path d="M122 89.5H111" stroke="white"/>
<path d="M122 89.5H111" stroke="white"/>
<path d="M122 235.5H111" stroke="white"/>
<path d="M122 163.5H111" stroke="white"/>
<path d="M122 23.5H111" stroke="white"/>
</svg>
