<svg width="374" height="340" viewBox="0 0 374 340" fill="none" xmlns="http://www.w3.org/2000/svg">
<path d="M127.176 305.968L134.908 290.777L134.571 176.567L133.144 167.208L134.539 161.646V151.88H138.743V153.508H141.863V151.88H149.73V153.508H152.443C152.308 152.965 152.118 151.88 152.443 151.88H156.241L156.377 161.646C156.599 163.535 157.006 165.401 157.598 167.208L156.241 176.024V290.777L164.244 305.968V313.429L162.752 313.835L157.326 310.851L157.435 312.75H155.943L157.435 314.921H133.665L134.75 312.75H133.529L133.643 310.851L129.731 313.835L127.154 313.429L127.176 305.968Z" fill="#B2B2B2"/>
<path d="M122.016 137.774L134.495 104.406C134.463 93.1639 134.495 73.9735 134.756 61.5433L126.221 59.5087V53.6707L141.223 32.782C142.91 28.9353 144.592 26 145.753 26C146.914 26 148.797 28.919 150.598 32.782L165.014 53.6707V59.9102L156.333 61.5379C156.534 72.693 156.719 89.3931 156.719 104.4L168.926 137.768V149.84L160.11 151.875H152.677V153.502H149.692V151.875H141.825V153.502H138.705V151.875H130.703L122.022 149.84L122.016 137.774Z" fill="#DADADA"/>
<path d="M134.501 104.406L122.022 137.774V149.846L130.703 151.88M134.501 104.406C134.468 93.1639 134.501 73.9735 134.761 61.5433M134.501 104.406L137.078 146.997L134.501 151.88M134.501 104.406L130.703 151.88M156.746 104.406L168.953 137.774V149.846L160.137 151.88M156.746 104.406C156.746 89.3931 156.561 72.693 156.361 61.5433M156.746 104.406L154.44 146.997L156.203 151.88M156.746 104.406L160.137 151.88M130.703 151.88H134.501M134.501 151.88H138.841M134.501 151.88V161.511M134.88 290.776L127.149 305.968V313.429L129.726 313.835L133.638 310.851M134.88 290.776L133.638 310.851M134.88 290.776L134.55 177.923M156.176 290.776L164.179 305.968V313.429L162.687 313.835L157.261 310.851M156.176 290.776L157.261 310.851M156.176 290.776V177.923M156.176 151.88H160.11M156.176 151.88H152.481M156.176 151.88L156.22 161.511M141.228 32.782C138.559 38.8642 135.895 47.2197 135.315 49.8728C135.065 51.0122 134.886 55.4721 134.772 61.5379M141.239 32.782C142.927 28.9353 144.609 26 145.77 26C146.931 26 148.814 28.919 150.615 32.782M141.239 32.782L126.237 53.6707V59.5033L134.772 61.5379M150.615 32.782C153.328 38.5658 155.916 46.4601 156.078 49.8728C156.165 51.7718 156.274 55.9658 156.371 61.5379M150.615 32.782L165.031 53.6707V59.9102L156.35 61.5379M133.665 310.851L133.551 312.75H134.772M157.315 310.851L157.424 312.75H155.932M134.772 312.75L133.687 314.921H157.446L155.954 312.75M134.794 312.75H136.286M155.954 312.75H155.14M138.863 151.88C139.118 144.854 140.805 139.087 141.684 136.96V151.88M138.863 151.88C138.863 152.461 138.863 153.047 138.863 153.644H141.711V151.88M141.711 151.88H149.714M149.714 151.88V153.644H152.563C152.563 153.047 152.563 152.461 152.53 151.88M149.714 151.88V136.96C150.588 139.087 152.275 144.854 152.53 151.88M134.539 161.511H137.631L139.937 169.785L137.631 177.923H134.588M134.539 161.511L133.155 167.208L134.588 177.923M156.241 161.511H153.154L150.848 169.785L153.154 177.923H156.198M156.241 161.511L157.63 167.208L156.198 177.923M142.091 312.75L141.684 290.098L136.259 306.511V312.75M142.091 312.75L136.259 313.835V312.75M142.091 312.75H149.009M149.009 312.75L155.113 313.835V312.75M149.009 312.75L149.416 289.963L155.113 306.511V312.75M138.564 44.5828H153.078C151.673 39.5641 148.249 29.5538 145.753 29.6623C143.258 29.7708 139.926 39.6563 138.57 44.5828H138.564Z" stroke="#010101" stroke-width="0.5"/>
<path d="M122.016 137.774L134.495 104.406C134.463 93.1639 134.495 73.9735 134.756 61.5433L126.221 59.5087V53.6707L141.223 32.782C142.91 28.9353 144.592 26 145.753 26C146.915 26 148.797 28.919 150.599 32.782L165.014 53.6707V59.9102L156.333 61.5379C156.534 72.693 156.719 89.3931 156.719 104.4L168.926 137.768V149.84L160.11 151.875H156.176V290.771L164.179 305.963V313.423L162.687 313.83L157.261 310.846L157.37 312.745H155.878L157.37 314.915H133.665L134.75 312.745H133.529L133.643 310.846L129.732 313.83L127.154 313.423V305.968L134.886 290.776L134.479 151.88H130.681L122 149.846L122.016 137.774Z" stroke="#010101" stroke-width="1.5"/>
<text fill="white" xml:space="preserve" style="white-space: pre" font-family="Roboto" font-size="10" letter-spacing="0em"><tspan x="14" y="239.236">Propulsor de </tspan><tspan x="14" y="251.236">lanzamiento potenciado </tspan><tspan x="14" y="263.236">por 33 motores Raptor</tspan></text>
<text fill="white" xml:space="preserve" style="white-space: pre" font-family="Roboto" font-size="15" font-weight="bold" letter-spacing="0em"><tspan x="13" y="219.945">SUPERHEAVY</tspan></text>
<path d="M135.5 227.318H13.5" stroke="#BBECF9"/>
<circle cx="135.5" cy="227.318" r="1.5" fill="white"/>
<text fill="white" xml:space="preserve" style="white-space: pre" font-family="Roboto" font-size="10" letter-spacing="0em"><tspan x="13" y="120.236">Transporte de carga </tspan><tspan x="13" y="132.236">y pasajeros. &#10;</tspan></text>
<text fill="#BBECF9" xml:space="preserve" style="white-space: pre" font-family="Roboto" font-size="10" font-weight="600" letter-spacing="0em"><tspan x="13" y="144.236">Capacidad de 100&#10;</tspan><tspan x="13" y="156.236">pasajeros</tspan></text>
<text fill="white" xml:space="preserve" style="white-space: pre" font-family="Roboto" font-size="10" letter-spacing="0em"><tspan x="273" y="122.236">Transporte </tspan><tspan x="273" y="134.236">pasajeros.&#10;</tspan></text>
<text fill="#BBECF9" xml:space="preserve" style="white-space: pre" font-family="Roboto" font-size="10" font-weight="600" letter-spacing="0em"><tspan x="273" y="146.236">Capacidad de </tspan><tspan x="273" y="158.236">149 pasajeros</tspan></text>
<text fill="white" xml:space="preserve" style="white-space: pre" font-family="Roboto" font-size="15" font-weight="bold" letter-spacing="0em"><tspan x="12" y="101.945">STARSHIP</tspan></text>
<path d="M134.5 108.318H12.5" stroke="#BBECF9"/>
<path d="M134.5 108.318H12.5" stroke="#BBECF9"/>
<path d="M358 108.818H236" stroke="#BBECF9"/>
<circle cx="134.5" cy="108.318" r="1.5" fill="white"/>
<path d="M221 85.3179C221.833 81.1512 223.8 72.8179 225 72.8179C226.2 72.8179 228.5 81.1512 229.5 85.3179V99.8179L256.5 114.818V118.818L236.5 112.818H229.5V128.818L225 144.818L221 128.818V112.818H213L193.5 118.818V114.818L221 99.8179V85.3179Z" fill="#D9D9D9"/>
<path d="M221 99.8179C221 94.4334 221 89.2711 221 85.3179C221.833 81.1512 223.8 72.8179 225 72.8179C226.2 72.8179 228.5 81.1512 229.5 85.3179V99.8179M221 99.8179L193.5 114.818V118.818L213 112.818H221M221 99.8179C221 104.18 221 108.689 221 112.818M221 112.818C221 120.997 221 127.69 221 128.818L225 144.818L229.5 128.818V112.818M229.5 99.8179L256.5 114.818V118.818L236.5 112.818H229.5M229.5 99.8179V112.818" stroke="black"/>
<path d="M211.5 143.818V146.318L224.5 142.818L222.5 135.818L211.5 143.818Z" fill="#D9D9D9" stroke="black"/>
<path d="M228 135.818L226 142.818L239 145.818V142.818L228 135.818Z" fill="#D9D9D9"/>
<path d="M212.5 96.8179V104.318L217 101.818V99.3179V96.8179H212.5Z" fill="#D9D9D9"/>
<path d="M228 135.818L226 142.818L239 145.818V142.818L228 135.818Z" stroke="black"/>
<path d="M212.5 96.8179V104.318L217 101.818V99.3179V96.8179H212.5Z" stroke="black"/>
<path d="M233.5 96.8179V101.818L238 104.318V96.8179H233.5Z" fill="#D9D9D9" stroke="black"/>
<text fill="white" xml:space="preserve" style="white-space: pre" font-family="Roboto" font-size="15" font-weight="bold" letter-spacing="0em"><tspan x="13.0225" y="176.945">55 m</tspan></text>
<text fill="white" xml:space="preserve" style="white-space: pre" font-family="Roboto" font-size="15" font-weight="bold" letter-spacing="0em"><tspan x="13.1284" y="287.945">119 m total</tspan></text>
<text fill="white" xml:space="preserve" style="white-space: pre" font-family="Roboto" font-size="15" font-weight="bold" letter-spacing="0em"><tspan x="275" y="103.945">Boeing 373</tspan></text>
<text fill="white" xml:space="preserve" style="white-space: pre" font-family="Roboto" font-size="15" font-weight="bold" letter-spacing="0em"><tspan x="273" y="176.945">31.4 m</tspan></text>
</svg>
