<svg width="333" height="188" viewBox="0 0 333 188" fill="none" xmlns="http://www.w3.org/2000/svg">
<path d="M137.332 181.237L142.31 171.457L142.093 97.9312L141.174 91.906L142.072 88.3258V82.0386H144.779V83.0864H146.787V82.0386H151.852V83.0864H153.599C153.511 82.7372 153.389 82.0386 153.599 82.0386H156.044L156.131 88.3258C156.274 89.5413 156.536 90.7429 156.917 91.906L156.044 97.5819V171.457L161.196 181.237V186.039L160.235 186.301L156.742 184.38L156.812 185.603H155.852L156.812 187H141.51L142.208 185.603H141.422L141.496 184.38L138.977 186.301L137.318 186.039L137.332 181.237Z" fill="#B2B2B2"/>
<path d="M134.01 72.9571L142.044 51.4758C142.023 44.2385 142.044 31.8841 142.212 23.8819L136.717 22.5721V18.8137L146.375 5.36611C147.462 2.88965 148.544 1 149.292 1C150.039 1 151.251 2.87918 152.411 5.36611L161.692 18.8137V22.8306L156.103 23.8784C156.232 31.0598 156.351 41.8109 156.351 51.4723L164.21 72.9536V80.7252L158.534 82.0351H153.749V83.083H151.828V82.0351H146.763V83.083H144.755V82.0351H139.603L134.014 80.7252L134.01 72.9571Z" fill="#DADADA"/>
<path d="M142.048 51.4758L134.014 72.957V80.7287L139.603 82.0386M142.048 51.4758C142.027 44.2385 142.048 31.8841 142.215 23.8819M142.048 51.4758L143.707 78.895L142.048 82.0386M142.048 51.4758L139.603 82.0386M156.368 51.4758L164.227 72.957V80.7287L158.552 82.0386M156.368 51.4758C156.368 41.8109 156.25 31.0598 156.12 23.8819M156.368 51.4758L154.884 78.895L156.019 82.0386M156.368 51.4758L158.552 82.0386M139.603 82.0386H142.048M142.048 82.0386H144.842M142.048 82.0386V88.2384M142.292 171.457L137.315 181.237V186.039L138.974 186.301L141.492 184.38M142.292 171.457L141.492 184.38M142.292 171.457L142.079 98.8044M156.002 171.457L161.154 181.237V186.039L160.193 186.301L156.7 184.38M156.002 171.457L156.7 184.38M156.002 171.457V98.8044M156.002 82.0386H158.534M156.002 82.0386H153.623M156.002 82.0386L156.03 88.2384M146.379 5.36611C144.66 9.28165 142.945 14.6607 142.572 16.3687C142.411 17.1022 142.296 19.9734 142.222 23.8784M146.386 5.36611C147.472 2.88965 148.555 1 149.302 1C150.05 1 151.262 2.87918 152.422 5.36611M146.386 5.36611L136.728 18.8137V22.5686L142.222 23.8784M152.422 5.36611C154.168 9.08954 155.834 14.1717 155.939 16.3687C155.995 17.5912 156.065 20.2912 156.127 23.8784M152.422 5.36611L161.702 18.8137V22.8306L156.113 23.8784M141.51 184.38L141.436 185.603H142.222M156.735 184.38L156.805 185.603H155.845M142.222 185.603L141.524 187H156.819L155.859 185.603M142.236 185.603H143.197M155.859 185.603H155.335M144.856 82.0386C145.02 77.5153 146.106 73.8023 146.672 72.4331V82.0386M144.856 82.0386C144.856 82.4123 144.856 82.7895 144.856 83.1738H146.69V82.0386M146.69 82.0386H151.842M151.842 82.0386V83.1738H153.675C153.675 82.7895 153.675 82.4123 153.655 82.0386M151.842 82.0386V72.4331C152.404 73.8023 153.49 77.5153 153.655 82.0386M142.072 88.2384H144.063L145.547 93.5651L144.063 98.8044H142.104M142.072 88.2384L141.181 91.906L142.104 98.8044M156.044 88.2384H154.056L152.572 93.5651L154.056 98.8044H156.016M156.044 88.2384L156.938 91.906L156.016 98.8044M146.934 185.603L146.672 171.02L143.179 181.586V185.603M146.934 185.603L143.179 186.301V185.603M146.934 185.603H151.388M151.388 185.603L155.317 186.301V185.603M151.388 185.603L151.65 170.933L155.317 181.586V185.603M144.664 12.9632H154.007C153.103 9.73223 150.899 3.28784 149.292 3.3577C147.685 3.42756 145.541 9.79161 144.667 12.9632H144.664Z" stroke="#010101" stroke-width="0.5"/>
<path d="M134.01 72.957L142.044 51.4758C142.023 44.2385 142.044 31.8841 142.212 23.8819L136.717 22.5721V18.8137L146.375 5.36611C147.462 2.88965 148.544 1 149.292 1C150.039 1 151.251 2.87918 152.411 5.36611L161.692 18.8137V22.8306L156.103 23.8784C156.232 31.0598 156.351 41.8109 156.351 51.4723L164.21 72.9536V80.7252L158.534 82.0351H156.002V171.453L161.154 181.233V186.036L160.193 186.298L156.7 184.377L156.77 185.599H155.81L156.77 186.996H141.51L142.208 185.599H141.422L141.496 184.377L138.977 186.298L137.318 186.036V181.237L142.296 171.457L142.034 82.0386H139.589L134 80.7287L134.01 72.957Z" stroke="#010101" stroke-width="1.5"/>
<text fill="white" xml:space="preserve" style="white-space: pre" font-family="Roboto" font-size="7" letter-spacing="0em"><tspan x="1" y="160.21">Propulsor de lanzamiento </tspan><tspan x="1" y="168.21">potenciado por 33 motores Raptor</tspan></text>
<text fill="white" xml:space="preserve" style="white-space: pre" font-family="Roboto" font-size="13" font-weight="bold" letter-spacing="0em"><tspan x="1" y="144.943">SUPERHEAVY</tspan></text>
<path d="M147 151H1" stroke="#BBECF9"/>
<text fill="#BBECF9" xml:space="preserve" style="white-space: pre" font-family="Roboto" font-size="7" font-weight="600" letter-spacing="0em"><tspan x="0" y="57.2104">Capacidad de 100&#10;</tspan><tspan x="0" y="65.2104">pasajeros</tspan></text>
<text fill="white" xml:space="preserve" style="white-space: pre" font-family="Roboto" font-size="7" letter-spacing="0em"><tspan x="0" y="41.2104">Transporte de carga y </tspan><tspan x="0" y="49.2104">pasajeros. &#10;</tspan></text>
<text fill="#BBECF9" xml:space="preserve" style="white-space: pre" font-family="Roboto" font-size="7" font-weight="600" letter-spacing="0em"><tspan x="260" y="51.3926">Capacidad de 149 </tspan><tspan x="260" y="59.3926">pasajeros</tspan></text>
<text fill="white" xml:space="preserve" style="white-space: pre" font-family="Roboto" font-size="7" letter-spacing="0em"><tspan x="260" y="43.3926">Transporte pasajeros.&#10;</tspan></text>
<text fill="white" xml:space="preserve" style="white-space: pre" font-family="Roboto" font-size="13" font-weight="bold" letter-spacing="0em"><tspan x="1" y="25.9434">STARSHIP</tspan></text>
<path d="M148 32H0" stroke="#BBECF9"/>
<path d="M333 33L208 33" stroke="#BBECF9"/>
<path d="M197.734 23.1873C198.27 20.5049 199.536 15.1401 200.309 15.1401C201.081 15.1401 202.562 20.5049 203.206 23.1873V32.5221L220.588 42.1787V44.7538L207.712 40.8912H203.206V51.1916L200.309 61.492L197.734 51.1916V40.8912H192.584L180.03 44.7538V42.1787L197.734 32.5221V23.1873Z" fill="#D9D9D9"/>
<path d="M197.734 32.5221C197.734 29.0557 197.734 25.7323 197.734 23.1873C198.27 20.5049 199.536 15.1401 200.309 15.1401C201.081 15.1401 202.562 20.5049 203.206 23.1873V32.5221M197.734 32.5221L180.03 42.1787V44.7538L192.584 40.8912H197.734M197.734 32.5221C197.734 35.3305 197.734 38.2328 197.734 40.8912M197.734 40.8912C197.734 46.1568 197.734 50.4655 197.734 51.1916L200.309 61.492L203.206 51.1916V40.8912M203.206 32.5221L220.588 42.1787V44.7538L207.712 40.8912H203.206M203.206 32.5221V40.8912" stroke="black"/>
<path d="M191.618 60.8482V62.4576L199.987 60.2044L198.699 55.698L191.618 60.8482Z" fill="#D9D9D9" stroke="black"/>
<path d="M202.24 55.6979L200.953 60.2044L209.322 62.1357V60.2044L202.24 55.6979Z" fill="#D9D9D9"/>
<path d="M192.262 30.5907V35.419L195.159 33.8096V32.2001V30.5907H192.262Z" fill="#D9D9D9"/>
<path d="M202.24 55.6979L200.953 60.2044L209.322 62.1357V60.2044L202.24 55.6979Z" stroke="black"/>
<path d="M192.262 30.5907V35.419L195.159 33.8096V32.2001V30.5907H192.262Z" stroke="black"/>
<path d="M205.781 30.5907V33.8096L208.678 35.419V30.5907H205.781Z" fill="#D9D9D9" stroke="black"/>
<text fill="white" xml:space="preserve" style="white-space: pre" font-family="Roboto" font-size="10" font-weight="bold" letter-spacing="0em"><tspan x="1" y="78.418">55 m</tspan></text>
<text fill="white" xml:space="preserve" style="white-space: pre" font-family="Roboto" font-size="10" font-weight="bold" letter-spacing="0em"><tspan x="1" y="184.418">119 m total</tspan></text>
<text fill="white" xml:space="preserve" style="white-space: pre" font-family="Roboto" font-size="13" font-weight="bold" letter-spacing="0em"><tspan x="260" y="26.9434">BOEING 373</tspan></text>
<text fill="white" xml:space="preserve" style="white-space: pre" font-family="Roboto" font-size="10" font-weight="bold" letter-spacing="0em"><tspan x="260" y="71.418">31.4 m</tspan></text>
<circle cx="148" cy="32" r="2" fill="white"/>
<circle cx="148" cy="151" r="2" fill="white"/>
</svg>
