<svg width="897" height="157" viewBox="0 0 897 157" fill="none" xmlns="http://www.w3.org/2000/svg">
<text fill="white" xml:space="preserve" style="white-space: pre" font-family="Assistant" font-size="11" font-weight="bold" letter-spacing="0em"><tspan x="65" y="20.037">PRIMER SAT&#xc9;LITE ARTIFICIAL</tspan></text>
<text fill="white" xml:space="preserve" style="white-space: pre" font-family="Assistant" font-size="11" font-weight="600" letter-spacing="0em"><tspan x="54" y="103.037">1957</tspan></text>
<text fill="white" xml:space="preserve" style="white-space: pre" font-family="Assistant" font-size="7" font-weight="600" letter-spacing="0em"><tspan x="70.5" y="34.069">El sputnik 1, fabricado por Rusia, fue el </tspan><tspan x="70.5" y="43.069">primer sat&#xe9;lite en orbitar la tierra</tspan></text>
<text fill="white" xml:space="preserve" style="white-space: pre" font-family="Assistant" font-size="11" font-weight="bold" letter-spacing="0em"><tspan x="94" y="111.037">PRIMER ASTRONAUTA</tspan></text>
<text fill="white" xml:space="preserve" style="white-space: pre" font-family="Assistant" font-size="7" font-weight="600" letter-spacing="0em"><tspan x="102.902" y="126.069">El ruso Yuri Gagarin fue el primer </tspan><tspan x="136.74" y="135.069">hombre en el espacio</tspan></text>
<path d="M34.8232 75.8232C34.7256 75.9209 34.7256 76.0791 34.8232 76.1768L36.4142 77.7678C36.5118 77.8654 36.6701 77.8654 36.7678 77.7678C36.8654 77.6701 36.8654 77.5118 36.7678 77.4142L35.3536 76L36.7678 74.5858C36.8654 74.4882 36.8654 74.3299 36.7678 74.2322C36.6701 74.1346 36.5118 74.1346 36.4142 74.2322L34.8232 75.8232ZM863.177 76.1768C863.274 76.0791 863.274 75.9209 863.177 75.8232L861.586 74.2322C861.488 74.1346 861.33 74.1346 861.232 74.2322C861.135 74.3299 861.135 74.4882 861.232 74.5858L862.646 76L861.232 77.4142C861.135 77.5118 861.135 77.6701 861.232 77.7678C861.33 77.8654 861.488 77.8654 861.586 77.7678L863.177 76.1768ZM35 76.25H35.5V75.75H35V76.25ZM36.5 76.25H37.5V75.75H36.5V76.25ZM38.5 76.25H39.5V75.75H38.5V76.25ZM40.5 76.25H41.5V75.75H40.5V76.25ZM42.5 76.25H43.5V75.75H42.5V76.25ZM44.5 76.25H45.5V75.75H44.5V76.25ZM46.5 76.25H47.5V75.75H46.5V76.25ZM48.5 76.25H49.5V75.75H48.5V76.25ZM50.5 76.25H51.5V75.75H50.5V76.25ZM52.5 76.25H53.5V75.75H52.5V76.25ZM54.5 76.25H55.5V75.75H54.5V76.25ZM56.5 76.25H57.5V75.75H56.5V76.25ZM58.5 76.25H59.5V75.75H58.5V76.25ZM60.5 76.25H61.5V75.75H60.5V76.25ZM62.5 76.25H63.5V75.75H62.5V76.25ZM64.5 76.25H65.5V75.75H64.5V76.25ZM66.5 76.25H67.5V75.75H66.5V76.25ZM68.5 76.25H69.5V75.75H68.5V76.25ZM70.5 76.25H71.5V75.75H70.5V76.25ZM72.5 76.25H73.5V75.75H72.5V76.25ZM74.5 76.25H75.5V75.75H74.5V76.25ZM76.5 76.25H77.5V75.75H76.5V76.25ZM78.5 76.25H79.5V75.75H78.5V76.25ZM80.5 76.25H81.5V75.75H80.5V76.25ZM82.5 76.25H83.5V75.75H82.5V76.25ZM84.5 76.25H85.5V75.75H84.5V76.25ZM86.5 76.25H87.5V75.75H86.5V76.25ZM88.5 76.25H89.5V75.75H88.5V76.25ZM90.5 76.25H91.5V75.75H90.5V76.25ZM92.5 76.25H93.5V75.75H92.5V76.25ZM94.5 76.25H95.5V75.75H94.5V76.25ZM96.5 76.25H97.5V75.75H96.5V76.25ZM98.5 76.25H99.5V75.75H98.5V76.25ZM100.5 76.25H101.5V75.75H100.5V76.25ZM102.5 76.25H103.5V75.75H102.5V76.25ZM104.5 76.25H105.5V75.75H104.5V76.25ZM106.5 76.25H107.5V75.75H106.5V76.25ZM108.5 76.25H109.5V75.75H108.5V76.25ZM110.5 76.25H111.5V75.75H110.5V76.25ZM112.5 76.25H113.5V75.75H112.5V76.25ZM114.5 76.25H115.5V75.75H114.5V76.25ZM116.5 76.25H117.5V75.75H116.5V76.25ZM118.5 76.25H119.5V75.75H118.5V76.25ZM120.5 76.25H121.5V75.75H120.5V76.25ZM122.5 76.25H123.5V75.75H122.5V76.25ZM124.5 76.25H125.5V75.75H124.5V76.25ZM126.5 76.25H127.5V75.75H126.5V76.25ZM128.5 76.25H129.5V75.75H128.5V76.25ZM130.5 76.25H131.5V75.75H130.5V76.25ZM132.5 76.25H133.5V75.75H132.5V76.25ZM134.5 76.25H135.5V75.75H134.5V76.25ZM136.5 76.25H137.5V75.75H136.5V76.25ZM138.5 76.25H139.5V75.75H138.5V76.25ZM140.5 76.25H141.5V75.75H140.5V76.25ZM142.5 76.25H143.5V75.75H142.5V76.25ZM144.5 76.25H145.5V75.75H144.5V76.25ZM146.5 76.25H147.5V75.75H146.5V76.25ZM148.5 76.25H149.5V75.75H148.5V76.25ZM150.5 76.25H151.5V75.75H150.5V76.25ZM152.5 76.25H153.5V75.75H152.5V76.25ZM154.5 76.25H155.5V75.75H154.5V76.25ZM156.5 76.25H157.5V75.75H156.5V76.25ZM158.5 76.25H159.5V75.75H158.5V76.25ZM160.5 76.25H161.5V75.75H160.5V76.25ZM162.5 76.25H163.5V75.75H162.5V76.25ZM164.5 76.25H165.5V75.75H164.5V76.25ZM166.5 76.25H167.5V75.75H166.5V76.25ZM168.5 76.25H169.5V75.75H168.5V76.25ZM170.5 76.25H171.5V75.75H170.5V76.25ZM172.5 76.25H173.5V75.75H172.5V76.25ZM174.5 76.25H175.5V75.75H174.5V76.25ZM176.5 76.25H177.5V75.75H176.5V76.25ZM178.5 76.25H179.5V75.75H178.5V76.25ZM180.5 76.25H181.5V75.75H180.5V76.25ZM182.5 76.25H183.5V75.75H182.5V76.25ZM184.5 76.25H185.5V75.75H184.5V76.25ZM186.5 76.25H187.5V75.75H186.5V76.25ZM188.5 76.25H189.5V75.75H188.5V76.25ZM190.5 76.25H191.5V75.75H190.5V76.25ZM192.5 76.25H193.5V75.75H192.5V76.25ZM194.5 76.25H195.5V75.75H194.5V76.25ZM196.5 76.25H197.5V75.75H196.5V76.25ZM198.5 76.25H199.5V75.75H198.5V76.25ZM200.5 76.25H201.5V75.75H200.5V76.25ZM202.5 76.25H203.5V75.75H202.5V76.25ZM204.5 76.25H205.5V75.75H204.5V76.25ZM206.5 76.25H207.5V75.75H206.5V76.25ZM208.5 76.25H209.5V75.75H208.5V76.25ZM210.5 76.25H211.5V75.75H210.5V76.25ZM212.5 76.25H213.5V75.75H212.5V76.25ZM214.5 76.25H215.5V75.75H214.5V76.25ZM216.5 76.25H217.5V75.75H216.5V76.25ZM218.5 76.25H219.5V75.75H218.5V76.25ZM220.5 76.25H221.5V75.75H220.5V76.25ZM222.5 76.25H223.5V75.75H222.5V76.25ZM224.5 76.25H225.5V75.75H224.5V76.25ZM226.5 76.25H227.5V75.75H226.5V76.25ZM228.5 76.25H229.5V75.75H228.5V76.25ZM230.5 76.25H231.5V75.75H230.5V76.25ZM232.5 76.25H233.5V75.75H232.5V76.25ZM234.5 76.25H235.5V75.75H234.5V76.25ZM236.5 76.25H237.5V75.75H236.5V76.25ZM238.5 76.25H239.5V75.75H238.5V76.25ZM240.5 76.25H241.5V75.75H240.5V76.25ZM242.5 76.25H243.5V75.75H242.5V76.25ZM244.5 76.25H245.5V75.75H244.5V76.25ZM246.5 76.25H247.5V75.75H246.5V76.25ZM248.5 76.25H249.5V75.75H248.5V76.25ZM250.5 76.25H251.5V75.75H250.5V76.25ZM252.5 76.25H253.5V75.75H252.5V76.25ZM254.5 76.25H255.5V75.75H254.5V76.25ZM256.5 76.25H257.5V75.75H256.5V76.25ZM258.5 76.25H259.5V75.75H258.5V76.25ZM260.5 76.25H261.5V75.75H260.5V76.25ZM262.5 76.25H263.5V75.75H262.5V76.25ZM264.5 76.25H265.5V75.75H264.5V76.25ZM266.5 76.25H267.5V75.75H266.5V76.25ZM268.5 76.25H269.5V75.75H268.5V76.25ZM270.5 76.25H271.5V75.75H270.5V76.25ZM272.5 76.25H273.5V75.75H272.5V76.25ZM274.5 76.25H275.5V75.75H274.5V76.25ZM276.5 76.25H277.5V75.75H276.5V76.25ZM278.5 76.25H279.5V75.75H278.5V76.25ZM280.5 76.25H281.5V75.75H280.5V76.25ZM282.5 76.25H283.5V75.75H282.5V76.25ZM284.5 76.25H285.5V75.75H284.5V76.25ZM286.5 76.25H287.5V75.75H286.5V76.25ZM288.5 76.25H289.5V75.75H288.5V76.25ZM290.5 76.25H291.5V75.75H290.5V76.25ZM292.5 76.25H293.5V75.75H292.5V76.25ZM294.5 76.25H295.5V75.75H294.5V76.25ZM296.5 76.25H297.5V75.75H296.5V76.25ZM298.5 76.25H299.5V75.75H298.5V76.25ZM300.5 76.25H301.5V75.75H300.5V76.25ZM302.5 76.25H303.5V75.75H302.5V76.25ZM304.5 76.25H305.5V75.75H304.5V76.25ZM306.5 76.25H307.5V75.75H306.5V76.25ZM308.5 76.25H309.5V75.75H308.5V76.25ZM310.5 76.25H311.5V75.75H310.5V76.25ZM312.5 76.25H313.5V75.75H312.5V76.25ZM314.5 76.25H315.5V75.75H314.5V76.25ZM316.5 76.25H317.5V75.75H316.5V76.25ZM318.5 76.25H319.5V75.75H318.5V76.25ZM320.5 76.25H321.5V75.75H320.5V76.25ZM322.5 76.25H323.5V75.75H322.5V76.25ZM324.5 76.25H325.5V75.75H324.5V76.25ZM326.5 76.25H327.5V75.75H326.5V76.25ZM328.5 76.25H329.5V75.75H328.5V76.25ZM330.5 76.25H331.5V75.75H330.5V76.25ZM332.5 76.25H333.5V75.75H332.5V76.25ZM334.5 76.25H335.5V75.75H334.5V76.25ZM336.5 76.25H337.5V75.75H336.5V76.25ZM338.5 76.25H339.5V75.75H338.5V76.25ZM340.5 76.25H341.5V75.75H340.5V76.25ZM342.5 76.25H343.5V75.75H342.5V76.25ZM344.5 76.25H345.5V75.75H344.5V76.25ZM346.5 76.25H347.5V75.75H346.5V76.25ZM348.5 76.25H349.5V75.75H348.5V76.25ZM350.5 76.25H351.5V75.75H350.5V76.25ZM352.5 76.25H353.5V75.75H352.5V76.25ZM354.5 76.25H355.5V75.75H354.5V76.25ZM356.5 76.25H357.5V75.75H356.5V76.25ZM358.5 76.25H359.5V75.75H358.5V76.25ZM360.5 76.25H361.5V75.75H360.5V76.25ZM362.5 76.25H363.5V75.75H362.5V76.25ZM364.5 76.25H365.5V75.75H364.5V76.25ZM366.5 76.25H367.5V75.75H366.5V76.25ZM368.5 76.25H369.5V75.75H368.5V76.25ZM370.5 76.25H371.5V75.75H370.5V76.25ZM372.5 76.25H373.5V75.75H372.5V76.25ZM374.5 76.25H375.5V75.75H374.5V76.25ZM376.5 76.25H377.5V75.75H376.5V76.25ZM378.5 76.25H379.5V75.75H378.5V76.25ZM380.5 76.25H381.5V75.75H380.5V76.25ZM382.5 76.25H383.5V75.75H382.5V76.25ZM384.5 76.25H385.5V75.75H384.5V76.25ZM386.5 76.25H387.5V75.75H386.5V76.25ZM388.5 76.25H389.5V75.75H388.5V76.25ZM390.5 76.25H391.5V75.75H390.5V76.25ZM392.5 76.25H393.5V75.75H392.5V76.25ZM394.5 76.25H395.5V75.75H394.5V76.25ZM396.5 76.25H397.5V75.75H396.5V76.25ZM398.5 76.25H399.5V75.75H398.5V76.25ZM400.5 76.25H401.5V75.75H400.5V76.25ZM402.5 76.25H403.5V75.75H402.5V76.25ZM404.5 76.25H405.5V75.75H404.5V76.25ZM406.5 76.25H407.5V75.75H406.5V76.25ZM408.5 76.25H409.5V75.75H408.5V76.25ZM410.5 76.25H411.5V75.75H410.5V76.25ZM412.5 76.25H413.5V75.75H412.5V76.25ZM414.5 76.25H415.5V75.75H414.5V76.25ZM416.5 76.25H417.5V75.75H416.5V76.25ZM418.5 76.25H419.5V75.75H418.5V76.25ZM420.5 76.25H421.5V75.75H420.5V76.25ZM422.5 76.25H423.5V75.75H422.5V76.25ZM424.5 76.25H425.5V75.75H424.5V76.25ZM426.5 76.25H427.5V75.75H426.5V76.25ZM428.5 76.25H429.5V75.75H428.5V76.25ZM430.5 76.25H431.5V75.75H430.5V76.25ZM432.5 76.25H433.5V75.75H432.5V76.25ZM434.5 76.25H435.5V75.75H434.5V76.25ZM436.5 76.25H437.5V75.75H436.5V76.25ZM438.5 76.25H439.5V75.75H438.5V76.25ZM440.5 76.25H441.5V75.75H440.5V76.25ZM442.5 76.25H443.5V75.75H442.5V76.25ZM444.5 76.25H445.5V75.75H444.5V76.25ZM446.5 76.25H447.5V75.75H446.5V76.25ZM448.5 76.25H449.5V75.75H448.5V76.25ZM450.5 76.25H451.5V75.75H450.5V76.25ZM452.5 76.25H453.5V75.75H452.5V76.25ZM454.5 76.25H455.5V75.75H454.5V76.25ZM456.5 76.25H457.5V75.75H456.5V76.25ZM458.5 76.25H459.5V75.75H458.5V76.25ZM460.5 76.25H461.5V75.75H460.5V76.25ZM462.5 76.25H463.5V75.75H462.5V76.25ZM464.5 76.25H465.5V75.75H464.5V76.25ZM466.5 76.25H467.5V75.75H466.5V76.25ZM468.5 76.25H469.5V75.75H468.5V76.25ZM470.5 76.25H471.5V75.75H470.5V76.25ZM472.5 76.25H473.5V75.75H472.5V76.25ZM474.5 76.25H475.5V75.75H474.5V76.25ZM476.5 76.25H477.5V75.75H476.5V76.25ZM478.5 76.25H479.5V75.75H478.5V76.25ZM480.5 76.25H481.5V75.75H480.5V76.25ZM482.5 76.25H483.5V75.75H482.5V76.25ZM484.5 76.25H485.5V75.75H484.5V76.25ZM486.5 76.25H487.5V75.75H486.5V76.25ZM488.5 76.25H489.5V75.75H488.5V76.25ZM490.5 76.25H491.5V75.75H490.5V76.25ZM492.5 76.25H493.5V75.75H492.5V76.25ZM494.5 76.25H495.5V75.75H494.5V76.25ZM496.5 76.25H497.5V75.75H496.5V76.25ZM498.5 76.25H499.5V75.75H498.5V76.25ZM500.5 76.25H501.5V75.75H500.5V76.25ZM502.5 76.25H503.5V75.75H502.5V76.25ZM504.5 76.25H505.5V75.75H504.5V76.25ZM506.5 76.25H507.5V75.75H506.5V76.25ZM508.5 76.25H509.5V75.75H508.5V76.25ZM510.5 76.25H511.5V75.75H510.5V76.25ZM512.5 76.25H513.5V75.75H512.5V76.25ZM514.5 76.25H515.5V75.75H514.5V76.25ZM516.5 76.25H517.5V75.75H516.5V76.25ZM518.5 76.25H519.5V75.75H518.5V76.25ZM520.5 76.25H521.5V75.75H520.5V76.25ZM522.5 76.25H523.5V75.75H522.5V76.25ZM524.5 76.25H525.5V75.75H524.5V76.25ZM526.5 76.25H527.5V75.75H526.5V76.25ZM528.5 76.25H529.5V75.75H528.5V76.25ZM530.5 76.25H531.5V75.75H530.5V76.25ZM532.5 76.25H533.5V75.75H532.5V76.25ZM534.5 76.25H535.5V75.75H534.5V76.25ZM536.5 76.25H537.5V75.75H536.5V76.25ZM538.5 76.25H539.5V75.75H538.5V76.25ZM540.5 76.25H541.5V75.75H540.5V76.25ZM542.5 76.25H543.5V75.75H542.5V76.25ZM544.5 76.25H545.5V75.75H544.5V76.25ZM546.5 76.25H547.5V75.75H546.5V76.25ZM548.5 76.25H549.5V75.75H548.5V76.25ZM550.5 76.25H551.5V75.75H550.5V76.25ZM552.5 76.25H553.5V75.75H552.5V76.25ZM554.5 76.25H555.5V75.75H554.5V76.25ZM556.5 76.25H557.5V75.75H556.5V76.25ZM558.5 76.25H559.5V75.75H558.5V76.25ZM560.5 76.25H561.5V75.75H560.5V76.25ZM562.5 76.25H563.5V75.75H562.5V76.25ZM564.5 76.25H565.5V75.75H564.5V76.25ZM566.5 76.25H567.5V75.75H566.5V76.25ZM568.5 76.25H569.5V75.75H568.5V76.25ZM570.5 76.25H571.5V75.75H570.5V76.25ZM572.5 76.25H573.5V75.75H572.5V76.25ZM574.5 76.25H575.5V75.75H574.5V76.25ZM576.5 76.25H577.5V75.75H576.5V76.25ZM578.5 76.25H579.5V75.75H578.5V76.25ZM580.5 76.25H581.5V75.75H580.5V76.25ZM582.5 76.25H583.5V75.75H582.5V76.25ZM584.5 76.25H585.5V75.75H584.5V76.25ZM586.5 76.25H587.5V75.75H586.5V76.25ZM588.5 76.25H589.5V75.75H588.5V76.25ZM590.5 76.25H591.5V75.75H590.5V76.25ZM592.5 76.25H593.5V75.75H592.5V76.25ZM594.5 76.25H595.5V75.75H594.5V76.25ZM596.5 76.25H597.5V75.75H596.5V76.25ZM598.5 76.25H599.5V75.75H598.5V76.25ZM600.5 76.25H601.5V75.75H600.5V76.25ZM602.5 76.25H603.5V75.75H602.5V76.25ZM604.5 76.25H605.5V75.75H604.5V76.25ZM606.5 76.25H607.5V75.75H606.5V76.25ZM608.5 76.25H609.5V75.75H608.5V76.25ZM610.5 76.25H611.5V75.75H610.5V76.25ZM612.5 76.25H613.5V75.75H612.5V76.25ZM614.5 76.25H615.5V75.75H614.5V76.25ZM616.5 76.25H617.5V75.75H616.5V76.25ZM618.5 76.25H619.5V75.75H618.5V76.25ZM620.5 76.25H621.5V75.75H620.5V76.25ZM622.5 76.25H623.5V75.75H622.5V76.25ZM624.5 76.25H625.5V75.75H624.5V76.25ZM626.5 76.25H627.5V75.75H626.5V76.25ZM628.5 76.25H629.5V75.75H628.5V76.25ZM630.5 76.25H631.5V75.75H630.5V76.25ZM632.5 76.25H633.5V75.75H632.5V76.25ZM634.5 76.25H635.5V75.75H634.5V76.25ZM636.5 76.25H637.5V75.75H636.5V76.25ZM638.5 76.25H639.5V75.75H638.5V76.25ZM640.5 76.25H641.5V75.75H640.5V76.25ZM642.5 76.25H643.5V75.75H642.5V76.25ZM644.5 76.25H645.5V75.75H644.5V76.25ZM646.5 76.25H647.5V75.75H646.5V76.25ZM648.5 76.25H649.5V75.75H648.5V76.25ZM650.5 76.25H651.5V75.75H650.5V76.25ZM652.5 76.25H653.5V75.75H652.5V76.25ZM654.5 76.25H655.5V75.75H654.5V76.25ZM656.5 76.25H657.5V75.75H656.5V76.25ZM658.5 76.25H659.5V75.75H658.5V76.25ZM660.5 76.25H661.5V75.75H660.5V76.25ZM662.5 76.25H663.5V75.75H662.5V76.25ZM664.5 76.25H665.5V75.75H664.5V76.25ZM666.5 76.25H667.5V75.75H666.5V76.25ZM668.5 76.25H669.5V75.75H668.5V76.25ZM670.5 76.25H671.5V75.75H670.5V76.25ZM672.5 76.25H673.5V75.75H672.5V76.25ZM674.5 76.25H675.5V75.75H674.5V76.25ZM676.5 76.25H677.5V75.75H676.5V76.25ZM678.5 76.25H679.5V75.75H678.5V76.25ZM680.5 76.25H681.5V75.75H680.5V76.25ZM682.5 76.25H683.5V75.75H682.5V76.25ZM684.5 76.25H685.5V75.75H684.5V76.25ZM686.5 76.25H687.5V75.75H686.5V76.25ZM688.5 76.25H689.5V75.75H688.5V76.25ZM690.5 76.25H691.5V75.75H690.5V76.25ZM692.5 76.25H693.5V75.75H692.5V76.25ZM694.5 76.25H695.5V75.75H694.5V76.25ZM696.5 76.25H697.5V75.75H696.5V76.25ZM698.5 76.25H699.5V75.75H698.5V76.25ZM700.5 76.25H701.5V75.75H700.5V76.25ZM702.5 76.25H703.5V75.75H702.5V76.25ZM704.5 76.25H705.5V75.75H704.5V76.25ZM706.5 76.25H707.5V75.75H706.5V76.25ZM708.5 76.25H709.5V75.75H708.5V76.25ZM710.5 76.25H711.5V75.75H710.5V76.25ZM712.5 76.25H713.5V75.75H712.5V76.25ZM714.5 76.25H715.5V75.75H714.5V76.25ZM716.5 76.25H717.5V75.75H716.5V76.25ZM718.5 76.25H719.5V75.75H718.5V76.25ZM720.5 76.25H721.5V75.75H720.5V76.25ZM722.5 76.25H723.5V75.75H722.5V76.25ZM724.5 76.25H725.5V75.75H724.5V76.25ZM726.5 76.25H727.5V75.75H726.5V76.25ZM728.5 76.25H729.5V75.75H728.5V76.25ZM730.5 76.25H731.5V75.75H730.5V76.25ZM732.5 76.25H733.5V75.75H732.5V76.25ZM734.5 76.25H735.5V75.75H734.5V76.25ZM736.5 76.25H737.5V75.75H736.5V76.25ZM738.5 76.25H739.5V75.75H738.5V76.25ZM740.5 76.25H741.5V75.75H740.5V76.25ZM742.5 76.25H743.5V75.75H742.5V76.25ZM744.5 76.25H745.5V75.75H744.5V76.25ZM746.5 76.25H747.5V75.75H746.5V76.25ZM748.5 76.25H749.5V75.75H748.5V76.25ZM750.5 76.25H751.5V75.75H750.5V76.25ZM752.5 76.25H753.5V75.75H752.5V76.25ZM754.5 76.25H755.5V75.75H754.5V76.25ZM756.5 76.25H757.5V75.75H756.5V76.25ZM758.5 76.25H759.5V75.75H758.5V76.25ZM760.5 76.25H761.5V75.75H760.5V76.25ZM762.5 76.25H763.5V75.75H762.5V76.25ZM764.5 76.25H765.5V75.75H764.5V76.25ZM766.5 76.25H767.5V75.75H766.5V76.25ZM768.5 76.25H769.5V75.75H768.5V76.25ZM770.5 76.25H771.5V75.75H770.5V76.25ZM772.5 76.25H773.5V75.75H772.5V76.25ZM774.5 76.25H775.5V75.75H774.5V76.25ZM776.5 76.25H777.5V75.75H776.5V76.25ZM778.5 76.25H779.5V75.75H778.5V76.25ZM780.5 76.25H781.5V75.75H780.5V76.25ZM782.5 76.25H783.5V75.75H782.5V76.25ZM784.5 76.25H785.5V75.75H784.5V76.25ZM786.5 76.25H787.5V75.75H786.5V76.25ZM788.5 76.25H789.5V75.75H788.5V76.25ZM790.5 76.25H791.5V75.75H790.5V76.25ZM792.5 76.25H793.5V75.75H792.5V76.25ZM794.5 76.25H795.5V75.75H794.5V76.25ZM796.5 76.25H797.5V75.75H796.5V76.25ZM798.5 76.25H799.5V75.75H798.5V76.25ZM800.5 76.25H801.5V75.75H800.5V76.25ZM802.5 76.25H803.5V75.75H802.5V76.25ZM804.5 76.25H805.5V75.75H804.5V76.25ZM806.5 76.25H807.5V75.75H806.5V76.25ZM808.5 76.25H809.5V75.75H808.5V76.25ZM810.5 76.25H811.5V75.75H810.5V76.25ZM812.5 76.25H813.5V75.75H812.5V76.25ZM814.5 76.25H815.5V75.75H814.5V76.25ZM816.5 76.25H817.5V75.75H816.5V76.25ZM818.5 76.25H819.5V75.75H818.5V76.25ZM820.5 76.25H821.5V75.75H820.5V76.25ZM822.5 76.25H823.5V75.75H822.5V76.25ZM824.5 76.25H825.5V75.75H824.5V76.25ZM826.5 76.25H827.5V75.75H826.5V76.25ZM828.5 76.25H829.5V75.75H828.5V76.25ZM830.5 76.25H831.5V75.75H830.5V76.25ZM832.5 76.25H833.5V75.75H832.5V76.25ZM834.5 76.25H835.5V75.75H834.5V76.25ZM836.5 76.25H837.5V75.75H836.5V76.25ZM838.5 76.25H839.5V75.75H838.5V76.25ZM840.5 76.25H841.5V75.75H840.5V76.25ZM842.5 76.25H843.5V75.75H842.5V76.25ZM844.5 76.25H845.5V75.75H844.5V76.25ZM846.5 76.25H847.5V75.75H846.5V76.25ZM848.5 76.25H849.5V75.75H848.5V76.25ZM850.5 76.25H851.5V75.75H850.5V76.25ZM852.5 76.25H853.5V75.75H852.5V76.25ZM854.5 76.25H855.5V75.75H854.5V76.25ZM856.5 76.25H857.5V75.75H856.5V76.25ZM858.5 76.25H859.5V75.75H858.5V76.25ZM860.5 76.25H861.5V75.75H860.5V76.25ZM862.5 76.25H863V75.75H862.5V76.25Z" fill="white"/>
<path d="M65 66.5V24.5H200" stroke="white"/>
<text fill="white" xml:space="preserve" style="white-space: pre" font-family="Assistant" font-size="11" font-weight="bold" letter-spacing="0em"><tspan x="272.5" y="20.037">VIAJE A LA LUNA</tspan></text>
<text fill="white" xml:space="preserve" style="white-space: pre" font-family="Assistant" font-size="11" font-weight="600" letter-spacing="0em"><tspan x="259" y="103.037">1969</tspan></text>
<text fill="white" xml:space="preserve" style="white-space: pre" font-family="Assistant" font-size="7" font-weight="600" letter-spacing="0em"><tspan x="275.5" y="34.069">El programa estadounidense Apollo fue el </tspan><tspan x="275.5" y="43.069">primero el llevar al hombre a la Luna</tspan></text>
<path d="M270 66.5V24.5H405" stroke="white"/>
<text fill="white" xml:space="preserve" style="white-space: pre" font-family="Assistant" font-size="11" font-weight="bold" letter-spacing="0em"><tspan x="488.5" y="20.037">COHETE PRIVADO</tspan></text>
<text fill="white" xml:space="preserve" style="white-space: pre" font-family="Assistant" font-size="11" font-weight="600" letter-spacing="0em"><tspan x="475" y="106.037">2008</tspan></text>
<text fill="white" xml:space="preserve" style="white-space: pre" font-family="Assistant" font-size="7" font-weight="600" letter-spacing="0em"><tspan x="491.5" y="34.069">SpaceX logra llevar primer cohete privado </tspan><tspan x="491.5" y="43.069">al espacio: el Falcon 1</tspan></text>
<path d="M486 66.5V24.5H621" stroke="white"/>
<text fill="white" xml:space="preserve" style="white-space: pre" font-family="Assistant" font-size="11" font-weight="bold" letter-spacing="0em"><tspan x="688.5" y="20.037">NAVE REUTILIZABLE</tspan></text>
<text fill="white" xml:space="preserve" style="white-space: pre" font-family="Assistant" font-size="11" font-weight="600" letter-spacing="0em"><tspan x="675" y="105.037">2017</tspan></text>
<text fill="white" xml:space="preserve" style="white-space: pre" font-family="Assistant" font-size="7" font-weight="600" letter-spacing="0em"><tspan x="691.5" y="34.069">El Falcon 9 es el primer cohete orbital </tspan><tspan x="691.5" y="43.069">en ser reutilizado</tspan></text>
<path d="M686 66.5V24.5H821" stroke="white"/>
<text fill="white" xml:space="preserve" style="white-space: pre" font-family="Assistant" font-size="11" font-weight="600" letter-spacing="0em"><tspan x="195" y="56.037">1961</tspan></text>
<path d="M206 76V116H93" stroke="white"/>
<text fill="white" xml:space="preserve" style="white-space: pre" font-family="Assistant" font-size="11" font-weight="bold" letter-spacing="0em"><tspan x="329" y="111.037">ROBOT MARCIANO</tspan></text>
<text fill="white" xml:space="preserve" style="white-space: pre" font-family="Assistant" font-size="7" font-weight="600" letter-spacing="0em"><tspan x="313.256" y="125.069">El robot americano Sojouner fue el </tspan><tspan x="341.741" y="134.069">primer veh&#xed;culo en Marte</tspan></text>
<text fill="white" xml:space="preserve" style="white-space: pre" font-family="Assistant" font-size="11" font-weight="600" letter-spacing="0em"><tspan x="411" y="56.037">1997</tspan></text>
<path d="M422 75V115H314" stroke="white"/>
<text fill="white" xml:space="preserve" style="white-space: pre" font-family="Assistant" font-size="11" font-weight="bold" letter-spacing="0em"><tspan x="538" y="111.037">DRAGON EN LA ISS</tspan></text>
<text fill="white" xml:space="preserve" style="white-space: pre" font-family="Assistant" font-size="7" font-weight="600" letter-spacing="0em"><tspan x="524.434" y="125.069">Primera nave privada en llegar a la </tspan><tspan x="534.271" y="134.069">Estaci&#xf3;n Espacial Internacional</tspan></text>
<text fill="white" xml:space="preserve" style="white-space: pre" font-family="Assistant" font-size="11" font-weight="600" letter-spacing="0em"><tspan x="622" y="55.037">2012</tspan></text>
<path d="M633 75V115H525" stroke="white"/>
<text fill="white" xml:space="preserve" style="white-space: pre" font-family="Assistant" font-size="11" font-weight="bold" letter-spacing="0em"><tspan x="726" y="111.037">VUELO COMERCIAL</tspan></text>
<text fill="white" xml:space="preserve" style="white-space: pre" font-family="Assistant" font-size="7" font-weight="600" letter-spacing="0em"><tspan x="717.369" y="125.069">SpaceX es la primera empresa en </tspan><tspan x="743.25" y="134.069">llevar turistas al espacio</tspan></text>
<text fill="white" xml:space="preserve" style="white-space: pre" font-family="Assistant" font-size="11" letter-spacing="0em"><tspan x="810" y="55.037">2021</tspan></text>
<path d="M821 75V115H713" stroke="white"/>
<text fill="#BBECF9" xml:space="preserve" style="white-space: pre" font-family="Assistant" font-size="7" font-weight="bold" letter-spacing="0em"><tspan x="71" y="55.069">33 MILLONES DE DOLARES</tspan></text>
<text fill="#BBECF9" xml:space="preserve" style="white-space: pre" font-family="Assistant" font-size="7" font-weight="bold" letter-spacing="0em"><tspan x="332.273" y="145.069">265 MILLONES DE DOLARES</tspan></text>
<text fill="#BBECF9" xml:space="preserve" style="white-space: pre" font-family="Assistant" font-size="7" font-weight="bold" letter-spacing="0em"><tspan x="276" y="55.069">25.8 MIL MILLONES DE DOLARES</tspan></text>
<text fill="#BBECF9" xml:space="preserve" style="white-space: pre" font-family="Assistant" font-size="7" font-weight="bold" letter-spacing="0em"><tspan x="492" y="55.069">97 MILLONES DE DOLARES</tspan></text>
<text fill="#BBECF9" xml:space="preserve" style="white-space: pre" font-family="Assistant" font-size="7" font-weight="bold" letter-spacing="0em"><tspan x="691" y="55.069">67 MILLONES DE DOLARES</tspan></text>
<text fill="#BBECF9" xml:space="preserve" style="white-space: pre" font-family="Assistant" font-size="7" font-weight="bold" letter-spacing="0em"><tspan x="694" y="145.069">VALOR PASAJE: 55 MILLONES DE DOLARES</tspan></text>
<text fill="#BBECF9" xml:space="preserve" style="white-space: pre" font-family="Assistant" font-size="7" font-weight="bold" letter-spacing="0em"><tspan x="543.273" y="145.069">900 MILLONES DE DOLARES</tspan></text>
<circle cx="65" cy="76" r="15.5" fill="black" stroke="#BBECF9"/>
<circle cx="205" cy="76" r="15.5" fill="black" stroke="#BBECF9"/>
<circle cx="270" cy="76" r="15.5" fill="black" stroke="#BBECF9"/>
<circle cx="421" cy="76" r="15.5" fill="black" stroke="#BBECF9"/>
<circle cx="486" cy="76" r="15.5" fill="black" stroke="#BBECF9"/>
<circle cx="686" cy="76" r="15.5" fill="black" stroke="#BBECF9"/>
<circle cx="820" cy="76" r="15.5" fill="black" stroke="#BBECF9"/>
<circle cx="633" cy="76" r="15.5" fill="black" stroke="#BBECF9"/>
<circle cx="65" cy="76" r="13" fill="white"/>
<path d="M62.6103 67.0033C62.7298 67.093 62.8592 67.166 62.9621 67.2689C63.9547 68.2548 64.944 69.2474 65.9332 70.2367C66.2486 70.552 66.2453 70.8209 65.9332 71.133C65.7307 71.3355 65.5282 71.5413 65.3257 71.7438C65.3191 71.7504 65.3158 71.7604 65.3125 71.767C65.4519 71.9098 65.5913 72.0492 65.7374 72.1986C65.7839 72.1554 65.827 72.1189 65.8702 72.0758C66.5208 71.4284 67.1682 70.7778 67.8188 70.1271C68.2471 69.7022 68.7284 69.6989 69.1566 70.1271C69.7409 70.7081 70.3218 71.2923 70.9061 71.8766C71.3277 72.2982 71.3244 72.7795 70.9061 73.2011C70.2156 73.8949 69.5218 74.5854 68.8346 75.2693C68.9741 75.4087 69.1102 75.5415 69.2562 75.6842C69.4621 75.4751 69.6845 75.2527 69.9069 75.0303C70.1758 74.7614 70.4646 74.7614 70.7335 75.0303C71.7559 76.0494 72.7751 77.0719 73.7942 78.0943C73.8772 78.1773 73.9336 78.2902 74 78.3864C74 78.4761 74 78.5624 74 78.652C73.9071 78.7715 73.8274 78.9043 73.7212 79.0139C73.1236 79.6214 72.5195 80.2189 71.9153 80.8231C71.6265 81.1119 71.3443 81.1119 71.0522 80.8231C70.0397 79.8106 69.0272 78.7981 68.0147 77.7856C67.7225 77.4935 67.7225 77.2146 68.0147 76.9258C68.2802 76.6602 68.5491 76.3946 68.818 76.1291C68.672 75.993 68.5325 75.8635 68.3832 75.7241C67.9815 76.1258 67.5599 76.5474 67.1383 76.969C66.9823 77.125 66.7698 77.2578 66.6868 77.447C66.6105 77.6229 66.6702 77.8619 66.6702 78.0711C66.6636 78.8346 66.4146 79.5085 65.9465 80.106C65.6843 80.438 65.3589 80.4546 65.0569 80.1525C63.7688 78.8645 62.4841 77.5798 61.1961 76.2917C60.8874 75.983 60.9073 75.6643 61.2558 75.3921C61.8169 74.9539 62.4542 74.7249 63.1646 74.6717C63.2244 74.6684 63.2974 74.6452 63.3406 74.6053C63.9879 73.9647 64.6319 73.3173 65.2793 72.67C65.2926 72.6567 65.3058 72.6368 65.3191 72.6169C65.1697 72.4774 65.027 72.3413 64.871 72.1986C64.6187 72.4509 64.3531 72.7198 64.0842 72.9887C63.7921 73.2775 63.5132 73.2775 63.2211 72.9854C62.2086 71.9729 61.1961 70.9604 60.1836 69.9479C59.8948 69.6591 59.8948 69.3769 60.1836 69.0847C60.7878 68.4773 61.3953 67.8698 62.0028 67.2689C62.1057 67.166 62.2351 67.0896 62.3513 67C62.4343 67.0033 62.5206 67.0033 62.6103 67.0033ZM66.4578 76.8262C66.4943 76.7963 66.5109 76.7831 66.5275 76.7665C67.8553 75.4386 69.1832 74.1107 70.5111 72.7829C70.687 72.6069 70.687 72.4741 70.5111 72.3015C69.9168 71.7073 69.3226 71.1131 68.7284 70.5188C68.5491 70.3396 68.4164 70.3429 68.2338 70.5288C66.8628 71.8998 65.4884 73.2742 64.1174 74.6452C64.0875 74.6751 64.0676 74.7083 64.0344 74.7481C65.193 75.0369 65.993 75.7274 66.4578 76.8262ZM60.6052 69.4997C61.6243 70.5155 62.6468 71.5413 63.6593 72.5538C64.2734 71.9397 64.9075 71.3056 65.515 70.6981C64.4992 69.6823 63.4734 68.6598 62.4609 67.6473C61.8467 68.2615 61.216 68.8922 60.6052 69.4997ZM70.3252 75.4685C69.6977 76.0959 69.0604 76.7333 68.433 77.3574C69.4455 78.3698 70.4679 79.3923 71.4804 80.4048C72.1078 79.7807 72.7452 79.1467 73.3726 78.5192C72.3568 77.5034 71.3343 76.481 70.3252 75.4685ZM61.611 75.8602C62.9024 77.1515 64.1937 78.4429 65.4851 79.7342C66.305 78.8014 66.3714 77.1117 65.2494 76.0228C64.1473 74.9572 62.4742 75.0801 61.611 75.8602Z" fill="black"/>
<path d="M62.743 84.0001C62.4277 83.9436 62.109 83.9138 61.8036 83.8308C59.3736 83.1834 57.8299 81.6398 57.1726 79.2131C57.0896 78.9011 57.0564 78.5757 57 78.257C57 78.0579 57 77.8587 57 77.6595C57.0963 77.5201 57.2224 77.4404 57.395 77.5068C57.5245 77.5566 57.5677 77.6628 57.571 77.7989C57.5876 78.4263 57.6706 79.0438 57.893 79.6314C58.6665 81.6697 60.1238 82.9112 62.265 83.3361C62.5571 83.3926 62.8559 83.4058 63.1547 83.4258C63.3074 83.4357 63.4468 83.4523 63.5032 83.6183C63.5563 83.7843 63.4767 83.9038 63.3439 83.9967C63.1414 84.0001 62.9422 84.0001 62.743 84.0001Z" fill="black"/>
<path d="M58.6897 77.8918C58.6963 77.8287 58.6897 77.7524 58.7096 77.686C58.7561 77.5433 58.8623 77.4735 59.015 77.4901C59.171 77.5067 59.2474 77.603 59.264 77.7524C59.3038 78.0744 59.3204 78.403 59.3901 78.7184C59.7354 80.2455 61.0931 81.4771 62.6401 81.6796C62.826 81.7028 63.0152 81.7128 63.2011 81.7293C63.4036 81.7493 63.5132 81.8522 63.5099 82.0215C63.5065 82.1974 63.3804 82.307 63.1712 82.3037C61.1363 82.2738 59.3901 80.9061 58.8557 78.9773C58.8026 78.7815 58.7627 78.579 58.7295 78.3798C58.7096 78.2205 58.7063 78.0578 58.6897 77.8918Z" fill="black"/>
<path d="M63.158 80.6073C61.7571 80.5808 60.5587 79.472 60.416 78.0777C60.406 77.9781 60.3894 77.8785 60.3928 77.7823C60.3994 77.6097 60.5123 77.4935 60.6683 77.4868C60.8276 77.4802 60.9438 77.5798 60.9671 77.7557C60.9936 77.9416 60.9936 78.1308 61.0401 78.3101C61.2858 79.3027 62.1223 79.9733 63.1414 80.0264C63.2444 80.033 63.3738 80.0662 63.4336 80.1359C63.49 80.2023 63.5066 80.3451 63.4801 80.4347C63.4402 80.5774 63.3008 80.6173 63.158 80.6073Z" fill="black"/>
<circle cx="205" cy="76" r="13" fill="white"/>
<circle cx="270" cy="76" r="13" fill="white"/>
<circle cx="421" cy="76" r="13" fill="white"/>
<circle cx="486" cy="76" r="13" fill="white"/>
<circle cx="686" cy="76" r="13" fill="white"/>
<circle cx="820" cy="76" r="13" fill="white"/>
<circle cx="633" cy="76" r="13" fill="white"/>
<path d="M210.661 81.26C210.867 81.26 211.023 81.26 211.18 81.26C211.504 81.2649 211.685 81.4365 211.685 81.7551C211.69 82.3383 211.69 82.9216 211.685 83.5C211.685 83.8333 211.514 84 211.185 84C207.073 84 202.96 84 198.848 84C198.519 84 198.353 83.8333 198.353 83.5C198.348 82.9167 198.348 82.3334 198.353 81.7551C198.353 81.4463 198.534 81.2649 198.843 81.26C199.005 81.2551 199.171 81.26 199.367 81.26C199.166 81.0149 198.985 80.7992 198.814 80.5836C198.318 79.9513 197.936 79.2552 197.671 78.4955C197.618 78.3484 197.544 78.2945 197.392 78.2994C197.039 78.319 196.691 78.3092 196.402 78.0592C196.147 77.8387 196 77.574 196 77.2309C196 76.2947 196 75.3535 196 74.4173C196 73.834 196.48 73.3586 197.064 73.3537C197.583 73.3488 197.573 73.3439 197.784 72.8635C198.941 70.2314 200.921 68.5991 203.759 68.1188C206.141 67.7168 208.293 68.3393 210.136 69.9226C211.161 70.7999 211.901 71.8881 212.362 73.1576C212.416 73.3047 212.489 73.3586 212.641 73.3537C212.822 73.3439 213.014 73.339 213.19 73.3733C213.695 73.4811 214.033 73.9174 214.033 74.4369C214.033 75.3682 214.033 76.2996 214.033 77.2309C214.033 77.8142 213.553 78.2945 212.969 78.2994C212.445 78.3043 212.445 78.3043 212.249 78.7896C211.896 79.6572 211.396 80.4267 210.769 81.1228C210.749 81.1571 210.724 81.1865 210.661 81.26ZM205.024 81.26C206.548 81.26 208.073 81.26 209.602 81.2649C209.769 81.2649 209.901 81.2257 210.014 81.1031C210.156 80.9512 210.308 80.8041 210.44 80.6473C212.023 78.8239 212.587 76.7113 212.121 74.3585C211.71 72.2704 210.519 70.6921 208.705 69.5892C207.573 68.903 206.333 68.5697 205.014 68.5697C203.98 68.5697 202.985 68.7854 202.044 69.2265C200.465 69.9618 199.274 71.1038 198.5 72.6626C197.868 73.937 197.662 75.2898 197.828 76.6966C198.034 78.4269 198.789 79.8777 200.029 81.0933C200.157 81.2159 200.294 81.2649 200.47 81.2649C201.985 81.26 203.504 81.26 205.024 81.26ZM205.024 81.8286C203.068 81.8286 201.117 81.8286 199.162 81.8237C198.99 81.8237 198.921 81.8629 198.926 82.0492C198.936 82.4462 198.936 82.8432 198.926 83.2452C198.921 83.4118 198.97 83.4706 199.142 83.4657C199.652 83.4559 200.157 83.4608 200.666 83.4608C204.053 83.4608 207.44 83.4608 210.827 83.4608C211.112 83.4608 211.112 83.4608 211.112 83.1667C211.112 82.8138 211.112 82.456 211.112 82.1031C211.112 81.8286 211.112 81.8286 210.842 81.8286C208.906 81.8286 206.965 81.8286 205.024 81.8286ZM197.431 77.7063C197.132 76.4466 197.147 75.1967 197.426 73.9468C196.868 73.8291 196.549 74.0693 196.544 74.5987C196.534 75.4173 196.534 76.2407 196.544 77.0593C196.549 77.5887 196.872 77.8289 197.431 77.7063ZM212.621 73.9615C212.911 75.2065 212.906 76.4613 212.621 77.7063C213.141 77.824 213.484 77.6132 213.494 77.1328C213.518 76.2652 213.518 75.3928 213.494 74.5252C213.484 74.0399 213.102 73.8046 212.621 73.9615Z" fill="black"/>
<path d="M205.46 80.7355C203.803 80.7355 202.627 80.5395 201.539 79.9758C200.029 79.1915 199.137 77.9465 198.995 76.2457C198.813 74.0987 199.588 72.3195 201.255 70.947C202.186 70.1824 203.264 69.7559 204.46 69.653C207.764 69.3638 210.489 71.6773 210.989 74.6722C211.161 75.7163 211.102 76.7358 210.675 77.7161C210.175 78.8729 209.293 79.6425 208.156 80.1375C207.161 80.5738 206.107 80.7355 205.46 80.7355ZM205.146 80.167C205.906 80.1817 206.779 80.0493 207.617 79.7454C208.705 79.3484 209.587 78.7063 210.102 77.6377C210.46 76.8976 210.558 76.1133 210.499 75.2947C210.406 74.0056 209.925 72.8782 209.043 71.9469C207.862 70.697 206.401 70.1039 204.671 70.2069C203.352 70.2853 202.205 70.7853 201.255 71.6921C200.014 72.8831 199.431 74.3487 199.549 76.0741C199.657 77.6181 200.402 78.7406 201.769 79.4513C202.784 79.9807 203.882 80.1719 205.146 80.167Z" fill="black"/>
<path d="M207.681 71.4813C207.823 71.5548 208.029 71.6332 208.215 71.7509C208.911 72.192 209.357 72.8439 209.69 73.5792C209.754 73.7164 209.808 73.8585 209.857 74.0056C209.916 74.1821 209.852 74.3242 209.7 74.383C209.553 74.4369 209.421 74.3683 209.332 74.1968C209.156 73.8389 208.999 73.4762 208.793 73.138C208.489 72.6331 208.078 72.241 207.519 72.0253C207.367 71.9665 207.303 71.8489 207.342 71.6871C207.372 71.5499 207.475 71.4911 207.681 71.4813Z" fill="black"/>
<path d="M278 74.9986C278 75.3307 278 75.6627 278 75.9947C277.99 76.0445 277.98 76.091 277.97 76.1408C277.904 76.5758 277.864 77.0207 277.768 77.449C277.021 80.7328 274.281 83.3127 270.964 83.8705C270.655 83.9236 270.343 83.9568 270.031 84C269.676 84 269.324 84 268.969 84C268.926 83.99 268.886 83.9801 268.843 83.9734C268.451 83.917 268.052 83.8805 267.664 83.7975C264.36 83.1068 261.671 80.2945 261.129 76.9775C261.08 76.6621 261.043 76.3434 261 76.0279C261 75.6727 261 75.3207 261 74.9654C261.013 74.8559 261.027 74.7463 261.04 74.64C261.249 72.7242 262.003 71.0541 263.331 69.6562C264.629 68.2916 266.21 67.4416 268.069 67.1262C268.378 67.073 268.69 67.0398 269.002 67C269.334 67 269.666 67 269.998 67C270.048 67.01 270.094 67.0232 270.144 67.0266C271.18 67.0996 272.176 67.342 273.106 67.8035C275.726 69.1018 277.333 71.1836 277.874 74.0656C277.93 74.3744 277.957 74.6865 278 74.9986ZM277.289 73.7203C275.769 74.0955 274.467 73.727 273.491 72.5084C272.472 71.2367 272.395 69.8422 273.156 68.4012C270.367 66.8273 266.07 67.1494 263.331 70.4033C260.605 73.6373 260.947 78.5082 264.114 81.4002C267.133 84.1594 271.147 83.8373 273.345 82.4793C273.322 82.4594 273.302 82.4428 273.282 82.4262C272.389 81.6824 272.206 80.4107 272.85 79.4479C273.116 79.0494 273.478 78.7672 273.929 78.6045C274.075 78.5514 274.202 78.6078 274.258 78.7406C274.308 78.8668 274.258 78.9863 274.125 79.0561C274.082 79.0793 274.032 79.0926 273.989 79.1158C273.385 79.4047 273.039 79.8828 272.98 80.5469C272.92 81.1977 273.166 81.7223 273.69 82.1174C273.79 82.1938 273.863 82.207 273.979 82.1273C274.739 81.5994 275.4 80.9686 275.951 80.2215C276.267 79.7932 276.273 79.7268 275.842 79.3914C275.643 79.2354 275.397 79.1324 275.164 79.0229C274.998 78.9465 274.915 78.8402 274.955 78.7008C274.998 78.558 275.131 78.4916 275.301 78.5447C275.433 78.5846 275.563 78.6311 275.689 78.6875C276.008 78.8369 276.27 79.0627 276.493 79.3383C277.366 78.1861 277.778 75.2842 277.289 73.7203ZM273.627 68.6436C272.976 69.6297 272.966 71.0707 273.853 72.1863C274.769 73.3385 276.194 73.5709 277.17 73.209C276.552 71.25 275.374 69.7359 273.627 68.6436Z" fill="black"/>
<path d="M267.222 70.8283C267.222 69.7558 268.009 68.8096 269.048 68.6269C270.127 68.4377 271.173 69.0221 271.555 70.0314C271.622 70.2074 271.585 70.3402 271.456 70.4033C271.309 70.4764 271.167 70.4066 271.094 70.2207C270.904 69.7426 270.579 69.4006 270.101 69.2113C269.208 68.856 268.192 69.301 267.843 70.1908C267.491 71.0939 267.939 72.11 268.842 72.4519C269.752 72.7973 270.758 72.3424 271.097 71.4359C271.117 71.3828 271.13 71.3297 271.15 71.2799C271.21 71.1305 271.323 71.0674 271.462 71.1105C271.595 71.1504 271.681 71.2832 271.618 71.426C271.499 71.7016 271.383 71.9937 271.203 72.2295C270.625 72.9832 269.609 73.2588 268.713 72.94C267.823 72.6246 267.222 71.7713 267.222 70.8283Z" fill="black"/>
<path d="M273.209 75.9383C273.212 75.251 273.767 74.6965 274.454 74.6998C275.138 74.7031 275.699 75.2676 275.692 75.9482C275.686 76.6322 275.125 77.19 274.441 77.1867C273.76 77.1867 273.209 76.6256 273.209 75.9383ZM274.451 75.1978C274.035 75.1978 273.707 75.5332 273.71 75.9482C273.713 76.3566 274.039 76.6853 274.447 76.6886C274.859 76.692 275.198 76.3566 275.201 75.9449C275.201 75.5365 274.862 75.1978 274.451 75.1978Z" fill="black"/>
<path d="M271.097 75.6062C271.097 76.0711 270.719 76.4529 270.254 76.4529C269.789 76.4529 269.397 76.0611 269.404 75.5929C269.41 75.1281 269.789 74.7562 270.257 74.7595C270.729 74.7629 271.097 75.1347 271.097 75.6062ZM270.247 75.2576C270.058 75.2609 269.898 75.4203 269.902 75.6062C269.905 75.7922 270.071 75.9549 270.257 75.9515C270.446 75.9482 270.599 75.7888 270.599 75.5963C270.596 75.4037 270.443 75.2576 270.247 75.2576Z" fill="black"/>
<path d="M270.709 80.0056C271.097 80.0056 271.403 80.3111 271.406 80.6996C271.409 81.0914 271.094 81.4068 270.702 81.4068C270.32 81.4035 270.005 81.0914 270.001 80.7095C269.998 80.321 270.317 80.0056 270.709 80.0056ZM270.699 80.5037C270.576 80.5169 270.509 80.5867 270.503 80.7062C270.499 80.8191 270.606 80.9187 270.719 80.9054C270.841 80.8921 270.908 80.8158 270.904 80.6929C270.898 80.5701 270.821 80.5103 270.699 80.5037Z" fill="black"/>
<path d="M428.003 77.6608C428.003 77.3423 428.003 77.0163 428.003 76.6751C427.911 76.6751 427.837 76.6751 427.754 76.6751C425.324 76.6751 422.884 76.6751 420.453 76.6751C419.956 76.6751 419.542 76.5159 419.192 76.1747C418.934 75.932 418.676 75.6894 418.428 75.4468C418.198 75.2193 417.921 75.1056 417.59 75.1132C417.47 75.1132 417.341 75.1207 417.222 75.1132C417.028 75.1056 416.909 74.9691 416.918 74.7947C416.927 74.6279 417.047 74.5066 417.222 74.4914C417.931 74.4308 418.557 74.5824 419.035 75.1283C419.229 75.3482 419.468 75.5454 419.68 75.7501C419.882 75.9472 420.131 76.0458 420.407 76.0458C422.912 76.0458 425.416 76.0458 427.911 76.0458C427.939 76.0458 427.966 76.0382 427.994 76.0382C427.994 75.8411 427.994 75.6439 427.994 75.424C427.672 75.424 427.349 75.424 427.027 75.424C426.521 75.424 426.097 75.0601 426.051 74.6052C426.005 74.1047 426.327 73.6574 426.834 73.574C427.064 73.5361 427.303 73.5664 427.589 73.5664C427.386 73.2783 427.156 73.0887 426.889 72.9295C426.53 72.7248 426.143 72.6186 425.729 72.6186C422.902 72.6186 420.085 72.611 417.258 72.6186C416.025 72.6262 415.049 73.4602 414.975 74.6431C414.911 75.6439 414.966 76.6524 414.966 77.6684C415.5 77.5546 416.016 77.5622 416.531 77.7518C417.415 78.0854 417.958 78.6996 418.17 79.5715C418.216 79.7535 418.28 79.7762 418.446 79.7762C420.177 79.7687 421.899 79.7762 423.63 79.7762C423.685 79.7762 423.74 79.7762 423.795 79.7762C423.989 79.7914 424.108 79.9127 424.108 80.0871C424.108 80.2615 423.98 80.3828 423.786 80.3904C423.731 80.3904 423.676 80.3904 423.621 80.3904C421.89 80.3904 420.168 80.3904 418.437 80.3904C418.28 80.3904 418.207 80.4056 418.17 80.5875C417.931 81.7628 416.844 82.5893 415.564 82.5817C414.312 82.5665 413.244 81.7097 413.042 80.5269C412.867 79.4805 413.244 78.6389 414.146 78.0247C414.266 77.9413 414.303 77.8655 414.303 77.729C414.303 74.825 414.303 71.9286 414.303 69.0246C414.303 68.8881 414.275 68.8123 414.137 68.7365C413.741 68.5394 413.557 68.092 413.677 67.6901C413.806 67.258 414.174 66.9926 414.634 67.0002C415.086 67.0002 415.454 67.2731 415.574 67.6977C415.693 68.0996 415.5 68.5318 415.104 68.7441C415.012 68.7896 414.938 68.8275 414.938 68.9564C414.948 70.2757 414.938 71.595 414.948 72.9067C414.948 72.9219 414.957 72.9446 414.957 72.9901C415.012 72.9446 415.049 72.9067 415.086 72.8688C415.675 72.2926 416.384 71.9893 417.231 71.9893C420.057 71.9893 422.893 71.9893 425.72 71.9893C427.349 71.9893 428.657 73.2328 428.657 74.7947C428.657 75.7728 428.657 76.7585 428.657 77.7366C428.657 77.8731 428.703 77.9489 428.822 78.0323C429.697 78.5783 430.167 79.6625 429.946 80.6103C429.697 81.6946 428.859 82.4679 427.764 82.6272C426.3 82.8471 424.974 81.9372 424.707 80.5421C424.458 79.2455 425.388 77.9262 426.769 77.6608C427.165 77.6001 427.58 77.6608 428.003 77.6608ZM415.601 78.237C414.515 78.2446 413.631 79.1014 413.64 80.125C413.649 81.1335 414.552 81.9827 415.601 81.9675C416.678 81.9599 417.562 81.1107 417.553 80.0871C417.553 79.0787 416.66 78.2295 415.601 78.237ZM427.349 81.9751C428.408 81.9827 429.301 81.141 429.32 80.1326C429.329 79.1014 428.445 78.2446 427.359 78.2446C426.3 78.237 425.407 79.0863 425.407 80.1023C425.388 81.1107 426.272 81.9599 427.349 81.9751ZM428.021 74.8023C427.985 74.6052 427.966 74.4459 427.92 74.2791C427.911 74.2412 427.847 74.1881 427.81 74.1805C427.543 74.173 427.276 74.173 427.018 74.1805C426.843 74.1881 426.705 74.3322 426.705 74.4838C426.705 74.6431 426.843 74.7871 427.027 74.7947C427.349 74.8099 427.662 74.8023 428.021 74.8023ZM414.948 67.9555C414.948 67.7963 414.791 67.6371 414.625 67.6371C414.46 67.6371 414.294 67.7887 414.303 67.9479C414.303 68.0996 414.45 68.2436 414.616 68.2512C414.782 68.2664 414.938 68.1147 414.948 67.9555Z" fill="black"/>
<path d="M415.933 74.4914C416.117 74.4914 416.255 74.6203 416.255 74.7947C416.255 74.9767 416.117 75.1131 415.924 75.1131C415.739 75.1131 415.601 74.9842 415.601 74.8098C415.601 74.6279 415.739 74.4914 415.933 74.4914Z" fill="black"/>
<path d="M415.601 78.8588C416.329 78.8588 416.909 79.4047 416.909 80.0947C416.909 80.7998 416.338 81.3533 415.592 81.3457C414.865 81.3457 414.294 80.7922 414.294 80.0947C414.294 79.4047 414.874 78.8588 415.601 78.8588ZM416.255 80.1023C416.255 79.7686 415.951 79.4805 415.601 79.4805C415.251 79.4805 414.948 79.7762 414.948 80.1023C414.948 80.4359 415.251 80.724 415.601 80.724C415.951 80.724 416.255 80.4359 416.255 80.1023Z" fill="black"/>
<path d="M427.349 81.3458C426.622 81.3458 426.051 80.7923 426.051 80.0947C426.051 79.3895 426.631 78.8512 427.377 78.8512C428.095 78.8512 428.666 79.4123 428.666 80.1098C428.657 80.8074 428.077 81.3533 427.349 81.3458ZM428.003 80.1023C428.003 79.7762 427.69 79.4805 427.349 79.4805C426.999 79.4805 426.696 79.7762 426.696 80.1023C426.696 80.4359 426.999 80.724 427.349 80.724C427.708 80.724 428.003 80.4359 428.003 80.1023Z" fill="black"/>
<path d="M494.972 67.7591C494.942 68.0283 494.904 68.3049 494.867 68.5741C494.598 70.5332 494.119 72.425 492.953 74.07C492.736 74.3766 492.482 74.6532 492.22 74.9224C491.674 75.4832 491.121 76.0366 490.56 76.5899C490.455 76.6946 490.41 76.8067 490.395 76.9488C490.298 77.876 490.201 78.8032 490.089 79.7304C490.074 79.8276 490.022 79.9472 489.947 80.0145C489.035 80.9343 488.122 81.8465 487.21 82.7587C487.105 82.8634 486.993 82.9232 486.836 82.8709C486.687 82.8186 486.619 82.7064 486.597 82.5643C486.515 81.9961 486.425 81.4278 486.358 80.8595C486.328 80.6277 486.275 80.4408 486.081 80.2912C485.954 80.194 485.849 80.0594 485.722 79.9248C485.55 80.209 485.393 80.4707 485.236 80.7398C485.131 80.9118 485.027 81.0913 484.922 81.2633C484.765 81.525 484.526 81.5549 484.309 81.338C483.606 80.6352 482.903 79.9323 482.2 79.2294C481.692 78.721 481.183 78.2125 480.675 77.704C480.428 77.4573 480.451 77.2479 480.75 77.061C481.176 76.7993 481.61 76.545 482.051 76.2758C481.856 76.074 481.699 75.8571 481.482 75.7076C481.355 75.6178 481.146 75.6328 480.974 75.6029C480.473 75.5281 479.972 75.4608 479.471 75.3935C479.314 75.3711 479.172 75.3187 479.12 75.1393C479.067 74.9673 479.149 74.8551 479.262 74.743C480.159 73.8532 481.056 72.9559 481.939 72.0586C482.118 71.8791 482.335 71.8866 482.552 71.8567C483.397 71.7595 484.242 71.6698 485.086 71.58C485.214 71.5651 485.311 71.5202 485.401 71.423C485.857 70.9594 486.335 70.5108 486.776 70.0322C487.763 68.9629 488.982 68.2676 490.343 67.804C491.472 67.4226 492.624 67.1759 493.805 67.0712C494.044 67.0487 494.276 67.0338 494.515 67.0039C494.717 66.9814 494.867 67.0562 494.964 67.2357C494.972 67.4301 494.972 67.5946 494.972 67.7591ZM487.442 78.8256C487.487 78.7658 487.517 78.706 487.562 78.6537C488.93 77.2853 490.291 75.9095 491.667 74.556C492.541 73.6961 493.11 72.6568 493.514 71.5127C493.528 71.4679 493.506 71.3856 493.469 71.3482C492.534 70.4061 491.599 69.4714 490.657 68.5367C490.62 68.4994 490.538 68.4694 490.493 68.4844C489.379 68.8732 488.362 69.4116 487.524 70.2565C485.819 71.9689 484.114 73.6737 482.402 75.3786C482.357 75.4234 482.312 75.4683 482.29 75.4982C483.703 76.9114 485.094 78.3022 486.485 79.693C486.619 79.5584 486.769 79.4089 486.933 79.2369C486.889 79.1995 486.836 79.1696 486.791 79.1247C486.014 78.3471 485.236 77.5694 484.458 76.7918C484.399 76.732 484.339 76.6721 484.301 76.6049C484.182 76.3955 484.331 76.1188 484.571 76.1338C484.683 76.1413 484.81 76.2085 484.892 76.2908C485.685 77.0759 486.47 77.8685 487.262 78.6537C487.322 78.7135 487.367 78.7509 487.442 78.8256ZM485.221 79.4687C484.324 78.5714 483.434 77.6816 482.537 76.7843C482.17 77.0012 481.789 77.233 481.438 77.4423C482.484 78.4892 483.524 79.5285 484.563 80.5679C484.772 80.209 485.004 79.8351 485.221 79.4687ZM494.284 67.7217C493.267 67.804 492.287 67.9685 491.353 68.2227C492.16 69.0302 492.975 69.8453 493.783 70.6528C494.037 69.7107 494.201 68.7312 494.284 67.7217ZM484.496 72.3353C483.83 72.41 483.187 72.4773 482.552 72.5596C482.469 72.5671 482.372 72.6119 482.312 72.6717C481.639 73.3372 480.966 74.0102 480.293 74.6832C480.256 74.7205 480.219 74.7579 480.174 74.8178C480.249 74.8327 480.301 74.8477 480.361 74.8551C480.787 74.915 481.213 74.9673 481.632 75.0421C481.744 75.057 481.811 75.0421 481.894 74.9598C482.724 74.1298 483.554 73.2998 484.384 72.4624C484.414 72.425 484.443 72.3876 484.496 72.3353ZM487.18 81.8166C487.218 81.7942 487.233 81.7942 487.24 81.7867C487.958 81.0763 488.668 80.3585 489.379 79.6407C489.416 79.6033 489.438 79.5509 489.446 79.4986C489.521 78.8406 489.595 78.1901 489.67 77.5096C489.633 77.532 489.61 77.547 489.595 77.562C488.735 78.4219 487.876 79.2743 487.023 80.1417C486.986 80.179 486.963 80.2688 486.971 80.3286C486.993 80.538 487.023 80.7398 487.053 80.9492C487.098 81.2408 487.135 81.525 487.18 81.8166Z" fill="black"/>
<path d="M478.237 84C477.938 83.7906 477.923 83.6112 478.185 83.342C479.277 82.2503 480.368 81.1586 481.467 80.0669C481.535 79.9996 481.617 79.9323 481.707 79.9024C481.849 79.8575 481.983 79.9099 482.066 80.0444C482.14 80.1716 482.14 80.2912 482.051 80.4108C482.013 80.4557 481.976 80.508 481.931 80.5454C480.847 81.6371 479.755 82.7214 478.663 83.8131C478.596 83.8804 478.514 83.9402 478.432 84C478.372 84 478.305 84 478.237 84Z" fill="black"/>
<path d="M478.828 81.682C478.551 81.6521 478.394 81.3755 478.529 81.1586C478.559 81.1063 478.604 81.0614 478.641 81.0165C479.277 80.381 479.912 79.7379 480.555 79.1098C480.637 79.035 480.757 78.9603 480.869 78.9528C481.116 78.9378 481.273 79.222 481.146 79.4313C481.116 79.4837 481.071 79.5285 481.034 79.5734C480.391 80.2165 479.755 80.8595 479.112 81.4951C479.022 81.5773 478.918 81.6222 478.828 81.682Z" fill="black"/>
<path d="M480.353 83.1401C480.376 83.1027 480.413 83.0055 480.481 82.9382C481.139 82.2727 481.797 81.6147 482.462 80.9567C482.627 80.7922 482.813 80.7772 482.963 80.9193C483.105 81.0539 483.098 81.2633 482.933 81.4353C482.275 82.0933 481.617 82.7588 480.952 83.4168C480.847 83.5214 480.72 83.5813 480.563 83.514C480.421 83.4467 480.353 83.342 480.353 83.1401Z" fill="black"/>
<path d="M490.769 73.2326C490.762 74.3392 489.865 75.2215 488.758 75.2141C487.674 75.2066 486.776 74.2943 486.791 73.2026C486.799 72.1035 487.704 71.2211 488.803 71.2361C489.909 71.2436 490.777 72.1259 490.769 73.2326ZM488.788 71.9016C488.07 71.9016 487.479 72.4848 487.464 73.2101C487.449 73.928 488.062 74.5411 488.788 74.5411C489.506 74.5411 490.104 73.9429 490.104 73.2251C490.104 72.4998 489.513 71.9016 488.788 71.9016Z" fill="black"/>
<path d="M483.337 75.5281C483.337 75.3561 483.486 75.1991 483.658 75.1991C483.83 75.1991 484.002 75.3636 483.995 75.5356C483.995 75.715 483.83 75.8721 483.651 75.8646C483.471 75.8496 483.337 75.7076 483.337 75.5281Z" fill="black"/>
<path d="M638.264 77.2116C637.929 77.8211 637.663 78.4207 637.298 78.9516C636.096 80.6818 634.421 81.6747 632.312 81.9106C631.11 82.0482 629.947 81.8713 628.843 81.3896C628.705 81.3306 628.606 81.3404 628.478 81.4191C627.7 81.8615 626.911 82.2743 626.024 82.4513C625.64 82.5299 625.266 82.5693 624.881 82.4316C624.231 82.1957 623.906 81.5469 624.024 80.7604C624.182 79.7774 624.605 78.9123 625.098 78.0668C625.177 77.9292 625.197 77.8211 625.128 77.6736C623.383 73.6529 625.887 68.9342 630.213 68.1379C632.834 67.6562 635.042 68.4427 636.845 70.399C636.875 70.4284 636.904 70.4678 636.934 70.4973C636.944 70.5071 636.953 70.5169 636.983 70.5366C637.151 70.3891 637.308 70.2417 637.476 70.0942C638.599 69.1701 639.89 68.7081 641.349 68.6983C641.684 68.6983 641.802 68.8162 641.802 69.1603C641.802 70.7529 641.25 72.139 640.156 73.299C639.979 73.4858 639.792 73.6725 639.604 73.8495C639.506 73.938 639.486 74.0264 639.526 74.1542C639.703 74.7637 639.861 75.3831 640.038 75.9926C640.107 76.2187 640.048 76.376 639.88 76.5333C639.604 76.7987 639.338 77.0739 639.062 77.3492C638.806 77.6048 638.658 77.6048 638.402 77.3492C638.333 77.3099 638.294 77.2509 638.264 77.2116ZM636.402 70.9986C636.303 70.8807 636.244 70.802 636.185 70.743C634.549 69.062 632.558 68.3837 630.252 68.8555C626.99 69.524 624.862 72.6108 625.354 75.9041C625.65 77.8899 626.714 79.3841 628.439 80.4164C628.567 80.495 628.656 80.495 628.784 80.4065C630.292 79.4038 631.691 78.2733 632.982 77.0051C633.13 76.8577 633.209 76.7004 633.228 76.4939C633.287 75.7861 633.563 75.1471 633.987 74.577C634.076 74.459 634.174 74.341 634.243 74.2624C634.125 74.0658 633.958 73.8888 633.958 73.7217C633.958 73.5546 634.145 73.3875 634.253 73.2007C633.879 72.8271 633.485 72.4437 633.1 72.0505C632.903 71.8441 632.903 71.6671 633.1 71.4607C633.317 71.2444 633.554 71.0478 633.741 70.8118C634.036 70.4383 634.362 70.3695 634.805 70.5366C635.288 70.7332 635.82 70.8413 636.402 70.9986ZM629.454 80.8784C629.493 80.8981 629.572 80.9275 629.641 80.9472C630.765 81.3011 631.898 81.3699 633.031 81.075C635.327 80.4655 636.835 79.0204 637.564 76.7692C637.584 76.7004 637.584 76.6021 637.555 76.5529C637.476 76.435 637.358 76.3268 637.259 76.2187C636.756 76.6512 636.756 76.6512 636.244 76.2482C636.224 76.258 636.205 76.2678 636.185 76.2777C635.495 76.897 634.697 77.2411 633.77 77.3C633.701 77.3 633.623 77.359 633.573 77.4082C633.15 77.8014 632.736 78.2241 632.292 78.5879C631.366 79.3645 630.41 80.1116 629.454 80.8784ZM634.805 73.7119C635.475 74.3803 636.116 75.0292 636.776 75.6878C636.786 75.678 636.816 75.6583 636.845 75.6288C637.771 74.7048 638.698 73.7807 639.624 72.8566C640.294 72.1783 640.728 71.3722 640.945 70.4481C641.024 70.1237 641.053 69.7895 641.112 69.4454C640.058 69.4454 638.826 69.8583 638.008 70.6054C636.894 71.6081 635.85 72.6797 634.805 73.7119ZM625.601 78.6173C625.256 79.2367 624.95 79.8363 624.802 80.4852C624.743 80.7506 624.733 81.0455 624.753 81.3208C624.763 81.5862 624.95 81.7435 625.216 81.7828C625.335 81.8025 625.463 81.8025 625.581 81.7926C626.429 81.7238 627.158 81.3306 627.917 80.9374C626.961 80.3377 626.192 79.5807 625.601 78.6173ZM633.918 76.5726C634.647 76.4841 635.229 76.199 635.722 75.7468C635.387 75.4126 635.071 75.098 634.756 74.7736C634.283 75.2651 634.007 75.8549 633.918 76.5726ZM635.869 71.5983C635.416 71.4803 634.963 71.3525 634.509 71.2346C634.45 71.2149 634.352 71.2346 634.303 71.2739C634.125 71.4312 633.948 71.5983 633.79 71.7556C634.135 72.0996 634.45 72.4142 634.756 72.719C635.12 72.3454 635.495 71.9718 635.869 71.5983ZM638.905 74.6163C638.52 74.9898 638.156 75.3634 637.801 75.7173C638.106 76.0221 638.432 76.3465 638.767 76.6807C638.915 76.5333 639.072 76.3661 639.23 76.199C639.269 76.1597 639.299 76.081 639.289 76.0319C639.161 75.5502 639.033 75.0783 638.905 74.6163Z" fill="black"/>
<path d="M638.859 70.5766C639.453 70.5766 639.928 70.9832 639.928 71.5047C639.928 72.0174 639.443 72.4505 638.869 72.4505C638.285 72.4505 637.82 72.0262 637.82 71.5047C637.82 70.9832 638.265 70.5766 638.859 70.5766ZM638.869 71.8052C639.067 71.8052 639.216 71.6727 639.206 71.4959C639.196 71.3368 639.057 71.2042 638.869 71.1953C638.681 71.1953 638.523 71.3279 638.523 71.4959C638.523 71.6815 638.671 71.8141 638.869 71.8052Z" fill="black"/>
<path d="M688.815 72.232C688.065 71.6817 687.235 71.4028 686.295 71.4102C684.509 71.4102 682.984 72.5549 682.541 74.0958C682.383 74.6535 681.83 75.0277 681.245 74.9984C680.613 74.969 680.115 74.5508 680.012 73.9637C679.981 73.7583 680.012 73.5528 680.083 73.3474C680.858 71.146 682.438 69.7078 684.872 69.1721C686.958 68.7172 688.863 69.1721 690.53 70.4416C690.57 70.4709 690.601 70.4929 690.649 70.5296C690.87 70.3242 691.083 70.1114 691.313 69.9132C691.384 69.8472 691.486 69.7958 691.581 69.7885C691.795 69.7592 691.968 69.9059 691.992 70.104C691.992 70.126 692 70.1481 692 70.1774C692 71.146 692 72.1073 692 73.0759C692 73.274 691.905 73.4061 691.723 73.4501C691.676 73.4648 691.629 73.4648 691.589 73.4648C690.538 73.4648 689.495 73.4648 688.444 73.4648C688.254 73.4648 688.12 73.3914 688.065 73.2446C688.001 73.0905 688.041 72.9585 688.159 72.8484C688.373 72.6429 688.586 72.4448 688.815 72.232ZM691.218 70.9993C691.147 71.0653 691.099 71.1093 691.06 71.1607C690.783 71.4542 690.578 71.4689 690.246 71.1754C689.305 70.3388 688.167 69.8692 686.871 69.7518C685.971 69.6711 685.086 69.7738 684.248 70.0894C682.494 70.7498 681.34 71.9385 680.795 73.6262C680.747 73.7656 680.755 73.8977 680.826 74.0225C680.929 74.2059 681.126 74.3013 681.364 74.2719C681.569 74.2499 681.727 74.1105 681.798 73.883C682.438 71.7844 684.596 70.4563 686.903 70.7351C687.938 70.8598 688.831 71.2634 689.582 71.9312C689.795 72.1219 689.795 72.3201 689.59 72.5109C689.511 72.5842 689.424 72.6576 689.321 72.753C689.977 72.753 690.585 72.753 691.21 72.753C691.218 72.1733 691.218 71.601 691.218 70.9993Z" fill="black"/>
<path d="M686.215 82C685.994 81.9656 685.773 81.9399 685.551 81.8969C684.382 81.6821 683.347 81.1408 682.438 80.3074C682.414 80.2816 682.383 80.2644 682.343 80.2215C682.225 80.3589 682.106 80.4878 681.988 80.6253C681.893 80.7284 681.79 80.8315 681.703 80.9346C681.577 81.0807 681.427 81.1494 681.245 81.0721C681.055 80.9947 681 80.8229 681 80.6167C681 79.9637 681 79.3107 681 78.6577C681 78.1938 681 77.7384 681 77.2744C681 76.9394 681.142 76.7847 681.45 76.7847C682.478 76.7847 683.505 76.7847 684.532 76.7847C684.722 76.7847 684.864 76.8534 684.943 77.0425C685.014 77.2401 684.959 77.3947 684.824 77.5408C684.611 77.7642 684.406 77.9962 684.184 78.2281C684.54 78.5546 684.927 78.7952 685.362 78.9585C687.471 79.7661 689.755 78.5203 690.419 76.2005C690.513 75.8568 690.632 75.5475 690.901 75.3155C691.343 74.9288 691.944 74.8945 692.41 75.2296C692.876 75.5646 693.113 76.1833 692.947 76.7675C692.189 79.5083 690.529 81.2181 687.953 81.8625C687.716 81.9227 687.471 81.9399 687.226 81.9742C687.195 81.9828 687.163 81.9914 687.132 82C686.823 82 686.523 82 686.215 82ZM683.663 77.6181C683.007 77.6181 682.391 77.6181 681.774 77.6181C681.774 78.2969 681.774 78.9671 681.774 79.6544C681.822 79.6114 681.853 79.5771 681.885 79.5427C681.924 79.4998 681.972 79.4482 682.011 79.4052C682.241 79.1561 682.43 79.1561 682.667 79.3966C684.113 80.8745 685.82 81.4329 687.764 81.0463C689.083 80.7885 690.174 80.0668 691.043 78.9585C691.604 78.2453 691.999 77.4291 692.212 76.5098C692.275 76.2434 692.133 75.9771 691.904 75.874C691.596 75.7365 691.288 75.9255 691.185 76.3036C690.569 78.6663 688.506 80.2558 686.183 79.9981C685.109 79.8778 684.176 79.3966 683.394 78.5718C683.189 78.357 683.189 78.125 683.394 77.9017C683.473 77.8157 683.56 77.7298 683.663 77.6181Z" fill="black"/>
<path d="M819.859 67C820.279 67 820.699 67 821.119 67C821.381 67.042 821.644 67.063 821.895 67.1155C823.47 67.3884 824.866 68.0496 826.062 69.1098C827.542 70.4218 828.487 72.0487 828.844 74.0115C828.896 74.3054 828.928 74.6098 828.98 74.9037C828.98 75.3026 828.98 75.7014 828.98 76.1003C828.97 76.1528 828.959 76.1948 828.949 76.2472C828.896 76.5831 828.875 76.919 828.802 77.2444C827.899 81.6003 823.732 84.5288 819.324 83.92C817.529 83.6681 815.965 82.9229 814.663 81.6633C812.522 79.5851 811.672 77.0554 812.113 74.106C812.375 72.3531 813.173 70.8416 814.412 69.5821C815.734 68.2281 817.33 67.3989 819.208 67.105C819.429 67.063 819.649 67.0315 819.859 67ZM827.994 75.502C828.004 71.3874 824.635 68.0076 820.499 67.9971C816.385 67.9867 813.005 71.356 812.995 75.481C812.984 79.5955 816.353 82.9858 820.478 82.9754C824.635 82.9754 827.962 79.6585 827.994 75.502Z" fill="black"/>
<path d="M820.489 69.0258C824.068 69.0258 826.955 71.9122 826.965 75.4915C826.965 79.0707 824.068 81.9677 820.489 81.9677C816.92 81.9677 814.034 79.0602 814.034 75.4915C814.023 71.9227 816.92 69.0258 820.489 69.0258ZM815.02 75.481C815.01 78.4829 817.477 80.9495 820.489 80.96C823.491 80.9705 825.958 78.5039 825.968 75.4915C825.978 72.4895 823.512 70.0229 820.499 70.0124C817.497 70.0124 815.031 72.4685 815.02 75.481Z" fill="black"/>
<path d="M819.996 72.0277C819.996 71.8493 819.996 71.6813 819.996 71.5134C819.996 71.2195 820.206 71.0096 820.489 71.0096C820.772 71.0096 820.982 71.2195 820.982 71.5134C820.982 71.6813 820.982 71.8598 820.982 72.0277C821.455 72.1222 821.895 72.2796 822.263 72.584C822.704 72.9514 822.977 73.4027 822.966 74.001C822.966 74.2634 822.756 74.4734 822.494 74.4839C822.242 74.4944 821.99 74.3159 821.979 74.064C821.958 73.5602 821.644 73.3083 821.234 73.1298C821.182 73.1088 821.119 73.0878 821.066 73.0669C821.045 73.0564 821.024 73.0564 820.993 73.0564C820.993 73.7071 820.993 74.3474 820.993 74.9877C821.224 75.0612 821.465 75.1241 821.686 75.2186C822.326 75.502 822.798 75.9428 822.945 76.6461C823.082 77.3074 822.83 77.8532 822.347 78.294C822.011 78.6089 821.591 78.7978 821.14 78.8818C821.003 78.9133 820.972 78.9658 820.982 79.0917C820.993 79.2177 820.982 79.3436 820.982 79.4696C820.972 79.753 820.762 79.9524 820.478 79.9524C820.206 79.9524 819.996 79.7425 819.985 79.4696C819.985 79.3331 819.975 79.1967 819.985 79.0602C819.996 78.9448 819.954 78.9133 819.838 78.8923C819.25 78.7663 818.747 78.5144 818.369 78.0316C818.117 77.7167 817.98 77.3598 817.991 76.9505C818.001 76.6881 818.211 76.4781 818.463 76.4781C818.726 76.4677 818.967 76.6566 818.978 76.919C818.999 77.3179 819.219 77.5698 819.555 77.7482C819.681 77.8217 819.828 77.8637 819.985 77.9266C819.985 77.2759 819.985 76.6566 819.985 76.0373C819.985 75.9323 819.912 75.9323 819.838 75.9218C819.397 75.8274 818.999 75.6489 818.652 75.355C817.749 74.5888 817.77 73.3293 818.694 72.584C819.02 72.3216 819.387 72.1537 819.796 72.0697C819.87 72.0592 819.933 72.0487 819.996 72.0277ZM820.993 77.9056C821.297 77.8322 821.549 77.7062 821.759 77.4858C822.011 77.2129 822.053 76.898 821.864 76.6146C821.665 76.2997 821.35 76.1528 820.993 76.0583C820.993 76.6776 820.993 77.2759 820.993 77.9056ZM819.985 74.9247C819.985 74.3054 819.985 73.6966 819.985 73.0774C819.66 73.1613 819.387 73.2978 819.177 73.5497C818.967 73.8016 818.946 74.106 819.114 74.3789C819.324 74.6728 819.639 74.8302 819.985 74.9247Z" fill="black"/>
</svg>
