<svg width="132" height="83" viewBox="0 0 132 83" fill="none" xmlns="http://www.w3.org/2000/svg">
<path d="M77.4725 62V61.1285H78.9845V56.5085H77.756V55.8365C78.078 55.7735 78.358 55.7 78.596 55.616C78.834 55.532 79.051 55.4305 79.247 55.3115H80.045V61.1285H81.389V62H77.4725ZM82.3329 62V61.1285H83.8449V56.5085H82.6164V55.8365C82.9384 55.7735 83.2184 55.7 83.4564 55.616C83.6944 55.532 83.9114 55.4305 84.1074 55.3115H84.9054V61.1285H86.2494V62H82.3329ZM89.5767 62.126C89.2477 62.126 88.9397 62.0595 88.6527 61.9265C88.3657 61.7935 88.1137 61.594 87.8967 61.328C87.6867 61.062 87.5187 60.726 87.3927 60.32C87.2667 59.914 87.2037 59.4345 87.2037 58.8815C87.2037 58.2235 87.2737 57.66 87.4137 57.191C87.5607 56.722 87.7532 56.3405 87.9912 56.0465C88.2362 55.7525 88.5127 55.5355 88.8207 55.3955C89.1287 55.2555 89.4542 55.1855 89.7972 55.1855C90.1822 55.1855 90.5147 55.2555 90.7947 55.3955C91.0747 55.5355 91.3127 55.7105 91.5087 55.9205L90.9312 56.5715C90.7982 56.4175 90.6337 56.295 90.4377 56.204C90.2487 56.106 90.0527 56.057 89.8497 56.057C89.5487 56.057 89.2722 56.148 89.0202 56.33C88.7682 56.505 88.5652 56.799 88.4112 57.212C88.2642 57.618 88.1907 58.1745 88.1907 58.8815C88.1907 59.4345 88.2467 59.8895 88.3587 60.2465C88.4707 60.6035 88.6282 60.8695 88.8312 61.0445C89.0412 61.2195 89.2862 61.307 89.5662 61.307C89.7622 61.307 89.9407 61.2545 90.1017 61.1495C90.2697 61.0375 90.3992 60.88 90.4902 60.677C90.5882 60.474 90.6372 60.2325 90.6372 59.9525C90.6372 59.6795 90.5917 59.4485 90.5007 59.2595C90.4167 59.0635 90.2907 58.9165 90.1227 58.8185C89.9547 58.7135 89.7482 58.661 89.5032 58.661C89.3002 58.661 89.0797 58.7275 88.8417 58.8605C88.6037 58.9935 88.3832 59.221 88.1802 59.543L88.1382 58.766C88.3412 58.493 88.5827 58.2795 88.8627 58.1255C89.1497 57.9645 89.4262 57.884 89.6922 57.884C90.0772 57.884 90.4132 57.961 90.7002 58.115C90.9942 58.269 91.2217 58.5 91.3827 58.808C91.5437 59.109 91.6242 59.4905 91.6242 59.9525C91.6242 60.3935 91.5297 60.775 91.3407 61.097C91.1517 61.419 90.9032 61.671 90.5952 61.853C90.2872 62.035 89.9477 62.126 89.5767 62.126ZM93.4182 62.126C93.2222 62.126 93.0542 62.056 92.9142 61.916C92.7742 61.776 92.7042 61.5975 92.7042 61.3805C92.7042 61.1565 92.7742 60.9745 92.9142 60.8345C93.0542 60.6945 93.2222 60.6245 93.4182 60.6245C93.6212 60.6245 93.7892 60.6945 93.9222 60.8345C94.0622 60.9745 94.1322 61.1565 94.1322 61.3805C94.1322 61.5975 94.0622 61.776 93.9222 61.916C93.7892 62.056 93.6212 62.126 93.4182 62.126ZM97.6568 62.126C97.3278 62.126 97.0198 62.0595 96.7328 61.9265C96.4458 61.7935 96.1938 61.594 95.9768 61.328C95.7668 61.062 95.5988 60.726 95.4728 60.32C95.3468 59.914 95.2838 59.4345 95.2838 58.8815C95.2838 58.2235 95.3538 57.66 95.4938 57.191C95.6408 56.722 95.8333 56.3405 96.0713 56.0465C96.3163 55.7525 96.5928 55.5355 96.9008 55.3955C97.2088 55.2555 97.5343 55.1855 97.8773 55.1855C98.2623 55.1855 98.5948 55.2555 98.8748 55.3955C99.1548 55.5355 99.3928 55.7105 99.5888 55.9205L99.0113 56.5715C98.8783 56.4175 98.7138 56.295 98.5178 56.204C98.3288 56.106 98.1328 56.057 97.9298 56.057C97.6288 56.057 97.3523 56.148 97.1003 56.33C96.8483 56.505 96.6453 56.799 96.4913 57.212C96.3443 57.618 96.2708 58.1745 96.2708 58.8815C96.2708 59.4345 96.3268 59.8895 96.4388 60.2465C96.5508 60.6035 96.7083 60.8695 96.9113 61.0445C97.1213 61.2195 97.3663 61.307 97.6463 61.307C97.8423 61.307 98.0208 61.2545 98.1818 61.1495C98.3498 61.0375 98.4793 60.88 98.5703 60.677C98.6683 60.474 98.7173 60.2325 98.7173 59.9525C98.7173 59.6795 98.6718 59.4485 98.5808 59.2595C98.4968 59.0635 98.3708 58.9165 98.2028 58.8185C98.0348 58.7135 97.8283 58.661 97.5833 58.661C97.3803 58.661 97.1598 58.7275 96.9218 58.8605C96.6838 58.9935 96.4633 59.221 96.2603 59.543L96.2183 58.766C96.4213 58.493 96.6628 58.2795 96.9428 58.1255C97.2298 57.9645 97.5063 57.884 97.7723 57.884C98.1573 57.884 98.4933 57.961 98.7803 58.115C99.0743 58.269 99.3018 58.5 99.4628 58.808C99.6238 59.109 99.7043 59.4905 99.7043 59.9525C99.7043 60.3935 99.6098 60.775 99.4208 61.097C99.2318 61.419 98.9833 61.671 98.6753 61.853C98.3673 62.035 98.0278 62.126 97.6568 62.126ZM103.273 62V57.695C103.273 57.506 103.28 57.282 103.294 57.023C103.308 56.757 103.318 56.533 103.325 56.351H103.283C103.199 56.512 103.112 56.6765 103.021 56.8445C102.93 57.0055 102.835 57.1735 102.737 57.3485L101.372 59.396H105.142V60.2255H100.301V59.5115L103.042 55.3115H104.27V62H103.273ZM105.896 62V61.1285H107.408V56.5085H106.18V55.8365C106.502 55.7735 106.782 55.7 107.02 55.616C107.258 55.532 107.475 55.4305 107.671 55.3115H108.469V61.1285H109.813V62H105.896Z" fill="white"/>
<path d="M69.4725 79V78.1285H70.9845V73.5085H69.756V72.8365C70.078 72.7735 70.358 72.7 70.596 72.616C70.834 72.532 71.051 72.4305 71.247 72.3115H72.045V78.1285H73.389V79H69.4725ZM76.5169 79.126C75.8309 79.126 75.2884 78.825 74.8894 78.223C74.4974 77.621 74.3014 76.7565 74.3014 75.6295C74.3014 74.5025 74.4974 73.6485 74.8894 73.0675C75.2884 72.4795 75.8309 72.1855 76.5169 72.1855C77.1959 72.1855 77.7349 72.4795 78.1339 73.0675C78.5329 73.6555 78.7324 74.5095 78.7324 75.6295C78.7324 76.7565 78.5329 77.621 78.1339 78.223C77.7349 78.825 77.1959 79.126 76.5169 79.126ZM76.5169 78.286C76.7479 78.286 76.9544 78.1985 77.1364 78.0235C77.3184 77.8485 77.4584 77.5685 77.5564 77.1835C77.6614 76.7915 77.7139 76.2735 77.7139 75.6295C77.7139 74.9855 77.6614 74.4745 77.5564 74.0965C77.4584 73.7115 77.3184 73.4385 77.1364 73.2775C76.9544 73.1095 76.7479 73.0255 76.5169 73.0255C76.2789 73.0255 76.0689 73.1095 75.8869 73.2775C75.7119 73.4385 75.5719 73.7115 75.4669 74.0965C75.3689 74.4745 75.3199 74.9855 75.3199 75.6295C75.3199 76.2735 75.3689 76.7915 75.4669 77.1835C75.5719 77.5685 75.7119 77.8485 75.8869 78.0235C76.0689 78.1985 76.2789 78.286 76.5169 78.286ZM81.3979 79.126C81.0129 79.126 80.6804 79.056 80.4004 78.916C80.1204 78.769 79.8824 78.594 79.6864 78.391L80.2639 77.74C80.3899 77.894 80.5509 78.02 80.7469 78.118C80.9429 78.209 81.1424 78.2545 81.3454 78.2545C81.6464 78.2545 81.9229 78.167 82.1749 77.992C82.4269 77.81 82.6264 77.516 82.7734 77.11C82.9274 76.697 83.0044 76.137 83.0044 75.43C83.0044 74.877 82.9484 74.422 82.8364 74.065C82.7244 73.708 82.5634 73.442 82.3534 73.267C82.1504 73.092 81.9089 73.0045 81.6289 73.0045C81.4259 73.0045 81.2439 73.0605 81.0829 73.1725C80.9219 73.2775 80.7924 73.4315 80.6944 73.6345C80.6034 73.8305 80.5579 74.072 80.5579 74.359C80.5579 74.632 80.5999 74.8665 80.6839 75.0625C80.7749 75.2515 80.9044 75.3985 81.0724 75.5035C81.2404 75.6015 81.4469 75.6505 81.6919 75.6505C81.8949 75.6505 82.1154 75.584 82.3534 75.451C82.5914 75.318 82.8119 75.0905 83.0149 74.7685L83.0569 75.5455C82.8609 75.8115 82.6194 76.025 82.3324 76.186C82.0454 76.347 81.7689 76.4275 81.5029 76.4275C81.1179 76.4275 80.7784 76.3505 80.4844 76.1965C80.1974 76.0425 79.9734 75.815 79.8124 75.514C79.6514 75.206 79.5709 74.821 79.5709 74.359C79.5709 73.918 79.6619 73.5365 79.8439 73.2145C80.0329 72.8855 80.2814 72.6335 80.5894 72.4585C80.9044 72.2765 81.2474 72.1855 81.6184 72.1855C81.9474 72.1855 82.2554 72.252 82.5424 72.385C82.8294 72.511 83.0779 72.7105 83.2879 72.9835C83.5049 73.2495 83.6764 73.5855 83.8024 73.9915C83.9284 74.3975 83.9914 74.877 83.9914 75.43C83.9914 76.088 83.9179 76.6515 83.7709 77.1205C83.6309 77.5895 83.4384 77.971 83.1934 78.265C82.9554 78.559 82.6789 78.776 82.3639 78.916C82.0559 79.056 81.7339 79.126 81.3979 79.126ZM85.8694 79.126C85.6734 79.126 85.5054 79.056 85.3654 78.916C85.2254 78.776 85.1554 78.5975 85.1554 78.3805C85.1554 78.1565 85.2254 77.9745 85.3654 77.8345C85.5054 77.6945 85.6734 77.6245 85.8694 77.6245C86.0724 77.6245 86.2404 77.6945 86.3734 77.8345C86.5134 77.9745 86.5834 78.1565 86.5834 78.3805C86.5834 78.5975 86.5134 78.776 86.3734 78.916C86.2404 79.056 86.0724 79.126 85.8694 79.126ZM89.478 79.126C89.093 79.126 88.7605 79.056 88.4805 78.916C88.2005 78.769 87.9625 78.594 87.7665 78.391L88.344 77.74C88.47 77.894 88.631 78.02 88.827 78.118C89.023 78.209 89.2225 78.2545 89.4255 78.2545C89.7265 78.2545 90.003 78.167 90.255 77.992C90.507 77.81 90.7065 77.516 90.8535 77.11C91.0075 76.697 91.0845 76.137 91.0845 75.43C91.0845 74.877 91.0285 74.422 90.9165 74.065C90.8045 73.708 90.6435 73.442 90.4335 73.267C90.2305 73.092 89.989 73.0045 89.709 73.0045C89.506 73.0045 89.324 73.0605 89.163 73.1725C89.002 73.2775 88.8725 73.4315 88.7745 73.6345C88.6835 73.8305 88.638 74.072 88.638 74.359C88.638 74.632 88.68 74.8665 88.764 75.0625C88.855 75.2515 88.9845 75.3985 89.1525 75.5035C89.3205 75.6015 89.527 75.6505 89.772 75.6505C89.975 75.6505 90.1955 75.584 90.4335 75.451C90.6715 75.318 90.892 75.0905 91.095 74.7685L91.137 75.5455C90.941 75.8115 90.6995 76.025 90.4125 76.186C90.1255 76.347 89.849 76.4275 89.583 76.4275C89.198 76.4275 88.8585 76.3505 88.5645 76.1965C88.2775 76.0425 88.0535 75.815 87.8925 75.514C87.7315 75.206 87.651 74.821 87.651 74.359C87.651 73.918 87.742 73.5365 87.924 73.2145C88.113 72.8855 88.3615 72.6335 88.6695 72.4585C88.9845 72.2765 89.3275 72.1855 89.6985 72.1855C90.0275 72.1855 90.3355 72.252 90.6225 72.385C90.9095 72.511 91.158 72.7105 91.368 72.9835C91.585 73.2495 91.7565 73.5855 91.8825 73.9915C92.0085 74.3975 92.0715 74.877 92.0715 75.43C92.0715 76.088 91.998 76.6515 91.851 77.1205C91.711 77.5895 91.5185 77.971 91.2735 78.265C91.0355 78.559 90.759 78.776 90.444 78.916C90.136 79.056 89.814 79.126 89.478 79.126ZM94.3695 79C94.4115 78.188 94.4955 77.46 94.6215 76.816C94.7545 76.172 94.9505 75.563 95.2095 74.989C95.4755 74.408 95.8255 73.8165 96.2595 73.2145H93.0255V72.3115H97.4355V72.9625C97.0365 73.4525 96.7145 73.925 96.4695 74.38C96.2245 74.828 96.032 75.283 95.892 75.745C95.759 76.207 95.6575 76.7005 95.5875 77.2255C95.5245 77.7505 95.479 78.342 95.451 79H94.3695ZM100.374 79.126C100.01 79.126 99.688 79.084 99.408 79C99.135 78.909 98.8935 78.7935 98.6835 78.6535C98.4735 78.5135 98.288 78.363 98.127 78.202L98.631 77.5195C98.834 77.7155 99.0615 77.887 99.3135 78.034C99.5725 78.181 99.884 78.2545 100.248 78.2545C100.507 78.2545 100.738 78.1985 100.941 78.0865C101.151 77.9745 101.316 77.817 101.435 77.614C101.554 77.404 101.613 77.1555 101.613 76.8685C101.613 76.4415 101.494 76.1125 101.256 75.8815C101.018 75.6435 100.7 75.5245 100.301 75.5245C100.084 75.5245 99.8945 75.556 99.7335 75.619C99.5795 75.682 99.401 75.78 99.198 75.913L98.673 75.577L98.883 72.3115H102.359V73.2145H99.807L99.6495 74.989C99.7965 74.912 99.9435 74.8525 100.091 74.8105C100.238 74.7685 100.406 74.7475 100.595 74.7475C100.973 74.7475 101.319 74.8245 101.634 74.9785C101.956 75.1255 102.212 75.353 102.401 75.661C102.59 75.969 102.684 76.361 102.684 76.837C102.684 77.327 102.576 77.7435 102.359 78.0865C102.142 78.4225 101.855 78.6815 101.498 78.8635C101.148 79.0385 100.773 79.126 100.374 79.126Z" fill="white"/>
<path d="M78.42 45V43.8345H79.89V39.813H78.6405V38.9205C78.9905 38.8505 79.2915 38.77 79.5435 38.679C79.7955 38.581 80.037 38.4655 80.268 38.3325H81.3285V43.8345H82.599V45H78.42ZM83.4027 45V44.1705C83.9907 43.6175 84.5052 43.117 84.9462 42.669C85.3872 42.214 85.7302 41.801 85.9752 41.43C86.2202 41.059 86.3427 40.709 86.3427 40.38C86.3427 40.044 86.2552 39.785 86.0802 39.603C85.9052 39.421 85.6602 39.33 85.3452 39.33C85.1072 39.33 84.8867 39.4 84.6837 39.54C84.4807 39.68 84.2952 39.8445 84.1272 40.0335L83.3397 39.2565C83.6617 38.9065 83.9907 38.644 84.3267 38.469C84.6697 38.294 85.0757 38.2065 85.5447 38.2065C85.9787 38.2065 86.3567 38.294 86.6787 38.469C87.0077 38.637 87.2632 38.8785 87.4452 39.1935C87.6272 39.5085 87.7182 39.8795 87.7182 40.3065C87.7182 40.6845 87.6132 41.0695 87.4032 41.4615C87.1932 41.8535 86.9167 42.2525 86.5737 42.6585C86.2377 43.0575 85.8737 43.46 85.4817 43.866C85.6567 43.845 85.8457 43.8275 86.0487 43.8135C86.2587 43.7995 86.4442 43.7925 86.6052 43.7925H88.0437V45H83.4027ZM91.2613 45.126C90.5473 45.126 89.9768 44.8285 89.5498 44.2335C89.1228 43.6385 88.9093 42.774 88.9093 41.64C88.9093 40.499 89.1228 39.6415 89.5498 39.0675C89.9768 38.4935 90.5473 38.2065 91.2613 38.2065C91.9683 38.2065 92.5353 38.497 92.9623 39.078C93.3893 39.652 93.6028 40.506 93.6028 41.64C93.6028 42.774 93.3893 43.6385 92.9623 44.2335C92.5353 44.8285 91.9683 45.126 91.2613 45.126ZM91.2613 44.013C91.4433 44.013 91.6078 43.943 91.7548 43.803C91.9088 43.663 92.0278 43.4215 92.1118 43.0785C92.1958 42.7285 92.2378 42.249 92.2378 41.64C92.2378 41.024 92.1958 40.548 92.1118 40.212C92.0278 39.876 91.9088 39.645 91.7548 39.519C91.6078 39.386 91.4433 39.3195 91.2613 39.3195C91.0723 39.3195 90.9008 39.386 90.7468 39.519C90.5998 39.645 90.4843 39.876 90.4003 40.212C90.3163 40.548 90.2743 41.024 90.2743 41.64C90.2743 42.249 90.3163 42.7285 90.4003 43.0785C90.4843 43.4215 90.5998 43.663 90.7468 43.803C90.9008 43.943 91.0723 44.013 91.2613 44.013ZM95.5393 45.126C95.2943 45.126 95.0843 45.0385 94.9093 44.8635C94.7413 44.6815 94.6573 44.461 94.6573 44.202C94.6573 43.936 94.7413 43.7155 94.9093 43.5405C95.0843 43.3655 95.2943 43.278 95.5393 43.278C95.7983 43.278 96.0083 43.3655 96.1693 43.5405C96.3373 43.7155 96.4213 43.936 96.4213 44.202C96.4213 44.461 96.3373 44.6815 96.1693 44.8635C96.0083 45.0385 95.7983 45.126 95.5393 45.126ZM99.8233 45.126C99.1093 45.126 98.5388 44.8285 98.1118 44.2335C97.6848 43.6385 97.4713 42.774 97.4713 41.64C97.4713 40.499 97.6848 39.6415 98.1118 39.0675C98.5388 38.4935 99.1093 38.2065 99.8233 38.2065C100.53 38.2065 101.097 38.497 101.524 39.078C101.951 39.652 102.165 40.506 102.165 41.64C102.165 42.774 101.951 43.6385 101.524 44.2335C101.097 44.8285 100.53 45.126 99.8233 45.126ZM99.8233 44.013C100.005 44.013 100.17 43.943 100.317 43.803C100.471 43.663 100.59 43.4215 100.674 43.0785C100.758 42.7285 100.8 42.249 100.8 41.64C100.8 41.024 100.758 40.548 100.674 40.212C100.59 39.876 100.471 39.645 100.317 39.519C100.17 39.386 100.005 39.3195 99.8233 39.3195C99.6343 39.3195 99.4628 39.386 99.3088 39.519C99.1618 39.645 99.0463 39.876 98.9623 40.212C98.8783 40.548 98.8363 41.024 98.8363 41.64C98.8363 42.249 98.8783 42.7285 98.9623 43.0785C99.0463 43.4215 99.1618 43.663 99.3088 43.803C99.4628 43.943 99.6343 44.013 99.8233 44.013ZM105.319 45.126C104.605 45.126 104.035 44.8285 103.608 44.2335C103.181 43.6385 102.967 42.774 102.967 41.64C102.967 40.499 103.181 39.6415 103.608 39.0675C104.035 38.4935 104.605 38.2065 105.319 38.2065C106.026 38.2065 106.593 38.497 107.02 39.078C107.447 39.652 107.661 40.506 107.661 41.64C107.661 42.774 107.447 43.6385 107.02 44.2335C106.593 44.8285 106.026 45.126 105.319 45.126ZM105.319 44.013C105.501 44.013 105.666 43.943 105.813 43.803C105.967 43.663 106.086 43.4215 106.17 43.0785C106.254 42.7285 106.296 42.249 106.296 41.64C106.296 41.024 106.254 40.548 106.17 40.212C106.086 39.876 105.967 39.645 105.813 39.519C105.666 39.386 105.501 39.3195 105.319 39.3195C105.13 39.3195 104.959 39.386 104.805 39.519C104.658 39.645 104.542 39.876 104.458 40.212C104.374 40.548 104.332 41.024 104.332 41.64C104.332 42.249 104.374 42.7285 104.458 43.0785C104.542 43.4215 104.658 43.663 104.805 43.803C104.959 43.943 105.13 44.013 105.319 44.013ZM110.815 45.126C110.101 45.126 109.531 44.8285 109.104 44.2335C108.677 43.6385 108.463 42.774 108.463 41.64C108.463 40.499 108.677 39.6415 109.104 39.0675C109.531 38.4935 110.101 38.2065 110.815 38.2065C111.522 38.2065 112.089 38.497 112.516 39.078C112.943 39.652 113.157 40.506 113.157 41.64C113.157 42.774 112.943 43.6385 112.516 44.2335C112.089 44.8285 111.522 45.126 110.815 45.126ZM110.815 44.013C110.997 44.013 111.162 43.943 111.309 43.803C111.463 43.663 111.582 43.4215 111.666 43.0785C111.75 42.7285 111.792 42.249 111.792 41.64C111.792 41.024 111.75 40.548 111.666 40.212C111.582 39.876 111.463 39.645 111.309 39.519C111.162 39.386 110.997 39.3195 110.815 39.3195C110.626 39.3195 110.455 39.386 110.301 39.519C110.154 39.645 110.038 39.876 109.954 40.212C109.87 40.548 109.828 41.024 109.828 41.64C109.828 42.249 109.87 42.7285 109.954 43.0785C110.038 43.4215 110.154 43.663 110.301 43.803C110.455 43.943 110.626 44.013 110.815 44.013Z" fill="#BBECF9"/>
<path d="M86.4725 28V27.1285H87.9845V22.5085H86.756V21.8365C87.078 21.7735 87.358 21.7 87.596 21.616C87.834 21.532 88.051 21.4305 88.247 21.3115H89.045V27.1285H90.389V28H86.4725ZM91.2699 28V27.3805C91.9139 26.7505 92.4634 26.1905 92.9184 25.7005C93.3804 25.2105 93.7339 24.7695 93.9789 24.3775C94.2239 23.9785 94.3464 23.604 94.3464 23.254C94.3464 22.883 94.2484 22.589 94.0524 22.372C93.8564 22.148 93.5624 22.036 93.1704 22.036C92.9044 22.036 92.6559 22.1095 92.4249 22.2565C92.2009 22.4035 91.9979 22.5855 91.8159 22.8025L91.2174 22.2145C91.5114 21.8925 91.8194 21.6405 92.1414 21.4585C92.4704 21.2765 92.8589 21.1855 93.3069 21.1855C93.7269 21.1855 94.0909 21.2695 94.3989 21.4375C94.7069 21.5985 94.9449 21.833 95.1129 22.141C95.2879 22.442 95.3754 22.7955 95.3754 23.2015C95.3754 23.6075 95.2599 24.0205 95.0289 24.4405C94.8049 24.8535 94.4969 25.284 94.1049 25.732C93.7199 26.18 93.2894 26.656 92.8134 27.16C92.9884 27.146 93.1774 27.132 93.3804 27.118C93.5834 27.104 93.7689 27.097 93.9369 27.097H95.7009V28H91.2699ZM97.9779 28C98.0199 27.188 98.1039 26.46 98.2299 25.816C98.3629 25.172 98.5589 24.563 98.8179 23.989C99.0839 23.408 99.4339 22.8165 99.8679 22.2145H96.6339V21.3115H101.044V21.9625C100.645 22.4525 100.323 22.925 100.078 23.38C99.8329 23.828 99.6404 24.283 99.5004 24.745C99.3674 25.207 99.2659 25.7005 99.1959 26.2255C99.1329 26.7505 99.0874 27.342 99.0594 28H97.9779ZM102.869 28.126C102.673 28.126 102.505 28.056 102.365 27.916C102.225 27.776 102.155 27.5975 102.155 27.3805C102.155 27.1565 102.225 26.9745 102.365 26.8345C102.505 26.6945 102.673 26.6245 102.869 26.6245C103.072 26.6245 103.24 26.6945 103.373 26.8345C103.513 26.9745 103.583 27.1565 103.583 27.3805C103.583 27.5975 103.513 27.776 103.373 27.916C103.24 28.056 103.072 28.126 102.869 28.126ZM107.412 28V23.695C107.412 23.506 107.419 23.282 107.433 23.023C107.447 22.757 107.458 22.533 107.465 22.351H107.423C107.339 22.512 107.251 22.6765 107.16 22.8445C107.069 23.0055 106.975 23.1735 106.877 23.3485L105.512 25.396H109.281V26.2255H104.441V25.5115L107.181 21.3115H108.41V28H107.412ZM111.789 28.126C111.404 28.126 111.072 28.056 110.792 27.916C110.512 27.769 110.274 27.594 110.078 27.391L110.655 26.74C110.781 26.894 110.942 27.02 111.138 27.118C111.334 27.209 111.534 27.2545 111.737 27.2545C112.038 27.2545 112.314 27.167 112.566 26.992C112.818 26.81 113.018 26.516 113.165 26.11C113.319 25.697 113.396 25.137 113.396 24.43C113.396 23.877 113.34 23.422 113.228 23.065C113.116 22.708 112.955 22.442 112.745 22.267C112.542 22.092 112.3 22.0045 112.02 22.0045C111.817 22.0045 111.635 22.0605 111.474 22.1725C111.313 22.2775 111.184 22.4315 111.086 22.6345C110.995 22.8305 110.949 23.072 110.949 23.359C110.949 23.632 110.991 23.8665 111.075 24.0625C111.166 24.2515 111.296 24.3985 111.464 24.5035C111.632 24.6015 111.838 24.6505 112.083 24.6505C112.286 24.6505 112.507 24.584 112.745 24.451C112.983 24.318 113.203 24.0905 113.406 23.7685L113.448 24.5455C113.252 24.8115 113.011 25.025 112.724 25.186C112.437 25.347 112.16 25.4275 111.894 25.4275C111.509 25.4275 111.17 25.3505 110.876 25.1965C110.589 25.0425 110.365 24.815 110.204 24.514C110.043 24.206 109.962 23.821 109.962 23.359C109.962 22.918 110.053 22.5365 110.235 22.2145C110.424 21.8855 110.673 21.6335 110.981 21.4585C111.296 21.2765 111.639 21.1855 112.01 21.1855C112.339 21.1855 112.647 21.252 112.934 21.385C113.221 21.511 113.469 21.7105 113.679 21.9835C113.896 22.2495 114.068 22.5855 114.194 22.9915C114.32 23.3975 114.383 23.877 114.383 24.43C114.383 25.088 114.309 25.6515 114.162 26.1205C114.022 26.5895 113.83 26.971 113.585 27.265C113.347 27.559 113.07 27.776 112.755 27.916C112.447 28.056 112.125 28.126 111.789 28.126ZM116.681 28C116.723 27.188 116.807 26.46 116.933 25.816C117.066 25.172 117.262 24.563 117.521 23.989C117.787 23.408 118.137 22.8165 118.571 22.2145H115.337V21.3115H119.747V21.9625C119.348 22.4525 119.026 22.925 118.781 23.38C118.536 23.828 118.344 24.283 118.204 24.745C118.071 25.207 117.969 25.7005 117.899 26.2255C117.836 26.7505 117.791 27.342 117.763 28H116.681Z" fill="white"/>
<path d="M91.4725 11V10.1285H92.9845V5.5085H91.756V4.8365C92.078 4.7735 92.358 4.7 92.596 4.616C92.834 4.532 93.051 4.4305 93.247 4.3115H94.045V10.1285H95.389V11H91.4725ZM98.3594 11.126C98.0024 11.126 97.6839 11.084 97.4039 11C97.1239 10.909 96.8789 10.7935 96.6689 10.6535C96.4589 10.5065 96.2769 10.349 96.1229 10.181L96.6374 9.4985C96.8404 9.7015 97.0714 9.88 97.3304 10.034C97.5964 10.181 97.9114 10.2545 98.2754 10.2545C98.6604 10.2545 98.9719 10.1565 99.2099 9.9605C99.4549 9.7645 99.5774 9.495 99.5774 9.152C99.5774 8.907 99.5144 8.6935 99.3884 8.5115C99.2694 8.3295 99.0594 8.1895 98.7584 8.0915C98.4644 7.9865 98.0584 7.934 97.5404 7.934V7.1465C97.9954 7.1465 98.3524 7.0975 98.6114 6.9995C98.8774 6.8945 99.0664 6.758 99.1784 6.59C99.2904 6.415 99.3464 6.219 99.3464 6.002C99.3464 5.701 99.2519 5.4665 99.0629 5.2985C98.8739 5.1235 98.6149 5.036 98.2859 5.036C98.0199 5.036 97.7714 5.0955 97.5404 5.2145C97.3164 5.3335 97.1064 5.491 96.9104 5.687L96.3539 5.0255C96.6339 4.7735 96.9314 4.5705 97.2464 4.4165C97.5684 4.2625 97.9289 4.1855 98.3279 4.1855C98.7339 4.1855 99.0944 4.2555 99.4094 4.3955C99.7244 4.5285 99.9694 4.7245 100.144 4.9835C100.326 5.2355 100.417 5.547 100.417 5.918C100.417 6.303 100.309 6.625 100.092 6.884C99.8819 7.143 99.5949 7.3425 99.2309 7.4825V7.5245C99.4969 7.5875 99.7349 7.696 99.9449 7.85C100.162 7.997 100.333 8.186 100.459 8.417C100.585 8.641 100.648 8.9035 100.648 9.2045C100.648 9.6105 100.543 9.957 100.333 10.244C100.13 10.524 99.8539 10.741 99.5039 10.895C99.1609 11.049 98.7794 11.126 98.3594 11.126ZM101.581 11V10.3805C102.225 9.7505 102.775 9.1905 103.23 8.7005C103.692 8.2105 104.045 7.7695 104.29 7.3775C104.535 6.9785 104.658 6.604 104.658 6.254C104.658 5.883 104.56 5.589 104.364 5.372C104.168 5.148 103.874 5.036 103.482 5.036C103.216 5.036 102.967 5.1095 102.736 5.2565C102.512 5.4035 102.309 5.5855 102.127 5.8025L101.529 5.2145C101.823 4.8925 102.131 4.6405 102.453 4.4585C102.782 4.2765 103.17 4.1855 103.618 4.1855C104.038 4.1855 104.402 4.2695 104.71 4.4375C105.018 4.5985 105.256 4.833 105.424 5.141C105.599 5.442 105.687 5.7955 105.687 6.2015C105.687 6.6075 105.571 7.0205 105.34 7.4405C105.116 7.8535 104.808 8.284 104.416 8.732C104.031 9.18 103.601 9.656 103.125 10.16C103.3 10.146 103.489 10.132 103.692 10.118C103.895 10.104 104.08 10.097 104.248 10.097H106.012V11H101.581ZM107.869 11.126C107.673 11.126 107.505 11.056 107.365 10.916C107.225 10.776 107.155 10.5975 107.155 10.3805C107.155 10.1565 107.225 9.9745 107.365 9.8345C107.505 9.6945 107.673 9.6245 107.869 9.6245C108.072 9.6245 108.24 9.6945 108.373 9.8345C108.513 9.9745 108.583 10.1565 108.583 10.3805C108.583 10.5975 108.513 10.776 108.373 10.916C108.24 11.056 108.072 11.126 107.869 11.126ZM112.108 11.126C111.779 11.126 111.471 11.0595 111.184 10.9265C110.897 10.7935 110.645 10.594 110.428 10.328C110.218 10.062 110.05 9.726 109.924 9.32C109.798 8.914 109.735 8.4345 109.735 7.8815C109.735 7.2235 109.805 6.66 109.945 6.191C110.092 5.722 110.284 5.3405 110.522 5.0465C110.767 4.7525 111.044 4.5355 111.352 4.3955C111.66 4.2555 111.985 4.1855 112.328 4.1855C112.713 4.1855 113.046 4.2555 113.326 4.3955C113.606 4.5355 113.844 4.7105 114.04 4.9205L113.462 5.5715C113.329 5.4175 113.165 5.295 112.969 5.204C112.78 5.106 112.584 5.057 112.381 5.057C112.08 5.057 111.803 5.148 111.551 5.33C111.299 5.505 111.096 5.799 110.942 6.212C110.795 6.618 110.722 7.1745 110.722 7.8815C110.722 8.4345 110.778 8.8895 110.89 9.2465C111.002 9.6035 111.159 9.8695 111.362 10.0445C111.572 10.2195 111.817 10.307 112.097 10.307C112.293 10.307 112.472 10.2545 112.633 10.1495C112.801 10.0375 112.93 9.88 113.021 9.677C113.119 9.474 113.168 9.2325 113.168 8.9525C113.168 8.6795 113.123 8.4485 113.032 8.2595C112.948 8.0635 112.822 7.9165 112.654 7.8185C112.486 7.7135 112.279 7.661 112.034 7.661C111.831 7.661 111.611 7.7275 111.373 7.8605C111.135 7.9935 110.914 8.221 110.711 8.543L110.669 7.766C110.872 7.493 111.114 7.2795 111.394 7.1255C111.681 6.9645 111.957 6.884 112.223 6.884C112.608 6.884 112.944 6.961 113.231 7.115C113.525 7.269 113.753 7.5 113.914 7.808C114.075 8.109 114.155 8.4905 114.155 8.9525C114.155 9.3935 114.061 9.775 113.872 10.097C113.683 10.419 113.434 10.671 113.126 10.853C112.818 11.035 112.479 11.126 112.108 11.126ZM117.724 11V6.695C117.724 6.506 117.731 6.282 117.745 6.023C117.759 5.757 117.769 5.533 117.776 5.351H117.734C117.65 5.512 117.563 5.6765 117.472 5.8445C117.381 6.0055 117.286 6.1735 117.188 6.3485L115.823 8.396H119.593V9.2255H114.752V8.5115L117.493 4.3115H118.721V11H117.724ZM122.374 11.126C122.01 11.126 121.688 11.084 121.408 11C121.135 10.909 120.894 10.7935 120.684 10.6535C120.474 10.5135 120.288 10.363 120.127 10.202L120.631 9.5195C120.834 9.7155 121.062 9.887 121.314 10.034C121.573 10.181 121.884 10.2545 122.248 10.2545C122.507 10.2545 122.738 10.1985 122.941 10.0865C123.151 9.9745 123.316 9.817 123.435 9.614C123.554 9.404 123.613 9.1555 123.613 8.8685C123.613 8.4415 123.494 8.1125 123.256 7.8815C123.018 7.6435 122.7 7.5245 122.301 7.5245C122.084 7.5245 121.895 7.556 121.734 7.619C121.58 7.682 121.401 7.78 121.198 7.913L120.673 7.577L120.883 4.3115H124.359V5.2145H121.807L121.65 6.989C121.797 6.912 121.944 6.8525 122.091 6.8105C122.238 6.7685 122.406 6.7475 122.595 6.7475C122.973 6.7475 123.319 6.8245 123.634 6.9785C123.956 7.1255 124.212 7.353 124.401 7.661C124.59 7.969 124.684 8.361 124.684 8.837C124.684 9.327 124.576 9.7435 124.359 10.0865C124.142 10.4225 123.855 10.6815 123.498 10.8635C123.148 11.0385 122.773 11.126 122.374 11.126Z" fill="white"/>
<path d="M0.736 11V5.744H1.464L2.496 8.624C2.56533 8.80533 2.62933 8.98933 2.688 9.176C2.752 9.36267 2.816 9.54933 2.88 9.736H2.912C2.98133 9.54933 3.04533 9.36267 3.104 9.176C3.16267 8.98933 3.224 8.80533 3.288 8.624L4.304 5.744H5.04V11H4.488V7.96C4.488 7.81067 4.49067 7.648 4.496 7.472C4.50667 7.296 4.51733 7.12 4.528 6.944C4.53867 6.76267 4.54933 6.59467 4.56 6.44H4.528L4.112 7.632L3.088 10.456H2.672L1.64 7.632L1.224 6.44H1.192C1.20267 6.59467 1.21333 6.76267 1.224 6.944C1.24 7.12 1.25067 7.296 1.256 7.472C1.26667 7.648 1.272 7.81067 1.272 7.96V11H0.736ZM7.32563 11.096C7.11229 11.096 6.92029 11.0533 6.74963 10.968C6.57896 10.8827 6.44296 10.76 6.34163 10.6C6.24029 10.4347 6.18963 10.2347 6.18963 10C6.18963 9.57867 6.38163 9.256 6.76562 9.032C7.15496 8.80267 7.76829 8.64267 8.60563 8.552C8.60563 8.376 8.58163 8.208 8.53363 8.048C8.49096 7.888 8.40829 7.76 8.28563 7.664C8.16829 7.56267 7.99763 7.512 7.77363 7.512C7.53896 7.512 7.32029 7.55733 7.11763 7.648C6.92029 7.73867 6.74696 7.83467 6.59763 7.936L6.36563 7.536C6.47763 7.46133 6.61096 7.384 6.76562 7.304C6.92029 7.224 7.09096 7.15733 7.27763 7.104C7.46429 7.05067 7.66163 7.024 7.86963 7.024C8.18429 7.024 8.43763 7.09067 8.62963 7.224C8.82163 7.35733 8.96029 7.54133 9.04563 7.776C9.13629 8.01067 9.18163 8.28533 9.18163 8.6V11H8.70163L8.65363 10.528H8.62963C8.44296 10.6827 8.24029 10.816 8.02163 10.928C7.80296 11.04 7.57096 11.096 7.32563 11.096ZM7.47763 10.624C7.68029 10.624 7.86696 10.5787 8.03763 10.488C8.21363 10.392 8.40296 10.256 8.60563 10.08V8.944C8.14696 8.99733 7.78429 9.072 7.51763 9.168C7.25096 9.25867 7.05896 9.37067 6.94162 9.504C6.82429 9.63733 6.76562 9.792 6.76562 9.968C6.76562 10.1973 6.83496 10.3653 6.97363 10.472C7.11763 10.5733 7.28563 10.624 7.47763 10.624ZM10.4534 11V7.12H10.9334L10.9814 7.832H11.0054C11.1388 7.58667 11.2988 7.392 11.4854 7.248C11.6774 7.09867 11.8854 7.024 12.1094 7.024C12.1894 7.024 12.2614 7.032 12.3254 7.048C12.3894 7.05867 12.4508 7.07733 12.5094 7.104L12.3974 7.616C12.3334 7.59467 12.2748 7.57867 12.2214 7.568C12.1734 7.55733 12.1094 7.552 12.0294 7.552C11.8641 7.552 11.6908 7.62133 11.5094 7.76C11.3281 7.89333 11.1681 8.13067 11.0294 8.472V11H10.4534ZM13.1722 11V7.12H13.6522L13.7002 7.832H13.7242C13.8575 7.58667 14.0175 7.392 14.2042 7.248C14.3962 7.09867 14.6042 7.024 14.8282 7.024C14.9082 7.024 14.9802 7.032 15.0442 7.048C15.1082 7.05867 15.1695 7.07733 15.2282 7.104L15.1162 7.616C15.0522 7.59467 14.9935 7.57867 14.9402 7.568C14.8922 7.55733 14.8282 7.552 14.7482 7.552C14.5829 7.552 14.4095 7.62133 14.2282 7.76C14.0469 7.89333 13.8869 8.13067 13.7482 8.472V11H13.1722ZM17.0109 11.096C16.6109 11.096 16.3149 10.968 16.1229 10.712C15.9309 10.456 15.8349 10.08 15.8349 9.584V7.12H16.4109V9.512C16.4109 9.88533 16.4723 10.16 16.5949 10.336C16.7176 10.5067 16.9149 10.592 17.1869 10.592C17.3896 10.592 17.5736 10.5387 17.7389 10.432C17.9043 10.32 18.0829 10.144 18.2749 9.904V7.12H18.8589V11H18.3709L18.3229 10.384H18.2989C18.1176 10.5973 17.9256 10.7707 17.7229 10.904C17.5203 11.032 17.2829 11.096 17.0109 11.096ZM21.7473 11.096C21.4113 11.096 21.1019 11.016 20.8193 10.856C20.5419 10.6907 20.3206 10.4587 20.1553 10.16C19.9899 9.856 19.9073 9.49067 19.9073 9.064C19.9073 8.64267 19.9899 8.28 20.1553 7.976C20.3206 7.672 20.5339 7.43733 20.7953 7.272C21.0619 7.10667 21.3446 7.024 21.6432 7.024C21.9633 7.024 22.2379 7.09867 22.4673 7.248C22.6966 7.39733 22.8699 7.608 22.9873 7.88C23.1099 8.14667 23.1713 8.46667 23.1713 8.84C23.1713 8.904 23.1686 8.968 23.1633 9.032C23.1633 9.09067 23.1579 9.144 23.1473 9.192H20.3633L20.3553 8.768H22.6513C22.6513 8.352 22.5633 8.03733 22.3873 7.824C22.2113 7.60533 21.9659 7.496 21.6513 7.496C21.4593 7.496 21.2726 7.552 21.0913 7.664C20.9099 7.776 20.7606 7.94667 20.6433 8.176C20.5259 8.40533 20.4673 8.70133 20.4673 9.064C20.4673 9.41067 20.5286 9.69867 20.6513 9.928C20.7739 10.1573 20.9366 10.3307 21.1393 10.448C21.3473 10.5653 21.5739 10.624 21.8193 10.624C22.0166 10.624 22.1926 10.5947 22.3473 10.536C22.5073 10.4773 22.6593 10.4027 22.8033 10.312L23.0193 10.696C22.8539 10.8027 22.6673 10.896 22.4593 10.976C22.2566 11.056 22.0193 11.096 21.7473 11.096ZM25.6528 11.096C25.3114 11.096 25.0048 11.016 24.7328 10.856C24.4608 10.696 24.2448 10.4667 24.0848 10.168C23.9248 9.864 23.8448 9.496 23.8448 9.064C23.8448 8.632 23.9301 8.264 24.1008 7.96C24.2768 7.656 24.5034 7.424 24.7808 7.264C25.0581 7.104 25.3621 7.024 25.6928 7.024C25.9488 7.024 26.1674 7.072 26.3488 7.168C26.5301 7.25867 26.6874 7.36533 26.8208 7.488L26.5168 7.872C26.4048 7.76533 26.2821 7.68 26.1488 7.616C26.0208 7.54667 25.8768 7.512 25.7168 7.512C25.4714 7.512 25.2528 7.57867 25.0608 7.712C24.8741 7.84 24.7248 8.02133 24.6128 8.256C24.5061 8.49067 24.4528 8.76 24.4528 9.064C24.4528 9.37333 24.5034 9.64533 24.6048 9.88C24.7114 10.1093 24.8581 10.288 25.0448 10.416C25.2314 10.544 25.4501 10.608 25.7008 10.608C25.8874 10.608 26.0608 10.568 26.2208 10.488C26.3808 10.408 26.5221 10.3147 26.6448 10.208L26.9008 10.6C26.7301 10.7547 26.5381 10.8773 26.3248 10.968C26.1114 11.0533 25.8874 11.096 25.6528 11.096ZM29.2616 11.096C28.9469 11.096 28.6536 11.016 28.3816 10.856C28.1096 10.696 27.8909 10.4667 27.7256 10.168C27.5602 9.864 27.4776 9.496 27.4776 9.064C27.4776 8.632 27.5602 8.264 27.7256 7.96C27.8909 7.656 28.1096 7.424 28.3816 7.264C28.6536 7.104 28.9469 7.024 29.2616 7.024C29.5762 7.024 29.8669 7.104 30.1336 7.264C30.4056 7.424 30.6242 7.656 30.7896 7.96C30.9602 8.264 31.0456 8.632 31.0456 9.064C31.0456 9.496 30.9602 9.864 30.7896 10.168C30.6242 10.4667 30.4056 10.696 30.1336 10.856C29.8669 11.016 29.5762 11.096 29.2616 11.096ZM29.2616 10.608C29.4962 10.608 29.7016 10.544 29.8776 10.416C30.0589 10.288 30.1976 10.1093 30.2936 9.88C30.3949 9.64533 30.4456 9.37333 30.4456 9.064C30.4456 8.76 30.3949 8.49067 30.2936 8.256C30.1976 8.02133 30.0589 7.84 29.8776 7.712C29.7016 7.57867 29.4962 7.512 29.2616 7.512C29.0322 7.512 28.8269 7.57867 28.6456 7.712C28.4696 7.84 28.3309 8.02133 28.2296 8.256C28.1336 8.49067 28.0856 8.76 28.0856 9.064C28.0856 9.37333 28.1336 9.64533 28.2296 9.88C28.3309 10.1093 28.4696 10.288 28.6456 10.416C28.8269 10.544 29.0322 10.608 29.2616 10.608ZM33.0939 11.096C32.8165 11.096 32.5525 11.0453 32.3019 10.944C32.0512 10.8373 31.8352 10.7093 31.6539 10.56L31.9499 10.168C32.1205 10.3013 32.2965 10.4133 32.4779 10.504C32.6592 10.5947 32.8725 10.64 33.1179 10.64C33.3845 10.64 33.5845 10.576 33.7179 10.448C33.8512 10.32 33.9179 10.168 33.9179 9.992C33.9179 9.85333 33.8725 9.73867 33.7819 9.648C33.6912 9.552 33.5765 9.472 33.4379 9.408C33.2992 9.33867 33.1579 9.27733 33.0139 9.224C32.8325 9.16 32.6512 9.08267 32.4699 8.992C32.2885 8.90133 32.1365 8.78667 32.0139 8.648C31.8965 8.50933 31.8379 8.33067 31.8379 8.112C31.8379 7.808 31.9525 7.552 32.1819 7.344C32.4165 7.13067 32.7419 7.024 33.1579 7.024C33.3925 7.024 33.6112 7.06667 33.8139 7.152C34.0165 7.23733 34.1899 7.33867 34.3339 7.456L34.0539 7.832C33.9205 7.736 33.7819 7.656 33.6379 7.592C33.4992 7.52267 33.3392 7.488 33.1579 7.488C32.9019 7.488 32.7125 7.54933 32.5899 7.672C32.4672 7.78933 32.4059 7.92533 32.4059 8.08C32.4059 8.208 32.4459 8.31467 32.5259 8.4C32.6112 8.48 32.7205 8.54933 32.8539 8.608C32.9872 8.66667 33.1285 8.72533 33.2779 8.784C33.4699 8.85333 33.6565 8.93333 33.8379 9.024C34.0245 9.10933 34.1792 9.224 34.3019 9.368C34.4245 9.512 34.4859 9.70933 34.4859 9.96C34.4859 10.1627 34.4325 10.352 34.3259 10.528C34.2192 10.6987 34.0619 10.8373 33.8539 10.944C33.6459 11.0453 33.3925 11.096 33.0939 11.096Z" fill="white"/>
<path d="M0.736 28V22.744H3.72V23.248H1.328V24.984H3.344V25.48H1.328V27.496H3.8V28H0.736ZM5.86731 28.096C5.58998 28.096 5.32598 28.0453 5.07531 27.944C4.82465 27.8373 4.60865 27.7093 4.42731 27.56L4.72331 27.168C4.89398 27.3013 5.06998 27.4133 5.25131 27.504C5.43265 27.5947 5.64598 27.64 5.89131 27.64C6.15798 27.64 6.35798 27.576 6.49131 27.448C6.62465 27.32 6.69131 27.168 6.69131 26.992C6.69131 26.8533 6.64598 26.7387 6.55531 26.648C6.46465 26.552 6.34998 26.472 6.21131 26.408C6.07265 26.3387 5.93131 26.2773 5.78731 26.224C5.60598 26.16 5.42465 26.0827 5.24331 25.992C5.06198 25.9013 4.90998 25.7867 4.78731 25.648C4.66998 25.5093 4.61131 25.3307 4.61131 25.112C4.61131 24.808 4.72598 24.552 4.95531 24.344C5.18998 24.1307 5.51531 24.024 5.93131 24.024C6.16598 24.024 6.38465 24.0667 6.58731 24.152C6.78998 24.2373 6.96331 24.3387 7.10731 24.456L6.82731 24.832C6.69398 24.736 6.55531 24.656 6.41131 24.592C6.27265 24.5227 6.11265 24.488 5.93131 24.488C5.67531 24.488 5.48598 24.5493 5.36331 24.672C5.24065 24.7893 5.17931 24.9253 5.17931 25.08C5.17931 25.208 5.21931 25.3147 5.29931 25.4C5.38465 25.48 5.49398 25.5493 5.62731 25.608C5.76065 25.6667 5.90198 25.7253 6.05131 25.784C6.24331 25.8533 6.42998 25.9333 6.61131 26.024C6.79798 26.1093 6.95265 26.224 7.07531 26.368C7.19798 26.512 7.25931 26.7093 7.25931 26.96C7.25931 27.1627 7.20598 27.352 7.09931 27.528C6.99265 27.6987 6.83531 27.8373 6.62731 27.944C6.41931 28.0453 6.16598 28.096 5.86731 28.096ZM8.83544 28.096C8.69144 28.096 8.57144 28.064 8.47544 28C8.37944 27.9413 8.3101 27.8533 8.26744 27.736C8.22477 27.6133 8.20344 27.464 8.20344 27.288V22.288H8.77944V27.336C8.77944 27.432 8.7981 27.5013 8.83544 27.544C8.87277 27.5867 8.91544 27.608 8.96344 27.608C8.97944 27.608 8.9981 27.608 9.01944 27.608C9.04077 27.6027 9.0701 27.5973 9.10744 27.592L9.18744 28.04C9.14477 28.0507 9.0941 28.0613 9.03544 28.072C8.9821 28.088 8.91544 28.096 8.83544 28.096ZM11.6834 28.096C11.3688 28.096 11.0754 28.016 10.8034 27.856C10.5314 27.696 10.3128 27.4667 10.1474 27.168C9.9821 26.864 9.89944 26.496 9.89944 26.064C9.89944 25.632 9.9821 25.264 10.1474 24.96C10.3128 24.656 10.5314 24.424 10.8034 24.264C11.0754 24.104 11.3688 24.024 11.6834 24.024C11.9981 24.024 12.2888 24.104 12.5554 24.264C12.8274 24.424 13.0461 24.656 13.2114 24.96C13.3821 25.264 13.4674 25.632 13.4674 26.064C13.4674 26.496 13.3821 26.864 13.2114 27.168C13.0461 27.4667 12.8274 27.696 12.5554 27.856C12.2888 28.016 11.9981 28.096 11.6834 28.096ZM11.6834 27.608C11.9181 27.608 12.1234 27.544 12.2994 27.416C12.4808 27.288 12.6194 27.1093 12.7154 26.88C12.8168 26.6453 12.8674 26.3733 12.8674 26.064C12.8674 25.76 12.8168 25.4907 12.7154 25.256C12.6194 25.0213 12.4808 24.84 12.2994 24.712C12.1234 24.5787 11.9181 24.512 11.6834 24.512C11.4541 24.512 11.2488 24.5787 11.0674 24.712C10.8914 24.84 10.7528 25.0213 10.6514 25.256C10.5554 25.4907 10.5074 25.76 10.5074 26.064C10.5074 26.3733 10.5554 26.6453 10.6514 26.88C10.7528 27.1093 10.8914 27.288 11.0674 27.416C11.2488 27.544 11.4541 27.608 11.6834 27.608ZM15.3558 28L13.9398 24.12H14.5398L15.3078 26.384C15.3718 26.5707 15.4331 26.76 15.4918 26.952C15.5558 27.144 15.6171 27.3333 15.6758 27.52H15.7078C15.7664 27.3333 15.8278 27.144 15.8918 26.952C15.9558 26.76 16.0171 26.5707 16.0758 26.384L16.8438 24.12H17.4198L16.0278 28H15.3558ZM19.0756 28.096C18.8623 28.096 18.6703 28.0533 18.4996 27.968C18.329 27.8827 18.193 27.76 18.0916 27.6C17.9903 27.4347 17.9396 27.2347 17.9396 27C17.9396 26.5787 18.1316 26.256 18.5156 26.032C18.905 25.8027 19.5183 25.6427 20.3556 25.552C20.3556 25.376 20.3316 25.208 20.2836 25.048C20.241 24.888 20.1583 24.76 20.0356 24.664C19.9183 24.5627 19.7476 24.512 19.5236 24.512C19.289 24.512 19.0703 24.5573 18.8676 24.648C18.6703 24.7387 18.497 24.8347 18.3476 24.936L18.1156 24.536C18.2276 24.4613 18.361 24.384 18.5156 24.304C18.6703 24.224 18.841 24.1573 19.0276 24.104C19.2143 24.0507 19.4116 24.024 19.6196 24.024C19.9343 24.024 20.1876 24.0907 20.3796 24.224C20.5716 24.3573 20.7103 24.5413 20.7956 24.776C20.8863 25.0107 20.9316 25.2853 20.9316 25.6V28H20.4516L20.4036 27.528H20.3796C20.193 27.6827 19.9903 27.816 19.7716 27.928C19.553 28.04 19.321 28.096 19.0756 28.096ZM19.2276 27.624C19.4303 27.624 19.617 27.5787 19.7876 27.488C19.9636 27.392 20.153 27.256 20.3556 27.08V25.944C19.897 25.9973 19.5343 26.072 19.2676 26.168C19.001 26.2587 18.809 26.3707 18.6916 26.504C18.5743 26.6373 18.5156 26.792 18.5156 26.968C18.5156 27.1973 18.585 27.3653 18.7236 27.472C18.8676 27.5733 19.0356 27.624 19.2276 27.624ZM24.6834 29.664V28.256L24.7074 27.536C24.5474 27.6907 24.3661 27.824 24.1634 27.936C23.9608 28.0427 23.7421 28.096 23.5074 28.096C23.0221 28.096 22.6354 27.92 22.3474 27.568C22.0594 27.2107 21.9154 26.7093 21.9154 26.064C21.9154 25.648 21.9928 25.288 22.1474 24.984C22.3074 24.68 22.5154 24.4453 22.7714 24.28C23.0274 24.1093 23.3048 24.024 23.6034 24.024C23.8274 24.024 24.0248 24.064 24.1954 24.144C24.3714 24.224 24.5448 24.3387 24.7154 24.488H24.7394L24.7954 24.12H25.2594V29.664H24.6834ZM23.6354 27.6C23.8221 27.6 24.0008 27.5547 24.1714 27.464C24.3421 27.368 24.5128 27.2293 24.6834 27.048V24.944C24.5074 24.7893 24.3394 24.68 24.1794 24.616C24.0194 24.552 23.8568 24.52 23.6914 24.52C23.4728 24.52 23.2728 24.5867 23.0914 24.72C22.9154 24.848 22.7741 25.0293 22.6674 25.264C22.5661 25.4933 22.5154 25.76 22.5154 26.064C22.5154 26.5387 22.6114 26.9147 22.8034 27.192C23.0008 27.464 23.2781 27.6 23.6354 27.6ZM27.7375 28.096C27.3375 28.096 27.0415 27.968 26.8495 27.712C26.6575 27.456 26.5615 27.08 26.5615 26.584V24.12H27.1375V26.512C27.1375 26.8853 27.1988 27.16 27.3215 27.336C27.4442 27.5067 27.6415 27.592 27.9135 27.592C28.1162 27.592 28.3002 27.5387 28.4655 27.432C28.6308 27.32 28.8095 27.144 29.0015 26.904V24.12H29.5855V28H29.0975L29.0495 27.384H29.0255C28.8442 27.5973 28.6522 27.7707 28.4495 27.904C28.2468 28.032 28.0095 28.096 27.7375 28.096ZM30.9378 28V24.12H31.5138V28H30.9378ZM31.2338 23.288C31.1218 23.288 31.0258 23.2507 30.9458 23.176C30.8711 23.1013 30.8338 23.0027 30.8338 22.88C30.8338 22.7627 30.8711 22.6693 30.9458 22.6C31.0258 22.5253 31.1218 22.488 31.2338 22.488C31.3511 22.488 31.4471 22.5253 31.5218 22.6C31.5965 22.6693 31.6338 22.7627 31.6338 22.88C31.6338 23.0027 31.5965 23.1013 31.5218 23.176C31.4471 23.2507 31.3511 23.288 31.2338 23.288ZM33.7553 28.096C33.542 28.096 33.35 28.0533 33.1793 27.968C33.0086 27.8827 32.8726 27.76 32.7713 27.6C32.67 27.4347 32.6193 27.2347 32.6193 27C32.6193 26.5787 32.8113 26.256 33.1953 26.032C33.5846 25.8027 34.198 25.6427 35.0353 25.552C35.0353 25.376 35.0113 25.208 34.9633 25.048C34.9206 24.888 34.838 24.76 34.7153 24.664C34.598 24.5627 34.4273 24.512 34.2033 24.512C33.9686 24.512 33.75 24.5573 33.5473 24.648C33.35 24.7387 33.1766 24.8347 33.0273 24.936L32.7953 24.536C32.9073 24.4613 33.0406 24.384 33.1953 24.304C33.35 24.224 33.5206 24.1573 33.7073 24.104C33.894 24.0507 34.0913 24.024 34.2993 24.024C34.614 24.024 34.8673 24.0907 35.0593 24.224C35.2513 24.3573 35.39 24.5413 35.4753 24.776C35.566 25.0107 35.6113 25.2853 35.6113 25.6V28H35.1313L35.0833 27.528H35.0593C34.8726 27.6827 34.67 27.816 34.4513 27.928C34.2326 28.04 34.0006 28.096 33.7553 28.096ZM33.9073 27.624C34.11 27.624 34.2966 27.5787 34.4673 27.488C34.6433 27.392 34.8326 27.256 35.0353 27.08V25.944C34.5766 25.9973 34.214 26.072 33.9473 26.168C33.6806 26.2587 33.4886 26.3707 33.3713 26.504C33.254 26.6373 33.1953 26.792 33.1953 26.968C33.1953 27.1973 33.2646 27.3653 33.4033 27.472C33.5473 27.5733 33.7153 27.624 33.9073 27.624Z" fill="white"/>
<path d="M0.736 62V56.744H1.328V59.456H1.344L3.624 56.744H4.296L2.64 58.736L4.544 62H3.88L2.272 59.192L1.328 60.304V62H0.736ZM6.80194 62.096C6.46594 62.096 6.1566 62.016 5.87394 61.856C5.5966 61.6907 5.37527 61.4587 5.20994 61.16C5.0446 60.856 4.96194 60.4907 4.96194 60.064C4.96194 59.6427 5.0446 59.28 5.20994 58.976C5.37527 58.672 5.5886 58.4373 5.84994 58.272C6.1166 58.1067 6.39927 58.024 6.69794 58.024C7.01794 58.024 7.2926 58.0987 7.52194 58.248C7.75127 58.3973 7.9246 58.608 8.04194 58.88C8.1646 59.1467 8.22594 59.4667 8.22594 59.84C8.22594 59.904 8.22327 59.968 8.21794 60.032C8.21794 60.0907 8.2126 60.144 8.20194 60.192H5.41794L5.40994 59.768H7.70594C7.70594 59.352 7.61794 59.0373 7.44194 58.824C7.26594 58.6053 7.0206 58.496 6.70594 58.496C6.51394 58.496 6.32727 58.552 6.14594 58.664C5.9646 58.776 5.81527 58.9467 5.69794 59.176C5.5806 59.4053 5.52194 59.7013 5.52194 60.064C5.52194 60.4107 5.58327 60.6987 5.70594 60.928C5.8286 61.1573 5.99127 61.3307 6.19394 61.448C6.40194 61.5653 6.6286 61.624 6.87394 61.624C7.07127 61.624 7.24727 61.5947 7.40194 61.536C7.56194 61.4773 7.71394 61.4027 7.85794 61.312L8.07394 61.696C7.9086 61.8027 7.72194 61.896 7.51394 61.976C7.31127 62.056 7.07394 62.096 6.80194 62.096ZM9.20344 62V58.12H9.68344L9.73144 58.696H9.75544C9.9421 58.504 10.1394 58.344 10.3474 58.216C10.5608 58.088 10.7981 58.024 11.0594 58.024C11.4701 58.024 11.7688 58.152 11.9554 58.408C12.1474 58.664 12.2434 59.04 12.2434 59.536V62H11.6594V59.608C11.6594 59.2347 11.5981 58.9627 11.4754 58.792C11.3581 58.6213 11.1634 58.536 10.8914 58.536C10.6888 58.536 10.5048 58.5893 10.3394 58.696C10.1741 58.7973 9.98744 58.952 9.77944 59.16V62H9.20344ZM13.5472 62V58.12H14.1232V62H13.5472ZM13.8432 57.288C13.7312 57.288 13.6352 57.2507 13.5552 57.176C13.4805 57.1013 13.4432 57.0027 13.4432 56.88C13.4432 56.7627 13.4805 56.6693 13.5552 56.6C13.6352 56.5253 13.7312 56.488 13.8432 56.488C13.9605 56.488 14.0565 56.5253 14.1312 56.6C14.2059 56.6693 14.2432 56.7627 14.2432 56.88C14.2432 57.0027 14.2059 57.1013 14.1312 57.176C14.0565 57.2507 13.9605 57.288 13.8432 57.288ZM16.3647 62.096C16.1514 62.096 15.9594 62.0533 15.7887 61.968C15.618 61.8827 15.482 61.76 15.3807 61.6C15.2794 61.4347 15.2287 61.2347 15.2287 61C15.2287 60.5787 15.4207 60.256 15.8047 60.032C16.194 59.8027 16.8074 59.6427 17.6447 59.552C17.6447 59.376 17.6207 59.208 17.5727 59.048C17.53 58.888 17.4474 58.76 17.3247 58.664C17.2074 58.5627 17.0367 58.512 16.8127 58.512C16.578 58.512 16.3594 58.5573 16.1567 58.648C15.9594 58.7387 15.786 58.8347 15.6367 58.936L15.4047 58.536C15.5167 58.4613 15.65 58.384 15.8047 58.304C15.9594 58.224 16.13 58.1573 16.3167 58.104C16.5034 58.0507 16.7007 58.024 16.9087 58.024C17.2234 58.024 17.4767 58.0907 17.6687 58.224C17.8607 58.3573 17.9994 58.5413 18.0847 58.776C18.1754 59.0107 18.2207 59.2853 18.2207 59.6V62H17.7407L17.6927 61.528H17.6687C17.482 61.6827 17.2794 61.816 17.0607 61.928C16.842 62.04 16.61 62.096 16.3647 62.096ZM16.5167 61.624C16.7194 61.624 16.906 61.5787 17.0767 61.488C17.2527 61.392 17.442 61.256 17.6447 61.08V59.944C17.186 59.9973 16.8234 60.072 16.5567 60.168C16.29 60.2587 16.098 60.3707 15.9807 60.504C15.8634 60.6373 15.8047 60.792 15.8047 60.968C15.8047 61.1973 15.874 61.3653 16.0127 61.472C16.1567 61.5733 16.3247 61.624 16.5167 61.624Z" fill="white"/>
<path d="M0.736 79V73.744H3.72V74.248H1.328V75.984H3.344V76.48H1.328V78.496H3.8V79H0.736ZM6.37931 79.096C6.03798 79.096 5.73131 79.016 5.45931 78.856C5.18731 78.696 4.97131 78.4667 4.81131 78.168C4.65131 77.864 4.57131 77.496 4.57131 77.064C4.57131 76.632 4.65665 76.264 4.82731 75.96C5.00331 75.656 5.22998 75.424 5.50731 75.264C5.78465 75.104 6.08865 75.024 6.41931 75.024C6.67531 75.024 6.89398 75.072 7.07531 75.168C7.25665 75.2587 7.41398 75.3653 7.54731 75.488L7.24331 75.872C7.13131 75.7653 7.00865 75.68 6.87531 75.616C6.74731 75.5467 6.60331 75.512 6.44331 75.512C6.19798 75.512 5.97931 75.5787 5.78731 75.712C5.60065 75.84 5.45131 76.0213 5.33931 76.256C5.23265 76.4907 5.17931 76.76 5.17931 77.064C5.17931 77.3733 5.22998 77.6453 5.33131 77.88C5.43798 78.1093 5.58465 78.288 5.77131 78.416C5.95798 78.544 6.17665 78.608 6.42731 78.608C6.61398 78.608 6.78731 78.568 6.94731 78.488C7.10731 78.408 7.24865 78.3147 7.37131 78.208L7.62731 78.6C7.45665 78.7547 7.26465 78.8773 7.05131 78.968C6.83798 79.0533 6.61398 79.096 6.37931 79.096ZM9.62813 79.096C9.22813 79.096 8.93213 78.968 8.74013 78.712C8.54813 78.456 8.45213 78.08 8.45213 77.584V75.12H9.02813V77.512C9.02813 77.8853 9.08946 78.16 9.21213 78.336C9.33479 78.5067 9.53213 78.592 9.80413 78.592C10.0068 78.592 10.1908 78.5387 10.3561 78.432C10.5215 78.32 10.7001 78.144 10.8921 77.904V75.12H11.4761V79H10.9881L10.9401 78.384H10.9161C10.7348 78.5973 10.5428 78.7707 10.3401 78.904C10.1375 79.032 9.90013 79.096 9.62813 79.096ZM13.7084 79.096C13.4951 79.096 13.3031 79.0533 13.1324 78.968C12.9618 78.8827 12.8258 78.76 12.7244 78.6C12.6231 78.4347 12.5724 78.2347 12.5724 78C12.5724 77.5787 12.7644 77.256 13.1484 77.032C13.5378 76.8027 14.1511 76.6427 14.9884 76.552C14.9884 76.376 14.9644 76.208 14.9164 76.048C14.8738 75.888 14.7911 75.76 14.6684 75.664C14.5511 75.5627 14.3804 75.512 14.1564 75.512C13.9218 75.512 13.7031 75.5573 13.5004 75.648C13.3031 75.7387 13.1298 75.8347 12.9804 75.936L12.7484 75.536C12.8604 75.4613 12.9938 75.384 13.1484 75.304C13.3031 75.224 13.4738 75.1573 13.6604 75.104C13.8471 75.0507 14.0444 75.024 14.2524 75.024C14.5671 75.024 14.8204 75.0907 15.0124 75.224C15.2044 75.3573 15.3431 75.5413 15.4284 75.776C15.5191 76.0107 15.5644 76.2853 15.5644 76.6V79H15.0844L15.0364 78.528H15.0124C14.8258 78.6827 14.6231 78.816 14.4044 78.928C14.1858 79.04 13.9538 79.096 13.7084 79.096ZM13.8604 78.624C14.0631 78.624 14.2498 78.5787 14.4204 78.488C14.5964 78.392 14.7858 78.256 14.9884 78.08V76.944C14.5298 76.9973 14.1671 77.072 13.9004 77.168C13.6338 77.2587 13.4418 77.3707 13.3244 77.504C13.2071 77.6373 13.1484 77.792 13.1484 77.968C13.1484 78.1973 13.2178 78.3653 13.3564 78.472C13.5004 78.5733 13.6684 78.624 13.8604 78.624ZM18.1403 79.096C17.6549 79.096 17.2683 78.92 16.9803 78.568C16.6923 78.2107 16.5483 77.7093 16.5483 77.064C16.5483 76.648 16.6256 76.288 16.7803 75.984C16.9403 75.68 17.1483 75.4453 17.4043 75.28C17.6603 75.1093 17.9376 75.024 18.2363 75.024C18.4656 75.024 18.6629 75.064 18.8283 75.144C18.9936 75.224 19.1643 75.336 19.3403 75.48L19.3163 74.808V73.288H19.8923V79H19.4123L19.3643 78.528H19.3403C19.1909 78.6827 19.0123 78.816 18.8043 78.928C18.6016 79.04 18.3803 79.096 18.1403 79.096ZM18.2682 78.6C18.4549 78.6 18.6336 78.5547 18.8043 78.464C18.9749 78.368 19.1456 78.2293 19.3163 78.048V75.944C19.1403 75.7893 18.9723 75.68 18.8123 75.616C18.6523 75.552 18.4896 75.52 18.3243 75.52C18.1056 75.52 17.9056 75.5867 17.7243 75.72C17.5483 75.848 17.4069 76.0293 17.3003 76.264C17.1989 76.4933 17.1483 76.76 17.1483 77.064C17.1483 77.5387 17.2443 77.9147 17.4363 78.192C17.6336 78.464 17.9109 78.6 18.2682 78.6ZM22.7303 79.096C22.4156 79.096 22.1223 79.016 21.8503 78.856C21.5783 78.696 21.3596 78.4667 21.1943 78.168C21.029 77.864 20.9463 77.496 20.9463 77.064C20.9463 76.632 21.029 76.264 21.1943 75.96C21.3596 75.656 21.5783 75.424 21.8503 75.264C22.1223 75.104 22.4156 75.024 22.7303 75.024C23.045 75.024 23.3356 75.104 23.6023 75.264C23.8743 75.424 24.093 75.656 24.2583 75.96C24.429 76.264 24.5143 76.632 24.5143 77.064C24.5143 77.496 24.429 77.864 24.2583 78.168C24.093 78.4667 23.8743 78.696 23.6023 78.856C23.3356 79.016 23.045 79.096 22.7303 79.096ZM22.7303 78.608C22.965 78.608 23.1703 78.544 23.3463 78.416C23.5276 78.288 23.6663 78.1093 23.7623 77.88C23.8636 77.6453 23.9143 77.3733 23.9143 77.064C23.9143 76.76 23.8636 76.4907 23.7623 76.256C23.6663 76.0213 23.5276 75.84 23.3463 75.712C23.1703 75.5787 22.965 75.512 22.7303 75.512C22.501 75.512 22.2956 75.5787 22.1143 75.712C21.9383 75.84 21.7996 76.0213 21.6983 76.256C21.6023 76.4907 21.5543 76.76 21.5543 77.064C21.5543 77.3733 21.6023 77.6453 21.6983 77.88C21.7996 78.1093 21.9383 78.288 22.1143 78.416C22.2956 78.544 22.501 78.608 22.7303 78.608ZM25.5706 79V75.12H26.0506L26.0986 75.832H26.1226C26.256 75.5867 26.416 75.392 26.6026 75.248C26.7946 75.0987 27.0026 75.024 27.2266 75.024C27.3066 75.024 27.3786 75.032 27.4426 75.048C27.5066 75.0587 27.568 75.0773 27.6266 75.104L27.5146 75.616C27.4506 75.5947 27.392 75.5787 27.3386 75.568C27.2906 75.5573 27.2266 75.552 27.1466 75.552C26.9813 75.552 26.808 75.6213 26.6266 75.76C26.4453 75.8933 26.2853 76.1307 26.1466 76.472V79H25.5706Z" fill="white"/>
<path d="M2.208 45.096C1.86667 45.096 1.52533 45.032 1.184 44.904C0.848 44.7707 0.549333 44.5813 0.288 44.336L0.92 43.584C1.10667 43.7547 1.31467 43.8907 1.544 43.992C1.77867 44.0933 2.008 44.144 2.232 44.144C2.49333 44.144 2.688 44.096 2.816 44C2.94933 43.8987 3.016 43.76 3.016 43.584C3.016 43.4667 2.984 43.3707 2.92 43.296C2.856 43.2213 2.76533 43.1573 2.648 43.104C2.536 43.0453 2.40267 42.984 2.248 42.92L1.56 42.624C1.37867 42.5493 1.208 42.4507 1.048 42.328C0.888 42.2053 0.757333 42.0533 0.656 41.872C0.554667 41.6853 0.504 41.4667 0.504 41.216C0.504 40.928 0.581333 40.6693 0.736 40.44C0.896 40.2107 1.112 40.0293 1.384 39.896C1.66133 39.7573 1.976 39.688 2.328 39.688C2.632 39.688 2.928 39.7467 3.216 39.864C3.50933 39.9813 3.76533 40.1467 3.984 40.36L3.424 41.056C3.25867 40.9227 3.088 40.8187 2.912 40.744C2.736 40.6693 2.54133 40.632 2.328 40.632C2.11467 40.632 1.94133 40.6773 1.808 40.768C1.68 40.8587 1.616 40.9867 1.616 41.152C1.616 41.264 1.65067 41.3573 1.72 41.432C1.78933 41.5067 1.88533 41.5733 2.008 41.632C2.136 41.6853 2.27467 41.744 2.424 41.808L3.096 42.08C3.30933 42.1653 3.49333 42.272 3.648 42.4C3.80267 42.528 3.92267 42.6827 4.008 42.864C4.09867 43.04 4.144 43.2507 4.144 43.496C4.144 43.784 4.06667 44.0507 3.912 44.296C3.76267 44.536 3.54133 44.7307 3.248 44.88C2.96 45.024 2.61333 45.096 2.208 45.096ZM4.95006 46.496V41.04H5.84606L5.92606 41.44H5.95806C6.11806 41.3013 6.29673 41.184 6.49406 41.088C6.6914 40.992 6.89406 40.944 7.10206 40.944C7.4274 40.944 7.70473 41.0293 7.93406 41.2C8.1634 41.3653 8.3394 41.6 8.46206 41.904C8.59006 42.2027 8.65406 42.5547 8.65406 42.96C8.65406 43.4133 8.57406 43.8 8.41406 44.12C8.25406 44.4347 8.04606 44.6773 7.79006 44.848C7.5394 45.0133 7.27006 45.096 6.98206 45.096C6.8114 45.096 6.6434 45.0613 6.47806 44.992C6.31273 44.9173 6.15806 44.8133 6.01406 44.68L6.04606 45.312V46.496H4.95006ZM6.73406 44.2C6.87806 44.2 7.0114 44.1573 7.13406 44.072C7.25673 43.9813 7.35273 43.8453 7.42206 43.664C7.4914 43.4827 7.52606 43.2507 7.52606 42.968C7.52606 42.728 7.4994 42.5253 7.44606 42.36C7.39273 42.1893 7.31006 42.0613 7.19806 41.976C7.0914 41.8907 6.9554 41.848 6.79006 41.848C6.66206 41.848 6.5394 41.8773 6.42206 41.936C6.30473 41.9947 6.1794 42.0933 6.04606 42.232V43.92C6.1634 44.0213 6.28073 44.0933 6.39806 44.136C6.52073 44.1787 6.63273 44.2 6.73406 44.2ZM10.4966 45.096C10.2619 45.096 10.0566 45.0453 9.88056 44.944C9.70456 44.8373 9.5659 44.696 9.46456 44.52C9.36856 44.3387 9.32056 44.136 9.32056 43.912C9.32056 43.496 9.49923 43.1707 9.85656 42.936C10.2139 42.7013 10.7899 42.5413 11.5846 42.456C11.5792 42.3333 11.5526 42.224 11.5046 42.128C11.4619 42.032 11.3926 41.9573 11.2966 41.904C11.2059 41.8507 11.0832 41.824 10.9286 41.824C10.7526 41.824 10.5766 41.8587 10.4006 41.928C10.2299 41.992 10.0512 42.08 9.86456 42.192L9.46456 41.464C9.62456 41.368 9.79523 41.28 9.97656 41.2C10.1579 41.12 10.3446 41.0587 10.5366 41.016C10.7286 40.968 10.9286 40.944 11.1366 40.944C11.4726 40.944 11.7552 41.0107 11.9846 41.144C12.2139 41.2773 12.3872 41.4747 12.5046 41.736C12.6219 41.992 12.6806 42.3173 12.6806 42.712V45H11.7846L11.7046 44.584H11.6726C11.5072 44.7333 11.3259 44.856 11.1286 44.952C10.9366 45.048 10.7259 45.096 10.4966 45.096ZM10.8646 44.248C11.0086 44.248 11.1339 44.216 11.2406 44.152C11.3526 44.0827 11.4672 43.992 11.5846 43.88V43.128C11.2806 43.1653 11.0406 43.2187 10.8646 43.288C10.6886 43.352 10.5632 43.432 10.4886 43.528C10.4139 43.6187 10.3766 43.7173 10.3766 43.824C10.3766 43.968 10.4219 44.0747 10.5126 44.144C10.6032 44.2133 10.7206 44.248 10.8646 44.248ZM15.4119 45.096C15.0492 45.096 14.7212 45.016 14.4279 44.856C14.1345 44.6907 13.8999 44.4533 13.7239 44.144C13.5532 43.8347 13.4679 43.4613 13.4679 43.024C13.4679 42.5867 13.5639 42.2133 13.7559 41.904C13.9479 41.5947 14.1985 41.3573 14.5079 41.192C14.8172 41.0267 15.1505 40.944 15.5079 40.944C15.7532 40.944 15.9719 40.9867 16.1639 41.072C16.3559 41.152 16.5239 41.2533 16.6679 41.376L16.1399 42.088C16.0439 41.9973 15.9505 41.9333 15.8599 41.896C15.7745 41.8533 15.6785 41.832 15.5719 41.832C15.3745 41.832 15.2012 41.8827 15.0519 41.984C14.9079 42.08 14.7959 42.2187 14.7159 42.4C14.6359 42.576 14.5959 42.784 14.5959 43.024C14.5959 43.264 14.6359 43.4747 14.7159 43.656C14.7959 43.832 14.9052 43.968 15.0439 44.064C15.1879 44.16 15.3505 44.208 15.5319 44.208C15.6705 44.208 15.8039 44.1787 15.9319 44.12C16.0599 44.0613 16.1745 43.9893 16.2759 43.904L16.7159 44.624C16.5239 44.7893 16.3132 44.9093 16.0839 44.984C15.8545 45.0587 15.6305 45.096 15.4119 45.096ZM19.1864 45.096C18.8131 45.096 18.4744 45.0133 18.1704 44.848C17.8718 44.6827 17.6344 44.448 17.4584 44.144C17.2824 43.8347 17.1944 43.4613 17.1944 43.024C17.1944 42.5973 17.2824 42.2293 17.4584 41.92C17.6398 41.6107 17.8718 41.3707 18.1544 41.2C18.4371 41.0293 18.7358 40.944 19.0504 40.944C19.4184 40.944 19.7251 41.0267 19.9704 41.192C20.2211 41.3573 20.4078 41.584 20.5304 41.872C20.6584 42.1547 20.7224 42.4773 20.7224 42.84C20.7224 42.936 20.7171 43.032 20.7064 43.128C20.6958 43.2187 20.6851 43.288 20.6744 43.336H18.0584L18.0504 42.608H19.7784C19.7784 42.3627 19.7224 42.1653 19.6104 42.016C19.4984 41.8613 19.3198 41.784 19.0744 41.784C18.9304 41.784 18.7918 41.824 18.6584 41.904C18.5251 41.984 18.4158 42.1173 18.3304 42.304C18.2451 42.4853 18.2024 42.7253 18.2024 43.024C18.2024 43.328 18.2558 43.5707 18.3624 43.752C18.4744 43.928 18.6158 44.056 18.7864 44.136C18.9571 44.216 19.1384 44.256 19.3304 44.256C19.4904 44.256 19.6398 44.2347 19.7784 44.192C19.9224 44.144 20.0664 44.0773 20.2104 43.992L20.5704 44.656C20.3731 44.7893 20.1518 44.896 19.9064 44.976C19.6664 45.056 19.4264 45.096 19.1864 45.096ZM21.3518 43.368V42.584H23.2958V43.368H21.3518ZM23.7366 45L25.1926 42.312L23.8246 39.784H25.0486L25.5446 40.824C25.6033 40.9413 25.662 41.0667 25.7206 41.2C25.7846 41.3333 25.854 41.4827 25.9286 41.648H25.9606C26.0246 41.4827 26.0833 41.3333 26.1366 41.2C26.19 41.0667 26.2433 40.9413 26.2966 40.824L26.7526 39.784H27.9286L26.5606 42.368L28.0166 45H26.7926L26.2406 43.88C26.1713 43.7467 26.1046 43.6107 26.0406 43.472C25.9766 43.3333 25.91 43.184 25.8406 43.024H25.8086C25.7446 43.184 25.6806 43.3333 25.6166 43.472C25.558 43.6107 25.4993 43.7467 25.4406 43.88L24.9046 45H23.7366Z" fill="#BBECF9"/>
<path d="M0 14L125 14" stroke="#BBECF9" stroke-width="0.597187"/>
<path d="M0 31L120 31" stroke="#BBECF9" stroke-width="0.597187"/>
<path d="M0 65H110" stroke="#BBECF9" stroke-width="0.597187"/>
<path d="M0 82H103" stroke="#BBECF9" stroke-width="0.597187"/>
<path d="M0 48L113 48" stroke="#BBECF9" stroke-width="0.597187"/>
</svg>
