<svg width="356" height="353" viewBox="0 0 356 353" fill="none" xmlns="http://www.w3.org/2000/svg">
<path fill-rule="evenodd" clip-rule="evenodd" d="M252.172 147.232L229.118 147.232L220.843 148.412L143.694 148.412L136.381 151.067L135.05 154.906L134.237 149.887L134.237 148.412C132.945 148.806 132.292 148.739 131.209 148.263L125 150.182L125 134.187L131.209 136.181C132.179 135.83 133.226 135.753 134.237 135.957L134.237 133.892L135.05 129.761L136.381 133.316L143.694 135.971L220.843 135.971L229.118 137.226L252.172 137.226L252.172 147.232ZM134.237 141.157L134.237 138.537C133.243 138.852 132.169 138.8 131.209 138.392L127.513 139.792L131.209 141.157C132.423 140.755 133.09 140.713 134.237 141.157ZM134.237 145.547L134.237 145.991C132.774 145.611 132.135 145.703 131.209 146.212L127.513 144.811L131.209 143.322C132.192 143.848 132.849 143.908 134.237 143.542L134.237 145.547Z" fill="#B2B2B2"/>
<path d="M298.946 141.267C299.137 141.361 299.295 141.509 299.401 141.694C299.506 141.878 299.555 142.09 299.539 142.302C299.564 142.505 299.519 142.711 299.411 142.886C299.303 143.06 299.139 143.193 298.946 143.261L288.754 143.261L288.062 144.811L286.873 143.898L287.072 143.261L284.835 143.261L279.365 144.811L270.795 144.811L252.172 147.836L252.172 136.842L270.795 139.717L279.365 139.717L284.835 141.267L287.072 141.267L286.873 140.727L288.062 139.717L288.754 141.267L298.946 141.267Z" fill="#DADADA"/>
<path d="M284.835 143.261L279.365 144.811M284.835 143.261L284.835 141.267M284.835 143.261L280.639 143.261M284.835 143.261L287.171 143.261M279.361 144.811L279.361 139.717M279.361 144.811L277.231 144.811M270.802 144.811L277.224 144.811M270.795 144.811L270.795 139.717M270.795 144.811L253.134 147.68M252.172 147.324L252.172 147.84L253.134 147.683M252.172 147.328L252.172 137.279M252.172 147.317L249.658 147.317M229.107 147.317L234.333 147.317M229.118 147.317L225.33 147.857M229.118 147.317L229.118 142.312M220.843 148.501L225.33 147.861M220.843 148.501L220.843 142.312M220.843 148.501L214.744 148.501M143.694 148.501L136.381 151.156M143.694 148.501L151.22 148.501M143.694 148.501L143.694 146.475M143.694 148.501L135.05 147.623M136.381 151.156L135.05 154.995L134.237 149.976M136.367 151.156L134.237 149.976M134.237 149.976L134.237 148.501M134.237 148.501C132.945 148.895 132.292 148.828 131.209 148.351M134.237 148.501L134.237 147.541M131.209 148.351L125 150.271L125 144.886M131.209 148.351C131.001 147.679 131.001 146.959 131.209 146.286M131.209 136.248L125 134.258L125 139.867M131.209 136.248C132.179 135.898 133.227 135.822 134.237 136.028M131.209 136.248C131.001 136.972 131.001 137.739 131.209 138.463M134.237 136.028L134.237 133.963M134.237 136.028L134.237 137.279M134.237 133.959L135.05 129.814L136.381 133.369M134.251 133.959L136.381 133.369M136.381 133.369L143.694 136.024M143.694 136.024L151.22 136.024M143.694 136.024L143.694 138.246M143.694 136.024L135.05 137.172M220.843 136.024L225.33 136.707M220.843 136.024L220.843 142.309M220.843 136.024L214.744 136.024M229.118 137.279L234.333 137.279M229.118 137.279L225.33 136.707M229.118 137.279L229.118 142.309M252.172 137.279L252.172 136.838L253.134 136.984M252.172 137.279L249.658 137.279M270.784 139.714L277.224 139.714M270.795 139.714L253.134 136.984M279.365 139.714L284.835 141.264M279.365 139.714L277.235 139.714M284.846 141.264L280.65 141.264M284.846 141.264L287.182 141.264M277.242 139.714L277.242 144.808M194.775 136.024L194.775 148.497M194.775 136.024L214.762 136.024M194.775 136.024L194.065 136.024M194.775 148.497L214.762 148.497M194.775 148.497L194.065 148.497M178.573 136.024L194.065 136.024M178.573 136.024L178.573 138.345M178.573 136.024L158.246 136.024M178.573 148.497L194.065 148.497M178.573 148.497L178.573 146.471M178.573 148.497L158.246 148.497M134.237 147.537L134.237 146.062M134.237 147.537L135.05 147.619M134.237 137.279L134.237 138.608M134.237 137.279L135.05 137.172M143.694 142.255L151.22 142.255M143.694 142.255L143.694 146.468M143.694 142.255L143.694 138.249M143.694 142.262L135.05 139.127M143.694 142.255L135.05 145.326M134.237 138.825L134.237 141.225M134.237 138.825L134.237 138.605M134.237 138.825L135.05 139.12M134.237 145.614L134.237 146.059M134.237 145.614L134.237 143.624M134.237 145.614L135.05 145.326M134.237 146.059C132.774 145.678 132.136 145.771 131.209 146.279M131.209 146.279L127.513 144.879M127.513 144.879L131.209 143.4M127.513 144.879L125 144.879M131.209 143.4C132.192 143.93 132.849 143.99 134.237 143.624M131.209 143.4C131.044 142.684 131.044 141.94 131.209 141.225M134.237 143.624L134.237 141.225M134.237 141.225C133.09 140.78 132.423 140.823 131.209 141.225M131.209 141.225L127.513 139.86M127.513 139.86L131.209 138.456M127.513 139.86L125 139.86M131.209 138.456C132.168 138.866 133.242 138.919 134.237 138.605M125.007 139.86L125.007 144.886M288.754 141.267L298.946 141.267C299.137 141.361 299.295 141.509 299.401 141.694C299.506 141.878 299.555 142.09 299.539 142.302C299.564 142.505 299.519 142.711 299.411 142.886C299.303 143.06 299.139 143.193 298.946 143.261L288.754 143.261M288.754 141.267L288.062 139.717L286.873 140.727L287.171 141.267M288.754 141.267L287.171 141.267M288.754 143.261L288.062 144.811L286.873 143.898L287.171 143.261M288.754 143.261L287.171 143.261M279.056 140.123L277.572 140.123M279.056 144.481L277.572 144.481M279.056 141.257L277.572 141.257M279.056 143.251L277.572 143.251M279.056 142.302L277.572 142.302M253.134 136.97L253.134 147.662M249.658 137.279L249.658 147.317M249.658 137.279L234.322 137.279M249.658 147.321L234.322 147.321M234.322 137.283L234.322 147.321M225.33 136.71L225.33 147.861M229.118 142.312L220.843 142.312M214.744 136.028L214.744 148.501M194.065 136.028L194.065 138.345M194.065 148.497L194.065 146.471M194.065 138.345L178.573 138.345M194.065 138.345L194.065 142.309M178.573 138.345L178.573 142.309M194.065 142.309L178.573 142.309M194.065 142.309L194.065 146.471M178.573 142.309L178.573 146.471M194.065 146.471L178.573 146.471M151.238 136.024L151.238 138.246M151.238 136.024L158.246 136.024M151.22 148.497L151.22 146.471M151.22 148.497L158.246 148.497M151.22 142.255L151.22 146.468M151.22 142.255L151.22 138.249M151.22 146.475L143.694 146.475M143.694 146.475L135.05 146.475M151.22 138.249L143.694 138.249M143.694 138.249L135.05 138.249M158.246 136.028L158.246 148.501M135.05 137.176L135.05 139.127M135.05 145.334L135.05 147.623" stroke="#010101" stroke-width="0.5"/>
<path d="M299.539 142.302C299.555 142.09 299.506 141.878 299.401 141.694C299.295 141.509 299.137 141.361 298.946 141.267L288.754 141.267L288.062 139.717L286.873 140.727L287.072 141.267L284.835 141.267L279.365 139.717L270.795 139.717L252.172 136.842L252.172 137.279L229.118 137.279L220.843 136.024L143.694 136.024L136.381 133.369L135.05 129.814L134.237 133.948L134.237 136.014C133.227 135.808 132.179 135.884 131.209 136.234L125 134.243L125 150.257L131.209 148.337C132.274 148.813 132.945 148.881 134.237 148.486L134.237 149.962L135.05 154.981L136.381 151.142L143.694 148.486L220.843 148.486L229.118 147.306L252.172 147.306L252.172 147.822L270.795 144.797L279.365 144.797L284.835 143.247L287.072 143.247L286.873 143.983L288.062 144.797L288.754 143.247L298.946 143.247C299.137 143.179 299.299 143.049 299.406 142.877C299.514 142.706 299.561 142.503 299.539 142.302V142.302Z" stroke="#010101" stroke-width="1.5"/>
<path d="M134.049 138.651L134.049 141.242C134.049 141.242 132.274 140.588 131.159 141.242L127.517 139.945L131.024 138.491C131.487 138.736 131.997 138.877 132.519 138.905C133.041 138.932 133.563 138.846 134.049 138.651Z" stroke="#010101" stroke-width="1.67"/>
<path d="M134.049 143.567L134.049 146.166C134.049 146.166 132.274 145.515 131.159 146.166L127.517 144.872L131.024 143.414C131.487 143.658 131.998 143.798 132.52 143.824C133.042 143.851 133.564 143.763 134.049 143.567Z" stroke="#010101" stroke-width="1.67"/>
<path d="M136.657 216.519L136.657 214.383L131.769 214.383L131.769 216.519L136.657 216.519Z" fill="#DADADA"/>
<path d="M150.893 222.551L182.623 222.551C182.623 222.551 184.845 222.281 189.219 224.649C189.319 224.702 189.403 224.782 189.462 224.879C189.521 224.976 189.554 225.087 189.556 225.2C189.558 225.314 189.53 225.426 189.474 225.525C189.419 225.625 189.338 225.707 189.24 225.765C185.498 227.965 182.626 227.919 182.626 227.919L145.859 227.919" fill="#B2B2B2"/>
<path d="M150.893 222.551L182.623 222.551C182.623 222.551 184.845 222.281 189.219 224.649C189.319 224.702 189.403 224.782 189.462 224.879C189.521 224.976 189.554 225.087 189.556 225.2C189.558 225.314 189.53 225.426 189.474 225.525C189.419 225.625 189.338 225.707 189.24 225.765C185.498 227.965 182.626 227.919 182.626 227.919L145.859 227.919" stroke="#1D1D1B" stroke-width="0.5" stroke-miterlimit="10"/>
<path d="M149.903 208.539L182.644 208.539C182.644 208.539 184.866 208.809 189.24 206.442C189.34 206.388 189.424 206.308 189.483 206.211C189.542 206.114 189.574 206.003 189.575 205.889C189.577 205.776 189.549 205.663 189.493 205.564C189.437 205.465 189.356 205.383 189.258 205.326C185.52 203.126 182.648 203.172 182.648 203.172L145.88 203.172" fill="#B2B2B2"/>
<path d="M149.903 208.539L182.644 208.539C182.644 208.539 184.866 208.809 189.24 206.442C189.34 206.388 189.424 206.308 189.483 206.211C189.542 206.114 189.574 206.003 189.575 205.889C189.577 205.776 189.549 205.663 189.493 205.564C189.437 205.465 189.356 205.383 189.258 205.326C185.52 203.126 182.648 203.172 182.648 203.172L145.88 203.172" stroke="#1D1D1B" stroke-width="0.5" stroke-miterlimit="10"/>
<path d="M155.803 221.83L191.083 221.737C191.083 221.737 198.892 221.595 204.427 216.214C204.524 216.122 204.601 216.012 204.653 215.89C204.706 215.767 204.733 215.636 204.733 215.503C204.733 215.37 204.706 215.238 204.653 215.116C204.601 214.993 204.524 214.883 204.427 214.792C198.892 209.424 191.083 209.264 191.083 209.264L155.81 209.168" fill="#B2B2B2"/>
<path d="M155.803 221.83L191.083 221.737C191.083 221.737 198.892 221.595 204.427 216.214C204.524 216.122 204.601 216.012 204.653 215.89C204.706 215.767 204.733 215.636 204.733 215.503C204.733 215.37 204.706 215.238 204.653 215.116C204.601 214.993 204.524 214.883 204.427 214.792C198.892 209.424 191.083 209.264 191.083 209.264L155.81 209.168" stroke="#1D1D1B" stroke-width="0.5" stroke-miterlimit="10"/>
<path d="M136.295 208.738L136.295 202.994L134.002 202.994L134.002 208.738L136.295 208.738Z" fill="#DADADA" stroke="#1D1D1B" stroke-width="0.5" stroke-miterlimit="10"/>
<path d="M134.002 207.157L129.536 208.205L129.536 203.527L134.002 204.565L134.002 207.157Z" fill="#DADADA" stroke="#1D1D1B" stroke-width="0.5" stroke-miterlimit="10"/>
<path d="M136.295 209.453L136.295 211.159L168.693 211.159L155.803 209.168C151.5 208.738 150.19 207.391 150.19 207.391C150.19 207.391 142.735 200.09 141.255 198.693C140.42 197.9 138.937 197.605 137.811 197.499C137.308 197.447 136.801 197.428 136.295 197.442L136.295 209.46" fill="#DADADA"/>
<path d="M136.295 209.453L136.295 211.159L168.693 211.159L155.803 209.168C151.5 208.738 150.19 207.391 150.19 207.391C150.19 207.391 142.735 200.09 141.255 198.693C140.42 197.9 138.937 197.605 137.811 197.499C137.308 197.447 136.801 197.428 136.295 197.442L136.295 209.46" stroke="#1D1D1B" stroke-width="0.5" stroke-miterlimit="10"/>
<path d="M136.413 221.585L136.413 219.878L168.803 219.878L155.913 221.869C151.61 222.299 150.297 223.646 150.297 223.646C150.297 223.646 142.842 230.947 141.365 232.344C140.527 233.137 139.047 233.432 137.921 233.539C137.418 233.59 136.911 233.609 136.405 233.595L136.405 221.585" fill="#DADADA"/>
<path d="M136.413 221.585L136.413 219.878L168.803 219.878L155.913 221.869C151.61 222.299 150.297 223.646 150.297 223.646C150.297 223.646 142.842 230.947 141.365 232.344C140.527 233.137 139.047 233.432 137.921 233.539C137.418 233.59 136.911 233.609 136.405 233.595L136.405 221.585" stroke="#1D1D1B" stroke-width="0.5" stroke-miterlimit="10"/>
<path d="M136.544 219.86L170.556 219.86C170.556 219.86 179.119 218.879 181.59 216.206C181.766 216.017 181.864 215.768 181.864 215.51C181.864 215.251 181.766 215.002 181.59 214.813C179.126 212.14 170.585 211.159 170.585 211.159L136.572 211.159L136.544 219.86Z" fill="#DADADA" stroke="#1D1D1B" stroke-width="0.5" stroke-miterlimit="10"/>
<path d="M137.815 209.684L137.815 197.478" stroke="#010101" stroke-width="0.5" stroke-miterlimit="10"/>
<path d="M131.808 210.43L127.346 211.159L127.346 220.038L131.769 220.639" fill="#B2B2B2"/>
<path d="M131.808 210.43L127.346 211.159L127.346 220.038L131.769 220.639" stroke="#1D1D1B" stroke-width="0.5" stroke-miterlimit="10"/>
<path d="M140.19 214.443L131.797 214.443L131.797 209.602C131.797 209.602 137.066 208.205 140.179 211.077L140.19 214.443Z" fill="#DADADA" stroke="#1D1D1B" stroke-width="0.5" stroke-miterlimit="10"/>
<path d="M131.808 211.159L129.863 210.256L129.369 212.883L131.808 212.883L131.808 211.159Z" fill="#DADADA" stroke="#1D1D1B" stroke-width="0.5" stroke-miterlimit="10"/>
<path d="M140.2 216.455L131.819 216.455L131.819 221.297C131.819 221.297 137.087 222.69 140.2 219.818L140.2 216.455Z" fill="#DADADA" stroke="#1D1D1B" stroke-width="0.5" stroke-miterlimit="10"/>
<path d="M131.819 219.736L129.873 220.639L129.384 218.012L131.819 218.012L131.819 219.736Z" fill="#DADADA" stroke="#1D1D1B" stroke-width="0.5" stroke-miterlimit="10"/>
<path d="M131.769 213.921L128.961 213.214L128.961 217.842L131.808 217.23" fill="#DADADA"/>
<path d="M131.769 213.921L128.961 213.214L128.961 217.842L131.808 217.23" stroke="#1D1D1B" stroke-width="0.5" stroke-miterlimit="10"/>
<path d="M140.822 215.083L140.822 216.079L125.273 215.837L125.273 215.36L140.822 215.083Z" fill="#DADADA" stroke="#1D1D1B" stroke-width="0.5" stroke-miterlimit="10"/>
<path d="M188.281 209.254L188.281 221.745" stroke="#010101" stroke-width="0.5" stroke-miterlimit="10"/>
<path d="M171.763 212.801L171.841 212.446L173.045 212.698L172.97 213.054C172.958 213.113 172.934 213.169 172.9 213.219C172.866 213.269 172.823 213.311 172.773 213.344C172.722 213.377 172.666 213.4 172.606 213.411C172.547 213.422 172.486 213.422 172.427 213.409L172.115 213.345C172.056 213.333 171.999 213.31 171.95 213.276C171.9 213.242 171.857 213.198 171.824 213.148C171.791 213.097 171.769 213.04 171.759 212.981C171.748 212.921 171.75 212.86 171.763 212.801V212.801Z" stroke="#010101" stroke-width="0.5" stroke-miterlimit="10"/>
<path d="M171.675 218.385L171.749 218.741L172.953 218.488L172.878 218.133C172.852 218.014 172.781 217.91 172.679 217.844C172.578 217.777 172.454 217.753 172.335 217.778L172.023 217.845C171.964 217.857 171.909 217.881 171.859 217.915C171.81 217.949 171.768 217.992 171.736 218.042C171.703 218.093 171.681 218.149 171.671 218.208C171.66 218.267 171.662 218.327 171.675 218.385V218.385Z" stroke="#010101" stroke-width="0.5" stroke-miterlimit="10"/>
<path d="M173.315 217.838L173.67 218.154L174.259 217.518L173.922 217.205C173.888 217.173 173.847 217.147 173.803 217.13C173.759 217.113 173.712 217.105 173.664 217.107C173.617 217.109 173.57 217.12 173.527 217.14C173.485 217.16 173.446 217.188 173.414 217.223L173.308 217.34C173.244 217.408 173.208 217.498 173.21 217.591C173.211 217.684 173.249 217.773 173.315 217.838Z" stroke="#010101" stroke-width="0.5" stroke-miterlimit="10"/>
<path d="M173.198 213.32L173.553 213L174.142 213.637L173.805 213.953C173.77 213.985 173.73 214.01 173.686 214.026C173.642 214.042 173.595 214.049 173.548 214.047C173.501 214.046 173.455 214.034 173.413 214.014C173.37 213.994 173.332 213.966 173.3 213.932L173.194 213.818C173.129 213.751 173.094 213.661 173.094 213.568C173.095 213.475 173.132 213.386 173.198 213.32Z" fill="#DADADA" stroke="#1D1D1B" stroke-width="0.5" stroke-miterlimit="10"/>
<path d="M174.074 214.333L174.539 214.273L174.653 215.133L174.199 215.193C174.152 215.2 174.104 215.198 174.059 215.186C174.013 215.175 173.97 215.154 173.932 215.126C173.895 215.097 173.863 215.061 173.839 215.021C173.815 214.98 173.8 214.935 173.794 214.888L173.773 214.731C173.761 214.638 173.785 214.545 173.842 214.47C173.898 214.396 173.982 214.346 174.074 214.333Z" stroke="#010101" stroke-width="0.5" stroke-miterlimit="10"/>
<path d="M174.042 216.864L174.507 216.928L174.625 216.068L174.167 216.004C174.12 215.997 174.072 215.999 174.026 216.011C173.98 216.023 173.937 216.044 173.899 216.073C173.861 216.102 173.83 216.138 173.806 216.179C173.783 216.22 173.768 216.266 173.762 216.313L173.744 216.47C173.733 216.561 173.758 216.654 173.814 216.727C173.869 216.801 173.951 216.85 174.042 216.864V216.864Z" stroke="#010101" stroke-width="0.5" stroke-miterlimit="10"/>
<path d="M169.942 215.002L169.942 214.476C169.942 214.427 169.961 214.381 169.995 214.347C170.029 214.313 170.075 214.294 170.123 214.294L170.663 214.294C170.687 214.294 170.711 214.298 170.733 214.307C170.756 214.316 170.776 214.329 170.793 214.346C170.81 214.363 170.824 214.383 170.833 214.405C170.843 214.428 170.848 214.451 170.848 214.476L170.848 215.016C170.848 215.064 170.828 215.11 170.795 215.144C170.761 215.178 170.714 215.197 170.666 215.197L170.138 215.197C170.111 215.199 170.085 215.196 170.06 215.187C170.036 215.178 170.013 215.163 169.995 215.145C169.976 215.126 169.962 215.104 169.953 215.079C169.944 215.054 169.94 215.028 169.942 215.002V215.002Z" stroke="#010101" stroke-width="0.5" stroke-miterlimit="10"/>
<path d="M169.942 216.64L169.942 216.1C169.942 216.052 169.961 216.006 169.995 215.972C170.029 215.938 170.075 215.918 170.123 215.918L170.663 215.918C170.711 215.918 170.757 215.938 170.791 215.972C170.825 216.006 170.844 216.052 170.844 216.1L170.844 216.64C170.844 216.688 170.825 216.734 170.791 216.768C170.757 216.802 170.711 216.821 170.663 216.821L170.138 216.821C170.112 216.824 170.087 216.821 170.063 216.813C170.039 216.805 170.018 216.792 169.999 216.775C169.981 216.758 169.966 216.737 169.956 216.714C169.946 216.69 169.942 216.665 169.942 216.64V216.64Z" stroke="#010101" stroke-width="0.5" stroke-miterlimit="10"/>
<path d="M169.154 211.159L169.154 219.86" stroke="#010101" stroke-width="0.5" stroke-miterlimit="10"/>
<path d="M162.143 211.159L162.143 219.86" stroke="#010101" stroke-width="0.5" stroke-miterlimit="10"/>
<path d="M155.295 211.159L155.295 219.86" stroke="#010101" stroke-width="0.5" stroke-miterlimit="10"/>
<path d="M148.461 211.159L148.461 219.86" stroke="#010101" stroke-width="0.5" stroke-miterlimit="10"/>
<path d="M141.542 211.159L141.542 219.86" stroke="#010101" stroke-width="0.5" stroke-miterlimit="10"/>
<path d="M182.648 203.172L182.648 208.539" stroke="#010101" stroke-width="0.5" stroke-miterlimit="10"/>
<path d="M177.454 203.172L177.454 208.539" stroke="#010101" stroke-width="0.5" stroke-miterlimit="10"/>
<path d="M172.36 203.172L172.36 208.539" stroke="#010101" stroke-width="0.5" stroke-miterlimit="10"/>
<path d="M167.18 203.172L167.18 208.55" stroke="#010101" stroke-width="0.5" stroke-miterlimit="10"/>
<path d="M162.143 203.172L162.143 208.539" stroke="#010101" stroke-width="0.5" stroke-miterlimit="10"/>
<path d="M156.985 203.172L156.985 208.539" stroke="#010101" stroke-width="0.5" stroke-miterlimit="10"/>
<path d="M151.692 203.172L151.692 208.248" stroke="#010101" stroke-width="0.5" stroke-miterlimit="10"/>
<path d="M136.405 228.025L136.405 222.281L134.112 222.281L134.112 228.025L136.405 228.025Z" fill="#DADADA" stroke="#1D1D1B" stroke-width="0.5" stroke-miterlimit="10"/>
<path d="M134.112 223.863L129.643 222.814L129.643 227.492L134.112 226.454L134.112 223.863Z" fill="#DADADA" stroke="#1D1D1B" stroke-width="0.5" stroke-miterlimit="10"/>
<path d="M137.921 221.13L137.921 233.542" stroke="#010101" stroke-width="0.5" stroke-miterlimit="10"/>
<path d="M182.626 227.919L182.626 222.551" stroke="#010101" stroke-width="0.5" stroke-miterlimit="10"/>
<path d="M177.433 227.919L177.433 222.551" stroke="#010101" stroke-width="0.5" stroke-miterlimit="10"/>
<path d="M172.339 227.919L172.339 222.551" stroke="#010101" stroke-width="0.5" stroke-miterlimit="10"/>
<path d="M167.159 227.919L167.159 222.544" stroke="#010101" stroke-width="0.5" stroke-miterlimit="10"/>
<path d="M162.122 227.919L162.122 222.551" stroke="#010101" stroke-width="0.5" stroke-miterlimit="10"/>
<path d="M156.964 227.919L156.964 222.551" stroke="#010101" stroke-width="0.5" stroke-miterlimit="10"/>
<path d="M151.67 227.919L151.67 222.843" stroke="#010101" stroke-width="0.5" stroke-miterlimit="10"/>
<path d="M155.803 221.83L191.083 221.737C191.083 221.737 198.892 221.595 204.427 216.214C204.524 216.122 204.601 216.012 204.653 215.89C204.706 215.767 204.733 215.636 204.733 215.503C204.733 215.37 204.706 215.238 204.653 215.116C204.601 214.993 204.524 214.883 204.427 214.792C198.892 209.424 191.083 209.264 191.083 209.264L155.81 209.168" stroke="black" stroke-width="1.5" stroke-miterlimit="10"/>
<path d="M145.916 227.908L145.858 227.908" stroke="#1D1D1B" stroke-width="1.5" stroke-miterlimit="10"/>
<path d="M145.916 227.908L182.626 227.908C182.626 227.908 185.498 227.954 189.24 225.754C189.338 225.696 189.419 225.614 189.474 225.515C189.53 225.415 189.558 225.303 189.556 225.19C189.554 225.076 189.521 224.965 189.462 224.868C189.403 224.771 189.319 224.691 189.219 224.638C184.845 222.27 182.623 222.541 182.623 222.541L152.387 222.541" stroke="black" stroke-width="1.5" stroke-miterlimit="10"/>
<path d="M145.88 203.161L182.648 203.161C182.648 203.161 185.52 203.115 189.258 205.315C189.356 205.372 189.437 205.455 189.493 205.554C189.549 205.653 189.577 205.765 189.575 205.879C189.574 205.992 189.542 206.103 189.483 206.201C189.424 206.298 189.34 206.377 189.24 206.431C184.866 208.799 182.644 208.529 182.644 208.529L152.707 208.529" stroke="black" stroke-width="1.5" stroke-miterlimit="10"/>
<path d="M134.002 204.555L134.002 204.654" stroke="black" stroke-width="1.5" stroke-miterlimit="10"/>
<path d="M136.296 202.984L136.427 202.984" stroke="black" stroke-width="1.5" stroke-miterlimit="10"/>
<path d="M136.295 202.984L134.002 202.984L134.002 204.555" stroke="black" stroke-width="1.5" stroke-miterlimit="10"/>
<path d="M136.296 208.728L136.427 208.728" stroke="black" stroke-width="1.5" stroke-miterlimit="10"/>
<path d="M136.295 208.728L134.002 208.728L134.002 207.146" stroke="black" stroke-width="1.5" stroke-miterlimit="10"/>
<path d="M134.002 207.029L134.002 207.145" stroke="black" stroke-width="1.5" stroke-miterlimit="10"/>
<path d="M134.002 204.555L129.536 203.517L129.536 208.195L134.002 207.146" stroke="black" stroke-width="1.5" stroke-miterlimit="10"/>
<path d="M136.295 209.357L136.295 209.441" stroke="black" stroke-width="1.5" stroke-miterlimit="10"/>
<path d="M136.295 209.357L136.295 208.728" stroke="black" stroke-width="1.5" stroke-miterlimit="10"/>
<path d="M136.295 202.984L136.295 197.414C136.801 197.4 137.308 197.419 137.811 197.47C138.937 197.577 140.42 197.872 141.255 198.665C141.965 199.319 143.946 201.263 145.87 203.151C145.87 203.151 149.995 208.397 152.59 208.543C153.633 208.847 154.703 209.049 155.785 209.147L168.391 211.148L170.578 211.148C170.578 211.148 181.86 212.762 181.845 215.488C181.831 218.215 170.848 219.807 170.848 219.807L168.206 219.846L156.275 221.78" stroke="black" stroke-width="1.5" stroke-miterlimit="10"/>
<path d="M145.916 227.908C144.006 229.771 142.046 231.679 141.365 232.323C140.527 233.115 139.047 233.41 137.921 233.517C137.418 233.568 136.911 233.587 136.405 233.574L136.405 228.015" stroke="black" stroke-width="1.5" stroke-miterlimit="10"/>
<path d="M136.405 221.506L136.405 221.556L136.405 222.271" stroke="black" stroke-width="1.5" stroke-miterlimit="10"/>
<path d="M145.916 227.908C148.138 225.74 150.297 223.643 150.297 223.643C150.297 223.643 150.847 223.077 152.402 222.576" stroke="black" stroke-width="1.5" stroke-miterlimit="10"/>
<path d="M136.405 222.271L136.405 228.015" stroke="#1D1D1B" stroke-width="1.5" stroke-miterlimit="10"/>
<path d="M155.913 221.84C154.72 221.948 153.543 222.187 152.402 222.551" stroke="black" stroke-width="1.5" stroke-miterlimit="10"/>
<path d="M131.808 210.42L130.644 210.608" stroke="black" stroke-width="1.5" stroke-miterlimit="10"/>
<path d="M127.346 215.311L127.346 211.148L129.767 210.754" stroke="black" stroke-width="1.5" stroke-miterlimit="10"/>
<path d="M129.824 220.365L127.346 220.028L127.346 215.858" stroke="black" stroke-width="1.5" stroke-miterlimit="10"/>
<path d="M130.303 220.429L131.769 220.628" stroke="black" stroke-width="1.5" stroke-miterlimit="10"/>
<path d="M136.295 209.357C134.797 209.168 133.278 209.248 131.808 209.591L131.808 210.42" stroke="black" stroke-width="1.5" stroke-miterlimit="10"/>
<path d="M131.808 210.42L131.808 211.148" stroke="black" stroke-width="1.5" stroke-miterlimit="10"/>
<path d="M130.644 210.608L129.863 210.246L129.767 210.754" stroke="black" stroke-width="1.5" stroke-miterlimit="10"/>
<path d="M136.412 221.506C134.883 221.711 133.329 221.637 131.826 221.286L131.826 219.726" stroke="black" stroke-width="1.5" stroke-miterlimit="10"/>
<path d="M129.824 220.365L129.873 220.628L130.303 220.429" stroke="black" stroke-width="1.5" stroke-miterlimit="10"/>
<path d="M127.346 215.311L125.273 215.35L125.273 215.826L127.346 215.858" stroke="black" stroke-width="1.5" stroke-miterlimit="10"/>
<path d="M136.405 222.271L136.405 228.015" stroke="black" stroke-width="1.5" stroke-miterlimit="10"/>
<path d="M136.405 222.271L134.112 222.271L134.112 228.015L136.405 228.015" stroke="black" stroke-width="1.5" stroke-miterlimit="10"/>
<path d="M134.112 223.852L129.643 222.804L129.643 227.482L134.112 226.444" stroke="black" stroke-width="1.5" stroke-miterlimit="10"/>
<path d="M130.971 62.891L140.911 67.9563L215.639 67.7359L221.762 66.801L225.401 67.7146L231.791 67.7146L231.791 70.4693L230.726 70.4693L230.726 72.5132L231.791 72.5132L231.791 77.6673L230.726 77.6673L230.726 79.4446C231.081 79.3557 231.791 79.2313 231.791 79.4446L231.791 81.9327L225.401 82.0216C224.164 82.166 222.945 82.4339 221.762 82.8214L215.994 81.9327L140.911 81.9327L130.971 87.1757L126.09 87.1757L125.824 86.1982L127.776 82.6437L126.534 82.7147L126.534 81.7372L125.114 82.7147L125.114 67.1423L126.534 67.8532L126.534 67.0534L127.776 67.1281L125.824 64.5652L126.09 62.8768L130.971 62.891Z" fill="#B2B2B2"/>
<path d="M241.021 59.5105L262.853 67.686C270.209 67.6646 282.765 67.686 290.898 67.8566L292.23 62.2653L296.05 62.2653L309.717 72.0936C312.234 73.1991 314.155 74.301 314.155 75.0616C314.155 75.8223 312.245 77.0557 309.717 78.2358L296.05 87.6803L291.967 87.6803L290.902 81.993C283.603 82.1245 272.676 82.2454 262.857 82.2454L241.025 90.2431L233.126 90.2431L231.795 84.467L231.795 79.5972L230.73 79.5972L230.73 77.6422L231.795 77.6422L231.795 72.4881L230.73 72.4881L230.73 70.4443L231.795 70.4443L231.795 65.2013L233.126 59.5141L241.021 59.5105Z" fill="#DADADA"/>
<path d="M262.853 67.6899L241.021 59.5144L233.122 59.5144L231.791 65.2017M262.853 67.6899C270.209 67.6685 282.765 67.6899 290.898 67.8605M262.853 67.6899L234.986 69.3783L231.791 67.6899M262.853 67.6899L231.791 65.2017M262.853 82.2635L241.021 90.2612L233.122 90.2612L231.791 84.4851M262.853 82.2635C272.676 82.2635 283.603 82.1426 290.898 82.0111M262.853 82.2635L234.986 80.7528L231.791 81.908M262.853 82.2635L231.791 84.4851M231.791 65.2017L231.791 67.6899M231.791 67.6899L231.791 70.5335M231.791 67.6899L225.49 67.6899M140.911 67.9387L130.971 62.8735L126.09 62.8735L125.823 64.5619L127.776 67.1247M140.911 67.9387L127.776 67.1247M140.911 67.9387L214.751 67.7219M140.911 81.8903L130.971 87.1332L126.09 87.1332L125.823 86.1557L127.776 82.6012M140.911 81.8903L127.776 82.6012M140.911 81.8903L214.751 81.8903M231.791 81.8903L231.791 84.4673M231.791 81.8903L231.791 79.4696M231.791 81.8903L225.49 81.9187M309.717 72.0975C305.737 70.3487 300.27 68.6034 298.535 68.223C297.789 68.0595 294.871 67.9422 290.902 67.8676M309.717 72.1046C312.234 73.2101 314.155 74.312 314.155 75.0727C314.155 75.8333 312.245 77.0668 309.717 78.2469M309.717 72.1046L296.05 62.2763L292.233 62.2763L290.902 67.8676M309.717 78.2469C305.933 80.0241 300.767 81.7197 298.535 81.8263C297.292 81.8832 294.548 81.9543 290.902 82.0182M309.717 78.2469L296.05 87.6913L291.967 87.6913L290.902 82.004M127.776 67.1425L126.533 67.0678L126.533 67.8676M127.776 82.6367L126.533 82.7078L126.533 81.7303M126.533 67.8676L125.113 67.1567L125.113 82.722L126.533 81.7445M126.533 67.8818L126.533 68.8593M126.533 81.7445L126.533 81.2114M231.791 70.5477C236.388 70.7148 240.162 71.8202 241.554 72.3961L231.791 72.3961M231.791 70.5477C231.411 70.5477 231.028 70.5477 230.637 70.5477L230.637 72.4139L231.791 72.4139M231.791 72.4139L231.791 77.6568M231.791 77.6568L230.637 77.6568L230.637 79.5229C231.028 79.5229 231.411 79.5229 231.791 79.5016M231.791 77.6568L241.554 77.6568C240.162 78.2291 236.388 79.3346 231.791 79.5016M225.49 67.7147L225.49 69.7408L220.076 71.2515L214.751 69.7408L214.751 67.7467M225.49 67.7147L221.762 66.8083L214.751 67.7467M225.49 81.9329L225.49 79.9104L220.076 78.3997L214.751 79.9104L214.751 81.9045M225.49 81.9329L221.762 82.8429L214.751 81.9045M126.533 72.6627L141.355 72.3961L130.616 68.8415L126.533 68.8415M126.533 72.6627L125.823 68.8415L126.533 68.8415M126.533 72.6627L126.533 77.1947M126.533 77.1947L125.823 81.1936L126.533 81.1936M126.533 77.1947L141.443 77.4613L130.616 81.1936L126.533 81.1936M301.996 70.3522L301.996 79.8606C305.28 78.94 311.829 76.6971 311.758 75.062C311.687 73.4269 305.219 71.2444 301.996 70.3558L301.996 70.3522Z" stroke="#010101" stroke-width="0.5"/>
<path d="M241.021 59.5107L262.853 67.6861C270.209 67.6648 282.765 67.6861 290.898 67.8567L292.23 62.2654L296.05 62.2654L309.717 72.0938C312.234 73.1992 314.155 74.3011 314.155 75.0618C314.155 75.8225 312.245 77.0559 309.717 78.236L296.05 87.6804L291.967 87.6804L290.902 81.9932C283.603 82.1247 272.676 82.2455 262.857 82.2455L241.025 90.2433L233.126 90.2433L231.795 84.4671L231.795 81.8901L140.915 81.8901L130.975 87.133L126.093 87.133L125.827 86.1555L127.78 82.601L126.537 82.6721L126.537 81.6946L125.117 82.6721L125.117 67.1423L126.537 67.8532L126.537 67.0534L127.78 67.1281L125.827 64.5652L126.093 62.8768L130.971 62.8768L140.911 67.942L231.791 67.6755L231.791 65.1873L233.122 59.5L241.021 59.5107Z" stroke="#010101" stroke-width="1.5"/>
<text fill="white" xml:space="preserve" style="white-space: pre" font-family="Roboto" font-size="11" font-weight="bold" letter-spacing="0em"><tspan x="63.6641" y="62.2598">Starship</tspan></text>
<text fill="white" xml:space="preserve" style="white-space: pre" font-family="Roboto" font-size="10" font-weight="600" letter-spacing="0em"><tspan x="82.1484" y="77.418">2012&#10;</tspan></text>
<text fill="#BBECF9" xml:space="preserve" style="white-space: pre" font-family="Roboto" font-size="10" font-weight="bold" letter-spacing="0em"><tspan x="32.6074" y="89.418">5.000 toneladas</tspan></text>
<path d="M200.493 288.261C200.666 288.078 200.689 287.976 200.493 287.794L196.9 287.794L196.9 287.607L191.325 287.514L188.792 286.021L184.461 285.928L184 285.508L181.927 285.601L177.689 285.601L177.689 285.881L163.914 285.694L152.121 285.465L127.52 282.352L126.921 281.448L126.645 281.448L126.645 282.241L126.645 282.714L126.23 282.661C125.754 284.165 125.83 284.988 126.23 286.441L126.645 286.457L126.645 288.293L126.23 288.307C125.691 289.864 125.619 290.788 126.23 292.6L126.645 292.551L126.645 293.113L126.645 294L126.921 294L127.52 293.006L152.121 289.983L163.914 289.754L177.689 289.754L177.689 290.127L181.789 290.127L184 290.267L184.461 289.94L188.792 289.94L191.325 288.447L196.9 288.447L196.9 288.261L200.493 288.261Z" fill="#D9D9D9"/>
<path d="M196.9 288.261L200.493 288.261C200.666 288.078 200.689 287.976 200.493 287.794L196.9 287.794M196.9 288.261L196.9 288.447L191.325 288.447M196.9 288.261C196.9 288.167 196.9 287.943 196.9 287.794M191.325 288.447L188.792 289.94M191.325 288.447C191.178 288.271 191.1 288.132 191.095 287.994M188.792 289.94L184.461 289.94M188.792 289.94C188.198 288.41 188.207 287.551 188.792 286.021M184.461 289.94L184 290.267L181.789 290.127M184.461 289.94L181.789 290.127M184.461 289.94C183.864 288.472 183.919 287.584 184.461 285.928M181.789 290.127L177.689 290.127L177.689 289.754M177.689 289.754L171.93 289.754M177.689 289.754C177.521 289.07 177.43 288.522 177.412 287.994M163.914 289.754L152.121 289.983M163.914 289.754L166.08 289.754M163.914 289.754C163.725 288.168 163.756 287.28 163.914 285.694M163.914 285.694L152.121 285.465M163.914 285.694L166.08 285.724M177.689 285.881L177.689 285.601L181.927 285.601M177.689 285.881L171.93 285.803M177.689 285.881C177.483 286.707 177.39 287.335 177.412 287.994M181.927 285.601L184 285.508L184.461 285.928M181.927 285.601L184.461 285.928M184.461 285.928L188.792 286.021M188.792 286.021L191.325 287.514M191.325 287.514L196.9 287.607L196.9 287.794M191.325 287.514C191.164 287.702 191.089 287.847 191.095 287.994M152.121 285.465L148.59 285.442M152.121 285.465L136.089 283.436M152.121 285.465C151.422 287.107 151.448 288.101 152.121 289.983M126.645 282.714L126.23 282.661C125.754 284.165 125.83 284.988 126.23 286.441L126.645 286.457M126.645 282.714L126.645 282.241L126.645 281.448L126.921 281.448L127.52 282.352L129.823 282.644M126.645 282.714L129.823 283.119M152.121 289.983L148.524 289.983M152.121 289.983L136.089 291.953M126.645 292.551L126.23 292.6C125.619 290.788 125.691 289.864 126.23 288.307L126.645 288.293M126.645 292.551L126.645 293.113L126.645 294L126.921 294L127.52 293.006L129.823 292.723M126.645 292.551L129.823 292.178M126.645 286.457L126.645 288.293M126.645 286.457L129.823 286.428M126.645 288.293L129.823 288.414M171.93 285.803C171.414 287.278 171.431 288.145 171.93 289.754M171.93 285.803L168.89 285.762M171.93 289.754L168.89 289.754M168.89 285.762C168.553 287.219 168.561 288.096 168.89 289.754M168.89 285.762L166.08 285.724M168.89 289.754L166.08 289.754M166.08 285.724C165.801 287.252 165.757 288.127 166.08 289.754M148.59 285.442V285.442C149.08 285.538 149.01 286.259 148.511 286.259L148.389 286.259M148.59 285.442L136.089 283.917M148.524 289.983V289.983C149.028 289.906 149.004 289.171 148.495 289.128L148.389 289.119M148.524 289.983L136.089 291.443M136.089 283.436C136.007 283.648 136.014 283.751 136.089 283.917M136.089 283.436L129.823 282.644M136.089 283.917C135.482 284.876 135.51 285.413 136.089 286.371M136.089 283.917L129.823 283.119M136.089 286.371C135.745 287.228 135.665 287.72 136.089 288.652M136.089 286.371L129.823 286.428M136.089 286.371L148.389 286.259M136.089 288.652L136.119 288.653M136.089 288.652L129.823 288.414M136.089 291.443C136.032 291.571 136.035 291.849 136.089 291.953M136.089 291.443C135.389 291.108 135.372 289.33 136.119 288.653M136.089 291.443L129.823 292.178M136.089 291.953L129.823 292.723M136.119 288.653L148.389 289.119M129.823 282.644C129.705 282.838 129.701 282.942 129.823 283.119M129.823 283.119C128.879 284.331 128.984 285.065 129.823 286.428M129.823 286.428C129.373 287.204 129.391 287.638 129.823 288.414M129.823 288.414C128.761 289.92 128.66 290.748 129.823 292.178M129.823 292.178C129.706 292.406 129.705 292.525 129.823 292.723M148.389 286.259C148.133 287.439 148.155 288.06 148.389 289.119M191.095 287.994L177.412 287.994" stroke="black" stroke-width="0.5"/>
<path d="M200.493 288.261C200.666 288.078 200.689 287.976 200.493 287.794L196.9 287.794L196.9 287.607L191.325 287.514L188.792 286.021L184.461 285.928L184 285.508L181.927 285.601L177.689 285.601L177.689 285.881L163.914 285.694L152.121 285.465L127.52 282.352L126.921 281.448L126.645 281.448L126.645 282.241L126.645 282.714L126.23 282.661C125.754 284.165 125.83 284.988 126.23 286.441L126.645 286.457L126.645 288.293L126.23 288.307C125.691 289.864 125.619 290.788 126.23 292.6L126.645 292.551L126.645 293.113L126.645 294L126.921 294L127.52 293.006L152.121 289.983L163.914 289.754L177.689 289.754L177.689 290.127L181.789 290.127L184 290.267L184.461 289.94L188.792 289.94L191.325 288.447L196.9 288.447L196.9 288.261L200.493 288.261Z" stroke="black" stroke-width="1.5"/>
<text transform="translate(56 118.5)" fill="white" xml:space="preserve" style="white-space: pre" font-family="Roboto" font-size="11" font-weight="bold" letter-spacing="0em"><tspan x="0.112305" y="10.2598">Saturno V</tspan></text>
<text transform="translate(32 134.5)" fill="white" xml:space="preserve" style="white-space: pre" font-family="Roboto" font-size="10" font-weight="600" letter-spacing="0em"><tspan x="23.625" y="9.41797">1967-1973&#10;</tspan></text>
<text transform="translate(32 134.5)" fill="#BBECF9" xml:space="preserve" style="white-space: pre" font-family="Roboto" font-size="10" font-weight="bold" letter-spacing="0em"><tspan x="0.607422" y="21.418">3.000 toneladas</tspan></text>
<text fill="white" xml:space="preserve" style="white-space: pre" font-family="Roboto" font-size="11" font-weight="bold" letter-spacing="0em"><tspan x="74.793" y="278.76">Soyuz</tspan></text>
<text fill="white" xml:space="preserve" style="white-space: pre" font-family="Roboto" font-size="10" font-weight="600" letter-spacing="0em"><tspan x="82.1484" y="290.418">1967&#10;</tspan></text>
<text fill="#BBECF9" xml:space="preserve" style="white-space: pre" font-family="Roboto" font-size="10" font-weight="bold" letter-spacing="0em"><tspan x="41.25" y="302.418">308 toneladas</tspan></text>
<text fill="white" xml:space="preserve" style="white-space: pre" font-family="Roboto" font-size="11" font-weight="bold" letter-spacing="0em"><tspan x="9.13672" y="204.26">Transbordador STS&#10;</tspan></text>
<text fill="white" xml:space="preserve" style="white-space: pre" font-family="Roboto" font-size="10" font-weight="600" letter-spacing="0em"><tspan x="55.625" y="220.418">1981-2011&#10;</tspan></text>
<text fill="#BBECF9" xml:space="preserve" style="white-space: pre" font-family="Roboto" font-size="10" font-weight="bold" letter-spacing="0em"><tspan x="32.6074" y="232.418">2.030 toneladas</tspan></text>
<text transform="translate(314.233 67.4556)" fill="white" xml:space="preserve" style="white-space: pre" font-family="Roboto" font-size="12" font-weight="600" letter-spacing="0em"><tspan x="0.0078125" y="11.1016">119 m</tspan></text>
<text transform="translate(300.233 134)" fill="white" xml:space="preserve" style="white-space: pre" font-family="Roboto" font-size="12" font-weight="600" letter-spacing="0em"><tspan x="0.0078125" y="11.1016">110 m</tspan></text>
<text transform="translate(207.233 207)" fill="white" xml:space="preserve" style="white-space: pre" font-family="Roboto" font-size="12" font-weight="600" letter-spacing="0em"><tspan x="0.435547" y="11.1016">56 m</tspan></text>
<text transform="translate(202.233 279.5)" fill="white" xml:space="preserve" style="white-space: pre" font-family="Roboto" font-size="12" font-weight="600" letter-spacing="0em"><tspan x="0.0957031" y="11.1016">45,6 m</tspan></text>
<path d="M111 120.5L111 161.5" stroke="white"/>
<path d="M111 120.5L111 161.5" stroke="white"/>
<path d="M111 266.5L111 307.5" stroke="white"/>
<path d="M111 190.5L111 240.5" stroke="white"/>
<path d="M111 54.5L111 92" stroke="white"/>
<path d="M122 141.5H111" stroke="white"/>
<path d="M122 141.5H111" stroke="white"/>
<path d="M122 287.5H111" stroke="white"/>
<path d="M122 215.5H111" stroke="white"/>
<path d="M122 75.5H111" stroke="white"/>
</svg>
