<svg width="367" height="390" viewBox="0 0 367 390" fill="none" xmlns="http://www.w3.org/2000/svg">
<g filter="url(#filter0_d_75_295)">
<path d="M193.467 379.85L181.261 376.127V150.316L177.6 149.513L175.546 134.992L185.499 134.044V129.463L178.63 129.202V113.541H175.883V109.578H185.499V106.281H184.125V96.7604C184.125 96.7604 175.21 97.8457 175.546 97.7701V86.2374L185.499 84.8362V79.0184L176.062 79.3618V77.624L185.499 76.2571V66.6202L176.192 66.9637V65.2121L185.499 63.859V55.4379L183.782 55.795V51.1724C183.782 51.1724 188.934 49.6338 191.681 49.2491V45.5606H194.896V14.8709H196.787V0H199.924V14.8709H202.19V45.5606H206.106V49.256C206.106 49.256 211.793 50.2313 213.414 51.193V55.7882L212.287 55.4653V63.7353L221.519 65.2053V67.3071L212.287 66.6065V76.1609L221.389 77.6171V79.719L212.287 79.0252V85.0491L220.873 86.2374V98.8829C220.873 98.8829 215.035 96.9321 213.661 96.9802V106.274H212.287V109.571H221.217V113.534H218.25V129.195L212.287 129.511V134.36L220.873 134.985L219.122 149.506L215.722 150.337V376.216L193.467 379.85Z" fill="#D9D9D9" fill-opacity="0.4"/>
</g>
<text fill="#BBECF9" xml:space="preserve" style="white-space: pre" font-family="Assistant" font-size="15" font-weight="bold" letter-spacing="0em"><tspan x="7.01562" y="170.505">119 m</tspan></text>
<text fill="#BBECF9" xml:space="preserve" style="white-space: pre" font-family="Assistant" font-size="15" font-weight="bold" letter-spacing="0em"><tspan x="314.556" y="69.505">127,3 m</tspan></text>
<text fill="white" xml:space="preserve" style="white-space: pre" font-family="Assistant" font-size="13.9258" font-weight="bold" letter-spacing="0em"><tspan x="279.67" y="47.0263">TORRE ENTEL</tspan></text>
<path d="M211.618 53H366.068" stroke="#BBECF9"/>
<circle r="1.89898" transform="matrix(-1 0 0 1 211.618 52.5384)" fill="#BBECF9"/>
<path d="M151.706 369.858L161.494 350.625L161.068 206.038L159.262 194.189L161.027 187.149V174.785H166.35V176.845H170.3V174.785H180.26V176.845H183.694C183.522 176.159 183.282 174.785 183.694 174.785H188.502L188.674 187.149C188.955 189.539 189.471 191.902 190.219 194.189L188.502 205.351V350.625L198.634 369.858V379.302L196.745 379.818L189.876 376.04L190.013 378.444H188.124L190.013 381.191H159.921L161.295 378.444H159.749L159.894 376.04L154.941 379.818L151.679 379.302L151.706 369.858Z" fill="#B2B2B2"/>
<path d="M145.174 156.926L160.972 114.683C160.931 100.451 160.972 76.1561 161.302 60.4197L150.497 57.8439V50.4531L169.489 24.0083C171.625 19.1384 173.755 15.4224 175.225 15.4224C176.695 15.4224 179.078 19.1178 181.358 24.0083L199.609 50.4531V58.3522L188.619 60.4128C188.873 74.535 189.106 95.6771 189.106 114.676L204.561 156.919V172.202L193.399 174.778H183.989V176.839H180.211V174.778H170.252V176.839H166.302V174.778H156.171L145.181 172.202L145.174 156.926Z" fill="#DADADA"/>
<path d="M160.979 114.683L145.181 156.926V172.209L156.171 174.785M160.979 114.683C160.938 100.451 160.979 76.1561 161.309 60.4197M160.979 114.683L164.242 168.603L160.979 174.785M160.979 114.683L156.171 174.785M189.141 114.683L204.596 156.926V172.209L193.434 174.785M189.141 114.683C189.141 95.6771 188.907 74.535 188.653 60.4197M189.141 114.683L186.222 168.603L188.454 174.785M189.141 114.683L193.434 174.785M156.171 174.785H160.979M160.979 174.785H166.474M160.979 174.785V186.977M161.46 350.625L151.672 369.858V379.302L154.934 379.818L159.887 376.04M161.46 350.625L159.887 376.04M161.46 350.625L161.041 207.755M188.42 350.625L198.551 369.858V379.302L196.662 379.818L189.793 376.04M188.42 350.625L189.793 376.04M188.42 350.625V207.755M188.42 174.785H193.399M188.42 174.785H183.742M188.42 174.785L188.475 186.977M169.496 24.0083C166.117 31.7082 162.744 42.2861 162.009 45.645C161.693 47.0874 161.467 52.7335 161.322 60.4128M169.51 24.0083C171.646 19.1384 173.775 15.4224 175.245 15.4224C176.715 15.4224 179.099 19.1178 181.379 24.0083M169.51 24.0083L150.518 50.4531V57.837L161.322 60.4128M181.379 24.0083C184.813 31.3304 188.09 41.3245 188.296 45.645C188.406 48.049 188.543 53.3586 188.667 60.4128M181.379 24.0083L199.629 50.4531V58.3522L188.639 60.4128M159.921 376.04L159.777 378.444H161.322M189.862 376.04L189.999 378.444H188.11M161.322 378.444L159.949 381.191H190.027L188.138 378.444M161.35 378.444H163.239M188.138 378.444H187.108M166.501 174.785C166.824 165.89 168.96 158.588 170.073 155.896V174.785M166.501 174.785C166.501 175.52 166.501 176.262 166.501 177.017H170.107V174.785M170.107 174.785H180.239M180.239 174.785V177.017H183.845C183.845 176.262 183.845 175.52 183.804 174.785M180.239 174.785V155.896C181.345 158.588 183.481 165.89 183.804 174.785M161.027 186.977H164.942L167.861 197.452L164.942 207.755H161.089M161.027 186.977L159.275 194.189L161.089 207.755M188.502 186.977H184.594L181.674 197.452L184.594 207.755H188.447M188.502 186.977L190.26 194.189L188.447 207.755M170.588 378.444L170.073 349.767L163.204 370.545V378.444M170.588 378.444L163.204 379.818V378.444M170.588 378.444H179.346M179.346 378.444L187.073 379.818V378.444M179.346 378.444L179.861 349.595L187.073 370.545V378.444M166.124 38.9479H184.498C182.718 32.5943 178.384 19.9214 175.225 20.0588C172.065 20.1962 167.848 32.7111 166.13 38.9479H166.124Z" stroke="#010101" stroke-width="0.632992"/>
<path d="M145.174 156.926L160.972 114.683C160.931 100.451 160.972 76.156 161.302 60.4197L150.497 57.8439V50.4531L169.489 24.0083C171.626 19.1384 173.755 15.4224 175.225 15.4224C176.695 15.4224 179.078 19.1178 181.359 24.0083L199.609 50.4531V58.3522L188.619 60.4128C188.873 74.535 189.107 95.6771 189.107 114.676L204.561 156.919V172.202L193.4 174.778H188.42V350.618L198.551 369.851V379.296L196.662 379.811L189.793 376.033L189.931 378.437H188.042L189.931 381.184H159.921L161.295 378.437H159.749L159.894 376.033L154.941 379.811L151.679 379.296V369.858L161.467 350.625L160.951 174.785H156.143L145.153 172.209L145.174 156.926Z" stroke="#010101" stroke-width="1.89898"/>
<text fill="white" xml:space="preserve" style="white-space: pre" font-family="Assistant" font-size="12" letter-spacing="0em"><tspan x="8.427" y="285.857">Propulsor de lanzamiento </tspan><tspan x="8.427" y="301.857">potenciado por 33 </tspan><tspan x="8.427" y="317.857">motores Raptor</tspan></text>
<text fill="white" xml:space="preserve" style="white-space: pre" font-family="Assistant" font-size="13.9258" font-weight="bold" letter-spacing="0em"><tspan x="7.16113" y="266.042">SUPERHEAVY</tspan></text>
<path d="M162.244 270.288H7.79395" stroke="#BBECF9"/>
<circle cx="162.244" cy="270.288" r="1.89898" fill="#BBECF9"/>
<text fill="white" xml:space="preserve" style="white-space: pre" font-family="Assistant" font-size="12" letter-spacing="0em"><tspan x="7" y="135.404">Transporte de </tspan><tspan x="7" y="151.404">carga y pasajeros</tspan></text>
<text fill="white" xml:space="preserve" style="white-space: pre" font-family="Assistant" font-size="13.9258" font-weight="bold" letter-spacing="0em"><tspan x="5.89502" y="115.39">STARSHIP</tspan></text>
<path d="M160.978 119.635H6.52808" stroke="#BBECF9"/>
<circle cx="160.978" cy="119.636" r="1.89898" fill="#BBECF9"/>
<defs>
<filter id="filter0_d_75_295" x="170.473" y="0" width="56.1098" height="389.978" filterUnits="userSpaceOnUse" color-interpolation-filters="sRGB">
<feFlood flood-opacity="0" result="BackgroundImageFix"/>
<feColorMatrix in="SourceAlpha" type="matrix" values="0 0 0 0 0 0 0 0 0 0 0 0 0 0 0 0 0 0 127 0" result="hardAlpha"/>
<feOffset dy="5.06394"/>
<feGaussianBlur stdDeviation="2.53197"/>
<feComposite in2="hardAlpha" operator="out"/>
<feColorMatrix type="matrix" values="0 0 0 0 0 0 0 0 0 0 0 0 0 0 0 0 0 0 0.25 0"/>
<feBlend mode="normal" in2="BackgroundImageFix" result="effect1_dropShadow_75_295"/>
<feBlend mode="normal" in="SourceGraphic" in2="effect1_dropShadow_75_295" result="shape"/>
</filter>
</defs>
</svg>
