<svg width="349" height="344" viewBox="0 0 349 344" fill="none" xmlns="http://www.w3.org/2000/svg">
<path fill-rule="evenodd" clip-rule="evenodd" d="M128.732 129.562V152.615L129.912 160.891V238.039L132.567 245.352L136.406 246.683L131.387 247.496H129.912C130.306 248.789 130.239 249.442 129.763 250.524L131.682 256.733H115.687L117.681 250.524C117.33 249.555 117.253 248.507 117.457 247.496H115.392L111.261 246.683L114.816 245.352L117.471 238.039V160.891L118.726 152.615V129.562H128.732ZM122.657 247.496H120.037C120.352 248.491 120.3 249.565 119.892 250.524L121.292 254.22L122.657 250.524C122.255 249.31 122.213 248.643 122.657 247.496ZM127.047 247.496H127.491C127.111 248.959 127.203 249.598 127.712 250.524L126.311 254.22L124.822 250.524C125.348 249.541 125.408 248.884 125.042 247.496H127.047Z" fill="#B2B2B2"/>
<path d="M122.767 82.787C122.861 82.5965 123.009 82.4382 123.194 82.3326C123.378 82.227 123.59 82.1788 123.802 82.1941C124.005 82.1694 124.211 82.2146 124.386 82.3223C124.56 82.4301 124.693 82.594 124.761 82.787V92.979L126.311 93.6713L125.398 94.8605L124.761 94.6617V96.8982L126.311 102.369V110.938L129.336 129.562H118.342L121.218 110.938V102.369L122.767 96.8982V94.6617L122.227 94.8605L121.218 93.6713L122.767 92.979V82.787Z" fill="#DADADA"/>
<path d="M124.761 96.8982L126.311 102.369M124.761 96.8982H122.767M124.761 96.8982V101.094M124.761 96.8982V94.5623M126.311 102.372H121.217M126.311 102.372V104.502M126.311 110.931V104.509M126.311 110.938H121.217M126.311 110.938L129.18 128.6M128.824 129.562H129.34L129.183 128.6M128.828 129.562H118.779M128.817 129.562V132.075M128.817 152.626V147.401M128.817 152.615L129.357 156.403M128.817 152.615H123.812M130.001 160.891L129.361 156.403M130.001 160.891H123.812M130.001 160.891V166.989M130.001 238.039L132.656 245.352M130.001 238.039V230.513M130.001 238.039H127.975M130.001 238.039L129.123 246.683M132.656 245.352L136.495 246.683L131.476 247.496M132.656 245.366L131.476 247.496M131.476 247.496H130.001M130.001 247.496C130.395 248.789 130.328 249.442 129.851 250.524M130.001 247.496H129.041M129.851 250.524L131.771 256.733H126.386M129.851 250.524C129.179 250.732 128.459 250.732 127.786 250.524M117.748 250.524L115.758 256.733H121.367M117.748 250.524C117.398 249.554 117.322 248.507 117.528 247.496M117.748 250.524C118.472 250.732 119.239 250.732 119.963 250.524M117.528 247.496H115.463M117.528 247.496H118.779M115.459 247.496L111.314 246.683L114.869 245.352M115.459 247.482L114.869 245.352M114.869 245.352L117.524 238.039M117.524 238.039V230.513M117.524 238.039H119.746M117.524 238.039L118.672 246.683M117.524 160.891L118.207 156.403M117.524 160.891H123.809M117.524 160.891V166.989M118.779 152.615V147.401M118.779 152.615L118.207 156.403M118.779 152.615H123.809M118.779 129.562H118.338L118.484 128.6M118.779 129.562V132.075M121.214 110.949V104.509M121.214 110.938L118.484 128.6M121.214 102.369L122.764 96.8982M121.214 102.369V104.499M122.764 96.8876V101.084M122.764 96.8876V94.5517M121.214 104.492H126.307M117.524 186.958H129.997M117.524 186.958V166.972M117.524 186.958V187.668M129.997 186.958V166.972M129.997 186.958V187.668M117.524 203.16V187.668M117.524 203.16H119.845M117.524 203.16V223.488M129.997 203.16V187.668M129.997 203.16H127.971M129.997 203.16V223.488M129.037 247.496H127.562M129.037 247.496L129.119 246.683M118.779 247.496H120.108M118.779 247.496L118.672 246.683M123.755 238.039V230.513M123.755 238.039H127.967M123.755 238.039H119.749M123.762 238.039L120.627 246.683M123.755 238.039L126.826 246.683M120.325 247.496H122.725M120.325 247.496H120.105M120.325 247.496L120.62 246.683M127.114 247.496H127.559M127.114 247.496H125.124M127.114 247.496L126.826 246.683M127.559 247.496C127.178 248.959 127.271 249.598 127.779 250.524M127.779 250.524L126.379 254.22M126.379 254.22L124.9 250.524M126.379 254.22V256.733M124.9 250.524C125.43 249.541 125.49 248.884 125.124 247.496M124.9 250.524C124.184 250.69 123.44 250.69 122.725 250.524M125.124 247.496H122.725M122.725 247.496C122.28 248.643 122.323 249.31 122.725 250.524M122.725 250.524L121.36 254.22M121.36 254.22L119.956 250.524M121.36 254.22V256.733M119.956 250.524C120.366 249.565 120.418 248.491 120.105 247.496M121.36 256.726H126.386M122.767 92.979V82.787C122.861 82.5965 123.009 82.4382 123.194 82.3326C123.378 82.227 123.59 82.1788 123.802 82.1941C124.005 82.1694 124.211 82.2146 124.386 82.3223C124.56 82.4301 124.693 82.594 124.761 82.787V92.979M122.767 92.979L121.217 93.6713L122.227 94.8605L122.767 94.5623M122.767 92.979V94.5623M124.761 92.979L126.311 93.6713L125.398 94.8605L124.761 94.5623M124.761 92.979V94.5623M121.623 102.678V104.162M125.98 102.678V104.162M122.756 102.678V104.162M124.751 102.678V104.162M123.802 102.678V104.162M118.47 128.6H129.162M118.779 132.075H128.817M118.779 132.075V147.411M128.821 132.075V147.411M118.783 147.411H128.821M118.21 156.403H129.361M123.812 152.615V160.891M117.528 166.989H130.001M117.528 187.668H119.845M129.997 187.668H127.971M119.845 187.668V203.16M119.845 187.668H123.809M119.845 203.16H123.809M123.809 187.668V203.16M123.809 187.668H127.971M123.809 203.16H127.971M127.971 187.668V203.16M117.524 230.495H119.746M117.524 230.495V223.488M129.997 230.513H127.971M129.997 230.513V223.488M123.755 230.513H127.967M123.755 230.513H119.749M127.975 230.513V238.039M127.975 238.039V246.683M119.749 230.513V238.039M119.749 238.039V246.683M117.528 223.488H130.001M118.676 246.683H120.627M126.834 246.683H129.123" stroke="#010101" stroke-width="0.5"/>
<path d="M123.802 82.1941C123.59 82.1788 123.378 82.227 123.194 82.3326C123.009 82.4383 122.861 82.5965 122.767 82.787V92.979L121.217 93.6713L122.227 94.8605L122.767 94.6617V96.8982L121.217 102.369V110.938L118.342 129.562H118.779V152.615L117.524 160.891V238.039L114.869 245.352L111.314 246.683L115.448 247.496H117.514C117.308 248.507 117.384 249.554 117.734 250.524L115.743 256.733H131.757L129.837 250.524C130.313 249.459 130.381 248.789 129.986 247.496H131.462L136.481 246.683L132.642 245.352L129.986 238.039V160.891L128.806 152.615V129.562H129.322L126.297 110.938V102.369L124.747 96.8982V94.6617L125.483 94.8605L126.297 93.6713L124.747 92.979V82.787C124.679 82.5966 124.549 82.4346 124.377 82.3271C124.206 82.2196 124.003 82.1728 123.802 82.1941V82.1941Z" stroke="#010101" stroke-width="1.5"/>
<path d="M120.151 247.684H122.742C122.742 247.684 122.088 249.459 122.742 250.574L121.445 254.216L119.991 250.709C120.236 250.247 120.377 249.737 120.405 249.214C120.432 248.692 120.346 248.17 120.151 247.684Z" stroke="#010101" stroke-width="1.67"/>
<path d="M125.067 247.684H127.665C127.665 247.684 127.015 249.459 127.665 250.574L126.372 254.216L124.914 250.709C125.158 250.246 125.298 249.736 125.324 249.214C125.351 248.691 125.263 248.169 125.067 247.684Z" stroke="#010101" stroke-width="1.67"/>
<path d="M226.019 245.076H223.883V249.964H226.019V245.076Z" fill="#DADADA"/>
<path d="M232.051 230.84V199.11C232.051 199.11 231.781 196.888 234.149 192.514C234.202 192.414 234.282 192.33 234.379 192.271C234.476 192.212 234.587 192.179 234.7 192.177C234.814 192.175 234.926 192.203 235.025 192.259C235.125 192.314 235.207 192.395 235.265 192.493C237.465 196.235 237.419 199.107 237.419 199.107V235.874" fill="#B2B2B2"/>
<path d="M232.051 230.84V199.11C232.051 199.11 231.781 196.888 234.149 192.514C234.202 192.414 234.282 192.33 234.379 192.271C234.476 192.212 234.587 192.179 234.7 192.177C234.814 192.175 234.926 192.203 235.025 192.259C235.125 192.314 235.207 192.395 235.265 192.493C237.465 196.235 237.419 199.107 237.419 199.107V235.874" stroke="#1D1D1B" stroke-width="0.5" stroke-miterlimit="10"/>
<path d="M218.039 231.831V199.089C218.039 199.089 218.309 196.867 215.942 192.493C215.888 192.393 215.808 192.309 215.711 192.25C215.614 192.192 215.503 192.159 215.389 192.158C215.276 192.156 215.164 192.184 215.065 192.24C214.966 192.296 214.883 192.377 214.826 192.475C212.626 196.214 212.672 199.085 212.672 199.085V235.853" fill="#B2B2B2"/>
<path d="M218.039 231.831V199.089C218.039 199.089 218.309 196.867 215.942 192.493C215.888 192.393 215.808 192.309 215.711 192.25C215.614 192.192 215.503 192.159 215.389 192.158C215.276 192.156 215.164 192.184 215.065 192.24C214.966 192.296 214.883 192.377 214.826 192.475C212.626 196.214 212.672 199.085 212.672 199.085V235.853" stroke="#1D1D1B" stroke-width="0.5" stroke-miterlimit="10"/>
<path d="M231.33 225.931L231.237 190.651C231.237 190.651 231.095 182.841 225.714 177.306C225.622 177.21 225.512 177.132 225.39 177.08C225.268 177.027 225.136 177 225.003 177C224.87 177 224.738 177.027 224.616 177.08C224.493 177.132 224.383 177.21 224.292 177.306C218.924 182.841 218.764 190.651 218.764 190.651L218.668 225.923" fill="#B2B2B2"/>
<path d="M231.33 225.931L231.237 190.651C231.237 190.651 231.095 182.841 225.714 177.306C225.622 177.21 225.512 177.132 225.39 177.08C225.268 177.027 225.136 177 225.003 177C224.87 177 224.738 177.027 224.616 177.08C224.493 177.132 224.383 177.21 224.292 177.306C218.924 182.841 218.764 190.651 218.764 190.651L218.668 225.923" stroke="#1D1D1B" stroke-width="0.5" stroke-miterlimit="10"/>
<path d="M218.238 245.438H212.494V247.731H218.238V245.438Z" fill="#DADADA" stroke="#1D1D1B" stroke-width="0.5" stroke-miterlimit="10"/>
<path d="M216.657 247.731L217.705 252.197H213.027L214.065 247.731H216.657Z" fill="#DADADA" stroke="#1D1D1B" stroke-width="0.5" stroke-miterlimit="10"/>
<path d="M218.953 245.438H220.659V213.041L218.668 225.931C218.238 230.233 216.891 231.543 216.891 231.543C216.891 231.543 209.59 238.998 208.193 240.478C207.401 241.313 207.106 242.797 206.999 243.922C206.948 244.426 206.929 244.932 206.942 245.438H218.96" fill="#DADADA"/>
<path d="M218.953 245.438H220.659V213.041L218.668 225.931C218.238 230.233 216.891 231.543 216.891 231.543C216.891 231.543 209.59 238.998 208.193 240.478C207.401 241.313 207.106 242.797 206.999 243.922C206.948 244.426 206.929 244.932 206.942 245.438H218.96" stroke="#1D1D1B" stroke-width="0.5" stroke-miterlimit="10"/>
<path d="M231.085 245.321H229.378V212.93L231.369 225.82C231.799 230.123 233.146 231.437 233.146 231.437C233.146 231.437 240.447 238.892 241.844 240.368C242.637 241.206 242.932 242.687 243.038 243.812C243.09 244.315 243.109 244.822 243.095 245.328H231.085" fill="#DADADA"/>
<path d="M231.085 245.321H229.378V212.93L231.369 225.82C231.799 230.123 233.146 231.437 233.146 231.437C233.146 231.437 240.447 238.892 241.844 240.368C242.637 241.206 242.932 242.687 243.038 243.812C243.09 244.315 243.109 244.822 243.095 245.328H231.085" stroke="#1D1D1B" stroke-width="0.5" stroke-miterlimit="10"/>
<path d="M229.361 245.189V211.177C229.361 211.177 228.38 202.614 225.706 200.143C225.518 199.967 225.268 199.869 225.01 199.869C224.751 199.869 224.502 199.967 224.313 200.143C221.64 202.607 220.659 211.148 220.659 211.148V245.161L229.361 245.189Z" fill="#DADADA" stroke="#1D1D1B" stroke-width="0.5" stroke-miterlimit="10"/>
<path d="M219.184 243.918H206.978" stroke="#010101" stroke-width="0.5" stroke-miterlimit="10"/>
<path d="M219.93 249.925L220.659 254.387H229.538L230.139 249.964" fill="#B2B2B2"/>
<path d="M219.93 249.925L220.659 254.387H229.538L230.139 249.964" stroke="#1D1D1B" stroke-width="0.5" stroke-miterlimit="10"/>
<path d="M223.943 241.543V249.936H219.102C219.102 249.936 217.705 244.667 220.577 241.554L223.943 241.543Z" fill="#DADADA" stroke="#1D1D1B" stroke-width="0.5" stroke-miterlimit="10"/>
<path d="M220.659 249.925L219.756 251.87L222.383 252.364V249.925H220.659Z" fill="#DADADA" stroke="#1D1D1B" stroke-width="0.5" stroke-miterlimit="10"/>
<path d="M225.955 241.533V249.914H230.797C230.797 249.914 232.19 244.646 229.318 241.533H225.955Z" fill="#DADADA" stroke="#1D1D1B" stroke-width="0.5" stroke-miterlimit="10"/>
<path d="M229.236 249.914L230.139 251.86L227.512 252.35V249.914H229.236Z" fill="#DADADA" stroke="#1D1D1B" stroke-width="0.5" stroke-miterlimit="10"/>
<path d="M223.421 249.964L222.714 252.772H227.342L226.73 249.925" fill="#DADADA"/>
<path d="M223.421 249.964L222.714 252.772H227.342L226.73 249.925" stroke="#1D1D1B" stroke-width="0.5" stroke-miterlimit="10"/>
<path d="M224.583 240.912H225.579L225.337 256.461H224.86L224.583 240.912Z" fill="#DADADA" stroke="#1D1D1B" stroke-width="0.5" stroke-miterlimit="10"/>
<path d="M218.754 193.452H231.244" stroke="#010101" stroke-width="0.5" stroke-miterlimit="10"/>
<path d="M222.301 209.97L221.946 209.892L222.198 208.688L222.554 208.763C222.613 208.775 222.669 208.799 222.719 208.833C222.769 208.867 222.811 208.91 222.844 208.961C222.877 209.011 222.9 209.068 222.911 209.127C222.922 209.186 222.922 209.247 222.909 209.306L222.845 209.618C222.833 209.677 222.81 209.734 222.776 209.784C222.742 209.834 222.698 209.876 222.648 209.909C222.597 209.942 222.54 209.964 222.481 209.974C222.421 209.985 222.36 209.983 222.301 209.97V209.97Z" stroke="#010101" stroke-width="0.5" stroke-miterlimit="10"/>
<path d="M227.885 210.059L228.241 209.984L227.988 208.781L227.633 208.855C227.514 208.881 227.41 208.952 227.344 209.054C227.277 209.155 227.253 209.279 227.278 209.398L227.345 209.711C227.357 209.769 227.381 209.825 227.415 209.874C227.449 209.923 227.492 209.965 227.542 209.997C227.593 210.03 227.649 210.052 227.708 210.062C227.767 210.073 227.827 210.072 227.885 210.059V210.059Z" stroke="#010101" stroke-width="0.5" stroke-miterlimit="10"/>
<path d="M227.338 208.418L227.654 208.063L227.018 207.474L226.705 207.811C226.673 207.846 226.647 207.886 226.63 207.93C226.613 207.974 226.606 208.022 226.607 208.069C226.609 208.116 226.62 208.163 226.64 208.206C226.66 208.249 226.688 208.287 226.723 208.319L226.84 208.426C226.908 208.49 226.998 208.525 227.091 208.523C227.184 208.522 227.273 208.484 227.338 208.418Z" stroke="#010101" stroke-width="0.5" stroke-miterlimit="10"/>
<path d="M222.82 208.536L222.5 208.181L223.137 207.591L223.453 207.929C223.485 207.963 223.51 208.003 223.526 208.047C223.542 208.091 223.55 208.138 223.548 208.185C223.546 208.232 223.534 208.278 223.514 208.32C223.494 208.363 223.466 208.401 223.432 208.433L223.318 208.539C223.251 208.604 223.161 208.64 223.068 208.639C222.975 208.638 222.886 208.601 222.82 208.536Z" fill="#DADADA" stroke="#1D1D1B" stroke-width="0.5" stroke-miterlimit="10"/>
<path d="M223.833 207.659L223.773 207.194L224.633 207.08L224.693 207.534C224.7 207.581 224.698 207.629 224.686 207.675C224.675 207.72 224.654 207.763 224.626 207.801C224.597 207.839 224.562 207.87 224.521 207.894C224.48 207.918 224.435 207.933 224.388 207.939L224.231 207.96C224.139 207.973 224.045 207.948 223.97 207.891C223.896 207.835 223.846 207.751 223.833 207.659Z" stroke="#010101" stroke-width="0.5" stroke-miterlimit="10"/>
<path d="M226.364 207.691L226.428 207.226L225.568 207.109L225.504 207.566C225.497 207.613 225.499 207.661 225.511 207.707C225.523 207.753 225.544 207.796 225.573 207.834C225.602 207.872 225.638 207.903 225.679 207.927C225.72 207.95 225.766 207.966 225.813 207.971L225.97 207.989C226.061 208 226.154 207.975 226.227 207.92C226.301 207.864 226.35 207.782 226.364 207.691V207.691Z" stroke="#010101" stroke-width="0.5" stroke-miterlimit="10"/>
<path d="M224.501 211.791H223.975C223.927 211.791 223.881 211.772 223.847 211.738C223.813 211.704 223.794 211.658 223.794 211.61V211.07C223.794 211.046 223.798 211.022 223.807 211C223.816 210.977 223.829 210.957 223.846 210.94C223.863 210.923 223.883 210.909 223.905 210.9C223.927 210.89 223.951 210.886 223.975 210.886H224.516C224.564 210.886 224.61 210.905 224.644 210.939C224.678 210.973 224.697 211.019 224.697 211.067V211.596C224.699 211.622 224.696 211.648 224.687 211.673C224.677 211.697 224.663 211.72 224.644 211.738C224.626 211.757 224.603 211.771 224.579 211.78C224.554 211.789 224.528 211.793 224.501 211.791V211.791Z" stroke="#010101" stroke-width="0.5" stroke-miterlimit="10"/>
<path d="M226.14 211.791H225.6C225.552 211.791 225.506 211.772 225.472 211.738C225.438 211.704 225.419 211.658 225.419 211.61V211.07C225.419 211.022 225.438 210.976 225.472 210.942C225.506 210.908 225.552 210.889 225.6 210.889H226.14C226.188 210.889 226.234 210.908 226.268 210.942C226.302 210.976 226.321 211.022 226.321 211.07V211.596C226.324 211.621 226.321 211.646 226.313 211.67C226.305 211.694 226.292 211.716 226.275 211.734C226.258 211.753 226.237 211.767 226.214 211.777C226.19 211.787 226.165 211.791 226.14 211.791V211.791Z" stroke="#010101" stroke-width="0.5" stroke-miterlimit="10"/>
<path d="M220.659 212.579H229.361" stroke="#010101" stroke-width="0.5" stroke-miterlimit="10"/>
<path d="M220.659 219.59H229.361" stroke="#010101" stroke-width="0.5" stroke-miterlimit="10"/>
<path d="M220.659 226.438H229.361" stroke="#010101" stroke-width="0.5" stroke-miterlimit="10"/>
<path d="M220.659 233.272H229.361" stroke="#010101" stroke-width="0.5" stroke-miterlimit="10"/>
<path d="M220.659 240.191H229.361" stroke="#010101" stroke-width="0.5" stroke-miterlimit="10"/>
<path d="M212.672 199.085H218.039" stroke="#010101" stroke-width="0.5" stroke-miterlimit="10"/>
<path d="M212.672 204.279H218.039" stroke="#010101" stroke-width="0.5" stroke-miterlimit="10"/>
<path d="M212.672 209.373H218.039" stroke="#010101" stroke-width="0.5" stroke-miterlimit="10"/>
<path d="M212.672 214.553H218.05" stroke="#010101" stroke-width="0.5" stroke-miterlimit="10"/>
<path d="M212.672 219.59H218.039" stroke="#010101" stroke-width="0.5" stroke-miterlimit="10"/>
<path d="M212.672 224.748H218.039" stroke="#010101" stroke-width="0.5" stroke-miterlimit="10"/>
<path d="M212.672 230.042H217.748" stroke="#010101" stroke-width="0.5" stroke-miterlimit="10"/>
<path d="M237.525 245.328H231.781V247.621H237.525V245.328Z" fill="#DADADA" stroke="#1D1D1B" stroke-width="0.5" stroke-miterlimit="10"/>
<path d="M233.363 247.621L232.314 252.091H236.992L235.954 247.621H233.363Z" fill="#DADADA" stroke="#1D1D1B" stroke-width="0.5" stroke-miterlimit="10"/>
<path d="M230.63 243.812H243.042" stroke="#010101" stroke-width="0.5" stroke-miterlimit="10"/>
<path d="M237.419 199.107H232.051" stroke="#010101" stroke-width="0.5" stroke-miterlimit="10"/>
<path d="M237.419 204.3H232.051" stroke="#010101" stroke-width="0.5" stroke-miterlimit="10"/>
<path d="M237.419 209.395H232.051" stroke="#010101" stroke-width="0.5" stroke-miterlimit="10"/>
<path d="M237.419 214.574H232.044" stroke="#010101" stroke-width="0.5" stroke-miterlimit="10"/>
<path d="M237.419 219.612H232.051" stroke="#010101" stroke-width="0.5" stroke-miterlimit="10"/>
<path d="M237.419 224.77H232.051" stroke="#010101" stroke-width="0.5" stroke-miterlimit="10"/>
<path d="M237.419 230.063H232.343" stroke="#010101" stroke-width="0.5" stroke-miterlimit="10"/>
<path d="M231.33 225.931L231.237 190.651C231.237 190.651 231.095 182.841 225.714 177.306C225.622 177.21 225.512 177.132 225.39 177.08C225.268 177.027 225.136 177 225.003 177C224.87 177 224.738 177.027 224.616 177.08C224.493 177.132 224.383 177.21 224.292 177.306C218.924 182.841 218.764 190.651 218.764 190.651L218.668 225.923" stroke="black" stroke-width="1.5" stroke-miterlimit="10"/>
<path d="M237.408 235.817V235.875" stroke="#1D1D1B" stroke-width="1.5" stroke-miterlimit="10"/>
<path d="M237.408 235.817V199.107C237.408 199.107 237.454 196.235 235.254 192.493C235.197 192.395 235.114 192.314 235.015 192.259C234.916 192.203 234.803 192.175 234.69 192.177C234.576 192.179 234.465 192.212 234.368 192.271C234.271 192.33 234.192 192.414 234.138 192.514C231.771 196.888 232.041 199.11 232.041 199.11V229.346" stroke="black" stroke-width="1.5" stroke-miterlimit="10"/>
<path d="M212.661 235.853V199.085C212.661 199.085 212.615 196.214 214.815 192.475C214.873 192.377 214.955 192.296 215.054 192.24C215.153 192.184 215.265 192.156 215.379 192.158C215.492 192.159 215.603 192.192 215.701 192.25C215.798 192.309 215.878 192.393 215.932 192.493C218.299 196.867 218.029 199.089 218.029 199.089V229.026" stroke="black" stroke-width="1.5" stroke-miterlimit="10"/>
<path d="M214.055 247.731H214.154" stroke="black" stroke-width="1.5" stroke-miterlimit="10"/>
<path d="M212.484 245.437V245.307" stroke="black" stroke-width="1.5" stroke-miterlimit="10"/>
<path d="M212.484 245.438V247.731H214.055" stroke="black" stroke-width="1.5" stroke-miterlimit="10"/>
<path d="M218.228 245.437V245.307" stroke="black" stroke-width="1.5" stroke-miterlimit="10"/>
<path d="M218.228 245.438V247.731H216.646" stroke="black" stroke-width="1.5" stroke-miterlimit="10"/>
<path d="M216.529 247.731H216.645" stroke="black" stroke-width="1.5" stroke-miterlimit="10"/>
<path d="M214.055 247.731L213.017 252.197H217.695L216.646 247.731" stroke="black" stroke-width="1.5" stroke-miterlimit="10"/>
<path d="M218.857 245.438H218.941" stroke="black" stroke-width="1.5" stroke-miterlimit="10"/>
<path d="M218.857 245.438H218.228" stroke="black" stroke-width="1.5" stroke-miterlimit="10"/>
<path d="M212.484 245.438H206.914C206.9 244.932 206.919 244.425 206.97 243.922C207.077 242.797 207.372 241.313 208.165 240.478C208.819 239.768 210.763 237.788 212.651 235.863C212.651 235.863 217.897 231.738 218.043 229.143C218.347 228.1 218.549 227.03 218.647 225.948L220.648 213.342V211.155C220.648 211.155 222.262 199.874 224.988 199.888C227.715 199.902 229.307 210.886 229.307 210.886L229.346 213.527L231.28 225.458" stroke="black" stroke-width="1.5" stroke-miterlimit="10"/>
<path d="M237.408 235.817C239.271 237.727 241.179 239.687 241.823 240.368C242.615 241.206 242.91 242.687 243.017 243.812C243.068 244.315 243.087 244.822 243.074 245.328H237.515" stroke="black" stroke-width="1.5" stroke-miterlimit="10"/>
<path d="M231.006 245.328H231.056H231.771" stroke="black" stroke-width="1.5" stroke-miterlimit="10"/>
<path d="M237.408 235.817C235.24 233.595 233.143 231.437 233.143 231.437C233.143 231.437 232.577 230.886 232.076 229.331" stroke="black" stroke-width="1.5" stroke-miterlimit="10"/>
<path d="M231.771 245.328H237.515" stroke="#1D1D1B" stroke-width="1.5" stroke-miterlimit="10"/>
<path d="M231.34 225.821C231.448 227.013 231.687 228.191 232.051 229.332" stroke="black" stroke-width="1.5" stroke-miterlimit="10"/>
<path d="M219.92 249.925L220.108 251.089" stroke="black" stroke-width="1.5" stroke-miterlimit="10"/>
<path d="M224.811 254.387H220.648L220.254 251.966" stroke="black" stroke-width="1.5" stroke-miterlimit="10"/>
<path d="M229.865 251.909L229.528 254.387H225.358" stroke="black" stroke-width="1.5" stroke-miterlimit="10"/>
<path d="M229.929 251.43L230.128 249.964" stroke="black" stroke-width="1.5" stroke-miterlimit="10"/>
<path d="M218.857 245.438C218.668 246.936 218.748 248.455 219.091 249.925H219.92" stroke="black" stroke-width="1.5" stroke-miterlimit="10"/>
<path d="M219.92 249.925H220.648" stroke="black" stroke-width="1.5" stroke-miterlimit="10"/>
<path d="M220.108 251.089L219.746 251.87L220.254 251.966" stroke="black" stroke-width="1.5" stroke-miterlimit="10"/>
<path d="M231.006 245.321C231.211 246.85 231.137 248.404 230.786 249.907H229.225" stroke="black" stroke-width="1.5" stroke-miterlimit="10"/>
<path d="M229.865 251.909L230.128 251.86L229.929 251.43" stroke="black" stroke-width="1.5" stroke-miterlimit="10"/>
<path d="M224.811 254.387L224.85 256.461H225.326L225.358 254.387" stroke="black" stroke-width="1.5" stroke-miterlimit="10"/>
<path d="M231.771 245.328H237.515" stroke="black" stroke-width="1.5" stroke-miterlimit="10"/>
<path d="M231.771 245.328V247.621H237.515V245.328" stroke="black" stroke-width="1.5" stroke-miterlimit="10"/>
<path d="M233.352 247.621L232.304 252.091H236.982L235.944 247.621" stroke="black" stroke-width="1.5" stroke-miterlimit="10"/>
<path d="M27.9356 250.762L33.0008 240.822L32.7804 166.095L31.8456 159.971L32.7591 156.332V149.942H35.5139V151.007H37.5577V149.942H42.7118V151.007H44.4891C44.4002 150.652 44.2758 149.942 44.4891 149.942H46.9773L47.0662 156.332C47.2105 157.569 47.4785 158.788 47.8659 159.971L46.9773 165.74V240.822L52.2202 250.762V255.643L51.2427 255.91L47.6882 253.957L47.7593 255.2H46.7818L47.7593 256.62H32.1868L32.8977 255.2H32.098L32.1726 253.957L29.6098 255.91L27.9214 255.643L27.9356 250.762Z" fill="#B2B2B2"/>
<path d="M24.5551 140.712L32.7306 118.88C32.7092 111.524 32.7306 98.9677 32.9012 90.8347L27.3099 89.5034V85.6836L37.1382 72.0161C38.2437 69.4992 39.3456 67.5786 40.1062 67.5786C40.8669 67.5786 42.1003 69.4885 43.2805 72.0161L52.7249 85.6836V89.7661L47.0376 90.8311C47.1691 98.1299 47.29 109.057 47.29 118.876L55.2877 140.709V148.607L49.5116 149.939H44.6418V151.004H42.6868V149.939H37.5328V151.004H35.4889V149.939H30.2459L24.5587 148.607L24.5551 140.712Z" fill="#DADADA"/>
<path d="M32.7344 118.88L24.559 140.712V148.611L30.2463 149.942M32.7344 118.88C32.7131 111.524 32.7344 98.9677 32.9051 90.8347M32.7344 118.88L34.4229 146.747L32.7344 149.942M32.7344 118.88L30.2463 149.942M47.3081 118.88L55.3058 140.712V148.611L49.5297 149.942M47.3081 118.88C47.3081 109.057 47.1872 98.1299 47.0557 90.8347M47.3081 118.88L45.7974 146.747L46.9526 149.942M47.3081 118.88L49.5297 149.942M30.2463 149.942H32.7344M32.7344 149.942H35.5781M32.7344 149.942V156.243M32.9833 240.822L27.918 250.762V255.643L29.6064 255.91L32.1693 253.957M32.9833 240.822L32.1693 253.957M32.9833 240.822L32.7664 166.982M46.9349 240.822L52.1778 250.762V255.643L51.2003 255.91L47.6458 253.957M46.9349 240.822L47.6458 253.957M46.9349 240.822V166.982M46.9349 149.942H49.5119M46.9349 149.942H44.5142M46.9349 149.942L46.9633 156.243M37.1421 72.0161C35.3932 75.9957 33.648 81.4627 33.2676 83.1986C33.1041 83.9441 32.9868 86.8622 32.9122 90.8311M37.1492 72.0161C38.2547 69.4992 39.3566 67.5786 40.1172 67.5786C40.8779 67.5786 42.1113 69.4885 43.2914 72.0161M37.1492 72.0161L27.3209 85.6836V89.4999L32.9122 90.8311M43.2914 72.0161C45.0687 75.8004 46.7642 80.9657 46.8709 83.1986C46.9277 84.4411 46.9988 87.1853 47.0628 90.8311M43.2914 72.0161L52.7359 85.6836V89.7661L47.0486 90.8311M32.187 253.957L32.1124 255.2H32.9122M47.6813 253.957L47.7524 255.2H46.7749M32.9122 255.2L32.2013 256.62H47.7666L46.7891 255.2M32.9264 255.2H33.9039M46.7891 255.2H46.2559M35.5923 149.942C35.7594 145.345 36.8648 141.571 37.4407 140.18V149.942M35.5923 149.942C35.5923 150.322 35.5923 150.705 35.5923 151.096H37.4584V149.942M37.4584 149.942H42.7014M42.7014 149.942V151.096H44.5675C44.5675 150.705 44.5675 150.322 44.5462 149.942M42.7014 149.942V140.18C43.2737 141.571 44.3791 145.345 44.5462 149.942M32.7593 156.243H34.7854L36.2961 161.657L34.7854 166.982H32.7913M32.7593 156.243L31.8529 159.971L32.7913 166.982M46.9775 156.243H44.955L43.4443 161.657L44.955 166.982H46.9491M46.9775 156.243L47.8875 159.971L46.9491 166.982M37.7073 255.2L37.4407 240.378L33.8861 251.117V255.2M37.7073 255.2L33.8861 255.91V255.2M37.7073 255.2H42.2393M42.2393 255.2L46.2382 255.91V255.2M42.2393 255.2L42.5059 240.29L46.2382 251.117V255.2M35.3968 79.7374H44.9052C43.9846 76.4536 41.7417 69.9039 40.1066 69.9749C38.4715 70.0459 36.289 76.514 35.4004 79.7374H35.3968Z" stroke="#010101" stroke-width="0.5"/>
<path d="M24.5552 140.712L32.7307 118.88C32.7093 111.524 32.7307 98.9677 32.9013 90.8347L27.31 89.5034V85.6836L37.1383 72.0161C38.2438 69.4992 39.3457 67.5786 40.1064 67.5786C40.867 67.5786 42.1005 69.4885 43.2806 72.0161L52.725 85.6836V89.7661L47.0377 90.8311C47.1692 98.1299 47.2901 109.057 47.2901 118.876L55.2878 140.709V148.607L49.5117 149.939H46.9346V240.819L52.1776 250.759V255.64L51.2001 255.906L47.6455 253.954L47.7166 255.196H46.7391L47.7166 256.616H32.1868L32.8977 255.196H32.098L32.1726 253.954L29.6098 255.906L27.9214 255.64V250.762L32.9866 240.822L32.72 149.942H30.2318L24.5446 148.611L24.5552 140.712Z" stroke="#010101" stroke-width="1.5"/>
<text fill="white" xml:space="preserve" style="white-space: pre" font-family="Roboto" font-size="11" font-weight="bold" letter-spacing="0em"><tspan x="19.6641" y="283.26">Starship</tspan></text>
<text fill="white" xml:space="preserve" style="white-space: pre" font-family="Roboto" font-size="10" font-weight="600" letter-spacing="0em"><tspan x="31.0742" y="298.418">2012&#10;</tspan></text>
<text fill="#BBECF9" xml:space="preserve" style="white-space: pre" font-family="Roboto" font-size="10" font-weight="bold" letter-spacing="0em"><tspan x="21.0645" y="310.418">5.000 ton</tspan></text>
<text fill="white" xml:space="preserve" style="white-space: pre" font-family="Roboto" font-size="11" font-weight="bold" letter-spacing="0em"><tspan x="99.1123" y="283.26">Saturno V</tspan></text>
<text fill="white" xml:space="preserve" style="white-space: pre" font-family="Roboto" font-size="10" font-weight="600" letter-spacing="0em"><tspan x="98.3125" y="298.418">1967-1973&#10;</tspan></text>
<text fill="#BBECF9" xml:space="preserve" style="white-space: pre" font-family="Roboto" font-size="10" font-weight="bold" letter-spacing="0em"><tspan x="101.564" y="310.418">3.000 ton</tspan></text>
<text fill="white" xml:space="preserve" style="white-space: pre" font-family="Roboto" font-size="11" font-weight="bold" letter-spacing="0em"><tspan x="177.137" y="283.26">Transbordador STS</tspan></text>
<text fill="white" xml:space="preserve" style="white-space: pre" font-family="Roboto" font-size="10" font-weight="600" letter-spacing="0em"><tspan x="200.312" y="298.354">1981-2011&#10;</tspan></text>
<text fill="#BBECF9" xml:space="preserve" style="white-space: pre" font-family="Roboto" font-size="10" font-weight="bold" letter-spacing="0em"><tspan x="203.564" y="310.354">2.030 ton</tspan></text>
<path d="M315.261 181.24C315.079 181.067 314.976 181.044 314.794 181.24V184.833H314.608L314.514 190.408L313.021 192.941L312.928 197.272L312.508 197.733L312.601 199.806V204.044H312.881L312.694 217.819L312.465 229.612L309.352 254.213L308.448 254.812V255.089H309.242H309.714L309.662 255.503C311.165 255.979 311.988 255.903 313.441 255.503L313.458 255.089H315.293L315.307 255.503C316.864 256.042 317.788 256.114 319.6 255.503L319.552 255.089H320.113H321V254.812L320.006 254.213L316.983 229.612L316.754 217.819V204.044H317.127V199.944L317.267 197.733L316.941 197.272V192.941L315.447 190.408V184.833H315.261V181.24Z" fill="#D9D9D9"/>
<path d="M315.261 184.833V181.24C315.079 181.067 314.976 181.044 314.794 181.24V184.833M315.261 184.833H315.447V190.408M315.261 184.833C315.167 184.833 314.943 184.833 314.794 184.833M315.447 190.408L316.941 192.941M315.447 190.408C315.271 190.555 315.132 190.633 314.994 190.638M316.941 192.941V197.272M316.941 192.941C315.41 193.535 314.551 193.527 313.021 192.941M316.941 197.272L317.267 197.733L317.127 199.944M316.941 197.272L317.127 199.944M316.941 197.272C315.472 197.869 314.584 197.815 312.928 197.272M317.127 199.944V204.044H316.754M316.754 204.044V209.803M316.754 204.044C316.07 204.212 315.522 204.304 314.994 204.321M316.754 217.819L316.983 229.612M316.754 217.819V215.654M316.754 217.819C315.169 218.009 314.28 217.977 312.694 217.819M312.694 217.819L312.465 229.612M312.694 217.819L312.724 215.654M312.881 204.044H312.601V199.806M312.881 204.044L312.803 209.803M312.881 204.044C313.707 204.25 314.335 204.344 314.994 204.321M312.601 199.806L312.508 197.733L312.928 197.272M312.601 199.806L312.928 197.272M312.928 197.272L313.021 192.941M313.021 192.941L314.514 190.408M314.514 190.408L314.608 184.833H314.794M314.514 190.408C314.702 190.569 314.848 190.645 314.994 190.638M312.465 229.612L312.442 233.143M312.465 229.612L310.437 245.644M312.465 229.612C314.107 230.311 315.101 230.286 316.983 229.612M309.714 255.089L309.662 255.503C311.165 255.979 311.988 255.903 313.441 255.503L313.458 255.089M309.714 255.089H309.242H308.448V254.812L309.352 254.213L309.644 251.91M309.714 255.089L310.119 251.91M316.983 229.612V233.209M316.983 229.612L318.953 245.644M319.552 255.089L319.6 255.503C317.788 256.114 316.864 256.042 315.307 255.503L315.293 255.089M319.552 255.089H320.113H321V254.812L320.006 254.213L319.723 251.91M319.552 255.089L319.178 251.91M313.458 255.089H315.293M313.458 255.089L313.429 251.91M315.293 255.089L315.414 251.91M312.803 209.803C314.279 210.319 315.145 210.302 316.754 209.803M312.803 209.803L312.762 212.843M316.754 209.803V212.843M312.762 212.843C314.22 213.18 315.096 213.173 316.754 212.843M312.762 212.843L312.724 215.654M316.754 212.843V215.654M312.724 215.654C314.252 215.933 315.127 215.976 316.754 215.654M312.442 233.143V233.143C312.538 232.653 313.259 232.723 313.259 233.222V233.344M312.442 233.143L310.918 245.644M316.983 233.209V233.209C316.906 232.705 316.171 232.729 316.128 233.238L316.119 233.344M316.983 233.209L318.443 245.644M310.437 245.644C310.648 245.726 310.752 245.719 310.918 245.644M310.437 245.644L309.644 251.91M310.918 245.644C311.876 246.251 312.413 246.223 313.371 245.644M310.918 245.644L310.119 251.91M313.371 245.644C314.229 245.988 314.72 246.068 315.652 245.644M313.371 245.644L313.429 251.91M313.371 245.644L313.259 233.344M315.652 245.644L315.653 245.615M315.652 245.644L315.414 251.91M318.443 245.644C318.571 245.701 318.849 245.698 318.953 245.644M318.443 245.644C318.108 246.344 316.33 246.361 315.653 245.615M318.443 245.644L319.178 251.91M318.953 245.644L319.723 251.91M315.653 245.615L316.119 233.344M309.644 251.91C309.838 252.028 309.942 252.032 310.119 251.91M310.119 251.91C311.331 252.854 312.065 252.749 313.429 251.91M313.429 251.91C314.204 252.36 314.638 252.342 315.414 251.91M315.414 251.91C316.92 252.972 317.748 253.073 319.178 251.91M319.178 251.91C319.406 252.027 319.525 252.028 319.723 251.91M313.259 233.344C314.439 233.6 315.06 233.578 316.119 233.344M314.994 190.638V204.321" stroke="black" stroke-width="0.5"/>
<path d="M315.261 181.24C315.079 181.067 314.976 181.044 314.794 181.24V184.833H314.608L314.514 190.408L313.021 192.941L312.928 197.272L312.508 197.733L312.601 199.806V204.044H312.881L312.694 217.819L312.465 229.612L309.352 254.213L308.448 254.812V255.089H309.242H309.714L309.662 255.503C311.165 255.979 311.988 255.903 313.441 255.503L313.458 255.089H315.293L315.307 255.503C316.864 256.042 317.788 256.114 319.6 255.503L319.552 255.089H320.113H321V254.812L320.006 254.213L316.983 229.612L316.754 217.819V204.044H317.127V199.944L317.267 197.733L316.941 197.272V192.941L315.447 190.408V184.833H315.261V181.24Z" stroke="black" stroke-width="1.5"/>
<text fill="white" xml:space="preserve" style="white-space: pre" font-family="Roboto" font-size="11" font-weight="bold" letter-spacing="0em"><tspan x="299.793" y="283.26">Soyuz</tspan></text>
<text fill="white" xml:space="preserve" style="white-space: pre" font-family="Roboto" font-size="10" font-weight="600" letter-spacing="0em"><tspan x="303.074" y="297.963">1967&#10;</tspan></text>
<text fill="#BBECF9" xml:space="preserve" style="white-space: pre" font-family="Roboto" font-size="10" font-weight="bold" letter-spacing="0em"><tspan x="297.386" y="309.963">308 ton</tspan></text>
<text fill="white" xml:space="preserve" style="white-space: pre" font-family="Roboto" font-size="11" font-weight="600" letter-spacing="0em"><tspan x="25.4238" y="60.2598">119 m</tspan></text>
<text fill="white" xml:space="preserve" style="white-space: pre" font-family="Roboto" font-size="11" font-weight="600" letter-spacing="0em"><tspan x="107.424" y="74.2598">110 m</tspan></text>
<text fill="white" xml:space="preserve" style="white-space: pre" font-family="Roboto" font-size="11" font-weight="600" letter-spacing="0em"><tspan x="212.066" y="169.26">56 m</tspan></text>
<text fill="white" xml:space="preserve" style="white-space: pre" font-family="Roboto" font-size="11" font-weight="600" letter-spacing="0em"><tspan x="300.129" y="172.26">45,6 m</tspan></text>
<path d="M95 269H152" stroke="white"/>
<path d="M170 269H279" stroke="white"/>
<path d="M15 269H64" stroke="white"/>
<path d="M299 269H331" stroke="white"/>
<path d="M124 258L124 269" stroke="white"/>
<path d="M225 258L225 269" stroke="white"/>
<path d="M40 258L40 269" stroke="white"/>
<path d="M315 258L315 269" stroke="white"/>
</svg>
