<svg width="318" height="265" viewBox="0 0 318 265" fill="none" xmlns="http://www.w3.org/2000/svg">
<path fill-rule="evenodd" clip-rule="evenodd" d="M113.732 79.5618V102.615L114.912 110.891V188.039L117.567 195.352L121.406 196.683L116.387 197.496H114.912C115.306 198.789 115.239 199.442 114.763 200.524L116.682 206.733H100.687L102.681 200.524C102.33 199.555 102.253 198.507 102.457 197.496H100.392L96.2612 196.683L99.8158 195.352L102.471 188.039V110.891L103.726 102.615V79.5618H113.732ZM107.657 197.496H105.037C105.352 198.491 105.3 199.565 104.892 200.524L106.292 204.22L107.657 200.524C107.255 199.31 107.213 198.643 107.657 197.496ZM112.047 197.496H112.491C112.111 198.959 112.203 199.598 112.712 200.524L111.311 204.22L109.822 200.524C110.348 199.541 110.408 198.884 110.042 197.496H112.047Z" fill="#B2B2B2"/>
<path d="M107.767 32.787C107.861 32.5965 108.009 32.4382 108.194 32.3326C108.378 32.227 108.59 32.1788 108.802 32.1941C109.005 32.1694 109.211 32.2146 109.386 32.3223C109.56 32.4301 109.693 32.594 109.761 32.787V42.979L111.311 43.6713L110.398 44.8605L109.761 44.6617V46.8982L111.311 52.3688V60.9385L114.336 79.5618H103.342L106.217 60.9385V52.3688L107.767 46.8982V44.6617L107.227 44.8605L106.217 43.6713L107.767 42.979V32.787Z" fill="#DADADA"/>
<path d="M109.761 46.8982L111.311 52.3688M109.761 46.8982H107.767M109.761 46.8982V51.0943M109.761 46.8982V44.5623M111.311 52.3723H106.217M111.311 52.3723V54.5023M111.311 60.9314V54.5094M111.311 60.9385H106.217M111.311 60.9385L114.18 78.5997M113.824 79.5618H114.339L114.183 78.5997M113.828 79.5618H103.779M113.817 79.5618V82.0752M113.817 102.626V97.4005M113.817 102.615L114.357 106.403M113.817 102.615H108.812M115.001 110.891L114.361 106.403M115.001 110.891H108.812M115.001 110.891V116.989M115.001 188.039L117.656 195.352M115.001 188.039V180.513M115.001 188.039H112.975M115.001 188.039L114.123 196.683M117.656 195.352L121.495 196.683L116.476 197.496M117.656 195.366L116.476 197.496M116.476 197.496H115.001M115.001 197.496C115.395 198.789 115.328 199.442 114.851 200.524M115.001 197.496H114.041M114.851 200.524L116.771 206.733H111.386M114.851 200.524C114.179 200.732 113.459 200.732 112.786 200.524M102.748 200.524L100.758 206.733H106.367M102.748 200.524C102.398 199.554 102.322 198.507 102.528 197.496M102.748 200.524C103.472 200.732 104.239 200.732 104.963 200.524M102.528 197.496H100.463M102.528 197.496H103.779M100.459 197.496L96.3144 196.683L99.8689 195.352M100.459 197.482L99.8689 195.352M99.8689 195.352L102.524 188.039M102.524 188.039V180.513M102.524 188.039H104.746M102.524 188.039L103.672 196.683M102.524 110.891L103.207 106.403M102.524 110.891H108.809M102.524 110.891V116.989M103.779 102.615V97.4005M103.779 102.615L103.207 106.403M103.779 102.615H108.809M103.779 79.5618H103.338L103.484 78.5997M103.779 79.5618V82.0752M106.214 60.9491V54.5094M106.214 60.9385L103.484 78.5997M106.214 52.3688L107.764 46.8982M106.214 52.3688V54.4988M107.764 46.8876V51.0837M107.764 46.8876V44.5517M106.214 54.4917H111.307M102.524 136.958H114.997M102.524 136.958V116.972M102.524 136.958V137.668M114.997 136.958V116.972M114.997 136.958V137.668M102.524 153.16V137.668M102.524 153.16H104.845M102.524 153.16V173.488M114.997 153.16V137.668M114.997 153.16H112.971M114.997 153.16V173.488M114.037 197.496H112.562M114.037 197.496L114.119 196.683M103.779 197.496H105.108M103.779 197.496L103.672 196.683M108.755 188.039V180.513M108.755 188.039H112.967M108.755 188.039H104.749M108.762 188.039L105.627 196.683M108.755 188.039L111.826 196.683M105.325 197.496H107.724M105.325 197.496H105.105M105.325 197.496L105.62 196.683M112.114 197.496H112.559M112.114 197.496H110.124M112.114 197.496L111.826 196.683M112.559 197.496C112.178 198.959 112.271 199.598 112.779 200.524M112.779 200.524L111.379 204.22M111.379 204.22L109.9 200.524M111.379 204.22V206.733M109.9 200.524C110.429 199.541 110.49 198.884 110.124 197.496M109.9 200.524C109.184 200.69 108.44 200.69 107.724 200.524M110.124 197.496H107.724M107.724 197.496C107.28 198.643 107.323 199.31 107.724 200.524M107.724 200.524L106.36 204.22M106.36 204.22L104.955 200.524M106.36 204.22V206.733M104.955 200.524C105.365 199.565 105.418 198.491 105.105 197.496M106.36 206.726H111.386M107.767 42.979V32.787C107.861 32.5965 108.009 32.4382 108.194 32.3326C108.378 32.227 108.59 32.1788 108.802 32.1941C109.005 32.1694 109.211 32.2146 109.386 32.3223C109.56 32.4301 109.692 32.594 109.761 32.787V42.979M107.767 42.979L106.217 43.6713L107.227 44.8605L107.767 44.5623M107.767 42.979V44.5623M109.761 42.979L111.311 43.6713L110.397 44.8605L109.761 44.5623M109.761 42.979V44.5623M106.623 52.6776V54.1615M110.98 52.6776V54.1615M107.756 52.6776V54.1615M109.751 52.6776V54.1615M108.802 52.6776V54.1615M103.47 78.5997H114.162M103.779 82.0752H113.817M103.779 82.0752V97.4112M113.821 82.0752V97.4112M103.782 97.4112H113.821M103.21 106.403H114.361M108.812 102.615V110.891M102.528 116.989H115.001M102.528 137.668H104.845M114.997 137.668H112.971M104.845 137.668V153.16M104.845 137.668H108.809M104.845 153.16H108.809M108.809 137.668V153.16M108.809 137.668H112.971M108.809 153.16H112.971M112.971 137.668V153.16M102.524 180.495H104.746M102.524 180.495V173.488M114.997 180.513H112.971M114.997 180.513V173.488M108.755 180.513H112.967M108.755 180.513H104.749M112.975 180.513V188.039M112.975 188.039V196.683M104.749 180.513V188.039M104.749 188.039V196.683M102.528 173.488H115.001M103.676 196.683H105.627M111.834 196.683H114.123" stroke="#010101" stroke-width="0.5"/>
<path d="M108.802 32.1941C108.59 32.1788 108.378 32.227 108.194 32.3326C108.009 32.4383 107.861 32.5965 107.767 32.787V42.979L106.217 43.6713L107.227 44.8605L107.767 44.6617V46.8982L106.217 52.3688V60.9385L103.342 79.5618H103.779V102.615L102.524 110.891V188.039L99.8689 195.352L96.3144 196.683L100.448 197.496H102.514C102.308 198.507 102.384 199.554 102.734 200.524L100.743 206.733H116.757L114.837 200.524C115.313 199.459 115.381 198.789 114.986 197.496H116.462L121.481 196.683L117.642 195.352L114.986 188.039V110.891L113.806 102.615V79.5618H114.322L111.297 60.9385V52.3688L109.747 46.8982V44.6617L110.483 44.8605L111.297 43.6713L109.747 42.979V32.787C109.679 32.5966 109.548 32.4346 109.377 32.3271C109.206 32.2196 109.003 32.1728 108.802 32.1941V32.1941Z" stroke="#010101" stroke-width="1.5"/>
<path d="M105.151 197.684H107.742C107.742 197.684 107.088 199.459 107.742 200.574L106.445 204.216L104.991 200.709C105.236 200.247 105.377 199.737 105.405 199.214C105.432 198.692 105.346 198.17 105.151 197.684Z" stroke="#010101" stroke-width="1.67"/>
<path d="M110.067 197.684H112.665C112.665 197.684 112.015 199.459 112.665 200.574L111.372 204.216L109.914 200.709C110.158 200.246 110.298 199.736 110.324 199.214C110.351 198.691 110.263 198.169 110.067 197.684Z" stroke="#010101" stroke-width="1.67"/>
<path d="M211.019 195.076H208.883V199.964H211.019V195.076Z" fill="#DADADA"/>
<path d="M217.051 180.84V149.11C217.051 149.11 216.781 146.888 219.149 142.514C219.202 142.414 219.282 142.33 219.379 142.271C219.476 142.212 219.587 142.179 219.7 142.177C219.814 142.175 219.926 142.203 220.025 142.259C220.125 142.314 220.207 142.395 220.265 142.493C222.465 146.235 222.419 149.107 222.419 149.107V185.874" fill="#B2B2B2"/>
<path d="M217.051 180.84V149.11C217.051 149.11 216.781 146.888 219.149 142.514C219.202 142.414 219.282 142.33 219.379 142.271C219.476 142.212 219.587 142.179 219.7 142.177C219.814 142.175 219.926 142.203 220.025 142.259C220.125 142.314 220.207 142.395 220.265 142.493C222.465 146.235 222.419 149.107 222.419 149.107V185.874" stroke="#1D1D1B" stroke-width="0.5" stroke-miterlimit="10"/>
<path d="M203.039 181.831V149.089C203.039 149.089 203.31 146.867 200.942 142.493C200.888 142.393 200.809 142.309 200.711 142.25C200.614 142.192 200.503 142.159 200.389 142.158C200.276 142.156 200.164 142.184 200.065 142.24C199.966 142.296 199.883 142.377 199.826 142.475C197.626 146.214 197.672 149.085 197.672 149.085V185.853" fill="#B2B2B2"/>
<path d="M203.039 181.831V149.089C203.039 149.089 203.31 146.867 200.942 142.493C200.888 142.393 200.809 142.309 200.711 142.25C200.614 142.192 200.503 142.159 200.389 142.158C200.276 142.156 200.164 142.184 200.065 142.24C199.966 142.296 199.883 142.377 199.826 142.475C197.626 146.214 197.672 149.085 197.672 149.085V185.853" stroke="#1D1D1B" stroke-width="0.5" stroke-miterlimit="10"/>
<path d="M216.33 175.931L216.237 140.651C216.237 140.651 216.095 132.841 210.714 127.306C210.622 127.21 210.512 127.132 210.39 127.08C210.268 127.027 210.136 127 210.003 127C209.87 127 209.738 127.027 209.616 127.08C209.493 127.132 209.383 127.21 209.292 127.306C203.924 132.841 203.764 140.651 203.764 140.651L203.669 175.923" fill="#B2B2B2"/>
<path d="M216.33 175.931L216.237 140.651C216.237 140.651 216.095 132.841 210.714 127.306C210.622 127.21 210.512 127.132 210.39 127.08C210.268 127.027 210.136 127 210.003 127C209.87 127 209.738 127.027 209.616 127.08C209.493 127.132 209.383 127.21 209.292 127.306C203.924 132.841 203.764 140.651 203.764 140.651L203.669 175.923" stroke="#1D1D1B" stroke-width="0.5" stroke-miterlimit="10"/>
<path d="M203.238 195.438H197.494V197.731H203.238V195.438Z" fill="#DADADA" stroke="#1D1D1B" stroke-width="0.5" stroke-miterlimit="10"/>
<path d="M201.657 197.731L202.705 202.197H198.027L199.065 197.731H201.657Z" fill="#DADADA" stroke="#1D1D1B" stroke-width="0.5" stroke-miterlimit="10"/>
<path d="M203.953 195.438H205.659V163.041L203.668 175.931C203.238 180.233 201.891 181.543 201.891 181.543C201.891 181.543 194.59 188.998 193.193 190.478C192.401 191.313 192.106 192.797 191.999 193.922C191.948 194.426 191.929 194.932 191.942 195.438H203.96" fill="#DADADA"/>
<path d="M203.953 195.438H205.659V163.041L203.668 175.931C203.238 180.233 201.891 181.543 201.891 181.543C201.891 181.543 194.59 188.998 193.193 190.478C192.401 191.313 192.106 192.797 191.999 193.922C191.948 194.426 191.929 194.932 191.942 195.438H203.96" stroke="#1D1D1B" stroke-width="0.5" stroke-miterlimit="10"/>
<path d="M216.085 195.321H214.378V162.93L216.369 175.82C216.799 180.123 218.146 181.437 218.146 181.437C218.146 181.437 225.447 188.892 226.844 190.368C227.637 191.206 227.932 192.687 228.038 193.812C228.09 194.315 228.109 194.822 228.095 195.328H216.085" fill="#DADADA"/>
<path d="M216.085 195.321H214.378V162.93L216.369 175.82C216.799 180.123 218.146 181.437 218.146 181.437C218.146 181.437 225.447 188.892 226.844 190.368C227.637 191.206 227.932 192.687 228.038 193.812C228.09 194.315 228.109 194.822 228.095 195.328H216.085" stroke="#1D1D1B" stroke-width="0.5" stroke-miterlimit="10"/>
<path d="M214.361 195.189V161.177C214.361 161.177 213.38 152.614 210.707 150.143C210.518 149.967 210.269 149.869 210.01 149.869C209.751 149.869 209.502 149.967 209.313 150.143C206.64 152.607 205.659 161.148 205.659 161.148V195.161L214.361 195.189Z" fill="#DADADA" stroke="#1D1D1B" stroke-width="0.5" stroke-miterlimit="10"/>
<path d="M204.184 193.918H191.978" stroke="#010101" stroke-width="0.5" stroke-miterlimit="10"/>
<path d="M204.93 199.925L205.659 204.387H214.538L215.139 199.964" fill="#B2B2B2"/>
<path d="M204.93 199.925L205.659 204.387H214.538L215.139 199.964" stroke="#1D1D1B" stroke-width="0.5" stroke-miterlimit="10"/>
<path d="M208.943 191.543V199.936H204.102C204.102 199.936 202.705 194.667 205.577 191.554L208.943 191.543Z" fill="#DADADA" stroke="#1D1D1B" stroke-width="0.5" stroke-miterlimit="10"/>
<path d="M205.659 199.925L204.756 201.87L207.383 202.364V199.925H205.659Z" fill="#DADADA" stroke="#1D1D1B" stroke-width="0.5" stroke-miterlimit="10"/>
<path d="M210.955 191.533V199.914H215.797C215.797 199.914 217.19 194.646 214.318 191.533H210.955Z" fill="#DADADA" stroke="#1D1D1B" stroke-width="0.5" stroke-miterlimit="10"/>
<path d="M214.236 199.914L215.139 201.86L212.512 202.35V199.914H214.236Z" fill="#DADADA" stroke="#1D1D1B" stroke-width="0.5" stroke-miterlimit="10"/>
<path d="M208.421 199.964L207.714 202.772H212.342L211.73 199.925" fill="#DADADA"/>
<path d="M208.421 199.964L207.714 202.772H212.342L211.73 199.925" stroke="#1D1D1B" stroke-width="0.5" stroke-miterlimit="10"/>
<path d="M209.583 190.912H210.579L210.337 206.461H209.86L209.583 190.912Z" fill="#DADADA" stroke="#1D1D1B" stroke-width="0.5" stroke-miterlimit="10"/>
<path d="M203.754 143.452H216.244" stroke="#010101" stroke-width="0.5" stroke-miterlimit="10"/>
<path d="M207.301 159.97L206.946 159.892L207.198 158.688L207.554 158.763C207.613 158.775 207.669 158.799 207.719 158.833C207.769 158.867 207.811 158.91 207.844 158.961C207.877 159.011 207.9 159.068 207.911 159.127C207.922 159.186 207.922 159.247 207.909 159.306L207.845 159.618C207.833 159.677 207.81 159.734 207.776 159.784C207.742 159.834 207.698 159.876 207.648 159.909C207.597 159.942 207.54 159.964 207.481 159.974C207.421 159.985 207.36 159.983 207.301 159.97V159.97Z" stroke="#010101" stroke-width="0.5" stroke-miterlimit="10"/>
<path d="M212.885 160.059L213.241 159.984L212.988 158.781L212.633 158.855C212.514 158.881 212.41 158.952 212.344 159.054C212.277 159.155 212.253 159.279 212.278 159.398L212.345 159.711C212.357 159.769 212.381 159.825 212.415 159.874C212.449 159.923 212.492 159.965 212.542 159.997C212.593 160.03 212.649 160.052 212.708 160.062C212.767 160.073 212.827 160.072 212.885 160.059V160.059Z" stroke="#010101" stroke-width="0.5" stroke-miterlimit="10"/>
<path d="M212.338 158.418L212.654 158.063L212.018 157.474L211.705 157.811C211.673 157.846 211.647 157.886 211.63 157.93C211.613 157.974 211.605 158.022 211.607 158.069C211.609 158.116 211.62 158.163 211.64 158.206C211.66 158.249 211.688 158.287 211.723 158.319L211.84 158.426C211.908 158.49 211.998 158.525 212.091 158.523C212.184 158.522 212.273 158.484 212.338 158.418Z" stroke="#010101" stroke-width="0.5" stroke-miterlimit="10"/>
<path d="M207.82 158.536L207.5 158.181L208.137 157.591L208.453 157.929C208.485 157.963 208.51 158.003 208.526 158.047C208.542 158.091 208.55 158.138 208.548 158.185C208.546 158.232 208.534 158.278 208.514 158.32C208.494 158.363 208.466 158.401 208.432 158.433L208.318 158.539C208.251 158.604 208.161 158.64 208.068 158.639C207.975 158.638 207.886 158.601 207.82 158.536Z" fill="#DADADA" stroke="#1D1D1B" stroke-width="0.5" stroke-miterlimit="10"/>
<path d="M208.833 157.659L208.773 157.194L209.633 157.08L209.693 157.534C209.7 157.581 209.698 157.629 209.686 157.675C209.675 157.72 209.654 157.763 209.626 157.801C209.597 157.839 209.562 157.87 209.521 157.894C209.48 157.918 209.435 157.933 209.388 157.939L209.231 157.96C209.139 157.973 209.045 157.948 208.97 157.891C208.896 157.835 208.846 157.751 208.833 157.659Z" stroke="#010101" stroke-width="0.5" stroke-miterlimit="10"/>
<path d="M211.364 157.691L211.428 157.226L210.568 157.109L210.504 157.566C210.497 157.613 210.499 157.661 210.511 157.707C210.523 157.753 210.544 157.796 210.573 157.834C210.602 157.872 210.638 157.903 210.679 157.927C210.72 157.95 210.766 157.966 210.813 157.971L210.97 157.989C211.061 158 211.154 157.975 211.227 157.92C211.301 157.864 211.35 157.782 211.364 157.691V157.691Z" stroke="#010101" stroke-width="0.5" stroke-miterlimit="10"/>
<path d="M209.501 161.791H208.975C208.927 161.791 208.881 161.772 208.847 161.738C208.813 161.704 208.794 161.658 208.794 161.61V161.07C208.794 161.046 208.798 161.022 208.807 161C208.816 160.977 208.829 160.957 208.846 160.94C208.863 160.923 208.883 160.909 208.905 160.9C208.927 160.89 208.951 160.886 208.975 160.886H209.516C209.564 160.886 209.61 160.905 209.644 160.939C209.678 160.973 209.697 161.019 209.697 161.067V161.596C209.699 161.622 209.696 161.648 209.686 161.673C209.677 161.697 209.663 161.72 209.644 161.738C209.626 161.757 209.603 161.771 209.579 161.78C209.554 161.789 209.528 161.793 209.501 161.791V161.791Z" stroke="#010101" stroke-width="0.5" stroke-miterlimit="10"/>
<path d="M211.14 161.791H210.6C210.552 161.791 210.506 161.772 210.472 161.738C210.438 161.704 210.419 161.658 210.419 161.61V161.07C210.419 161.022 210.438 160.976 210.472 160.942C210.506 160.908 210.552 160.889 210.6 160.889H211.14C211.188 160.889 211.234 160.908 211.268 160.942C211.302 160.976 211.321 161.022 211.321 161.07V161.596C211.324 161.621 211.321 161.646 211.313 161.67C211.305 161.694 211.292 161.716 211.275 161.734C211.258 161.753 211.237 161.767 211.214 161.777C211.19 161.787 211.165 161.791 211.14 161.791V161.791Z" stroke="#010101" stroke-width="0.5" stroke-miterlimit="10"/>
<path d="M205.659 162.579H214.361" stroke="#010101" stroke-width="0.5" stroke-miterlimit="10"/>
<path d="M205.659 169.59H214.361" stroke="#010101" stroke-width="0.5" stroke-miterlimit="10"/>
<path d="M205.659 176.438H214.361" stroke="#010101" stroke-width="0.5" stroke-miterlimit="10"/>
<path d="M205.659 183.272H214.361" stroke="#010101" stroke-width="0.5" stroke-miterlimit="10"/>
<path d="M205.659 190.191H214.361" stroke="#010101" stroke-width="0.5" stroke-miterlimit="10"/>
<path d="M197.672 149.085H203.039" stroke="#010101" stroke-width="0.5" stroke-miterlimit="10"/>
<path d="M197.672 154.279H203.039" stroke="#010101" stroke-width="0.5" stroke-miterlimit="10"/>
<path d="M197.672 159.373H203.039" stroke="#010101" stroke-width="0.5" stroke-miterlimit="10"/>
<path d="M197.672 164.553H203.05" stroke="#010101" stroke-width="0.5" stroke-miterlimit="10"/>
<path d="M197.672 169.59H203.039" stroke="#010101" stroke-width="0.5" stroke-miterlimit="10"/>
<path d="M197.672 174.748H203.039" stroke="#010101" stroke-width="0.5" stroke-miterlimit="10"/>
<path d="M197.672 180.042H202.748" stroke="#010101" stroke-width="0.5" stroke-miterlimit="10"/>
<path d="M222.525 195.328H216.781V197.621H222.525V195.328Z" fill="#DADADA" stroke="#1D1D1B" stroke-width="0.5" stroke-miterlimit="10"/>
<path d="M218.363 197.621L217.314 202.091H221.992L220.954 197.621H218.363Z" fill="#DADADA" stroke="#1D1D1B" stroke-width="0.5" stroke-miterlimit="10"/>
<path d="M215.63 193.812H228.042" stroke="#010101" stroke-width="0.5" stroke-miterlimit="10"/>
<path d="M222.419 149.107H217.051" stroke="#010101" stroke-width="0.5" stroke-miterlimit="10"/>
<path d="M222.419 154.3H217.051" stroke="#010101" stroke-width="0.5" stroke-miterlimit="10"/>
<path d="M222.419 159.395H217.051" stroke="#010101" stroke-width="0.5" stroke-miterlimit="10"/>
<path d="M222.419 164.574H217.044" stroke="#010101" stroke-width="0.5" stroke-miterlimit="10"/>
<path d="M222.419 169.612H217.051" stroke="#010101" stroke-width="0.5" stroke-miterlimit="10"/>
<path d="M222.419 174.77H217.051" stroke="#010101" stroke-width="0.5" stroke-miterlimit="10"/>
<path d="M222.419 180.063H217.343" stroke="#010101" stroke-width="0.5" stroke-miterlimit="10"/>
<path d="M216.33 175.931L216.237 140.651C216.237 140.651 216.095 132.841 210.714 127.306C210.622 127.21 210.512 127.132 210.39 127.08C210.268 127.027 210.136 127 210.003 127C209.87 127 209.738 127.027 209.616 127.08C209.493 127.132 209.383 127.21 209.292 127.306C203.924 132.841 203.764 140.651 203.764 140.651L203.669 175.923" stroke="black" stroke-width="1.5" stroke-miterlimit="10"/>
<path d="M222.408 185.817V185.875" stroke="#1D1D1B" stroke-width="1.5" stroke-miterlimit="10"/>
<path d="M222.408 185.817V149.107C222.408 149.107 222.454 146.235 220.254 142.493C220.197 142.395 220.114 142.314 220.015 142.259C219.916 142.203 219.803 142.175 219.69 142.177C219.576 142.179 219.465 142.212 219.368 142.271C219.271 142.33 219.192 142.414 219.138 142.514C216.771 146.888 217.041 149.11 217.041 149.11V179.346" stroke="black" stroke-width="1.5" stroke-miterlimit="10"/>
<path d="M197.661 185.853V149.085C197.661 149.085 197.615 146.214 199.815 142.475C199.873 142.377 199.955 142.296 200.054 142.24C200.153 142.184 200.265 142.156 200.379 142.158C200.492 142.159 200.603 142.192 200.701 142.25C200.798 142.309 200.878 142.393 200.932 142.493C203.299 146.867 203.029 149.089 203.029 149.089V179.026" stroke="black" stroke-width="1.5" stroke-miterlimit="10"/>
<path d="M199.055 197.731H199.154" stroke="black" stroke-width="1.5" stroke-miterlimit="10"/>
<path d="M197.484 195.437V195.307" stroke="black" stroke-width="1.5" stroke-miterlimit="10"/>
<path d="M197.484 195.438V197.731H199.055" stroke="black" stroke-width="1.5" stroke-miterlimit="10"/>
<path d="M203.228 195.437V195.307" stroke="black" stroke-width="1.5" stroke-miterlimit="10"/>
<path d="M203.228 195.438V197.731H201.646" stroke="black" stroke-width="1.5" stroke-miterlimit="10"/>
<path d="M201.529 197.731H201.645" stroke="black" stroke-width="1.5" stroke-miterlimit="10"/>
<path d="M199.055 197.731L198.017 202.197H202.695L201.646 197.731" stroke="black" stroke-width="1.5" stroke-miterlimit="10"/>
<path d="M203.857 195.438H203.941" stroke="black" stroke-width="1.5" stroke-miterlimit="10"/>
<path d="M203.857 195.438H203.228" stroke="black" stroke-width="1.5" stroke-miterlimit="10"/>
<path d="M197.484 195.438H191.914C191.9 194.932 191.919 194.425 191.97 193.922C192.077 192.797 192.372 191.313 193.165 190.478C193.819 189.768 195.763 187.788 197.651 185.863C197.651 185.863 202.897 181.738 203.043 179.143C203.347 178.1 203.549 177.03 203.647 175.948L205.648 163.342V161.155C205.648 161.155 207.262 149.874 209.988 149.888C212.715 149.902 214.307 160.886 214.307 160.886L214.346 163.527L216.28 175.458" stroke="black" stroke-width="1.5" stroke-miterlimit="10"/>
<path d="M222.408 185.817C224.271 187.727 226.179 189.687 226.823 190.368C227.615 191.206 227.91 192.687 228.017 193.812C228.068 194.315 228.087 194.822 228.074 195.328H222.515" stroke="black" stroke-width="1.5" stroke-miterlimit="10"/>
<path d="M216.006 195.328H216.056H216.771" stroke="black" stroke-width="1.5" stroke-miterlimit="10"/>
<path d="M222.408 185.817C220.24 183.595 218.143 181.437 218.143 181.437C218.143 181.437 217.577 180.886 217.076 179.331" stroke="black" stroke-width="1.5" stroke-miterlimit="10"/>
<path d="M216.771 195.328H222.515" stroke="#1D1D1B" stroke-width="1.5" stroke-miterlimit="10"/>
<path d="M216.34 175.821C216.449 177.013 216.687 178.191 217.051 179.332" stroke="black" stroke-width="1.5" stroke-miterlimit="10"/>
<path d="M204.92 199.925L205.108 201.089" stroke="black" stroke-width="1.5" stroke-miterlimit="10"/>
<path d="M209.811 204.387H205.648L205.254 201.966" stroke="black" stroke-width="1.5" stroke-miterlimit="10"/>
<path d="M214.865 201.909L214.528 204.387H210.358" stroke="black" stroke-width="1.5" stroke-miterlimit="10"/>
<path d="M214.929 201.43L215.128 199.964" stroke="black" stroke-width="1.5" stroke-miterlimit="10"/>
<path d="M203.857 195.438C203.668 196.936 203.748 198.455 204.091 199.925H204.92" stroke="black" stroke-width="1.5" stroke-miterlimit="10"/>
<path d="M204.92 199.925H205.648" stroke="black" stroke-width="1.5" stroke-miterlimit="10"/>
<path d="M205.108 201.089L204.745 201.87L205.254 201.966" stroke="black" stroke-width="1.5" stroke-miterlimit="10"/>
<path d="M216.006 195.321C216.211 196.85 216.137 198.404 215.786 199.907H214.225" stroke="black" stroke-width="1.5" stroke-miterlimit="10"/>
<path d="M214.865 201.909L215.128 201.86L214.929 201.43" stroke="black" stroke-width="1.5" stroke-miterlimit="10"/>
<path d="M209.811 204.387L209.85 206.461H210.326L210.358 204.387" stroke="black" stroke-width="1.5" stroke-miterlimit="10"/>
<path d="M216.771 195.328H222.515" stroke="black" stroke-width="1.5" stroke-miterlimit="10"/>
<path d="M216.771 195.328V197.621H222.515V195.328" stroke="black" stroke-width="1.5" stroke-miterlimit="10"/>
<path d="M218.352 197.621L217.304 202.091H221.982L220.944 197.621" stroke="black" stroke-width="1.5" stroke-miterlimit="10"/>
<path d="M12.9356 200.762L18.0008 190.822L17.7804 116.095L16.8456 109.971L17.7591 106.332V99.9421H20.5139V101.007H22.5578V99.9421H27.7119V101.007H29.4891C29.4003 100.652 29.2759 99.9421 29.4891 99.9421H31.9773L32.0662 106.332C32.2105 107.569 32.4785 108.788 32.8659 109.971L31.9773 115.74V190.822L37.2203 200.762V205.643L36.2428 205.91L32.6882 203.957L32.7593 205.2H31.7818L32.7593 206.62H17.1868L17.8978 205.2H17.098L17.1726 203.957L14.6098 205.91L12.9214 205.643L12.9356 200.762Z" fill="#B2B2B2"/>
<path d="M9.55511 90.7122L17.7306 68.8797C17.7092 61.5241 17.7306 48.9677 17.9012 40.8347L12.3099 39.5034V35.6836L22.1382 22.0161C23.2437 19.4992 24.3456 17.5786 25.1063 17.5786C25.8669 17.5786 27.1004 19.4885 28.2805 22.0161L37.7249 35.6836V39.7661L32.0376 40.8311C32.1691 48.1299 32.29 59.0568 32.29 68.8761L40.2877 90.7086V98.6074L34.5116 99.9386H29.6418V101.004H27.6868V99.9386H22.5328V101.004H20.4889V99.9386H15.2459L9.55867 98.6074L9.55511 90.7122Z" fill="#DADADA"/>
<path d="M17.7344 68.8797L9.55899 90.7122V98.6109L15.2463 99.9422M17.7344 68.8797C17.7131 61.5241 17.7344 48.9677 17.9051 40.8347M17.7344 68.8797L19.4229 96.7472L17.7344 99.9422M17.7344 68.8797L15.2463 99.9422M32.3081 68.8797L40.3058 90.7122V98.6109L34.5297 99.9422M32.3081 68.8797C32.3081 59.0568 32.1872 48.1299 32.0557 40.8347M32.3081 68.8797L30.7974 96.7472L31.9526 99.9422M32.3081 68.8797L34.5297 99.9422M15.2463 99.9422H17.7344M17.7344 99.9422H20.5781M17.7344 99.9422V106.243M17.9833 190.822L12.918 200.762V205.643L14.6064 205.91L17.1693 203.957M17.9833 190.822L17.1693 203.957M17.9833 190.822L17.7664 116.982M31.9349 190.822L37.1778 200.762V205.643L36.2003 205.91L32.6458 203.957M31.9349 190.822L32.6458 203.957M31.9349 190.822V116.982M31.9349 99.9422H34.5119M31.9349 99.9422H29.5142M31.9349 99.9422L31.9633 106.243M22.1421 22.0161C20.3932 25.9957 18.648 31.4627 18.2676 33.1986C18.1041 33.9441 17.9868 36.8622 17.9122 40.8311M22.1492 22.0161C23.2547 19.4992 24.3566 17.5786 25.1172 17.5786C25.8779 17.5786 27.1113 19.4885 28.2914 22.0161M22.1492 22.0161L12.3209 35.6836V39.4999L17.9122 40.8311M28.2914 22.0161C30.0687 25.8004 31.7642 30.9657 31.8709 33.1986C31.9277 34.4411 31.9988 37.1853 32.0628 40.8311M28.2914 22.0161L37.7359 35.6836V39.7661L32.0486 40.8311M17.187 203.957L17.1124 205.2H17.9122M32.6813 203.957L32.7524 205.2H31.7749M17.9122 205.2L17.2013 206.62H32.7666L31.7891 205.2M17.9264 205.2H18.9039M31.7891 205.2H31.2559M20.5923 99.9422C20.7594 95.3449 21.8648 91.5713 22.4407 90.1797V99.9422M20.5923 99.9422C20.5923 100.322 20.5923 100.705 20.5923 101.096H22.4584V99.9422M22.4584 99.9422H27.7014M27.7014 99.9422V101.096H29.5675C29.5675 100.705 29.5675 100.322 29.5462 99.9422M27.7014 99.9422V90.1797C28.2737 91.5713 29.3791 95.3449 29.5462 99.9422M17.7593 106.243H19.7854L21.2961 111.657L19.7854 116.982H17.7913M17.7593 106.243L16.8529 109.971L17.7913 116.982M31.9775 106.243H29.955L28.4443 111.657L29.955 116.982H31.9491M31.9775 106.243L32.8875 109.971L31.9491 116.982M22.7073 205.2L22.4407 190.378L18.8861 201.117V205.2M22.7073 205.2L18.8861 205.91V205.2M22.7073 205.2H27.2393M27.2393 205.2L31.2382 205.91V205.2M27.2393 205.2L27.5059 190.29L31.2382 201.117V205.2M20.3968 29.7374H29.9052C28.9846 26.4536 26.7417 19.9039 25.1066 19.9749C23.4715 20.0459 21.289 26.514 20.4004 29.7374H20.3968Z" stroke="#010101" stroke-width="0.5"/>
<path d="M9.55522 90.7122L17.7307 68.8797C17.7093 61.5241 17.7307 48.9677 17.9013 40.8347L12.31 39.5034V35.6836L22.1383 22.0161C23.2438 19.4992 24.3457 17.5786 25.1064 17.5786C25.867 17.5786 27.1005 19.4885 28.2806 22.0161L37.725 35.6836V39.7661L32.0377 40.8311C32.1692 48.1299 32.2901 59.0568 32.2901 68.8761L40.2878 90.7086V98.6074L34.5117 99.9386H31.9346V190.819L37.1776 200.759V205.64L36.2001 205.906L32.6455 203.954L32.7166 205.196H31.7391L32.7166 206.616H17.1868L17.8977 205.196H17.098L17.1726 203.954L14.6098 205.906L12.9214 205.64V200.762L17.9866 190.822L17.72 99.9422H15.2318L9.54456 98.6109L9.55522 90.7122Z" stroke="#010101" stroke-width="1.5"/>
<text fill="white" xml:space="preserve" style="white-space: pre" font-family="Assistant" font-size="11" font-weight="bold" letter-spacing="0em"><tspan x="0.735352" y="234.037">STARSHIP</tspan></text>
<text fill="#BBECF9" xml:space="preserve" style="white-space: pre" font-family="Assistant" font-size="10" font-weight="bold" letter-spacing="0em"><tspan x="7.08496" y="262.17">5.000 ton</tspan></text>
<text fill="white" xml:space="preserve" style="white-space: pre" font-family="Assistant" font-size="10" font-weight="600" letter-spacing="0em"><tspan x="17.5977" y="249.17">2012&#10;</tspan></text>
<text fill="white" xml:space="preserve" style="white-space: pre" font-family="Assistant" font-size="11" font-weight="bold" letter-spacing="0em"><tspan x="80.624" y="234.037">SATURNO V</tspan></text>
<text fill="#BBECF9" xml:space="preserve" style="white-space: pre" font-family="Assistant" font-size="10" font-weight="bold" letter-spacing="0em"><tspan x="88.085" y="262.17">3.000 ton</tspan></text>
<text fill="white" xml:space="preserve" style="white-space: pre" font-family="Assistant" font-size="10" font-weight="600" letter-spacing="0em"><tspan x="87.1084" y="249.17">1967-1973&#10;</tspan></text>
<text fill="white" xml:space="preserve" style="white-space: pre" font-family="Assistant" font-size="11" font-weight="bold" letter-spacing="0em"><tspan x="156.127" y="233.973">TRANSBORDADOR STS</tspan></text>
<text fill="#BBECF9" xml:space="preserve" style="white-space: pre" font-family="Assistant" font-size="10" font-weight="bold" letter-spacing="0em"><tspan x="189.585" y="262.106">2.030 ton</tspan></text>
<text fill="white" xml:space="preserve" style="white-space: pre" font-family="Assistant" font-size="10" font-weight="600" letter-spacing="0em"><tspan x="189.038" y="249.106">1981-2011&#10;</tspan></text>
<path d="M300.261 131.24C300.079 131.067 299.976 131.044 299.794 131.24V134.833H299.608L299.514 140.408L298.021 142.941L297.928 147.272L297.508 147.733L297.601 149.806V154.044H297.881L297.694 167.819L297.465 179.612L294.352 204.213L293.448 204.812V205.089H294.242H294.714L294.662 205.503C296.165 205.979 296.988 205.903 298.441 205.503L298.458 205.089H300.293L300.307 205.503C301.864 206.042 302.788 206.114 304.6 205.503L304.552 205.089H305.113H306V204.812L305.006 204.213L301.983 179.612L301.754 167.819V154.044H302.127V149.944L302.267 147.733L301.941 147.272V142.941L300.447 140.408V134.833H300.261V131.24Z" fill="#D9D9D9"/>
<path d="M300.261 134.833V131.24C300.079 131.067 299.976 131.044 299.794 131.24V134.833M300.261 134.833H300.447V140.408M300.261 134.833C300.167 134.833 299.943 134.833 299.794 134.833M300.447 140.408L301.941 142.941M300.447 140.408C300.271 140.555 300.132 140.633 299.994 140.638M301.941 142.941V147.272M301.941 142.941C300.41 143.535 299.551 143.527 298.021 142.941M301.941 147.272L302.267 147.733L302.127 149.944M301.941 147.272L302.127 149.944M301.941 147.272C300.472 147.869 299.584 147.815 297.928 147.272M302.127 149.944V154.044H301.754M301.754 154.044V159.803M301.754 154.044C301.07 154.212 300.522 154.304 299.994 154.321M301.754 167.819L301.983 179.612M301.754 167.819V165.654M301.754 167.819C300.169 168.009 299.28 167.977 297.694 167.819M297.694 167.819L297.465 179.612M297.694 167.819L297.724 165.654M297.881 154.044H297.601V149.806M297.881 154.044L297.803 159.803M297.881 154.044C298.707 154.25 299.335 154.344 299.994 154.321M297.601 149.806L297.508 147.733L297.928 147.272M297.601 149.806L297.928 147.272M297.928 147.272L298.021 142.941M298.021 142.941L299.514 140.408M299.514 140.408L299.608 134.833H299.794M299.514 140.408C299.702 140.569 299.848 140.645 299.994 140.638M297.465 179.612L297.442 183.143M297.465 179.612L295.437 195.644M297.465 179.612C299.107 180.311 300.101 180.286 301.983 179.612M294.714 205.089L294.662 205.503C296.165 205.979 296.988 205.903 298.441 205.503L298.458 205.089M294.714 205.089H294.242H293.448V204.812L294.352 204.213L294.644 201.91M294.714 205.089L295.119 201.91M301.983 179.612V183.209M301.983 179.612L303.953 195.644M304.552 205.089L304.6 205.503C302.788 206.114 301.864 206.042 300.307 205.503L300.293 205.089M304.552 205.089H305.113H306V204.812L305.006 204.213L304.723 201.91M304.552 205.089L304.178 201.91M298.458 205.089H300.293M298.458 205.089L298.429 201.91M300.293 205.089L300.414 201.91M297.803 159.803C299.279 160.319 300.145 160.302 301.754 159.803M297.803 159.803L297.762 162.843M301.754 159.803V162.843M297.762 162.843C299.22 163.18 300.096 163.173 301.754 162.843M297.762 162.843L297.724 165.654M301.754 162.843V165.654M297.724 165.654C299.252 165.933 300.127 165.976 301.754 165.654M297.442 183.143V183.143C297.538 182.653 298.259 182.723 298.259 183.222V183.344M297.442 183.143L295.918 195.644M301.983 183.209V183.209C301.906 182.705 301.171 182.729 301.128 183.238L301.119 183.344M301.983 183.209L303.443 195.644M295.437 195.644C295.648 195.726 295.752 195.719 295.918 195.644M295.437 195.644L294.644 201.91M295.918 195.644C296.876 196.251 297.413 196.223 298.371 195.644M295.918 195.644L295.119 201.91M298.371 195.644C299.229 195.988 299.72 196.068 300.652 195.644M298.371 195.644L298.429 201.91M298.371 195.644L298.259 183.344M300.652 195.644L300.653 195.615M300.652 195.644L300.414 201.91M303.443 195.644C303.571 195.701 303.849 195.698 303.953 195.644M303.443 195.644C303.108 196.344 301.33 196.361 300.653 195.615M303.443 195.644L304.178 201.91M303.953 195.644L304.723 201.91M300.653 195.615L301.119 183.344M294.644 201.91C294.838 202.028 294.942 202.032 295.119 201.91M295.119 201.91C296.331 202.854 297.065 202.749 298.429 201.91M298.429 201.91C299.204 202.36 299.638 202.342 300.414 201.91M300.414 201.91C301.92 202.972 302.748 203.073 304.178 201.91M304.178 201.91C304.406 202.027 304.525 202.028 304.723 201.91M298.259 183.344C299.439 183.6 300.06 183.578 301.119 183.344M299.994 140.638V154.321" stroke="black" stroke-width="0.5"/>
<path d="M300.261 131.24C300.079 131.067 299.976 131.044 299.794 131.24V134.833H299.608L299.514 140.408L298.021 142.941L297.928 147.272L297.508 147.733L297.601 149.806V154.044H297.881L297.694 167.819L297.465 179.612L294.352 204.213L293.448 204.812V205.089H294.242H294.714L294.662 205.503C296.165 205.979 296.988 205.903 298.441 205.503L298.458 205.089H300.293L300.307 205.503C301.864 206.042 302.788 206.114 304.6 205.503L304.552 205.089H305.113H306V204.812L305.006 204.213L301.983 179.612L301.754 167.819V154.044H302.127V149.944L302.267 147.733L301.941 147.272V142.941L300.447 140.408V134.833H300.261V131.24Z" stroke="black" stroke-width="1.5"/>
<text fill="white" xml:space="preserve" style="white-space: pre" font-family="Assistant" font-size="11" font-weight="bold" letter-spacing="0em"><tspan x="283.526" y="233.582">SOYUZ</tspan></text>
<text fill="#BBECF9" xml:space="preserve" style="white-space: pre" font-family="Assistant" font-size="10" font-weight="bold" letter-spacing="0em"><tspan x="283.162" y="261.715">308 ton</tspan></text>
<text fill="white" xml:space="preserve" style="white-space: pre" font-family="Assistant" font-size="10" font-weight="600" letter-spacing="0em"><tspan x="289.598" y="248.715">1967&#10;</tspan></text>
<text fill="white" xml:space="preserve" style="white-space: pre" font-family="Assistant" font-size="11" font-weight="600" letter-spacing="0em"><tspan x="12.4219" y="11.037">119 m</tspan></text>
<text fill="white" xml:space="preserve" style="white-space: pre" font-family="Assistant" font-size="11" font-weight="600" letter-spacing="0em"><tspan x="94.4219" y="25.037">110 m</tspan></text>
<text fill="white" xml:space="preserve" style="white-space: pre" font-family="Assistant" font-size="11" font-weight="600" letter-spacing="0em"><tspan x="198.231" y="120.037">56 m</tspan></text>
<text fill="white" xml:space="preserve" style="white-space: pre" font-family="Assistant" font-size="11" font-weight="600" letter-spacing="0em"><tspan x="286.499" y="123.037">45,6 m</tspan></text>
<path d="M80 219H137" stroke="white"/>
<path d="M155 219H264" stroke="white"/>
<path d="M0 219H49" stroke="white"/>
<path d="M284 219H316" stroke="white"/>
<path d="M109 208L109 219" stroke="white"/>
<path d="M210 208L210 219" stroke="white"/>
<path d="M25 208L25 219" stroke="white"/>
<path d="M300 208L300 219" stroke="white"/>
</svg>
