<svg width="346" height="475" viewBox="0 0 346 475" fill="none" xmlns="http://www.w3.org/2000/svg">
<path d="M245.941 251.66L251.827 240.067L251.571 152.906L250.485 145.764L251.546 141.52V134.067H254.748V135.309H257.123V134.067H263.113V135.309H265.178C265.075 134.895 264.93 134.067 265.178 134.067H268.07L268.173 141.52C268.342 142.961 268.652 144.385 269.103 145.764L268.07 152.492V240.067L274.163 251.66V257.354L273.027 257.664L268.896 255.387L268.979 256.836H267.843L268.979 258.492H250.881L251.708 256.836H250.778L250.865 255.387L247.886 257.664L245.924 257.354L245.941 251.66Z" fill="#B2B2B2"/>
<path d="M242.013 123.301L251.513 97.8362C251.489 89.2568 251.514 74.6114 251.712 65.1252L245.214 63.5725V59.1172L256.636 43.1758C257.92 40.2401 259.201 38 260.085 38C260.969 38 262.402 40.2277 263.774 43.1758L274.75 59.1172V63.8789L268.14 65.1211C268.293 73.6342 268.433 86.3791 268.433 97.832L277.728 123.297V132.51L271.015 134.063H265.356V135.305H263.084V134.063H257.094V135.305H254.719V134.063H248.626L242.017 132.51L242.013 123.301Z" fill="#DADADA"/>
<path d="M251.518 97.8362L242.017 123.301V132.514L248.626 134.067M251.518 97.8362C251.493 89.2568 251.518 74.6114 251.716 65.1252M251.518 97.8362L253.48 130.34L251.518 134.067M251.518 97.8362L248.626 134.067M268.454 97.8362L277.749 123.301V132.514L271.036 134.067M268.454 97.8362C268.454 86.3791 268.314 73.6342 268.161 65.1252M268.454 97.8362L266.699 130.34L268.041 134.067M268.454 97.8362L271.036 134.067M248.626 134.067H251.518M251.518 134.067H254.823M251.518 134.067V141.416M251.807 240.067L245.921 251.66V257.354L247.883 257.664L250.861 255.387M251.807 240.067L250.861 255.387M251.807 240.067L251.555 153.942M268.021 240.067L274.114 251.66V257.354L272.978 257.664L268.847 255.387M268.021 240.067L268.847 255.387M268.021 240.067V153.942M268.021 134.067H271.016M268.021 134.067H265.208M268.021 134.067L268.054 141.416M256.64 43.1758C254.608 47.8174 252.58 54.194 252.138 56.2187C251.947 57.0883 251.811 60.4919 251.724 65.1211M256.648 43.1758C257.933 40.2401 259.214 38 260.098 38C260.982 38 262.415 40.2277 263.787 43.1758M256.648 43.1758L245.227 59.1172V63.5684L251.724 65.1211M263.787 43.1758C265.852 47.5897 267.822 53.6143 267.946 56.2187C268.012 57.668 268.095 60.8687 268.169 65.1211M263.787 43.1758L274.762 59.1172V63.8789L268.153 65.1211M250.882 255.387L250.795 256.836H251.724M268.888 255.387L268.971 256.836H267.835M251.724 256.836L250.898 258.492H268.987L267.851 256.836M251.741 256.836H252.877M267.851 256.836H267.232M254.839 134.067C255.033 128.705 256.318 124.303 256.987 122.68V134.067M254.839 134.067C254.839 134.51 254.839 134.957 254.839 135.412H257.008V134.067M257.008 134.067H263.101M263.101 134.067V135.412H265.27C265.27 134.957 265.27 134.51 265.245 134.067M263.101 134.067V122.68C263.766 124.303 265.051 128.705 265.245 134.067M251.547 141.416H253.901L255.657 147.731L253.901 153.942H251.584M251.547 141.416L250.493 145.764L251.584 153.942M268.07 141.416H265.72L263.964 147.731L265.72 153.942H268.037M268.07 141.416L269.128 145.764L268.037 153.942M257.297 256.836L256.987 239.549L252.856 252.074V256.836M257.297 256.836L252.856 257.664V256.836M257.297 256.836H262.564M262.564 256.836L267.211 257.664V256.836M262.564 256.836L262.874 239.446L267.211 252.074V256.836M254.612 52.1816H265.662C264.592 48.3516 261.985 40.7121 260.085 40.7949C258.185 40.8777 255.649 48.422 254.616 52.1816H254.612Z" stroke="#010101" stroke-width="0.5"/>
<path d="M242.012 123.301L251.513 97.8362C251.489 89.2568 251.513 74.6114 251.712 65.1252L245.214 63.5725V59.1172L256.636 43.1758C257.92 40.2401 259.201 38 260.085 38C260.969 38 262.402 40.2277 263.774 43.1758L274.749 59.1172V63.8789L268.14 65.1211C268.293 73.6342 268.433 86.3791 268.433 97.832L277.728 123.297V132.51L271.015 134.063H268.02V240.062L274.113 251.656V257.35L272.977 257.66L268.846 255.383L268.929 256.832H267.793L268.929 258.488H250.881L251.708 256.832H250.778L250.865 255.383L247.886 257.66L245.924 257.35V251.66L251.811 240.067L251.501 134.067H248.609L242 132.514L242.012 123.301Z" stroke="#010101" stroke-width="1.5"/>
<path d="M14.2549 221.616V225.26H17.2704V221.616L16.0477 219.177C15.9279 218.941 15.5933 218.941 15.4735 219.177L14.2549 221.616Z" fill="#DADADA" stroke="black" stroke-width="0.5" stroke-miterlimit="10"/>
<path d="M15.7667 225.26H13.8335V252.671H15.7667H17.5513V225.26H15.7667Z" fill="#B2B2B2" stroke="black" stroke-width="0.5" stroke-miterlimit="10"/>
<path d="M13.8418 226.171H17.5513" stroke="black" stroke-width="0.5" stroke-miterlimit="10"/>
<path d="M17.5554 228.862H13.8335V234.965H17.5554V228.862Z" fill="#4D4D4D" stroke="black" stroke-width="0.5" stroke-miterlimit="10"/>
<path d="M13.8335 252.671L15.6924 255.316L17.5513 252.671H13.8335Z" stroke="black" stroke-width="0.5" stroke-miterlimit="10" stroke-linecap="round" stroke-linejoin="round"/>
<path d="M17.5513 252.671L15.6924 254.174L13.8335 252.671" stroke="black" stroke-width="0.5" stroke-miterlimit="10" stroke-linecap="round" stroke-linejoin="round"/>
<path d="M16.3203 255.155H15.0811V255.983H16.3203V255.155Z" fill="#4D4D4D" stroke="black" stroke-width="0.5" stroke-miterlimit="10"/>
<path d="M14.6803 257.979L15.7006 255.983L16.8118 257.979H14.6803Z" fill="#4D4D4D" stroke="black" stroke-width="0.5" stroke-miterlimit="10" stroke-linecap="round" stroke-linejoin="round"/>
<path d="M15.7585 255.983C16.0724 255.983 16.3244 255.73 16.3244 255.416V255.155H15.8122L17.4563 252.815C17.5224 252.72 17.5595 252.604 17.5595 252.488V225.26H17.2787V221.753C17.2787 221.661 17.258 221.574 17.2167 221.496L16.2294 219.562C16.0146 219.144 15.4156 219.152 15.2132 219.579L14.3127 221.504C14.2755 221.579 14.259 221.661 14.259 221.744V225.264H13.8376V252.493C13.8376 252.608 13.8748 252.724 13.9409 252.82L15.585 255.159H15.0893V255.42C15.0893 255.735 15.3413 255.987 15.6552 255.987H15.7585V255.983Z" stroke="black" stroke-width="1.5" stroke-miterlimit="10" stroke-linecap="round" stroke-linejoin="round"/>
<path d="M14.6803 257.979H16.8118L15.7006 255.983L14.6803 257.979Z" stroke="black" stroke-width="1.5" stroke-miterlimit="10" stroke-linecap="round" stroke-linejoin="round"/>
<path d="M49.6192 177.432H42.1382V255.276H49.6192V177.432Z" fill="#B2B2B2" stroke="black" stroke-width="0.5" stroke-miterlimit="10"/>
<path d="M49.3094 171.842H42.1382V177.432H49.3094V171.842Z" fill="#DADADA" stroke="black" stroke-width="0.5" stroke-miterlimit="10"/>
<path d="M49.4126 171.035H42.3901V171.863H49.4126V171.035Z" fill="#DADADA" stroke="black" stroke-width="0.5" stroke-miterlimit="10"/>
<path d="M42.7578 178.053V171.797C42.7578 171.797 42.3902 171.035 41.8862 171.797V177.25C41.8862 177.25 41.9317 177.639 42.7578 178.053Z" fill="#DADADA" stroke="black" stroke-width="0.5" stroke-miterlimit="10"/>
<path d="M48.8962 178.053V171.822C48.8962 171.822 49.4126 171.035 49.8587 171.822V177.428C49.8587 177.432 49.6191 178.028 48.8962 178.053Z" fill="#DADADA" stroke="black" stroke-width="0.5" stroke-miterlimit="10"/>
<path d="M42.3901 171.035L43.6294 166.48H48.1733L49.4126 171.035H42.3901Z" fill="#DADADA" stroke="black" stroke-width="0.5" stroke-miterlimit="10"/>
<path d="M43.6294 166.48C43.6294 163.996 45.9014 164 45.9014 164C45.9014 164 48.1733 163.996 48.1733 166.48H43.6294Z" fill="#DADADA" stroke="black" stroke-width="0.5" stroke-miterlimit="10"/>
<path d="M45.8724 255.276L44.8687 257.574H46.8928L45.8724 255.276Z" fill="#4D4D4D" stroke="black" stroke-width="0.5" stroke-miterlimit="10" stroke-linecap="round" stroke-linejoin="round"/>
<path d="M42.8239 255.276L41.8201 257.574H43.8442L42.8239 255.276Z" fill="#4D4D4D" stroke="black" stroke-width="0.5" stroke-miterlimit="10" stroke-linecap="round" stroke-linejoin="round"/>
<path d="M48.859 255.276L47.8552 257.574H49.8793L48.859 255.276Z" fill="#4D4D4D" stroke="black" stroke-width="0.5" stroke-miterlimit="10" stroke-linecap="round" stroke-linejoin="round"/>
<path d="M42.1382 187.08H49.6192" stroke="black" stroke-width="0.5" stroke-miterlimit="10" stroke-linecap="round" stroke-linejoin="round"/>
<path d="M42.1382 198.711H49.6192" stroke="black" stroke-width="0.5" stroke-miterlimit="10" stroke-linecap="round" stroke-linejoin="round"/>
<path d="M42.1382 253.28H49.3094" stroke="black" stroke-width="0.5" stroke-miterlimit="10" stroke-linecap="round" stroke-linejoin="round"/>
<path d="M40.7957 255.504H42.6917L42.006 252.365C41.9151 251.955 41.3244 251.972 41.2624 252.39L40.7957 255.504Z" fill="#B2B2B2" stroke="black" stroke-width="0.5" stroke-miterlimit="10"/>
<path d="M50.7015 255.504H48.8054L49.4911 252.365C49.582 251.955 50.1727 251.972 50.2347 252.39L50.7015 255.504Z" fill="#B2B2B2" stroke="black" stroke-width="0.5" stroke-miterlimit="10"/>
<path d="M49.6192 177.759L49.8588 177.432V171.822C49.8588 171.822 49.8257 171.449 49.4126 171.449V171.035L48.1734 166.48C48.1734 166.48 48.1734 164 45.9014 164C45.9014 164 43.6294 163.996 43.6294 166.48L42.3902 171.035V171.362C42.3902 171.362 41.9771 171.449 41.8862 171.797V177.25L42.1382 177.635V252.208C42.1382 252.208 41.4401 251.529 41.2955 252.274L40.7957 255.504H42.6917L41.8201 257.574H43.8442L42.8239 255.276H45.8725L44.8687 257.574H46.8928L45.9551 255.276H48.8632L47.8594 257.574H49.8835L48.9665 255.504H50.7097L50.2471 252.39C50.2471 252.39 50.2471 251.943 49.6274 252.067V177.759H49.6192Z" stroke="black" stroke-width="1.5" stroke-miterlimit="10" stroke-linecap="round" stroke-linejoin="round"/>
<path d="M49.6192 177.759L49.8588 177.432V171.822C49.8588 171.822 49.8257 171.449 49.4126 171.449V171.035L48.1734 166.48C48.1734 166.48 48.1734 164 45.9014 164C45.9014 164 43.6294 163.996 43.6294 166.48L42.3902 171.035V171.362C42.3902 171.362 41.9771 171.449 41.8862 171.797V177.25L42.1382 177.635V252.208C42.1382 252.208 41.4401 251.529 41.2955 252.274L40.7957 255.504H42.6917L41.8201 257.574H43.8442L42.8239 255.276H45.8725L44.8687 257.574H46.8928L45.9551 255.276H48.8632L47.8594 257.574H49.8835L48.9665 255.504H50.7097L50.2471 252.39C50.2471 252.39 50.2471 251.943 49.6274 252.067V177.759H49.6192Z" stroke="black" stroke-width="1.5" stroke-miterlimit="10" stroke-linecap="round" stroke-linejoin="round"/>
<path d="M86.1895 150.432H78.7085V253.927H86.1895V150.432Z" fill="#B2B2B2" stroke="black" stroke-width="0.5" stroke-miterlimit="10"/>
<path d="M85.8797 144.842H78.7085V150.432H85.8797V144.842Z" fill="#DADADA" stroke="black" stroke-width="0.5" stroke-miterlimit="10"/>
<path d="M85.979 144.035H78.9565V144.863H85.979V144.035Z" fill="#DADADA" stroke="black" stroke-width="0.5" stroke-miterlimit="10"/>
<path d="M79.3284 151.053V144.797C79.3284 144.797 78.9607 144.035 78.4568 144.797V150.25C78.4526 150.25 78.5022 150.639 79.3284 151.053Z" fill="#DADADA" stroke="black" stroke-width="0.5" stroke-miterlimit="10"/>
<path d="M85.4626 151.053V144.826C85.4626 144.826 85.979 144.039 86.4251 144.826V150.432C86.4251 150.432 86.1855 151.033 85.4626 151.053Z" fill="#DADADA" stroke="black" stroke-width="0.5" stroke-miterlimit="10"/>
<path d="M78.9565 144.035L80.1958 139.48H84.7397L85.979 144.035H78.9565Z" fill="#DADADA" stroke="black" stroke-width="0.5" stroke-miterlimit="10"/>
<path d="M80.1958 139.48C80.1958 136.996 82.4678 137 82.4678 137C82.4678 137 84.7397 136.996 84.7397 139.48H80.1958Z" fill="#DADADA" stroke="black" stroke-width="0.5" stroke-miterlimit="10"/>
<path d="M85.7642 253.72H79.1548V255.376H85.7642V253.72Z" fill="#B2B2B2" stroke="black" stroke-width="0.5" stroke-miterlimit="10"/>
<path d="M79.6586 255.057L78.9771 257.202H85.9995L85.2064 255.057H79.6586Z" fill="#4D4D4D" stroke="black" stroke-width="0.5" stroke-miterlimit="10"/>
<path d="M83.645 257.202H81.1707V257.604H83.645V257.202Z" fill="#4D4D4D" stroke="black" stroke-width="0.5" stroke-miterlimit="10"/>
<path d="M85.2064 255.057L83.645 257.202L82.4883 255.057L81.1706 257.202L79.6587 255.057H85.2064Z" fill="#4D4D4D" stroke="black" stroke-width="0.5" stroke-miterlimit="10" stroke-linecap="round" stroke-linejoin="round"/>
<path d="M78.9772 257.202H81.1706V257.604H83.645V257.202H85.9996L85.3222 255.376H85.7642V253.72H86.9828L86.2516 233.543V150.954L86.4912 150.627V145.02C86.4912 145.02 86.4581 144.648 86.0451 144.648V144.234L84.8058 139.679C84.8058 139.679 84.8058 137.199 82.5338 137.199C82.5338 137.199 80.2619 137.195 80.2619 139.679L79.0226 144.234V144.561C79.0226 144.561 78.6095 144.648 78.5186 144.996V150.449L78.7706 150.834V233.688L78.2253 253.724H79.1548V255.38H79.5555L78.9772 257.202Z" stroke="black" stroke-width="1.5" stroke-miterlimit="10" stroke-linecap="round" stroke-linejoin="round"/>
<text fill="white" xml:space="preserve" style="white-space: pre" font-family="Roboto" font-size="7" letter-spacing="0em"><tspan x="21.5879" y="271.393"> 1</tspan></text>
<text fill="white" xml:space="preserve" style="white-space: pre" font-family="Roboto" font-size="7" font-weight="bold" letter-spacing="0em"><tspan x="0.738281" y="271.393">Falcon</tspan></text>
<text fill="white" xml:space="preserve" style="white-space: pre" font-family="Roboto" font-size="7" letter-spacing="0em"><tspan x="58.8062" y="271.393"> </tspan><tspan x="37.543" y="279.393">V 1.0</tspan></text>
<text fill="white" xml:space="preserve" style="white-space: pre" font-family="Roboto" font-size="7" font-weight="bold" letter-spacing="0em"><tspan x="32.1938" y="271.393">Falcon 9</tspan></text>
<text fill="white" xml:space="preserve" style="white-space: pre" font-family="Roboto" font-size="7" letter-spacing="0em"><tspan x="96.3062" y="271.393"> </tspan><tspan x="75.043" y="279.393">V 1.1</tspan></text>
<text fill="white" xml:space="preserve" style="white-space: pre" font-family="Roboto" font-size="7" font-weight="bold" letter-spacing="0em"><tspan x="69.6938" y="271.393">Falcon 9</tspan></text>
<text fill="white" xml:space="preserve" style="white-space: pre" font-family="Roboto" font-size="7" letter-spacing="0em"><tspan x="133.806" y="271.393"> </tspan><tspan x="112.543" y="279.393">V 1.2</tspan></text>
<text fill="white" xml:space="preserve" style="white-space: pre" font-family="Roboto" font-size="7" font-weight="bold" letter-spacing="0em"><tspan x="107.194" y="271.393">Falcon 9</tspan></text>
<text fill="white" xml:space="preserve" style="white-space: pre" font-family="Roboto" font-size="7" letter-spacing="0em"><tspan x="171.806" y="271.393"> </tspan><tspan x="147.029" y="279.393">Block 5</tspan></text>
<text fill="white" xml:space="preserve" style="white-space: pre" font-family="Roboto" font-size="7" font-weight="bold" letter-spacing="0em"><tspan x="145.194" y="271.393">Falcon 9</tspan></text>
<text fill="white" xml:space="preserve" style="white-space: pre" font-family="Roboto" font-size="7" font-weight="bold" letter-spacing="0em"><tspan x="198.575" y="271.393">Falcon </tspan><tspan x="199.255" y="279.393">Heavy</tspan></text>
<path d="M123.94 147.279H117.33V253.693H123.94V147.279Z" fill="#B2B2B2" stroke="black" stroke-width="0.5" stroke-miterlimit="10"/>
<path d="M117.33 164.309H123.94" stroke="black" stroke-width="0.5" stroke-miterlimit="10"/>
<path d="M117.33 177.07H123.94" stroke="black" stroke-width="0.5" stroke-miterlimit="10"/>
<path d="M124.146 253.486H117.124V255.556H124.146V253.486Z" fill="#4D4D4D" stroke="black" stroke-width="0.5" stroke-miterlimit="10"/>
<path d="M117.805 255.556L117.124 257.701H124.146L123.353 255.556H117.805Z" fill="#4D4D4D" stroke="black" stroke-width="0.5" stroke-miterlimit="10"/>
<path d="M121.791 257.701H119.317V258.102H121.791V257.701Z" fill="#4D4D4D" stroke="black" stroke-width="0.5" stroke-miterlimit="10"/>
<path d="M123.353 255.556L121.791 257.701L120.635 255.556L119.317 257.701L117.805 255.556H123.353Z" fill="#4D4D4D" stroke="black" stroke-width="0.5" stroke-miterlimit="10" stroke-linecap="round" stroke-linejoin="round"/>
<path d="M117.413 147.258H124.022L125.468 144.98H116.004L117.413 147.258Z" fill="#DADADA" stroke="black" stroke-width="0.5" stroke-miterlimit="10"/>
<path d="M124.811 128.36L123.621 124.257C122.746 121.238 118.458 121.288 117.656 124.331L116.582 128.41C116.194 129.88 116 131.391 116 132.91V144.98H125.464V132.981C125.468 131.416 125.245 129.863 124.811 128.36Z" fill="#DADADA" stroke="black" stroke-width="0.5" stroke-miterlimit="10"/>
<path d="M120.717 122V144.98" stroke="black" stroke-width="0.5" stroke-miterlimit="10"/>
<path d="M125.468 144.98L124.022 147.258L123.939 253.486H124.307V255.887H123.629L124.307 257.713H121.952V258.115H119.478V257.713H117.284L117.863 255.887H117.004V253.486H117.33L117.413 147.258L116.004 144.98" stroke="black" stroke-width="1.5" stroke-miterlimit="10" stroke-linecap="round" stroke-linejoin="round"/>
<path d="M125.509 145.014V133.014C125.509 131.453 125.29 129.896 124.852 128.393L123.663 124.29C122.787 121.267 118.499 121.321 117.698 124.364L116.624 128.443C116.235 129.913 116.041 131.424 116.041 132.944V145.014" stroke="black" stroke-width="1.5" stroke-miterlimit="10"/>
<path d="M155.632 147.331H162.241L163.687 145.054H154.223L155.632 147.331Z" fill="#DADADA" stroke="black" stroke-width="0.5" stroke-miterlimit="10"/>
<path d="M163.03 128.433L161.841 124.33C160.965 121.311 156.677 121.361 155.876 124.404L154.802 128.483C154.413 129.953 154.219 131.464 154.219 132.984V145.054H163.683V133.054C163.687 131.489 163.468 129.932 163.03 128.433Z" fill="#DADADA" stroke="black" stroke-width="0.5" stroke-miterlimit="10"/>
<path d="M158.937 122.073V145.054" stroke="black" stroke-width="0.5" stroke-miterlimit="10"/>
<path d="M156.227 255.459L155.545 257.604H162.568L161.775 255.459H156.227Z" fill="#4D4D4D" stroke="black" stroke-width="0.5" stroke-miterlimit="10"/>
<path d="M160.213 257.604H157.739V258.006H160.213V257.604Z" fill="#4D4D4D" stroke="black" stroke-width="0.5" stroke-miterlimit="10"/>
<path d="M161.775 255.459L160.213 257.604L159.057 255.459L157.739 257.604L156.227 255.459H161.775Z" fill="#4D4D4D" stroke="black" stroke-width="0.5" stroke-miterlimit="10" stroke-linecap="round" stroke-linejoin="round"/>
<path d="M162.448 248.983H155.839V255.608H162.448V248.983Z" fill="#4D4D4D" stroke="black" stroke-width="0.5" stroke-miterlimit="10"/>
<path d="M155.425 177.351H162.448V248.983H155.839L155.425 177.351Z" fill="#B2B2B2" stroke="black" stroke-width="0.5" stroke-miterlimit="10"/>
<path d="M155.425 234.545L154.723 254.275H158.97L156.454 234.499C156.376 233.866 155.45 233.912 155.425 234.545Z" fill="#4D4D4D" stroke="black" stroke-width="0.5" stroke-miterlimit="10"/>
<path d="M159.317 254.275H163.481L162.7 234.694C162.675 234.056 161.742 234.019 161.667 234.653L159.317 254.275Z" fill="#4D4D4D" stroke="black" stroke-width="0.5" stroke-miterlimit="10"/>
<path d="M158.495 254.275L156.574 246.996C156.392 246.313 155.405 246.4 155.343 247.104L154.723 254.275H163.481L162.659 246.996C162.584 246.325 161.63 246.271 161.481 246.93L159.796 254.275" fill="#4D4D4D"/>
<path d="M158.495 254.275L156.574 246.996C156.392 246.313 155.405 246.4 155.343 247.104L154.723 254.275H163.481L162.659 246.996C162.584 246.325 161.63 246.271 161.481 246.93L159.796 254.275" stroke="black" stroke-width="0.5" stroke-miterlimit="10"/>
<path d="M155.752 246.528L155.963 234.048" stroke="black" stroke-width="0.5" stroke-miterlimit="10"/>
<path d="M162.06 246.528L162.279 234.206" stroke="black" stroke-width="0.5" stroke-miterlimit="10"/>
<path d="M162.448 164.101H155.425V177.351H162.448V164.101Z" fill="#4D4D4D" stroke="black" stroke-width="0.5" stroke-miterlimit="10"/>
<path d="M155.012 179.835H157.429V176.647C157.094 175.413 155.347 175.413 155.012 176.647V179.835Z" fill="#4D4D4D" stroke="black" stroke-width="0.5" stroke-miterlimit="10"/>
<path d="M160.498 179.835H163.076V176.531C162.7 175.268 160.907 175.276 160.548 176.547L160.498 176.721V179.835Z" fill="#4D4D4D" stroke="black" stroke-width="0.5" stroke-miterlimit="10"/>
<path d="M162.448 147.124H155.425V164.101H162.448V147.124Z" fill="#B2B2B2" stroke="black" stroke-width="0.5" stroke-miterlimit="10"/>
<path d="M162.448 179.835V234.197L162.7 234.698L163.48 254.279H162.448V255.613H161.828L162.567 257.608H160.213V258.01H157.738V257.608H155.545L156.227 255.613H155.838V254.279H154.723L155.425 234.549L155.747 234.048L155.425 179.835H155.012V176.647L155.425 176.001V147.124L154 144.958V132.889C154 131.369 154.194 129.858 154.582 128.388L155.656 124.309C156.458 121.27 160.746 121.216 161.621 124.235L162.811 128.338C163.245 129.837 163.468 131.394 163.468 132.959V144.958L162.452 147.124L162.654 175.901L163.075 176.531V179.835H162.448Z" stroke="black" stroke-width="1.5" stroke-miterlimit="10"/>
<text fill="white" xml:space="preserve" style="white-space: pre" font-family="Roboto" font-size="7" font-weight="bold" letter-spacing="0em"><tspan x="246.348" y="271.393">Starship</tspan></text>
<path d="M206.063 147.37H212.672L214.118 145.093H204.654L206.063 147.37Z" fill="#DADADA" stroke="black" stroke-width="0.5" stroke-miterlimit="10"/>
<path d="M213.466 128.472L212.276 124.369C211.4 121.35 207.112 121.4 206.311 124.443L205.237 128.522C204.849 129.992 204.654 131.503 204.654 133.023V145.093H214.118V133.093C214.118 131.528 213.899 129.971 213.466 128.472Z" fill="#DADADA" stroke="black" stroke-width="0.5" stroke-miterlimit="10"/>
<path d="M209.368 122.112V145.093" stroke="black" stroke-width="0.5" stroke-miterlimit="10"/>
<path d="M206.658 255.498L205.98 257.643H213.003L212.206 255.498H206.658Z" fill="#4D4D4D" stroke="black" stroke-width="0.5" stroke-miterlimit="10"/>
<path d="M210.644 257.643H208.17V258.045H210.644V257.643Z" fill="#4D4D4D" stroke="black" stroke-width="0.5" stroke-miterlimit="10"/>
<path d="M212.206 255.498L210.648 257.643L209.492 255.498L208.17 257.643L206.658 255.498H212.206Z" fill="#4D4D4D" stroke="black" stroke-width="0.5" stroke-miterlimit="10" stroke-linecap="round" stroke-linejoin="round"/>
<path d="M212.879 249.022H206.27V255.647H212.879V249.022Z" fill="#4D4D4D" stroke="black" stroke-width="0.5" stroke-miterlimit="10"/>
<path d="M205.857 177.389H212.879V249.022H206.27L205.857 177.389Z" fill="#B2B2B2" stroke="black" stroke-width="0.5" stroke-miterlimit="10"/>
<path d="M205.861 234.584L205.159 254.314H209.405L206.89 234.538C206.807 233.905 205.882 233.946 205.861 234.584Z" fill="#B2B2B2" stroke="black" stroke-width="0.5" stroke-miterlimit="10"/>
<path d="M209.752 254.314H213.912L213.131 234.733C213.106 234.095 212.173 234.058 212.098 234.691L209.752 254.314Z" fill="#B2B2B2" stroke="black" stroke-width="0.5" stroke-miterlimit="10"/>
<path d="M208.926 254.314L207.005 247.035C206.823 246.352 205.836 246.438 205.774 247.142L205.154 254.314H213.912L213.09 247.035C213.015 246.364 212.061 246.31 211.912 246.968L210.227 254.314" fill="#B2B2B2"/>
<path d="M208.926 254.314L207.005 247.035C206.823 246.352 205.836 246.438 205.774 247.142L205.154 254.314H213.912L213.09 247.035C213.015 246.364 212.061 246.31 211.912 246.968L210.227 254.314" stroke="black" stroke-width="0.5" stroke-miterlimit="10"/>
<path d="M206.183 246.567L206.398 234.083" stroke="black" stroke-width="0.5" stroke-miterlimit="10"/>
<path d="M212.491 246.567L212.71 234.244" stroke="black" stroke-width="0.5" stroke-miterlimit="10"/>
<path d="M212.879 164.139H205.857V177.389H212.879V164.139Z" fill="#B2B2B2" stroke="black" stroke-width="0.5" stroke-miterlimit="10"/>
<path d="M205.443 179.874H207.86V176.686C207.525 175.452 205.778 175.452 205.443 176.686V179.874Z" fill="#4D4D4D" stroke="black" stroke-width="0.5" stroke-miterlimit="10"/>
<path d="M210.516 179.874H213.094V176.57C212.718 175.307 210.925 175.315 210.566 176.586L210.516 176.76V179.874Z" fill="#4D4D4D" stroke="black" stroke-width="0.5" stroke-miterlimit="10"/>
<path d="M212.879 147.163H205.857V164.139H212.879V147.163Z" fill="#B2B2B2" stroke="black" stroke-width="0.5" stroke-miterlimit="10"/>
<path d="M198.111 177.953H204.791V176.445C204.791 174.859 204.535 173.282 204.039 171.775C203.192 169.216 199.561 169.278 198.801 171.862C198.392 173.249 198.173 174.686 198.148 176.131L198.111 177.953Z" fill="#B2B2B2" stroke="black" stroke-width="0.5" stroke-miterlimit="10"/>
<path d="M213.808 177.953H220.488V176.445C220.488 174.859 220.232 173.282 219.736 171.775C218.889 169.216 215.258 169.278 214.498 171.862C214.089 173.249 213.87 174.686 213.846 176.131L213.808 177.953Z" fill="#B2B2B2" stroke="black" stroke-width="0.5" stroke-miterlimit="10"/>
<path d="M204.791 177.953H197.768V254.14H204.791V177.953Z" fill="#B2B2B2" stroke="black" stroke-width="0.5" stroke-miterlimit="10"/>
<path d="M220.901 177.953H213.879V254.14H220.901V177.953Z" fill="#B2B2B2" stroke="black" stroke-width="0.5" stroke-miterlimit="10"/>
<path d="M197.417 180.462H199.834V177.273C199.499 176.04 197.752 176.04 197.417 177.273V180.462Z" fill="#4D4D4D" stroke="black" stroke-width="0.5" stroke-miterlimit="10"/>
<path d="M202.49 180.462H205.068V177.157C204.692 175.895 202.899 175.903 202.539 177.174L202.49 177.348V180.462Z" fill="#4D4D4D" stroke="black" stroke-width="0.5" stroke-miterlimit="10"/>
<path d="M213.528 180.462H215.944V177.273C215.61 176.04 213.862 176.04 213.528 177.273V180.462Z" fill="#4D4D4D" stroke="black" stroke-width="0.5" stroke-miterlimit="10"/>
<path d="M204.828 249.105H198.219V255.73H204.828V249.105Z" fill="#4D4D4D" stroke="black" stroke-width="0.5" stroke-miterlimit="10"/>
<path d="M218.6 180.462H221.178V177.157C220.802 175.895 219.009 175.903 218.65 177.174L218.6 177.348V180.462Z" fill="#4D4D4D" stroke="black" stroke-width="0.5" stroke-miterlimit="10"/>
<path d="M220.938 249.105H214.329V255.73H220.938V249.105Z" fill="#4D4D4D" stroke="black" stroke-width="0.5" stroke-miterlimit="10"/>
<path d="M197.707 234.87L197.004 254.6H201.251L198.735 234.824C198.653 234.191 197.727 234.232 197.707 234.87Z" fill="#B2B2B2" stroke="black" stroke-width="0.5" stroke-miterlimit="10"/>
<path d="M201.598 254.6H205.757L204.977 235.019C204.952 234.381 204.018 234.344 203.944 234.977L201.598 254.6Z" fill="#B2B2B2" stroke="black" stroke-width="0.5" stroke-miterlimit="10"/>
<path d="M200.771 254.6L198.851 247.32C198.669 246.637 197.682 246.724 197.62 247.428L197 254.6H205.757L204.935 247.32C204.861 246.65 203.907 246.596 203.758 247.254L202.073 254.6" fill="#B2B2B2"/>
<path d="M200.771 254.6L198.851 247.32C198.669 246.637 197.682 246.724 197.62 247.428L197 254.6H205.757L204.935 247.32C204.861 246.65 203.907 246.596 203.758 247.254L202.073 254.6" stroke="black" stroke-width="0.5" stroke-miterlimit="10"/>
<path d="M198.029 246.853L198.244 234.369" stroke="black" stroke-width="0.5" stroke-miterlimit="10"/>
<path d="M204.556 234.53L204.336 246.853" stroke="black" stroke-width="0.5" stroke-miterlimit="10"/>
<path d="M213.738 234.932L213.036 254.662H217.283L214.771 234.886C214.688 234.253 213.763 234.298 213.738 234.932Z" fill="#B2B2B2" stroke="black" stroke-width="0.5" stroke-miterlimit="10"/>
<path d="M217.634 254.662H221.793L221.013 235.081C220.988 234.443 220.054 234.406 219.98 235.039L217.634 254.662Z" fill="#B2B2B2" stroke="black" stroke-width="0.5" stroke-miterlimit="10"/>
<path d="M216.807 254.662L214.887 247.383C214.705 246.699 213.718 246.786 213.656 247.49L213.036 254.662H221.793L220.971 247.383C220.897 246.712 219.943 246.658 219.794 247.316L218.109 254.662" fill="#B2B2B2"/>
<path d="M216.807 254.662L214.887 247.383C214.705 246.699 213.718 246.786 213.656 247.49L213.036 254.662H221.793L220.971 247.383C220.897 246.712 219.943 246.658 219.794 247.316L218.109 254.662" stroke="black" stroke-width="0.5" stroke-miterlimit="10"/>
<path d="M214.065 246.915L214.28 234.435" stroke="black" stroke-width="0.5" stroke-miterlimit="10"/>
<path d="M220.372 246.915L220.592 234.592" stroke="black" stroke-width="0.5" stroke-miterlimit="10"/>
<path d="M214.717 255.581L214.04 257.726H221.062L220.265 255.581H214.717Z" fill="#4D4D4D" stroke="black" stroke-width="0.5" stroke-miterlimit="10"/>
<path d="M218.708 257.726H216.233V258.127H218.708V257.726Z" fill="#4D4D4D" stroke="black" stroke-width="0.5" stroke-miterlimit="10"/>
<path d="M220.265 255.581L218.708 257.726L217.551 255.581L216.233 257.726L214.717 255.581H220.265Z" fill="#4D4D4D" stroke="black" stroke-width="0.5" stroke-miterlimit="10" stroke-linecap="round" stroke-linejoin="round"/>
<path d="M198.607 255.581L197.929 257.726H204.952L204.155 255.581H198.607Z" fill="#4D4D4D" stroke="black" stroke-width="0.5" stroke-miterlimit="10"/>
<path d="M202.597 257.726H200.123V258.127H202.597V257.726Z" fill="#4D4D4D" stroke="black" stroke-width="0.5" stroke-miterlimit="10"/>
<path d="M204.155 255.581L202.597 257.726L201.441 255.581L200.123 257.726L198.607 255.581H204.155Z" fill="#4D4D4D" stroke="black" stroke-width="0.5" stroke-miterlimit="10" stroke-linecap="round" stroke-linejoin="round"/>
<path d="M217.183 174.64H201.073V175.054H217.183V174.64Z" fill="#B2B2B2" stroke="black" stroke-width="0.5" stroke-miterlimit="10"/>
<path d="M212.916 147.126L213.932 144.96V132.96C213.932 131.399 213.713 129.843 213.275 128.34L212.086 124.236C211.21 121.218 206.922 121.267 206.121 124.311L205.047 128.389C204.658 129.859 204.464 131.37 204.464 132.89V144.96L205.889 147.126L205.856 174.64H204.791C204.791 174.64 204.514 169.899 201.453 169.887C201.453 169.887 197.888 169.344 198.14 176.441L197.421 177.269V180.458H197.772L197.71 234.865L197.008 254.595H198.227V255.73H198.57L197.938 257.726H200.131V258.127H202.605V257.726H204.96L204.221 255.73H204.84V254.595H205.77V254.31H206.282V255.643H206.625L205.993 257.639H208.186V258.04H210.661V257.639H213.015L212.276 255.643H212.895V254.31L213.073 254.314L213.052 254.658H214.345V255.726H214.688L214.056 257.722H216.25V258.123H218.724V257.722H221.079L220.339 255.726H220.959V254.658H221.814L220.922 234.588V180.462H221.198V177.157L220.509 176.213C220.509 176.213 220.649 169.899 217.171 169.887C217.171 169.887 214.519 169.05 213.899 174.64H212.899L212.916 147.126Z" stroke="black" stroke-width="1.5" stroke-miterlimit="10"/>
<path d="M204.667 175.054L204.791 176.445L205.067 177.158V180.462H204.791V234.435L204.977 235.019L205.443 243.913L205.861 234.584L206.183 234.083L205.856 179.874H205.443V176.681L205.856 176.035V175.054" stroke="black" stroke-width="1.5" stroke-miterlimit="10"/>
<path d="M212.879 175.054V176.139L213.094 176.57V179.874H212.879V234.083L213.131 234.733L213.433 243.577L213.738 234.932L213.879 234.244V180.462H213.528V177.269L213.879 176.677V175.054" stroke="black" stroke-width="1.5" stroke-miterlimit="10"/>
<path d="M1 260H346" stroke="white"/>
<text fill="white" xml:space="preserve" style="white-space: pre" font-family="Roboto" font-size="11" font-weight="600" letter-spacing="0em"><tspan x="195.132" y="109.26">70 m</tspan></text>
<text fill="white" xml:space="preserve" style="white-space: pre" font-family="Roboto" font-size="11" font-weight="600" letter-spacing="0em"><tspan x="243.424" y="28.2598">119 m</tspan></text>
<text fill="white" xml:space="preserve" style="white-space: pre" font-family="Roboto" font-size="11" font-weight="600" letter-spacing="0em"><tspan x="145.132" y="109.26">70 m</tspan></text>
<text fill="white" xml:space="preserve" style="white-space: pre" font-family="Roboto" font-size="11" font-weight="600" letter-spacing="0em"><tspan x="107.132" y="109.26">70 m</tspan></text>
<text fill="white" xml:space="preserve" style="white-space: pre" font-family="Roboto" font-size="11" font-weight="600" letter-spacing="0em"><tspan x="69.1318" y="132.26">68 m</tspan></text>
<text fill="white" xml:space="preserve" style="white-space: pre" font-family="Roboto" font-size="11" font-weight="600" letter-spacing="0em"><tspan x="32.1318" y="155.26">47 m</tspan></text>
<text fill="white" xml:space="preserve" style="white-space: pre" font-family="Roboto" font-size="11" font-weight="600" letter-spacing="0em"><tspan x="2.13184" y="209.26">21 m</tspan></text>
<path d="M155.63 357.87H162.24L163.69 355.51H154.23L155.63 357.87Z" fill="#DADADA" stroke="black" stroke-width="0.5" stroke-miterlimit="10"/>
<path d="M163.03 338.27L161.84 334.01C160.96 330.88 156.68 330.93 155.88 334.09L154.81 338.32C154.42 339.84 154.23 341.41 154.23 342.99V355.51H163.69V343.07C163.69 341.44 163.47 339.83 163.03 338.27Z" fill="#DADADA" stroke="black" stroke-width="0.5" stroke-miterlimit="10"/>
<path d="M158.94 331.68V355.52" stroke="black" stroke-width="0.5" stroke-miterlimit="10"/>
<path d="M156.23 470.03L155.55 472.25H162.57L161.78 470.03H156.23Z" fill="#4D4D4D" stroke="black" stroke-width="0.5" stroke-miterlimit="10"/>
<path d="M160.21 472.25H157.74V472.67H160.21V472.25Z" fill="#4D4D4D" stroke="black" stroke-width="0.5" stroke-miterlimit="10"/>
<path d="M161.77 470.03L160.21 472.25L159.05 470.03L157.73 472.25L156.22 470.03H161.77Z" fill="#4D4D4D" stroke="black" stroke-width="0.5" stroke-miterlimit="10" stroke-linecap="round" stroke-linejoin="round"/>
<path d="M162.45 463.31H155.84V470.18H162.45V463.31Z" fill="#4D4D4D" stroke="black" stroke-width="0.5" stroke-miterlimit="10"/>
<path d="M155.42 389.01H162.44V463.31H155.83L155.42 389.01Z" fill="#B2B2B2" stroke="black" stroke-width="0.5" stroke-miterlimit="10"/>
<path d="M155.42 448.34L154.72 468.8H158.97L156.45 448.29C156.37 447.63 155.45 447.68 155.42 448.34Z" fill="#4D4D4D" stroke="black" stroke-width="0.5" stroke-miterlimit="10"/>
<path d="M159.32 468.8H163.48L162.7 448.49C162.68 447.83 161.74 447.79 161.67 448.45L159.32 468.8Z" fill="#4D4D4D" stroke="black" stroke-width="0.5" stroke-miterlimit="10"/>
<path d="M158.49 468.8L156.57 461.25C156.39 460.54 155.4 460.63 155.34 461.36L154.72 468.8H163.48L162.66 461.25C162.59 460.55 161.63 460.5 161.48 461.18L159.8 468.8" fill="#4D4D4D"/>
<path d="M158.49 468.8L156.57 461.25C156.39 460.54 155.4 460.63 155.34 461.36L154.72 468.8H163.48L162.66 461.25C162.59 460.55 161.63 460.5 161.48 461.18L159.8 468.8" stroke="black" stroke-width="0.5" stroke-miterlimit="10"/>
<path d="M155.75 460.76L155.96 447.82" stroke="black" stroke-width="0.5" stroke-miterlimit="10"/>
<path d="M162.06 460.76L162.28 447.98" stroke="black" stroke-width="0.5" stroke-miterlimit="10"/>
<path d="M162.45 375.27H155.43V389.01H162.45V375.27Z" fill="#4D4D4D" stroke="black" stroke-width="0.5" stroke-miterlimit="10"/>
<path d="M155.01 391.59H157.43V388.28C157.09 387 155.35 387 155.01 388.28V391.59Z" fill="#4D4D4D" stroke="black" stroke-width="0.5" stroke-miterlimit="10"/>
<path d="M160.5 391.59H163.08V388.16C162.7 386.85 160.91 386.86 160.55 388.18L160.5 388.36V391.59Z" fill="#4D4D4D" stroke="black" stroke-width="0.5" stroke-miterlimit="10"/>
<path d="M162.45 357.66H155.43V375.27H162.45V357.66Z" fill="#B2B2B2" stroke="black" stroke-width="0.5" stroke-miterlimit="10"/>
<path d="M162.45 391.59V447.98L162.7 448.5L163.48 468.81H162.45V470.19H161.83L162.57 472.26H160.22V472.68H157.75V472.26H155.56L156.24 470.19H155.85V468.81H154.74L155.44 448.34L155.76 447.82L155.44 391.59H155.03V388.28L155.44 387.61V357.66L154.01 355.41V342.89C154.01 341.31 154.2 339.75 154.59 338.22L155.66 333.99C156.46 330.84 160.75 330.78 161.62 333.91L162.81 338.17C163.24 339.72 163.47 341.34 163.47 342.96V355.41L162.45 357.66L162.65 387.51L163.07 388.16V391.59H162.45V391.59Z" stroke="black" stroke-width="1.5" stroke-miterlimit="10"/>
<path d="M206.06 357.91H212.67L214.12 355.55H204.66L206.06 357.91Z" fill="#DADADA" stroke="black" stroke-width="0.5" stroke-miterlimit="10"/>
<path d="M213.46 338.31L212.27 334.05C211.39 330.92 207.11 330.97 206.31 334.13L205.24 338.36C204.85 339.88 204.66 341.45 204.66 343.03V355.55H214.12V343.1C214.12 341.48 213.9 339.87 213.46 338.31Z" fill="#DADADA" stroke="black" stroke-width="0.5" stroke-miterlimit="10"/>
<path d="M209.37 331.72V355.56" stroke="black" stroke-width="0.5" stroke-miterlimit="10"/>
<path d="M206.66 470.07L205.98 472.29H213L212.2 470.07H206.66Z" fill="#4D4D4D" stroke="black" stroke-width="0.5" stroke-miterlimit="10"/>
<path d="M210.64 472.29H208.17V472.71H210.64V472.29Z" fill="#4D4D4D" stroke="black" stroke-width="0.5" stroke-miterlimit="10"/>
<path d="M212.2 470.07L210.64 472.29L209.48 470.07L208.16 472.29L206.65 470.07H212.2Z" fill="#4D4D4D" stroke="black" stroke-width="0.5" stroke-miterlimit="10" stroke-linecap="round" stroke-linejoin="round"/>
<path d="M212.88 463.35H206.27V470.22H212.88V463.35Z" fill="#4D4D4D" stroke="black" stroke-width="0.5" stroke-miterlimit="10"/>
<path d="M205.86 389.05H212.88V463.35H206.27L205.86 389.05Z" fill="#B2B2B2" stroke="black" stroke-width="0.5" stroke-miterlimit="10"/>
<path d="M205.86 448.38L205.16 468.84H209.41L206.9 448.33C206.81 447.67 205.88 447.71 205.86 448.38Z" fill="#B2B2B2" stroke="black" stroke-width="0.5" stroke-miterlimit="10"/>
<path d="M209.75 468.84H213.91L213.13 448.53C213.11 447.87 212.17 447.83 212.1 448.49L209.75 468.84Z" fill="#B2B2B2" stroke="black" stroke-width="0.5" stroke-miterlimit="10"/>
<path d="M208.92 468.84L207 461.29C206.82 460.58 205.83 460.67 205.77 461.4L205.15 468.84H213.91L213.09 461.29C213.02 460.59 212.06 460.54 211.91 461.22L210.23 468.84" fill="#B2B2B2"/>
<path d="M208.92 468.84L207 461.29C206.82 460.58 205.83 460.67 205.77 461.4L205.15 468.84H213.91L213.09 461.29C213.02 460.59 212.06 460.54 211.91 461.22L210.23 468.84" stroke="black" stroke-width="0.5" stroke-miterlimit="10"/>
<path d="M206.18 460.81L206.39 447.86" stroke="black" stroke-width="0.5" stroke-miterlimit="10"/>
<path d="M212.49 460.81L212.71 448.03" stroke="black" stroke-width="0.5" stroke-miterlimit="10"/>
<path d="M212.88 375.31H205.86V389.05H212.88V375.31Z" fill="#B2B2B2" stroke="black" stroke-width="0.5" stroke-miterlimit="10"/>
<path d="M205.44 391.63H207.86V388.32C207.52 387.04 205.78 387.04 205.44 388.32V391.63Z" fill="#4D4D4D" stroke="black" stroke-width="0.5" stroke-miterlimit="10"/>
<path d="M210.51 391.63H213.09V388.2C212.71 386.89 210.92 386.9 210.56 388.22L210.51 388.4V391.63Z" fill="#4D4D4D" stroke="black" stroke-width="0.5" stroke-miterlimit="10"/>
<path d="M212.88 357.7H205.86V375.31H212.88V357.7Z" fill="#B2B2B2" stroke="black" stroke-width="0.5" stroke-miterlimit="10"/>
<path d="M198.11 389.64H204.79V388.08C204.79 386.43 204.53 384.8 204.04 383.24C203.19 380.59 199.56 380.65 198.8 383.33C198.39 384.77 198.17 386.26 198.15 387.76L198.11 389.64Z" fill="#B2B2B2" stroke="black" stroke-width="0.5" stroke-miterlimit="10"/>
<path d="M213.81 389.64H220.49V388.08C220.49 386.43 220.23 384.8 219.74 383.24C218.89 380.59 215.26 380.65 214.5 383.33C214.09 384.77 213.87 386.26 213.85 387.76L213.81 389.64Z" fill="#B2B2B2" stroke="black" stroke-width="0.5" stroke-miterlimit="10"/>
<path d="M204.79 389.64H197.77V468.66H204.79V389.64Z" fill="#B2B2B2" stroke="black" stroke-width="0.5" stroke-miterlimit="10"/>
<path d="M220.9 389.64H213.88V468.66H220.9V389.64Z" fill="#B2B2B2" stroke="black" stroke-width="0.5" stroke-miterlimit="10"/>
<path d="M197.42 392.24H199.84V388.93C199.5 387.65 197.76 387.65 197.42 388.93V392.24Z" fill="#4D4D4D" stroke="black" stroke-width="0.5" stroke-miterlimit="10"/>
<path d="M202.49 392.24H205.07V388.81C204.69 387.5 202.9 387.51 202.54 388.83L202.49 389.01V392.24Z" fill="#4D4D4D" stroke="black" stroke-width="0.5" stroke-miterlimit="10"/>
<path d="M213.53 392.24H215.95V388.93C215.62 387.65 213.87 387.65 213.53 388.93V392.24Z" fill="#4D4D4D" stroke="black" stroke-width="0.5" stroke-miterlimit="10"/>
<path d="M204.83 463.44H198.22V470.31H204.83V463.44Z" fill="#4D4D4D" stroke="black" stroke-width="0.5" stroke-miterlimit="10"/>
<path d="M218.6 392.24H221.18V388.81C220.8 387.5 219.01 387.51 218.65 388.83L218.6 389.01V392.24Z" fill="#4D4D4D" stroke="black" stroke-width="0.5" stroke-miterlimit="10"/>
<path d="M220.94 463.44H214.33V470.31H220.94V463.44Z" fill="#4D4D4D" stroke="black" stroke-width="0.5" stroke-miterlimit="10"/>
<path d="M197.71 448.67L197.01 469.13H201.26L198.74 448.62C198.65 447.97 197.73 448.01 197.71 448.67Z" fill="#B2B2B2" stroke="black" stroke-width="0.5" stroke-miterlimit="10"/>
<path d="M201.6 469.14H205.76L204.98 448.83C204.95 448.17 204.02 448.13 203.95 448.79L201.6 469.14Z" fill="#B2B2B2" stroke="black" stroke-width="0.5" stroke-miterlimit="10"/>
<path d="M200.77 469.14L198.85 461.59C198.67 460.88 197.68 460.97 197.62 461.7L197 469.14H205.76L204.94 461.59C204.87 460.89 203.91 460.84 203.76 461.52L202.08 469.14" fill="#B2B2B2"/>
<path d="M200.77 469.14L198.85 461.59C198.67 460.88 197.68 460.97 197.62 461.7L197 469.14H205.76L204.94 461.59C204.87 460.89 203.91 460.84 203.76 461.52L202.08 469.14" stroke="black" stroke-width="0.5" stroke-miterlimit="10"/>
<path d="M198.03 461.1L198.24 448.15" stroke="black" stroke-width="0.5" stroke-miterlimit="10"/>
<path d="M204.55 448.32L204.33 461.1" stroke="black" stroke-width="0.5" stroke-miterlimit="10"/>
<path d="M213.74 448.74L213.04 469.2H217.29L214.78 448.69C214.69 448.03 213.76 448.08 213.74 448.74Z" fill="#B2B2B2" stroke="black" stroke-width="0.5" stroke-miterlimit="10"/>
<path d="M217.63 469.2H221.79L221.01 448.89C220.99 448.23 220.05 448.19 219.98 448.85L217.63 469.2Z" fill="#B2B2B2" stroke="black" stroke-width="0.5" stroke-miterlimit="10"/>
<path d="M216.81 469.2L214.89 461.65C214.71 460.94 213.72 461.03 213.66 461.76L213.04 469.2H221.8L220.98 461.65C220.91 460.95 219.95 460.9 219.8 461.58L218.11 469.2" fill="#B2B2B2"/>
<path d="M216.81 469.2L214.89 461.65C214.71 460.94 213.72 461.03 213.66 461.76L213.04 469.2H221.8L220.98 461.65C220.91 460.95 219.95 460.9 219.8 461.58L218.11 469.2" stroke="black" stroke-width="0.5" stroke-miterlimit="10"/>
<path d="M214.06 461.17L214.27 448.23" stroke="black" stroke-width="0.5" stroke-miterlimit="10"/>
<path d="M220.37 461.17L220.59 448.39" stroke="black" stroke-width="0.5" stroke-miterlimit="10"/>
<path d="M214.72 470.15L214.04 472.38H221.06L220.26 470.15H214.72Z" fill="#4D4D4D" stroke="black" stroke-width="0.5" stroke-miterlimit="10"/>
<path d="M218.71 472.38H216.24V472.8H218.71V472.38Z" fill="#4D4D4D" stroke="black" stroke-width="0.5" stroke-miterlimit="10"/>
<path d="M220.26 470.15L218.7 472.38L217.54 470.15L216.22 472.38L214.7 470.15H220.26Z" fill="#4D4D4D" stroke="black" stroke-width="0.5" stroke-miterlimit="10" stroke-linecap="round" stroke-linejoin="round"/>
<path d="M198.61 470.15L197.93 472.38H204.95L204.15 470.15H198.61Z" fill="#4D4D4D" stroke="black" stroke-width="0.5" stroke-miterlimit="10"/>
<path d="M202.6 472.38H200.13V472.8H202.6V472.38Z" fill="#4D4D4D" stroke="black" stroke-width="0.5" stroke-miterlimit="10"/>
<path d="M204.15 470.15L202.59 472.38L201.43 470.15L200.11 472.38L198.59 470.15H204.15Z" fill="#4D4D4D" stroke="black" stroke-width="0.5" stroke-miterlimit="10" stroke-linecap="round" stroke-linejoin="round"/>
<path d="M217.18 386.2H201.07V386.63H217.18V386.2Z" fill="#B2B2B2" stroke="black" stroke-width="0.5" stroke-miterlimit="10"/>
<path d="M212.91 357.66L213.93 355.41V342.97C213.93 341.35 213.71 339.74 213.27 338.18L212.08 333.92C211.2 330.79 206.92 330.84 206.12 334L205.05 338.23C204.66 339.75 204.47 341.32 204.47 342.9V355.42L205.9 357.67L205.87 386.21H204.8C204.8 386.21 204.52 381.29 201.46 381.28C201.46 381.28 197.89 380.72 198.15 388.08L197.43 388.94V392.25H197.78L197.72 448.68L197.02 469.14H198.24V470.32H198.58L197.95 472.39H200.14V472.81H202.61V472.39H204.97L204.23 470.32H204.85V469.14H205.78V468.84H206.29V470.22H206.63L206 472.29H208.19V472.71H210.66V472.29H213.01L212.27 470.22H212.89V468.84H213.07L213.05 469.2H214.34V470.31H214.68L214.05 472.38H216.24V472.8H218.71V472.38H221.06L220.32 470.31H220.94V469.2H221.79L220.9 448.38V392.24H221.18V388.81L220.49 387.83C220.49 387.83 220.63 381.28 217.15 381.27C217.15 381.27 214.5 380.4 213.88 386.2H212.88L212.91 357.66Z" stroke="black" stroke-width="1.5" stroke-miterlimit="10"/>
<path d="M204.67 386.63L204.79 388.07L205.07 388.81V392.24H204.79V448.22L204.98 448.82L205.45 458.05L205.87 448.37L206.19 447.85L205.86 391.62H205.45V388.31L205.86 387.64V386.62" stroke="black" stroke-width="1.5" stroke-miterlimit="10"/>
<path d="M212.88 386.63V387.75L213.09 388.2V391.63H212.88V447.86L213.13 448.53L213.43 457.7L213.74 448.73L213.88 448.02V392.23H213.53V388.92L213.88 388.31V386.63" stroke="black" stroke-width="1.5" stroke-miterlimit="10"/>
<path d="M236 355V369H322" stroke="white" stroke-width="0.5"/>
<path d="M134 355V369H38" stroke="white" stroke-width="0.5"/>
<path d="M236 392V404H322" stroke="white" stroke-width="0.5"/>
<path d="M134 392V404H38" stroke="white" stroke-width="0.5"/>
<path d="M236 427V441H322" stroke="white" stroke-width="0.5"/>
<path d="M134 427V441H38" stroke="white" stroke-width="0.5"/>
<text fill="#BBECF9" xml:space="preserve" style="white-space: pre" font-family="Roboto" font-size="8" font-weight="bold" letter-spacing="0em"><tspan x="169.445" y="425.234">Fase 1</tspan></text>
<text fill="#BBECF9" xml:space="preserve" style="white-space: pre" font-family="Roboto" font-size="8" font-weight="bold" letter-spacing="0em"><tspan x="169.445" y="384.234">Fase 2</tspan></text>
<text fill="#BBECF9" xml:space="preserve" style="white-space: pre" font-family="Roboto" font-size="8" font-weight="bold" letter-spacing="0em"><tspan x="169.445" y="351.234">Fase 3</tspan></text>
<path d="M163 389L196 389" stroke="#BBECF9" stroke-width="0.5" stroke-dasharray="2 2"/>
<path d="M163 375L205 375" stroke="#BBECF9" stroke-width="0.5" stroke-dasharray="2 2"/>
<path d="M160 330L209 330" stroke="#BBECF9" stroke-width="0.5" stroke-dasharray="2 2"/>
<path d="M158 474L209 474" stroke="#BBECF9" stroke-width="0.5" stroke-dasharray="2 2"/>
<path d="M157.646 323.354C157.842 323.549 158.158 323.549 158.354 323.354L161.536 320.172C161.731 319.976 161.731 319.66 161.536 319.464C161.34 319.269 161.024 319.269 160.828 319.464L158 322.293L155.172 319.464C154.976 319.269 154.66 319.269 154.464 319.464C154.269 319.66 154.269 319.976 154.464 320.172L157.646 323.354ZM208.646 323.354C208.842 323.549 209.158 323.549 209.354 323.354L212.536 320.172C212.731 319.976 212.731 319.66 212.536 319.464C212.34 319.269 212.024 319.269 211.828 319.464L209 322.293L206.172 319.464C205.976 319.269 205.66 319.269 205.464 319.464C205.269 319.66 205.269 319.976 205.464 320.172L208.646 323.354ZM157.5 285.5V323H158.5V285.5H157.5ZM208.5 285.5V323H209.5V285.5H208.5Z" fill="white"/>
<text fill="white" xml:space="preserve" style="white-space: pre" font-family="Roboto" font-size="15" font-weight="bold" letter-spacing="0em"><tspan x="36.1602" y="362.127">181</tspan></text>
<text fill="white" xml:space="preserve" style="white-space: pre" font-family="Roboto" font-size="10" font-weight="600" letter-spacing="0em"><tspan x="64" y="363.418">lanzamientos</tspan></text>
<text fill="white" xml:space="preserve" style="white-space: pre" font-family="Roboto" font-size="15" font-weight="bold" letter-spacing="0em"><tspan x="36.1602" y="434.127">119</tspan></text>
<text fill="white" xml:space="preserve" style="white-space: pre" font-family="Roboto" font-size="10" font-weight="600" letter-spacing="0em"><tspan x="64" y="435.418">relanzamientos</tspan></text>
<text fill="white" xml:space="preserve" style="white-space: pre" font-family="Roboto" font-size="15" font-weight="bold" letter-spacing="0em"><tspan x="36.1602" y="396.127">141</tspan></text>
<text fill="white" xml:space="preserve" style="white-space: pre" font-family="Roboto" font-size="15" font-weight="bold" letter-spacing="0em"><tspan x="242.387" y="362.127">3</tspan></text>
<text fill="white" xml:space="preserve" style="white-space: pre" font-family="Roboto" font-size="15" font-weight="bold" letter-spacing="0em"><tspan x="242.387" y="434.127">4</tspan></text>
<text fill="white" xml:space="preserve" style="white-space: pre" font-family="Roboto" font-size="15" font-weight="bold" letter-spacing="0em"><tspan x="242.387" y="396.127">7</tspan></text>
<text fill="white" xml:space="preserve" style="white-space: pre" font-family="Roboto" font-size="10" font-weight="600" letter-spacing="0em"><tspan x="64" y="397.418">aterrizajes</tspan></text>
<text fill="white" xml:space="preserve" style="white-space: pre" font-family="Roboto" font-size="10" font-weight="600" letter-spacing="0em"><tspan x="255" y="363.418">lanzamientos</tspan></text>
<text fill="white" xml:space="preserve" style="white-space: pre" font-family="Roboto" font-size="10" font-weight="600" letter-spacing="0em"><tspan x="255" y="435.418">relanzamientos</tspan></text>
<text fill="white" xml:space="preserve" style="white-space: pre" font-family="Roboto" font-size="10" font-weight="600" letter-spacing="0em"><tspan x="255" y="397.418">aterrizajes</tspan></text>
<text fill="white" fill-opacity="0.6" xml:space="preserve" style="white-space: pre" font-family="Roboto" font-size="7" font-weight="bold" letter-spacing="0em"><tspan x="300.36" y="271.393">Torre &#10;</tspan><tspan x="301.567" y="279.393">Entel</tspan></text>
<g filter="url(#filter0_d_114_344)">
<path d="M309.97 257.5L298.61 256.745V114.33L296.301 113.824L295.006 104.666L301.283 104.068V101.178L296.951 101.014V91.1368H295.218V88.6373H301.283V86.5579H300.417V80.5537C300.417 80.5537 294.794 81.2382 295.006 81.1905V73.9171L301.283 73.0334V69.3641L295.331 69.5807V68.4847L301.283 67.6227V61.5449L295.413 61.7615V60.6568L301.283 59.8034V54.4924L300.2 54.7176V51.8022C300.2 51.8022 303.449 50.8318 305.182 50.5892V48.2629H307.209V28.9075H308.174V19.5287L310.969 19.5287V28.9075H311.81V48.2629H314.279V50.5935C314.279 50.5935 317.866 51.2087 318.888 51.8152V54.7133L318.178 54.5097V59.7254L324 60.6525V61.9781L318.178 61.5362V67.562L323.918 68.4804V69.806L318.178 69.3685V73.1677L323.593 73.9171V81.8923C323.593 81.8923 319.911 80.662 319.044 80.6924V86.5536H318.178V88.6329H323.809V91.1325H321.938V101.009L318.178 101.209V104.267L323.593 104.661L322.488 113.819L320.344 114.343V256.802L309.97 257.5Z" fill="#D9D9D9" fill-opacity="0.4"/>
</g>
<text fill="white" fill-opacity="0.6" xml:space="preserve" style="white-space: pre" font-family="Roboto" font-size="11" font-weight="600" letter-spacing="0em"><tspan x="290.487" y="10.2598">127,3 m</tspan></text>
<defs>
<filter id="filter0_d_114_344" x="290.852" y="19.5287" width="37.2953" height="246.267" filterUnits="userSpaceOnUse" color-interpolation-filters="sRGB">
<feFlood flood-opacity="0" result="BackgroundImageFix"/>
<feColorMatrix in="SourceAlpha" type="matrix" values="0 0 0 0 0 0 0 0 0 0 0 0 0 0 0 0 0 0 127 0" result="hardAlpha"/>
<feOffset dy="4.14765"/>
<feGaussianBlur stdDeviation="2.07382"/>
<feComposite in2="hardAlpha" operator="out"/>
<feColorMatrix type="matrix" values="0 0 0 0 0 0 0 0 0 0 0 0 0 0 0 0 0 0 0.25 0"/>
<feBlend mode="normal" in2="BackgroundImageFix" result="effect1_dropShadow_114_344"/>
<feBlend mode="normal" in="SourceGraphic" in2="effect1_dropShadow_114_344" result="shape"/>
</filter>
</defs>
</svg>
