<svg width="900" height="189" viewBox="0 0 900 189" fill="none" xmlns="http://www.w3.org/2000/svg">
<text fill="white" xml:space="preserve" style="white-space: pre" font-family="Roboto" font-size="11" font-weight="bold" letter-spacing="0em"><tspan x="66" y="23.2598">Primer sat&#xe9;lite artificial</tspan></text>
<text fill="white" xml:space="preserve" style="white-space: pre" font-family="Roboto" font-size="11" font-weight="600" letter-spacing="0em"><tspan x="55" y="106.26">1957</tspan></text>
<text fill="white" xml:space="preserve" style="white-space: pre" font-family="Roboto" font-size="7" font-weight="600" letter-spacing="0em"><tspan x="71.5" y="37.3926">El sputnik 1, fabricado por Rusia, fue el </tspan><tspan x="71.5" y="45.3926">primer sat&#xe9;lite en orbitar la tierra</tspan></text>
<text fill="white" xml:space="preserve" style="white-space: pre" font-family="Roboto" font-size="11" font-weight="bold" letter-spacing="0em"><tspan x="112" y="114.26">Primer astronauta</tspan></text>
<text fill="white" xml:space="preserve" style="white-space: pre" font-family="Roboto" font-size="7" font-weight="600" letter-spacing="0em"><tspan x="97.4219" y="129.393">El ruso Yuri Gagarin fue el primer </tspan><tspan x="133.892" y="137.393">hombre en el espacio</tspan></text>
<path d="M35.8232 79.8232C35.7256 79.9209 35.7256 80.0791 35.8232 80.1768L37.4142 81.7678C37.5118 81.8654 37.6701 81.8654 37.7678 81.7678C37.8654 81.6701 37.8654 81.5118 37.7678 81.4142L36.3536 80L37.7678 78.5858C37.8654 78.4882 37.8654 78.3299 37.7678 78.2322C37.6701 78.1346 37.5118 78.1346 37.4142 78.2322L35.8232 79.8232ZM864.177 80.1768C864.274 80.0791 864.274 79.9209 864.177 79.8232L862.586 78.2322C862.488 78.1346 862.33 78.1346 862.232 78.2322C862.135 78.3299 862.135 78.4882 862.232 78.5858L863.646 80L862.232 81.4142C862.135 81.5118 862.135 81.6701 862.232 81.7678C862.33 81.8654 862.488 81.8654 862.586 81.7678L864.177 80.1768ZM36 80.25H36.5V79.75H36V80.25ZM37.5 80.25H38.5V79.75H37.5V80.25ZM39.5 80.25H40.5V79.75H39.5V80.25ZM41.5 80.25H42.5V79.75H41.5V80.25ZM43.5 80.25H44.5V79.75H43.5V80.25ZM45.5 80.25H46.5V79.75H45.5V80.25ZM47.5 80.25H48.5V79.75H47.5V80.25ZM49.5 80.25H50.5V79.75H49.5V80.25ZM51.5 80.25H52.5V79.75H51.5V80.25ZM53.5 80.25H54.5V79.75H53.5V80.25ZM55.5 80.25H56.5V79.75H55.5V80.25ZM57.5 80.25H58.5V79.75H57.5V80.25ZM59.5 80.25H60.5V79.75H59.5V80.25ZM61.5 80.25H62.5V79.75H61.5V80.25ZM63.5 80.25H64.5V79.75H63.5V80.25ZM65.5 80.25H66.5V79.75H65.5V80.25ZM67.5 80.25H68.5V79.75H67.5V80.25ZM69.5 80.25H70.5V79.75H69.5V80.25ZM71.5 80.25H72.5V79.75H71.5V80.25ZM73.5 80.25H74.5V79.75H73.5V80.25ZM75.5 80.25H76.5V79.75H75.5V80.25ZM77.5 80.25H78.5V79.75H77.5V80.25ZM79.5 80.25H80.5V79.75H79.5V80.25ZM81.5 80.25H82.5V79.75H81.5V80.25ZM83.5 80.25H84.5V79.75H83.5V80.25ZM85.5 80.25H86.5V79.75H85.5V80.25ZM87.5 80.25H88.5V79.75H87.5V80.25ZM89.5 80.25H90.5V79.75H89.5V80.25ZM91.5 80.25H92.5V79.75H91.5V80.25ZM93.5 80.25H94.5V79.75H93.5V80.25ZM95.5 80.25H96.5V79.75H95.5V80.25ZM97.5 80.25H98.5V79.75H97.5V80.25ZM99.5 80.25H100.5V79.75H99.5V80.25ZM101.5 80.25H102.5V79.75H101.5V80.25ZM103.5 80.25H104.5V79.75H103.5V80.25ZM105.5 80.25H106.5V79.75H105.5V80.25ZM107.5 80.25H108.5V79.75H107.5V80.25ZM109.5 80.25H110.5V79.75H109.5V80.25ZM111.5 80.25H112.5V79.75H111.5V80.25ZM113.5 80.25H114.5V79.75H113.5V80.25ZM115.5 80.25H116.5V79.75H115.5V80.25ZM117.5 80.25H118.5V79.75H117.5V80.25ZM119.5 80.25H120.5V79.75H119.5V80.25ZM121.5 80.25H122.5V79.75H121.5V80.25ZM123.5 80.25H124.5V79.75H123.5V80.25ZM125.5 80.25H126.5V79.75H125.5V80.25ZM127.5 80.25H128.5V79.75H127.5V80.25ZM129.5 80.25H130.5V79.75H129.5V80.25ZM131.5 80.25H132.5V79.75H131.5V80.25ZM133.5 80.25H134.5V79.75H133.5V80.25ZM135.5 80.25H136.5V79.75H135.5V80.25ZM137.5 80.25H138.5V79.75H137.5V80.25ZM139.5 80.25H140.5V79.75H139.5V80.25ZM141.5 80.25H142.5V79.75H141.5V80.25ZM143.5 80.25H144.5V79.75H143.5V80.25ZM145.5 80.25H146.5V79.75H145.5V80.25ZM147.5 80.25H148.5V79.75H147.5V80.25ZM149.5 80.25H150.5V79.75H149.5V80.25ZM151.5 80.25H152.5V79.75H151.5V80.25ZM153.5 80.25H154.5V79.75H153.5V80.25ZM155.5 80.25H156.5V79.75H155.5V80.25ZM157.5 80.25H158.5V79.75H157.5V80.25ZM159.5 80.25H160.5V79.75H159.5V80.25ZM161.5 80.25H162.5V79.75H161.5V80.25ZM163.5 80.25H164.5V79.75H163.5V80.25ZM165.5 80.25H166.5V79.75H165.5V80.25ZM167.5 80.25H168.5V79.75H167.5V80.25ZM169.5 80.25H170.5V79.75H169.5V80.25ZM171.5 80.25H172.5V79.75H171.5V80.25ZM173.5 80.25H174.5V79.75H173.5V80.25ZM175.5 80.25H176.5V79.75H175.5V80.25ZM177.5 80.25H178.5V79.75H177.5V80.25ZM179.5 80.25H180.5V79.75H179.5V80.25ZM181.5 80.25H182.5V79.75H181.5V80.25ZM183.5 80.25H184.5V79.75H183.5V80.25ZM185.5 80.25H186.5V79.75H185.5V80.25ZM187.5 80.25H188.5V79.75H187.5V80.25ZM189.5 80.25H190.5V79.75H189.5V80.25ZM191.5 80.25H192.5V79.75H191.5V80.25ZM193.5 80.25H194.5V79.75H193.5V80.25ZM195.5 80.25H196.5V79.75H195.5V80.25ZM197.5 80.25H198.5V79.75H197.5V80.25ZM199.5 80.25H200.5V79.75H199.5V80.25ZM201.5 80.25H202.5V79.75H201.5V80.25ZM203.5 80.25H204.5V79.75H203.5V80.25ZM205.5 80.25H206.5V79.75H205.5V80.25ZM207.5 80.25H208.5V79.75H207.5V80.25ZM209.5 80.25H210.5V79.75H209.5V80.25ZM211.5 80.25H212.5V79.75H211.5V80.25ZM213.5 80.25H214.5V79.75H213.5V80.25ZM215.5 80.25H216.5V79.75H215.5V80.25ZM217.5 80.25H218.5V79.75H217.5V80.25ZM219.5 80.25H220.5V79.75H219.5V80.25ZM221.5 80.25H222.5V79.75H221.5V80.25ZM223.5 80.25H224.5V79.75H223.5V80.25ZM225.5 80.25H226.5V79.75H225.5V80.25ZM227.5 80.25H228.5V79.75H227.5V80.25ZM229.5 80.25H230.5V79.75H229.5V80.25ZM231.5 80.25H232.5V79.75H231.5V80.25ZM233.5 80.25H234.5V79.75H233.5V80.25ZM235.5 80.25H236.5V79.75H235.5V80.25ZM237.5 80.25H238.5V79.75H237.5V80.25ZM239.5 80.25H240.5V79.75H239.5V80.25ZM241.5 80.25H242.5V79.75H241.5V80.25ZM243.5 80.25H244.5V79.75H243.5V80.25ZM245.5 80.25H246.5V79.75H245.5V80.25ZM247.5 80.25H248.5V79.75H247.5V80.25ZM249.5 80.25H250.5V79.75H249.5V80.25ZM251.5 80.25H252.5V79.75H251.5V80.25ZM253.5 80.25H254.5V79.75H253.5V80.25ZM255.5 80.25H256.5V79.75H255.5V80.25ZM257.5 80.25H258.5V79.75H257.5V80.25ZM259.5 80.25H260.5V79.75H259.5V80.25ZM261.5 80.25H262.5V79.75H261.5V80.25ZM263.5 80.25H264.5V79.75H263.5V80.25ZM265.5 80.25H266.5V79.75H265.5V80.25ZM267.5 80.25H268.5V79.75H267.5V80.25ZM269.5 80.25H270.5V79.75H269.5V80.25ZM271.5 80.25H272.5V79.75H271.5V80.25ZM273.5 80.25H274.5V79.75H273.5V80.25ZM275.5 80.25H276.5V79.75H275.5V80.25ZM277.5 80.25H278.5V79.75H277.5V80.25ZM279.5 80.25H280.5V79.75H279.5V80.25ZM281.5 80.25H282.5V79.75H281.5V80.25ZM283.5 80.25H284.5V79.75H283.5V80.25ZM285.5 80.25H286.5V79.75H285.5V80.25ZM287.5 80.25H288.5V79.75H287.5V80.25ZM289.5 80.25H290.5V79.75H289.5V80.25ZM291.5 80.25H292.5V79.75H291.5V80.25ZM293.5 80.25H294.5V79.75H293.5V80.25ZM295.5 80.25H296.5V79.75H295.5V80.25ZM297.5 80.25H298.5V79.75H297.5V80.25ZM299.5 80.25H300.5V79.75H299.5V80.25ZM301.5 80.25H302.5V79.75H301.5V80.25ZM303.5 80.25H304.5V79.75H303.5V80.25ZM305.5 80.25H306.5V79.75H305.5V80.25ZM307.5 80.25H308.5V79.75H307.5V80.25ZM309.5 80.25H310.5V79.75H309.5V80.25ZM311.5 80.25H312.5V79.75H311.5V80.25ZM313.5 80.25H314.5V79.75H313.5V80.25ZM315.5 80.25H316.5V79.75H315.5V80.25ZM317.5 80.25H318.5V79.75H317.5V80.25ZM319.5 80.25H320.5V79.75H319.5V80.25ZM321.5 80.25H322.5V79.75H321.5V80.25ZM323.5 80.25H324.5V79.75H323.5V80.25ZM325.5 80.25H326.5V79.75H325.5V80.25ZM327.5 80.25H328.5V79.75H327.5V80.25ZM329.5 80.25H330.5V79.75H329.5V80.25ZM331.5 80.25H332.5V79.75H331.5V80.25ZM333.5 80.25H334.5V79.75H333.5V80.25ZM335.5 80.25H336.5V79.75H335.5V80.25ZM337.5 80.25H338.5V79.75H337.5V80.25ZM339.5 80.25H340.5V79.75H339.5V80.25ZM341.5 80.25H342.5V79.75H341.5V80.25ZM343.5 80.25H344.5V79.75H343.5V80.25ZM345.5 80.25H346.5V79.75H345.5V80.25ZM347.5 80.25H348.5V79.75H347.5V80.25ZM349.5 80.25H350.5V79.75H349.5V80.25ZM351.5 80.25H352.5V79.75H351.5V80.25ZM353.5 80.25H354.5V79.75H353.5V80.25ZM355.5 80.25H356.5V79.75H355.5V80.25ZM357.5 80.25H358.5V79.75H357.5V80.25ZM359.5 80.25H360.5V79.75H359.5V80.25ZM361.5 80.25H362.5V79.75H361.5V80.25ZM363.5 80.25H364.5V79.75H363.5V80.25ZM365.5 80.25H366.5V79.75H365.5V80.25ZM367.5 80.25H368.5V79.75H367.5V80.25ZM369.5 80.25H370.5V79.75H369.5V80.25ZM371.5 80.25H372.5V79.75H371.5V80.25ZM373.5 80.25H374.5V79.75H373.5V80.25ZM375.5 80.25H376.5V79.75H375.5V80.25ZM377.5 80.25H378.5V79.75H377.5V80.25ZM379.5 80.25H380.5V79.75H379.5V80.25ZM381.5 80.25H382.5V79.75H381.5V80.25ZM383.5 80.25H384.5V79.75H383.5V80.25ZM385.5 80.25H386.5V79.75H385.5V80.25ZM387.5 80.25H388.5V79.75H387.5V80.25ZM389.5 80.25H390.5V79.75H389.5V80.25ZM391.5 80.25H392.5V79.75H391.5V80.25ZM393.5 80.25H394.5V79.75H393.5V80.25ZM395.5 80.25H396.5V79.75H395.5V80.25ZM397.5 80.25H398.5V79.75H397.5V80.25ZM399.5 80.25H400.5V79.75H399.5V80.25ZM401.5 80.25H402.5V79.75H401.5V80.25ZM403.5 80.25H404.5V79.75H403.5V80.25ZM405.5 80.25H406.5V79.75H405.5V80.25ZM407.5 80.25H408.5V79.75H407.5V80.25ZM409.5 80.25H410.5V79.75H409.5V80.25ZM411.5 80.25H412.5V79.75H411.5V80.25ZM413.5 80.25H414.5V79.75H413.5V80.25ZM415.5 80.25H416.5V79.75H415.5V80.25ZM417.5 80.25H418.5V79.75H417.5V80.25ZM419.5 80.25H420.5V79.75H419.5V80.25ZM421.5 80.25H422.5V79.75H421.5V80.25ZM423.5 80.25H424.5V79.75H423.5V80.25ZM425.5 80.25H426.5V79.75H425.5V80.25ZM427.5 80.25H428.5V79.75H427.5V80.25ZM429.5 80.25H430.5V79.75H429.5V80.25ZM431.5 80.25H432.5V79.75H431.5V80.25ZM433.5 80.25H434.5V79.75H433.5V80.25ZM435.5 80.25H436.5V79.75H435.5V80.25ZM437.5 80.25H438.5V79.75H437.5V80.25ZM439.5 80.25H440.5V79.75H439.5V80.25ZM441.5 80.25H442.5V79.75H441.5V80.25ZM443.5 80.25H444.5V79.75H443.5V80.25ZM445.5 80.25H446.5V79.75H445.5V80.25ZM447.5 80.25H448.5V79.75H447.5V80.25ZM449.5 80.25H450.5V79.75H449.5V80.25ZM451.5 80.25H452.5V79.75H451.5V80.25ZM453.5 80.25H454.5V79.75H453.5V80.25ZM455.5 80.25H456.5V79.75H455.5V80.25ZM457.5 80.25H458.5V79.75H457.5V80.25ZM459.5 80.25H460.5V79.75H459.5V80.25ZM461.5 80.25H462.5V79.75H461.5V80.25ZM463.5 80.25H464.5V79.75H463.5V80.25ZM465.5 80.25H466.5V79.75H465.5V80.25ZM467.5 80.25H468.5V79.75H467.5V80.25ZM469.5 80.25H470.5V79.75H469.5V80.25ZM471.5 80.25H472.5V79.75H471.5V80.25ZM473.5 80.25H474.5V79.75H473.5V80.25ZM475.5 80.25H476.5V79.75H475.5V80.25ZM477.5 80.25H478.5V79.75H477.5V80.25ZM479.5 80.25H480.5V79.75H479.5V80.25ZM481.5 80.25H482.5V79.75H481.5V80.25ZM483.5 80.25H484.5V79.75H483.5V80.25ZM485.5 80.25H486.5V79.75H485.5V80.25ZM487.5 80.25H488.5V79.75H487.5V80.25ZM489.5 80.25H490.5V79.75H489.5V80.25ZM491.5 80.25H492.5V79.75H491.5V80.25ZM493.5 80.25H494.5V79.75H493.5V80.25ZM495.5 80.25H496.5V79.75H495.5V80.25ZM497.5 80.25H498.5V79.75H497.5V80.25ZM499.5 80.25H500.5V79.75H499.5V80.25ZM501.5 80.25H502.5V79.75H501.5V80.25ZM503.5 80.25H504.5V79.75H503.5V80.25ZM505.5 80.25H506.5V79.75H505.5V80.25ZM507.5 80.25H508.5V79.75H507.5V80.25ZM509.5 80.25H510.5V79.75H509.5V80.25ZM511.5 80.25H512.5V79.75H511.5V80.25ZM513.5 80.25H514.5V79.75H513.5V80.25ZM515.5 80.25H516.5V79.75H515.5V80.25ZM517.5 80.25H518.5V79.75H517.5V80.25ZM519.5 80.25H520.5V79.75H519.5V80.25ZM521.5 80.25H522.5V79.75H521.5V80.25ZM523.5 80.25H524.5V79.75H523.5V80.25ZM525.5 80.25H526.5V79.75H525.5V80.25ZM527.5 80.25H528.5V79.75H527.5V80.25ZM529.5 80.25H530.5V79.75H529.5V80.25ZM531.5 80.25H532.5V79.75H531.5V80.25ZM533.5 80.25H534.5V79.75H533.5V80.25ZM535.5 80.25H536.5V79.75H535.5V80.25ZM537.5 80.25H538.5V79.75H537.5V80.25ZM539.5 80.25H540.5V79.75H539.5V80.25ZM541.5 80.25H542.5V79.75H541.5V80.25ZM543.5 80.25H544.5V79.75H543.5V80.25ZM545.5 80.25H546.5V79.75H545.5V80.25ZM547.5 80.25H548.5V79.75H547.5V80.25ZM549.5 80.25H550.5V79.75H549.5V80.25ZM551.5 80.25H552.5V79.75H551.5V80.25ZM553.5 80.25H554.5V79.75H553.5V80.25ZM555.5 80.25H556.5V79.75H555.5V80.25ZM557.5 80.25H558.5V79.75H557.5V80.25ZM559.5 80.25H560.5V79.75H559.5V80.25ZM561.5 80.25H562.5V79.75H561.5V80.25ZM563.5 80.25H564.5V79.75H563.5V80.25ZM565.5 80.25H566.5V79.75H565.5V80.25ZM567.5 80.25H568.5V79.75H567.5V80.25ZM569.5 80.25H570.5V79.75H569.5V80.25ZM571.5 80.25H572.5V79.75H571.5V80.25ZM573.5 80.25H574.5V79.75H573.5V80.25ZM575.5 80.25H576.5V79.75H575.5V80.25ZM577.5 80.25H578.5V79.75H577.5V80.25ZM579.5 80.25H580.5V79.75H579.5V80.25ZM581.5 80.25H582.5V79.75H581.5V80.25ZM583.5 80.25H584.5V79.75H583.5V80.25ZM585.5 80.25H586.5V79.75H585.5V80.25ZM587.5 80.25H588.5V79.75H587.5V80.25ZM589.5 80.25H590.5V79.75H589.5V80.25ZM591.5 80.25H592.5V79.75H591.5V80.25ZM593.5 80.25H594.5V79.75H593.5V80.25ZM595.5 80.25H596.5V79.75H595.5V80.25ZM597.5 80.25H598.5V79.75H597.5V80.25ZM599.5 80.25H600.5V79.75H599.5V80.25ZM601.5 80.25H602.5V79.75H601.5V80.25ZM603.5 80.25H604.5V79.75H603.5V80.25ZM605.5 80.25H606.5V79.75H605.5V80.25ZM607.5 80.25H608.5V79.75H607.5V80.25ZM609.5 80.25H610.5V79.75H609.5V80.25ZM611.5 80.25H612.5V79.75H611.5V80.25ZM613.5 80.25H614.5V79.75H613.5V80.25ZM615.5 80.25H616.5V79.75H615.5V80.25ZM617.5 80.25H618.5V79.75H617.5V80.25ZM619.5 80.25H620.5V79.75H619.5V80.25ZM621.5 80.25H622.5V79.75H621.5V80.25ZM623.5 80.25H624.5V79.75H623.5V80.25ZM625.5 80.25H626.5V79.75H625.5V80.25ZM627.5 80.25H628.5V79.75H627.5V80.25ZM629.5 80.25H630.5V79.75H629.5V80.25ZM631.5 80.25H632.5V79.75H631.5V80.25ZM633.5 80.25H634.5V79.75H633.5V80.25ZM635.5 80.25H636.5V79.75H635.5V80.25ZM637.5 80.25H638.5V79.75H637.5V80.25ZM639.5 80.25H640.5V79.75H639.5V80.25ZM641.5 80.25H642.5V79.75H641.5V80.25ZM643.5 80.25H644.5V79.75H643.5V80.25ZM645.5 80.25H646.5V79.75H645.5V80.25ZM647.5 80.25H648.5V79.75H647.5V80.25ZM649.5 80.25H650.5V79.75H649.5V80.25ZM651.5 80.25H652.5V79.75H651.5V80.25ZM653.5 80.25H654.5V79.75H653.5V80.25ZM655.5 80.25H656.5V79.75H655.5V80.25ZM657.5 80.25H658.5V79.75H657.5V80.25ZM659.5 80.25H660.5V79.75H659.5V80.25ZM661.5 80.25H662.5V79.75H661.5V80.25ZM663.5 80.25H664.5V79.75H663.5V80.25ZM665.5 80.25H666.5V79.75H665.5V80.25ZM667.5 80.25H668.5V79.75H667.5V80.25ZM669.5 80.25H670.5V79.75H669.5V80.25ZM671.5 80.25H672.5V79.75H671.5V80.25ZM673.5 80.25H674.5V79.75H673.5V80.25ZM675.5 80.25H676.5V79.75H675.5V80.25ZM677.5 80.25H678.5V79.75H677.5V80.25ZM679.5 80.25H680.5V79.75H679.5V80.25ZM681.5 80.25H682.5V79.75H681.5V80.25ZM683.5 80.25H684.5V79.75H683.5V80.25ZM685.5 80.25H686.5V79.75H685.5V80.25ZM687.5 80.25H688.5V79.75H687.5V80.25ZM689.5 80.25H690.5V79.75H689.5V80.25ZM691.5 80.25H692.5V79.75H691.5V80.25ZM693.5 80.25H694.5V79.75H693.5V80.25ZM695.5 80.25H696.5V79.75H695.5V80.25ZM697.5 80.25H698.5V79.75H697.5V80.25ZM699.5 80.25H700.5V79.75H699.5V80.25ZM701.5 80.25H702.5V79.75H701.5V80.25ZM703.5 80.25H704.5V79.75H703.5V80.25ZM705.5 80.25H706.5V79.75H705.5V80.25ZM707.5 80.25H708.5V79.75H707.5V80.25ZM709.5 80.25H710.5V79.75H709.5V80.25ZM711.5 80.25H712.5V79.75H711.5V80.25ZM713.5 80.25H714.5V79.75H713.5V80.25ZM715.5 80.25H716.5V79.75H715.5V80.25ZM717.5 80.25H718.5V79.75H717.5V80.25ZM719.5 80.25H720.5V79.75H719.5V80.25ZM721.5 80.25H722.5V79.75H721.5V80.25ZM723.5 80.25H724.5V79.75H723.5V80.25ZM725.5 80.25H726.5V79.75H725.5V80.25ZM727.5 80.25H728.5V79.75H727.5V80.25ZM729.5 80.25H730.5V79.75H729.5V80.25ZM731.5 80.25H732.5V79.75H731.5V80.25ZM733.5 80.25H734.5V79.75H733.5V80.25ZM735.5 80.25H736.5V79.75H735.5V80.25ZM737.5 80.25H738.5V79.75H737.5V80.25ZM739.5 80.25H740.5V79.75H739.5V80.25ZM741.5 80.25H742.5V79.75H741.5V80.25ZM743.5 80.25H744.5V79.75H743.5V80.25ZM745.5 80.25H746.5V79.75H745.5V80.25ZM747.5 80.25H748.5V79.75H747.5V80.25ZM749.5 80.25H750.5V79.75H749.5V80.25ZM751.5 80.25H752.5V79.75H751.5V80.25ZM753.5 80.25H754.5V79.75H753.5V80.25ZM755.5 80.25H756.5V79.75H755.5V80.25ZM757.5 80.25H758.5V79.75H757.5V80.25ZM759.5 80.25H760.5V79.75H759.5V80.25ZM761.5 80.25H762.5V79.75H761.5V80.25ZM763.5 80.25H764.5V79.75H763.5V80.25ZM765.5 80.25H766.5V79.75H765.5V80.25ZM767.5 80.25H768.5V79.75H767.5V80.25ZM769.5 80.25H770.5V79.75H769.5V80.25ZM771.5 80.25H772.5V79.75H771.5V80.25ZM773.5 80.25H774.5V79.75H773.5V80.25ZM775.5 80.25H776.5V79.75H775.5V80.25ZM777.5 80.25H778.5V79.75H777.5V80.25ZM779.5 80.25H780.5V79.75H779.5V80.25ZM781.5 80.25H782.5V79.75H781.5V80.25ZM783.5 80.25H784.5V79.75H783.5V80.25ZM785.5 80.25H786.5V79.75H785.5V80.25ZM787.5 80.25H788.5V79.75H787.5V80.25ZM789.5 80.25H790.5V79.75H789.5V80.25ZM791.5 80.25H792.5V79.75H791.5V80.25ZM793.5 80.25H794.5V79.75H793.5V80.25ZM795.5 80.25H796.5V79.75H795.5V80.25ZM797.5 80.25H798.5V79.75H797.5V80.25ZM799.5 80.25H800.5V79.75H799.5V80.25ZM801.5 80.25H802.5V79.75H801.5V80.25ZM803.5 80.25H804.5V79.75H803.5V80.25ZM805.5 80.25H806.5V79.75H805.5V80.25ZM807.5 80.25H808.5V79.75H807.5V80.25ZM809.5 80.25H810.5V79.75H809.5V80.25ZM811.5 80.25H812.5V79.75H811.5V80.25ZM813.5 80.25H814.5V79.75H813.5V80.25ZM815.5 80.25H816.5V79.75H815.5V80.25ZM817.5 80.25H818.5V79.75H817.5V80.25ZM819.5 80.25H820.5V79.75H819.5V80.25ZM821.5 80.25H822.5V79.75H821.5V80.25ZM823.5 80.25H824.5V79.75H823.5V80.25ZM825.5 80.25H826.5V79.75H825.5V80.25ZM827.5 80.25H828.5V79.75H827.5V80.25ZM829.5 80.25H830.5V79.75H829.5V80.25ZM831.5 80.25H832.5V79.75H831.5V80.25ZM833.5 80.25H834.5V79.75H833.5V80.25ZM835.5 80.25H836.5V79.75H835.5V80.25ZM837.5 80.25H838.5V79.75H837.5V80.25ZM839.5 80.25H840.5V79.75H839.5V80.25ZM841.5 80.25H842.5V79.75H841.5V80.25ZM843.5 80.25H844.5V79.75H843.5V80.25ZM845.5 80.25H846.5V79.75H845.5V80.25ZM847.5 80.25H848.5V79.75H847.5V80.25ZM849.5 80.25H850.5V79.75H849.5V80.25ZM851.5 80.25H852.5V79.75H851.5V80.25ZM853.5 80.25H854.5V79.75H853.5V80.25ZM855.5 80.25H856.5V79.75H855.5V80.25ZM857.5 80.25H858.5V79.75H857.5V80.25ZM859.5 80.25H860.5V79.75H859.5V80.25ZM861.5 80.25H862.5V79.75H861.5V80.25ZM863.5 80.25H864V79.75H863.5V80.25Z" fill="white"/>
<path d="M66 70.5V28.5H201" stroke="white"/>
<text fill="white" xml:space="preserve" style="white-space: pre" font-family="Roboto" font-size="11" font-weight="bold" letter-spacing="0em"><tspan x="277" y="23.2598">Viaje a la Luna</tspan></text>
<text fill="white" xml:space="preserve" style="white-space: pre" font-family="Roboto" font-size="11" font-weight="600" letter-spacing="0em"><tspan x="260" y="106.26">1969</tspan></text>
<text fill="white" xml:space="preserve" style="white-space: pre" font-family="Roboto" font-size="7" font-weight="600" letter-spacing="0em"><tspan x="276.5" y="37.3926">El programa estadounidense Apollo fue </tspan><tspan x="276.5" y="45.3926">el primero el llevar al hombre a la Luna</tspan></text>
<path d="M271 70.5V28.5H406" stroke="white"/>
<text fill="white" xml:space="preserve" style="white-space: pre" font-family="Roboto" font-size="11" font-weight="bold" letter-spacing="0em"><tspan x="489.5" y="23.2598">Cohete privado</tspan></text>
<text fill="white" xml:space="preserve" style="white-space: pre" font-family="Roboto" font-size="11" font-weight="600" letter-spacing="0em"><tspan x="476" y="109.26">2008</tspan></text>
<text fill="white" xml:space="preserve" style="white-space: pre" font-family="Roboto" font-size="7" font-weight="600" letter-spacing="0em"><tspan x="492.5" y="37.3926">SpaceX logra llevar primer cohete </tspan><tspan x="492.5" y="45.3926">privado al espacio: el Falcon 1</tspan></text>
<path d="M487 70.5V28.5H622" stroke="white"/>
<text fill="white" xml:space="preserve" style="white-space: pre" font-family="Roboto" font-size="11" font-weight="bold" letter-spacing="0em"><tspan x="689.5" y="23.2598">NAVE REUTILIZABLE</tspan></text>
<text fill="white" xml:space="preserve" style="white-space: pre" font-family="Roboto" font-size="11" font-weight="600" letter-spacing="0em"><tspan x="676" y="108.26">2017</tspan></text>
<text fill="white" xml:space="preserve" style="white-space: pre" font-family="Roboto" font-size="7" font-weight="600" letter-spacing="0em"><tspan x="692.5" y="37.3926">El Falcon 9 es el primer cohete </tspan><tspan x="692.5" y="45.3926">orbital en ser reutilizado</tspan></text>
<path d="M687 70.5V28.5H822" stroke="white"/>
<text fill="white" xml:space="preserve" style="white-space: pre" font-family="Roboto" font-size="11" font-weight="600" letter-spacing="0em"><tspan x="196" y="59.2598">1961</tspan></text>
<path d="M207 80V120H94" stroke="white"/>
<text fill="white" xml:space="preserve" style="white-space: pre" font-family="Roboto" font-size="11" font-weight="bold" letter-spacing="0em"><tspan x="339" y="114.26">Robot marciano</tspan></text>
<text fill="white" xml:space="preserve" style="white-space: pre" font-family="Roboto" font-size="7" font-weight="600" letter-spacing="0em"><tspan x="308.78" y="128.393">El robot americano Sojouner fue el </tspan><tspan x="338.394" y="136.393">primer veh&#xed;culo en Marte</tspan></text>
<text fill="white" xml:space="preserve" style="white-space: pre" font-family="Roboto" font-size="11" font-weight="600" letter-spacing="0em"><tspan x="412" y="59.2598">1997</tspan></text>
<path d="M423 79V119H305" stroke="white"/>
<text fill="white" xml:space="preserve" style="white-space: pre" font-family="Roboto" font-size="11" font-weight="bold" letter-spacing="0em"><tspan x="546" y="114.26">Dragon en la ISS</tspan></text>
<text fill="white" xml:space="preserve" style="white-space: pre" font-family="Roboto" font-size="7" font-weight="600" letter-spacing="0em"><tspan x="519.972" y="128.393">Primera nave privada en llegar a la </tspan><tspan x="530.048" y="136.393">Estaci&#xf3;n Espacial Internacional</tspan></text>
<text fill="white" xml:space="preserve" style="white-space: pre" font-family="Roboto" font-size="11" font-weight="600" letter-spacing="0em"><tspan x="623" y="58.2598">2012</tspan></text>
<path d="M634 79V119H519.5" stroke="white"/>
<text fill="white" xml:space="preserve" style="white-space: pre" font-family="Roboto" font-size="11" font-weight="bold" letter-spacing="0em"><tspan x="736" y="114.26">Vuelo comercial</tspan></text>
<text fill="white" xml:space="preserve" style="white-space: pre" font-family="Roboto" font-size="7" font-weight="600" letter-spacing="0em"><tspan x="711.171" y="128.393">SpaceX es la primera empresa en </tspan><tspan x="739.684" y="136.393">llevar turistas al espacio</tspan></text>
<text fill="white" xml:space="preserve" style="white-space: pre" font-family="Roboto" font-size="11" letter-spacing="0em"><tspan x="811" y="58.2598">2021</tspan></text>
<path d="M822 79V119H714" stroke="white"/>
<text fill="#BBECF9" xml:space="preserve" style="white-space: pre" font-family="Roboto" font-size="7" font-weight="bold" letter-spacing="0em"><tspan x="72" y="58.3926">USD$ 33 MILL.</tspan></text>
<text fill="#BBECF9" xml:space="preserve" style="white-space: pre" font-family="Roboto" font-size="7" font-weight="bold" letter-spacing="0em"><tspan x="366.168" y="148.393">USD$ 265 MILL.</tspan></text>
<text fill="#BBECF9" xml:space="preserve" style="white-space: pre" font-family="Roboto" font-size="7" font-weight="bold" letter-spacing="0em"><tspan x="277" y="58.3926">USD$ 25.800 MILL. </tspan></text>
<text fill="#BBECF9" xml:space="preserve" style="white-space: pre" font-family="Roboto" font-size="7" font-weight="bold" letter-spacing="0em"><tspan x="493" y="58.3926">USD$ 97 MILL.</tspan></text>
<text fill="#BBECF9" xml:space="preserve" style="white-space: pre" font-family="Roboto" font-size="7" font-weight="bold" letter-spacing="0em"><tspan x="692" y="58.3926">USD$ 67 MILL.</tspan></text>
<text fill="#BBECF9" xml:space="preserve" style="white-space: pre" font-family="Roboto" font-size="7" font-weight="bold" letter-spacing="0em"><tspan x="716" y="148.393">VALOR PASAJE: USD$ 55 MILL.</tspan></text>
<text fill="#BBECF9" xml:space="preserve" style="white-space: pre" font-family="Roboto" font-size="7" font-weight="bold" letter-spacing="0em"><tspan x="577.168" y="148.393">USD$ 900 MILL.</tspan></text>
<circle cx="66" cy="80" r="15.5" fill="black" stroke="#BBECF9"/>
<circle cx="206" cy="80" r="15.5" fill="black" stroke="#BBECF9"/>
<circle cx="271" cy="80" r="15.5" fill="black" stroke="#BBECF9"/>
<circle cx="422" cy="80" r="15.5" fill="black" stroke="#BBECF9"/>
<circle cx="487" cy="80" r="15.5" fill="black" stroke="#BBECF9"/>
<circle cx="687" cy="80" r="15.5" fill="black" stroke="#BBECF9"/>
<circle cx="821" cy="80" r="15.5" fill="black" stroke="#BBECF9"/>
<circle cx="634" cy="80" r="15.5" fill="black" stroke="#BBECF9"/>
<circle cx="66" cy="80" r="13" fill="white"/>
<path d="M63.6103 71.0033C63.7298 71.093 63.8592 71.166 63.9621 71.2689C64.9547 72.2548 65.944 73.2474 66.9332 74.2367C67.2486 74.552 67.2453 74.8209 66.9332 75.133C66.7307 75.3355 66.5282 75.5413 66.3257 75.7438C66.3191 75.7504 66.3158 75.7604 66.3125 75.767C66.4519 75.9098 66.5913 76.0492 66.7374 76.1986C66.7839 76.1554 66.827 76.1189 66.8702 76.0758C67.5208 75.4284 68.1682 74.7778 68.8188 74.1271C69.2471 73.7022 69.7284 73.6989 70.1566 74.1271C70.7409 74.7081 71.3218 75.2923 71.9061 75.8766C72.3277 76.2982 72.3244 76.7795 71.9061 77.2011C71.2156 77.8949 70.5218 78.5854 69.8346 79.2693C69.9741 79.4087 70.1102 79.5415 70.2562 79.6842C70.4621 79.4751 70.6845 79.2527 70.9069 79.0303C71.1758 78.7614 71.4646 78.7614 71.7335 79.0303C72.7559 80.0494 73.7751 81.0719 74.7942 82.0943C74.8772 82.1773 74.9336 82.2902 75 82.3864C75 82.4761 75 82.5624 75 82.652C74.9071 82.7715 74.8274 82.9043 74.7212 83.0139C74.1236 83.6214 73.5195 84.2189 72.9153 84.8231C72.6265 85.1119 72.3443 85.1119 72.0522 84.8231C71.0397 83.8106 70.0272 82.7981 69.0147 81.7856C68.7225 81.4935 68.7225 81.2146 69.0147 80.9258C69.2802 80.6602 69.5491 80.3946 69.818 80.1291C69.672 79.993 69.5325 79.8635 69.3832 79.7241C68.9815 80.1258 68.5599 80.5474 68.1383 80.969C67.9823 81.125 67.7698 81.2578 67.6868 81.447C67.6105 81.6229 67.6702 81.8619 67.6702 82.0711C67.6636 82.8346 67.4146 83.5085 66.9465 84.106C66.6843 84.438 66.3589 84.4546 66.0569 84.1525C64.7688 82.8645 63.4841 81.5798 62.1961 80.2917C61.8874 79.983 61.9073 79.6643 62.2558 79.3921C62.8169 78.9539 63.4542 78.7249 64.1646 78.6717C64.2244 78.6684 64.2974 78.6452 64.3406 78.6053C64.9879 77.9647 65.6319 77.3173 66.2793 76.67C66.2926 76.6567 66.3058 76.6368 66.3191 76.6169C66.1697 76.4774 66.027 76.3413 65.871 76.1986C65.6187 76.4509 65.3531 76.7198 65.0842 76.9887C64.7921 77.2775 64.5132 77.2775 64.2211 76.9854C63.2086 75.9729 62.1961 74.9604 61.1836 73.9479C60.8948 73.6591 60.8948 73.3769 61.1836 73.0847C61.7878 72.4773 62.3953 71.8698 63.0028 71.2689C63.1057 71.166 63.2351 71.0896 63.3513 71C63.4343 71.0033 63.5206 71.0033 63.6103 71.0033ZM67.4578 80.8262C67.4943 80.7963 67.5109 80.7831 67.5275 80.7665C68.8553 79.4386 70.1832 78.1107 71.5111 76.7829C71.687 76.6069 71.687 76.4741 71.5111 76.3015C70.9168 75.7073 70.3226 75.1131 69.7284 74.5188C69.5491 74.3396 69.4164 74.3429 69.2338 74.5288C67.8628 75.8998 66.4884 77.2742 65.1174 78.6452C65.0875 78.6751 65.0676 78.7083 65.0344 78.7481C66.193 79.0369 66.993 79.7274 67.4578 80.8262ZM61.6052 73.4997C62.6243 74.5155 63.6468 75.5413 64.6593 76.5538C65.2734 75.9397 65.9075 75.3056 66.515 74.6981C65.4992 73.6823 64.4734 72.6598 63.4609 71.6473C62.8467 72.2615 62.216 72.8922 61.6052 73.4997ZM71.3252 79.4685C70.6977 80.0959 70.0604 80.7333 69.433 81.3574C70.4455 82.3698 71.4679 83.3923 72.4804 84.4048C73.1078 83.7807 73.7452 83.1467 74.3726 82.5192C73.3568 81.5034 72.3343 80.481 71.3252 79.4685ZM62.611 79.8602C63.9024 81.1515 65.1937 82.4429 66.4851 83.7342C67.305 82.8014 67.3714 81.1117 66.2494 80.0228C65.1473 78.9572 63.4742 79.0801 62.611 79.8602Z" fill="black"/>
<path d="M63.743 88.0001C63.4277 87.9436 63.109 87.9138 62.8036 87.8308C60.3736 87.1834 58.8299 85.6398 58.1726 83.2131C58.0896 82.9011 58.0564 82.5757 58 82.257C58 82.0579 58 81.8587 58 81.6595C58.0963 81.5201 58.2224 81.4404 58.395 81.5068C58.5245 81.5566 58.5677 81.6628 58.571 81.7989C58.5876 82.4263 58.6706 83.0438 58.893 83.6314C59.6665 85.6697 61.1238 86.9112 63.265 87.3361C63.5571 87.3926 63.8559 87.4058 64.1547 87.4258C64.3074 87.4357 64.4468 87.4523 64.5032 87.6183C64.5563 87.7843 64.4767 87.9038 64.3439 87.9967C64.1414 88.0001 63.9422 88.0001 63.743 88.0001Z" fill="black"/>
<path d="M59.6897 81.8918C59.6963 81.8287 59.6897 81.7524 59.7096 81.686C59.7561 81.5433 59.8623 81.4735 60.015 81.4901C60.171 81.5067 60.2474 81.603 60.264 81.7524C60.3038 82.0744 60.3204 82.403 60.3901 82.7184C60.7354 84.2455 62.0931 85.4771 63.6401 85.6796C63.826 85.7028 64.0152 85.7128 64.2011 85.7293C64.4036 85.7493 64.5132 85.8522 64.5099 86.0215C64.5065 86.1974 64.3804 86.307 64.1712 86.3037C62.1363 86.2738 60.3901 84.9061 59.8557 82.9773C59.8026 82.7815 59.7627 82.579 59.7295 82.3798C59.7096 82.2205 59.7063 82.0578 59.6897 81.8918Z" fill="black"/>
<path d="M64.158 84.6073C62.7571 84.5808 61.5587 83.472 61.416 82.0777C61.406 81.9781 61.3894 81.8785 61.3928 81.7823C61.3994 81.6097 61.5123 81.4935 61.6683 81.4868C61.8276 81.4802 61.9438 81.5798 61.9671 81.7557C61.9936 81.9416 61.9936 82.1308 62.0401 82.3101C62.2858 83.3027 63.1223 83.9733 64.1414 84.0264C64.2444 84.033 64.3738 84.0662 64.4336 84.1359C64.49 84.2023 64.5066 84.3451 64.4801 84.4347C64.4402 84.5774 64.3008 84.6173 64.158 84.6073Z" fill="black"/>
<circle cx="206" cy="80" r="13" fill="white"/>
<circle cx="271" cy="80" r="13" fill="white"/>
<circle cx="422" cy="80" r="13" fill="white"/>
<circle cx="487" cy="80" r="13" fill="white"/>
<circle cx="687" cy="80" r="13" fill="white"/>
<circle cx="821" cy="80" r="13" fill="white"/>
<circle cx="634" cy="80" r="13" fill="white"/>
<path d="M211.661 85.26C211.867 85.26 212.023 85.26 212.18 85.26C212.504 85.2649 212.685 85.4365 212.685 85.7551C212.69 86.3383 212.69 86.9216 212.685 87.5C212.685 87.8333 212.514 88 212.185 88C208.073 88 203.96 88 199.848 88C199.519 88 199.353 87.8333 199.353 87.5C199.348 86.9167 199.348 86.3334 199.353 85.7551C199.353 85.4463 199.534 85.2649 199.843 85.26C200.005 85.2551 200.171 85.26 200.367 85.26C200.166 85.0149 199.985 84.7992 199.814 84.5836C199.318 83.9513 198.936 83.2552 198.671 82.4955C198.618 82.3484 198.544 82.2945 198.392 82.2994C198.039 82.319 197.691 82.3092 197.402 82.0592C197.147 81.8387 197 81.574 197 81.2309C197 80.2947 197 79.3535 197 78.4173C197 77.834 197.48 77.3586 198.064 77.3537C198.583 77.3488 198.573 77.3439 198.784 76.8635C199.941 74.2314 201.921 72.5991 204.759 72.1188C207.141 71.7168 209.293 72.3393 211.136 73.9226C212.161 74.7999 212.901 75.8881 213.362 77.1576C213.416 77.3047 213.489 77.3586 213.641 77.3537C213.822 77.3439 214.014 77.339 214.19 77.3733C214.695 77.4811 215.033 77.9174 215.033 78.4369C215.033 79.3682 215.033 80.2996 215.033 81.2309C215.033 81.8142 214.553 82.2945 213.969 82.2994C213.445 82.3043 213.445 82.3043 213.249 82.7896C212.896 83.6572 212.396 84.4267 211.769 85.1228C211.749 85.1571 211.724 85.1865 211.661 85.26ZM206.024 85.26C207.548 85.26 209.073 85.26 210.602 85.2649C210.769 85.2649 210.901 85.2257 211.014 85.1031C211.156 84.9512 211.308 84.8041 211.44 84.6473C213.023 82.8239 213.587 80.7113 213.121 78.3585C212.71 76.2704 211.519 74.6921 209.705 73.5892C208.573 72.903 207.333 72.5697 206.014 72.5697C204.98 72.5697 203.985 72.7854 203.044 73.2265C201.465 73.9618 200.274 75.1038 199.5 76.6626C198.868 77.937 198.662 79.2898 198.828 80.6966C199.034 82.4269 199.789 83.8777 201.029 85.0933C201.157 85.2159 201.294 85.2649 201.47 85.2649C202.985 85.26 204.504 85.26 206.024 85.26ZM206.024 85.8286C204.068 85.8286 202.117 85.8286 200.162 85.8237C199.99 85.8237 199.921 85.8629 199.926 86.0492C199.936 86.4462 199.936 86.8432 199.926 87.2452C199.921 87.4118 199.97 87.4706 200.142 87.4657C200.652 87.4559 201.157 87.4608 201.666 87.4608C205.053 87.4608 208.44 87.4608 211.827 87.4608C212.112 87.4608 212.112 87.4608 212.112 87.1667C212.112 86.8138 212.112 86.456 212.112 86.1031C212.112 85.8286 212.112 85.8286 211.842 85.8286C209.906 85.8286 207.965 85.8286 206.024 85.8286ZM198.431 81.7063C198.132 80.4466 198.147 79.1967 198.426 77.9468C197.868 77.8291 197.549 78.0693 197.544 78.5987C197.534 79.4173 197.534 80.2407 197.544 81.0593C197.549 81.5887 197.872 81.8289 198.431 81.7063ZM213.621 77.9615C213.911 79.2065 213.906 80.4613 213.621 81.7063C214.141 81.824 214.484 81.6132 214.494 81.1328C214.518 80.2652 214.518 79.3928 214.494 78.5252C214.484 78.0399 214.102 77.8046 213.621 77.9615Z" fill="black"/>
<path d="M206.46 84.7355C204.803 84.7355 203.627 84.5395 202.539 83.9758C201.029 83.1915 200.137 81.9465 199.995 80.2457C199.814 78.0987 200.588 76.3195 202.255 74.947C203.186 74.1824 204.264 73.7559 205.46 73.653C208.764 73.3638 211.489 75.6773 211.989 78.6722C212.161 79.7163 212.102 80.7358 211.675 81.7161C211.176 82.8729 210.293 83.6425 209.156 84.1375C208.161 84.5738 207.107 84.7355 206.46 84.7355ZM206.146 84.167C206.906 84.1817 207.779 84.0493 208.617 83.7454C209.705 83.3484 210.587 82.7063 211.102 81.6377C211.46 80.8976 211.558 80.1133 211.499 79.2947C211.406 78.0056 210.926 76.8782 210.043 75.9469C208.862 74.697 207.401 74.1039 205.671 74.2069C204.352 74.2853 203.205 74.7853 202.255 75.6921C201.014 76.8831 200.431 78.3487 200.549 80.0741C200.657 81.6181 201.402 82.7406 202.769 83.4513C203.784 83.9807 204.882 84.1719 206.146 84.167Z" fill="black"/>
<path d="M208.681 75.4813C208.823 75.5548 209.029 75.6332 209.215 75.7509C209.911 76.192 210.357 76.8439 210.69 77.5792C210.754 77.7164 210.808 77.8585 210.857 78.0056C210.916 78.1821 210.852 78.3242 210.7 78.383C210.553 78.4369 210.421 78.3683 210.332 78.1968C210.156 77.8389 209.999 77.4762 209.793 77.138C209.489 76.6331 209.078 76.241 208.519 76.0253C208.367 75.9665 208.303 75.8489 208.342 75.6871C208.372 75.5499 208.475 75.4911 208.681 75.4813Z" fill="black"/>
<path d="M279 78.9986C279 79.3307 279 79.6627 279 79.9947C278.99 80.0445 278.98 80.091 278.97 80.1408C278.904 80.5758 278.864 81.0207 278.768 81.449C278.021 84.7328 275.281 87.3127 271.964 87.8705C271.655 87.9236 271.343 87.9568 271.031 88C270.676 88 270.324 88 269.969 88C269.926 87.99 269.886 87.9801 269.843 87.9734C269.451 87.917 269.052 87.8805 268.664 87.7975C265.36 87.1068 262.671 84.2945 262.129 80.9775C262.08 80.6621 262.043 80.3434 262 80.0279C262 79.6727 262 79.3207 262 78.9654C262.013 78.8559 262.027 78.7463 262.04 78.64C262.249 76.7242 263.003 75.0541 264.331 73.6562C265.629 72.2916 267.21 71.4416 269.069 71.1262C269.378 71.073 269.69 71.0398 270.002 71C270.334 71 270.666 71 270.998 71C271.048 71.01 271.094 71.0232 271.144 71.0266C272.18 71.0996 273.176 71.342 274.106 71.8035C276.726 73.1018 278.333 75.1836 278.874 78.0656C278.93 78.3744 278.957 78.6865 279 78.9986ZM278.289 77.7203C276.769 78.0955 275.467 77.727 274.491 76.5084C273.472 75.2367 273.395 73.8422 274.156 72.4012C271.367 70.8273 267.07 71.1494 264.331 74.4033C261.605 77.6373 261.947 82.5082 265.114 85.4002C268.133 88.1594 272.147 87.8373 274.345 86.4793C274.322 86.4594 274.302 86.4428 274.282 86.4262C273.389 85.6824 273.206 84.4107 273.85 83.4479C274.116 83.0494 274.478 82.7672 274.929 82.6045C275.075 82.5514 275.202 82.6078 275.258 82.7406C275.308 82.8668 275.258 82.9863 275.125 83.0561C275.082 83.0793 275.032 83.0926 274.989 83.1158C274.385 83.4047 274.039 83.8828 273.98 84.5469C273.92 85.1977 274.166 85.7223 274.69 86.1174C274.79 86.1938 274.863 86.207 274.979 86.1273C275.739 85.5994 276.4 84.9686 276.951 84.2215C277.267 83.7932 277.273 83.7268 276.842 83.3914C276.643 83.2354 276.397 83.1324 276.164 83.0229C275.998 82.9465 275.915 82.8402 275.955 82.7008C275.998 82.558 276.131 82.4916 276.301 82.5447C276.433 82.5846 276.563 82.6311 276.689 82.6875C277.008 82.8369 277.27 83.0627 277.493 83.3383C278.366 82.1861 278.778 79.2842 278.289 77.7203ZM274.627 72.6436C273.976 73.6297 273.966 75.0707 274.853 76.1863C275.769 77.3385 277.194 77.5709 278.17 77.209C277.552 75.25 276.374 73.7359 274.627 72.6436Z" fill="black"/>
<path d="M268.222 74.8283C268.222 73.7558 269.009 72.8096 270.048 72.6269C271.127 72.4377 272.173 73.0221 272.555 74.0314C272.622 74.2074 272.585 74.3402 272.456 74.4033C272.309 74.4764 272.167 74.4066 272.094 74.2207C271.904 73.7426 271.579 73.4006 271.101 73.2113C270.208 72.856 269.192 73.301 268.843 74.1908C268.491 75.0939 268.939 76.11 269.842 76.4519C270.752 76.7973 271.758 76.3424 272.097 75.4359C272.117 75.3828 272.13 75.3297 272.15 75.2799C272.21 75.1305 272.323 75.0674 272.462 75.1105C272.595 75.1504 272.681 75.2832 272.618 75.426C272.499 75.7016 272.383 75.9937 272.203 76.2295C271.625 76.9832 270.609 77.2588 269.713 76.94C268.823 76.6246 268.222 75.7713 268.222 74.8283Z" fill="black"/>
<path d="M274.209 79.9383C274.212 79.251 274.767 78.6965 275.454 78.6998C276.138 78.7031 276.699 79.2676 276.692 79.9482C276.686 80.6322 276.125 81.19 275.441 81.1867C274.76 81.1867 274.209 80.6256 274.209 79.9383ZM275.451 79.1978C275.035 79.1978 274.707 79.5332 274.71 79.9482C274.713 80.3566 275.039 80.6853 275.447 80.6886C275.859 80.692 276.198 80.3566 276.201 79.9449C276.201 79.5365 275.862 79.1978 275.451 79.1978Z" fill="black"/>
<path d="M272.097 79.6062C272.097 80.0711 271.719 80.4529 271.254 80.4529C270.789 80.4529 270.397 80.0611 270.404 79.5929C270.41 79.1281 270.789 78.7562 271.257 78.7595C271.729 78.7629 272.097 79.1347 272.097 79.6062ZM271.247 79.2576C271.058 79.2609 270.898 79.4203 270.902 79.6062C270.905 79.7922 271.071 79.9549 271.257 79.9515C271.446 79.9482 271.599 79.7888 271.599 79.5963C271.596 79.4037 271.443 79.2576 271.247 79.2576Z" fill="black"/>
<path d="M271.709 84.0056C272.097 84.0056 272.403 84.3111 272.406 84.6996C272.409 85.0914 272.094 85.4068 271.702 85.4068C271.32 85.4035 271.005 85.0914 271.001 84.7095C270.998 84.321 271.317 84.0056 271.709 84.0056ZM271.699 84.5037C271.576 84.5169 271.509 84.5867 271.503 84.7062C271.499 84.8191 271.606 84.9187 271.719 84.9054C271.841 84.8921 271.908 84.8158 271.904 84.6929C271.898 84.5701 271.821 84.5103 271.699 84.5037Z" fill="black"/>
<path d="M429.003 81.6608C429.003 81.3423 429.003 81.0163 429.003 80.6751C428.911 80.6751 428.837 80.6751 428.754 80.6751C426.324 80.6751 423.884 80.6751 421.453 80.6751C420.956 80.6751 420.542 80.5159 420.192 80.1747C419.934 79.932 419.676 79.6894 419.428 79.4468C419.198 79.2193 418.921 79.1056 418.59 79.1132C418.47 79.1132 418.341 79.1207 418.222 79.1132C418.028 79.1056 417.909 78.9691 417.918 78.7947C417.927 78.6279 418.047 78.5066 418.222 78.4914C418.931 78.4308 419.557 78.5824 420.035 79.1283C420.229 79.3482 420.468 79.5454 420.68 79.7501C420.882 79.9472 421.131 80.0458 421.407 80.0458C423.912 80.0458 426.416 80.0458 428.911 80.0458C428.939 80.0458 428.966 80.0382 428.994 80.0382C428.994 79.8411 428.994 79.6439 428.994 79.424C428.672 79.424 428.349 79.424 428.027 79.424C427.521 79.424 427.097 79.0601 427.051 78.6052C427.005 78.1047 427.327 77.6574 427.834 77.574C428.064 77.5361 428.303 77.5664 428.589 77.5664C428.386 77.2783 428.156 77.0887 427.889 76.9295C427.53 76.7248 427.143 76.6186 426.729 76.6186C423.902 76.6186 421.085 76.611 418.258 76.6186C417.025 76.6262 416.049 77.4602 415.975 78.6431C415.911 79.6439 415.966 80.6524 415.966 81.6684C416.5 81.5546 417.016 81.5622 417.531 81.7518C418.415 82.0854 418.958 82.6996 419.17 83.5715C419.216 83.7535 419.28 83.7762 419.446 83.7762C421.177 83.7687 422.899 83.7762 424.63 83.7762C424.685 83.7762 424.74 83.7762 424.795 83.7762C424.989 83.7914 425.108 83.9127 425.108 84.0871C425.108 84.2615 424.98 84.3828 424.786 84.3904C424.731 84.3904 424.676 84.3904 424.621 84.3904C422.89 84.3904 421.168 84.3904 419.437 84.3904C419.28 84.3904 419.207 84.4056 419.17 84.5875C418.931 85.7628 417.844 86.5893 416.564 86.5817C415.312 86.5665 414.244 85.7097 414.042 84.5269C413.867 83.4805 414.244 82.6389 415.146 82.0247C415.266 81.9413 415.303 81.8655 415.303 81.729C415.303 78.825 415.303 75.9286 415.303 73.0246C415.303 72.8881 415.275 72.8123 415.137 72.7365C414.741 72.5394 414.557 72.092 414.677 71.6901C414.806 71.258 415.174 70.9926 415.634 71.0002C416.086 71.0002 416.454 71.2731 416.574 71.6977C416.693 72.0996 416.5 72.5318 416.104 72.7441C416.012 72.7896 415.938 72.8275 415.938 72.9564C415.948 74.2757 415.938 75.595 415.948 76.9067C415.948 76.9219 415.957 76.9446 415.957 76.9901C416.012 76.9446 416.049 76.9067 416.086 76.8688C416.675 76.2926 417.384 75.9893 418.231 75.9893C421.057 75.9893 423.893 75.9893 426.72 75.9893C428.349 75.9893 429.657 77.2328 429.657 78.7947C429.657 79.7728 429.657 80.7585 429.657 81.7366C429.657 81.8731 429.703 81.9489 429.822 82.0323C430.697 82.5783 431.167 83.6625 430.946 84.6103C430.697 85.6946 429.859 86.4679 428.764 86.6272C427.3 86.8471 425.974 85.9372 425.707 84.5421C425.458 83.2455 426.388 81.9262 427.769 81.6608C428.165 81.6001 428.58 81.6608 429.003 81.6608ZM416.601 82.237C415.515 82.2446 414.631 83.1014 414.64 84.125C414.649 85.1335 415.552 85.9827 416.601 85.9675C417.678 85.9599 418.562 85.1107 418.553 84.0871C418.553 83.0787 417.66 82.2295 416.601 82.237ZM428.349 85.9751C429.408 85.9827 430.301 85.141 430.32 84.1326C430.329 83.1014 429.445 82.2446 428.359 82.2446C427.3 82.237 426.407 83.0863 426.407 84.1023C426.388 85.1107 427.272 85.9599 428.349 85.9751ZM429.021 78.8023C428.985 78.6052 428.966 78.4459 428.92 78.2791C428.911 78.2412 428.847 78.1881 428.81 78.1805C428.543 78.173 428.276 78.173 428.018 78.1805C427.843 78.1881 427.705 78.3322 427.705 78.4838C427.705 78.6431 427.843 78.7871 428.027 78.7947C428.349 78.8099 428.662 78.8023 429.021 78.8023ZM415.948 71.9555C415.948 71.7963 415.791 71.6371 415.625 71.6371C415.46 71.6371 415.294 71.7887 415.303 71.9479C415.303 72.0996 415.45 72.2436 415.616 72.2512C415.782 72.2664 415.938 72.1147 415.948 71.9555Z" fill="black"/>
<path d="M416.933 78.4914C417.117 78.4914 417.255 78.6203 417.255 78.7947C417.255 78.9767 417.117 79.1131 416.924 79.1131C416.739 79.1131 416.601 78.9842 416.601 78.8098C416.601 78.6279 416.739 78.4914 416.933 78.4914Z" fill="black"/>
<path d="M416.601 82.8588C417.329 82.8588 417.909 83.4047 417.909 84.0947C417.909 84.7998 417.338 85.3533 416.592 85.3457C415.865 85.3457 415.294 84.7922 415.294 84.0947C415.294 83.4047 415.874 82.8588 416.601 82.8588ZM417.255 84.1023C417.255 83.7686 416.951 83.4805 416.601 83.4805C416.251 83.4805 415.948 83.7762 415.948 84.1023C415.948 84.4359 416.251 84.724 416.601 84.724C416.951 84.724 417.255 84.4359 417.255 84.1023Z" fill="black"/>
<path d="M428.349 85.3458C427.622 85.3458 427.051 84.7923 427.051 84.0947C427.051 83.3895 427.631 82.8512 428.377 82.8512C429.095 82.8512 429.666 83.4123 429.666 84.1098C429.657 84.8074 429.077 85.3533 428.349 85.3458ZM429.003 84.1023C429.003 83.7762 428.69 83.4805 428.349 83.4805C427.999 83.4805 427.696 83.7762 427.696 84.1023C427.696 84.4359 427.999 84.724 428.349 84.724C428.708 84.724 429.003 84.4359 429.003 84.1023Z" fill="black"/>
<path d="M495.972 71.7591C495.942 72.0283 495.904 72.3049 495.867 72.5741C495.598 74.5332 495.119 76.425 493.953 78.07C493.736 78.3766 493.482 78.6532 493.22 78.9224C492.674 79.4832 492.121 80.0366 491.56 80.5899C491.455 80.6946 491.41 80.8067 491.395 80.9488C491.298 81.876 491.201 82.8032 491.089 83.7304C491.074 83.8276 491.022 83.9472 490.947 84.0145C490.035 84.9343 489.122 85.8465 488.21 86.7587C488.105 86.8634 487.993 86.9232 487.836 86.8709C487.687 86.8186 487.619 86.7064 487.597 86.5643C487.515 85.9961 487.425 85.4278 487.358 84.8595C487.328 84.6277 487.275 84.4408 487.081 84.2912C486.954 84.194 486.849 84.0594 486.722 83.9248C486.55 84.209 486.393 84.4707 486.236 84.7398C486.131 84.9118 486.027 85.0913 485.922 85.2633C485.765 85.525 485.526 85.5549 485.309 85.338C484.606 84.6352 483.903 83.9323 483.2 83.2294C482.692 82.721 482.183 82.2125 481.675 81.704C481.428 81.4573 481.451 81.2479 481.75 81.061C482.176 80.7993 482.61 80.545 483.051 80.2758C482.856 80.074 482.699 79.8571 482.482 79.7076C482.355 79.6178 482.146 79.6328 481.974 79.6029C481.473 79.5281 480.972 79.4608 480.471 79.3935C480.314 79.3711 480.172 79.3187 480.12 79.1393C480.067 78.9673 480.149 78.8551 480.262 78.743C481.159 77.8532 482.056 76.9559 482.939 76.0586C483.118 75.8791 483.335 75.8866 483.552 75.8567C484.397 75.7595 485.242 75.6698 486.086 75.58C486.214 75.5651 486.311 75.5202 486.401 75.423C486.857 74.9594 487.335 74.5108 487.776 74.0322C488.763 72.9629 489.982 72.2676 491.343 71.804C492.472 71.4226 493.624 71.1759 494.805 71.0712C495.044 71.0487 495.276 71.0338 495.515 71.0039C495.717 70.9814 495.867 71.0562 495.964 71.2357C495.972 71.4301 495.972 71.5946 495.972 71.7591ZM488.442 82.8256C488.487 82.7658 488.517 82.706 488.562 82.6537C489.93 81.2853 491.291 79.9095 492.667 78.556C493.541 77.6961 494.11 76.6568 494.514 75.5127C494.528 75.4679 494.506 75.3856 494.469 75.3482C493.534 74.4061 492.599 73.4714 491.657 72.5367C491.62 72.4994 491.538 72.4694 491.493 72.4844C490.379 72.8732 489.362 73.4116 488.524 74.2565C486.819 75.9689 485.114 77.6737 483.402 79.3786C483.357 79.4234 483.312 79.4683 483.29 79.4982C484.703 80.9114 486.094 82.3022 487.485 83.693C487.619 83.5584 487.769 83.4089 487.933 83.2369C487.889 83.1995 487.836 83.1696 487.791 83.1247C487.014 82.3471 486.236 81.5694 485.458 80.7918C485.399 80.732 485.339 80.6721 485.301 80.6049C485.182 80.3955 485.331 80.1188 485.571 80.1338C485.683 80.1413 485.81 80.2085 485.892 80.2908C486.685 81.0759 487.47 81.8685 488.262 82.6537C488.322 82.7135 488.367 82.7509 488.442 82.8256ZM486.221 83.4687C485.324 82.5714 484.434 81.6816 483.537 80.7843C483.17 81.0012 482.789 81.233 482.438 81.4423C483.484 82.4892 484.524 83.5285 485.563 84.5679C485.772 84.209 486.004 83.8351 486.221 83.4687ZM495.284 71.7217C494.267 71.804 493.287 71.9685 492.353 72.2227C493.16 73.0302 493.975 73.8453 494.783 74.6528C495.037 73.7107 495.201 72.7312 495.284 71.7217ZM485.496 76.3353C484.83 76.41 484.187 76.4773 483.552 76.5596C483.469 76.5671 483.372 76.6119 483.312 76.6717C482.639 77.3372 481.966 78.0102 481.293 78.6832C481.256 78.7205 481.219 78.7579 481.174 78.8178C481.249 78.8327 481.301 78.8477 481.361 78.8551C481.787 78.915 482.213 78.9673 482.632 79.0421C482.744 79.057 482.811 79.0421 482.894 78.9598C483.724 78.1298 484.554 77.2998 485.384 76.4624C485.414 76.425 485.443 76.3876 485.496 76.3353ZM488.18 85.8166C488.218 85.7942 488.233 85.7942 488.24 85.7867C488.958 85.0763 489.668 84.3585 490.379 83.6407C490.416 83.6033 490.438 83.5509 490.446 83.4986C490.521 82.8406 490.595 82.1901 490.67 81.5096C490.633 81.532 490.61 81.547 490.595 81.562C489.735 82.4219 488.876 83.2743 488.023 84.1417C487.986 84.179 487.963 84.2688 487.971 84.3286C487.993 84.538 488.023 84.7398 488.053 84.9492C488.098 85.2408 488.135 85.525 488.18 85.8166Z" fill="black"/>
<path d="M479.237 88C478.938 87.7906 478.923 87.6112 479.185 87.342C480.277 86.2503 481.368 85.1586 482.467 84.0669C482.535 83.9996 482.617 83.9323 482.707 83.9024C482.849 83.8575 482.983 83.9099 483.066 84.0444C483.14 84.1716 483.14 84.2912 483.051 84.4108C483.013 84.4557 482.976 84.508 482.931 84.5454C481.847 85.6371 480.755 86.7214 479.663 87.8131C479.596 87.8804 479.514 87.9402 479.432 88C479.372 88 479.305 88 479.237 88Z" fill="black"/>
<path d="M479.828 85.682C479.551 85.6521 479.394 85.3755 479.529 85.1586C479.559 85.1063 479.604 85.0614 479.641 85.0165C480.277 84.381 480.912 83.7379 481.555 83.1098C481.637 83.035 481.757 82.9603 481.869 82.9528C482.116 82.9378 482.273 83.222 482.146 83.4313C482.116 83.4837 482.071 83.5285 482.034 83.5734C481.391 84.2165 480.755 84.8595 480.112 85.4951C480.022 85.5773 479.918 85.6222 479.828 85.682Z" fill="black"/>
<path d="M481.353 87.1401C481.376 87.1027 481.413 87.0055 481.481 86.9382C482.139 86.2727 482.797 85.6147 483.462 84.9567C483.627 84.7922 483.813 84.7772 483.963 84.9193C484.105 85.0539 484.098 85.2633 483.933 85.4353C483.275 86.0933 482.617 86.7588 481.952 87.4168C481.847 87.5214 481.72 87.5813 481.563 87.514C481.421 87.4467 481.353 87.342 481.353 87.1401Z" fill="black"/>
<path d="M491.769 77.2326C491.762 78.3392 490.865 79.2215 489.758 79.2141C488.674 79.2066 487.776 78.2943 487.791 77.2026C487.799 76.1035 488.704 75.2211 489.803 75.2361C490.909 75.2436 491.777 76.1259 491.769 77.2326ZM489.788 75.9016C489.07 75.9016 488.479 76.4848 488.464 77.2101C488.449 77.928 489.062 78.5411 489.788 78.5411C490.506 78.5411 491.104 77.9429 491.104 77.2251C491.104 76.4998 490.513 75.9016 489.788 75.9016Z" fill="black"/>
<path d="M484.337 79.5281C484.337 79.3561 484.486 79.1991 484.658 79.1991C484.83 79.1991 485.002 79.3636 484.995 79.5356C484.995 79.715 484.83 79.8721 484.651 79.8646C484.471 79.8496 484.337 79.7076 484.337 79.5281Z" fill="black"/>
<path d="M639.264 81.2116C638.929 81.8211 638.663 82.4207 638.298 82.9516C637.096 84.6818 635.421 85.6747 633.312 85.9106C632.11 86.0482 630.947 85.8713 629.843 85.3896C629.705 85.3306 629.606 85.3404 629.478 85.4191C628.7 85.8615 627.911 86.2743 627.024 86.4513C626.64 86.5299 626.266 86.5693 625.881 86.4316C625.231 86.1957 624.906 85.5469 625.024 84.7604C625.182 83.7774 625.605 82.9123 626.098 82.0668C626.177 81.9292 626.197 81.8211 626.128 81.6736C624.383 77.6529 626.887 72.9342 631.213 72.1379C633.834 71.6562 636.042 72.4427 637.845 74.399C637.875 74.4284 637.904 74.4678 637.934 74.4973C637.944 74.5071 637.953 74.5169 637.983 74.5366C638.151 74.3891 638.308 74.2417 638.476 74.0942C639.599 73.1701 640.89 72.7081 642.349 72.6983C642.684 72.6983 642.802 72.8162 642.802 73.1603C642.802 74.7529 642.25 76.139 641.156 77.299C640.979 77.4858 640.792 77.6725 640.604 77.8495C640.506 77.938 640.486 78.0264 640.526 78.1542C640.703 78.7637 640.861 79.3831 641.038 79.9926C641.107 80.2187 641.048 80.376 640.88 80.5333C640.604 80.7987 640.338 81.0739 640.062 81.3492C639.806 81.6048 639.658 81.6048 639.402 81.3492C639.333 81.3099 639.294 81.2509 639.264 81.2116ZM637.402 74.9986C637.303 74.8807 637.244 74.802 637.185 74.743C635.549 73.062 633.558 72.3837 631.252 72.8555C627.99 73.524 625.862 76.6108 626.354 79.9041C626.65 81.8899 627.714 83.3841 629.439 84.4164C629.567 84.495 629.656 84.495 629.784 84.4065C631.292 83.4038 632.691 82.2733 633.982 81.0051C634.13 80.8577 634.209 80.7004 634.228 80.4939C634.287 79.7861 634.563 79.1471 634.987 78.577C635.076 78.459 635.174 78.341 635.243 78.2624C635.125 78.0658 634.958 77.8888 634.958 77.7217C634.958 77.5546 635.145 77.3875 635.253 77.2007C634.879 76.8271 634.485 76.4437 634.1 76.0505C633.903 75.8441 633.903 75.6671 634.1 75.4607C634.317 75.2444 634.554 75.0478 634.741 74.8118C635.036 74.4383 635.362 74.3695 635.805 74.5366C636.288 74.7332 636.82 74.8413 637.402 74.9986ZM630.454 84.8784C630.493 84.8981 630.572 84.9275 630.641 84.9472C631.765 85.3011 632.898 85.3699 634.031 85.075C636.327 84.4655 637.835 83.0204 638.564 80.7692C638.584 80.7004 638.584 80.6021 638.555 80.5529C638.476 80.435 638.358 80.3268 638.259 80.2187C637.756 80.6512 637.756 80.6512 637.244 80.2482C637.224 80.258 637.205 80.2678 637.185 80.2777C636.495 80.897 635.697 81.2411 634.77 81.3C634.701 81.3 634.623 81.359 634.573 81.4082C634.15 81.8014 633.736 82.2241 633.292 82.5879C632.366 83.3645 631.41 84.1116 630.454 84.8784ZM635.805 77.7119C636.475 78.3803 637.116 79.0292 637.776 79.6878C637.786 79.678 637.816 79.6583 637.845 79.6288C638.771 78.7048 639.698 77.7807 640.624 76.8566C641.294 76.1783 641.728 75.3722 641.945 74.4481C642.024 74.1237 642.053 73.7895 642.112 73.4454C641.058 73.4454 639.826 73.8583 639.008 74.6054C637.894 75.6081 636.85 76.6797 635.805 77.7119ZM626.601 82.6173C626.256 83.2367 625.95 83.8363 625.802 84.4852C625.743 84.7506 625.733 85.0455 625.753 85.3208C625.763 85.5862 625.95 85.7435 626.216 85.7828C626.335 85.8025 626.463 85.8025 626.581 85.7926C627.429 85.7238 628.158 85.3306 628.917 84.9374C627.961 84.3377 627.192 83.5807 626.601 82.6173ZM634.918 80.5726C635.647 80.4841 636.229 80.199 636.722 79.7468C636.387 79.4126 636.071 79.098 635.756 78.7736C635.283 79.2651 635.007 79.8549 634.918 80.5726ZM636.869 75.5983C636.416 75.4803 635.963 75.3525 635.509 75.2346C635.45 75.2149 635.352 75.2346 635.303 75.2739C635.125 75.4312 634.948 75.5983 634.79 75.7556C635.135 76.0996 635.45 76.4142 635.756 76.719C636.12 76.3454 636.495 75.9718 636.869 75.5983ZM639.905 78.6163C639.52 78.9898 639.156 79.3634 638.801 79.7173C639.106 80.0221 639.432 80.3465 639.767 80.6807C639.915 80.5333 640.072 80.3661 640.23 80.199C640.269 80.1597 640.299 80.081 640.289 80.0319C640.161 79.5502 640.033 79.0783 639.905 78.6163Z" fill="black"/>
<path d="M639.859 74.5766C640.453 74.5766 640.928 74.9832 640.928 75.5047C640.928 76.0174 640.443 76.4505 639.869 76.4505C639.285 76.4505 638.82 76.0262 638.82 75.5047C638.82 74.9832 639.265 74.5766 639.859 74.5766ZM639.869 75.8052C640.067 75.8052 640.216 75.6727 640.206 75.4959C640.196 75.3368 640.057 75.2042 639.869 75.1953C639.681 75.1953 639.523 75.3279 639.523 75.4959C639.523 75.6815 639.671 75.8141 639.869 75.8052Z" fill="black"/>
<path d="M689.815 76.232C689.065 75.6817 688.235 75.4028 687.295 75.4102C685.509 75.4102 683.984 76.5549 683.541 78.0958C683.383 78.6535 682.83 79.0277 682.245 78.9984C681.613 78.969 681.115 78.5508 681.012 77.9637C680.981 77.7583 681.012 77.5528 681.083 77.3474C681.858 75.146 683.438 73.7078 685.872 73.1721C687.958 72.7172 689.863 73.1721 691.53 74.4416C691.57 74.4709 691.601 74.4929 691.649 74.5296C691.87 74.3242 692.083 74.1114 692.313 73.9132C692.384 73.8472 692.486 73.7958 692.581 73.7885C692.795 73.7592 692.968 73.9059 692.992 74.104C692.992 74.126 693 74.1481 693 74.1774C693 75.146 693 76.1073 693 77.0759C693 77.274 692.905 77.4061 692.723 77.4501C692.676 77.4648 692.629 77.4648 692.589 77.4648C691.538 77.4648 690.495 77.4648 689.444 77.4648C689.254 77.4648 689.12 77.3914 689.065 77.2446C689.001 77.0905 689.041 76.9585 689.159 76.8484C689.373 76.6429 689.586 76.4448 689.815 76.232ZM692.218 74.9993C692.147 75.0653 692.099 75.1093 692.06 75.1607C691.783 75.4542 691.578 75.4689 691.246 75.1754C690.305 74.3388 689.167 73.8692 687.871 73.7518C686.971 73.6711 686.086 73.7738 685.248 74.0894C683.494 74.7498 682.34 75.9385 681.795 77.6262C681.747 77.7656 681.755 77.8977 681.826 78.0225C681.929 78.2059 682.126 78.3013 682.364 78.2719C682.569 78.2499 682.727 78.1105 682.798 77.883C683.438 75.7844 685.596 74.4563 687.903 74.7351C688.938 74.8598 689.831 75.2634 690.582 75.9312C690.795 76.1219 690.795 76.3201 690.59 76.5109C690.511 76.5842 690.424 76.6576 690.321 76.753C690.977 76.753 691.585 76.753 692.21 76.753C692.218 76.1733 692.218 75.601 692.218 74.9993Z" fill="black"/>
<path d="M687.215 86C686.994 85.9656 686.773 85.9399 686.551 85.8969C685.382 85.6821 684.347 85.1408 683.438 84.3074C683.414 84.2816 683.383 84.2644 683.343 84.2215C683.225 84.3589 683.106 84.4878 682.988 84.6253C682.893 84.7284 682.79 84.8315 682.703 84.9346C682.577 85.0807 682.427 85.1494 682.245 85.0721C682.055 84.9947 682 84.8229 682 84.6167C682 83.9637 682 83.3107 682 82.6577C682 82.1938 682 81.7384 682 81.2744C682 80.9394 682.142 80.7847 682.45 80.7847C683.478 80.7847 684.505 80.7847 685.532 80.7847C685.722 80.7847 685.864 80.8534 685.943 81.0425C686.014 81.2401 685.959 81.3947 685.824 81.5408C685.611 81.7642 685.406 81.9962 685.184 82.2281C685.54 82.5546 685.927 82.7952 686.362 82.9585C688.471 83.7661 690.755 82.5203 691.419 80.2005C691.513 79.8568 691.632 79.5475 691.901 79.3155C692.343 78.9288 692.944 78.8945 693.41 79.2296C693.876 79.5646 694.113 80.1833 693.947 80.7675C693.189 83.5083 691.529 85.2181 688.953 85.8625C688.716 85.9227 688.471 85.9399 688.226 85.9742C688.195 85.9828 688.163 85.9914 688.132 86C687.823 86 687.523 86 687.215 86ZM684.663 81.6181C684.007 81.6181 683.391 81.6181 682.774 81.6181C682.774 82.2969 682.774 82.9671 682.774 83.6544C682.822 83.6114 682.853 83.5771 682.885 83.5427C682.924 83.4998 682.972 83.4482 683.011 83.4052C683.241 83.1561 683.43 83.1561 683.667 83.3966C685.113 84.8745 686.82 85.4329 688.764 85.0463C690.083 84.7885 691.174 84.0668 692.043 82.9585C692.604 82.2453 692.999 81.4291 693.212 80.5098C693.275 80.2434 693.133 79.9771 692.904 79.874C692.596 79.7365 692.288 79.9255 692.185 80.3036C691.569 82.6663 689.506 84.2558 687.183 83.9981C686.109 83.8778 685.176 83.3966 684.394 82.5718C684.189 82.357 684.189 82.125 684.394 81.9017C684.473 81.8157 684.56 81.7298 684.663 81.6181Z" fill="black"/>
<path d="M820.859 71C821.279 71 821.699 71 822.119 71C822.381 71.042 822.644 71.063 822.895 71.1155C824.47 71.3884 825.866 72.0496 827.062 73.1098C828.542 74.4218 829.487 76.0487 829.844 78.0115C829.896 78.3054 829.928 78.6098 829.98 78.9037C829.98 79.3026 829.98 79.7014 829.98 80.1003C829.97 80.1528 829.959 80.1948 829.949 80.2472C829.896 80.5831 829.875 80.919 829.802 81.2444C828.899 85.6003 824.732 88.5288 820.324 87.92C818.529 87.6681 816.965 86.9229 815.663 85.6633C813.522 83.5851 812.672 81.0554 813.113 78.106C813.375 76.3531 814.173 74.8416 815.412 73.5821C816.734 72.2281 818.33 71.3989 820.208 71.105C820.429 71.063 820.649 71.0315 820.859 71ZM828.994 79.502C829.004 75.3874 825.635 72.0076 821.499 71.9971C817.385 71.9867 814.005 75.356 813.995 79.481C813.984 83.5955 817.353 86.9858 821.478 86.9754C825.635 86.9754 828.962 83.6585 828.994 79.502Z" fill="black"/>
<path d="M821.489 73.0258C825.068 73.0258 827.955 75.9122 827.965 79.4915C827.965 83.0707 825.068 85.9677 821.489 85.9677C817.92 85.9677 815.034 83.0602 815.034 79.4915C815.023 75.9227 817.92 73.0258 821.489 73.0258ZM816.02 79.481C816.01 82.4829 818.477 84.9495 821.489 84.96C824.491 84.9705 826.958 82.5039 826.968 79.4915C826.978 76.4895 824.512 74.0229 821.499 74.0124C818.497 74.0124 816.031 76.4685 816.02 79.481Z" fill="black"/>
<path d="M820.996 76.0277C820.996 75.8493 820.996 75.6813 820.996 75.5134C820.996 75.2195 821.206 75.0096 821.489 75.0096C821.772 75.0096 821.982 75.2195 821.982 75.5134C821.982 75.6813 821.982 75.8598 821.982 76.0277C822.455 76.1222 822.895 76.2796 823.263 76.584C823.704 76.9514 823.977 77.4027 823.966 78.001C823.966 78.2634 823.756 78.4734 823.494 78.4839C823.242 78.4944 822.99 78.3159 822.979 78.064C822.958 77.5602 822.644 77.3083 822.234 77.1298C822.182 77.1088 822.119 77.0878 822.066 77.0669C822.045 77.0564 822.024 77.0564 821.993 77.0564C821.993 77.7071 821.993 78.3474 821.993 78.9877C822.224 79.0612 822.465 79.1241 822.686 79.2186C823.326 79.502 823.798 79.9428 823.945 80.6461C824.082 81.3074 823.83 81.8532 823.347 82.294C823.011 82.6089 822.591 82.7978 822.14 82.8818C822.003 82.9133 821.972 82.9658 821.982 83.0917C821.993 83.2177 821.982 83.3436 821.982 83.4696C821.972 83.753 821.762 83.9524 821.478 83.9524C821.206 83.9524 820.996 83.7425 820.985 83.4696C820.985 83.3331 820.975 83.1967 820.985 83.0602C820.996 82.9448 820.954 82.9133 820.838 82.8923C820.25 82.7663 819.747 82.5144 819.369 82.0316C819.117 81.7167 818.98 81.3598 818.991 80.9505C819.001 80.6881 819.211 80.4781 819.463 80.4781C819.726 80.4677 819.967 80.6566 819.978 80.919C819.999 81.3179 820.219 81.5698 820.555 81.7482C820.681 81.8217 820.828 81.8637 820.985 81.9266C820.985 81.2759 820.985 80.6566 820.985 80.0373C820.985 79.9323 820.912 79.9323 820.838 79.9218C820.397 79.8274 819.999 79.6489 819.652 79.355C818.749 78.5888 818.77 77.3293 819.694 76.584C820.02 76.3216 820.387 76.1537 820.796 76.0697C820.87 76.0592 820.933 76.0487 820.996 76.0277ZM821.993 81.9056C822.297 81.8322 822.549 81.7062 822.759 81.4858C823.011 81.2129 823.053 80.898 822.864 80.6146C822.665 80.2997 822.35 80.1528 821.993 80.0583C821.993 80.6776 821.993 81.2759 821.993 81.9056ZM820.985 78.9247C820.985 78.3054 820.985 77.6966 820.985 77.0774C820.66 77.1613 820.387 77.2978 820.177 77.5497C819.967 77.8016 819.946 78.106 820.114 78.3789C820.324 78.6728 820.639 78.8302 820.985 78.9247Z" fill="black"/>
<text fill="#DADADA" xml:space="preserve" style="white-space: pre" font-family="Roboto" font-size="7" font-weight="600" letter-spacing="0em"><tspan x="75.9102" y="167.393">Desliza para leer</tspan></text>
<path d="M56.8829 163.935L60.5129 150.249C60.7277 149.439 61.563 148.958 62.3776 149.174C63.1923 149.39 63.6794 150.222 63.4646 151.032L61.2606 159.341" stroke="#DADADA" stroke-miterlimit="10" stroke-linecap="round" stroke-linejoin="round"/>
<path d="M60.7499 161.267L61.9424 156.771C62.1619 155.943 63.001 155.448 63.8157 155.664C64.6304 155.88 65.1136 156.726 64.8941 157.554L63.5692 162.549" stroke="#DADADA" stroke-miterlimit="10" stroke-linecap="round" stroke-linejoin="round"/>
<path d="M63.5892 162.473L64.4885 159.083C64.7014 158.28 65.5351 157.805 66.3498 158.021C67.1645 158.237 67.6531 159.063 67.4402 159.866L66.1555 164.709" stroke="#DADADA" stroke-miterlimit="10" stroke-linecap="round" stroke-linejoin="round"/>
<path d="M66.1555 164.71L66.9384 161.758C67.1547 160.943 67.9911 160.457 68.8057 160.673C69.6204 160.89 70.1064 161.726 69.8901 162.541L68.7158 166.968C67.6348 171.044 63.4547 173.471 59.3793 172.39C55.3038 171.309 52.8763 167.129 53.9573 163.054L54.8707 159.61C55.303 157.98 56.9759 157.009 58.6053 157.441" stroke="#DADADA" stroke-miterlimit="10" stroke-linecap="round" stroke-linejoin="round"/>
<path d="M46.7525 152.753C46.6158 152.889 46.6158 153.111 46.7525 153.247L48.9799 155.475C49.1166 155.612 49.3382 155.612 49.4749 155.475C49.6116 155.338 49.6116 155.117 49.4749 154.98L47.495 153L49.4749 151.02C49.6116 150.883 49.6116 150.662 49.4749 150.525C49.3382 150.388 49.1166 150.388 48.9799 150.525L46.7525 152.753ZM57.2475 153.247C57.3842 153.111 57.3842 152.889 57.2475 152.753L55.0201 150.525C54.8834 150.388 54.6618 150.388 54.5251 150.525C54.3884 150.662 54.3884 150.883 54.5251 151.02L56.505 153L54.5251 154.98C54.3884 155.117 54.3884 155.338 54.5251 155.475C54.6618 155.612 54.8834 155.612 55.0201 155.475L57.2475 153.247ZM47 153.35H57V152.65H47V153.35Z" fill="#DADADA"/>
</svg>
