<svg width="388" height="479" viewBox="0 0 388 479" fill="none" xmlns="http://www.w3.org/2000/svg">
<path d="M1 403.951L14.2947 405.4C14.2947 405.4 32.021 407.765 38.5206 403.626C45.0203 399.487 50.5154 401.852 54.5629 403.626C58.6104 405.4 59.0063 404.957 61.7598 403.697C64.5192 402.443 67.899 403.786 69.1634 406.068C70.4279 408.351 71.6097 407.759 73.3823 408.351C75.1549 408.942 73.3823 410.716 72.7914 412.49C72.2005 414.264 73.3823 413.673 75.1549 413.673C76.9276 413.673 73.9732 414.264 73.9732 416.038C73.9732 417.812 76.3367 418.403 77.5184 417.812C78.7002 417.221 78.7002 418.403 78.7002 418.995C78.7002 419.586 78.1093 422.542 79.2911 422.542C80.4728 422.542 83.4272 421.951 83.4272 423.725C83.4272 425.499 85.1998 427.864 86.9724 426.682C88.7451 425.499 88.7451 423.725 89.9268 423.725C91.1086 423.725 89.9268 420.177 91.1086 418.995C92.2903 417.812 89.9268 414.264 86.9724 412.49C84.0181 410.716 78.1093 400.072 82.8363 397.116C87.5633 394.159 85.7907 390.02 88.1542 390.611C90.5177 391.202 94.0629 391.202 95.2447 389.429C96.4264 387.655 100.563 386.472 104.108 385.881C107.653 385.289 106.471 384.107 108.835 383.515C111.198 382.924 115.334 384.107 115.925 382.333C116.516 380.559 121.243 380.559 120.652 377.602C120.061 374.646 118.88 375.237 118.289 373.463C117.698 371.689 114.744 375.237 115.334 372.28C115.925 369.324 117.698 368.732 115.925 367.55C114.153 366.367 112.38 365.184 114.153 363.41C115.925 361.637 117.698 361.045 118.289 361.045C118.88 361.045 119.471 362.228 118.88 362.228C118.289 362.228 116.516 362.228 116.516 362.819C116.516 363.41 115.925 366.367 117.107 365.776C118.289 365.184 120.061 365.776 119.471 366.367C118.88 366.958 119.471 368.141 120.061 368.141C120.652 368.141 120.652 368.732 118.88 369.324C117.107 369.915 118.289 371.689 118.88 371.098C119.471 370.506 118.88 370.506 120.061 369.915C121.243 369.324 121.834 366.958 123.607 366.367C125.379 365.776 125.379 364.593 124.198 364.002C123.016 363.41 120.652 361.637 121.834 361.637C123.016 361.637 124.074 362.181 125.019 362.795C125.97 363.41 126.561 364.593 127.152 363.41C127.743 362.228 127.152 361.045 128.925 360.454C130.697 359.863 132.866 358.674 132.074 357.497C131.288 356.315 129.515 357.497 130.106 356.315C130.697 355.132 131.424 356.38 132.245 355.162C133.067 353.943 135.076 352.891 136.73 352.826C138.385 352.761 146.651 352.761 147.833 352.169C149.014 351.578 149.605 350.396 150.196 350.396C150.787 350.396 150.787 350.396 150.787 350.396C150.787 350.396 150.787 352.169 153.151 351.578C155.514 350.987 158.12 351.578 157.996 350.396C157.872 349.213 157.31 349 157.31 349C157.31 349 29.0666 353.949 1 357.503V403.951Z" fill="#DADADA" stroke="black" stroke-width="0.5" stroke-miterlimit="10"/>
<path d="M1 357.222C1 357.222 121.12 348.044 235.5 348M392 358C367.127 353.14 334.207 350.386 298 349.045" stroke="white" stroke-miterlimit="10" stroke-linecap="round" stroke-linejoin="round"/>
<path d="M1 194.427C1 194.427 204.5 163.705 392 195.205" stroke="white" stroke-opacity="0.3" stroke-width="1.5" stroke-miterlimit="10" stroke-linejoin="round" stroke-dasharray="3 3"/>
<path d="M97.4842 229.133C97.4842 229.068 97.4428 229.015 97.3836 228.991C97.3658 228.985 97.354 228.985 97.3362 228.985C97.2889 228.985 97.2474 229.003 97.2178 229.044L96.4363 230.039L96.8922 227.978C96.91 227.907 96.8685 227.836 96.8034 227.812C96.7856 227.807 96.7679 227.801 96.7442 227.801C96.6968 227.801 96.6495 227.824 96.6199 227.866L95.8502 229.021L96.2942 226.794C96.3002 226.752 96.2942 226.705 96.2646 226.669C96.235 226.634 96.1936 226.616 96.1522 226.616H95.7496C95.9864 225.728 97.058 221.854 98.5676 219.272C98.9998 219.538 100.421 220.338 101.901 220.397C101.794 221.226 101.297 225.035 100.794 227.653L100.397 227.256C100.367 227.226 100.332 227.214 100.29 227.214C100.279 227.214 100.261 227.214 100.249 227.22C100.196 227.238 100.16 227.279 100.148 227.333L99.8523 228.825V227.949C99.8523 227.872 99.7931 227.807 99.7162 227.801C99.7103 227.801 99.7043 227.801 99.7043 227.801C99.6333 227.801 99.5741 227.848 99.5563 227.919L99.0768 230.442L98.6624 229.092C98.6446 229.033 98.5913 228.991 98.5321 228.985C98.5262 228.985 98.5262 228.985 98.5203 228.985C98.467 228.985 98.4137 229.015 98.39 229.068L97.4842 230.874V229.133V229.133Z" fill="#73D7F9"/>
<path d="M98.6209 219.473C99.1537 219.787 100.403 220.433 101.735 220.534C101.599 221.57 101.161 224.893 100.699 227.345L100.504 227.149C100.444 227.09 100.373 227.06 100.296 227.06C100.267 227.06 100.237 227.066 100.213 227.072C100.107 227.102 100.03 227.191 100.006 227.297L99.9174 227.741C99.87 227.694 99.8049 227.658 99.7339 227.653C99.722 227.653 99.7161 227.653 99.7043 227.653C99.5622 227.653 99.4379 227.753 99.4142 227.895L99.0471 229.832L98.8044 229.05C98.7689 228.932 98.6682 228.855 98.5439 228.843C98.538 228.843 98.5261 228.843 98.5202 228.843C98.4077 228.843 98.3071 228.908 98.2538 229.009L97.6322 230.259V229.133C97.6322 229.009 97.5493 228.896 97.4309 228.855C97.4013 228.843 97.3658 228.837 97.3362 228.837C97.2473 228.837 97.1585 228.879 97.1053 228.95L96.7204 229.441L97.0342 228.014C97.0638 227.878 96.9928 227.735 96.8625 227.676C96.827 227.658 96.7856 227.653 96.7441 227.653C96.6494 227.653 96.5547 227.7 96.4955 227.783L96.1403 228.316L96.4363 226.823C96.454 226.735 96.4303 226.646 96.3771 226.575C96.3238 226.504 96.235 226.468 96.1462 226.468H95.939C96.2527 225.343 97.2533 221.89 98.6209 219.473ZM98.5202 219.065C96.7441 222.026 95.5601 226.764 95.5601 226.764H96.1521L95.5601 229.725L96.7441 227.949L96.1521 230.638L97.3362 229.133V231.502L98.5202 229.133L99.1122 231.052L99.7043 227.949V230.318L100.296 227.356L100.888 227.949C101.48 224.987 102.072 220.249 102.072 220.249C100.296 220.249 98.5202 219.065 98.5202 219.065Z" fill="black"/>
<path d="M97.4842 229.133C97.4842 229.068 97.4428 229.015 97.3836 228.991C97.3658 228.985 97.354 228.985 97.3362 228.985C97.2889 228.985 97.2474 229.003 97.2178 229.044L96.4363 230.039L96.8922 227.978C96.91 227.907 96.8685 227.836 96.8034 227.812C96.7856 227.807 96.7679 227.801 96.7442 227.801C96.6968 227.801 96.6495 227.824 96.6199 227.866L95.8502 229.021L96.2942 226.794C96.3002 226.752 96.2942 226.705 96.2646 226.669C96.235 226.634 96.1936 226.616 96.1522 226.616H95.7496C95.9864 225.728 97.058 221.854 98.5676 219.272C98.9998 219.538 100.421 220.338 101.901 220.397C101.794 221.226 101.297 225.035 100.794 227.653L100.397 227.256C100.367 227.226 100.332 227.214 100.29 227.214C100.279 227.214 100.261 227.214 100.249 227.22C100.196 227.238 100.16 227.279 100.148 227.333L99.8523 228.825V227.949C99.8523 227.872 99.7931 227.807 99.7162 227.801C99.7103 227.801 99.7043 227.801 99.7043 227.801C99.6333 227.801 99.5741 227.848 99.5563 227.919L99.0768 230.442L98.6624 229.092C98.6446 229.033 98.5913 228.991 98.5321 228.985C98.5262 228.985 98.5262 228.985 98.5203 228.985C98.467 228.985 98.4137 229.015 98.39 229.068L97.4842 230.874V229.133V229.133Z" fill="#BBECF9"/>
<path d="M98.6209 219.473C99.1537 219.787 100.403 220.433 101.735 220.534C101.599 221.57 101.161 224.893 100.699 227.345L100.504 227.149C100.444 227.09 100.373 227.06 100.296 227.06C100.267 227.06 100.237 227.066 100.213 227.072C100.107 227.102 100.03 227.191 100.006 227.297L99.9174 227.741C99.87 227.694 99.8049 227.658 99.7339 227.653C99.722 227.653 99.7161 227.653 99.7043 227.653C99.5622 227.653 99.4379 227.753 99.4142 227.895L99.0471 229.832L98.8044 229.05C98.7689 228.932 98.6682 228.855 98.5439 228.843C98.538 228.843 98.5261 228.843 98.5202 228.843C98.4077 228.843 98.3071 228.908 98.2538 229.009L97.6322 230.259V229.133C97.6322 229.009 97.5493 228.896 97.4309 228.855C97.4013 228.843 97.3658 228.837 97.3362 228.837C97.2473 228.837 97.1585 228.879 97.1053 228.95L96.7204 229.441L97.0342 228.014C97.0638 227.878 96.9928 227.735 96.8625 227.676C96.827 227.658 96.7856 227.653 96.7441 227.653C96.6494 227.653 96.5547 227.7 96.4955 227.783L96.1403 228.316L96.4363 226.823C96.454 226.735 96.4303 226.646 96.3771 226.575C96.3238 226.504 96.235 226.468 96.1462 226.468H95.939C96.2527 225.343 97.2533 221.89 98.6209 219.473ZM98.5202 219.065C96.7441 222.026 95.5601 226.764 95.5601 226.764H96.1521L95.5601 229.725L96.7441 227.949L96.1521 230.638L97.3362 229.133V231.502L98.5202 229.133L99.1122 231.052L99.7043 227.949V230.318L100.296 227.356L100.888 227.949C101.48 224.987 102.072 220.249 102.072 220.249C100.296 220.249 98.5202 219.065 98.5202 219.065Z" fill="black"/>
<path d="M88 319.5C88 319.5 91.7853 270.012 98 234" stroke="#BBECF9" stroke-width="0.75" stroke-miterlimit="10" stroke-linejoin="round"/>
<path d="M180.104 83.6531L173.598 86.5081L175.025 89.7624L181.531 86.9075L180.104 83.6531Z" fill="#B2B2B2" stroke="black" stroke-width="0.5" stroke-miterlimit="10"/>
<path d="M180.104 83.7722L173.598 86.6272L175.025 89.8816L181.531 87.0266L180.104 83.7722Z" stroke="black" stroke-width="1.5" stroke-miterlimit="10" stroke-linecap="round" stroke-linejoin="round"/>
<path d="M124 144C124 144 129.447 131.773 134 125" stroke="#BBECF9" stroke-width="0.75" stroke-miterlimit="10" stroke-linejoin="round"/>
<path d="M91 337H84V400H91V337Z" fill="#B2B2B2" stroke="black" stroke-width="0.5" stroke-miterlimit="10"/>
<path d="M91 333H84V337H91V333Z" fill="#DADADA" stroke="black" stroke-width="0.5" stroke-miterlimit="10"/>
<path d="M91 331H84V333H91V331Z" fill="#DADADA" stroke="black" stroke-width="0.5" stroke-miterlimit="10"/>
<path d="M85 338V333.257C85 333.257 84.5766 332.679 84.0007 333.257V337.389C83.9922 337.394 84.0515 337.686 85 338Z" fill="#DADADA" stroke="black" stroke-width="0.5" stroke-miterlimit="10"/>
<path d="M90 338V333.267C90 333.267 90.5384 332.666 90.9998 333.267V337.528C91.0075 337.528 90.7537 337.983 90 338Z" fill="#DADADA" stroke="black" stroke-width="0.5" stroke-miterlimit="10"/>
<path d="M84 331L85.2366 328H89.7634L91 331H84Z" fill="#DADADA" stroke="black" stroke-width="0.5" stroke-miterlimit="10"/>
<path d="M85 328C85 326 87.5 326 87.5 326C87.5 326 90 326 90 328H85Z" fill="#DADADA" stroke="black" stroke-width="0.5" stroke-miterlimit="10"/>
<path d="M86.9927 400L86 401H88L86.9927 400Z" fill="#4D4D4D" stroke="black" stroke-width="0.5" stroke-miterlimit="10" stroke-linecap="round" stroke-linejoin="round"/>
<path d="M84.4964 400L84 401H85L84.4964 400Z" fill="#4D4D4D" stroke="black" stroke-width="0.5" stroke-miterlimit="10" stroke-linecap="round" stroke-linejoin="round"/>
<path d="M90.4982 400L90 401H91L90.4982 400Z" fill="#4D4D4D" stroke="black" stroke-width="0.5" stroke-miterlimit="10" stroke-linecap="round" stroke-linejoin="round"/>
<path d="M84 345H91" stroke="black" stroke-width="0.5" stroke-miterlimit="10" stroke-linecap="round" stroke-linejoin="round"/>
<path d="M84 354H91" stroke="black" stroke-width="0.5" stroke-miterlimit="10" stroke-linecap="round" stroke-linejoin="round"/>
<path d="M84 398H91" stroke="black" stroke-width="0.5" stroke-miterlimit="10" stroke-linecap="round" stroke-linejoin="round"/>
<path d="M83 400H85L84.2763 397.262C84.1829 396.9 83.5603 396.919 83.4903 397.281L83 400Z" fill="#B2B2B2" stroke="black" stroke-width="0.5" stroke-miterlimit="10"/>
<path d="M92 400H90L90.7238 397.262C90.8171 396.9 91.4397 396.919 91.5097 397.281L92 400Z" fill="#B2B2B2" stroke="black" stroke-width="0.5" stroke-miterlimit="10"/>
<path d="M91.0149 337.031L91.2293 336.77V332.277C91.2293 332.277 91.2025 331.975 90.8273 331.975V331.643L89.7014 327.992C89.7014 327.992 89.7014 326.006 87.6374 326C87.6374 326 85.5733 326 85.5733 327.992L84.4475 331.643V331.904C84.4475 331.904 84.0722 331.975 83.9918 332.253V336.622L84.2197 336.93V396.697C84.2197 396.697 83.583 396.151 83.4557 396.75L83 399.34H84.7223L83.9315 401H85.7677L84.8429 399.157H87.6106L86.6992 401H88.5354L87.6843 399.157H90.3246L89.4133 401H91.2494L90.4185 399.34H92L91.5778 396.845C91.5778 396.845 91.5778 396.483 91.0149 396.584V337.031Z" stroke="black" stroke-width="1.5" stroke-miterlimit="10" stroke-linecap="round" stroke-linejoin="round"/>
<path d="M91.0149 337.031L91.2293 336.77V332.277C91.2293 332.277 91.2025 331.975 90.8273 331.975V331.643L89.7014 327.992C89.7014 327.992 89.7014 326.006 87.6374 326C87.6374 326 85.5733 326 85.5733 327.992L84.4475 331.643V331.904C84.4475 331.904 84.0722 331.975 83.9918 332.253V336.622L84.2197 336.93V396.697C84.2197 396.697 83.583 396.151 83.4557 396.75L83 399.34H84.7223L83.9315 401H85.7677L84.8429 399.157H87.6106L86.6992 401H88.5354L87.6843 399.157H90.3246L89.4133 401H91.2494L90.4185 399.34H92L91.5778 396.845C91.5778 396.845 91.5778 396.483 91.0149 396.584V337.031Z" stroke="black" stroke-width="1.5" stroke-miterlimit="10" stroke-linecap="round" stroke-linejoin="round"/>
<path d="M116.425 155.848L98.5715 215.578L104.323 217.298L122.177 157.568L116.425 155.848Z" fill="#B2B2B2" stroke="black" stroke-width="0.5" stroke-miterlimit="10"/>
<path d="M117.706 151.562L116.424 155.852L121.937 157.502L123.22 153.212L117.706 151.562Z" fill="#DADADA" stroke="black" stroke-width="0.5" stroke-miterlimit="10"/>
<path d="M123.468 152.622L118.068 151.006L117.878 151.642L123.278 153.257L123.468 152.622Z" fill="#DADADA" stroke="black" stroke-width="0.5" stroke-miterlimit="10"/>
<path d="M116.507 156L118 151.356C118 151.356 117.889 150.708 117.303 151.161L116.002 155.209C116.002 155.209 115.946 155.507 116.507 156Z" fill="#DADADA" stroke="black" stroke-width="0.5" stroke-miterlimit="10"/>
<path d="M121 157.965L122.317 153.164C122.317 153.164 122.852 152.676 123 153.384L121.814 157.703C121.814 157.709 121.514 158.12 121 157.965Z" fill="#DADADA" stroke="black" stroke-width="0.5" stroke-miterlimit="10"/>
<path d="M118 150.995L119.818 147L123 148.297L122.919 153L118 150.995Z" fill="#DADADA" stroke="black" stroke-width="0.5" stroke-miterlimit="10"/>
<path d="M120 147.16C120.473 145.631 121.925 146.054 121.925 146.054C121.925 146.054 123.378 146.471 122.905 148L120 147.16Z" fill="#DADADA" stroke="black" stroke-width="0.5" stroke-miterlimit="10"/>
<path d="M100.833 217L100 217.766L101 218L100.833 217Z" fill="#4D4D4D" stroke="black" stroke-width="0.5" stroke-miterlimit="10" stroke-linecap="round" stroke-linejoin="round"/>
<path d="M98.8359 216L98 217.537L99 218L98.8359 216Z" fill="#4D4D4D" stroke="black" stroke-width="0.5" stroke-miterlimit="10" stroke-linecap="round" stroke-linejoin="round"/>
<path d="M102.836 217L102 218.533L103 219L102.836 217Z" fill="#4D4D4D" stroke="black" stroke-width="0.5" stroke-miterlimit="10" stroke-linecap="round" stroke-linejoin="round"/>
<path d="M114 163L119 164" stroke="black" stroke-width="0.5" stroke-miterlimit="10" stroke-linecap="round" stroke-linejoin="round"/>
<path d="M111 172L117 174" stroke="black" stroke-width="0.5" stroke-miterlimit="10" stroke-linecap="round" stroke-linejoin="round"/>
<path d="M99 214L104 216" stroke="black" stroke-width="0.5" stroke-miterlimit="10" stroke-linecap="round" stroke-linejoin="round"/>
<path d="M98 215.545L98.8813 216L98.9995 213.34C99.0138 212.99 98.738 212.867 98.6484 213.18L98 215.545Z" fill="#B2B2B2" stroke="black" stroke-width="0.5" stroke-miterlimit="10"/>
<path d="M104.6 218L103 217.538L104.372 215.166C104.554 214.854 105.048 215.016 104.996 215.366L104.6 218Z" fill="#B2B2B2" stroke="black" stroke-width="0.5" stroke-miterlimit="10"/>
<path d="M121.507 157.514L121.756 157.318L122.983 153.005C122.983 153.005 123.04 152.708 122.74 152.613L122.831 152.292L122.916 148.502C122.916 148.502 123.459 146.596 121.79 146.067C121.79 146.067 120.121 145.538 119.578 147.451L117.672 150.671L117.599 150.92C117.599 150.92 117.276 150.89 117.135 151.14L115.941 155.334L116.043 155.69L99.7082 213.078C99.7082 213.078 99.3462 212.395 99.0747 212.935L98 215.305L99.3914 215.745L98.2998 217.135L99.7874 217.604L99.5442 215.596L101.784 216.297L100.545 217.836L102.033 218.305L101.846 216.321L103.979 216.992L102.74 218.531L104.227 219L104.007 217.194L105.285 217.598L105.625 215.097C105.625 215.097 105.721 214.753 105.24 214.705L121.507 157.514Z" stroke="black" stroke-width="1.5" stroke-miterlimit="10" stroke-linecap="round" stroke-linejoin="round"/>
<path d="M121.507 157.514L121.756 157.318L122.983 153.005C122.983 153.005 123.04 152.708 122.74 152.613L122.831 152.292L122.916 148.502C122.916 148.502 123.459 146.596 121.79 146.067C121.79 146.067 120.121 145.538 119.578 147.451L117.672 150.671L117.599 150.92C117.599 150.92 117.276 150.89 117.135 151.14L115.941 155.334L116.043 155.69L99.7082 213.078C99.7082 213.078 99.3462 212.395 99.0747 212.935L98 215.305L99.3914 215.745L98.2998 217.135L99.7874 217.604L99.5442 215.596L101.784 216.297L100.545 217.836L102.033 218.305L101.846 216.321L103.979 216.992L102.74 218.531L104.227 219L104.007 217.194L105.285 217.598L105.625 215.097C105.625 215.097 105.721 214.753 105.24 214.705L121.507 157.514Z" stroke="black" stroke-width="1.5" stroke-miterlimit="10" stroke-linecap="round" stroke-linejoin="round"/>
<path d="M218 44L221 49" stroke="black" stroke-width="0.5" stroke-miterlimit="10"/>
<path d="M221.67 41.2809L217.774 43.4852L220.607 48.496L224.503 46.2917L221.67 41.2809Z" fill="#DADADA" stroke="black" stroke-width="0.5" stroke-miterlimit="10"/>
<path d="M225.125 46.0416L222.35 41.1339L221.773 41.4605L224.547 46.3681L225.125 46.0416Z" fill="#DADADA" stroke="black" stroke-width="0.5" stroke-miterlimit="10"/>
<path d="M209 50.8613L210.773 54L221 49.3107L218.174 44L209 50.8613Z" fill="#DADADA" stroke="black" stroke-width="0.5" stroke-miterlimit="10"/>
<path d="M218.003 44L221.909 41.5954C221.909 41.5954 222.254 41.052 221.601 41L218.194 43.0983C218.199 43.0983 217.971 43.2775 218.003 44Z" fill="#DADADA" stroke="black" stroke-width="0.5" stroke-miterlimit="10"/>
<path d="M220 48.5557L224.499 46C224.499 46 225.279 46.0493 224.892 46.6959L220.841 48.993C220.841 48.9991 220.307 49.073 220 48.5557Z" fill="#DADADA" stroke="black" stroke-width="0.5" stroke-miterlimit="10"/>
<path d="M222 40.9563L226.028 40L228 43.265L225.052 46L222 40.9563Z" fill="#DADADA" stroke="black" stroke-width="0.5" stroke-miterlimit="10"/>
<path d="M208.99 50L207 53.6667L211 54L208.99 50Z" fill="#4D4D4D" stroke="black" stroke-width="0.5" stroke-miterlimit="10" stroke-linecap="round" stroke-linejoin="round"/>
<path d="M227 40.3642C228.208 39.2449 228.837 41.0628 228.837 41.0628C228.837 41.0628 229.466 42.8808 228.254 44L227 40.3642Z" fill="#DADADA" stroke="black" stroke-width="0.5" stroke-miterlimit="10"/>
<path d="M220.807 48.9644L221.126 49L224.946 46.7866C224.946 46.7866 225.189 46.6145 225.027 46.3297L225.311 46.1635L227.933 43.4992C227.933 43.4992 229.623 42.5201 228.749 40.9298C228.749 40.9298 227.875 39.3395 226.179 40.3186L222.596 41.2502L222.376 41.3808C222.376 41.3808 222.156 41.1256 221.884 41.2027L218.168 43.3568L218 43.6831" stroke="black" stroke-width="1.5" stroke-miterlimit="10" stroke-linecap="round" stroke-linejoin="round"/>
<path d="M220.724 49.397L221.046 49.4343L224.905 47.1141C224.905 47.1141 225.15 46.9337 224.987 46.6351L225.273 46.461L227.922 43.668C227.922 43.668 229.629 42.6417 228.747 40.9746C228.747 40.9746 227.864 39.3076 226.15 40.3339L222.531 41.3105L222.309 41.4474C222.309 41.4474 222.086 41.1799 221.812 41.2608L218.058 43.5187L217.888 43.8609L209 50.2678L210.754 54L220.724 49.397Z" stroke="black" stroke-width="1.5" stroke-miterlimit="10" stroke-linecap="round" stroke-linejoin="round"/>
<path d="M207 54L209.206 50L211 54H207Z" stroke="black" stroke-width="1.5" stroke-miterlimit="10" stroke-linecap="round" stroke-linejoin="round"/>
<path d="M207 54L203 54.9551L204.188 57L207 54Z" fill="#4D4D4D" stroke="black" stroke-width="0.5" stroke-miterlimit="10" stroke-linecap="round" stroke-linejoin="round"/>
<path d="M203 54.9L207 54L204.485 57L203 54.9Z" stroke="black" stroke-width="1.5" stroke-miterlimit="10" stroke-linecap="round" stroke-linejoin="round"/>
<path d="M195.116 61.7646C195.152 61.7113 195.146 61.6343 195.098 61.5869C195.069 61.5573 195.027 61.5395 194.992 61.5395C194.968 61.5395 194.945 61.5455 194.927 61.5573L193.429 62.2917L194.483 61.196C194.53 61.1486 194.536 61.0717 194.501 61.0183C194.471 60.971 194.424 60.9473 194.376 60.9473C194.364 60.9473 194.347 60.9473 194.335 60.9532L193.459 61.2138L194.98 60.0648C195.039 60.0233 195.057 59.9404 195.022 59.8753C194.998 59.8279 194.945 59.7983 194.891 59.7983C194.874 59.7983 194.856 59.7983 194.838 59.8101L193.897 60.1596L195.495 58.9158C195.531 58.8921 195.548 58.8507 195.554 58.8092C195.554 58.7677 195.543 58.7263 195.507 58.6967L195.329 58.5249C196.046 58.0215 199.272 55.7827 201.848 54.6633C201.901 55.1371 202.102 56.3158 202.777 57.0679C202.167 57.5951 199.308 60.047 197.23 61.6817L197.283 61.3263C197.289 61.2671 197.265 61.2079 197.212 61.1783C197.188 61.1664 197.165 61.1605 197.135 61.1605C197.105 61.1605 197.07 61.1723 197.046 61.1901L196.318 61.7587L196.525 61.5395C196.579 61.4862 196.579 61.3974 196.531 61.3382C196.502 61.3086 196.46 61.2908 196.419 61.2908C196.389 61.2908 196.354 61.3026 196.33 61.3204L194.518 62.7478L195.116 61.7646Z" fill="#BBECF9"/>
<path d="M158 98.3509C158 98.3509 158.065 98.2741 158.195 98.1323" stroke="#BBECF9" stroke-width="0.75" stroke-linejoin="round" stroke-dasharray="2 2"/>
<path d="M160.232 95.935C166.146 89.5859 182.51 72.422 193.208 64.995" stroke="#BBECF9" stroke-width="0.75" stroke-linejoin="round" stroke-dasharray="2 2"/>
<path d="M194.457 64.1595C194.54 64.1064 194.623 64.0532 194.706 64" stroke="#BBECF9" stroke-width="0.75" stroke-linejoin="round" stroke-dasharray="2 2"/>
<path d="M163 98.0843C163 98.0843 244.266 50.5517 262 186" stroke="#BBECF9" stroke-width="0.75" stroke-miterlimit="10" stroke-linejoin="round"/>
<path d="M248 109.769L250.745 89L251.122 105.269L251.639 101.867L252.005 106.686L253.422 104.938L251.87 111.959L255.206 108.003L253.091 114.835L256.156 112.06L253.141 118.426L255.335 117.498L253.248 120.292L257 117.433C257 117.433 255.611 122.536 250.571 124L248 109.769Z" fill="#BBECF9"/>
<path d="M266.272 179.998C260.398 179.855 255.266 176.255 255.266 176.255H260.451L256.967 172.162L262.384 174.831L257.163 168.366L260.326 169.274L254.595 161.486L259.946 165.045L254 153.775L260.326 162.079C260.326 162.079 257.568 136.574 262.919 117C262.919 117 269.858 137.944 269.656 160.685L273.027 154.368L270.054 164.451L273.027 159.748L271.243 168.01L274.841 162.079L271.838 170.976L274.811 169.197L271.838 174.535L274.841 173.022L271.838 176.907L276 175.128C275.994 175.128 271.416 180.122 266.272 179.998Z" fill="#BBECF9"/>
<path d="M232 38C232 38 253.626 26.8148 268 25" stroke="#BBECF9" stroke-width="0.5" stroke-miterlimit="10" stroke-linejoin="round" stroke-dasharray="1 1"/>
<path d="M244.24 111.376L234 94L239.601 108.556L237.862 105.737L239.277 110.141L237.282 109.12L241.341 114.76L236.702 112.504L241.231 117.766L237.282 116.452L242.5 120.964H240.059L243.08 122.656L238.442 121.528C238.442 121.528 241.642 125.532 247 124.94L244.24 111.376Z" fill="#BBECF9"/>
<path d="M187.704 109.898L190.83 111.562L210 75.6413L207.14 73.9001L187.704 109.898Z" fill="#B2B2B2" stroke="black" stroke-width="0.5" stroke-miterlimit="10"/>
<path d="M190.982 111.516L187.665 109.745L187.144 110.722L190.461 112.493L190.982 111.516Z" fill="#4D4D4D" stroke="black" stroke-width="0.5" stroke-miterlimit="10"/>
<path d="M187.461 110.893L186.597 111.734L189.918 113.505L190.084 112.291L187.461 110.893Z" fill="#4D4D4D" stroke="black" stroke-width="0.5" stroke-miterlimit="10"/>
<path d="M187.635 112.279L187.535 112.467L188.704 113.091L188.804 112.904L187.635 112.279Z" fill="#4D4D4D" stroke="black" stroke-width="0.5" stroke-miterlimit="10"/>
<path d="M190.084 112.291L188.805 112.913L188.799 111.61L187.633 112.285L187.461 110.893L190.084 112.291Z" fill="#4D4D4D" stroke="black" stroke-width="0.5" stroke-miterlimit="10" stroke-linecap="round" stroke-linejoin="round"/>
<path d="M210.219 75.286L190.883 111.468L191.055 111.556L190.451 112.694L190.131 112.522L189.989 113.552L188.876 112.96L188.776 113.15L187.609 112.522L187.71 112.332L186.674 111.781L187.402 111.065L186.999 110.852L187.603 109.714L187.757 109.797L207.359 73.5388L210.219 75.286Z" stroke="black" stroke-width="1.5" stroke-miterlimit="10" stroke-linecap="round" stroke-linejoin="round"/>
<path d="M267.534 316.93C267.516 316.871 267.463 316.83 267.398 316.824H267.392C267.333 316.824 267.279 316.859 267.256 316.919L266.782 318.097L266.634 315.995C266.628 315.924 266.575 315.864 266.504 315.858C266.498 315.858 266.492 315.858 266.486 315.858C266.421 315.858 266.362 315.9 266.344 315.965L265.93 317.292L265.728 315.029C265.722 314.988 265.699 314.946 265.663 314.923C265.639 314.905 265.61 314.899 265.58 314.899C265.568 314.899 265.551 314.899 265.539 314.905L265.19 315.006C265.308 314.017 265.782 309.983 265.835 307.182C266.196 307.277 267.025 307.46 267.96 307.46C268.452 307.46 268.902 307.407 269.31 307.306C269.44 308.129 270.038 311.926 270.287 314.579L269.796 314.313C269.772 314.301 269.748 314.295 269.724 314.295C269.695 314.295 269.665 314.301 269.642 314.319C269.594 314.348 269.571 314.402 269.576 314.455L269.713 315.971L269.464 315.13C269.446 315.065 269.387 315.023 269.322 315.023C269.31 315.023 269.304 315.023 269.292 315.023C269.215 315.035 269.168 315.106 269.174 315.183L269.423 317.736L268.641 316.557C268.611 316.516 268.57 316.492 268.517 316.492C268.505 316.492 268.499 316.492 268.487 316.492C268.428 316.504 268.381 316.551 268.369 316.611L268.014 318.601L267.534 316.93Z" fill="#BBECF9"/>
<path d="M265.983 307.36C266.409 307.46 267.149 307.602 267.966 307.602C268.404 307.602 268.819 307.561 269.192 307.478C269.357 308.508 269.867 311.825 270.115 314.307L269.872 314.171C269.831 314.147 269.778 314.135 269.73 314.135C269.671 314.135 269.618 314.153 269.571 314.182C269.482 314.242 269.428 314.348 269.44 314.455L269.482 314.905C269.44 314.881 269.387 314.864 269.334 314.864C269.316 314.864 269.298 314.864 269.275 314.869C269.127 314.899 269.02 315.035 269.038 315.189L269.227 317.15L268.777 316.469C268.724 316.386 268.629 316.338 268.529 316.338C268.511 316.338 268.487 316.338 268.469 316.344C268.351 316.368 268.262 316.463 268.238 316.581L267.99 317.955L267.676 316.883C267.641 316.765 267.534 316.676 267.404 316.67C267.398 316.67 267.392 316.67 267.392 316.67C267.273 316.67 267.161 316.741 267.12 316.854L266.889 317.428L266.788 315.971C266.776 315.829 266.67 315.716 266.527 315.699C266.516 315.699 266.504 315.699 266.492 315.699C266.362 315.699 266.249 315.782 266.208 315.906L266.018 316.516L265.882 315C265.876 314.911 265.829 314.834 265.752 314.781C265.705 314.745 265.645 314.727 265.586 314.727C265.557 314.727 265.533 314.733 265.503 314.739L265.367 314.781C265.515 313.549 265.918 309.977 265.983 307.36ZM265.693 306.98C265.657 310.196 265.018 315.201 265.018 315.201L265.586 315.035L265.853 318.044L266.486 316.007L266.676 318.755L267.386 316.978L268.055 319.252L268.523 316.646L269.63 318.322L269.322 315.177L269.991 317.452L269.724 314.443L270.459 314.846C270.192 311.837 269.428 307.123 269.428 307.123C268.949 307.265 268.44 307.312 267.96 307.312C266.747 307.306 265.693 306.98 265.693 306.98Z" fill="black"/>
<path d="M87.5162 410.95C87.4984 410.891 87.4451 410.849 87.38 410.843H87.3741C87.3149 410.843 87.2616 410.879 87.2379 410.938L86.7643 412.117L86.6163 410.014C86.6104 409.943 86.5571 409.884 86.486 409.878C86.4801 409.878 86.4742 409.878 86.4683 409.878C86.4032 409.878 86.3439 409.919 86.3262 409.985L85.9118 411.311L85.7105 409.049C85.7046 409.007 85.6809 408.966 85.6454 408.942C85.6217 408.924 85.5921 408.919 85.5625 408.919C85.5506 408.919 85.5329 408.919 85.521 408.924L85.1718 409.025C85.2902 408.036 85.7638 404.003 85.817 401.201C86.1782 401.296 87.007 401.48 87.9425 401.48C88.4338 401.48 88.8838 401.426 89.2923 401.326C89.4225 402.149 90.0205 405.945 90.2691 408.599L89.7777 408.332C89.7541 408.32 89.7304 408.314 89.7067 408.314C89.6771 408.314 89.6475 408.32 89.6238 408.338C89.5764 408.368 89.5528 408.421 89.5587 408.474L89.6948 409.991L89.4462 409.15C89.4284 409.084 89.3692 409.043 89.3041 409.043C89.2923 409.043 89.2864 409.043 89.2745 409.043C89.1976 409.055 89.1502 409.126 89.1561 409.203L89.4048 411.755L88.6233 410.577C88.5937 410.535 88.5523 410.512 88.499 410.512C88.4871 410.512 88.4812 410.512 88.4694 410.512C88.4102 410.524 88.3628 410.571 88.351 410.63L87.9957 412.62L87.5162 410.95Z" fill="#BBECF9"/>
<path d="M85.965 401.379C86.3913 401.48 87.1313 401.622 87.9483 401.622C88.3864 401.622 88.8008 401.58 89.1738 401.497C89.3396 402.528 89.8488 405.845 90.0974 408.326L89.8547 408.19C89.8132 408.166 89.7599 408.155 89.7126 408.155C89.6534 408.155 89.6001 408.172 89.5527 408.202C89.4639 408.261 89.4107 408.368 89.4225 408.474L89.4639 408.925C89.4225 408.901 89.3692 408.883 89.3159 408.883C89.2982 408.883 89.2804 408.883 89.2567 408.889C89.1087 408.919 89.0022 409.055 89.0199 409.209L89.2094 411.169L88.7594 410.488C88.7061 410.405 88.6114 410.358 88.5107 410.358C88.493 410.358 88.4693 410.358 88.4516 410.364C88.3331 410.387 88.2443 410.482 88.2207 410.601L87.972 411.975L87.6582 410.903C87.6227 410.784 87.5162 410.695 87.3859 410.689C87.38 410.689 87.3741 410.689 87.3741 410.689C87.2556 410.689 87.1431 410.761 87.1017 410.873L86.8708 411.448L86.7702 409.991C86.7583 409.848 86.6518 409.736 86.5097 409.718C86.4978 409.718 86.486 409.718 86.4742 409.718C86.3439 409.718 86.2314 409.801 86.19 409.925L86.0005 410.535L85.8644 409.019C85.8585 408.93 85.8111 408.853 85.7341 408.8C85.6868 408.765 85.6276 408.747 85.5684 408.747C85.5388 408.747 85.5151 408.753 85.4855 408.759L85.3493 408.8C85.4973 407.568 85.8999 403.997 85.965 401.379ZM85.6749 401C85.6394 404.216 85 409.221 85 409.221L85.5684 409.055L85.8348 412.064L86.4683 410.026L86.6577 412.774L87.3681 410.997L88.0371 413.272L88.5049 410.666L89.612 412.342L89.3041 409.197L89.9731 411.471L89.7067 408.463L90.4408 408.865C90.1744 405.857 89.4106 401.142 89.4106 401.142C88.9311 401.284 88.422 401.332 87.9424 401.332C86.7288 401.326 85.6749 401 85.6749 401Z" fill="black"/>
<path d="M246.623 124.036L250.098 123.343L242.171 83.4001L238.855 83.868L246.623 124.036Z" fill="#B2B2B2" stroke="black" stroke-width="0.5" stroke-miterlimit="10"/>
<path d="M250.166 123.197L246.479 123.93L246.695 125.016L250.382 124.284L250.166 123.197Z" fill="#4D4D4D" stroke="black" stroke-width="0.5" stroke-miterlimit="10"/>
<path d="M247.067 124.96L246.931 126.156L250.619 125.421L249.98 124.385L247.067 124.96Z" fill="#4D4D4D" stroke="black" stroke-width="0.5" stroke-miterlimit="10"/>
<path d="M249.371 125.652L248.07 125.911L248.112 126.12L249.412 125.861L249.371 125.652Z" fill="#4D4D4D" stroke="black" stroke-width="0.5" stroke-miterlimit="10"/>
<path d="M249.98 124.385L249.382 125.67L248.553 124.663L248.085 125.931L247.067 124.96L249.98 124.385Z" fill="#4D4D4D" stroke="black" stroke-width="0.5" stroke-miterlimit="10" stroke-linecap="round" stroke-linejoin="round"/>
<path d="M242.112 82.9856L250.074 123.236L250.27 123.195L250.518 124.456L250.163 124.527L250.708 125.416L249.471 125.658L249.512 125.872L248.21 126.126L248.168 125.919L247.02 126.15L247.132 125.131L246.682 125.22L246.433 123.959L246.599 123.923L238.796 83.4535L242.112 82.9856Z" stroke="black" stroke-width="1.5" stroke-miterlimit="10" stroke-linecap="round" stroke-linejoin="round"/>
<path d="M263.857 180.642L267.391 180.44L265.071 139.787H261.726L263.857 180.642Z" fill="#B2B2B2" stroke="black" stroke-width="0.5" stroke-miterlimit="10"/>
<path d="M267.497 180.338L263.744 180.552L263.807 181.658L267.56 181.444L267.497 180.338Z" fill="#4D4D4D" stroke="black" stroke-width="0.5" stroke-miterlimit="10"/>
<path d="M264.165 181.625L263.869 182.786L267.622 182.572L267.131 181.453L264.165 181.625Z" fill="#4D4D4D" stroke="black" stroke-width="0.5" stroke-miterlimit="10"/>
<path d="M266.37 182.663L265.046 182.739L265.058 182.951L266.382 182.875L266.37 182.663Z" fill="#4D4D4D" stroke="black" stroke-width="0.5" stroke-miterlimit="10"/>
<path d="M267.131 181.453L266.361 182.643L265.68 181.536L265.041 182.72L264.165 181.625L267.131 181.453Z" fill="#4D4D4D" stroke="black" stroke-width="0.5" stroke-miterlimit="10" stroke-linecap="round" stroke-linejoin="round"/>
<path d="M265.071 139.367L267.386 180.328L267.581 180.316L267.652 181.601L267.291 181.625L267.711 182.578L266.45 182.649L266.462 182.863L265.136 182.94L265.124 182.72L263.952 182.792L264.206 181.797L263.75 181.826L263.674 180.541L263.851 180.529L261.726 139.367H265.071Z" stroke="black" stroke-width="1.5" stroke-miterlimit="10" stroke-linecap="round" stroke-linejoin="round"/>
<path d="M272 269H263V270H272V269Z" stroke="black" stroke-width="1.5" stroke-miterlimit="10" stroke-linecap="round" stroke-linejoin="round"/>
<path d="M266.302 242.364L269.843 242.234L268.356 201.545L265.006 201.474L266.302 242.364Z" fill="#B2B2B2" stroke="black" stroke-width="0.5" stroke-miterlimit="10"/>
<path d="M269.942 242.105L266.186 242.243L266.226 243.349L269.983 243.212L269.942 242.105Z" fill="#4D4D4D" stroke="black" stroke-width="0.5" stroke-miterlimit="10"/>
<path d="M266.592 243.353L266.273 244.514L270.032 244.372L269.564 243.241L266.592 243.353Z" fill="#4D4D4D" stroke="black" stroke-width="0.5" stroke-miterlimit="10"/>
<path d="M268.764 244.4L267.438 244.448L267.446 244.661L268.771 244.612L268.764 244.4Z" fill="#4D4D4D" stroke="black" stroke-width="0.5" stroke-miterlimit="10"/>
<path d="M269.564 243.241L268.771 244.419L268.108 243.294L267.445 244.467L266.592 243.353L269.564 243.241Z" fill="#4D4D4D" stroke="black" stroke-width="0.5" stroke-miterlimit="10" stroke-linecap="round" stroke-linejoin="round"/>
<path d="M268.362 201.125L269.837 242.127L270.032 242.121L270.079 243.401L269.718 243.418L270.115 244.378L268.854 244.425L268.86 244.638L267.54 244.686L267.528 244.473L266.355 244.514L266.628 243.531L266.172 243.543L266.125 242.263L266.296 242.258L265.017 201.054L268.362 201.125Z" stroke="black" stroke-width="1.5" stroke-miterlimit="10" stroke-linecap="round" stroke-linejoin="round"/>
<path d="M265.924 306.536L269.47 306.548L269.606 265.83L266.261 265.628L265.924 306.536Z" fill="#B2B2B2" stroke="black" stroke-width="0.5" stroke-miterlimit="10"/>
<path d="M269.58 306.437L265.821 306.425L265.817 307.533L269.577 307.545L269.58 306.437Z" fill="#4D4D4D" stroke="black" stroke-width="0.5" stroke-miterlimit="10"/>
<path d="M266.178 307.531L265.811 308.68L269.571 308.692L269.15 307.543L266.178 307.531Z" fill="#4D4D4D" stroke="black" stroke-width="0.5" stroke-miterlimit="10"/>
<path d="M266.985 308.681L266.984 308.894L268.31 308.899L268.311 308.686L266.985 308.681Z" fill="#4D4D4D" stroke="black" stroke-width="0.5" stroke-miterlimit="10"/>
<path d="M269.15 307.543L268.31 308.686L267.694 307.537L266.983 308.68L266.178 307.531L269.15 307.543Z" fill="#4D4D4D" stroke="black" stroke-width="0.5" stroke-miterlimit="10" stroke-linecap="round" stroke-linejoin="round"/>
<path d="M269.63 265.409L269.47 306.435H269.665L269.659 307.721H269.298L269.659 308.698L268.392 308.692V308.911L267.066 308.905V308.692L265.894 308.686L266.208 307.709H265.746L265.752 306.424H265.93L266.291 265.208L269.63 265.409Z" stroke="black" stroke-width="1.5" stroke-miterlimit="10" stroke-linecap="round" stroke-linejoin="round"/>
<path d="M268 250V260" stroke="#BBECF9" stroke-width="0.75" stroke-miterlimit="10" stroke-linejoin="round"/>
<path d="M266 198L264 189" stroke="black" stroke-width="0.5" stroke-miterlimit="10" stroke-linecap="round" stroke-linejoin="round"/>
<path d="M267 198V184" stroke="black" stroke-width="0.5" stroke-miterlimit="10" stroke-linecap="round" stroke-linejoin="round"/>
<path d="M269 198V189" stroke="black" stroke-width="0.5" stroke-miterlimit="10" stroke-linecap="round" stroke-linejoin="round"/>
<path d="M285 9.33266L288.13 8L290 11.0151L287.894 14L285 9.33266Z" fill="#DADADA" stroke="black" stroke-width="0.5" stroke-miterlimit="10"/>
<path d="M271.583 23L270 26L274 25.9273L271.583 23Z" fill="#4D4D4D" stroke="black" stroke-width="0.5" stroke-miterlimit="10" stroke-linecap="round" stroke-linejoin="round"/>
<path d="M270 27L271.823 23L274 26.5528L270 27Z" stroke="black" stroke-width="1.5" stroke-miterlimit="10" stroke-linecap="round" stroke-linejoin="round"/>
<path d="M270 27L267 28.6181L268.115 31L270 27Z" fill="#4D4D4D" stroke="black" stroke-width="0.5" stroke-miterlimit="10" stroke-linecap="round" stroke-linejoin="round"/>
<path d="M277.78 16H280L277.487 1C277.487 1 273.954 4.65666 277.78 16Z" fill="#DADADA" stroke="black" stroke-width="0.5" stroke-miterlimit="10"/>
<path d="M267 28.603L270 27L268.324 31L267 28.603Z" stroke="black" stroke-width="1.5" stroke-miterlimit="10" stroke-linecap="round" stroke-linejoin="round"/>
<path d="M277.782 16H280L277.49 1C277.484 1 273.954 4.65666 277.782 16Z" stroke="black" stroke-width="1.5" stroke-miterlimit="10" stroke-linecap="round" stroke-linejoin="round"/>
<path d="M281.432 19.5896L281 17.323L296 17C296 17 293.155 21.324 281.432 19.5896Z" fill="#DADADA" stroke="black" stroke-width="0.5" stroke-miterlimit="10"/>
<path d="M281.432 19.5918L281 17.3232L296 17C296 16.994 293.15 21.3216 281.432 19.5918Z" stroke="black" stroke-width="1.5" stroke-miterlimit="10" stroke-linecap="round" stroke-linejoin="round"/>
<path d="M277.693 16L281 19.0829L273.831 26L272.5 23L277.693 16Z" fill="#DADADA" stroke="black" stroke-width="0.5" stroke-miterlimit="10"/>
<path d="M278.027 17L281 20.0829L274.55 27L272 23.3942L278.027 17Z" stroke="black" stroke-width="1.5" stroke-miterlimit="10" stroke-linecap="round" stroke-linejoin="round"/>
<path d="M285 9.33735L288.124 8L290 11.0181L287.894 14L285 9.33735Z" stroke="black" stroke-width="1.5" stroke-miterlimit="10" stroke-linecap="round" stroke-linejoin="round"/>
<text fill="white" xml:space="preserve" style="white-space: pre" font-family="Assistant" font-size="11" font-weight="bold" letter-spacing="0em"><tspan x="26.043" y="149.037">PRIMERA ETAPA</tspan></text>
<text fill="white" xml:space="preserve" style="white-space: pre" font-family="Assistant" font-size="11" font-weight="bold" letter-spacing="0em"><tspan x="13.208" y="292.037">LANZAMIENTO</tspan></text>
<text fill="white" xml:space="preserve" style="white-space: pre" font-family="Assistant" font-size="11" font-weight="bold" letter-spacing="0em"><tspan x="64.8955" y="88.037">SEGUNDA ETAPA</tspan></text>
<text fill="white" xml:space="preserve" style="white-space: pre" font-family="Assistant" font-size="11" font-weight="bold" letter-spacing="0em"><tspan x="138.815" y="41.037">PROPULSI&#xd3;N</tspan></text>
<text fill="white" xml:space="preserve" style="white-space: pre" font-family="Assistant" font-size="11" font-weight="bold" letter-spacing="0em"><tspan x="285" y="38.037">LANZAMIENTO</tspan></text>
<text fill="white" xml:space="preserve" style="white-space: pre" font-family="Assistant" font-size="9" letter-spacing="0em"><tspan x="54.6338" y="161.303">3 minutos de </tspan><tspan x="30.5957" y="173.303">m&#xe1;xima propulsi&#xf3;n</tspan></text>
<text fill="white" xml:space="preserve" style="white-space: pre" font-family="Assistant" font-size="9" letter-spacing="0em"><tspan x="65.0566" y="100.303">Separaci&#xf3;n de partes</tspan></text>
<text fill="white" xml:space="preserve" style="white-space: pre" font-family="Assistant" font-size="11" font-weight="bold" letter-spacing="0em"><tspan x="284" y="91.037">TERCERA ETAPA</tspan></text>
<text fill="white" xml:space="preserve" style="white-space: pre" font-family="Assistant" font-size="9" letter-spacing="0em"><tspan x="284" y="104.303">El cuerpo principal </tspan><tspan x="284" y="116.303">vuelve a la tierra</tspan></text>
<text fill="white" xml:space="preserve" style="white-space: pre" font-family="Assistant" font-size="9" letter-spacing="0em"><tspan x="285" y="50.303">Colocaci&#xf3;n del material </tspan><tspan x="285" y="62.303">transportado</tspan></text>
<text fill="white" xml:space="preserve" style="white-space: pre" font-family="Assistant" font-size="11" font-weight="bold" letter-spacing="0em"><tspan x="284" y="147.037">CUARTA ETAPA</tspan></text>
<text fill="white" xml:space="preserve" style="white-space: pre" font-family="Assistant" font-size="9" letter-spacing="0em"><tspan x="284" y="160.303">Entrada a la atm&#xf3;sfera</tspan></text>
<text fill="white" xml:space="preserve" style="white-space: pre" font-family="Assistant" font-size="11" font-weight="bold" letter-spacing="0em"><tspan x="284" y="211.037">QUINTA ETAPA</tspan></text>
<text fill="white" xml:space="preserve" style="white-space: pre" font-family="Assistant" font-size="9" letter-spacing="0em"><tspan x="284" y="224.303">Ca&#xed;da libre</tspan></text>
<text fill="white" xml:space="preserve" style="white-space: pre" font-family="Assistant" font-size="11" font-weight="bold" letter-spacing="0em"><tspan x="284" y="252.037">SEXTA ETAPA</tspan></text>
<text fill="white" xml:space="preserve" style="white-space: pre" font-family="Assistant" font-size="9" letter-spacing="0em"><tspan x="284" y="265.303">Motores encedidos y </tspan><tspan x="284" y="277.303">control de trayectoria</tspan></text>
<text fill="#BBECF9" xml:space="preserve" style="white-space: pre" font-family="Assistant" font-size="11" font-weight="bold" letter-spacing="0em"><tspan x="283" y="304.037">S&#xc9;PTIMA ETAPA</tspan></text>
<text fill="white" xml:space="preserve" style="white-space: pre" font-family="Assistant" font-size="9" letter-spacing="0em"><tspan x="283" y="317.303">Despliegue de patas </tspan><tspan x="283" y="329.303">y aterrizaje</tspan></text>
<path d="M136.576 120.654L139.217 123.011L166.308 92.6158L163.94 90.2467L136.576 120.654Z" fill="#B2B2B2" stroke="black" stroke-width="0.5" stroke-miterlimit="10"/>
<path d="M139.389 122.997L136.583 120.494L135.846 121.321L138.653 123.824L139.389 122.997Z" fill="#4D4D4D" stroke="black" stroke-width="0.5" stroke-miterlimit="10"/>
<path d="M136.102 121.566L135.066 122.176L137.879 124.681L138.323 123.544L136.102 121.566Z" fill="#4D4D4D" stroke="black" stroke-width="0.5" stroke-miterlimit="10"/>
<path d="M135.941 122.943L135.799 123.103L136.789 123.985L136.931 123.826L135.941 122.943Z" fill="#4D4D4D" stroke="black" stroke-width="0.5" stroke-miterlimit="10"/>
<path d="M138.323 123.544L136.937 123.84L137.233 122.573L135.943 122.958L136.102 121.566L138.323 123.544Z" fill="#4D4D4D" stroke="black" stroke-width="0.5" stroke-miterlimit="10" stroke-linecap="round" stroke-linejoin="round"/>
<path d="M166.604 92.3196L139.294 122.928L139.442 123.058L138.583 124.018L138.317 123.775L137.938 124.746L136.996 123.905L136.848 124.065L135.86 123.183L136.002 123.023L135.126 122.241L136.008 121.72L135.664 121.412L136.517 120.452L136.647 120.571L164.236 89.9506L166.604 92.3196Z" stroke="black" stroke-width="1.5" stroke-miterlimit="10" stroke-linecap="round" stroke-linejoin="round"/>
<text fill="white" xml:space="preserve" style="white-space: pre" font-family="Assistant" font-size="7" letter-spacing="0em"><tspan x="170" y="191.069">ATM&#xd3;SFERA</tspan></text>
<circle cx="88" cy="420" r="2" fill="white"/>
<circle cx="98.5" cy="414.5" r="5.15" stroke="#BBECF9" stroke-width="0.7" stroke-dasharray="2 2"/>
<text fill="white" xml:space="preserve" style="white-space: pre" font-family="Assistant" font-size="9" font-weight="bold" letter-spacing="0em"><tspan x="10.8633" y="469.86">CABO CA&#xd1;AVERAL</tspan></text>
<text fill="white" xml:space="preserve" style="white-space: pre" font-family="Assistant" font-size="9" letter-spacing="0em"><tspan x="23.2383" y="457.86">Florida, E.E.U.U&#10;</tspan></text>
<text fill="white" xml:space="preserve" style="white-space: pre" font-family="Assistant" font-size="9" font-weight="bold" letter-spacing="0em"><tspan x="283" y="470.303">PLATAFORMA FLOTANTE</tspan></text>
<text fill="white" xml:space="preserve" style="white-space: pre" font-family="Assistant" font-size="9" letter-spacing="0em"><tspan x="283" y="458.303">Puerto Ca&#xf1;averal&#10;</tspan></text>
<path d="M380 477.5H280.5L257.5 441" stroke="#BBECF9" stroke-width="0.660377"/>
<text fill="#BBECF9" xml:space="preserve" style="white-space: pre" font-family="Assistant" font-size="7" font-weight="600" letter-spacing="0em"><tspan x="270" y="411.069">91m</tspan></text>
<text fill="#BBECF9" xml:space="preserve" style="white-space: pre" font-family="Assistant" font-size="7" font-weight="600" letter-spacing="0em"><tspan x="218" y="403.069">52m</tspan></text>
<path d="M266.971 342.749V349.953" stroke="white" stroke-opacity="0.51" stroke-width="1.0291" stroke-miterlimit="10" stroke-linecap="round" stroke-linejoin="round"/>
<path d="M229.953 383.724V386.876L232.204 385.975L229.953 383.724Z" fill="#DADADA" stroke="black" stroke-width="0.356964" stroke-miterlimit="10" stroke-linecap="round" stroke-linejoin="round"/>
<path d="M225 387.326L231.754 385.975L229.953 383.724L290.29 372.917L292.091 375.168L295.693 374.268L306.5 388.677L301.547 389.577L303.798 392.729L243.345 403.722L241.154 400.753L235.356 402.185L225 387.326Z" fill="#DADADA" stroke="black" stroke-width="0.356964" stroke-miterlimit="10" stroke-linecap="round" stroke-linejoin="round"/>
<path d="M235.308 401.284L235.356 404.887L225 390.478V387.326L235.308 401.284Z" fill="#DADADA" stroke="black" stroke-width="0.356964" stroke-miterlimit="10" stroke-linecap="round" stroke-linejoin="round"/>
<path d="M243.933 403.487V406.89L241.469 403.487V400.229L243.933 403.487Z" fill="#DADADA" stroke="black" stroke-width="0.356964" stroke-miterlimit="10" stroke-linecap="round" stroke-linejoin="round"/>
<path d="M235.356 404.887L241.469 403.585V400.194L235.308 401.362L235.356 404.887Z" fill="#DADADA" stroke="black" stroke-width="0.356964" stroke-miterlimit="10" stroke-linecap="round" stroke-linejoin="round"/>
<path d="M303.798 392.729V396.331L243.933 406.89V403.292L303.798 392.729Z" fill="#DADADA" stroke="black" stroke-width="0.356964" stroke-miterlimit="10" stroke-linecap="round" stroke-linejoin="round"/>
<path d="M306.5 392.279V388.677L301.547 389.577L303.798 392.729L306.5 392.279Z" fill="#DADADA" stroke="black" stroke-width="0.356964" stroke-miterlimit="10" stroke-linecap="round" stroke-linejoin="round"/>
<path d="M267.036 395.8C275.373 395.8 282.131 392.352 282.131 388.099C282.131 383.846 275.373 380.398 267.036 380.398C258.7 380.398 251.942 383.846 251.942 388.099C251.942 392.352 258.7 395.8 267.036 395.8Z" stroke="black" stroke-width="0.356964" stroke-miterlimit="10" stroke-linecap="round" stroke-linejoin="round"/>
<path d="M267 393C273.075 393 278 390.538 278 387.5C278 384.462 273.075 382 267 382C260.925 382 256 384.462 256 387.5C256 390.538 260.925 393 267 393Z" stroke="black" stroke-width="0.356964" stroke-miterlimit="10" stroke-linecap="round" stroke-linejoin="round" stroke-dasharray="0.71 0.71"/>
<path d="M265.048 379.221L255.169 389.127L265.075 383.79" fill="#B2B2B2"/>
<path d="M265.048 379.221L255.169 389.127L265.075 383.79" stroke="black" stroke-width="0.643287" stroke-miterlimit="10" stroke-linecap="round" stroke-linejoin="round"/>
<path d="M268.677 379.221L278.583 389.127L268.771 383.856" fill="#B2B2B2"/>
<path d="M268.677 379.221L278.583 389.127L268.771 383.856" stroke="black" stroke-width="0.643287" stroke-miterlimit="10" stroke-linecap="round" stroke-linejoin="round"/>
<path d="M264.751 383.754L268.712 383.814V338H264.751V383.754Z" fill="#B2B2B2" stroke="black" stroke-width="0.559388" stroke-miterlimit="10"/>
<path d="M268.861 383.676L264.656 383.616L264.638 384.855L268.843 384.915L268.861 383.676Z" fill="#4D4D4D" stroke="black" stroke-width="0.559388" stroke-miterlimit="10"/>
<path d="M265.022 384.874L264.592 386.153L268.804 386.213L268.347 384.921L265.022 384.874Z" fill="#4D4D4D" stroke="black" stroke-width="0.559388" stroke-miterlimit="10"/>
<path d="M265.89 386.154L265.887 386.392L267.371 386.413L267.374 386.175L265.89 386.154Z" fill="#4D4D4D" stroke="black" stroke-width="0.559388" stroke-miterlimit="10"/>
<path d="M268.347 384.921L267.394 386.193L266.718 384.901L265.91 386.173L265.022 384.874L268.347 384.921Z" fill="#4D4D4D" stroke="black" stroke-width="0.241233" stroke-miterlimit="10" stroke-linecap="round" stroke-linejoin="round"/>
<path d="M268.718 383.688V338H264.757V383.635L264.559 383.629L264.539 385.066L265.055 385.073L264.691 386.16L266.003 386.18V386.418L267.486 386.445V386.199L268.897 386.219L268.506 385.126L268.917 385.133L268.937 383.695L268.718 383.688Z" stroke="black" stroke-width="0.562876" stroke-miterlimit="10" stroke-linecap="round" stroke-linejoin="round"/>
<path d="M318 390C318 418.719 294.719 442 266 442C237.281 442 214 418.719 214 390C214 361.281 237.281 338 266 338C294.719 338 318 361.281 318 390Z" stroke="#BBECF9" stroke-width="2"/>
<path d="M88 420.5V478H8" stroke="white" stroke-width="0.5"/>
<path d="M98.5 409.5L230 353.5" stroke="#BBECF9" stroke-width="0.7" stroke-dasharray="2 2"/>
<path d="M99.5 419.5L239.5 435" stroke="#BBECF9" stroke-width="0.7" stroke-dasharray="2 2"/>
</svg>
