<svg width="391" height="320" viewBox="0 0 391 320" fill="none" xmlns="http://www.w3.org/2000/svg">
<g clip-path="url(#clip0_25_7)">
<g filter="url(#filter0_d_25_7)">
<path d="M204.163 300.043L194.521 297.102V118.735L191.63 118.1L190.007 106.63L197.869 105.881V102.262L192.443 102.056V89.6858H190.273V86.5552H197.869V83.9509H196.784V76.431C196.784 76.431 189.741 77.2882 190.007 77.2285V68.1189L197.869 67.0121V62.4165L190.414 62.6878V61.3151L197.869 60.2354V52.6233L190.517 52.8945V51.511L197.869 50.4422V43.7903L196.513 44.0725V40.421C196.513 40.421 200.582 39.2057 202.752 38.9018V35.9883H205.291V11.7465H206.5V2.09808e-05L210 0V11.7465H211.053V35.9883H214.146V38.9073C214.146 38.9073 218.638 39.6777 219.919 40.4373V44.067L219.029 43.812V50.3445L226.321 51.5056V53.1658L219.029 52.6124V60.1595L226.218 61.3097V62.97L219.029 62.422V67.1803L225.811 68.1189V78.1075C225.811 78.1075 221.199 76.5666 220.114 76.6046V83.9455H219.029V86.5498H226.082V89.6804H223.739V102.051L219.029 102.3V106.131L225.811 106.625L224.428 118.094L221.742 118.751V297.173L204.163 300.043Z" fill="#D9D9D9" fill-opacity="0.4"/>
</g>
<text fill="white" xml:space="preserve" style="white-space: pre" font-family="Assistant" font-size="15" font-weight="bold" letter-spacing="0em"><tspan x="248.868" y="37.505">TORRE ENTEL</tspan></text>
<path d="M218.5 41.5H340.5" stroke="#BBECF9"/>
<circle r="1.5" transform="matrix(-1 0 0 1 218.5 41.5)" fill="white"/>
<path d="M171.176 292.15L178.908 276.959L178.571 162.749L177.144 153.39L178.539 147.829V138.062H182.744V139.69H185.863V138.062H193.73V139.69H196.443C196.308 139.148 196.118 138.062 196.443 138.062H200.241L200.377 147.829C200.599 149.717 201.006 151.583 201.598 153.39L200.241 162.206V276.959L208.244 292.15V299.611L206.752 300.018L201.326 297.034L201.435 298.932H199.943L201.435 301.103H177.665L178.75 298.932H177.529L177.643 297.034L173.732 300.018L171.154 299.611L171.176 292.15Z" fill="#B2B2B2"/>
<path d="M166.016 123.956L178.495 90.588C178.463 79.3461 178.495 60.1556 178.756 47.7255L170.221 45.6909V39.8529L185.223 18.9642C186.91 15.1174 188.592 12.1821 189.753 12.1821C190.915 12.1821 192.797 15.1011 194.599 18.9642L209.014 39.8529V46.0924L200.333 47.7201C200.534 58.8752 200.719 75.5753 200.719 90.5826L212.926 123.95V136.022L204.11 138.057H196.677V139.685H193.692V138.057H185.825V139.685H182.706V138.057H174.703L166.022 136.022L166.016 123.956Z" fill="#DADADA"/>
<path d="M178.501 90.588L166.022 123.956V136.028L174.703 138.062M178.501 90.588C178.468 79.3461 178.501 60.1556 178.761 47.7255M178.501 90.588L181.078 133.179L178.501 138.062M178.501 90.588L174.703 138.062M200.746 90.588L212.953 123.956V136.028L204.137 138.062M200.746 90.588C200.746 75.5753 200.561 58.8752 200.361 47.7255M200.746 90.588L198.44 133.179L200.203 138.062M200.746 90.588L204.137 138.062M174.703 138.062H178.501M178.501 138.062H182.841M178.501 138.062V147.693M178.88 276.959L171.149 292.15V299.611L173.726 300.018L177.638 297.033M178.88 276.959L177.638 297.033M178.88 276.959L178.55 164.105M200.176 276.959L208.179 292.15V299.611L206.687 300.018L201.261 297.033M200.176 276.959L201.261 297.033M200.176 276.959V164.105M200.176 138.062H204.11M200.176 138.062H196.481M200.176 138.062L200.22 147.693M185.228 18.9642C182.559 25.0463 179.895 33.4018 179.315 36.0549C179.065 37.1943 178.886 41.6542 178.772 47.72M185.239 18.9642C186.927 15.1174 188.609 12.1821 189.77 12.1821C190.931 12.1821 192.814 15.1011 194.615 18.9642M185.239 18.9642L170.237 39.8529V45.6854L178.772 47.72M194.615 18.9642C197.328 24.7479 199.916 32.6422 200.078 36.0549C200.165 37.9539 200.274 42.1479 200.371 47.72M194.615 18.9642L209.031 39.8529V46.0924L200.35 47.72M177.665 297.033L177.551 298.932H178.772M201.315 297.033L201.424 298.932H199.932M178.772 298.932L177.687 301.103H201.446L199.954 298.932M178.794 298.932H180.286M199.954 298.932H199.14M182.863 138.062C183.118 131.036 184.805 125.269 185.684 123.142V138.062M182.863 138.062C182.863 138.643 182.863 139.229 182.863 139.826H185.711V138.062M185.711 138.062H193.714M193.714 138.062V139.826H196.563C196.563 139.229 196.563 138.643 196.53 138.062M193.714 138.062V123.142C194.588 125.269 196.275 131.036 196.53 138.062M178.539 147.693H181.631L183.937 155.967L181.631 164.105H178.588M178.539 147.693L177.155 153.39L178.588 164.105M200.241 147.693H197.154L194.848 155.967L197.154 164.105H200.198M200.241 147.693L201.63 153.39L200.198 164.105M186.091 298.932L185.684 276.28L180.259 292.693V298.932M186.091 298.932L180.259 300.018V298.932M186.091 298.932H193.009M193.009 298.932L199.113 300.018V298.932M193.009 298.932L193.416 276.145L199.113 292.693V298.932M182.564 30.7649H197.078C195.673 25.7462 192.249 15.7359 189.753 15.8444C187.258 15.9529 183.926 25.8385 182.57 30.7649H182.564Z" stroke="#010101" stroke-width="0.5"/>
<path d="M166.016 123.956L178.495 90.588C178.463 79.3461 178.495 60.1556 178.756 47.7255L170.221 45.6909V39.8529L185.223 18.9642C186.91 15.1174 188.592 12.1821 189.753 12.1821C190.915 12.1821 192.797 15.1011 194.599 18.9642L209.014 39.8529V46.0924L200.333 47.72C200.534 58.8752 200.719 75.5753 200.719 90.5826L212.926 123.95V136.022L204.11 138.057H200.176V276.953L208.179 292.145V299.605L206.687 300.012L201.261 297.028L201.37 298.927H199.878L201.37 301.097H177.665L178.75 298.927H177.529L177.643 297.028L173.732 300.012L171.154 299.605V292.15L178.886 276.959L178.479 138.062H174.681L166 136.028L166.016 123.956Z" stroke="#010101" stroke-width="1.5"/>
<text fill="white" xml:space="preserve" style="white-space: pre" font-family="Assistant" font-size="10" letter-spacing="0em"><tspan x="58" y="226.17">Propulsor de lanzamiento </tspan><tspan x="58" y="239.17">potenciado por 33 </tspan><tspan x="58" y="252.17">motores Raptor</tspan></text>
<text fill="white" xml:space="preserve" style="white-space: pre" font-family="Assistant" font-size="15" font-weight="bold" letter-spacing="0em"><tspan x="57" y="207.505">SUPERHEAVY</tspan></text>
<path d="M179.5 213.5H57.5" stroke="#BBECF9"/>
<circle cx="179.5" cy="213.5" r="1.5" fill="white"/>
<text fill="white" xml:space="preserve" style="white-space: pre" font-family="Assistant" font-size="10" letter-spacing="0em"><tspan x="57" y="107.17">Transporte de </tspan><tspan x="57" y="120.17">carga y pasajeros</tspan></text>
<text fill="white" xml:space="preserve" style="white-space: pre" font-family="Assistant" font-size="15" font-weight="bold" letter-spacing="0em"><tspan x="56" y="89.505">STARSHIP</tspan></text>
<path d="M178.5 94.5H56.5" stroke="#BBECF9"/>
<circle cx="178.5" cy="94.5" r="1.5" fill="white"/>
</g>
<defs>
<filter id="filter0_d_25_7" x="186" y="0" width="44.3211" height="308.043" filterUnits="userSpaceOnUse" color-interpolation-filters="sRGB">
<feFlood flood-opacity="0" result="BackgroundImageFix"/>
<feColorMatrix in="SourceAlpha" type="matrix" values="0 0 0 0 0 0 0 0 0 0 0 0 0 0 0 0 0 0 127 0" result="hardAlpha"/>
<feOffset dy="4"/>
<feGaussianBlur stdDeviation="2"/>
<feComposite in2="hardAlpha" operator="out"/>
<feColorMatrix type="matrix" values="0 0 0 0 0 0 0 0 0 0 0 0 0 0 0 0 0 0 0.25 0"/>
<feBlend mode="normal" in2="BackgroundImageFix" result="effect1_dropShadow_25_7"/>
<feBlend mode="normal" in="SourceGraphic" in2="effect1_dropShadow_25_7" result="shape"/>
</filter>
<clipPath id="clip0_25_7">
<rect width="391" height="320" fill="white"/>
</clipPath>
</defs>
</svg>
