<svg width="385" height="326" viewBox="0 0 385 326" fill="none" xmlns="http://www.w3.org/2000/svg">
<path d="M72 274.779L80.7795 275.736C80.7795 275.736 92.4856 277.298 96.7778 274.564C101.07 271.831 104.699 273.393 107.372 274.564C110.045 275.736 110.306 275.443 112.124 274.611C113.947 273.783 116.179 274.67 117.014 276.177C117.849 277.685 118.629 277.294 119.8 277.684C120.97 278.075 119.8 279.246 119.409 280.418C119.019 281.589 119.8 281.199 120.97 281.199C122.141 281.199 120.19 281.589 120.19 282.761C120.19 283.932 121.751 284.323 122.531 283.932C123.311 283.542 123.311 284.323 123.311 284.713C123.311 285.104 122.921 287.056 123.702 287.056C124.482 287.056 126.433 286.666 126.433 287.837C126.433 289.009 127.604 290.571 128.774 289.79C129.945 289.009 129.945 287.837 130.725 287.837C131.506 287.837 130.725 285.494 131.506 284.713C132.286 283.932 130.725 281.589 128.774 280.418C126.823 279.246 122.921 272.218 126.043 270.265C129.164 268.313 127.994 265.579 129.555 265.97C131.115 266.36 133.457 266.36 134.237 265.189C135.017 264.017 137.749 263.236 140.09 262.846C142.431 262.455 141.651 261.674 143.212 261.284C144.772 260.893 147.504 261.674 147.894 260.503C148.284 259.331 151.406 259.331 151.016 257.379C150.626 255.426 149.845 255.817 149.455 254.645C149.065 253.474 147.114 255.817 147.504 253.864C147.894 251.912 149.065 251.521 147.894 250.74C146.724 249.959 145.553 249.178 146.724 248.007C147.894 246.835 149.065 246.445 149.455 246.445C149.845 246.445 150.235 247.226 149.845 247.226C149.455 247.226 148.284 247.226 148.284 247.616C148.284 248.007 147.894 249.959 148.675 249.569C149.455 249.178 150.626 249.569 150.235 249.959C149.845 250.35 150.235 251.131 150.626 251.131C151.016 251.131 151.016 251.521 149.845 251.912C148.675 252.302 149.455 253.474 149.845 253.083C150.235 252.693 149.845 252.693 150.626 252.302C151.406 251.912 151.796 250.35 152.967 249.959C154.137 249.569 154.137 248.788 153.357 248.397C152.577 248.007 151.016 246.835 151.796 246.835C152.577 246.835 153.275 247.195 153.899 247.601C154.528 248.007 154.918 248.788 155.308 248.007C155.698 247.226 155.308 246.445 156.479 246.054C157.649 245.664 159.081 244.879 158.558 244.102C158.039 243.321 156.869 244.102 157.259 243.321C157.649 242.54 158.129 243.364 158.671 242.56C159.214 241.755 160.541 241.06 161.633 241.017C162.726 240.974 168.185 240.974 168.965 240.584C169.745 240.193 170.136 239.412 170.526 239.412C170.916 239.412 170.916 239.412 170.916 239.412C170.916 239.412 170.916 240.584 172.477 240.193C174.038 239.803 175.758 240.193 175.676 239.412C175.594 238.631 175.224 238.491 175.224 238.491C175.224 238.491 105 241.017 72 248.007L54 251.5L53 255L52 261.284L56 268L63 273L72 274.779Z" fill="#DADADA" stroke="black" stroke-width="0.330189" stroke-miterlimit="10"/>
<path d="M1 271C15 260.167 72.8 238.5 192 238.5C194.695 238.5 197.362 238.511 200 238.533M392 271C380.8 263.863 349.286 252.023 295 244.775" stroke="white"/>
<path d="M1 147.5C15 136.667 72.8 115 192 115C311.2 115 375 136.667 392 147.5" stroke="#4F5E78" stroke-dasharray="2 2"/>
<path d="M133.716 150.333C133.716 150.29 133.689 150.255 133.649 150.239C133.638 150.235 133.63 150.235 133.618 150.235C133.587 150.235 133.56 150.247 133.54 150.275L133.024 150.932L133.325 149.571C133.337 149.524 133.309 149.477 133.266 149.461C133.255 149.457 133.243 149.453 133.227 149.453C133.196 149.453 133.165 149.469 133.145 149.496L132.637 150.259L132.93 148.788C132.934 148.761 132.93 148.73 132.911 148.706C132.891 148.683 132.864 148.671 132.836 148.671H132.57C132.727 148.084 133.434 145.526 134.431 143.821C134.717 143.997 135.655 144.525 136.633 144.564C136.562 145.112 136.234 147.627 135.901 149.355L135.64 149.093C135.62 149.074 135.596 149.066 135.569 149.066C135.561 149.066 135.55 149.066 135.542 149.07C135.507 149.082 135.483 149.109 135.475 149.144L135.28 150.13V149.551C135.28 149.5 135.241 149.457 135.19 149.453C135.186 149.453 135.182 149.453 135.182 149.453C135.135 149.453 135.096 149.485 135.084 149.531L134.768 151.198L134.494 150.306C134.482 150.267 134.447 150.239 134.408 150.235C134.404 150.235 134.404 150.235 134.4 150.235C134.365 150.235 134.33 150.255 134.314 150.29L133.716 151.483V150.333V150.333Z" fill="#73D7F9"/>
<path d="M134.467 143.954C134.818 144.161 135.643 144.588 136.523 144.654C136.433 145.339 136.144 147.533 135.839 149.152L135.71 149.023C135.671 148.984 135.624 148.964 135.573 148.964C135.553 148.964 135.534 148.968 135.518 148.972C135.448 148.992 135.397 149.05 135.381 149.121L135.323 149.414C135.292 149.383 135.249 149.359 135.202 149.355C135.194 149.355 135.19 149.355 135.182 149.355C135.088 149.355 135.006 149.422 134.99 149.516L134.748 150.795L134.588 150.278C134.564 150.2 134.498 150.149 134.416 150.142C134.412 150.142 134.404 150.142 134.4 150.142C134.326 150.142 134.259 150.185 134.224 150.251L133.814 151.076V150.333C133.814 150.251 133.759 150.177 133.681 150.149C133.661 150.142 133.638 150.138 133.618 150.138C133.56 150.138 133.501 150.165 133.466 150.212L133.212 150.537L133.419 149.594C133.438 149.504 133.391 149.41 133.305 149.371C133.282 149.359 133.255 149.355 133.227 149.355C133.165 149.355 133.102 149.387 133.063 149.441L132.828 149.793L133.024 148.808C133.036 148.749 133.02 148.691 132.985 148.644C132.95 148.597 132.891 148.573 132.832 148.573H132.696C132.903 147.83 133.563 145.55 134.467 143.954ZM134.4 143.684C133.227 145.64 132.445 148.769 132.445 148.769H132.836L132.445 150.724L133.227 149.551L132.836 151.327L133.618 150.333V151.898L134.4 150.333L134.791 151.6L135.182 149.551V151.115L135.573 149.16L135.964 149.551C136.355 147.595 136.746 144.466 136.746 144.466C135.573 144.466 134.4 143.684 134.4 143.684Z" fill="black"/>
<path d="M133.716 150.333C133.716 150.29 133.689 150.255 133.649 150.239C133.638 150.235 133.63 150.235 133.618 150.235C133.587 150.235 133.56 150.247 133.54 150.275L133.024 150.932L133.325 149.571C133.337 149.524 133.309 149.477 133.266 149.461C133.255 149.457 133.243 149.453 133.227 149.453C133.196 149.453 133.165 149.469 133.145 149.496L132.637 150.259L132.93 148.788C132.934 148.761 132.93 148.73 132.911 148.706C132.891 148.683 132.864 148.671 132.836 148.671H132.57C132.727 148.084 133.434 145.526 134.431 143.821C134.717 143.997 135.655 144.525 136.633 144.564C136.562 145.112 136.234 147.627 135.901 149.355L135.64 149.093C135.62 149.074 135.596 149.066 135.569 149.066C135.561 149.066 135.55 149.066 135.542 149.07C135.507 149.082 135.483 149.109 135.475 149.144L135.28 150.13V149.551C135.28 149.5 135.241 149.457 135.19 149.453C135.186 149.453 135.182 149.453 135.182 149.453C135.135 149.453 135.096 149.485 135.084 149.531L134.768 151.198L134.494 150.306C134.482 150.267 134.447 150.239 134.408 150.235C134.404 150.235 134.404 150.235 134.4 150.235C134.365 150.235 134.33 150.255 134.314 150.29L133.716 151.483V150.333V150.333Z" fill="#BBECF9"/>
<path d="M134.467 143.954C134.818 144.161 135.643 144.588 136.523 144.654C136.433 145.339 136.144 147.533 135.839 149.152L135.71 149.023C135.671 148.984 135.624 148.964 135.573 148.964C135.553 148.964 135.534 148.968 135.518 148.972C135.448 148.992 135.397 149.05 135.381 149.121L135.323 149.414C135.292 149.383 135.249 149.359 135.202 149.355C135.194 149.355 135.19 149.355 135.182 149.355C135.088 149.355 135.006 149.422 134.99 149.516L134.748 150.795L134.588 150.278C134.564 150.2 134.498 150.149 134.416 150.142C134.412 150.142 134.404 150.142 134.4 150.142C134.326 150.142 134.259 150.185 134.224 150.251L133.814 151.076V150.333C133.814 150.251 133.759 150.177 133.681 150.149C133.661 150.142 133.638 150.138 133.618 150.138C133.56 150.138 133.501 150.165 133.466 150.212L133.212 150.537L133.419 149.594C133.438 149.504 133.391 149.41 133.305 149.371C133.282 149.359 133.255 149.355 133.227 149.355C133.165 149.355 133.102 149.387 133.063 149.441L132.828 149.793L133.024 148.808C133.036 148.749 133.02 148.691 132.985 148.644C132.95 148.597 132.891 148.573 132.832 148.573H132.696C132.903 147.83 133.563 145.55 134.467 143.954ZM134.4 143.684C133.227 145.64 132.445 148.769 132.445 148.769H132.836L132.445 150.724L133.227 149.551L132.836 151.327L133.618 150.333V151.898L134.4 150.333L134.791 151.6L135.182 149.551V151.115L135.573 149.16L135.964 149.551C136.355 147.595 136.746 144.466 136.746 144.466C135.573 144.466 134.4 143.684 134.4 143.684Z" fill="black"/>
<path d="M126.792 219.585C126.792 219.585 129.953 177.329 134.057 153.547" stroke="#BBECF9" stroke-width="0.495283" stroke-miterlimit="10" stroke-linejoin="round"/>
<path d="M188.276 54.2615L183.98 56.1469L184.922 58.296L189.219 56.4106L188.276 54.2615Z" fill="#B2B2B2" stroke="black" stroke-width="0.330189" stroke-miterlimit="10"/>
<path d="M188.276 54.3401L183.98 56.2255L184.922 58.3746L189.219 56.4892L188.276 54.3401Z" stroke="black" stroke-width="0.990566" stroke-miterlimit="10" stroke-linecap="round" stroke-linejoin="round"/>
<path d="M151.226 94.1132C151.226 94.1132 154.823 86.0385 157.83 81.566" stroke="#BBECF9" stroke-width="0.495283" stroke-miterlimit="10" stroke-linejoin="round"/>
<path d="M129.434 230.151H124.811V271.755H129.434V230.151Z" fill="#B2B2B2" stroke="black" stroke-width="0.330189" stroke-miterlimit="10"/>
<path d="M129.434 227.509H124.811V230.151H129.434V227.509Z" fill="#DADADA" stroke="black" stroke-width="0.330189" stroke-miterlimit="10"/>
<path d="M129.434 226.189H124.811V227.509H129.434V226.189Z" fill="#DADADA" stroke="black" stroke-width="0.330189" stroke-miterlimit="10"/>
<path d="M125.472 230.811V227.679C125.472 227.679 125.192 227.298 124.812 227.679V230.408C124.806 230.411 124.845 230.604 125.472 230.811Z" fill="#DADADA" stroke="black" stroke-width="0.330189" stroke-miterlimit="10"/>
<path d="M128.774 230.811V227.686C128.774 227.686 129.129 227.289 129.434 227.686V230.5C129.439 230.5 129.271 230.8 128.774 230.811Z" fill="#DADADA" stroke="black" stroke-width="0.330189" stroke-miterlimit="10"/>
<path d="M124.811 226.189L125.628 224.208H128.617L129.434 226.189H124.811Z" fill="#DADADA" stroke="black" stroke-width="0.330189" stroke-miterlimit="10"/>
<path d="M125.472 224.208C125.472 222.887 127.123 222.887 127.123 222.887C127.123 222.887 128.774 222.887 128.774 224.208H125.472Z" fill="#DADADA" stroke="black" stroke-width="0.330189" stroke-miterlimit="10"/>
<path d="M126.788 271.755L126.132 272.415H127.453L126.788 271.755Z" fill="#4D4D4D" stroke="black" stroke-width="0.330189" stroke-miterlimit="10" stroke-linecap="round" stroke-linejoin="round"/>
<path d="M125.139 271.755L124.811 272.415H125.472L125.139 271.755Z" fill="#4D4D4D" stroke="black" stroke-width="0.330189" stroke-miterlimit="10" stroke-linecap="round" stroke-linejoin="round"/>
<path d="M129.103 271.755L128.774 272.415H129.434L129.103 271.755Z" fill="#4D4D4D" stroke="black" stroke-width="0.330189" stroke-miterlimit="10" stroke-linecap="round" stroke-linejoin="round"/>
<path d="M124.811 235.434H129.434" stroke="black" stroke-width="0.330189" stroke-miterlimit="10" stroke-linecap="round" stroke-linejoin="round"/>
<path d="M124.811 241.377H129.434" stroke="black" stroke-width="0.330189" stroke-miterlimit="10" stroke-linecap="round" stroke-linejoin="round"/>
<path d="M124.811 270.434H129.434" stroke="black" stroke-width="0.330189" stroke-miterlimit="10" stroke-linecap="round" stroke-linejoin="round"/>
<path d="M124.151 271.755H125.472L124.994 269.946C124.932 269.708 124.521 269.72 124.475 269.959L124.151 271.755Z" fill="#B2B2B2" stroke="black" stroke-width="0.330189" stroke-miterlimit="10"/>
<path d="M130.094 271.755H128.774L129.252 269.946C129.313 269.708 129.724 269.72 129.771 269.959L130.094 271.755Z" fill="#B2B2B2" stroke="black" stroke-width="0.330189" stroke-miterlimit="10"/>
<path d="M129.444 230.171L129.585 229.999V227.032C129.585 227.032 129.568 226.833 129.32 226.833V226.613L128.576 224.202C128.576 224.202 128.576 222.891 127.213 222.887C127.213 222.887 125.85 222.887 125.85 224.202L125.107 226.613V226.786C125.107 226.786 124.859 226.833 124.806 227.017V229.901L124.956 230.105V269.573C124.956 269.573 124.536 269.213 124.452 269.609L124.151 271.319H125.288L124.766 272.415H125.979L125.368 271.198H127.196L126.594 272.415H127.806L127.244 271.198H128.988L128.386 272.415H129.599L129.05 271.319H130.094L129.815 269.671C129.815 269.671 129.815 269.432 129.444 269.499V230.171Z" stroke="black" stroke-width="0.990566" stroke-miterlimit="10" stroke-linecap="round" stroke-linejoin="round"/>
<path d="M129.444 230.171L129.585 229.999V227.032C129.585 227.032 129.568 226.833 129.32 226.833V226.613L128.576 224.202C128.576 224.202 128.576 222.891 127.213 222.887C127.213 222.887 125.85 222.887 125.85 224.202L125.107 226.613V226.786C125.107 226.786 124.859 226.833 124.806 227.017V229.901L124.956 230.105V269.573C124.956 269.573 124.536 269.213 124.452 269.609L124.151 271.319H125.288L124.766 272.415H125.979L125.368 271.198H127.196L126.594 272.415H127.806L127.244 271.198H128.988L128.386 272.415H129.599L129.05 271.319H130.094L129.815 269.671C129.815 269.671 129.815 269.432 129.444 269.499V230.171Z" stroke="black" stroke-width="0.990566" stroke-miterlimit="10" stroke-linecap="round" stroke-linejoin="round"/>
<path d="M146.224 101.937L134.434 141.381L138.232 142.518L150.023 103.073L146.224 101.937Z" fill="#B2B2B2" stroke="black" stroke-width="0.330189" stroke-miterlimit="10"/>
<path d="M147.07 99.1072L146.223 101.94L149.864 103.029L150.711 100.196L147.07 99.1072Z" fill="#DADADA" stroke="black" stroke-width="0.330189" stroke-miterlimit="10"/>
<path d="M150.875 99.8069L147.309 98.7401L147.184 99.1598L150.75 100.227L150.875 99.8069Z" fill="#DADADA" stroke="black" stroke-width="0.330189" stroke-miterlimit="10"/>
<path d="M146.278 102.038L147.264 98.9708C147.264 98.9708 147.191 98.5429 146.804 98.842L145.944 101.515C145.944 101.515 145.908 101.712 146.278 102.038Z" fill="#DADADA" stroke="black" stroke-width="0.330189" stroke-miterlimit="10"/>
<path d="M149.245 103.335L150.115 100.165C150.115 100.165 150.469 99.8425 150.566 100.31L149.783 103.163C149.783 103.166 149.585 103.438 149.245 103.335Z" fill="#DADADA" stroke="black" stroke-width="0.330189" stroke-miterlimit="10"/>
<path d="M147.264 98.7326L148.465 96.0944L150.566 96.9511L150.513 100.057L147.264 98.7326Z" fill="#DADADA" stroke="black" stroke-width="0.330189" stroke-miterlimit="10"/>
<path d="M148.585 96.1998C148.897 95.1903 149.856 95.4693 149.856 95.4693C149.856 95.4693 150.816 95.7452 150.504 96.7547L148.585 96.1998Z" fill="#DADADA" stroke="black" stroke-width="0.330189" stroke-miterlimit="10"/>
<path d="M135.927 142.321L135.377 142.827L136.038 142.981L135.927 142.321Z" fill="#4D4D4D" stroke="black" stroke-width="0.330189" stroke-miterlimit="10" stroke-linecap="round" stroke-linejoin="round"/>
<path d="M134.609 141.66L134.057 142.675L134.717 142.981L134.609 141.66Z" fill="#4D4D4D" stroke="black" stroke-width="0.330189" stroke-miterlimit="10" stroke-linecap="round" stroke-linejoin="round"/>
<path d="M137.25 142.321L136.698 143.333L137.358 143.641L137.25 142.321Z" fill="#4D4D4D" stroke="black" stroke-width="0.330189" stroke-miterlimit="10" stroke-linecap="round" stroke-linejoin="round"/>
<path d="M144.623 106.66L147.925 107.321" stroke="black" stroke-width="0.330189" stroke-miterlimit="10" stroke-linecap="round" stroke-linejoin="round"/>
<path d="M142.641 112.604L146.604 113.925" stroke="black" stroke-width="0.330189" stroke-miterlimit="10" stroke-linecap="round" stroke-linejoin="round"/>
<path d="M134.717 140.34L138.019 141.66" stroke="black" stroke-width="0.330189" stroke-miterlimit="10" stroke-linecap="round" stroke-linejoin="round"/>
<path d="M134.057 141.36L134.639 141.66L134.717 139.904C134.726 139.672 134.544 139.591 134.485 139.798L134.057 141.36Z" fill="#B2B2B2" stroke="black" stroke-width="0.330189" stroke-miterlimit="10"/>
<path d="M138.415 142.981L137.359 142.676L138.265 141.11C138.385 140.904 138.711 141.011 138.677 141.242L138.415 142.981Z" fill="#B2B2B2" stroke="black" stroke-width="0.330189" stroke-miterlimit="10"/>
<path d="M149.58 103.037L149.745 102.908L150.555 100.06C150.555 100.06 150.593 99.8638 150.395 99.8011L150.454 99.5892L150.51 97.0865C150.51 97.0865 150.869 95.8273 149.767 95.4782C149.767 95.4782 148.665 95.1291 148.307 96.3922L147.048 98.5183L146.999 98.6831C146.999 98.6831 146.786 98.6635 146.693 98.8282L145.905 101.598L145.972 101.833L135.185 139.731C135.185 139.731 134.946 139.279 134.766 139.636L134.057 141.202L134.976 141.492L134.255 142.41L135.237 142.72L135.076 141.394L136.556 141.857L135.737 142.873L136.72 143.183L136.597 141.872L138.005 142.316L137.187 143.332L138.169 143.642L138.023 142.449L138.868 142.716L139.092 141.064C139.092 141.064 139.155 140.837 138.838 140.805L149.58 103.037Z" stroke="black" stroke-width="0.990566" stroke-miterlimit="10" stroke-linecap="round" stroke-linejoin="round"/>
<path d="M149.58 103.037L149.745 102.908L150.555 100.06C150.555 100.06 150.593 99.8638 150.395 99.8011L150.454 99.5892L150.51 97.0865C150.51 97.0865 150.869 95.8273 149.767 95.4782C149.767 95.4782 148.665 95.1291 148.307 96.3922L147.048 98.5183L146.999 98.6831C146.999 98.6831 146.786 98.6635 146.693 98.8282L145.905 101.598L145.972 101.833L135.185 139.731C135.185 139.731 134.946 139.279 134.766 139.636L134.057 141.202L134.976 141.492L134.255 142.41L135.237 142.72L135.076 141.394L136.556 141.857L135.737 142.873L136.72 143.183L136.597 141.872L138.005 142.316L137.187 143.332L138.169 143.642L138.023 142.449L138.868 142.716L139.092 141.064C139.092 141.064 139.155 140.837 138.838 140.805L149.58 103.037Z" stroke="black" stroke-width="0.990566" stroke-miterlimit="10" stroke-linecap="round" stroke-linejoin="round"/>
<path d="M213.302 28.0756L215.283 31.3774" stroke="black" stroke-width="0.330189" stroke-miterlimit="10"/>
<path d="M215.725 26.2798L213.153 27.7355L215.024 31.0445L217.596 29.5888L215.725 26.2798Z" fill="#DADADA" stroke="black" stroke-width="0.330189" stroke-miterlimit="10"/>
<path d="M218.007 29.4236L216.174 26.1827L215.793 26.3984L217.626 29.6393L218.007 29.4236Z" fill="#DADADA" stroke="black" stroke-width="0.330189" stroke-miterlimit="10"/>
<path d="M207.358 32.6066L208.53 34.6793L215.283 31.5826L213.417 28.0756L207.358 32.6066Z" fill="#DADADA" stroke="black" stroke-width="0.330189" stroke-miterlimit="10"/>
<path d="M213.304 28.0755L215.883 26.4875C215.883 26.4875 216.111 26.1287 215.68 26.0944L213.43 27.48C213.433 27.48 213.283 27.5983 213.304 28.0755Z" fill="#DADADA" stroke="black" stroke-width="0.330189" stroke-miterlimit="10"/>
<path d="M214.623 31.084L217.594 29.3962C217.594 29.3962 218.109 29.4288 217.853 29.8558L215.178 31.3727C215.178 31.3768 214.825 31.4256 214.623 31.084Z" fill="#DADADA" stroke="black" stroke-width="0.330189" stroke-miterlimit="10"/>
<path d="M215.943 26.0655L218.604 25.434L219.906 27.5901L217.959 29.3962L215.943 26.0655Z" fill="#DADADA" stroke="black" stroke-width="0.330189" stroke-miterlimit="10"/>
<path d="M207.352 32.0377L206.038 34.4591L208.679 34.6792L207.352 32.0377Z" fill="#4D4D4D" stroke="black" stroke-width="0.330189" stroke-miterlimit="10" stroke-linecap="round" stroke-linejoin="round"/>
<path d="M219.245 25.6744C220.043 24.9353 220.458 26.1358 220.458 26.1358C220.458 26.1358 220.873 27.3363 220.073 28.0755L219.245 25.6744Z" fill="#DADADA" stroke="black" stroke-width="0.330189" stroke-miterlimit="10"/>
<path d="M215.156 31.3538L215.366 31.3774L217.889 29.9157C217.889 29.9157 218.049 29.802 217.942 29.614L218.13 29.5042L219.861 27.7447C219.861 27.7447 220.977 27.0982 220.4 26.048C220.4 26.048 219.823 24.9978 218.703 25.6443L216.337 26.2596L216.192 26.3458C216.192 26.3458 216.046 26.1773 215.867 26.2282L213.413 27.6507L213.302 27.8662" stroke="black" stroke-width="0.990566" stroke-miterlimit="10" stroke-linecap="round" stroke-linejoin="round"/>
<path d="M215.101 31.6395L215.313 31.6641L217.862 30.1319C217.862 30.1319 218.024 30.0128 217.916 29.8157L218.105 29.7006L219.854 27.8562C219.854 27.8562 220.982 27.1785 220.399 26.0776C220.399 26.0776 219.815 24.9767 218.684 25.6545L216.294 26.2994L216.147 26.3898C216.147 26.3898 216 26.2131 215.819 26.2665L213.34 27.7577L213.228 27.9836L207.358 32.2146L208.517 34.6792L215.101 31.6395Z" stroke="black" stroke-width="0.990566" stroke-miterlimit="10" stroke-linecap="round" stroke-linejoin="round"/>
<path d="M206.038 34.6792L207.495 32.0377L208.679 34.6792H206.038Z" stroke="black" stroke-width="0.990566" stroke-miterlimit="10" stroke-linecap="round" stroke-linejoin="round"/>
<path d="M206.038 34.6793L203.396 35.31L204.181 36.6605L206.038 34.6793Z" fill="#4D4D4D" stroke="black" stroke-width="0.330189" stroke-miterlimit="10" stroke-linecap="round" stroke-linejoin="round"/>
<path d="M203.396 35.2737L206.038 34.6793L204.377 36.6605L203.396 35.2737Z" stroke="black" stroke-width="0.990566" stroke-miterlimit="10" stroke-linecap="round" stroke-linejoin="round"/>
<path d="M198.19 39.8068C198.213 39.7716 198.209 39.7208 198.178 39.6895C198.159 39.6699 198.131 39.6582 198.108 39.6582C198.092 39.6582 198.077 39.6621 198.065 39.6699L197.076 40.1549L197.772 39.4314C197.803 39.4001 197.807 39.3492 197.783 39.314C197.764 39.2827 197.733 39.2671 197.701 39.2671C197.693 39.2671 197.682 39.2671 197.674 39.271L197.095 39.4431L198.1 38.6843C198.139 38.6569 198.151 38.6022 198.127 38.5592C198.112 38.5279 198.077 38.5083 198.041 38.5083C198.03 38.5083 198.018 38.5083 198.006 38.5161L197.385 38.7469L198.44 37.9255C198.464 37.9099 198.475 37.8825 198.479 37.8551C198.479 37.8278 198.471 37.8004 198.448 37.7808L198.331 37.6674C198.804 37.335 200.935 35.8565 202.635 35.1173C202.67 35.4302 202.803 36.2085 203.249 36.7053C202.846 37.0534 200.958 38.6726 199.586 39.7521L199.621 39.5174C199.625 39.4783 199.609 39.4392 199.574 39.4196C199.558 39.4118 199.543 39.4079 199.523 39.4079C199.504 39.4079 199.48 39.4157 199.464 39.4274L198.984 39.8029L199.12 39.6582C199.156 39.623 199.156 39.5643 199.124 39.5252C199.105 39.5057 199.077 39.4939 199.05 39.4939C199.031 39.4939 199.007 39.5018 198.991 39.5135L197.795 40.4561L198.19 39.8068Z" fill="#BBECF9"/>
<path d="M173.679 63.967C173.679 63.967 173.722 63.9165 173.808 63.8232" stroke="#BBECF9" stroke-width="0.495283" stroke-linejoin="round" stroke-dasharray="1.32 1.32"/>
<path d="M175.153 62.3722C179.059 58.1794 189.865 46.8448 196.93 41.9401" stroke="#BBECF9" stroke-width="0.495283" stroke-linejoin="round" stroke-dasharray="1.32 1.32"/>
<path d="M197.755 41.388C197.809 41.353 197.864 41.318 197.918 41.283" stroke="#BBECF9" stroke-width="0.495283" stroke-linejoin="round" stroke-dasharray="1.32 1.32"/>
<path d="M177 61.8106C177 61.8106 232.819 27.6465 245 125" stroke="#BBECF9" stroke-width="0.495283" stroke-miterlimit="10" stroke-linejoin="round"/>
<path d="M233.113 71.5075L234.926 57.7925L235.175 68.536L235.517 66.2898L235.758 69.4719L236.694 68.3176L235.669 72.9543L237.872 70.3415L236.475 74.8534L238.499 73.0206L236.508 77.2244L237.957 76.6122L236.579 78.4567L239.057 76.5693C239.057 76.5693 238.139 79.9386 234.811 80.9057L233.113 71.5075Z" fill="#BBECF9"/>
<path d="M245.18 115.904C241.3 115.81 237.912 113.433 237.912 113.433H241.336L239.035 110.73L242.612 112.492L239.164 108.223L241.253 108.822L237.468 103.679L241.002 106.029L237.075 98.5872L241.253 104.071C241.253 104.071 239.431 87.2279 242.965 74.3019C242.965 74.3019 247.548 88.1327 247.414 103.15L249.64 98.9789L247.677 105.638L249.64 102.532L248.462 107.988L250.838 104.071L248.855 109.946L250.818 108.771L248.855 112.297L250.838 111.298L248.855 113.863L251.604 112.688C251.6 112.688 248.576 115.986 245.18 115.904Z" fill="#BBECF9"/>
<path d="M223.868 25.4339C223.868 25.4339 238.149 18.0475 247.642 16.849" stroke="#BBECF9" stroke-width="0.330189" stroke-miterlimit="10" stroke-linejoin="round" stroke-dasharray="0.66 0.66"/>
<path d="M230.63 72.5693L223.868 61.0944L227.567 70.7071L226.418 68.8449L227.352 71.7537L226.035 71.0796L228.716 74.804L225.652 73.3142L228.643 76.7891L226.035 75.9213L229.481 78.9009H227.869L229.864 80.0182L226.801 79.2733C226.801 79.2733 228.915 81.9177 232.453 81.5266L230.63 72.5693Z" fill="#BBECF9"/>
<path d="M193.295 71.593L195.359 72.6921L208.019 48.9707L206.13 47.8208L193.295 71.593Z" fill="#B2B2B2" stroke="black" stroke-width="0.330189" stroke-miterlimit="10"/>
<path d="M195.46 72.6616L193.27 71.4921L192.925 72.1373L195.115 73.3068L195.46 72.6616Z" fill="#4D4D4D" stroke="black" stroke-width="0.330189" stroke-miterlimit="10"/>
<path d="M193.135 72.2501L192.564 72.8055L194.757 73.975L194.867 73.1732L193.135 72.2501Z" fill="#4D4D4D" stroke="black" stroke-width="0.330189" stroke-miterlimit="10"/>
<path d="M193.249 73.1656L193.183 73.2896L193.955 73.7019L194.021 73.5779L193.249 73.1656Z" fill="#4D4D4D" stroke="black" stroke-width="0.330189" stroke-miterlimit="10"/>
<path d="M194.867 73.1732L194.022 73.5838L194.018 72.7234L193.248 73.1693L193.135 72.2501L194.867 73.1732Z" fill="#4D4D4D" stroke="black" stroke-width="0.330189" stroke-miterlimit="10" stroke-linecap="round" stroke-linejoin="round"/>
<path d="M208.163 48.7361L195.394 72.6296L195.508 72.6882L195.109 73.4392L194.898 73.3258L194.804 74.0063L194.069 73.6152L194.002 73.7403L193.232 73.3258L193.299 73.2006L192.615 72.8369L193.095 72.3636L192.83 72.2228L193.228 71.4718L193.33 71.5266L206.275 47.5823L208.163 48.7361Z" stroke="black" stroke-width="0.990566" stroke-miterlimit="10" stroke-linecap="round" stroke-linejoin="round"/>
<path d="M232.204 80.9292L234.499 80.4716L229.264 54.0945L227.074 54.4035L232.204 80.9292Z" fill="#B2B2B2" stroke="black" stroke-width="0.330189" stroke-miterlimit="10"/>
<path d="M234.544 80.3756L232.109 80.8594L232.251 81.5768L234.686 81.093L234.544 80.3756Z" fill="#4D4D4D" stroke="black" stroke-width="0.330189" stroke-miterlimit="10"/>
<path d="M232.497 81.5393L232.407 82.3294L234.843 81.8444L234.421 81.1599L232.497 81.5393Z" fill="#4D4D4D" stroke="black" stroke-width="0.330189" stroke-miterlimit="10"/>
<path d="M234.018 81.9969L233.16 82.1675L233.187 82.3053L234.046 82.1347L234.018 81.9969Z" fill="#4D4D4D" stroke="black" stroke-width="0.330189" stroke-miterlimit="10"/>
<path d="M234.42 81.1599L234.026 82.0086L233.478 81.3437L233.169 82.1807L232.497 81.5393L234.42 81.1599Z" fill="#4D4D4D" stroke="black" stroke-width="0.330189" stroke-miterlimit="10" stroke-linecap="round" stroke-linejoin="round"/>
<path d="M229.225 53.8207L234.483 80.4011L234.612 80.3738L234.776 81.2068L234.542 81.2538L234.901 81.8405L234.084 82.0008L234.112 82.1416L233.251 82.3098L233.224 82.1729L232.466 82.3255L232.54 81.6527L232.243 81.7114L232.079 80.8783L232.188 80.8548L227.035 54.1297L229.225 53.8207Z" stroke="black" stroke-width="0.990566" stroke-miterlimit="10" stroke-linecap="round" stroke-linejoin="round"/>
<path d="M243.585 116.329L245.919 116.196L244.386 89.35H242.177L243.585 116.329Z" fill="#B2B2B2" stroke="black" stroke-width="0.330189" stroke-miterlimit="10"/>
<path d="M245.988 116.129L243.51 116.27L243.551 117.001L246.03 116.859L245.988 116.129Z" fill="#4D4D4D" stroke="black" stroke-width="0.330189" stroke-miterlimit="10"/>
<path d="M243.788 116.979L243.592 117.745L246.071 117.604L245.747 116.865L243.788 116.979Z" fill="#4D4D4D" stroke="black" stroke-width="0.330189" stroke-miterlimit="10"/>
<path d="M245.244 117.664L244.37 117.714L244.378 117.854L245.252 117.804L245.244 117.664Z" fill="#4D4D4D" stroke="black" stroke-width="0.330189" stroke-miterlimit="10"/>
<path d="M245.747 116.865L245.239 117.651L244.789 116.92L244.367 117.702L243.788 116.979L245.747 116.865Z" fill="#4D4D4D" stroke="black" stroke-width="0.330189" stroke-miterlimit="10" stroke-linecap="round" stroke-linejoin="round"/>
<path d="M244.386 89.0723L245.915 116.122L246.044 116.114L246.091 116.963L245.852 116.979L246.13 117.608L245.297 117.655L245.305 117.796L244.429 117.847L244.421 117.702L243.647 117.749L243.815 117.092L243.514 117.112L243.464 116.263L243.581 116.255L242.177 89.0723H244.386Z" stroke="black" stroke-width="0.990566" stroke-miterlimit="10" stroke-linecap="round" stroke-linejoin="round"/>
<path d="M249.623 173.504H243.679V174.165H249.623V173.504Z" stroke="black" stroke-width="0.990566" stroke-miterlimit="10" stroke-linecap="round" stroke-linejoin="round"/>
<path d="M245.199 158.542L247.537 158.456L246.556 131.586L244.343 131.539L245.199 158.542Z" fill="#B2B2B2" stroke="black" stroke-width="0.330189" stroke-miterlimit="10"/>
<path d="M247.604 158.371L245.123 158.462L245.15 159.193L247.63 159.102L247.604 158.371Z" fill="#4D4D4D" stroke="black" stroke-width="0.330189" stroke-miterlimit="10"/>
<path d="M245.391 159.195L245.18 159.962L247.663 159.868L247.354 159.121L245.391 159.195Z" fill="#4D4D4D" stroke="black" stroke-width="0.330189" stroke-miterlimit="10"/>
<path d="M246.825 159.887L245.95 159.919L245.955 160.059L246.83 160.027L246.825 159.887Z" fill="#4D4D4D" stroke="black" stroke-width="0.330189" stroke-miterlimit="10"/>
<path d="M247.354 159.121L246.83 159.899L246.392 159.156L245.954 159.931L245.391 159.195L247.354 159.121Z" fill="#4D4D4D" stroke="black" stroke-width="0.330189" stroke-miterlimit="10" stroke-linecap="round" stroke-linejoin="round"/>
<path d="M246.56 131.309L247.534 158.386L247.663 158.382L247.694 159.227L247.455 159.238L247.717 159.872L246.885 159.903L246.888 160.044L246.017 160.075L246.009 159.935L245.235 159.962L245.415 159.313L245.113 159.321L245.082 158.476L245.196 158.472L244.351 131.262L246.56 131.309Z" stroke="black" stroke-width="0.990566" stroke-miterlimit="10" stroke-linecap="round" stroke-linejoin="round"/>
<path d="M245.61 198.292L247.952 198.3L248.042 171.411L245.833 171.278L245.61 198.292Z" fill="#B2B2B2" stroke="black" stroke-width="0.330189" stroke-miterlimit="10"/>
<path d="M248.025 198.227L245.542 198.219L245.54 198.95L248.022 198.958L248.025 198.227Z" fill="#4D4D4D" stroke="black" stroke-width="0.330189" stroke-miterlimit="10"/>
<path d="M245.778 198.949L245.536 199.708L248.018 199.716L247.741 198.957L245.778 198.949Z" fill="#4D4D4D" stroke="black" stroke-width="0.330189" stroke-miterlimit="10"/>
<path d="M246.311 199.709L246.31 199.849L247.186 199.852L247.187 199.712L246.311 199.709Z" fill="#4D4D4D" stroke="black" stroke-width="0.330189" stroke-miterlimit="10"/>
<path d="M247.741 198.957L247.186 199.712L246.779 198.953L246.31 199.708L245.778 198.949L247.741 198.957Z" fill="#4D4D4D" stroke="black" stroke-width="0.330189" stroke-miterlimit="10" stroke-linecap="round" stroke-linejoin="round"/>
<path d="M248.057 171.133L247.952 198.226H248.081L248.077 199.075H247.838L248.077 199.72L247.24 199.716V199.861L246.365 199.857V199.716L245.59 199.712L245.798 199.067H245.493L245.497 198.218H245.614L245.852 171L248.057 171.133Z" stroke="black" stroke-width="0.990566" stroke-miterlimit="10" stroke-linecap="round" stroke-linejoin="round"/>
<path d="M246.859 162.003L247.141 167.997" stroke="#BBECF9" stroke-width="0.495283" stroke-miterlimit="10" stroke-linejoin="round"/>
<path d="M245 129.245L243.679 123.302" stroke="black" stroke-width="0.330189" stroke-miterlimit="10" stroke-linecap="round" stroke-linejoin="round"/>
<path d="M245.66 129.245V120" stroke="black" stroke-width="0.330189" stroke-miterlimit="10" stroke-linecap="round" stroke-linejoin="round"/>
<path d="M246.981 129.245V123.302" stroke="black" stroke-width="0.330189" stroke-miterlimit="10" stroke-linecap="round" stroke-linejoin="round"/>
<path d="M259.528 6.50274L261.595 5.62268L262.83 7.61377L261.44 9.58494L259.528 6.50274Z" fill="#DADADA" stroke="black" stroke-width="0.330189" stroke-miterlimit="10"/>
<path d="M250.668 15.5283L249.623 17.5095L252.264 17.4615L250.668 15.5283Z" fill="#4D4D4D" stroke="black" stroke-width="0.330189" stroke-miterlimit="10" stroke-linecap="round" stroke-linejoin="round"/>
<path d="M249.623 18.1698L250.826 15.5283L252.264 17.8745L249.623 18.1698Z" stroke="black" stroke-width="0.990566" stroke-miterlimit="10" stroke-linecap="round" stroke-linejoin="round"/>
<path d="M249.623 18.1698L247.642 19.2384L248.378 20.8113L249.623 18.1698Z" fill="#4D4D4D" stroke="black" stroke-width="0.330189" stroke-miterlimit="10" stroke-linecap="round" stroke-linejoin="round"/>
<path d="M254.76 10.9057H256.226L254.567 1C254.567 1 252.234 3.41477 254.76 10.9057Z" fill="#DADADA" stroke="black" stroke-width="0.330189" stroke-miterlimit="10"/>
<path d="M247.642 19.2284L249.623 18.1698L248.516 20.8113L247.642 19.2284Z" stroke="black" stroke-width="0.990566" stroke-miterlimit="10" stroke-linecap="round" stroke-linejoin="round"/>
<path d="M254.762 10.9057H256.226L254.569 1C254.565 1 252.234 3.41477 254.762 10.9057Z" stroke="black" stroke-width="1.32075" stroke-miterlimit="10" stroke-linecap="round" stroke-linejoin="round"/>
<path d="M257.172 13.2762L256.887 11.7793L266.792 11.566C266.792 11.566 264.914 14.4215 257.172 13.2762Z" fill="#DADADA" stroke="black" stroke-width="0.330189" stroke-miterlimit="10"/>
<path d="M257.172 13.2776L256.887 11.7795L266.792 11.566C266.792 11.5621 264.91 14.4199 257.172 13.2776Z" stroke="black" stroke-width="1.32075" stroke-miterlimit="10" stroke-linecap="round" stroke-linejoin="round"/>
<path d="M254.703 10.9056L256.887 12.9415L252.153 17.5094L251 15.5L254.703 10.9056Z" fill="#DADADA" stroke="black" stroke-width="0.330189" stroke-miterlimit="10"/>
<path d="M254.924 11.566L256.887 13.6019L252.627 18.1698L250.943 15.7886L254.924 11.566Z" stroke="black" stroke-width="1.32075" stroke-miterlimit="10" stroke-linecap="round" stroke-linejoin="round"/>
<path d="M259.528 6.50584L261.592 5.62268L262.83 7.61575L261.44 9.58494L259.528 6.50584Z" stroke="black" stroke-width="1.32075" stroke-miterlimit="10" stroke-linecap="round" stroke-linejoin="round"/>
<circle cx="126.792" cy="284.321" r="1.32075" fill="white"/>
<circle cx="135.5" cy="279.5" r="5.15" stroke="#BBECF9" stroke-width="0.7" stroke-dasharray="2 2"/>
<text fill="white" xml:space="preserve" style="white-space: pre" font-family="Roboto" font-size="7" font-weight="bold" letter-spacing="0em"><tspan x="59.4814" y="317.836">CABO CA&#xd1;AVERAL</tspan></text>
<text fill="white" xml:space="preserve" style="white-space: pre" font-family="Roboto" font-size="7" letter-spacing="0em"><tspan x="72.9141" y="309.836">Florida, E.E.U.U&#10;</tspan></text>
<text fill="white" xml:space="preserve" style="white-space: pre" font-family="Roboto" font-size="8" font-weight="bold" letter-spacing="0em"><tspan x="85.8107" y="94.2344">Primera etapa</tspan></text>
<text fill="white" xml:space="preserve" style="white-space: pre" font-family="Roboto" font-size="8" font-weight="bold" letter-spacing="0em"><tspan x="77.5027" y="191.819">Lanzamiento</tspan></text>
<text fill="white" xml:space="preserve" style="white-space: pre" font-family="Roboto" font-size="8" font-weight="bold" letter-spacing="0em"><tspan x="111.519" y="57.1023">Segunda etapa</tspan></text>
<text fill="white" xml:space="preserve" style="white-space: pre" font-family="Roboto" font-size="8" font-weight="bold" letter-spacing="0em"><tspan x="163.578" y="26.0646">Propulsi&#xf3;n</tspan></text>
<text fill="white" xml:space="preserve" style="white-space: pre" font-family="Roboto" font-size="8" font-weight="bold" letter-spacing="0em"><tspan x="258" y="26.2344">Lanzamiento</tspan></text>
<circle cx="266.792" cy="253.264" r="1.32075" fill="white"/>
<text fill="white" xml:space="preserve" style="white-space: pre" font-family="Roboto" font-size="7" letter-spacing="0em"><tspan x="294.5" y="310.393">Puerto Ca&#xf1;averal&#10;</tspan></text>
<text fill="white" xml:space="preserve" style="white-space: pre" font-family="Roboto" font-size="7" font-weight="bold" letter-spacing="0em"><tspan x="294.5" y="318.393">PLATAFORMA FLOTANTE</tspan></text>
<path d="M276.5 305L291 325.5H374" stroke="white" stroke-width="0.660377"/>
<text fill="white" xml:space="preserve" style="white-space: pre" font-family="Roboto" font-size="6" letter-spacing="0em"><tspan x="102.307" y="102.4">3 minutos de&#10;</tspan><tspan x="85.8242" y="109.4">m&#xe1;xima propulsi&#xf3;n</tspan></text>
<text fill="white" xml:space="preserve" style="white-space: pre" font-family="Roboto" font-size="6" letter-spacing="0em"><tspan x="107.504" y="65.5508">Separaci&#xf3;n de partes</tspan></text>
<text fill="white" xml:space="preserve" style="white-space: pre" font-family="Roboto" font-size="8" font-weight="bold" letter-spacing="0em"><tspan x="257" y="61.2344">Terera etapa</tspan></text>
<text fill="white" xml:space="preserve" style="white-space: pre" font-family="Roboto" font-size="6" letter-spacing="0em"><tspan x="257" y="69.5508">El cuerpo principal vuelve a </tspan><tspan x="257" y="76.5508">la tierra</tspan></text>
<text fill="white" xml:space="preserve" style="white-space: pre" font-family="Roboto" font-size="6" letter-spacing="0em"><tspan x="258" y="33.5508">Colocaci&#xf3;n del material </tspan><tspan x="258" y="40.5508">transportado</tspan></text>
<text fill="white" xml:space="preserve" style="white-space: pre" font-family="Roboto" font-size="8" font-weight="bold" letter-spacing="0em"><tspan x="257" y="98.2344">Cuarta etapa</tspan></text>
<text fill="white" xml:space="preserve" style="white-space: pre" font-family="Roboto" font-size="6" letter-spacing="0em"><tspan x="257" y="106.551">Entrada a la atm&#xf3;sfera</tspan></text>
<text fill="white" xml:space="preserve" style="white-space: pre" font-family="Roboto" font-size="8" font-weight="bold" letter-spacing="0em"><tspan x="256" y="148.234">Quinta etapa</tspan></text>
<text fill="white" xml:space="preserve" style="white-space: pre" font-family="Roboto" font-size="6" letter-spacing="0em"><tspan x="256" y="156.551">Ca&#xed;da libre</tspan></text>
<text fill="white" xml:space="preserve" style="white-space: pre" font-family="Roboto" font-size="8" font-weight="bold" letter-spacing="0em"><tspan x="257" y="186.234">Sexta etapa</tspan></text>
<text fill="white" xml:space="preserve" style="white-space: pre" font-family="Roboto" font-size="6" letter-spacing="0em"><tspan x="257" y="194.551">Motores encedidos y </tspan><tspan x="257" y="201.551">control de trayectoria</tspan></text>
<text fill="#BBECF9" xml:space="preserve" style="white-space: pre" font-family="Roboto" font-size="8" font-weight="bold" letter-spacing="0em"><tspan x="304" y="269.234">S&#xe9;ptima etapa</tspan></text>
<path d="M159.531 78.6958L161.275 80.2524L179.166 60.1802L177.602 58.6157L159.531 78.6958Z" fill="#B2B2B2" stroke="black" stroke-width="0.330189" stroke-miterlimit="10"/>
<path d="M161.389 80.2432L159.536 78.5906L159.049 79.1366L160.903 80.7892L161.389 80.2432Z" fill="#4D4D4D" stroke="black" stroke-width="0.330189" stroke-miterlimit="10"/>
<path d="M159.219 79.2982L158.534 79.701L160.392 81.3554L160.685 80.6045L159.219 79.2982Z" fill="#4D4D4D" stroke="black" stroke-width="0.330189" stroke-miterlimit="10"/>
<path d="M159.112 80.2079L159.018 80.313L159.672 80.896L159.766 80.7909L159.112 80.2079Z" fill="#4D4D4D" stroke="black" stroke-width="0.330189" stroke-miterlimit="10"/>
<path d="M160.685 80.6045L159.77 80.8001L159.965 79.9631L159.113 80.2173L159.219 79.2982L160.685 80.6045Z" fill="#4D4D4D" stroke="black" stroke-width="0.330189" stroke-miterlimit="10" stroke-linecap="round" stroke-linejoin="round"/>
<path d="M179.361 59.9846L161.326 80.1977L161.423 80.2837L160.857 80.9174L160.681 80.757L160.43 81.3984L159.809 80.843L159.711 80.9486L159.058 80.3659L159.152 80.2603L158.573 79.744L159.156 79.3998L158.929 79.1964L159.492 78.5628L159.578 78.641L177.797 58.4202L179.361 59.9846Z" stroke="black" stroke-width="0.990566" stroke-miterlimit="10" stroke-linecap="round" stroke-linejoin="round"/>
<text fill="white" xml:space="preserve" style="white-space: pre" font-family="Roboto" font-size="7" letter-spacing="0em"><tspan x="176.443" y="125.393">ATM&#xd3;SFERA</tspan></text>
<text fill="white" xml:space="preserve" style="white-space: pre" font-family="Roboto" font-size="6" letter-spacing="0em"><tspan x="304" y="277.551">Despliegue de patas </tspan><tspan x="304" y="284.551">y aterrizaje</tspan></text>
<text fill="#BBECF9" xml:space="preserve" style="white-space: pre" font-family="Roboto" font-size="5" font-weight="600" letter-spacing="0em"><tspan x="249" y="281.709">91m</tspan></text>
<text fill="#BBECF9" xml:space="preserve" style="white-space: pre" font-family="Roboto" font-size="5" font-weight="600" letter-spacing="0em"><tspan x="200" y="273.709">52m</tspan></text>
<path d="M246.971 215.749V222.953" stroke="white" stroke-opacity="0.51" stroke-width="1.0291" stroke-miterlimit="10" stroke-linecap="round" stroke-linejoin="round"/>
<path d="M209.953 256.724V259.876L212.204 258.975L209.953 256.724Z" fill="#DADADA" stroke="black" stroke-width="0.356964" stroke-miterlimit="10" stroke-linecap="round" stroke-linejoin="round"/>
<path d="M205 260.326L211.754 258.975L209.953 256.724L270.29 245.917L272.091 248.168L275.693 247.268L286.5 261.677L281.547 262.577L283.798 265.729L223.345 276.722L221.154 273.753L215.356 275.185L205 260.326Z" fill="#DADADA" stroke="black" stroke-width="0.356964" stroke-miterlimit="10" stroke-linecap="round" stroke-linejoin="round"/>
<path d="M215.308 274.285L215.356 277.887L205 263.478V260.326L215.308 274.285Z" fill="#DADADA" stroke="black" stroke-width="0.356964" stroke-miterlimit="10" stroke-linecap="round" stroke-linejoin="round"/>
<path d="M223.933 276.487V279.89L221.469 276.487V273.229L223.933 276.487Z" fill="#DADADA" stroke="black" stroke-width="0.356964" stroke-miterlimit="10" stroke-linecap="round" stroke-linejoin="round"/>
<path d="M215.356 277.887L221.469 276.585V273.195L215.308 274.362L215.356 277.887Z" fill="#DADADA" stroke="black" stroke-width="0.356964" stroke-miterlimit="10" stroke-linecap="round" stroke-linejoin="round"/>
<path d="M283.798 265.729V269.332L223.933 279.89V276.292L283.798 265.729Z" fill="#DADADA" stroke="black" stroke-width="0.356964" stroke-miterlimit="10" stroke-linecap="round" stroke-linejoin="round"/>
<path d="M286.5 265.279V261.677L281.547 262.577L283.798 265.729L286.5 265.279Z" fill="#DADADA" stroke="black" stroke-width="0.356964" stroke-miterlimit="10" stroke-linecap="round" stroke-linejoin="round"/>
<path d="M247.036 268.8C255.373 268.8 262.131 265.352 262.131 261.099C262.131 256.846 255.373 253.398 247.036 253.398C238.7 253.398 231.942 256.846 231.942 261.099C231.942 265.352 238.7 268.8 247.036 268.8Z" stroke="black" stroke-width="0.356964" stroke-miterlimit="10" stroke-linecap="round" stroke-linejoin="round"/>
<path d="M247 266C253.075 266 258 263.538 258 260.5C258 257.462 253.075 255 247 255C240.925 255 236 257.462 236 260.5C236 263.538 240.925 266 247 266Z" stroke="black" stroke-width="0.356964" stroke-miterlimit="10" stroke-linecap="round" stroke-linejoin="round" stroke-dasharray="0.71 0.71"/>
<path d="M245.048 252.221L235.169 262.127L245.075 256.79" fill="#B2B2B2"/>
<path d="M245.048 252.221L235.169 262.127L245.075 256.79" stroke="black" stroke-width="0.643287" stroke-miterlimit="10" stroke-linecap="round" stroke-linejoin="round"/>
<path d="M248.677 252.221L258.583 262.127L248.772 256.856" fill="#B2B2B2"/>
<path d="M248.677 252.221L258.583 262.127L248.772 256.856" stroke="black" stroke-width="0.643287" stroke-miterlimit="10" stroke-linecap="round" stroke-linejoin="round"/>
<path d="M244.751 256.754L248.712 256.814V211H244.751V256.754Z" fill="#B2B2B2" stroke="black" stroke-width="0.559388" stroke-miterlimit="10"/>
<path d="M248.861 256.676L244.656 256.616L244.638 257.855L248.843 257.915L248.861 256.676Z" fill="#4D4D4D" stroke="black" stroke-width="0.559388" stroke-miterlimit="10"/>
<path d="M245.022 257.874L244.592 259.153L248.804 259.213L248.347 257.921L245.022 257.874Z" fill="#4D4D4D" stroke="black" stroke-width="0.559388" stroke-miterlimit="10"/>
<path d="M245.89 259.154L245.887 259.392L247.371 259.413L247.374 259.175L245.89 259.154Z" fill="#4D4D4D" stroke="black" stroke-width="0.559388" stroke-miterlimit="10"/>
<path d="M248.347 257.921L247.394 259.193L246.718 257.901L245.91 259.173L245.022 257.874L248.347 257.921Z" fill="#4D4D4D" stroke="black" stroke-width="0.241233" stroke-miterlimit="10" stroke-linecap="round" stroke-linejoin="round"/>
<path d="M248.718 256.688V211H244.757V256.635L244.559 256.629L244.539 258.066L245.055 258.073L244.691 259.16L246.003 259.18V259.418L247.486 259.445V259.199L248.897 259.219L248.506 258.126L248.917 258.133L248.937 256.695L248.718 256.688Z" stroke="black" stroke-width="0.562876" stroke-miterlimit="10" stroke-linecap="round" stroke-linejoin="round"/>
<path d="M298.25 263C298.25 291.857 274.857 315.25 246 315.25C217.143 315.25 193.75 291.857 193.75 263C193.75 234.143 217.143 210.75 246 210.75C274.857 210.75 298.25 234.143 298.25 263Z" stroke="#BBECF9" stroke-width="1.5"/>
<path d="M127 284.443V325.443H58" stroke="white" stroke-width="0.5"/>
<path d="M246.662 207.452C246.65 207.413 246.615 207.386 246.572 207.382H246.568C246.529 207.382 246.494 207.405 246.478 207.445L246.165 208.223L246.067 206.834C246.063 206.787 246.028 206.748 245.981 206.744C245.977 206.744 245.974 206.744 245.97 206.744C245.927 206.744 245.887 206.772 245.876 206.815L245.602 207.691L245.469 206.197C245.465 206.169 245.45 206.142 245.426 206.126C245.411 206.115 245.391 206.111 245.371 206.111C245.364 206.111 245.352 206.111 245.344 206.115L245.113 206.181C245.192 205.528 245.504 202.865 245.54 201.015C245.778 201.077 246.325 201.198 246.943 201.198C247.268 201.198 247.565 201.163 247.835 201.097C247.921 201.64 248.315 204.147 248.48 205.9L248.155 205.724C248.139 205.716 248.124 205.712 248.108 205.712C248.089 205.712 248.069 205.716 248.053 205.728C248.022 205.747 248.007 205.782 248.01 205.817L248.1 206.819L247.936 206.263C247.924 206.22 247.885 206.193 247.842 206.193C247.835 206.193 247.831 206.193 247.823 206.193C247.772 206.201 247.741 206.248 247.745 206.299L247.909 207.984L247.393 207.206C247.373 207.179 247.346 207.163 247.311 207.163C247.303 207.163 247.299 207.163 247.291 207.163C247.252 207.171 247.221 207.202 247.213 207.241L246.978 208.555L246.662 207.452Z" fill="#BBECF9"/>
<path d="M245.637 201.132C245.919 201.198 246.407 201.292 246.947 201.292C247.236 201.292 247.51 201.265 247.756 201.21C247.866 201.891 248.202 204.081 248.366 205.72L248.206 205.63C248.179 205.614 248.143 205.606 248.112 205.606C248.073 205.606 248.038 205.618 248.007 205.638C247.948 205.677 247.913 205.747 247.921 205.818L247.948 206.115C247.921 206.099 247.885 206.087 247.85 206.087C247.838 206.087 247.827 206.087 247.811 206.091C247.713 206.111 247.643 206.201 247.655 206.302L247.78 207.597L247.483 207.147C247.447 207.093 247.385 207.061 247.318 207.061C247.307 207.061 247.291 207.061 247.279 207.065C247.201 207.081 247.142 207.143 247.127 207.222L246.963 208.129L246.755 207.421C246.732 207.343 246.662 207.284 246.576 207.28C246.572 207.28 246.568 207.28 246.568 207.28C246.49 207.28 246.415 207.327 246.388 207.402L246.235 207.781L246.169 206.819C246.161 206.725 246.091 206.651 245.997 206.639C245.989 206.639 245.981 206.639 245.973 206.639C245.887 206.639 245.813 206.694 245.786 206.776L245.661 207.179L245.571 206.177C245.567 206.119 245.536 206.068 245.485 206.033C245.454 206.009 245.414 205.997 245.375 205.997C245.356 205.997 245.34 206.001 245.321 206.005L245.231 206.033C245.328 205.219 245.594 202.861 245.637 201.132ZM245.446 200.882C245.422 203.005 245 206.31 245 206.31L245.375 206.201L245.551 208.188L245.97 206.842L246.095 208.657L246.564 207.484L247.006 208.986L247.315 207.265L248.046 208.372L247.842 206.295L248.284 207.797L248.108 205.81L248.593 206.076C248.417 204.089 247.913 200.975 247.913 200.975C247.596 201.069 247.26 201.101 246.943 201.101C246.142 201.097 245.446 200.882 245.446 200.882Z" fill="black"/>
<path d="M126.662 279.571C126.65 279.532 126.615 279.504 126.572 279.5H126.568C126.529 279.5 126.494 279.524 126.478 279.563L126.165 280.341L126.067 278.953C126.063 278.906 126.028 278.867 125.981 278.863C125.977 278.863 125.974 278.863 125.97 278.863C125.927 278.863 125.887 278.89 125.876 278.933L125.602 279.809L125.469 278.315C125.465 278.288 125.45 278.261 125.426 278.245C125.411 278.233 125.391 278.229 125.371 278.229C125.364 278.229 125.352 278.229 125.344 278.233L125.113 278.3C125.192 277.646 125.504 274.983 125.54 273.133C125.778 273.196 126.325 273.317 126.943 273.317C127.268 273.317 127.565 273.282 127.835 273.215C127.921 273.759 128.315 276.266 128.48 278.018L128.155 277.842C128.139 277.834 128.124 277.83 128.108 277.83C128.089 277.83 128.069 277.834 128.053 277.846C128.022 277.865 128.007 277.901 128.01 277.936L128.1 278.937L127.936 278.382C127.924 278.339 127.885 278.311 127.842 278.311C127.835 278.311 127.831 278.311 127.823 278.311C127.772 278.319 127.741 278.366 127.745 278.417L127.909 280.103L127.393 279.324C127.373 279.297 127.346 279.281 127.311 279.281C127.303 279.281 127.299 279.281 127.291 279.281C127.252 279.289 127.221 279.32 127.213 279.36L126.978 280.674L126.662 279.571Z" fill="#BBECF9"/>
<path d="M125.637 273.25C125.919 273.317 126.407 273.411 126.947 273.411C127.236 273.411 127.51 273.383 127.756 273.329C127.866 274.009 128.202 276.199 128.366 277.838L128.206 277.748C128.179 277.733 128.143 277.725 128.112 277.725C128.073 277.725 128.038 277.736 128.007 277.756C127.948 277.795 127.913 277.866 127.921 277.936L127.948 278.233C127.921 278.218 127.885 278.206 127.85 278.206C127.838 278.206 127.827 278.206 127.811 278.21C127.713 278.229 127.643 278.319 127.655 278.421L127.78 279.716L127.483 279.266C127.447 279.211 127.385 279.18 127.318 279.18C127.307 279.18 127.291 279.18 127.279 279.184C127.201 279.199 127.142 279.262 127.127 279.34L126.963 280.247L126.755 279.54C126.732 279.461 126.662 279.403 126.576 279.399C126.572 279.399 126.568 279.399 126.568 279.399C126.49 279.399 126.415 279.446 126.388 279.52L126.235 279.899L126.169 278.937C126.161 278.843 126.091 278.769 125.997 278.757C125.989 278.757 125.981 278.757 125.973 278.757C125.887 278.757 125.813 278.812 125.786 278.894L125.661 279.297L125.571 278.296C125.567 278.237 125.536 278.186 125.485 278.151C125.454 278.128 125.414 278.116 125.375 278.116C125.356 278.116 125.34 278.12 125.321 278.124L125.231 278.151C125.328 277.338 125.594 274.979 125.637 273.25ZM125.446 273C125.422 275.124 125 278.429 125 278.429L125.375 278.319L125.551 280.306L125.97 278.961L126.095 280.775L126.564 279.602L127.006 281.104L127.315 279.383L128.046 280.49L127.842 278.413L128.284 279.915L128.108 277.928L128.593 278.194C128.417 276.207 127.913 273.094 127.913 273.094C127.596 273.188 127.26 273.219 126.943 273.219C126.142 273.215 125.446 273 125.446 273Z" fill="black"/>
<path d="M135.5 274.5L197.5 242" stroke="#BBECF9" stroke-width="0.5" stroke-dasharray="1 1"/>
<path d="M136 284.5L203 294" stroke="#BBECF9" stroke-width="0.5" stroke-dasharray="1 1"/>
</svg>
