<svg width="76" height="76" viewBox="0 0 76 76" fill="none" xmlns="http://www.w3.org/2000/svg">
<circle cx="38" cy="38" r="34" fill="white"/>
<path d="M75.65 38C75.65 58.7935 58.7935 75.65 38 75.65C17.2065 75.65 0.35 58.7935 0.35 38C0.35 17.2065 17.2065 0.35 38 0.35C58.7935 0.35 75.65 17.2065 75.65 38Z" stroke="#BBECF9" stroke-width="0.7"/>
<path d="M23.1421 34.6667H17.5409L17.3333 34.8278V40H18.8839V38.0605L19.0319 37.9228H23.1423C24.1801 37.9228 24.6667 37.6329 24.6667 36.8893V35.7017C24.6665 34.9567 24.1801 34.6667 23.1421 34.6667ZM23.1421 36.5789C23.1421 36.9293 22.9188 37.002 22.4322 37.002H19.0489L18.8837 36.8353V35.7274L19.0317 35.5868H22.4322C22.9188 35.5868 23.1421 35.6588 23.1421 36.0108V36.5789Z" fill="#1F1E25"/>
<path d="M27.6108 35.6982L28.8543 37.702L28.7854 37.8961H26.0353L25.3333 38.8459H29.4269L29.7106 39.0359L30.3462 40H32L28.375 34.6667" fill="#1F1E25"/>
<path d="M44.8479 39.0119V37.6613L45.0012 37.5267H47.8528V36.6667H43.3333V40H50V39.1441H45.0079" fill="#1F1E25"/>
<path d="M50 34.6667H43.3333V36H50V34.6667Z" fill="#1F1E25"/>
<path d="M35.7291 35.619H41.3333C41.247 34.8735 40.8048 34.6667 39.6831 34.6667H35.6695C34.4038 34.6667 34 34.9251 34 35.9272V38.7385C34 39.7416 34.4038 40 35.6695 40H39.6831C40.8212 40 41.2571 39.7764 41.2868 39.0032H35.7291L35.5643 38.8409V35.7276" fill="#1F1E25"/>
<path d="M13.6878 36.7448H9.69742L9.57991 36.6065V35.6942L9.69684 35.5976H15.0762L15.1497 35.4055C14.9665 34.9017 14.492 34.6667 13.6109 34.6667H9.87407C8.63597 34.6667 8.2402 34.9251 8.2402 35.9272V36.5166C8.2402 37.5199 8.63597 37.7779 9.87407 37.7779H13.8556L13.9806 37.8952V38.849L13.8786 38.9978H9.32434V38.9932H8.13142C8.13142 38.9932 7.99491 39.0664 8.00015 39.1006C8.10195 39.8015 8.54871 40 9.6183 40H13.6878C14.9257 40 15.3333 39.7416 15.3333 38.7385V38.0042C15.3333 37.0028 14.9257 36.7448 13.6878 36.7448Z" fill="#1F1E25"/>
<path d="M54.3444 34.6667H52.1207L52 34.9684L54.4695 37.3334C54.9373 36.9775 55.4463 36.6169 56 36.261" fill="#1F1E25"/>
<path d="M56.6667 38.3652L58.9104 40H61.237L61.3334 39.7835L57.983 37.3333C57.5381 37.6596 57.0985 38.0042 56.6667 38.3652Z" fill="#1F1E25"/>
<path d="M54.1694 40H52.169L52 39.7289C53.3601 38.3838 59.4435 32.6178 72.6667 32C72.6667 32 61.5677 32.3835 54.1694 40Z" fill="#1F1E25"/>
</svg>
