<svg width="76" height="76" viewBox="0 0 76 76" fill="none" xmlns="http://www.w3.org/2000/svg">
<path d="M75.65 38C75.65 58.7935 58.7935 75.65 38 75.65C17.2065 75.65 0.35 58.7935 0.35 38C0.35 17.2065 17.2065 0.35 38 0.35C58.7935 0.35 75.65 17.2065 75.65 38Z" stroke="#BBECF9" stroke-width="0.7"/>
<mask id="mask0_79_63" style="mask-type:alpha" maskUnits="userSpaceOnUse" x="3" y="3" width="70" height="70">
<circle cx="38" cy="38" r="34.2" fill="#D9D9D9"/>
</mask>
<g mask="url(#mask0_79_63)">
<path d="M72.2 -6.07996H3.79999V91.6978H72.2V-6.07996Z" fill="white"/>
<path d="M53.3839 14.9169C53.4122 14.9878 53.4413 15.058 53.4695 15.1289V15.1165L53.6578 15.2842L53.8393 15.4147C53.8435 15.422 53.8498 15.4276 53.8574 15.4308C53.865 15.434 53.8733 15.4346 53.8812 15.4324L53.8992 15.7066L53.6227 15.6348C53.6287 15.7049 53.6347 15.7679 53.6399 15.8318L53.1656 15.743L53.1502 15.8096L53.4875 15.9817L52.7967 16.0616L51.9108 15.822C51.8954 15.854 51.8808 15.8859 51.8663 15.9178L52.8815 16.4139L53.1383 16.4237L53.5662 16.5825C53.6176 16.6446 53.722 16.7493 53.7126 16.76C53.4199 17.1469 53.746 17.1611 53.9694 17.2356L54.1312 17.3244L53.8111 17.5666L53.514 17.8054L54.1714 18.1133H53.4293L53.6861 18.7185C53.6433 18.8294 53.5859 18.975 53.5448 19.0797L53.2512 19.1586L53.2127 19.0442L53.0415 19.0318C53.0535 19.077 53.0664 19.1205 53.0792 19.1684C53.1023 19.1933 53.1263 19.2181 53.1494 19.2438C53.0244 19.2279 52.8815 19.1702 52.7805 19.2137C52.724 19.2385 52.7197 19.4337 52.7248 19.5509C52.7409 19.6332 52.7755 19.7105 52.8258 19.7763C52.9808 20.0425 53.1451 20.2644 53.0569 20.6539C52.9927 20.9388 53.2136 21.2929 53.3052 21.6168C53.314 21.6598 53.32 21.7034 53.3231 21.7472L53.0877 21.6407C53.0775 21.5653 53.0672 21.489 53.0578 21.4135L52.9431 21.4269L52.9662 21.7268C52.8669 22.0516 52.7685 22.3764 52.6803 22.6666L52.5305 22.5308C52.5485 22.8857 52.5622 23.1573 52.5793 23.4883C52.5151 23.3197 52.4697 23.2026 52.4252 23.0863L52.3456 23.0819C52.3054 23.4874 52.2694 23.8938 52.2206 24.2976C52.2129 24.3562 52.1436 24.4085 52.0982 24.4591C51.773 24.8141 51.6574 25.7325 51.868 26.1851C51.9245 26.3049 52.1248 26.4407 51.8586 26.5942C51.8106 26.6226 51.9039 26.9092 51.9313 27.077C51.7541 27.4133 51.6429 27.8295 51.1079 27.6582C51.0343 27.6351 50.8622 27.8596 50.7741 27.9954C50.6962 28.1152 50.6713 28.2723 50.6234 28.4125C50.6097 28.3593 50.5952 28.306 50.5806 28.2528C50.7081 27.8259 50.489 27.6156 50.1227 27.4443C50.1227 27.6777 50.1227 27.8685 50.1227 28.0593C50.1227 28.2501 50.1346 28.4409 50.1406 28.6317L49.7982 29.6194C49.7383 29.9113 49.6784 30.2042 49.6271 30.4402L49.5415 30.213L49.2907 30.9478C49.1993 31.3347 49.108 31.7213 49.0167 32.1076C48.9311 32.0855 48.7959 32.0145 48.7599 32.0491C48.6195 32.2119 48.4908 32.3851 48.3748 32.5673C48.4527 31.8867 48.5228 31.2788 48.5982 30.6292L48.7788 30.7712C48.7993 30.6204 48.8216 30.4526 48.8447 30.2769C48.1163 29.8891 48.9996 29.2901 48.7137 28.8251L48.9277 29.0097C48.4878 28.5536 48.6975 27.9794 48.6589 27.4745C48.629 27.0849 48.7266 26.6838 48.7677 26.2881C48.7882 26.0928 48.7677 25.879 48.8378 25.7068C49.009 25.2977 49.0638 24.9144 48.8284 24.5124C48.6812 24.2621 48.4775 24.0065 48.4415 23.7332C48.3217 22.8361 47.4589 22.813 46.9975 22.3258L47.2868 22.285V22.2282L47.0172 22.1643C47.0095 22.1386 47.0009 22.1137 46.9949 22.0871C47.0048 22.0804 47.0159 22.0758 47.0275 22.0738C47.167 22.0507 47.3065 22.0294 47.5359 21.993L47.2166 21.6957C47.3022 21.3807 47.3981 21.1234 47.4169 20.8598C47.4229 20.7799 47.2064 20.6823 47.0275 20.5439L47.3699 20.5909L47.6326 20.63L47.6506 20.5652L47.4452 20.4764L47.3373 20.338L47.3305 20.3424C47.559 20.3265 47.8252 20.6087 48.011 20.2537L48.005 20.2617L48.1034 20.2129L47.4032 18.659L47.5667 18.6076L47.4032 18.5765C47.4032 18.4425 47.4486 18.2695 47.3853 18.1816C47.1901 17.9154 46.953 17.6758 46.7321 17.4264H46.739C46.4334 16.9827 46.0893 16.5577 45.8368 16.082C45.6656 15.7643 45.5115 15.5496 45.14 15.5886C45.1203 15.5886 45.0972 15.5584 45.1212 15.5762L45.3343 15.3526C45.1631 15.1973 45.0527 15.0491 44.9064 14.987C44.7172 14.9035 44.4664 14.9399 44.3072 14.8281C44.0821 14.671 43.916 14.4243 43.7243 14.2158L43.779 14.1723L43.7302 14.2256L43.3023 14.3063L43.4854 13.883C42.9958 14.1768 42.6449 14.0871 42.2486 13.9034C41.9122 13.7473 41.4602 14.277 41.1435 13.8342L40.4835 14.1004C40.4416 13.9833 40.4099 13.8963 40.3714 13.7863L39.9126 14.1812L39.75 13.9389L39.066 14.2415L38.0158 13.7091L37.7367 14.0907C37.6126 14.0582 37.4855 14.0398 37.3575 14.0357C37.1007 14.057 36.8439 14.104 36.5872 14.1413C36.4528 14.1608 36.2773 14.1351 36.1917 14.2131C35.8493 14.5246 35.4119 13.9664 35.0918 14.3587C34.8179 14.0845 34.615 14.3587 34.3813 14.4474C34.2475 14.4955 34.1045 14.5095 33.9644 14.4882C33.6221 14.4377 33.2797 14.3525 32.9604 14.585L32.9681 14.5796C32.7627 14.6125 32.5076 14.7394 32.3689 14.656C32.184 14.5486 32.0933 14.5255 31.9332 14.6613C31.7903 14.774 31.6191 14.8485 31.4659 14.9515C30.9317 15.326 30.2461 15.5176 30.0004 16.2462C29.9833 16.2968 29.9508 16.3704 29.9148 16.3802C29.5185 16.4831 29.3585 16.7919 29.2771 17.0786C29.1179 17.2197 28.9724 17.2969 28.8988 17.4211C28.517 18.0654 28.089 18.6892 28.0822 19.5021C28.0822 19.7088 28.0334 19.9848 27.7056 20.0558C27.7501 19.8482 27.7817 19.7009 27.8126 19.5562C27.6756 19.6858 27.6414 19.8428 27.5669 19.9804C27.1389 20.8012 27.4385 21.8439 26.8265 22.608C26.7974 22.6435 26.8659 22.7642 26.8924 22.8449C27.0045 23.1955 27.192 23.5202 27.0704 23.9284C27.0268 24.0775 27.1286 24.2887 27.1997 24.4547C27.3563 24.8176 27.5369 25.1708 27.727 25.5693H29.1881V24.9978L29.8232 25.2764L29.4903 25.3731L29.7967 25.4929L29.813 25.5063L29.7907 25.4992C30.0852 25.4832 30.3959 25.3989 30.6707 25.4672C31.1303 25.5817 31.5566 25.8727 32.018 25.9393C32.3758 25.9917 32.38 26.1576 32.4091 26.4629H30.9061V26.4682L29.2215 25.847L28.945 26.2739C28.5496 26.2091 28.2996 26.4194 28.1918 26.8427L28.7986 26.9447V28.1977L28.9014 28.2173L28.6488 28.5314L28.6925 28.5855L29.284 28.2403C29.2883 28.3291 29.2925 28.4258 29.2977 28.5438C29.6401 28.3797 29.9499 28.1889 30.2846 28.0842C30.6193 27.9794 30.9976 27.9652 31.3563 27.9111L32.0265 28.0362C32.1662 28.1035 32.3025 28.1782 32.4348 28.2599C32.8037 28.5119 33.1667 28.7737 33.5313 29.031L33.4372 29.1677L32.8174 28.7444L32.1789 28.2483C31.9983 29.173 31.5754 29.4348 30.8247 29.1854L30.4207 28.3078C30.3899 28.3229 30.3274 28.3566 30.2641 28.3877C29.8224 28.5989 29.6983 29.0816 29.4612 29.4525C29.3413 29.6416 29.3216 29.7729 29.0948 29.6211C29.0144 29.5679 28.88 29.4978 28.8183 29.5324C28.363 29.7773 28.2192 29.3354 27.9803 29.1313C27.7614 28.9261 27.5526 28.7096 27.3546 28.4826L27.0122 28.9032C27.067 28.9334 27.1338 28.9476 27.1381 28.9742C27.2382 29.5155 27.4864 30.0613 27.0525 30.5831C26.9669 30.6905 26.9378 30.8786 26.9318 31.0321C26.9155 31.4119 26.9489 31.7953 26.9198 32.1742C26.9001 32.4404 26.8838 32.6286 27.1766 32.7537C27.3289 32.8185 27.59 33.0199 27.2262 33.2178L27.0961 32.9658L27.0105 33.0439L27.2348 33.2116C27.2647 33.35 27.2485 33.5452 27.3315 33.618C27.7312 33.973 27.6362 34.3528 27.4642 34.714C27.572 34.9598 27.6482 35.3493 27.7646 35.3626C28.1199 35.4035 27.9983 35.7176 28.125 35.8694C28.2269 35.9945 28.2594 36.1791 28.3544 36.3131C28.5367 36.5677 28.8038 36.7763 28.9219 37.0558C29.0503 37.3611 29.1213 37.6637 29.4749 37.7657C29.4971 37.772 29.5023 37.8403 29.5211 37.898L29.2497 38.142L29.4209 38.3754L28.9074 38.5529L28.6737 38.0204C28.6069 38.3088 28.5727 38.4579 28.5119 38.7188C28.4015 38.315 28.3261 38.0426 28.2551 37.7702L28.1695 37.7959C28.1507 37.9166 28.1327 38.0364 28.1027 38.2396L27.7176 37.1579L27.6054 37.1969C27.6123 37.2644 27.6234 37.3327 27.6251 37.4001C27.6414 38.0213 27.982 38.6221 27.7441 39.2637L27.7398 39.2592C27.8126 39.3258 27.8758 39.4029 27.9273 39.4882C28.0625 39.8103 28.1524 40.1564 28.3142 40.4643C28.5191 40.8367 28.7505 41.1926 29.0066 41.5292C29.076 41.6233 29.2463 41.6375 29.3704 41.689C29.3995 41.5674 29.456 41.444 29.4518 41.3242C29.4372 41.0518 29.3901 40.7803 29.3559 40.5087C29.6281 40.8717 29.7685 41.2905 30.0312 41.5976C30.5448 42.1948 31.0713 42.7592 31.4154 43.4948C31.7254 44.1248 32.0683 44.7369 32.4425 45.3282C32.6505 45.6716 32.6702 46.3247 33.3507 46.0248C33.3712 46.022 33.392 46.0236 33.4117 46.0298C33.4315 46.0359 33.4498 46.0463 33.4654 46.0603C33.6049 46.1721 33.7402 46.291 33.9045 46.4312V46.9513C34.2812 46.9406 34.2854 47.1696 34.2093 47.4704C34.0911 47.9301 34.2212 48.1732 34.6201 48.3498C34.7057 48.3871 34.7562 48.5024 34.7956 48.5486L33.7333 49.1538V49.4298C33.5116 49.4662 33.2685 49.4298 33.177 49.5372C32.9963 49.7466 32.8996 50.0332 32.7687 50.2879L32.2551 49.4954C32.0531 49.0597 31.8819 48.608 31.643 48.1936C31.156 47.3417 30.6005 46.5431 30.5919 45.4959C30.5919 45.3406 30.5243 45.1862 30.4875 45.0318C30.1357 46.1375 29.8977 47.2335 29.8986 48.3711C29.7822 50.0652 29.6743 51.7592 29.5459 53.4515C29.4783 54.3504 29.2968 55.2476 29.3062 56.143C29.3157 57.1324 29.4843 58.1201 29.5853 59.1327L29.2883 58.6694C29.2489 58.9401 29.2146 59.1025 29.2027 59.2675C29.0554 61.4301 28.8603 63.591 28.779 65.7554C28.6934 67.9393 28.6531 70.1285 28.7113 72.3115C28.779 74.8335 28.8868 77.3608 29.1393 79.8677C29.391 82.3374 29.7222 84.8053 30.3437 87.219C30.7152 88.6664 31.0173 90.1341 31.3537 91.5921C31.3701 91.6309 31.3927 91.6666 31.4205 91.6977H3.80849C3.80849 90.1891 3.83931 88.6805 3.80849 87.172C3.76912 85.3315 3.89409 83.515 4.35974 81.7322C4.38418 81.6471 4.40024 81.5597 4.40768 81.4713C4.49755 79.9884 4.55148 78.502 4.69015 77.0236C4.74664 76.422 4.99573 75.8407 5.1421 75.2488C5.23421 74.9032 5.3006 74.5507 5.34069 74.1946C5.38432 73.769 5.39377 73.3404 5.36893 72.9132C5.34937 72.4659 5.2854 72.0219 5.17805 71.5883C4.89301 70.5322 5.28933 69.6227 5.6788 68.7033C5.90049 68.1806 6.1239 67.6588 6.33276 67.1308C6.35373 67.0336 6.34567 66.9321 6.30965 66.8398C5.88166 65.3729 6.00407 63.9042 6.22405 62.416C6.39525 61.2518 6.42178 60.0653 6.56644 58.8948C6.73764 57.5034 7.08003 56.1687 8.12003 55.1677C8.26555 55.0275 8.52491 55.016 8.7312 54.9432C8.95889 54.8625 9.19342 54.7941 9.41598 54.693C9.921 54.4614 10.4106 54.1951 10.9199 53.976C12.354 53.3583 13.7914 52.7504 15.2323 52.1523C16.2107 51.7477 17.2105 51.398 18.1811 50.9748C20.5616 49.9374 22.9232 48.8539 25.308 47.8271C26.0484 47.5085 26.8753 47.3923 27.5951 47.0356C28.446 46.614 29.2592 46.0807 29.7214 45.1463C30.0586 44.4639 29.9825 44.2766 29.3268 43.8906C29.1068 43.761 28.963 43.4593 28.8269 43.2109C28.3227 42.2888 27.7201 41.3997 27.3717 40.4155C26.9069 39.0995 26.7726 37.6947 26.8042 36.274C26.8222 35.4248 26.7084 34.5693 26.621 33.721C26.6014 33.5355 26.4362 33.366 26.3523 33.1885C26.1871 32.8335 26.0373 32.4697 25.8704 32.1156C25.7034 31.7616 25.492 31.4332 25.3619 31.0685C25.2763 30.8325 25.3063 30.5538 25.2832 30.2938C25.3882 30.5577 25.4937 30.8209 25.5999 31.0836C25.6486 30.6436 25.6463 30.199 25.593 29.7596C25.5776 29.6353 25.4218 29.5289 25.3362 29.4135C25.2525 29.1616 25.1836 28.9047 25.1299 28.6441C25.0529 28.1303 25.0101 27.6112 24.9476 27.0947C24.7918 25.8018 24.6386 24.5088 24.4708 23.2176C24.4378 23.0091 24.3525 22.8133 24.2235 22.6497C24.1516 22.5388 24.0326 22.4349 24.0146 22.3143C23.9518 21.9059 23.9132 21.494 23.899 21.0808C23.8931 20.8456 23.9846 20.6104 23.9941 20.3708C24.0103 20.0549 24.0968 19.7292 23.7373 19.4967C23.531 19.3636 23.4137 19.0903 23.2331 18.9049C23.1447 18.8316 23.0338 18.7938 22.9207 18.7984C22.6947 18.7984 22.4362 18.9093 22.473 18.486C22.473 18.4372 22.2573 18.368 22.1417 18.3085C22.1332 18.3032 22.1289 18.2828 22.1289 18.2686C22.1307 18.2542 22.1345 18.2402 22.14 18.2269C22.3968 18.1674 22.6536 18.1115 22.9036 18.0441C22.9351 18.0365 22.9649 18.0224 22.9912 18.0028C23.0175 17.9831 23.0398 17.9582 23.0568 17.9296C23.1732 17.6421 23.2887 17.3528 23.3786 17.0564C23.4437 16.8407 23.3923 16.7289 23.1218 16.6837C22.6938 16.6136 22.2847 16.4476 21.8944 16.3287C21.8473 16.1042 21.8088 15.9187 21.7685 15.7333L22.3677 15.9542L22.4345 15.6534C22.877 15.9196 23.1578 15.6791 23.4616 15.3526C23.8563 14.9284 24.3074 14.5619 24.7302 14.1661C24.9776 13.9345 25.1051 13.7126 24.8552 13.3541C24.7345 13.1767 24.7935 12.8714 24.7696 12.6229L25.7985 11.7151C26.0858 11.3606 26.3462 10.9835 26.5774 10.5872C26.7957 10.203 27.0388 9.86398 27.0978 9.41051L27.6713 9.23303C27.8896 9.5809 28.2508 9.86753 27.9392 10.3769C27.9007 10.4399 28.1481 10.7256 28.3005 10.865C28.3655 10.9253 28.5247 10.8747 28.6976 10.8747C28.5127 10.5659 28.3347 10.3867 28.2979 10.1808C28.2294 9.7921 28.2423 9.38744 28.2209 8.989L28.2388 8.90026C28.244 8.89708 28.2485 8.89286 28.252 8.88784C28.2555 8.88283 28.2581 8.87713 28.2594 8.87108C28.2608 8.86503 28.2609 8.85876 28.2599 8.85264C28.2589 8.84652 28.2567 8.84069 28.2534 8.83548C28.434 8.54175 28.5684 8.19832 28.8055 7.96671C29.1128 7.66765 29.3507 7.78479 29.5613 8.17968C29.6127 8.27641 29.9037 8.36338 29.9516 8.31368C30.1639 8.10692 30.3069 8.25068 30.4704 8.35717L30.9891 9.18156L31.0944 9.12211C31.1123 8.90381 31.1295 8.6855 31.1474 8.4672L31.1637 8.44768C31.2442 8.43615 31.3871 8.44236 31.3957 8.40864C31.4873 8.07231 31.5557 7.72888 31.6311 7.38812C31.7672 7.21064 31.905 7.03848 32.0394 6.86189C32.1992 6.6392 32.4181 6.46954 32.6693 6.37358C32.9206 6.27762 33.1933 6.25951 33.4543 6.32146C33.7573 6.38624 34.1074 6.51846 34.3154 6.84503C34.3941 6.96838 34.5397 7.04469 34.6809 7.16449C35.0781 6.6072 35.5523 6.199 36.2174 6.09961L36.9449 6.32501L36.9158 6.37825L36.0188 6.43239C36.0188 6.60987 35.976 6.7625 36.0265 6.86633C36.2525 7.33843 36.5709 7.03582 36.8705 6.96128C37.1324 6.89561 37.4055 6.87786 37.6708 6.82728C37.8651 6.7909 38.133 6.80066 38.2349 6.67465C38.4977 6.34808 38.7536 6.27532 39.1362 6.4173C39.6695 6.61519 40.225 6.80332 40.7275 6.31525L40.8131 6.35518L41.1555 6.48297L43.1448 7.20177L43.3348 7.20798C43.5685 7.40676 43.7893 7.62328 44.0375 7.79988C44.5289 8.14863 45.0339 8.47785 45.5372 8.80797C45.5792 8.83636 45.6502 8.81773 45.7084 8.82039L45.6973 8.80531L45.7247 8.94196L45.7794 8.81595L45.8368 8.77336L46.6072 9.61284C46.6543 9.79032 46.7013 9.97579 46.7493 10.1577L46.8879 10.1249V9.87906C46.911 8.85589 46.4719 8.01552 45.8608 7.24791L45.9926 7.14763L46.638 7.9463C46.8588 8.69704 47.08 9.44779 47.3014 10.1985C47.3938 10.0352 47.4572 9.84357 47.4118 9.67851C47.2611 9.13986 47.0694 8.61363 46.8982 8.08118L46.9838 8.04125L46.8982 7.9179L46.9076 7.92411L46.7364 7.77237C47.1396 7.65612 47.2098 8.03859 47.3065 8.21607C47.5111 8.59499 47.6138 9.03248 47.767 9.44246C47.807 9.512 47.8576 9.57434 47.9168 9.62704V9.6226C48.1334 9.78855 47.8552 9.97757 47.9365 10.1435C47.9759 10.3849 48.0016 10.6307 48.0598 10.8676C48.1625 11.2874 48.2806 11.7045 48.4022 12.1198C48.4419 12.2129 48.4921 12.3008 48.5519 12.3815C48.6016 12.307 48.6461 12.228 48.7017 12.1597C48.9115 11.9006 48.6161 11.7568 48.5913 11.5687C48.5554 11.2474 48.6504 10.9102 48.6906 10.5801C48.73 11.1534 48.7762 11.7266 48.8079 12.3008C48.8122 12.3656 48.7796 12.433 48.742 12.5927L48.9457 12.4268C49.0005 12.4925 49.0441 12.5874 49.1169 12.6132C49.1563 12.6282 49.2496 12.5431 49.2881 12.4836C49.3737 12.3611 49.449 12.2245 49.5278 12.094L49.6091 12.1579C49.5997 12.2981 49.5911 12.4392 49.5731 12.7108L49.9789 12.4445L49.9729 12.4516L51.1592 12.0852L52.1419 12.2005L51.9912 12.4667L52.2823 12.6123L52.2985 12.6185C52.5399 12.9317 52.5382 13.1713 52.1359 13.3444C51.8295 13.4757 51.5419 13.6532 51.309 13.7765C51.5247 13.8653 51.7413 14.0268 51.9544 14.0224C52.4167 14.0117 52.8763 13.915 53.2906 13.86C53.3235 13.9333 53.3619 14.004 53.4053 14.0712C53.4789 14.1697 53.5645 14.2593 53.6458 14.3525L53.5406 14.3995L53.514 14.3835L53.4909 14.4048L53.3035 14.4128C53.1852 14.4341 53.0685 14.4637 52.9542 14.5016C52.932 14.5104 52.9465 14.6196 52.9439 14.679L53.0484 14.7749L53.3839 14.9169ZM25.9928 32.4085L26.0972 32.4165L26.0398 32.3277L25.9174 32.2771C25.9414 32.3215 25.9697 32.365 25.9919 32.4085H25.9928ZM47.2346 11.2102L47.2688 11.2261L47.2286 11.2173L47.0745 10.7549L46.8605 10.3458C46.6303 10.6476 46.9265 10.6582 47.0797 10.7496L47.2346 11.2102ZM49.752 27.8934C49.5012 28.4578 49.5064 28.5918 49.7905 29.3807C49.889 28.8695 50.0662 28.4152 49.752 27.8943V27.8934ZM31.2938 28.1259C31.5994 28.6264 31.7218 28.6432 32.0488 28.2661L31.2938 28.1259ZM48.5922 32.0358H48.6846L48.6649 31.853H48.6059L48.5922 32.0358ZM23.4933 15.6791L23.4077 15.5771C23.3846 15.6081 23.3478 15.6365 23.3427 15.6658C23.3375 15.6951 23.3786 15.7377 23.4026 15.7413C23.4266 15.7448 23.4539 15.7093 23.4933 15.6791Z" fill="#1F1E25"/>
<path d="M41.8514 91.6977C42.7357 88.7737 43.6986 85.8727 44.4853 82.9204C45.3601 79.637 46.151 76.3216 46.8349 72.9894C47.4444 70.0219 47.8621 67.0119 48.3568 64.0195C48.5991 62.5535 48.8747 61.0911 49.0468 59.6153C49.1555 58.6845 49.3643 57.7749 49.461 56.844C49.5603 55.8891 49.7178 54.9414 49.8342 53.9892C49.9532 53.0228 50.0465 52.0529 50.1647 51.0865C50.2811 50.1343 50.466 49.1883 50.5302 48.2326C50.6577 46.3185 50.7202 44.4008 50.2194 42.5204C50.1995 42.4496 50.1732 42.381 50.1407 42.3154C50.038 42.1069 49.931 41.8992 49.8291 41.6942C50.2057 41.7084 50.6919 42.3402 51.1268 42.9268C51.672 43.6607 52.2395 44.3795 52.8156 45.085C53.2504 45.6174 53.7572 46.0673 54.3786 46.3558C54.552 46.4247 54.708 46.5336 54.8348 46.6743C55.3904 47.3958 56.2155 47.5262 56.9893 47.7694C58.4779 48.2362 59.9904 48.6346 61.4549 49.175C63.0676 49.7696 64.682 50.3801 66.1799 51.2702C67.093 51.8145 68.022 52.3318 68.967 52.8223C69.5062 53.1036 70.0797 53.3041 70.6404 53.5473C71.1617 53.7753 71.6804 54.0123 72.2 54.2448V91.6932L41.8514 91.6977Z" fill="#1F1E25"/>
<path d="M47.4032 18.6617L48.1034 20.2155L48.005 20.2643C47.9707 20.2386 47.9365 20.2128 47.9014 20.1889C47.8929 20.1991 47.8849 20.2098 47.8774 20.2208L48.011 20.2563C47.8252 20.6166 47.559 20.33 47.3305 20.3451L47.0668 20.2563L47.0523 20.2448L47.066 20.259L47.3382 20.3397L47.4452 20.4782L47.3698 20.5891L47.0274 20.5421C47.2063 20.6814 47.4229 20.7781 47.4169 20.858C47.3981 21.1242 47.2996 21.3789 47.2166 21.6939L47.5445 21.9877C47.3151 22.024 47.1755 22.0453 47.036 22.0684C47.0244 22.0705 47.0133 22.075 47.0035 22.0817C47.0095 22.1083 47.018 22.1332 47.0257 22.1589L46.9256 22.2725L46.8734 22.2592L46.9247 22.2459L47.0052 22.3346C47.4666 22.8218 48.3294 22.8449 48.4492 23.7421C48.4852 24.0154 48.6889 24.2745 48.8361 24.5212C49.0715 24.9232 49.0159 25.3065 48.8455 25.7156C48.7736 25.8878 48.7959 26.1017 48.7753 26.2969C48.7343 26.6927 48.6367 27.0956 48.6666 27.4833C48.7052 27.9883 48.4954 28.5624 48.9354 29.0186L48.7214 28.834C49.0073 29.299 48.1222 29.8989 48.8524 30.2858C48.8293 30.4633 48.807 30.6292 48.7865 30.7801L48.6059 30.6381C48.5305 31.2876 48.4603 31.8955 48.3825 32.5762C48.4985 32.3939 48.6272 32.2207 48.7676 32.0579C48.801 32.0233 48.9346 32.0943 49.0244 32.1174L48.819 32.5673C48.7736 32.727 48.7334 32.8681 48.6915 33.011C48.6581 33.1175 48.5802 33.3118 48.5845 33.3136C48.9585 33.4769 48.7411 33.7928 48.7462 34.0306C48.7642 34.8781 48.7531 35.7264 48.7531 36.6476L49.8607 36.2926L49.9018 36.337C49.6861 36.4692 49.479 36.6919 49.2547 36.715C48.7411 36.762 48.6983 37.1472 48.6452 37.5137C48.6091 37.859 48.5974 38.2066 48.6101 38.5537C48.6101 39.2876 48.5648 40.0259 48.6384 40.7518C48.6709 41.0757 48.9645 41.3641 49.1032 41.6854C49.2419 42.0066 49.3506 42.3749 49.4721 42.721C49.1922 42.6526 49.17 42.8097 49.1888 43.0422C49.2324 43.5986 49.2615 44.1568 49.3069 44.7141C49.3069 44.7478 49.4019 44.7744 49.4516 44.8028C48.9234 46.3655 47.9682 47.6549 47.0163 48.9505C46.5447 49.5939 46.1184 50.2816 45.5809 50.8611C44.9979 51.4921 44.3533 52.0586 43.6575 52.5516C42.9975 53.014 42.4779 53.5535 42.1612 54.3025C41.9207 54.8704 42.091 56.3258 42.5225 56.5636C43.036 56.8458 43.2004 57.3667 43.5608 57.7722C42.656 59.3261 41.5398 60.6687 40.118 61.7247L40.0324 61.6449L40.9321 60.706L40.4356 60.5525L40.8216 60.2286L40.6325 59.9428L40.9047 59.847C41.0476 59.0767 41.1811 58.3526 41.3198 57.6036C41.1649 57.4634 40.986 57.3374 40.8584 57.1688C40.8028 57.0951 40.8533 56.9363 40.8584 56.8138L40.9954 56.9026C40.974 56.9354 40.9517 56.9674 40.9321 57.0011L40.9646 57.025C40.9774 56.9869 40.9911 56.9487 41.0048 56.9106L41.4268 56.7331L41.5552 56.6506L41.5056 56.5973L41.426 56.7313C41.1512 56.4731 41.1512 56.4731 40.2276 56.7677C39.9297 56.3302 39.8998 55.3478 40.2327 54.9876L39.8047 54.9556L39.4007 54.5359C39.5094 54.3584 39.4007 54.2901 39.1251 54.2253C38.6629 54.1152 38.2178 53.9271 37.7632 53.7816C37.6631 53.7496 37.5398 53.7887 37.444 53.7505C37.1529 53.6334 36.8927 53.5384 36.6513 53.2438C35.8895 52.312 34.9274 51.6358 33.6999 51.5977C33.2617 51.5835 33.0331 51.4433 32.9296 51.0351C32.8662 50.7848 32.826 50.5275 32.7755 50.2737C32.9064 50.0181 33.0032 49.7315 33.1838 49.522C33.2754 49.4164 33.5185 49.451 33.7402 49.4147V49.1387L34.8024 48.5335C34.7631 48.4873 34.7108 48.372 34.627 48.3347C34.2281 48.1572 34.098 47.9149 34.2161 47.4553C34.2923 47.1544 34.288 46.9228 33.9114 46.9361V46.4161C33.747 46.2759 33.6118 46.157 33.4722 46.0452C33.4566 46.0312 33.4384 46.0208 33.4186 46.0146C33.3988 46.0085 33.378 46.0068 33.3575 46.0097C32.6728 46.3096 32.6574 45.6547 32.4494 45.3131C32.0751 44.7217 31.7322 44.1097 31.4222 43.4797C31.0798 42.744 30.5482 42.1796 30.0381 41.5824C29.7753 41.2754 29.6349 40.8565 29.3627 40.4936C29.397 40.7651 29.4483 41.0367 29.4586 41.3091C29.4654 41.4289 29.4064 41.5523 29.3773 41.6738C29.2532 41.6224 29.0828 41.6082 29.0135 41.5141C28.7574 41.1775 28.5259 40.8216 28.321 40.4492C28.1592 40.1431 28.0693 39.797 27.9341 39.4731C27.8826 39.3878 27.8195 39.3106 27.7466 39.2441L27.7509 39.2486C27.9889 38.6096 27.6482 38.0062 27.6319 37.385C27.6319 37.3176 27.6191 37.2492 27.6123 37.1818L27.7244 37.1427L28.1096 38.2245C28.1395 38.0239 28.1575 37.9041 28.1763 37.7808L28.2619 37.7551C28.3364 38.0275 28.4117 38.2999 28.5187 38.7037C28.5795 38.4428 28.6137 38.2937 28.6805 38.0053L28.9142 38.5377L29.4278 38.3603L29.2566 38.1269L29.5279 37.8828C29.5091 37.8252 29.504 37.7568 29.4817 37.7506C29.1282 37.6503 29.0537 37.3477 28.9287 37.0407C28.8106 36.7612 28.5436 36.5526 28.3612 36.2979C28.2662 36.1648 28.2337 35.9802 28.1318 35.8542C28.0051 35.6998 28.1267 35.3883 27.7715 35.3475C27.655 35.3342 27.5789 34.9446 27.471 34.6988C27.6422 34.3377 27.7381 33.957 27.3383 33.6029C27.2527 33.5301 27.2716 33.3367 27.2416 33.1965L27.2348 33.2036C27.5986 33.0066 27.3375 32.8042 27.1851 32.7394C26.889 32.6143 26.9052 32.4226 26.9283 32.16C26.9574 31.781 26.924 31.3977 26.9403 31.0179C26.9463 30.8644 26.972 30.6762 27.061 30.5689C27.4941 30.0471 27.2459 29.504 27.1466 28.96C27.1466 28.9334 27.0756 28.9192 27.0208 28.889L27.3632 28.4684C27.5611 28.6953 27.77 28.9118 27.9889 29.1171C28.2277 29.3212 28.3715 29.7631 28.8269 29.5182C28.8885 29.4844 29.0229 29.5545 29.1034 29.6069C29.3302 29.7587 29.3499 29.6273 29.4697 29.4383C29.7068 29.0647 29.8309 28.582 30.2726 28.3734C30.336 28.3424 30.3984 28.3086 30.4293 28.2935L30.8367 29.1712C30.8436 29.2697 30.8495 29.3673 30.8564 29.4658C31.4795 29.3984 31.5694 29.4472 31.6952 29.9095C32.178 30.0213 32.5675 29.8829 32.9227 29.441C32.8077 29.3842 32.6876 29.3393 32.5641 29.307C32.4699 29.2945 32.3698 29.338 32.273 29.3407C32.1672 29.3352 32.0617 29.3233 31.9572 29.3052L32.8928 29.0097L32.8294 28.7284L33.4491 29.1552L33.5433 29.0186C33.1786 28.7612 32.8157 28.4994 32.4468 28.2474C32.3193 28.1587 32.1754 28.0974 32.0393 28.0238L32.3441 27.7993L33.1213 28.0655C33.1341 28.0131 33.1478 27.9599 33.1615 27.9075L31.4701 27.5144H32.897C32.6094 26.8196 31.9332 26.6678 31.3751 27.1728C31.3511 27.1941 31.2733 27.1373 31.233 27.1532C31.1161 27.2063 31.0018 27.2656 30.8906 27.3307L31.215 27.5082C30.7871 27.6049 30.3591 27.6857 29.9396 27.8064C29.7976 27.8463 29.6786 27.975 29.5493 28.0628L29.5562 28.0575L29.2934 28.2403L29.2977 28.2332L28.7062 28.5784L28.6625 28.5243L28.915 28.2101L28.8123 28.1906V26.9482L28.1952 26.8426C28.303 26.4194 28.553 26.209 28.9484 26.2738L29.2249 25.847L30.9095 26.4682V26.4628H32.4126C32.3834 26.1576 32.3792 25.9916 32.0214 25.9393C31.56 25.8727 31.1337 25.5843 30.6741 25.4672C30.3993 25.3988 30.0886 25.4831 29.7941 25.4991L29.8001 25.4929L29.4937 25.3731L29.8267 25.2764L29.1915 24.9977V25.5692H27.7252C27.5352 25.1708 27.3546 24.8176 27.198 24.4546C27.1269 24.2887 27.0268 24.0775 27.0687 23.9284C27.1903 23.5202 27.0028 23.1954 26.8907 22.8449C26.8641 22.7641 26.7957 22.6434 26.8248 22.6079C27.4368 21.8412 27.1406 20.8012 27.5652 19.9803C27.6362 19.8428 27.6739 19.6857 27.8108 19.5562C27.78 19.7017 27.7484 19.8481 27.7038 20.0558C28.0317 19.9848 28.0788 19.7088 28.0805 19.502C28.0873 18.6892 28.5153 18.0653 28.8971 17.4211C28.9707 17.2968 29.1162 17.2196 29.2754 17.0785C29.3567 16.7919 29.5168 16.4831 29.9131 16.3801C29.9508 16.3704 29.9833 16.2967 29.9987 16.2461C30.2495 15.5203 30.9343 15.3286 31.4658 14.9514C31.6156 14.8458 31.7894 14.7739 31.9281 14.6568C32.0881 14.521 32.1789 14.5441 32.3638 14.6515C32.5059 14.7349 32.7609 14.608 32.9629 14.5752C32.9681 14.6053 32.9741 14.6346 32.9801 14.6639L33.0152 14.6488L32.9552 14.5796C33.2728 14.3471 33.6143 14.4323 33.9593 14.4829C34.0994 14.5042 34.2424 14.4902 34.3762 14.4421C34.6098 14.3533 34.8127 14.08 35.0866 14.3533C35.4067 13.9611 35.8416 14.5193 36.1865 14.2078C36.2721 14.1297 36.4476 14.1554 36.582 14.1359C36.8388 14.0986 37.0956 14.0472 37.3524 14.0303C37.4803 14.0344 37.6075 14.0529 37.7316 14.0853L38.0106 13.7037L39.066 14.2415L39.7508 13.9424L39.9134 14.1847L40.3723 13.7898C40.4108 13.8999 40.4424 13.9868 40.4844 14.104L41.1443 13.8377C41.4611 14.2814 41.9147 13.749 42.2494 13.907C42.6457 14.0906 42.9967 14.1803 43.4863 13.8865L43.3031 14.3098L43.7311 14.2291L43.7251 14.2193C43.9168 14.4279 44.0829 14.6746 44.308 14.8316C44.4689 14.9434 44.7197 14.9071 44.9072 14.9905C45.0493 15.0526 45.1571 15.2008 45.3352 15.3561L45.122 15.5797C45.0981 15.562 45.122 15.5939 45.1409 15.5921C45.5124 15.5486 45.6682 15.7696 45.8376 16.0855C46.0902 16.5612 46.4368 16.9845 46.7398 17.4299H46.7193H46.733C46.9538 17.6793 47.1909 17.9162 47.3861 18.1851C47.4494 18.2739 47.4015 18.446 47.4041 18.58L47.4109 18.5729H47.1849C47.1849 18.6049 47.1849 18.6359 47.1849 18.6679H47.4126L47.4032 18.6617ZM44.3311 42.0891L44.4167 42.0004H44.8011C45.0681 41.4555 45.3146 40.8911 45.6185 40.3676C45.7306 40.1759 45.8128 39.8094 46.2031 39.9753L45.9583 39.3746C46.4343 39.4527 46.442 39.1083 46.4437 38.8723C46.4488 38.1322 46.43 38.1313 46.6859 37.4409L45.7161 37.4986L45.657 37.0833L45.4995 37.0496C45.4111 37.3454 45.3226 37.6412 45.2342 37.937L45.1323 37.9494C45.0681 37.7267 45.0048 37.5057 44.9723 37.3912C44.7403 37.48 44.5049 37.6503 44.2772 37.6397C43.8783 37.6202 43.6669 37.7692 43.5847 38.2254C43.4366 38.1065 43.2877 38.0479 43.2355 37.9352C43.0788 37.6024 42.8075 37.4968 42.5011 37.3548C42.1232 37.1702 41.7793 36.9186 41.485 36.6112C41.2505 36.3698 41.1563 35.9847 40.9295 35.7309C40.3303 35.0591 39.6849 34.4237 39.0609 33.7724C38.983 33.6916 38.918 33.5949 38.8469 33.5115C39.4126 33.7736 39.9643 34.0668 40.4998 34.39C40.6545 34.4757 40.7995 34.579 40.9321 34.6979C41.2359 34.9855 41.5167 35.2996 41.8214 35.5853C42.0149 35.7628 42.2135 35.9794 42.4471 36.0645C42.9813 36.258 43.5385 36.3813 44.0401 36.5198L44.5862 35.714C44.6257 35.7423 44.6706 35.7613 44.7179 35.7698C44.7652 35.7782 44.8136 35.7758 44.8599 35.7628C44.9062 35.7498 44.9492 35.7264 44.9859 35.6944C45.0226 35.6624 45.0521 35.6224 45.0724 35.5774C45.1576 35.4322 45.2574 35.2968 45.3703 35.1736C45.4456 35.0849 45.5509 35.0076 45.6048 34.9074C45.77 34.5923 45.9172 34.2667 46.0722 33.9428L46.3615 34.839L46.8015 32.3108L46.2194 32.1839L45.871 32.5824L45.6433 32.3028L44.873 32.5398C44.8593 32.3312 44.8464 32.1262 44.8379 31.9985L45.7794 32.0712L45.8094 32.0872L45.7829 32.0677C45.9814 31.5352 46.4077 31.0773 46.2494 30.3443C46.3401 30.7304 46.4796 30.7596 46.5918 30.6523C46.5438 30.158 46.5062 29.7391 46.4634 29.3212L46.549 29.4552L46.5977 29.4037L46.4685 29.3149L46.3418 29.1579L46.7775 28.5589V29.0532L47.1901 28.7745C47.1533 28.6281 47.0788 28.4977 47.1045 28.3903C47.1901 27.9883 47.3065 27.5916 47.0112 27.2251C46.9975 27.2083 47.0848 27.1044 47.1421 27.013C47.2183 27.1417 47.2697 27.2296 47.321 27.3174L47.4648 27.2491L47.1533 26.5613L47.3151 26.1176L46.9795 25.6633C47.0173 25.5905 47.0633 25.5226 47.1165 25.461C47.4794 25.1229 47.5094 24.6561 47.6172 24.2026C47.7602 23.6072 47.3519 23.396 47.0343 23.0925C46.703 22.7757 46.3564 22.4562 46.3119 21.9468C46.293 21.7339 46.3683 21.4978 46.305 21.307C46.1638 20.8775 45.9626 20.4684 45.7495 19.967L46.3178 20.0664L46.3452 19.9981L45.7777 19.6485C46.1338 19.2935 46.1338 19.1471 45.7897 18.7611L45.9874 18.6643L45.8582 18.5277L45.7786 18.7486L45.4293 18.5898L45.6296 18.4806C45.699 18.3404 45.8642 18.1345 45.8231 18.0707C45.5954 17.7113 45.8556 17.5684 46.0593 17.3962C46.0004 17.3321 45.9449 17.2645 45.8933 17.1939C45.4045 16.4511 44.9295 15.7048 44.0247 15.4191C43.7884 15.3437 43.5967 15.1209 43.3142 14.9142C43.078 15.0553 42.9042 14.7917 42.7339 14.5193L42.745 14.4305L42.6859 14.4678C42.4557 14.5423 42.222 14.687 41.9943 14.6772C41.3583 14.6497 40.7241 14.5503 40.1112 14.8068C40.084 14.8179 40.0546 14.8219 40.0256 14.8183C39.8766 14.4181 39.6361 14.7491 39.5462 14.8121C39.2321 15.0331 39.0412 14.9213 38.876 14.6302C38.5901 15.0073 38.4592 15.0064 38.1382 14.6479C38.0063 14.7322 37.8386 14.9142 37.7487 14.8831C37.3121 14.7163 37.0511 15.0606 36.7155 15.1919C36.5212 15.2647 36.2781 15.3916 36.1164 15.3295C35.227 14.994 34.6158 15.5327 34.0047 16.0225C33.652 16.3047 33.367 16.6765 33.0545 17.0031C33.2437 17.1336 33.2719 17.5276 33.0717 17.7397C32.9955 17.8204 32.8636 17.8834 32.8431 17.9757C32.7455 18.4114 32.677 18.8542 32.636 19.0823L33.0742 19.5659L32.9356 19.7638L32.3475 19.7363C32.4399 19.9475 32.529 20.1507 32.6188 20.3575L32.6034 20.3939L32.6214 20.3602L33.1222 19.8943C33.0554 20.385 32.9955 20.8252 32.9321 21.2937L32.226 21.5014C32.226 21.599 32.2217 21.7001 32.226 21.8013C32.2491 22.2539 32.2705 22.7011 31.798 22.9629C31.7517 22.9878 31.7406 23.1404 31.7603 23.2247C31.8724 23.6906 31.6225 24.2008 31.9272 24.6445C31.9332 24.6525 31.9272 24.6738 31.9212 24.6871C31.798 25.0652 32.0607 25.106 32.3047 25.1539C32.5487 25.2018 32.8089 25.2427 33.1153 25.2941C33.105 25.3128 33.1427 25.2409 33.1821 25.1672C33.2163 25.2684 33.2505 25.3678 33.2976 25.5035L33.4431 25.2462C33.4911 25.4379 33.5287 25.6012 33.5835 25.8035L33.6691 25.6331L34.389 26.1815C34.4181 26.0511 34.4352 25.9721 34.4481 25.9153L34.6603 26.107C34.6441 25.8603 34.6321 25.6722 34.6201 25.4858L34.7459 25.4574C34.8726 25.8239 34.995 26.1922 35.1294 26.5551C35.1474 26.6039 35.2219 26.6314 35.2706 26.6678L35.0224 26.8142C35.2861 26.9225 35.3083 27.0885 35.1833 27.3414C35.1029 27.5046 35.0293 27.7229 35.0678 27.888C35.1748 28.3441 35.3537 28.7816 35.4804 29.2333C35.5266 29.3984 35.5043 29.5838 35.5137 29.7604C35.5597 29.9402 35.6548 30.1023 35.7877 30.2272C36.0393 30.481 36.0239 30.7863 35.8185 30.993C35.548 31.2655 35.5617 31.561 35.5771 31.8875C35.6045 32.5975 35.6344 33.3074 35.643 34.0173C35.6481 34.3856 36.2122 34.8373 36.5375 34.7059L37.4714 34.3261C37.557 34.4326 37.6186 34.5764 37.7213 34.6243C38.1039 34.8018 38.4985 34.9473 38.8906 35.0982C39.0412 35.1558 39.1987 35.1958 39.3528 35.2437C39.2449 35.4301 39.1773 35.714 39.0207 35.7832C38.6148 35.9459 38.1949 36.068 37.7667 36.148C37.4859 36.2101 37.2873 36.2793 37.242 36.6396C37.1863 37.0709 37.0468 37.4888 36.9441 37.9103C36.9303 37.889 36.9139 37.8696 36.8953 37.8527C36.5983 37.645 36.3612 37.2173 35.9477 37.3886C35.7389 37.4773 35.4821 37.7817 35.4795 37.9911C35.4735 38.5067 35.7834 38.8572 36.1711 38.8785C36.665 38.906 37.1632 38.8616 37.658 38.8785C38.6517 38.9167 39.6472 38.9495 40.6376 39.0427C40.7847 39.0606 40.9338 39.0482 41.0763 39.0062C41.2188 38.9641 41.3519 38.8933 41.4679 38.7978C41.6605 38.6504 41.8548 38.575 42.056 38.7978C42.1909 38.9448 42.3338 39.0837 42.4839 39.2139C42.7262 39.4305 42.8914 40.1475 42.6962 40.2992C42.3598 40.5601 42.097 40.2407 41.8197 40.1058C41.7983 40.0951 41.7923 40.0454 41.7709 40.0366C41.5398 39.939 41.3215 39.718 41.0502 39.931C40.6581 40.238 40.267 40.5465 39.8766 40.8565L39.7465 40.9453L39.7902 40.9941L39.8861 40.8636H40.2284C40.1728 40.9426 40.1292 41.0731 40.0573 41.0917C39.5625 41.2204 39.5565 41.6508 39.482 42.0315C39.4024 42.0563 39.3066 42.0581 39.2501 42.1078C38.9334 42.3829 38.6389 42.6881 38.3085 42.9446C38.1322 43.0821 37.8805 43.1123 37.699 43.2463C37.42 43.4522 37.1555 43.4948 36.8097 43.2898C36.8225 43.5019 36.8328 43.682 36.8431 43.8613C36.8191 43.8721 36.7937 43.8792 36.7677 43.8826C36.6282 43.8781 36.4878 43.8702 36.3483 43.8631L36.3791 43.9651C36.273 44.0033 36.148 44.0184 36.0658 44.0876C35.9664 44.1636 35.8961 44.2736 35.8673 44.3982C35.8587 44.4869 35.976 44.5854 36.0385 44.6804L35.9597 44.998C36.1266 45.1099 36.2636 45.2092 36.4082 45.2953C36.4734 45.3442 36.5513 45.3714 36.6316 45.3734C37.3438 45.251 37.7093 45.747 38.0988 46.2236C38.1461 46.2734 38.2025 46.3131 38.2646 46.3403C38.3267 46.3676 38.3934 46.3819 38.4609 46.3824C38.5422 46.3824 38.6201 46.2306 38.6997 46.1472C38.7553 46.0878 38.8015 45.999 38.8709 45.9697C39.2304 45.8393 39.5557 45.826 39.8861 46.1224C40.2165 46.4188 40.8276 46.1978 40.9637 45.8216C41.0022 45.7124 41.1204 45.5553 41.1957 45.5553C41.5432 45.5722 41.6477 45.4151 41.6168 45.069L41.7521 45.3211L43.1721 44.6289L43.369 44.8064L43.8466 44.5969C43.809 44.4816 43.7696 44.3636 43.7302 44.242C44.0016 44.1532 44.5066 43.4531 44.3859 43.3741C44.0367 43.146 44.3157 42.9934 44.3902 42.8053C44.4016 42.7488 44.4016 42.6905 44.3902 42.634L43.3545 42.7272L43.2492 42.5941C43.4101 42.3349 43.5556 42.0616 43.7362 41.8176C43.9545 41.5221 44.2498 41.278 44.427 40.9612C44.653 40.5601 44.7951 40.1084 45.0193 39.5662C45.0373 39.7251 45.081 39.8325 45.0553 39.9212C44.849 40.6187 44.6273 41.3118 44.4142 42.0066L44.3286 42.0953L44.3114 42.1317C44.3174 42.1158 44.3243 42.106 44.3311 42.0927V42.0891ZM28.6891 38.8057L28.6651 38.8377L28.6831 38.8004L28.7002 38.7667L28.6891 38.8057ZM38.0919 48.1235L38.3419 47.9779L38.2349 47.9087L38.0979 48.1306L38.0509 48.1554C38.0586 48.1554 38.0688 48.1554 38.0731 48.1554C38.0803 48.1463 38.0866 48.1365 38.0919 48.1261V48.1235ZM35.518 47.8519L35.5266 47.8573L35.1842 48.0809L35.9914 48.4359L36.4947 47.9975L36.2139 47.773V47.7605L36.2071 47.7774L35.518 47.8519ZM39.3699 41.1121C39.1131 41.0234 39.1131 40.9178 39.3699 40.6684L39.3982 40.6808L39.3733 40.6649C39.3845 40.3898 39.3357 40.2371 38.9924 40.2673C38.4063 40.3299 37.8354 40.4994 37.3062 40.7678C37.0819 40.8752 36.9184 41.1183 36.7275 41.3002L36.7198 41.4626C37.1478 41.2851 37.4046 41.3588 37.4089 41.8176C37.4089 41.7138 37.4183 41.6099 37.4243 41.4742C37.8249 41.5301 38.1947 41.633 38.5653 41.617C38.8854 41.6019 39.2364 41.5132 39.3733 41.1192L39.5283 40.9524L39.4315 40.8965C39.4084 40.9692 39.3913 41.0411 39.3708 41.1148L39.3699 41.1121ZM32.5324 32.3268L32.6128 32.459L32.6599 32.4093L32.5315 32.3286C32.6223 31.9985 32.7224 31.6719 32.7969 31.3382C32.8191 31.2388 32.7686 31.1226 32.7515 31.0143C32.5367 31.5938 32.273 31.7642 31.7244 31.7021C31.5369 31.6799 31.3375 31.7642 31.0738 31.813L31.5574 32.286L30.7785 32.4111L30.9762 32.6046L30.7263 32.8007C30.7152 33.0554 30.7075 33.2399 30.698 33.4574L31.013 33.6162L30.71 34.2968L30.5174 34.1194C30.3848 34.5196 30.4892 34.6829 30.9891 34.8541C30.9197 34.6438 30.8607 34.4637 30.8059 34.2942L31.4513 34.3829L31.5746 34.5915L32.095 34.3545C32.0094 34.1211 31.9195 33.8877 31.8254 33.6357L32.5478 33.5851C32.5153 33.484 32.4262 33.358 32.4545 33.2719C32.6514 32.6676 32.303 32.7599 31.958 32.8282C31.9358 32.8326 31.9084 32.8069 31.8664 32.7874C31.8416 32.6906 31.8151 32.585 31.7877 32.4785C31.9829 32.6472 32.1301 32.7519 32.267 32.436C32.2961 32.3747 32.4417 32.365 32.5332 32.3295L32.5324 32.3268ZM36.463 40.3312C36.3774 40.3702 36.2764 40.4536 36.1934 40.4421C35.5942 40.3534 35.0044 40.2549 34.4121 40.1431C34.3539 40.1324 34.3128 40.0188 34.2692 39.9603C34.5114 39.5955 34.7733 39.5494 35.0892 39.9043C35.0832 39.4828 35.3271 39.5059 35.5617 39.5006C35.7825 39.4944 36.0016 39.4731 36.2216 39.4589L36.2139 39.2894H33.0939L33.0657 39.1776L33.2052 39.0888C32.7293 39.3018 32.9484 38.6957 32.7027 38.6318L32.6574 38.4268C32.5632 38.8421 32.0462 38.6114 31.8724 39.048C31.6987 39.4846 31.893 39.8467 31.7252 40.1883C31.8408 40.1883 31.9281 40.1626 31.9546 40.1883C32.142 40.3864 32.3125 40.6011 32.4639 40.8299C32.7883 41.3677 33.0734 41.9312 33.4055 42.4663C33.5005 42.6199 33.6279 42.749 33.7781 42.844C33.9283 42.939 34.0974 42.9974 34.2726 43.0147C34.3582 43.0253 34.4566 42.926 34.5499 42.8843L34.3719 42.6304L34.6141 42.4929L33.6289 41.7564C33.9816 41.7005 33.9567 41.5256 33.8241 41.2621C33.7453 41.1059 33.6623 40.8379 33.7333 40.7376C33.8728 40.5415 34.0089 40.3046 34.3821 40.3889C35.0068 40.5192 35.6418 40.589 36.279 40.5974C36.6445 40.6081 37.0134 40.4767 37.3806 40.4102C37.6605 40.3143 37.9464 40.2327 38.2169 40.1147C38.3273 40.0667 38.4027 39.9372 38.4934 39.8387C38.341 39.7703 38.1005 39.6026 38.0491 39.6514C37.7247 39.9567 37.6674 39.7002 37.5527 39.4624C37.5236 39.4021 37.3755 39.403 37.2822 39.3737C37.3053 39.8023 36.873 39.6736 36.7164 39.8742C36.6202 40.0192 36.5354 40.172 36.463 40.3312ZM42.2759 51.5018L42.3153 51.5196L42.2811 51.4965C42.4009 51.2463 42.5293 51.2897 42.7039 51.4548C42.9539 51.6908 43.3964 51.6704 43.6061 51.4628C43.7961 51.2755 44.011 51.1167 44.2053 50.9357C44.3294 50.8194 44.4364 50.6845 44.5965 50.5079C44.7814 50.5878 44.9534 50.4707 45.0476 50.161C45.0979 50.011 45.1777 49.8734 45.2821 49.7572C45.5329 49.4697 45.8145 49.2114 46.0576 48.9186C46.4557 48.4403 46.7775 47.8768 47.2346 47.4766C47.6626 47.1039 47.892 46.6326 48.1334 46.1641C48.4081 45.6317 48.5708 45.0371 48.8181 44.4896C49.152 43.7566 48.9893 43.0697 48.6709 42.3864L48.8421 43.2135L48.5554 43.6572L47.9502 43.6039V43.3785C47.6326 43.5702 47.3262 43.7504 47.0257 43.9394C46.9678 43.9803 46.9223 44.0376 46.8948 44.1044C46.489 45.022 45.7101 45.6024 45.0613 46.2999C45.0253 46.3389 44.9534 46.3886 44.9218 46.378C44.4424 46.1747 44.3465 46.6255 44.1171 46.866C43.6891 47.3142 43.2886 47.8085 42.7955 48.1608C42.4369 48.4181 42.4968 48.6045 42.6611 48.8707L41.9977 49.2052C42.0405 49.3658 42.0833 49.5256 42.1279 49.6951L41.1923 49.9072C41.3352 50.878 41.2359 51.0342 40.4151 51.2702C40.1583 51.3448 39.9015 51.4406 39.6447 51.5267L39.6704 51.6323C40.0581 51.5648 40.4476 51.5045 40.8336 51.4264C41.2197 51.3483 41.604 51.3377 41.9704 51.6039L42.2759 51.5018ZM36.0804 36.3867L36.0265 36.2899C35.8253 36.1932 35.5942 36.1355 35.4273 35.9927C35.1469 35.734 34.8838 35.4559 34.6398 35.1603C34.4309 34.9198 34.0286 34.8603 33.9199 35.1141C33.7487 35.5197 33.5664 35.3653 33.2702 35.092C33.4081 35.5871 33.4508 35.9794 33.955 36.0379C34.0928 36.0548 34.2161 36.1932 34.3488 36.2704C34.5439 36.3858 34.7434 36.5917 34.9385 36.589C35.3212 36.5837 35.7003 36.4603 36.0804 36.3867ZM33.3396 28.085C33.557 28.3681 33.8146 28.7293 34.1099 29.0567C34.1519 29.1037 34.4472 29.0212 34.4823 28.9351C34.5722 28.7186 34.5285 28.4914 34.4566 28.2385C34.2752 27.5934 33.8369 27.2624 33.3567 26.9376L33.2232 27.0263L33.943 28.0912L33.3396 28.085ZM41.8462 39.6701L41.8548 39.5139L38.7476 39.2477C38.7707 39.4784 38.7878 39.6523 38.8024 39.8032C39.2989 39.7579 39.7833 39.6949 40.2704 39.6745C40.7951 39.6497 41.3207 39.6674 41.8462 39.6674V39.6701ZM38.2828 35.4327C37.9961 34.839 37.4748 34.761 37.0408 35.2694L38.2828 35.4327ZM40.5794 47.0755L40.5066 46.9299C40.3577 47.1074 39.9836 46.858 39.9143 47.1864L39.9999 47.3639L40.5794 47.0755ZM39.1516 48.0623C39.167 47.875 39.1807 47.7073 39.1961 47.5147L38.8212 47.8981L39.1516 48.0623ZM30.4156 32.2665C30.3745 32.3463 30.33 32.3898 30.3394 32.4244C30.3488 32.459 30.3899 32.5069 30.4181 32.5478C30.4549 32.5114 30.5149 32.4785 30.5209 32.4368C30.5268 32.3951 30.4695 32.3543 30.413 32.2673L30.4156 32.2665ZM46.4274 19.4417C46.4659 19.3902 46.513 19.345 46.507 19.3308C46.4784 19.2884 46.4441 19.2505 46.4052 19.2181C46.3752 19.2518 46.3196 19.2935 46.3196 19.3166C46.335 19.36 46.3838 19.3929 46.4274 19.4417ZM28.5624 26.4788V26.5462C28.606 26.5409 28.648 26.5374 28.6951 26.5312C28.6968 26.5221 28.6968 26.5127 28.6951 26.5037C28.6505 26.4939 28.6069 26.4877 28.5624 26.4788ZM38.5884 47.8963H38.5456V48.0392H38.5756L38.5884 47.8963ZM44.1574 42.4193L44.1856 42.4033C44.1771 42.3962 44.1702 42.3846 44.1616 42.3838C44.1531 42.3829 44.1437 42.3926 44.1343 42.3979L44.1574 42.4193ZM34.9129 26.2907L34.8932 26.2641L34.8683 26.2862L34.9017 26.3217L34.9129 26.2907ZM41.2385 57.1723C41.2316 57.1626 41.2265 57.1484 41.2188 57.1457C41.2111 57.1431 41.2 57.1546 41.1897 57.1599L41.2239 57.2034L41.2385 57.1723ZM43.595 14.4385L43.6198 14.4563L43.625 14.4314L43.595 14.4385Z" fill="#BEE3F2"/>
<path d="M50.6285 28.4195C50.6765 28.2793 50.7013 28.1222 50.7792 28.0024C50.8648 27.8667 51.036 27.6422 51.113 27.6652C51.648 27.8365 51.7593 27.4203 51.9364 27.084C51.9806 27.2206 52.0141 27.3607 52.0366 27.5028C52.0862 28.0149 52.1462 28.5269 52.1539 29.0407C52.1581 29.3557 52.0101 29.6805 52.0426 29.9885C52.1171 30.6922 51.8269 31.3045 51.6557 31.9407C51.5461 32.3507 51.3338 32.7305 51.1678 33.1237V33.1281C51.3236 32.569 51.4965 32.0135 51.6309 31.4491C51.8611 30.4801 52.23 29.5199 51.8722 28.4701C51.8594 28.7177 51.8474 28.9369 51.8389 29.0913C51.6471 28.9892 51.4965 28.8339 51.3492 28.8455C51.0257 28.8712 51.0779 29.1676 51.0984 29.3948C51.125 29.6438 51.1659 29.8909 51.2208 30.1349C51.4528 31.2468 51.3758 32.3117 50.7115 33.255C50.5686 33.4582 50.2947 33.562 50.0807 33.712L49.9369 33.5177C50.0465 33.413 50.1603 33.3118 50.2664 33.2026C50.4796 32.9852 50.7715 32.8006 50.8853 32.5362C51.416 31.3009 51.0402 30.0515 50.8494 28.8091C50.8339 28.707 50.7321 28.6201 50.6696 28.5251L50.6182 28.4781C50.6148 28.4737 50.6123 28.4686 50.6109 28.4631C50.6095 28.4576 50.6093 28.4519 50.6103 28.4463C50.6113 28.4408 50.6134 28.4355 50.6166 28.4309C50.6197 28.4262 50.6238 28.4224 50.6285 28.4195Z" fill="#BEE3F2"/>
<path d="M29.8952 48.3711C29.8952 47.2334 30.1323 46.1375 30.4841 45.0318C30.5209 45.1862 30.5868 45.3406 30.5885 45.4959C30.6005 46.5395 31.156 47.3435 31.6448 48.1847C31.8836 48.5965 32.0548 49.0509 32.2568 49.4866C32.2114 49.5416 32.1661 49.5966 32.0796 49.6995C31.9084 48.7962 31.1834 48.4572 30.5817 47.9718C30.0869 48.1608 30.1229 48.6498 30.015 49.0801C29.9731 48.8308 29.9345 48.6009 29.8952 48.3711Z" fill="#BEE3F2"/>
<path d="M53.3839 14.917L53.0484 14.7741L53.0869 14.6614L52.9439 14.6782C52.9439 14.6152 52.9319 14.5061 52.9542 14.5008C53.0685 14.4629 53.1852 14.4333 53.3034 14.412C53.3505 14.4919 53.3985 14.5709 53.4909 14.7279V14.404L53.514 14.3827L53.5405 14.3987L53.6356 14.507L53.6912 14.5363L53.6689 14.4724L53.6458 14.3517C53.5602 14.2629 53.4746 14.1689 53.4053 14.0704C53.3618 14.0032 53.3235 13.9325 53.2906 13.8592C52.8763 13.9142 52.4166 14.0109 51.9544 14.0216C51.7413 14.026 51.5264 13.8627 51.309 13.7757C51.5418 13.6524 51.8295 13.4749 52.1359 13.3436C52.5382 13.1661 52.5399 12.9309 52.2985 12.6177C52.2985 12.5884 52.3045 12.56 52.3079 12.5289L52.2823 12.6088L51.9912 12.4668L52.1419 12.2006L52.6769 12.4872C52.6546 12.3098 52.6349 12.1456 52.611 11.9459C52.9234 12.2698 53.0466 12.891 52.8232 13.2273C53.0484 13.2105 53.2187 13.2043 53.3865 13.183C53.5825 13.159 53.6629 13.2096 53.5517 13.4146C53.5307 13.411 53.5093 13.411 53.4883 13.4146C53.4592 13.3948 53.4289 13.377 53.3976 13.3613C53.3976 13.3613 53.3762 13.3942 53.3651 13.4119L53.4652 13.4421H53.5774L54.0772 13.3383C54.0507 13.4554 54.025 13.5725 53.9985 13.6932L53.9557 13.6515L53.9916 13.7003L54.5052 14.128L54.0978 14.1023V14.7572L53.3839 14.917Z" fill="#1F1E25"/>
<path d="M40.7275 6.31772C40.2251 6.80567 39.6696 6.61758 39.1363 6.41974C38.7537 6.2778 38.4977 6.35054 38.2349 6.67702C38.1331 6.803 37.8652 6.79324 37.6709 6.82962C37.4055 6.88019 37.1324 6.89793 36.8705 6.96358C36.5709 7.03811 36.2525 7.34063 36.0265 6.86865C35.976 6.76485 36.0188 6.61226 36.0188 6.43483L36.9185 6.37538L36.9476 6.32215L36.22 6.09681C36.4134 6.05511 36.6146 5.95753 36.7978 5.98592C37.0546 6.02495 37.3113 6.14561 37.5579 6.25207C37.8044 6.35853 37.9396 6.29909 37.9388 5.99212L38.1656 6.33901C38.181 6.0906 38.1913 5.93535 38.2024 5.75525C38.2546 5.90075 38.2658 6.07729 38.3522 6.14028C38.4549 6.21481 38.6227 6.19795 38.7622 6.20771C38.9133 6.23114 39.0667 6.23383 39.2185 6.21569C39.7329 6.10834 40.2388 6.05334 40.7275 6.31772Z" fill="#1F1E25"/>
<path d="M49.978 12.4495L49.5723 12.7157C49.5902 12.4442 49.5988 12.3032 49.6082 12.163L49.5269 12.0991C49.4481 12.2295 49.3762 12.3653 49.2872 12.4886C49.2444 12.548 49.1511 12.6332 49.116 12.6181C49.0475 12.5924 49.0039 12.4974 48.9448 12.4318C48.9876 11.9669 49.2213 11.581 49.4225 11.1818L49.4875 11.2501C49.645 11.4869 49.645 11.487 49.7862 11.2084C49.8136 11.4107 49.8325 11.557 49.841 11.6183L51.1584 12.0929L49.972 12.4593C49.9258 12.4398 49.8787 12.4203 49.942 12.446C49.8753 12.4336 49.9266 12.4416 49.978 12.4495Z" fill="#1F1E25"/>
<path d="M30.36 53.5106C30.1477 52.6491 31.073 51.9136 31.9709 51.6963C31.9829 52.1532 31.4008 52.8807 30.9078 52.9987C30.6262 53.0661 30.3822 53.1495 30.36 53.5106Z" fill="#BEE3F2"/>
<path d="M48.6897 10.5826C48.6495 10.9127 48.5545 11.2498 48.5904 11.571C48.6118 11.759 48.9106 11.9028 48.7008 12.1618C48.6452 12.2301 48.6007 12.3091 48.5511 12.3836C48.4912 12.3029 48.441 12.215 48.4013 12.1219C48.2789 11.7067 48.1607 11.2897 48.0589 10.8701C48.0007 10.6332 47.9733 10.3875 47.9356 10.1462C48.1368 9.96872 48.1624 10.1639 48.2532 10.2872C48.3439 10.4105 48.4886 10.4939 48.6093 10.5951L48.6949 10.5897L48.6897 10.5826Z" fill="#1F1E25"/>
<path d="M53.1383 16.4253L52.8815 16.4156C52.8541 16.2984 52.8259 16.1805 52.7959 16.0607L53.4867 15.9808L53.1494 15.8087L53.1648 15.7422L53.639 15.8309C53.853 16.2745 54.168 16.6906 53.9737 17.238C53.7477 17.1634 53.4216 17.1492 53.7169 16.7624C53.7263 16.75 53.6219 16.6453 53.5706 16.585L53.2692 16.1139L53.1383 16.4253Z" fill="#1F1E25"/>
<path d="M46.8913 8.08206C47.0625 8.61437 47.2543 9.14046 47.4049 9.67898C47.4503 9.84044 47.3869 10.0338 47.2945 10.1989C47.0736 9.44831 46.8525 8.69776 46.6311 7.94721L46.9059 7.92503L46.8965 7.91882L46.8913 8.08206Z" fill="#1F1E25"/>
<path d="M49.449 44.7987C49.3993 44.7694 49.3077 44.7428 49.3043 44.71C49.259 44.1529 49.2299 43.5948 49.1862 43.0386C49.1674 42.8106 49.1862 42.6491 49.4695 42.7174C49.5817 43.4121 49.6707 44.1067 49.449 44.7987Z" fill="#1F1E25"/>
<path d="M51.1678 33.1264C51.0822 33.3553 50.9966 33.5842 50.911 33.814C50.7107 34.3534 50.511 34.8928 50.3118 35.4322L50.3178 35.4375C50.3037 34.8476 50.4557 34.2661 50.7552 33.7643C50.887 33.5487 51.0334 33.3429 51.1721 33.1326L51.1678 33.1264Z" fill="#BEE3F2"/>
<path d="M53.8402 15.4141L53.6587 15.2839C53.8299 14.95 53.5106 15.1954 53.4704 15.1165V15.1289C53.8205 15.1059 54.1706 15.066 54.5207 15.066C54.7561 15.066 54.9915 15.1227 55.2183 15.1077L53.8402 15.4141Z" fill="#1F1E25"/>
<path d="M53.8171 17.5734L54.1372 17.3315L54.1971 17.3829L54.1115 17.4918L54.3983 17.6903L54.3632 17.7789L53.8171 17.5734Z" fill="#1F1E25"/>
<path d="M46.8845 9.88163V10.1274L46.7459 10.1602C46.6979 9.98277 46.6508 9.79735 46.6038 9.61548C46.6971 9.70508 46.7912 9.79291 46.8845 9.88163Z" fill="#1F1E25"/>
<path d="M50.2279 35.6129L49.8992 36.3377L49.8582 36.2943C49.9831 36.0689 50.1075 35.8436 50.2314 35.6182L50.2279 35.6129Z" fill="#C69784"/>
<path d="M48.6983 10.5898L48.6127 10.5951C48.5613 10.3875 48.5094 10.1805 48.4569 9.97407L48.4783 9.9927L48.4954 9.96875C48.561 10.1758 48.6287 10.3828 48.6983 10.5898Z" fill="#1F1E25"/>
<path d="M52.1629 26.6332H52.1359C52.1361 26.6439 52.1382 26.6544 52.142 26.6644C52.142 26.6644 52.1586 26.6644 52.1681 26.6644L52.1629 26.6332Z" fill="#1F1E25"/>
<path d="M45.7084 8.82296L45.6784 8.65617L45.7512 8.58875C45.7794 8.65173 45.8085 8.71384 45.8368 8.77594L45.7794 8.81852C45.7506 8.81797 45.7219 8.8144 45.6938 8.80788L45.7084 8.82296Z" fill="#1F1E25"/>
<path d="M45.669 8.40234L45.7546 8.58865L45.6818 8.65608L45.6022 8.47243L45.669 8.40234Z" fill="#1F1E25"/>
<path d="M45.5988 8.47347L45.4969 8.31289L45.5748 8.23926C45.6057 8.29426 45.6373 8.34838 45.669 8.40339L45.5988 8.47347Z" fill="#1F1E25"/>
<path d="M50.3119 35.4327L50.2263 35.6099C50.2545 35.5505 50.2836 35.4921 50.3119 35.4327Z" fill="#C69784"/>
<path d="M45.4491 8.09619L45.5749 8.23795L45.497 8.31149L45.3815 8.14846C45.4053 8.13284 45.4279 8.11537 45.4491 8.09619Z" fill="#1F1E25"/>
<path d="M45.3814 8.14736L45.3712 8.0155L45.449 8.0955C45.4278 8.11452 45.4052 8.13186 45.3814 8.14736Z" fill="#1F1E25"/>
<path d="M39.7991 54.9575L39.78 54.9801L39.8017 54.9601L39.7991 54.9575Z" fill="#C69784"/>
<path d="M50.3178 35.438C50.2887 35.4975 50.2596 35.5561 50.2322 35.6155C50.1078 35.8409 49.9834 36.0663 49.859 36.2917L48.7514 36.6423C48.7514 35.7211 48.7625 34.8728 48.7445 34.0253C48.7394 33.7875 48.9568 33.4716 48.5828 33.3083C48.5828 33.3083 48.6564 33.1122 48.6898 33.0057C48.7334 32.8664 48.7754 32.7253 48.8173 32.562L49.0227 32.1121C49.1146 31.7252 49.2059 31.3382 49.2966 30.9513C49.33 31.104 49.33 31.2788 49.4062 31.403C49.4824 31.5273 49.6407 31.6204 49.7631 31.7251C49.8239 31.5894 49.9129 31.4589 49.9412 31.3143C49.9883 31.0711 49.9266 30.7818 50.0354 30.5813C50.2733 30.1491 50.0559 29.8944 49.8034 29.6229L50.1458 28.6343L50.317 28.7408L50.5883 28.2563C50.6029 28.3095 50.6174 28.3628 50.6311 28.416C50.6259 28.4192 50.6214 28.4235 50.6182 28.4288C50.6149 28.434 50.6128 28.44 50.6121 28.4462C50.6115 28.4524 50.6122 28.4587 50.6143 28.4645C50.6164 28.4704 50.6198 28.4757 50.6243 28.4799C50.6243 28.5287 50.6183 28.5775 50.6148 28.6263L50.6756 28.5261C50.7381 28.621 50.84 28.708 50.8554 28.81C51.0463 30.0524 51.422 31.2948 50.8913 32.5371C50.7775 32.8033 50.4856 32.9862 50.2725 33.2036C50.1663 33.3127 50.0525 33.4139 49.9429 33.5186L50.0867 33.7129C50.3007 33.563 50.5746 33.4591 50.7176 33.2559C51.3818 32.3126 51.4588 31.2477 51.2269 30.1358C51.1723 29.8927 51.1317 29.6465 51.1053 29.3984C51.0848 29.1712 51.0326 28.8748 51.3561 28.8491C51.4991 28.8375 51.654 28.9928 51.8457 29.0949C51.8543 28.9405 51.8663 28.7213 51.8791 28.4737C52.2378 29.5235 51.868 30.4837 51.6377 31.4527C51.5033 32.0171 51.3304 32.5726 51.1747 33.1317C51.036 33.342 50.8896 33.5479 50.7578 33.7635C50.4572 34.2655 50.3043 34.8474 50.3178 35.438Z" fill="white"/>
<path d="M32.8174 28.7443L32.8808 29.0255L31.9452 29.3209C32.0497 29.3391 32.1552 29.3509 32.2611 29.3564C32.3578 29.3564 32.4579 29.3103 32.5521 29.3227C32.6756 29.355 32.7957 29.3999 32.9107 29.4567C32.5555 29.9003 32.166 30.0369 31.6833 29.9251C31.5575 29.4611 31.4676 29.4123 30.8444 29.4815C30.8376 29.383 30.8316 29.2855 30.8247 29.187C31.5754 29.4363 31.9983 29.1746 32.1789 28.2501L32.8174 28.7443Z" fill="white"/>
<path d="M49.8026 29.6265C50.0594 29.8979 50.2725 30.1526 50.0345 30.5846C49.9258 30.7825 49.9875 31.0743 49.9404 31.3174C49.9121 31.4611 49.8231 31.5924 49.7623 31.7282C49.6399 31.6235 49.4867 31.5392 49.4054 31.4061C49.3241 31.2731 49.3292 31.1072 49.2958 30.9546L49.5466 30.22L49.6322 30.4471C49.6802 30.2147 49.7427 29.9183 49.8026 29.6265Z" fill="#BEE3F2"/>
<path d="M31.3623 27.9146C31.0037 27.9687 30.6348 27.9838 30.2907 28.0876C29.9465 28.1914 29.647 28.383 29.3037 28.5471C29.2986 28.4291 29.2943 28.3369 29.29 28.2437L29.2857 28.2508L29.5485 28.0681L29.5417 28.0734C29.7129 28.0157 29.8789 27.9474 30.051 27.9013C30.4285 27.7993 30.8085 27.7079 31.1877 27.6121L31.3623 27.9146Z" fill="#BEE3F2"/>
<path d="M50.5857 28.2624L50.3143 28.7468L50.1432 28.6403C50.1372 28.4505 50.1286 28.2597 50.1252 28.069C50.1218 27.8782 50.1252 27.6875 50.1252 27.4542C50.4941 27.6227 50.7132 27.833 50.5857 28.2624Z" fill="#1F1E25"/>
<path d="M49.7521 27.8942C50.0662 28.4149 49.889 28.8701 49.7906 29.3811C49.509 28.5924 49.5013 28.4584 49.7521 27.8942Z" fill="#1F1E25"/>
<path d="M31.3623 27.9142C31.3041 27.8132 31.2459 27.7122 31.1868 27.6121L32.333 27.8185L32.0291 28.0427L31.3623 27.9142Z" fill="#DADADA"/>
<path d="M52.7976 16.0633C52.8258 16.1804 52.8541 16.2984 52.8832 16.4182L51.8688 15.9222C51.8834 15.8903 51.8979 15.8584 51.9133 15.8264L52.7976 16.0633Z" fill="#1F1E25"/>
<path d="M31.2938 28.1259L32.0471 28.2621C31.7244 28.6415 31.5994 28.6247 31.2938 28.1259Z" fill="white"/>
<path d="M53.1382 16.4251L53.2683 16.1141L53.5697 16.5845L53.1382 16.4251Z" fill="#1F1E25"/>
<path d="M47.0805 10.7475C46.9264 10.659 46.6303 10.6466 46.8605 10.3459L47.0745 10.7537L47.0805 10.7475Z" fill="#1F1E25"/>
<path d="M27.2373 33.2125L27.0131 33.0448L27.0987 32.9667L27.233 33.2196L27.2373 33.2125Z" fill="#1F1E25"/>
<path d="M47.2347 11.2095C47.1833 11.0562 47.1311 10.9029 47.0797 10.7488L47.0746 10.755L47.2287 11.2166L47.2347 11.2095Z" fill="#1F1E25"/>
<path d="M53.4704 15.1165C53.5106 15.1989 53.8265 14.95 53.6587 15.2839L53.4704 15.1165Z" fill="#1F1E25"/>
<path d="M53.4909 14.4058V14.7291C53.3985 14.5723 53.3505 14.4935 53.3035 14.4137L53.4909 14.4058Z" fill="#1F1E25"/>
<path d="M47.0267 22.1608L47.2963 22.2244V22.2915L47.007 22.3321L46.9274 22.2438V22.2703L47.0267 22.1608Z" fill="#C69784"/>
<path d="M52.944 14.6851L53.0869 14.6683L53.0484 14.7806L52.944 14.6851Z" fill="#1F1E25"/>
<path d="M48.5922 32.0354L48.6059 31.8583H48.6649L48.6846 32.0407L48.5922 32.0354Z" fill="#1F1E25"/>
<path d="M52.9714 21.7334L52.9482 21.434L53.0629 21.4207C53.0724 21.496 53.0826 21.5722 53.0929 21.6475L52.9714 21.7334Z" fill="#1F1E25"/>
<path d="M47.4452 20.4799L47.6506 20.5683L47.6327 20.6328L47.3699 20.5939L47.4452 20.4799Z" fill="#C69784"/>
<path d="M47.4033 18.5791L47.5668 18.6099L47.4033 18.6609L47.411 18.6662C47.411 18.6345 47.411 18.6037 47.411 18.5721L47.4033 18.5791Z" fill="#C69784"/>
<path d="M23.4933 15.6787C23.4539 15.7088 23.4248 15.7476 23.4 15.745C23.3752 15.7423 23.3367 15.6929 23.3401 15.6699C23.3435 15.6469 23.382 15.608 23.4051 15.5815L23.4933 15.6787Z" fill="#1F1E25"/>
<path d="M46.8914 8.08137L46.8965 7.91882L46.9821 8.04162L46.8914 8.08137Z" fill="#1F1E25"/>
<path d="M45.6973 8.80811C45.7254 8.81457 45.7541 8.81811 45.7829 8.81865L45.7281 8.94348L45.6973 8.80811Z" fill="#1F1E25"/>
<path d="M29.7907 25.5016L29.8133 25.5086L29.7968 25.4955L29.7907 25.5016Z" fill="#C69784"/>
<path d="M27.7476 39.2495L27.7538 39.2557L27.7476 39.2495Z" fill="#C69784"/>
<path d="M47.2286 11.2172L47.2698 11.226L47.2347 11.2102L47.2286 11.2172Z" fill="#1F1E25"/>
<path d="M43.7329 14.229L43.7816 14.1769L43.7269 14.2194L43.7329 14.229Z" fill="#C69784"/>
<path d="M53.6459 14.3533L53.669 14.4734L53.6356 14.5079L53.5406 14.4001L53.6459 14.3533Z" fill="#1F1E25"/>
<path d="M53.0844 19.1743L53.0467 19.0389L53.2179 19.0512L53.0844 19.1743Z" fill="#1F1E25"/>
<path d="M53.2145 19.0513L53.253 19.1654C53.2204 19.1937 53.1879 19.222 53.1545 19.2494L53.0844 19.1751L53.2145 19.0513Z" fill="#1F1E25"/>
<path d="M36.0385 44.6662C35.9768 44.5713 35.8596 44.471 35.8673 44.384C35.8961 44.2595 35.9665 44.1495 36.0659 44.0734C36.1515 44.0042 36.273 43.9891 36.3791 43.951L36.3483 43.8489C36.4879 43.856 36.6282 43.864 36.7678 43.8684C36.7937 43.8651 36.8191 43.8579 36.8431 43.8471C36.8328 43.6697 36.8225 43.4922 36.8097 43.2756C37.1521 43.4806 37.42 43.438 37.6991 43.2322C37.8797 43.0982 38.1322 43.068 38.3085 42.9304C38.6381 42.674 38.9325 42.3687 39.2501 42.0936C39.3066 42.0439 39.4024 42.0422 39.482 42.0173C39.5565 41.6366 39.5625 41.2062 40.0573 41.0775C40.1275 41.0589 40.1711 40.9285 40.2285 40.8495L40.2439 40.8175L40.2285 40.8495H39.8861L39.8767 40.8379C40.2681 40.5291 40.6593 40.2206 41.0502 39.9124C41.3215 39.6994 41.5398 39.9204 41.7709 40.018C41.7923 40.0269 41.7983 40.0766 41.8197 40.0872C42.0988 40.2221 42.3598 40.5415 42.6962 40.2807C42.8914 40.1289 42.7262 39.4119 42.4839 39.1954C42.3338 39.0651 42.1909 38.9262 42.056 38.7792C41.8548 38.5538 41.6605 38.6292 41.4679 38.7792C41.3519 38.8747 41.2188 38.9455 41.0764 38.9876C40.9339 39.0296 40.7848 39.042 40.6376 39.0241C39.6473 38.9309 38.6518 38.8981 37.658 38.8599C37.1632 38.8413 36.665 38.8857 36.1711 38.8599C35.7834 38.8386 35.4735 38.4881 35.4795 37.9725C35.4795 37.7631 35.7363 37.456 35.9477 37.37C36.3612 37.1987 36.5983 37.6264 36.8953 37.8341C36.9139 37.851 36.9303 37.8704 36.9441 37.8918C37.0468 37.4702 37.1863 37.0523 37.242 36.621C37.2873 36.2607 37.4859 36.1915 37.7667 36.1294C38.1949 36.0494 38.6148 35.9273 39.0207 35.7647C39.1773 35.6954 39.2449 35.4097 39.3528 35.2251C39.1987 35.1772 39.0412 35.1364 38.8906 35.0796C38.4985 34.9287 38.1039 34.7814 37.7213 34.6057C37.6186 34.5578 37.5578 34.414 37.4714 34.3075L36.5375 34.6873C36.2122 34.8187 35.6481 34.367 35.643 33.9987C35.6345 33.2888 35.6045 32.5789 35.5771 31.869C35.5643 31.5424 35.548 31.2478 35.8185 30.9744C36.0239 30.7677 36.0393 30.4624 35.7877 30.2086C35.6548 30.0837 35.5597 29.9216 35.5138 29.7418C35.5043 29.5644 35.5266 29.3798 35.4804 29.2147C35.3537 28.763 35.1748 28.3273 35.0678 27.8694C35.0293 27.7044 35.1029 27.4861 35.1834 27.3228C35.3083 27.0699 35.2861 26.9039 35.0224 26.7957L35.2707 26.6492L35.2878 26.6182L35.2715 26.6492C35.2227 26.6129 35.1483 26.5853 35.1303 26.5365C34.9959 26.1736 34.8735 25.8053 34.7468 25.4388L34.621 25.4672C34.633 25.6553 34.6449 25.8435 34.6612 26.0884L34.4438 25.9003C34.431 25.9606 34.4138 26.0396 34.3847 26.1665L33.6649 25.6181L33.5793 25.7885C33.5279 25.587 33.4868 25.4228 33.4389 25.2312L33.2934 25.4885C33.2463 25.3527 33.212 25.2534 33.1778 25.1522C33.1384 25.2258 33.1008 25.2977 33.111 25.2791C32.8046 25.2267 32.5512 25.1903 32.3004 25.1389C32.0496 25.0874 31.7937 25.0501 31.917 24.6721C31.9212 24.6588 31.9289 24.6375 31.9229 24.6295C31.6182 24.1858 31.8682 23.6791 31.756 23.2097C31.7363 23.1271 31.7475 22.9727 31.7937 22.9479C32.2688 22.6861 32.2474 22.238 32.2217 21.7863C32.2165 21.6851 32.2217 21.5839 32.2217 21.4863L32.9279 21.2787C32.9912 20.8101 33.0511 20.37 33.1179 19.8792L32.6171 20.3451C32.5273 20.1419 32.4382 19.9387 32.3458 19.7239L32.9339 19.7514L33.0742 19.566L32.6283 19.0903C32.6694 18.8623 32.7378 18.4195 32.8354 17.9837C32.856 17.895 32.9878 17.8284 33.064 17.7477C33.2643 17.5356 33.2352 17.1416 33.0468 17.0111C33.3593 16.6846 33.646 16.3128 33.997 16.0306C34.6081 15.5407 35.2193 15.0021 36.1087 15.3375C36.2722 15.3996 36.5152 15.2727 36.7078 15.2C37.0434 15.0731 37.307 14.7243 37.741 14.8911C37.8309 14.9257 37.9978 14.7403 38.1305 14.656C38.4515 15.0109 38.5824 15.0109 38.8683 14.6382C39.0335 14.9293 39.2244 15.0411 39.5385 14.8201C39.6284 14.7571 39.8689 14.4261 40.0179 14.8264C40.0469 14.8299 40.0763 14.826 40.1035 14.8148C40.7206 14.5584 41.3549 14.6577 41.9866 14.6853C42.2143 14.695 42.448 14.5504 42.6783 14.4758L42.7262 14.5264C42.8974 14.798 43.0686 15.0589 43.3065 14.9204C43.5882 15.1272 43.7808 15.3499 44.017 15.4254C44.9218 15.7129 45.3968 16.4592 45.8856 17.2002C45.9372 17.2708 45.9927 17.3383 46.0516 17.4025C45.8479 17.5746 45.5877 17.7175 45.8154 18.0769C45.8565 18.1408 45.6913 18.3431 45.6219 18.4869L45.4294 18.5898L45.7777 18.7442L45.7897 18.7567C46.1321 19.1445 46.1321 19.2891 45.7769 19.6441L46.3444 19.9937L46.317 20.062L45.7486 19.9627C45.9618 20.464 46.1629 20.8731 46.3042 21.3026C46.3675 21.4934 46.2922 21.7295 46.311 21.9424C46.3555 22.4518 46.7022 22.7713 47.0334 23.0881C47.351 23.3916 47.7593 23.6028 47.6164 24.1982C47.5085 24.6517 47.4786 25.1185 47.1156 25.4566C47.0624 25.5182 47.0165 25.5861 46.9787 25.6589L47.3142 26.1132L47.1524 26.557L47.1319 26.5924L47.1507 26.5552L47.4623 27.2429L47.3185 27.3112C47.2671 27.2225 47.2158 27.1338 47.1396 27.0069C47.0822 27.0956 46.9949 27.2021 47.0086 27.219C47.3039 27.589 47.1884 27.9821 47.1019 28.3841C47.0797 28.4915 47.1541 28.6219 47.1875 28.7684L46.7749 29.047V28.5527L46.3418 29.1579L46.4694 29.3115H46.4651C46.5053 29.7312 46.5455 30.1501 46.5935 30.6426C46.4813 30.7499 46.3418 30.7207 46.2511 30.3346C46.4094 31.0676 45.9832 31.5255 45.7846 32.058L44.843 31.9852C44.8516 32.113 44.8644 32.318 44.8781 32.5265L45.6485 32.2896L45.8762 32.5691L46.2246 32.1707L46.8066 32.2976L46.3666 34.8258L46.0739 33.9419C45.919 34.2658 45.7717 34.5915 45.6065 34.9065C45.5526 35.0095 45.4473 35.084 45.372 35.1728C45.2591 35.296 45.1593 35.4313 45.0741 35.5765C45.0539 35.6216 45.0244 35.6616 44.9877 35.6936C44.951 35.7256 44.908 35.7489 44.8617 35.762C44.8154 35.775 44.7669 35.7774 44.7196 35.7689C44.6723 35.7605 44.6274 35.7415 44.5879 35.7132L44.0418 36.5154C43.5402 36.377 42.983 36.2536 42.4489 36.0602C42.2152 35.9714 42.0209 35.762 41.8231 35.581C41.5184 35.2961 41.2377 34.982 40.9338 34.6936C40.8012 34.5746 40.6562 34.4713 40.5015 34.3856C39.9661 34.0625 39.4143 33.7692 38.8486 33.5071C38.9197 33.5958 38.9847 33.6846 39.0626 33.768C39.6866 34.4194 40.3286 35.0547 40.9312 35.7265C41.158 35.9803 41.2522 36.3654 41.4867 36.6068C41.781 36.9142 42.1249 37.1659 42.5028 37.3504C42.8058 37.4924 43.0806 37.598 43.2372 37.9308C43.2894 38.0408 43.4384 38.1021 43.5864 38.221C43.672 37.7649 43.88 37.6158 44.2789 37.6353C44.5066 37.646 44.742 37.4756 44.974 37.3868C45.0065 37.4995 45.0698 37.7223 45.134 37.945L45.2359 37.9326C45.3244 37.6368 45.4128 37.341 45.5013 37.0452L45.6588 37.0789L45.7127 37.4986L46.6825 37.441C46.4257 38.1314 46.4454 38.1322 46.4403 38.8723C46.4403 39.1084 46.4308 39.4527 45.9549 39.3746L46.1997 39.9754C45.8094 39.8094 45.7272 40.1759 45.6151 40.3676C45.3078 40.8912 45.0647 41.4556 44.7976 42.0004H44.4167C44.6324 41.3056 44.8516 40.6125 45.0579 39.915C45.0835 39.8263 45.0399 39.7198 45.0219 39.5601C44.7976 40.1023 44.6556 40.554 44.4296 40.9551C44.2515 41.2719 43.9571 41.5159 43.7388 41.8114C43.5582 42.0563 43.4127 42.3288 43.2518 42.5879L43.357 42.721L44.3936 42.6243C44.4051 42.6808 44.4051 42.7391 44.3936 42.7956C44.3192 42.9837 44.0401 43.1363 44.3893 43.3644C44.51 43.4434 44.005 44.1471 43.7337 44.2323C43.773 44.3512 43.8124 44.4692 43.8501 44.5872L43.3725 44.7967L43.1756 44.6192L41.7555 45.3113L41.6203 45.0593C41.6511 45.4054 41.5467 45.5625 41.1991 45.5456C41.1238 45.5456 41.0057 45.7036 40.9672 45.8118C40.8319 46.1881 40.2113 46.402 39.8895 46.1127C39.5676 45.8234 39.2338 45.8296 38.8743 45.96C38.8058 45.9849 38.7596 46.0736 38.7031 46.1375C38.6235 46.2209 38.5456 46.37 38.4643 46.3727C38.3968 46.3722 38.3301 46.3579 38.268 46.3306C38.2059 46.3033 38.1496 46.2637 38.1022 46.2138C37.7128 45.7373 37.3473 45.2377 36.6351 45.3637C36.5547 45.3617 36.4768 45.3345 36.4117 45.2856C36.267 45.1969 36.1301 45.1001 35.9631 44.9883C35.976 44.936 36.0094 44.8038 36.0419 44.6706L36.0599 44.6414L36.0385 44.6662ZM42.4583 27.7168L42.163 27.5526C41.8557 27.4266 41.5569 27.2376 41.2394 27.1977C40.897 27.1515 40.5409 27.242 40.1908 27.2731L39.5916 27.282V26.7735H39.922C39.9143 26.6129 39.9075 26.4691 39.8981 26.2694L40.1591 26.5907L41.4217 26.1212C41.634 26.21 41.7735 26.2801 41.9207 26.3209C42.1223 26.3879 42.3369 26.4013 42.5447 26.3599C42.8203 26.3023 43.1439 26.5019 43.4007 26.5765L43.0754 26.7273C43.286 27.1089 43.47 27.4683 43.6823 27.8091C43.7388 27.8978 43.8835 27.9289 43.9879 27.9866L44.0735 28.1259L44.1249 28.0717L43.9896 27.983L43.9519 27.7044L44.3962 27.6316L43.9425 26.8977L44.2104 26.7398L43.9126 26.7557C43.8509 26.7602 43.7893 26.7664 43.6558 26.7788C44.2301 26.3883 44.5725 26.8356 44.9714 27.0015C45.0493 26.9039 45.1281 26.8072 45.2282 26.6785L44.7317 26.651L45.045 25.9509C44.9021 25.8967 44.5734 25.8665 44.5314 25.7361C44.4236 25.4051 44.189 25.3918 43.9545 25.3288C43.8475 25.2995 43.7414 25.2676 43.6344 25.24L43.6541 25.1513L44.047 25.1841C43.8537 25.1192 43.6485 25.1022 43.4478 25.1344C43.2817 25.1513 43.078 25.2596 42.9599 25.193C42.7176 25.0564 42.5208 24.831 42.3051 24.6419C42.2888 24.6242 42.2717 24.6073 42.2545 24.5905C42.2614 24.5381 42.2691 24.4857 42.2759 24.4343C42.287 24.4308 42.2976 24.4261 42.3076 24.4201C42.3128 24.4156 42.3119 24.405 42.3145 24.397L42.2794 24.4378C42.0834 24.4298 41.8343 24.3384 41.7007 24.429C41.2419 24.7404 40.7309 24.6668 40.2413 24.7094C39.9845 24.7316 39.8133 24.7662 39.7757 25.0572L39.2193 25.1344L38.9779 25.1664L38.8683 25.2977C38.6466 25.4841 38.4181 25.6633 38.2049 25.8595C37.9918 26.0556 37.824 26.3369 37.5809 26.454C37.3378 26.5711 37.2916 26.6945 37.3199 26.9199L37.3027 26.9545L37.319 26.9199C37.4046 27.0255 37.557 27.1293 37.5587 27.2367C37.5655 27.6005 37.497 27.9653 37.5039 28.3291C37.5129 28.404 37.5372 28.476 37.5751 28.5404C37.6131 28.6048 37.6638 28.6601 37.7239 28.7027C37.9704 28.8571 38.0449 29.0364 37.9875 29.3239C37.9775 29.3933 37.9829 29.4642 38.0034 29.5311C38.0238 29.598 38.0588 29.6592 38.1056 29.7099C38.3864 29.9255 38.6817 30.1483 39.0061 30.2681C39.2766 30.3675 39.5959 30.3293 39.8946 30.3471C40.1207 30.3699 40.348 30.3782 40.5751 30.3719C41.1837 30.3284 41.8548 30.5565 42.3898 29.9078C41.8163 29.8714 41.277 29.8812 40.7566 29.788C40.4639 29.7356 40.1959 29.5218 39.9289 29.3576C39.8963 29.3372 39.9366 29.189 39.9468 29.039L40.2319 29.2724L40.9072 29.0763L40.8679 28.9592C40.5657 28.9166 40.5657 28.9166 40.5734 28.7107L41.5877 28.6636C41.6502 28.6885 41.729 28.7524 41.7726 28.7311C42.3136 28.4835 42.8049 28.5359 43.298 28.8935C43.4538 29.0071 43.7114 28.9698 43.9691 29.0088C43.7936 28.7861 43.5916 28.645 43.5727 28.4808C43.5454 28.2421 43.5205 28.1498 43.2389 28.1507L42.8777 27.9732L42.8837 27.9812L42.4454 27.7097L42.4583 27.7168ZM46.0414 38.7898L46.1723 38.7827C46.1663 38.654 46.1595 38.5245 46.1535 38.3958L46.0251 38.4038C46.0294 38.5316 46.0354 38.6603 46.0405 38.7889L46.0414 38.7898ZM46.02 37.6912C46.0114 37.7134 45.99 37.74 45.996 37.756C46.002 37.772 46.0345 37.7773 46.0559 37.7871C46.0653 37.7649 46.0867 37.7382 46.0808 37.7223C46.0748 37.7063 46.0405 37.7001 46.0191 37.6903L46.02 37.6912ZM42.5105 38.7641L42.5379 38.7809V38.7552L42.5105 38.7641ZM42.733 38.993H42.7604L42.7484 38.9593L42.733 38.993ZM45.1717 26.982L45.2059 26.9652L45.1717 26.9483V26.982ZM46.1681 29.378L46.1629 29.433C46.1698 29.4242 46.1818 29.4162 46.1826 29.4073C46.1835 29.3984 46.1766 29.3842 46.1706 29.3745L46.1681 29.378Z" fill="white"/>
<path d="M42.2759 51.5019L41.9763 51.6012C41.6083 51.335 41.2334 51.343 40.8396 51.4238C40.4459 51.5045 40.0641 51.5622 39.6763 51.6296L39.6507 51.524C39.9075 51.4353 40.1591 51.3466 40.421 51.2676C41.2419 51.0315 41.3412 50.8753 41.1983 49.9045L42.1338 49.6924C42.0885 49.5229 42.0482 49.3632 42.0037 49.2026L42.6731 48.8734C42.5088 48.6071 42.4488 48.4208 42.8075 48.1634C43.3005 47.8085 43.7028 47.3169 44.1291 46.8687C44.3585 46.6282 44.4544 46.1774 44.9337 46.3806C44.9654 46.394 45.0373 46.3416 45.0733 46.3025C45.7221 45.605 46.501 45.0247 46.9068 44.1071C46.9343 44.0403 46.9798 43.983 47.0377 43.9421C47.3382 43.753 47.6446 43.5729 47.9622 43.3812V43.6066L48.5673 43.6599L48.8541 43.2162L48.6829 42.3891C48.9996 43.0715 49.164 43.7593 48.8301 44.4922C48.5793 45.0398 48.4167 45.6343 48.1453 46.1668C47.904 46.6353 47.672 47.1065 47.2466 47.4792C46.7895 47.8795 46.4676 48.443 46.0696 48.9213C45.8265 49.2141 45.5449 49.4724 45.2941 49.7599C45.1897 49.8761 45.1099 50.0136 45.0596 50.1636C44.9654 50.4733 44.7934 50.5905 44.6085 50.5106C44.4484 50.6881 44.3414 50.8221 44.2173 50.9384C44.023 51.1158 43.8081 51.2782 43.6181 51.4655C43.4084 51.6731 42.9659 51.6935 42.7159 51.4575C42.5447 51.2924 42.4129 51.2489 42.2931 51.4992L42.2759 51.5019ZM47.8475 44.1781C47.8574 44.1575 47.8657 44.1362 47.8723 44.1142C47.8723 44.1142 47.8492 44.0911 47.8449 44.0938C47.8274 44.1068 47.8108 44.121 47.7953 44.1364L47.8475 44.1781ZM41.521 51.0111C41.5305 50.9913 41.5388 50.9708 41.5458 50.9499C41.5458 50.9499 41.5227 50.9277 41.5184 50.9304C41.501 50.9424 41.4847 50.9561 41.4696 50.9712L41.521 51.0111ZM42.8683 51.3483V51.3785L42.9025 51.3661L42.8683 51.3483Z" fill="white"/>
<path d="M37.3806 40.4138C37.0134 40.4804 36.6445 40.6117 36.279 40.6011C35.6415 40.5915 35.0062 40.5205 34.3813 40.389C34.0081 40.3047 33.872 40.5416 33.7325 40.7377C33.6614 40.838 33.7445 41.106 33.8232 41.2622C33.9559 41.5284 33.9807 41.7006 33.628 41.7565L34.6133 42.493L34.371 42.6306L34.5491 42.8844C34.4558 42.9305 34.3573 43.0255 34.2717 43.0148C34.0969 42.9979 33.928 42.9401 33.7778 42.8457C33.6276 42.7513 33.5 42.6229 33.4046 42.4699C33.0759 41.9375 32.7909 41.3713 32.4631 40.8336C32.3116 40.6048 32.1412 40.3901 31.9538 40.192C31.9272 40.1618 31.8399 40.192 31.7244 40.192C31.8956 39.8459 31.703 39.4732 31.8716 39.0517C32.0402 38.6301 32.5624 38.8476 32.6565 38.4305C32.6719 38.4988 32.6865 38.5671 32.7019 38.6355L32.6462 38.6452L32.6779 38.6896L32.7053 38.6284C32.9476 38.6923 32.7318 39.2984 33.2078 39.0854L33.0682 39.1741L33.0965 39.2842H36.2165L36.2242 39.4537C36.0042 39.4679 35.7851 39.4892 35.5643 39.4954C35.3297 39.5007 35.0858 39.4776 35.0918 39.8991C34.7759 39.5442 34.514 39.5903 34.2717 39.955C34.3154 40.0136 34.3573 40.1272 34.4147 40.1378C35.007 40.2497 35.6002 40.3508 36.196 40.4369C36.2816 40.4484 36.3757 40.365 36.4656 40.3251L37.3806 40.4138Z" fill="#1F1E25"/>
<path d="M32.5332 32.3295C32.4416 32.365 32.2961 32.3748 32.267 32.4404C32.1266 32.7563 31.9828 32.6516 31.7877 32.483C31.8151 32.5895 31.8416 32.6951 31.8664 32.7918C31.9084 32.8114 31.9358 32.8371 31.958 32.8327C32.3004 32.7608 32.6514 32.6685 32.4545 33.2764C32.4262 33.3651 32.5153 33.4885 32.5478 33.5896L31.8253 33.6402C31.9195 33.8922 32.0077 34.1256 32.095 34.359L31.5745 34.5959L31.4479 34.3856L30.8025 34.2969C30.8572 34.4664 30.9163 34.6465 30.9856 34.8568C30.4857 34.6856 30.3813 34.5223 30.514 34.1221L30.7066 34.2995L31.0113 33.618L30.6963 33.4592C30.7057 33.2418 30.7134 33.0572 30.7246 32.8025L30.9745 32.6064L30.7768 32.4129L31.5557 32.2878L31.0755 31.8122C31.3391 31.7633 31.5386 31.679 31.726 31.7012C32.2739 31.7633 32.5375 31.593 32.7532 31.0135C32.7703 31.1218 32.8208 31.238 32.7986 31.3374C32.7241 31.6711 32.6274 31.9976 32.5332 32.3277V32.3295Z" fill="white"/>
<path d="M39.3716 40.6737C39.1148 40.9203 39.1148 41.0286 39.3716 41.1173H39.3759C39.2389 41.5112 38.888 41.5999 38.5678 41.615C38.2006 41.631 37.8274 41.5263 37.4268 41.4722C37.4208 41.6079 37.4157 41.7117 37.4114 41.8155C37.4046 41.3613 37.1469 41.2885 36.7224 41.4606L36.7301 41.2983C36.9209 41.1208 37.0844 40.8742 37.3087 40.766C37.838 40.4976 38.4088 40.3282 38.995 40.2656C39.3374 40.2354 39.387 40.388 39.3759 40.6631L39.3716 40.6737Z" fill="white"/>
<path d="M36.0805 36.3863C35.7004 36.4599 35.3212 36.5833 34.9411 36.5886C34.746 36.5886 34.5465 36.3854 34.3514 36.2701C34.2187 36.1929 34.0946 36.0545 33.9576 36.0377C33.4543 35.9747 33.4115 35.587 33.2729 35.0919C33.569 35.3652 33.7496 35.5195 33.9225 35.1141C34.0312 34.8604 34.4361 34.9198 34.6424 35.1602C34.8865 35.4558 35.1496 35.7338 35.4299 35.9924C35.5934 36.1352 35.8245 36.1929 36.0291 36.2896L36.0805 36.3863Z" fill="#1F1E25"/>
<path d="M33.3397 28.0848H33.9388L33.219 27.0202L33.3525 26.9315C33.8327 27.2544 34.271 27.5871 34.4524 28.2321C34.5243 28.4876 34.568 28.712 34.4781 28.9285C34.443 29.0172 34.1477 29.0971 34.1058 29.05C33.8147 28.7262 33.5571 28.3651 33.3397 28.0848Z" fill="#1F1E25"/>
<path d="M37.3806 40.4135L36.463 40.331C36.5371 40.1746 36.6229 40.0245 36.7198 39.8821C36.8765 39.6816 37.3087 39.8102 37.2856 39.3817C37.3789 39.4083 37.527 39.4074 37.5561 39.4704C37.6708 39.7082 37.7273 39.9646 38.0526 39.6594C38.1039 39.6106 38.3445 39.7783 38.4968 39.8466C38.4061 39.9415 38.3308 40.0746 38.2204 40.1225C37.9464 40.237 37.6606 40.3177 37.3806 40.4135Z" fill="white"/>
<path d="M41.8462 39.6674C41.3206 39.6674 40.7951 39.6497 40.2704 39.6718C39.7833 39.6923 39.2988 39.7552 38.8024 39.8005C38.7878 39.6497 38.7707 39.4758 38.7476 39.2451L41.8548 39.5113L41.8462 39.6674Z" fill="#1F1E25"/>
<path d="M31.2031 27.5188L30.8787 27.3413C30.9898 27.2762 31.1041 27.217 31.2211 27.1639C31.2613 27.1479 31.3392 27.2047 31.3631 27.1834C31.9212 26.6786 32.5975 26.8286 32.8851 27.525H31.4599L31.2031 27.5188Z" fill="white"/>
<path d="M35.518 47.8547L36.2114 47.7775H36.2165L36.4973 48.0019L35.994 48.4402L35.1868 48.0853L35.5292 47.8617C35.5169 47.8683 35.5057 47.8766 35.4958 47.8866C35.4958 47.8866 35.4958 47.9043 35.5009 47.9132L35.518 47.8547ZM35.4906 48.0711L35.4744 48.0933L35.4983 48.0986L35.4906 48.0711Z" fill="#1F1E25"/>
<path d="M31.203 27.5189L31.4598 27.5286L33.1512 27.9216C33.1375 27.974 33.1239 28.0272 33.111 28.0796L32.3338 27.8134L31.1825 27.6102C30.8042 27.7061 30.4241 27.7974 30.0466 27.8995C29.8754 27.9456 29.7042 28.0139 29.5373 28.0716C29.6666 27.9829 29.7856 27.8551 29.9276 27.8152C30.3479 27.699 30.7768 27.6156 31.203 27.5189Z" fill="#1F1E25"/>
<path d="M38.2829 35.4326L37.0408 35.2729C37.4748 34.761 37.9961 34.8391 38.2829 35.4326Z" fill="#1F1E25"/>
<path d="M40.5794 47.0752L40.0076 47.3614L39.922 47.1842C39.9914 46.8564 40.3654 47.1045 40.5144 46.9282L40.5794 47.0752Z" fill="#1F1E25"/>
<path d="M39.1517 48.0622L38.8213 47.898L39.1962 47.5148C39.1782 47.7064 39.1645 47.8741 39.1517 48.0622Z" fill="#1F1E25"/>
<path d="M30.413 32.2675C30.4695 32.3562 30.5235 32.4014 30.5183 32.4378C30.5132 32.4742 30.4524 32.5123 30.4156 32.5487C30.3874 32.5079 30.3437 32.4697 30.3369 32.4254C30.33 32.381 30.372 32.3446 30.413 32.2675Z" fill="#DADADA"/>
<path d="M38.098 48.1339L38.2349 47.9115L38.3419 47.9806L38.092 48.1259L38.098 48.1339Z" fill="#1F1E25"/>
<path d="M45.7778 18.7479L45.8574 18.527L45.9866 18.6636L45.7898 18.7603L45.7778 18.7479Z" fill="#DADADA"/>
<path d="M46.4274 19.4414C46.3838 19.3926 46.335 19.3598 46.323 19.3164C46.317 19.2934 46.3752 19.2517 46.4086 19.2181C46.4475 19.2504 46.4818 19.2883 46.5105 19.3306C46.513 19.3448 46.4659 19.3882 46.4274 19.4414Z" fill="#DADADA"/>
<path d="M39.3708 41.1145C39.3913 41.0418 39.411 40.9692 39.4315 40.8974L39.5283 40.9532L39.375 41.1189L39.3708 41.1145Z" fill="#DADADA"/>
<path d="M29.5442 28.0682L29.2815 28.2506L29.5442 28.0682Z" fill="#1F1E25"/>
<path d="M46.4702 29.3114L46.5994 29.3993L46.5506 29.4503L46.465 29.3176L46.4702 29.3114Z" fill="#DADADA"/>
<path d="M32.5324 32.3313L32.6608 32.4113L32.6138 32.4605L32.5333 32.3295L32.5324 32.3313Z" fill="#DADADA"/>
<path d="M41.4233 56.7319L41.5029 56.5991L41.5526 56.6519L41.4242 56.7336L41.4233 56.7319Z" fill="#DADADA"/>
<path d="M47.4101 18.5721C47.4101 18.6037 47.4101 18.6345 47.4101 18.6662H47.1824C47.1824 18.6345 47.1824 18.6037 47.1824 18.5721H47.4101Z" fill="#1F1E25"/>
<path d="M28.5624 26.4789C28.6069 26.4868 28.648 26.4938 28.6942 26.5034C28.6959 26.5124 28.6959 26.5216 28.6942 26.5306C28.6497 26.5367 28.6086 26.5402 28.5616 26.5455L28.5624 26.4789Z" fill="#1F1E25"/>
<path d="M47.0668 20.2582L47.3304 20.3465L47.3373 20.3412L47.0659 20.2608L47.0668 20.2582Z" fill="#1F1E25"/>
<path d="M39.887 40.8538L39.7911 40.9831L39.7474 40.9347L39.8775 40.8468L39.887 40.8538Z" fill="#DADADA"/>
<path d="M38.5884 47.8964L38.5756 48.037H38.5456V47.8955L38.5884 47.8964Z" fill="#1F1E25"/>
<path d="M48.011 20.2562L47.8774 20.2208C47.8849 20.2097 47.8929 20.1991 47.9014 20.1889C47.9365 20.2128 47.9707 20.2385 48.005 20.2642L48.011 20.2562Z" fill="#1F1E25"/>
<path d="M44.1574 42.4188L44.1343 42.3978C44.1437 42.3926 44.1531 42.383 44.1617 42.3838C44.1702 42.3847 44.1771 42.3961 44.1856 42.4031L44.1574 42.4188Z" fill="#DADADA"/>
<path d="M46.9256 22.2734V22.2477L46.8734 22.2606L46.9256 22.2734Z" fill="#1F1E25"/>
<path d="M34.9094 26.2901L34.8983 26.3205L34.8649 26.2857L34.8898 26.264L34.9094 26.2901Z" fill="#DADADA"/>
<path d="M41.0023 56.9168C40.9886 56.9548 40.9749 56.9928 40.9621 57.0309L40.9295 57.007C40.9492 56.9734 40.9715 56.9416 40.9929 56.9089L41.0023 56.9168Z" fill="#DADADA"/>
<path d="M41.2351 57.1754L41.2206 57.2058L41.1863 57.1633C41.1966 57.158 41.2077 57.1476 41.2154 57.1494C41.2231 57.1511 41.2283 57.1659 41.2351 57.1754Z" fill="#DADADA"/>
<path d="M45.7855 32.0632L45.8125 32.0824L45.782 32.0667L45.7855 32.0632Z" fill="#DADADA"/>
<path d="M47.0668 20.261L47.0523 20.2465L47.0678 20.2583L47.0668 20.261Z" fill="#1F1E25"/>
<path d="M28.6836 38.8075L28.6652 38.8451L28.6897 38.8129L28.6836 38.8075Z" fill="#1F1E25"/>
<path d="M39.3752 40.6702L39.4004 40.6859L39.3717 40.6737L39.3752 40.6702Z" fill="#DADADA"/>
<path d="M44.3286 42.0905L44.4141 42.0023L44.3286 42.0905Z" fill="#DADADA"/>
<path d="M44.3317 42.0937L44.3115 42.1277L44.3291 42.091L44.3317 42.0937Z" fill="#DADADA"/>
<path d="M42.6859 14.4712L42.745 14.4341C42.745 14.4632 42.7373 14.4923 42.7338 14.5224L42.6859 14.4712Z" fill="#DADADA"/>
<path d="M43.5916 14.4419L43.622 14.4349L43.6177 14.4593L43.5916 14.4419Z" fill="#1F1E25"/>
<path d="M32.9586 14.5831L33.0185 14.652L32.9834 14.667C32.9775 14.637 32.9715 14.6079 32.9663 14.5787L32.9586 14.5831Z" fill="#1F1E25"/>
<path d="M28.6892 38.8132L28.7006 38.7739L28.6831 38.8079L28.6892 38.8132Z" fill="#1F1E25"/>
<path d="M36.2114 47.7779L36.2186 47.7606L36.2168 47.7733L36.2114 47.7779Z" fill="#1F1E25"/>
<path d="M46.7323 17.4291L46.7184 17.4309H46.7393L46.7323 17.4291Z" fill="#1F1E25"/>
<path d="M38.0929 48.1262C38.0876 48.1373 38.0811 48.1478 38.0737 48.1576C38.0737 48.1576 38.0588 48.1576 38.0509 48.1576L38.0991 48.1324L38.0929 48.1262Z" fill="#1F1E25"/>
<path d="M42.2812 51.4965L42.3163 51.5193L42.2759 51.5018L42.2812 51.4965Z" fill="#DADADA"/>
<path d="M32.6202 20.3522L32.6017 20.3863L32.6175 20.3495L32.6202 20.3522Z" fill="#DADADA"/>
<path d="M21.766 15.7353L21.7506 15.7244L21.7624 15.7316L21.766 15.7353Z" fill="#1F1E25"/>
<path d="M53.4652 13.4426L53.3651 13.4125C53.3762 13.3948 53.3942 13.3604 53.3976 13.3621C53.4289 13.3777 53.4592 13.3955 53.4883 13.4152L53.4652 13.4426Z" fill="#1F1E25"/>
<path d="M52.2823 12.6128L52.308 12.5333C52.308 12.5616 52.3012 12.5898 52.2986 12.6216L52.2823 12.6128Z" fill="#1F1E25"/>
<path d="M53.5774 13.4426H53.4653L53.4884 13.4153C53.5094 13.4118 53.5307 13.4118 53.5517 13.4153L53.5774 13.4426Z" fill="#1F1E25"/>
<path d="M53.9892 13.697L53.9523 13.6479L53.9962 13.6899L53.9892 13.697Z" fill="#1F1E25"/>
<path d="M53.669 14.4741L53.6913 14.5366L53.6356 14.508L53.669 14.4741Z" fill="#1F1E25"/>
<path d="M49.978 12.4493C49.9266 12.4416 49.8753 12.4339 49.9421 12.4433C49.8787 12.4185 49.9258 12.4373 49.972 12.4561L49.978 12.4493Z" fill="#1F1E25"/>
<path d="M50.6731 28.5284L50.6123 28.6277C50.6123 28.5794 50.6192 28.531 50.6217 28.4827L50.6731 28.5284Z" fill="#C69784"/>
<path d="M40.5743 28.7115C40.5666 28.9174 40.5666 28.9174 40.8688 28.96L40.9082 29.0771L40.2328 29.2733L39.9478 29.0399C39.9375 29.1898 39.8973 29.338 39.9298 29.3584C40.1969 29.5208 40.4648 29.7365 40.7575 29.7888C41.2788 29.882 41.8172 29.8723 42.3907 29.9086C41.8557 30.5573 41.1847 30.3293 40.5761 30.3728C40.3489 30.3791 40.1217 30.3708 39.8956 30.3479C39.5968 30.3302 39.2775 30.3683 39.0071 30.2689C38.6826 30.1491 38.3873 29.9264 38.1066 29.7107C38.0598 29.66 38.0248 29.5989 38.0043 29.532C37.9838 29.465 37.9784 29.3941 37.9884 29.3247C38.0458 29.0337 37.9713 28.8544 37.7248 28.7035C37.6647 28.661 37.614 28.6057 37.5761 28.5413C37.5381 28.4769 37.5139 28.4048 37.5048 28.3299C37.498 27.9661 37.5664 27.6014 37.5596 27.2376C37.5596 27.1302 37.4038 27.0264 37.3199 26.9207C37.2917 26.6953 37.3422 26.5702 37.581 26.4549C37.8198 26.3395 37.9919 26.0564 38.205 25.8603C38.4181 25.6642 38.6467 25.4849 38.8684 25.2986C39.1252 25.3403 39.0173 25.4459 38.942 25.595C38.8992 25.6837 38.9625 25.8239 38.9779 25.9411C39.049 25.9277 39.1637 25.9411 39.1851 25.8976C39.4213 25.4477 39.863 25.6021 40.1267 25.6864C40.5897 25.8346 40.636 25.516 40.8346 25.2613L39.774 25.0581C39.8108 24.767 39.9803 24.7324 40.2397 24.7102C40.7293 24.6676 41.2403 24.7413 41.6991 24.4298C41.8326 24.3411 42.0817 24.4298 42.2777 24.4387C42.2709 24.4901 42.2632 24.5425 42.2563 24.5949L42.2229 24.6552L42.3085 24.6463C42.5242 24.8353 42.7211 25.0607 42.9634 25.1974C43.0815 25.264 43.2852 25.1557 43.4513 25.1388C43.652 25.1066 43.8572 25.1236 44.0504 25.1885L43.6576 25.1557L43.6379 25.2444C43.7449 25.2755 43.851 25.3074 43.958 25.3332C44.1951 25.3962 44.4271 25.4095 44.5349 25.7405C44.5769 25.8709 44.9056 25.9011 45.0485 25.9553L44.7352 26.6554L45.2317 26.6829C45.1281 26.8116 45.0494 26.9083 44.9749 27.0059C44.576 26.84 44.2336 26.3927 43.6593 26.7832C43.7937 26.7708 43.8553 26.7646 43.9161 26.7601L44.2139 26.7442L43.9452 26.8968L44.3988 27.6307L43.9546 27.7034L43.9922 27.9821C43.8878 27.9244 43.7432 27.8933 43.6867 27.8046C43.4744 27.4638 43.2903 27.1044 43.0798 26.7229L43.405 26.572C43.1483 26.4975 42.8204 26.2978 42.5491 26.3555C42.3412 26.3969 42.1266 26.3834 41.9251 26.3164C41.7778 26.2756 41.6383 26.2028 41.426 26.1168L40.1635 26.5862L39.9024 26.265C39.9118 26.4646 39.9187 26.6084 39.9264 26.769H39.602C39.602 26.9465 39.602 27.1133 39.602 27.2775L38.7845 27.7443L38.8196 27.7966L40.1994 27.2686C40.5495 27.2376 40.9073 27.147 41.248 27.1932C41.5656 27.2367 41.8643 27.4257 42.1707 27.5481L42.466 27.7123L42.4549 27.7052L42.8932 27.9768L42.8872 27.9688C42.9353 28.0675 42.9926 28.1612 43.0584 28.2483C43.0712 28.2625 43.1833 28.1835 43.2501 28.148C43.5317 28.148 43.5566 28.2368 43.5839 28.4781C43.6028 28.6423 43.8048 28.7834 43.9803 29.0061C43.7235 28.9671 43.4667 29.0061 43.3092 28.8908C42.8161 28.5358 42.3248 28.4808 41.7838 28.7284C41.7402 28.7488 41.6614 28.6858 41.5989 28.6609L41.8472 27.9111L42.7374 28.4435C41.64 27.3964 40.0633 27.2251 39.5703 28.03L40.0222 27.8472L40.5743 28.7115ZM38.52 28.1587L38.6724 28.0744L38.5868 28.0034L38.5226 28.164L38.4977 28.1871L38.52 28.1587Z" fill="#BEE3F2"/>
<path d="M40.5743 28.7113L40.0076 27.8525L39.5557 28.0353C40.0504 27.2306 41.6271 27.4018 42.7228 28.4487L41.8326 27.9164L41.5843 28.666L40.5743 28.7113Z" fill="#1F1E25"/>
<path d="M39.7765 25.0545L40.8371 25.2577C40.6385 25.5123 40.5923 25.8308 40.1292 25.6826C39.8638 25.5983 39.4222 25.444 39.1876 25.8938C39.1662 25.9346 39.0515 25.9239 38.9805 25.9372C38.9651 25.8201 38.9017 25.6764 38.9445 25.5912C39.0198 25.4422 39.1311 25.3366 38.8709 25.2949L38.9805 25.1636C39.0335 25.2275 39.0849 25.2923 39.1371 25.357L39.2227 25.1317L39.7765 25.0545Z" fill="#1F1E25"/>
<path d="M40.1908 27.2687L38.8092 27.7965L38.7741 27.7442L39.5916 27.2775L40.1908 27.2687Z" fill="#1F1E25"/>
<path d="M43.2398 28.1515C43.173 28.187 43.0609 28.2659 43.048 28.2517C42.9823 28.1646 42.9249 28.071 42.8768 27.9723L43.2398 28.1515Z" fill="#1F1E25"/>
<path d="M46.0406 38.7876C46.0354 38.6594 46.0294 38.5312 46.0243 38.4029L46.1527 38.395C46.1587 38.5232 46.1655 38.6523 46.1715 38.7806L46.0406 38.7876Z" fill="white"/>
<path d="M42.8845 27.9803L42.4463 27.7088L42.8845 27.9803Z" fill="#1F1E25"/>
<path d="M42.4574 27.7152L42.1621 27.5527C42.2614 27.6057 42.359 27.6604 42.4574 27.7152Z" fill="#1F1E25"/>
<path d="M43.9888 27.9822L44.124 28.0701L44.0727 28.1238L43.9871 27.9858L43.9888 27.9822Z" fill="#DADADA"/>
<path d="M46.02 37.6903C46.0405 37.7 46.0739 37.7053 46.0799 37.7211C46.0859 37.7369 46.0645 37.7633 46.0551 37.7853C46.0337 37.7756 46.0012 37.7704 45.9952 37.7545C45.9892 37.7387 46.0106 37.7123 46.02 37.6903Z" fill="white"/>
<path d="M39.2201 25.1317L39.1345 25.3568C39.0823 25.2921 39.0309 25.2274 38.9779 25.1636L39.2201 25.1317Z" fill="#BEE3F2"/>
<path d="M42.5139 38.763L42.5452 38.7543L42.5418 38.7795L42.5139 38.763Z" fill="#C69784"/>
<path d="M42.7365 38.9925L42.7523 38.962L42.7637 38.9961L42.7365 38.9925Z" fill="#C69784"/>
<path d="M45.1751 26.9815V26.9474L45.2102 26.9644L45.1751 26.9815Z" fill="#C69784"/>
<path d="M46.1706 29.3745C46.1757 29.3841 46.186 29.3945 46.1852 29.4032C46.1843 29.4118 46.1723 29.4197 46.1655 29.4283L46.1706 29.3745Z" fill="#C69784"/>
<path d="M42.2803 24.4354L42.3162 24.3943C42.3162 24.4023 42.3162 24.4131 42.3092 24.4175C42.299 24.4236 42.2881 24.4284 42.2768 24.4319L42.2803 24.4354Z" fill="#C69784"/>
<path d="M35.269 26.6511L35.2855 26.6199L35.2681 26.6511H35.269Z" fill="#C69784"/>
<path d="M47.1512 26.5614L47.1319 26.599L47.1529 26.5632L47.1512 26.5614Z" fill="#C69784"/>
<path d="M37.3202 26.9172L37.3036 26.9521L37.3211 26.9172H37.3202Z" fill="#C69784"/>
<path d="M40.2268 40.8496L40.2424 40.8175L40.2268 40.8496Z" fill="#C69784"/>
<path d="M36.0385 44.6663L36.055 44.6351L36.0367 44.6646L36.0385 44.6663Z" fill="#C69784"/>
<path d="M47.8474 44.1777L47.7952 44.1362C47.8108 44.1208 47.8274 44.1067 47.8449 44.0938C47.8492 44.0938 47.874 44.1097 47.8723 44.1141C47.8656 44.1359 47.8573 44.1572 47.8474 44.1777Z" fill="#C69784"/>
<path d="M41.521 51.0108L41.4697 50.971C41.4847 50.956 41.5011 50.9424 41.5185 50.9304C41.5227 50.9304 41.5467 50.9454 41.5458 50.9498C41.5388 50.9707 41.5305 50.991 41.521 51.0108Z" fill="#C69784"/>
<path d="M42.8684 51.3484L42.9008 51.3664L42.8657 51.3799L42.8684 51.3484Z" fill="#C69784"/>
<path d="M32.7028 38.6301L32.6754 38.69L32.6463 38.6448L32.7079 38.6309L32.7028 38.6301Z" fill="#C69784"/>
<path d="M35.518 47.8547L35.4983 47.9102C35.4983 47.9016 35.4898 47.8885 35.4932 47.8842C35.5031 47.8745 35.5143 47.8663 35.5266 47.8599L35.518 47.8547Z" fill="#C69784"/>
<path d="M35.4909 48.0712L35.4987 48.0982L35.4744 48.093L35.4909 48.0712Z" fill="#C69784"/>
<path d="M38.5225 28.1634L38.5867 28.0035L38.6723 28.0742L38.5199 28.1581L38.5225 28.1634Z" fill="#1F1E25"/>
<path d="M42.3059 24.6382L42.2203 24.6469L42.2537 24.5878C42.2725 24.6043 42.2896 24.6234 42.3059 24.6382Z" fill="#DADADA"/>
<path d="M38.5186 28.1586L38.4977 28.1864L38.5229 28.1638L38.5186 28.1586Z" fill="#1F1E25"/>
</g>
</svg>
